<?xml version="1.0" encoding="UTF-8" standalone="no"?>
<svg
   xmlns:dc="http://purl.org/dc/elements/1.1/"
   xmlns:cc="http://creativecommons.org/ns#"
   xmlns:rdf="http://www.w3.org/1999/02/22-rdf-syntax-ns#"
   xmlns:svg="http://www.w3.org/2000/svg"
   xmlns="http://www.w3.org/2000/svg"
   xmlns:sodipodi="http://sodipodi.sourceforge.net/DTD/sodipodi-0.dtd"
   xmlns:inkscape="http://www.inkscape.org/namespaces/inkscape"
   viewBox="0 0 194.69999 194.7"
   width="194.7"
   height="194.7"
   version="1.1"
   id="svg1151"
   sodipodi:docname="osmapp2.svg"
   inkscape:export-filename="/Users/pavel/dev/osmapp/public/logo/osmapp_1024.png"
   inkscape:export-xdpi="504.78"
   inkscape:export-ydpi="504.78"
   inkscape:version="1.0.2 (e86c8708, 2021-01-15)">
  <metadata
     id="metadata1157">
    <rdf:RDF>
      <cc:Work
         rdf:about="">
        <dc:format>image/svg+xml</dc:format>
        <dc:type
           rdf:resource="http://purl.org/dc/dcmitype/StillImage" />
        <dc:title></dc:title>
      </cc:Work>
    </rdf:RDF>
  </metadata>
  <defs
     id="defs1155" />
  <sodipodi:namedview
     pagecolor="#ffffff"
     bordercolor="#666666"
     borderopacity="1"
     objecttolerance="10"
     gridtolerance="10"
     guidetolerance="10"
     inkscape:pageopacity="0"
     inkscape:pageshadow="2"
     inkscape:window-width="1536"
     inkscape:window-height="951"
     id="namedview1153"
     showgrid="false"
     fit-margin-top="3.7"
     fit-margin-left="2"
     fit-margin-right="2"
     fit-margin-bottom="3.7"
     lock-margins="false"
     inkscape:zoom="3.3632812"
     inkscape:cx="45.538144"
     inkscape:cy="99.592"
     inkscape:window-x="0"
     inkscape:window-y="25"
     inkscape:window-maximized="0"
     inkscape:current-layer="svg1151" />
  <g
     fillRule="evenodd"
     id="g1149"
     transform="translate(-30.578,-28.408)">
    <path
       d="m 32.578,33.691 47.532,11.579 42.412,-11.943 43.51,11.822 44.12,-13.041 13.162,47.166 -14.382,42.29 11.7,41.804 -10.846,44.241 -44.607,11.822 -43.51,-12.797 -34.125,10.847 -51.31,-6.094 10.97,-46.556 L 35.869,119.127 47.69,78.663 Z"
       fill="#eb5757"
       id="path1141" />
    <g
       fill="#ffffff"
       stroke="#ffffff"
       id="g1147">
      <path
         d="m 118.927,125.615 -36.129,35.643 c 2.407,4.336 8.381,9.267 11.495,11.199 l 33.955,-37.286"
         strokeWidth="1.309"
         id="path1143" />
      <path
         d="m 175.92,107.559 c 0,17.48 -13.968,31.65 -31.198,31.65 -17.23,0 -31.198,-14.17 -31.198,-31.65 0,-17.48 13.967,-31.65 31.198,-31.65 17.23,0 31.198,14.17 31.198,31.65 z"
         strokeWidth="2.945"
         id="path1145" />
    </g>
  </g>
</svg>
