<svg xmlns="http://www.w3.org/2000/svg" width="256" height="256">
  <rect
    width="256"
    height="256"
    fill="#EB5757"
  />
  <path fill="white" d="M256 43.988c-20.121 12.219-37.582 21.856-52.598 29.457-3.039-5.129-7.222-9.836-12.613-13.863-12.348-9.21-28.113-13.047-42.566-10.91-14.625 2.16-28.403 10.594-35.125 26.187-3.57 8.286-3.664 17.594-2.461 26.063.199 1.406.437 2.808.71 4.203-3.218.8-6.792 1.512-11.195 2.527-10.77 2.489-24.808 6.453-35.105 18.016-9.508 10.68-15.172 24.14-15.125 37.672.008 1.695.101 3.387.293 5.062-14.524 7.266-31.2 16.356-50.215 27.723v21.621c21.613-13.246 40.238-23.57 56.125-31.613 3.04 5.129 7.219 9.84 12.613 13.863 12.344 9.211 28.114 13.047 42.563 10.914 14.629-2.164 28.406-10.594 35.129-26.191 3.57-8.285 3.664-17.594 2.46-26.063a84.836 84.836 0 0 0-.71-4.199c3.218-.805 6.793-1.516 11.195-2.531 10.77-2.488 24.809-6.453 35.102-18.016 9.511-10.68 15.171-24.137 15.128-37.672a47.696 47.696 0 0 0-.292-5.062c13.617-6.813 29.125-15.23 46.687-25.621Zm-99.582 22.606c8.055.058 16.477 2.715 23.309 7.812 2.902 2.168 5.191 4.578 6.937 7.164-11.027 5.106-20.402 8.93-28.23 11.785-12.012 4.383-20.38 6.48-25.582 7.485a67.148 67.148 0 0 1-3.383.578 63.862 63.862 0 0 1-.52-3.094c-.969-6.812-.543-12.254 1.133-16.144 3.773-8.746 11.45-13.825 20.848-15.211a35.43 35.43 0 0 1 5.488-.375Zm34.469 33.386c-.86 7.317-4.309 14.993-10.223 21.633-6.129 6.88-14.988 9.875-25.453 12.293-3.742.864-8.106 1.742-12.098 2.758-.332-.91-.675-1.82-1.023-2.726-2.133-5.524-4.442-10.59-6.508-14.793.266-.051.504-.09.781-.145 6.278-1.21 15.59-3.594 28.41-8.27 7.47-2.722 16.149-6.238 26.114-10.75Zm-74.473 22.934c.336.922.676 1.832 1.023 2.727 2.133 5.527 4.442 10.59 6.508 14.796-.265.047-.507.086-.78.141-6.278 1.215-15.595 3.598-28.411 8.27-7.469 2.722-16.149 6.238-26.113 10.754.859-7.317 4.308-14.997 10.222-21.633 6.125-6.883 14.989-9.875 25.453-12.293 3.739-.864 8.102-1.746 12.098-2.762Zm13.645 35.246c.199 1.043.375 2.074.52 3.098.968 6.808.542 12.254-1.134 16.14-3.773 8.75-11.449 13.825-20.847 15.211-9.57 1.414-20.387-1.16-28.797-7.437-2.903-2.164-5.196-4.578-6.938-7.16 11.028-5.106 20.399-8.934 28.227-11.79 12.015-4.378 20.383-6.48 25.586-7.484a77.436 77.436 0 0 1 3.383-.578Zm0 0"/>
</svg>
