<svg xmlns="http://www.w3.org/2000/svg" width="11" height="11"><path d="M7.703 5.617c-.074-.281-.433-.508-.707-.375l-1.055.477V3.832L7.793.918A.451.451 0 0 0 7.66.285a.44.44 0 0 0-.613.137L5.492 2.898l-.937.004a.484.484 0 0 0-.18.032l-1.621.632-.836-1.257a.466.466 0 0 0-.637-.137.457.457 0 0 0-.136.637l1.042 1.566a.47.47 0 0 0 .575.176l1.195-.461v2.07L2.328 9.766c-.121.273.012.578.3.738.286.16.618.066.735-.207l1.309-2.988c.117.03.242.046.367.046.121 0 .234-.02.336-.058l1.473-.684.32 1.29a.537.537 0 0 0 1.043-.258l-.512-2.02ZM6.38 4.86v.34C8.579 4.098 9.434.316 9.434 0h-.309c-.113.79-.984 3.945-2.746 4.86ZM4.82 2.734c.45 0 .817-.359.817-.808a.814.814 0 0 0-.817-.809.814.814 0 0 0-.816.809c0 .449.367.808.816.808ZM5.5 11h.441V7.355L5.5 7.7Zm0 0" style="stroke:none;fill-rule:nonzero;fill:#000;fill-opacity:1"/></svg>
