<svg xmlns="http://www.w3.org/2000/svg" width="11" height="11"><path style="stroke:none;fill-rule:nonzero;fill:#000;fill-opacity:1" d="M7.703 5.621c-.074-.285-.433-.512-.707-.379l-1.055.477V3.832L7.797.918A.456.456 0 0 0 7.66.285a.44.44 0 0 0-.613.137L5.492 2.898l-.937.004a.498.498 0 0 0-.18.032l-1.621.632-.832-1.257a.464.464 0 0 0-.637-.137.457.457 0 0 0-.14.633l1.042 1.57c.118.18.368.262.575.176L3.96 4.09v2.07L2.332 9.766c-.121.273.012.578.3.738.286.16.614.066.735-.207l1.309-2.988c.113.03.238.046.367.046.117 0 .234-.023.336-.058l1.473-.684.32 1.285c.07.29.363.465.652.391a.53.53 0 0 0 .39-.648zM6.38 4.86v.34C8.579 4.098 9.434.316 9.434 0h-.309c-.113.79-.984 3.945-2.746 4.86zM4.82 2.734c.45 0 .817-.359.817-.808a.814.814 0 0 0-.817-.809.814.814 0 0 0-.816.809c0 .449.367.808.816.808zM5.5 11h.441V7.355L5.5 7.7zm0 0"/></svg>