<svg xmlns="http://www.w3.org/2000/svg" width="11" height="11"><path style="stroke:none;fill-rule:nonzero;fill:#000;fill-opacity:1" d="M8.434 11V1.465H2.566V11H1.102V0h8.796v11zM4.398 4.398l.176-.21a.376.376 0 0 1 .457-.09l1.914 1.015c.016.004.035.02.051.035.16.125.184.36.059.512l-.453.574 1.105.278c.2.05.324.25.273.449l-.523 2.066a.327.327 0 0 1-.074.141.292.292 0 0 1-.418 0 .935.935 0 0 1-.238-.875l.238-.961h-.828c.058.172.097.36.097.55 0 .911-.742 1.653-1.652 1.653a1.655 1.655 0 0 1-1.648-1.652c0-.91.742-1.649 1.648-1.649.098 0 .191.008.281.02l.637-.938-.469-.234-.55.684a.46.46 0 0 1-.711-.582zm2.567.368a.732.732 0 1 1 .003-1.464.732.732 0 0 1-.003 1.464zM4.582 8.617a.736.736 0 0 0 .734-.734.736.736 0 0 0-.734-.735.735.735 0 0 0 0 1.47zm0 0"/></svg>