<svg xmlns="http://www.w3.org/2000/svg" width="11" height="11"><path style="stroke:none;fill-rule:nonzero;fill:#000;fill-opacity:1" d="M8.434 11V1.465H2.566V11H1.102V0h8.796v11zM4.398 4.398l.18-.21a.37.37 0 0 1 .453-.09l1.91 1.011c.02.012.04.024.059.04a.366.366 0 0 1 .055.515l-.453.57 1.109.278a.364.364 0 0 1 .266.445L7.46 9.031a.367.367 0 0 1-.078.137.3.3 0 0 1-.418 0 .92.92 0 0 1-.238-.871l.238-.965H6.14a1.653 1.653 0 0 1-1.559 2.203c-.91 0-1.648-.742-1.648-1.652a1.649 1.649 0 0 1 1.93-1.625l.636-.942-.469-.234-.547.68a.459.459 0 0 1-.714-.578zm2.567.368a.732.732 0 1 1 .003-1.464.732.732 0 0 1-.003 1.464zM4.582 8.617a.734.734 0 1 0 .002-1.467.734.734 0 0 0-.002 1.467zm0 0"/></svg>