<svg xmlns="http://www.w3.org/2000/svg" width="11" height="11"><path d="M9.02.219H1.98a.884.884 0 0 0-.878.883v8.796c0 .485.394.883.878.883h7.04a.884.884 0 0 0 .878-.883V1.102A.884.884 0 0 0 9.02.219Zm-5.282 8.8a.44.44 0 0 1-.437.442h-.88a.443.443 0 0 1-.44-.441V8.8c0-.241.199-.44.44-.44h.88c.242 0 .437.199.437.44Zm0-1.757a.437.437 0 0 1-.437.437h-.88a.44.44 0 0 1-.44-.437v-.223c0-.242.199-.437.44-.437h.88c.242 0 .437.195.437.437Zm0-1.762a.44.44 0 0 1-.437.441h-.88a.443.443 0 0 1-.44-.441v-.219c0-.242.199-.441.44-.441h.88c.242 0 .437.2.437.441Zm2.64 3.52a.44.44 0 0 1-.437.44H5.06a.44.44 0 0 1-.438-.44V8.8a.44.44 0 0 1 .438-.44h.882c.243 0 .438.199.438.44Zm0-1.758a.437.437 0 0 1-.437.437H5.06a.437.437 0 0 1-.438-.437v-.223c0-.242.195-.437.438-.437h.882c.243 0 .438.195.438.437Zm0-1.762a.44.44 0 0 1-.437.441H5.06A.44.44 0 0 1 4.62 5.5v-.219a.44.44 0 0 1 .438-.441h.882c.243 0 .438.2.438.441ZM9.02 9.02c0 .242-.2.44-.442.44H7.7a.44.44 0 0 1-.437-.44V8.8a.44.44 0 0 1 .437-.44h.88c.241 0 .44.199.44.44Zm0-1.758a.44.44 0 0 1-.442.437H7.7a.437.437 0 0 1-.437-.437v-.223c0-.242.195-.437.437-.437h.88a.44.44 0 0 1 .44.437Zm0-1.762c0 .242-.2.441-.442.441H7.7a.44.44 0 0 1-.437-.441v-.219a.44.44 0 0 1 .437-.441h.88c.241 0 .44.2.44.441Zm0-1.98c0 .242-.2.44-.442.44H2.422a.443.443 0 0 1-.442-.44V1.762c0-.242.2-.442.442-.442h6.156c.242 0 .442.2.442.442Zm0 0" style="stroke:none;fill-rule:nonzero;fill:#000;fill-opacity:1"/></svg>