<svg xmlns="http://www.w3.org/2000/svg" width="11" height="11"><path style="stroke:none;fill-rule:nonzero;fill:#000;fill-opacity:1" d="M1.465.734h8.07c.402 0 .73.329.73.73v8.071c0 .402-.328.73-.73.73h-8.07a.732.732 0 0 1-.73-.73v-2.57l6.324.36c.109.003.218-.04.293-.122l1.691-1.887a.37.37 0 0 0-.031-.52.355.355 0 0 0-.211-.089L.734 4.035v-2.57c0-.403.329-.73.73-.73zm3.668 5.868v-.774c0-.152.094-.289.238-.34l.879-.336a.362.362 0 0 1 .39.082l.567.579c.14.144.14.375-.004.515l-.016.016-.609.531a.364.364 0 0 1-.242.09H5.5a.366.366 0 0 1-.367-.363zm-2.2 0v-.368c0-.203.165-.367.368-.367h.914c.101 0 .183.082.183.184v.55l-.57.184zm0 0"/></svg>