<svg xmlns="http://www.w3.org/2000/svg" width="11" height="11"><path style="stroke:none;fill-rule:nonzero;fill:#000;fill-opacity:1" d="M1.465.734h8.07c.402 0 .73.329.73.73v8.071c0 .402-.328.73-.73.73h-8.07a.732.732 0 0 1-.73-.73v-2.57l6.32.36a.367.367 0 0 0 .293-.122l1.695-1.887a.366.366 0 0 0-.242-.609L.734 4.035v-2.57c0-.403.329-.73.73-.73zm3.668 5.868v-.774a.38.38 0 0 1 .234-.344l.88-.336a.382.382 0 0 1 .398.086l.562.575c.14.144.14.378-.004.52l-.016.015-.609.535a.36.36 0 0 1-.242.086H5.5a.361.361 0 0 1-.367-.363zm-2.2 0v-.368c0-.207.16-.367.368-.367h.914a.18.18 0 0 1 .183.184v.55l-.57.184zm0 0"/></svg>