<svg xmlns="http://www.w3.org/2000/svg" width="11" height="11"><path style="stroke:none;fill-rule:nonzero;fill:#000;fill-opacity:1" d="m6.234 3.203-1.468.18V1.465c0-.403.328-.73.734-.73.406 0 .734.328.734.73zm0 1.844v5.219H4.766V5.23zM3.301 3.559a.734.734 0 1 1-.002-1.47.734.734 0 0 1 .002 1.47zm4.398-.59a.735.735 0 0 1-.734-.73.734.734 0 1 1 .734.73zm-4.398 3.96a.734.734 0 1 1-.002-1.466.734.734 0 0 1 .002 1.467zm4.398-.585a.736.736 0 0 1-.734-.735.734.734 0 1 1 .734.734zM1.145 5.129a.368.368 0 0 1-.41-.316.371.371 0 0 1 .32-.41l8.8-1.098c.2-.028.383.117.41.316a.374.374 0 0 1-.32.41zm0 0"/></svg>