<svg xmlns="http://www.w3.org/2000/svg" width="11" height="11"><path style="stroke:none;fill-rule:nonzero;fill:#000;fill-opacity:1" d="M4.95 9.86V8.347a1.828 1.828 0 0 1-1.282-1.746c0-.856.582-1.57 1.371-1.778L2.2 2.934V0h6.602v2.934l-2.84 1.89c.789.207 1.371.922 1.371 1.778 0 .82-.539 1.515-1.281 1.746v1.511c.922-.14 1.52-.664 1.867-1.613a.546.546 0 0 1 .703-.328.546.546 0 0 1 .328.703C8.383 10.184 7.195 11 5.5 11c-1.695 0-2.883-.816-3.45-2.379a.546.546 0 0 1 .329-.703.546.546 0 0 1 .703.328c.348.95.945 1.473 1.867 1.613zm.55-2.528a.733.733 0 1 0 0-1.465.734.734 0 1 0 0 1.465zm0 0"/></svg>