<svg xmlns="http://www.w3.org/2000/svg" width="11" height="11"><path d="M4.95 9.863V8.352a1.836 1.836 0 0 1 .09-3.527c-.911-.61-2.84-1.891-2.84-1.891V0h6.6v2.934s-1.929 1.28-2.84 1.89a1.836 1.836 0 0 1 .09 3.528v1.511c.923-.148 1.524-.668 1.872-1.62a.536.536 0 0 1 .703-.321.536.536 0 0 1 .32.703C8.383 10.188 7.195 11 5.5 11c-1.695 0-2.883-.813-3.445-2.375a.536.536 0 0 1 .32-.703.536.536 0 0 1 .703.32c.348.953.95 1.473 1.871 1.621Zm.55-2.531a.735.735 0 0 0 .734-.73.736.736 0 0 0-.734-.735.736.736 0 0 0-.734.735c0 .402.332.73.734.73Zm0 0" style="stroke:none;fill-rule:nonzero;fill:#000;fill-opacity:1"/></svg>