<svg xmlns="http://www.w3.org/2000/svg" width="11" height="11"><path style="stroke:none;fill-rule:nonzero;fill:#000;fill-opacity:1" d="M5.5 2.934c.406 0 .734.328.734.734v6.598s0 .734-.734.734-.734-.734-.734-.734V3.668c0-.406.328-.734.734-.734zM3.45 1.855c-.165.024-.09-.007-.227.086-.875.875-.875 2.575 0 3.454.144.14.375.14.52 0a.365.365 0 0 0 0-.52c-.59-.59-.59-1.824 0-2.414a.365.365 0 0 0 0-.52L3.62 1.86zm3.85 0c-.167.024-.09-.007-.226.086a.365.365 0 0 0 0 .52c.59.59.59 1.824 0 2.414a.365.365 0 0 0 0 .52c.145.14.375.14.52 0 .875-.88.875-2.579 0-3.454l-.121-.082zM8.919.387c-.324.02-.203-.04-.395.105a.365.365 0 0 0 .036.516c1.492 1.32 1.492 3.996 0 5.316a.37.37 0 0 0-.036.52.37.37 0 0 0 .52.031c1.82-1.613 1.82-4.805 0-6.414zm-6.836 0L1.957.46c-1.82 1.61-1.82 4.8 0 6.414a.366.366 0 1 0 .484-.55C.95 5.003.95 2.327 2.441 1.007a.362.362 0 0 0 .032-.516C2.285.348 2.406.406 2.082.387zm0 0"/></svg>