<svg xmlns="http://www.w3.org/2000/svg" width="11" height="11"><path style="stroke:none;fill-rule:nonzero;fill:#000;fill-opacity:1" d="M5.5 2.934c.402 0 .734.328.734.734v6.598s0 .734-.734.734-.734-.734-.734-.734V3.668c0-.406.332-.734.734-.734zM3.453 1.855c-.168.024-.094-.007-.226.086-.88.875-.88 2.575 0 3.45.14.144.375.144.511 0a.354.354 0 0 0 0-.516c-.586-.594-.586-1.824 0-2.418a.354.354 0 0 0 0-.516l-.117-.078zm3.852 0c-.168.024-.098-.007-.227.086a.354.354 0 0 0 0 .516c.586.594.586 1.824 0 2.418a.354.354 0 0 0 0 .516.356.356 0 0 0 .512 0c.879-.875.879-2.575 0-3.45l-.117-.078zM8.918.387c-.324.015-.207-.043-.39.105a.353.353 0 0 0 .03.512c1.489 1.328 1.489 4.004 0 5.324a.358.358 0 0 0-.03.516.358.358 0 0 0 .515.027c1.824-1.605 1.824-4.797 0-6.41zm-6.836 0L1.957.46c-1.824 1.613-1.824 4.805 0 6.41.156.14.383.125.516-.027a.358.358 0 0 0-.032-.516c-1.488-1.32-1.488-3.996 0-5.324a.353.353 0 0 0 .032-.512c-.184-.148-.067-.09-.391-.105zm0 0"/></svg>