<svg xmlns="http://www.w3.org/2000/svg" width="11" height="11"><path style="stroke:none;fill-rule:nonzero;fill:#000;fill-opacity:1" d="m8.066 9.168 1.47 1.098V11h-1.47c-.488-.488-1.101-.734-1.832-.734-.734 0-1.343.246-1.836.734H2.934v-.734l1.464-1.098zM11 5.133v.734a2.934 2.934 0 0 0-2.93 2.785l-.004.149H4.398c0-.469-.183-.922-.515-1.254l-.215-.215v-2.2zM3.3 5.5v1.832C2.079 7.332.978 6.722 0 5.5zM8.435.734c.18 0 .328.13.359.301l.008.067v2.933c0 .18-.13.328-.301.36l-.066.003h-1.47a.365.365 0 0 1-.359-.3l-.003-.063V1.102a.37.37 0 0 1 .3-.364l.063-.004zM6.234 2.2v.735H1.832a.367.367 0 0 1-.066-.727l.066-.008zm0 0"/></svg>