<svg xmlns="http://www.w3.org/2000/svg" width="11" height="11"><path style="stroke:none;fill-rule:nonzero;fill:#000;fill-opacity:1" d="M2.934 0h5.132c.407 0 .735.328.735.734V11H2.199V.734C2.2.328 2.527 0 2.934 0zm0 1.465v5.867c.488.488 1.343.734 2.566.734 1.223 0 2.078-.246 2.566-.734V1.465C7.578.977 6.723.735 5.5.735c-1.223 0-2.078.242-2.566.73zm1.101 0h.73c.204 0 .368.164.368.367v.734a.367.367 0 0 1-.367.368h-.73a.367.367 0 0 1-.368-.368v-.734c0-.203.164-.367.367-.367zm2.2 0h.73c.203 0 .367.164.367.367v.734a.367.367 0 0 1-.367.368h-.73a.367.367 0 0 1-.368-.368v-.734c0-.203.164-.367.367-.367zm0 2.203h.73c.203 0 .367.164.367.367v.73a.367.367 0 0 1-.367.368h-.73a.367.367 0 0 1-.368-.367v-.73c0-.204.164-.368.367-.368zm-2.2 0h.73c.204 0 .368.164.368.367v.73a.367.367 0 0 1-.367.368h-.73a.367.367 0 0 1-.368-.367v-.73c0-.204.164-.368.367-.368zm0 2.2h.73c.204 0 .368.163.368.366v.73a.367.367 0 0 1-.367.368h-.73a.367.367 0 0 1-.368-.367v-.73c0-.204.164-.368.367-.368zm2.2 0h.73c.203 0 .367.163.367.366v.73a.367.367 0 0 1-.367.368h-.73a.367.367 0 0 1-.368-.367v-.73c0-.204.164-.368.367-.368zm0 0"/></svg>