<svg xmlns="http://www.w3.org/2000/svg" width="11" height="11"><path style="stroke:none;fill-rule:nonzero;fill:#000;fill-opacity:1" d="M2.934 0h5.132c.403 0 .735.328.735.734V11H2.199V.734C2.2.328 2.531 0 2.934 0zm0 1.465v5.867c.492.492 1.34.734 2.566.734 1.227 0 2.074-.242 2.566-.734V1.465C7.574.977 6.726.735 5.5.735c-1.227 0-2.074.242-2.566.73zm1.101 0h.73c.208 0 .368.164.368.367v.734c0 .207-.16.368-.367.368h-.73a.362.362 0 0 1-.368-.368v-.734c0-.203.16-.367.367-.367zm2.2 0h.73c.207 0 .367.164.367.367v.734c0 .207-.16.368-.367.368h-.73a.362.362 0 0 1-.368-.368v-.734c0-.203.16-.367.367-.367zm0 2.203h.73c.207 0 .367.16.367.367v.73c0 .208-.16.368-.367.368h-.73a.362.362 0 0 1-.368-.367v-.73c0-.208.16-.368.367-.368zm-2.2 0h.73c.208 0 .368.16.368.367v.73c0 .208-.16.368-.367.368h-.73a.362.362 0 0 1-.368-.367v-.73c0-.208.16-.368.367-.368zm0 2.2h.73c.208 0 .368.16.368.366v.73c0 .208-.16.368-.367.368h-.73a.362.362 0 0 1-.368-.367v-.73c0-.208.16-.368.367-.368zm2.2 0h.73c.207 0 .367.16.367.366v.73c0 .208-.16.368-.367.368h-.73a.362.362 0 0 1-.368-.367v-.73c0-.208.16-.368.367-.368zm0 0"/></svg>