<svg xmlns="http://www.w3.org/2000/svg" width="11" height="11"><path style="stroke:none;fill-rule:nonzero;fill:#000;fill-opacity:1" d="M4.148 2.332c.493 0 .891-.41.891-.91a.9.9 0 0 0-.89-.91.902.902 0 0 0-.891.91c0 .5.402.91.89.91zm.25.309H1.762c-.442 0-.442.66 0 .66h2.636c.442 0 .442-.66 0-.66zm4.18.273a4.204 4.204 0 0 0-.996-2.73A3.59 3.59 0 0 0 7.422 0L4.918 2.563l-.043.042.023.032c.04.07.059.148.07.226 0 .032 0 .067-.003.098a.675.675 0 0 1-.047.2l-.004.003-.016.04-.015.03a.604.604 0 0 1-.528.286H2.86v3.52l-.48 3.35c-.05.278.156.547.426.598.27.059.66-.148.715-.43l.44-3.738h.22l.746 3.77c.054.277.441.457.71.398.27-.05.419-.32.368-.597L5.28 6.812V3.82l2.051 2.008s.211-.18.211-.183c.64-.758 1.035-1.723 1.035-2.73zm-.453.387c-.07.66-.457 1.457-.938 2.043-.445-.457-1.468-1.313-1.906-1.875V3.3zm0-.66H5.258c.527-.66 1.512-1.547 2.02-2.063.48.582.777 1.184.847 2.063zm0 0"/></svg>