<svg xmlns="http://www.w3.org/2000/svg" width="11" height="11"><path d="M4.148 2.332a.9.9 0 0 0 .891-.91.9.9 0 0 0-.89-.91.899.899 0 0 0-.887.91c0 .5.398.91.886.91Zm.254.309h-2.64c-.442 0-.442.66 0 .66h2.64c.442 0 .442-.66 0-.66Zm4.18.273a4.204 4.204 0 0 0-.996-2.73C7.586.18 7.422 0 7.422 0L4.918 2.563l-.04.042.024.032c.04.07.059.148.067.226.004.035 0 .067-.004.102a.494.494 0 0 1-.047.195v.008l-.016.039-.015.031a.609.609 0 0 1-.528.285H2.863v3.52l-.484 3.352c-.05.273.16.543.43.597.27.055.656-.152.71-.43l.442-3.742h.219l.746 3.77c.054.281.441.457.71.402.27-.05.419-.32.368-.597L5.28 6.816V3.824l2.055 2.012s.207-.184.207-.188c.64-.757 1.039-1.722 1.039-2.726Zm-.453.387c-.074.66-.457 1.457-.938 2.039-.445-.453-1.468-1.309-1.91-1.871V3.3Zm0-.66H5.262c.527-.66 1.511-1.547 2.015-2.063.485.582.782 1.184.852 2.063Zm0 0" style="stroke:none;fill-rule:nonzero;fill:#000;fill-opacity:1"/></svg>