<svg xmlns="http://www.w3.org/2000/svg" width="11" height="11"><path d="M8.8 1.465H2.2V8.8c0 .402.331.734.734.734h5.132a.739.739 0 0 0 .735-.734Zm-.734 2.57c0 1.012-1.152 1.832-2.566 1.832s-2.566-.82-2.566-1.832C2.934 3.02 4.086 2.2 5.5 2.2s2.566.82 2.566 1.836Zm0 3.664v1.102H6.965a.363.363 0 0 1-.363-.367c0-.207.16-.368.363-.368.207 0 .367.16.367.368l.367-.368a.367.367 0 1 1 .367-.367ZM6.965 4.035a.693.693 0 0 0-.18-.5v.996a.69.69 0 0 0 .18-.496Zm-.363-.648c-.067-.035-.125-.043-.184-.059v1.41c.059-.015.117-.023.184-.058ZM6.234 3.3h-.183v1.465h.183Zm-.367 0h-.183v1.465h.183Zm-.367 0h-.184v1.465H5.5Zm-.367 0-.184-.184v1.465l.184.184Zm-.367-.367s-.075.027-.184.074v1.664l.184-.274Zm-.368.175c-.062.036-.117.059-.183.102v1.66c.105.05.183.078.183.078Zm0 5.325c0 .203-.16.367-.363.367H2.934V7.699a.367.367 0 1 1 .367.367l.367.368c0-.207.16-.368.367-.368.203 0 .363.16.363.368Zm-.363-5.082c-.066.058-.133.117-.183.191v1.039c.058.074.117.14.183.184Zm0 0" style="stroke:none;fill-rule:nonzero;fill:#000;fill-opacity:1"/><path d="M.734 0v2.2h.73V.733h8.071V2.2h.73V0ZM2.2 9.898c0 .774.309 1.102.735 1.102h5.132c.391 0 .735-.328.735-1.102-.227.2-.367.36-.735.348l-5.132.043c-.352-.016-.508-.16-.735-.39Zm0 0" style="stroke:none;fill-rule:nonzero;fill:#000;fill-opacity:1"/></svg>