<svg xmlns="http://www.w3.org/2000/svg" width="11" height="11"><path style="stroke:none;fill-rule:nonzero;fill:#000;fill-opacity:1" d="M9.11 4.816 8.565 2.56a.735.735 0 0 0-.886-.547.84.84 0 0 0-.59.496c-.078.203-.442 1.11-.527 1.297a.214.214 0 0 1-.106.105c-.07.031-.793.336-.793.336a.417.417 0 0 0 .324.766l.953-.395a.551.551 0 0 0 .262-.254c.027-.047.11-.246.176-.41l.578 2.414v3.738c0 .372.254.672.629.676.375 0 .648-.3.648-.672l.004-4.41a5.28 5.28 0 0 0-.129-.883zM3.77 8.164v.941a.506.506 0 0 0 .296-.168.463.463 0 0 0 .114-.316c0-.11-.032-.2-.094-.277a.616.616 0 0 0-.316-.18zM3.187 6.7a.418.418 0 0 0-.085.258c0 .086.027.164.078.234a.51.51 0 0 0 .234.18v-.836a.44.44 0 0 0-.227.164zm2.239-1.117L4.109 2.945a.594.594 0 0 0-.539-.336H2.36a.594.594 0 0 0-.598.594v7.578h3.73V5.88a.689.689 0 0 0-.066-.297zM4.512 9.27c-.18.199-.426.324-.742.367v.453h-.356v-.442a1.134 1.134 0 0 1-.684-.308c-.175-.176-.285-.422-.335-.738l.636-.067a.827.827 0 0 0 .145.332c.074.094.152.16.238.203V8.06c-.316-.09-.55-.227-.7-.41a1.01 1.01 0 0 1-.222-.665.94.94 0 0 1 .254-.664c.168-.18.39-.285.668-.312V5.77h.356v.238c.257.031.464.12.617.262.152.144.25.34.293.578l-.617.082c-.04-.192-.137-.32-.293-.387v.945c.39.102.656.239.796.407.141.164.211.378.211.64 0 .29-.09.535-.265.735zM6.168 1.059a.85.85 0 0 0 1.7 0c0-.461-.384-.84-.848-.84a.849.849 0 0 0-.852.84zm0 0"/></svg>