<svg xmlns="http://www.w3.org/2000/svg" width="11" height="11"><path style="stroke:none;fill-rule:nonzero;fill:#000;fill-opacity:1" d="M10.633 8.066c.207 0 .367.16.367.368v.734c0 .203-.16.367-.367.367h-.367V11h-.73V9.535H1.464V11h-.73V9.535H.366A.364.364 0 0 1 0 9.168v-.734c0-.207.16-.368.367-.368zm-1.649-5.5c.301 0 .551.25.551.551 0 .301-.25.551-.55.551H6.601v1.195l.43 1.305.843.277c.266.09.418.36.367.625l-.023.075a.543.543 0 0 1-.621.363l-.075-.02-1.097-.367a.52.52 0 0 1-.317-.277l-.03-.067-.321-.976-.809.402v1.129a.542.542 0 0 1-.476.543l-.075.008a.548.548 0 0 1-.543-.477l-.003-.074V5.867c0-.183.086-.351.234-.457l.066-.035.98-.492V3.668H2.75c-.3 0-.55-.25-.55-.55 0-.302.25-.552.55-.552zM5.867 0c.61 0 1.098.492 1.098 1.102A1.1 1.1 0 1 1 5.867 0zm0 0"/></svg>