<svg xmlns="http://www.w3.org/2000/svg" width="11" height="11"><path style="stroke:none;fill-rule:nonzero;fill:#000;fill-opacity:1" d="M10.633 8.066c.203 0 .367.164.367.368v.734a.367.367 0 0 1-.367.367h-.367V11h-.73V9.535H1.464V11h-.73V9.535H.366A.367.367 0 0 1 0 9.168v-.734c0-.204.164-.368.367-.368zm-1.649-5.5c.301 0 .551.247.551.551 0 .305-.25.551-.55.551H6.601v1.191l.433 1.305.84.281a.553.553 0 0 1 .367.621l-.02.075a.552.552 0 0 1-.624.367l-.07-.02-1.102-.367a.562.562 0 0 1-.32-.277l-.028-.07-.324-.97-.805.403v1.125a.549.549 0 0 1-.472.547l-.079.004a.548.548 0 0 1-.543-.477l-.003-.074V5.867c0-.183.09-.351.234-.453l.066-.039.98-.492V3.668H2.75a.55.55 0 1 1 0-1.102zM5.867 0a1.1 1.1 0 1 1-.003 2.199A1.1 1.1 0 0 1 5.867 0zm0 0"/></svg>