<svg xmlns="http://www.w3.org/2000/svg" width="11" height="11"><path style="stroke:none;fill-rule:nonzero;fill:#000;fill-opacity:1" d="M8.434 1.465h-1.47c-.362 0-.362.734 0 .734h1.47c.367 0 .367.735 0 .735h-1.47c-.362 0-.362.734 0 .734h1.47c.367 0 .367.73 0 .73h-1.47c-.362 0-.362.735 0 .735h1.47c.367 0 .367.734 0 .734h-1.47c-.362 0-.362.735 0 .735h1.47c.367 0 .367.73 0 .73h-1.47c-.362 0-.362.734 0 .734h1.47c.367 0 .367.735 0 .735h-1.47c-.362 0-.362.734 0 .734h1.47c.367 0 .367.73 0 .73h-1.47c-.362 0-.362.735 0 .735h2.934c.368 0 .368-.734.368-.734V.734s0-.734-.368-.734H6.965c-.363 0-.363.734 0 .734h1.469c.367 0 .367.73 0 .73zM4.328 7.457c.805-.492 1.54.266 1.54.977 0 .445-.184.836-.575 1.011-.094.485.023.617.14.844.118.234-.175.527-.425.3-.211-.198-.32-.69-.317-1.034-.539-.028-1.023-.492-1.023-1.121L3.484 5.5h-.367l-.183 2.934c0 .562-.45 1.101-1.102 1.101-.645 0-1.098-.476-1.098-1.101 0-.696.73-1.47 1.59-.977.059.059.61-7.457.977-7.457s1.027 7.457 1.027 7.457zm-2.496.426c-.367 0-.547.183-.547.55 0 .368.18.551.547.551.367 0 .55-.367.55-.55 0-.368-.183-.551-.55-.551zm2.934 0c-.368 0-.551.183-.551.55 0 .184.183.551.55.551.368 0 .551-.183.551-.55 0-.368-.183-.551-.55-.551zm0 0"/></svg>