<svg xmlns="http://www.w3.org/2000/svg" width="11" height="11"><path style="stroke:none;fill-rule:nonzero;fill:#000;fill-opacity:1" d="M5.5 11A5.503 5.503 0 0 1 0 5.5C0 2.465 2.465 0 5.5 0S11 2.465 11 5.5 8.535 11 5.5 11zm0-.734A4.765 4.765 0 0 0 10.266 5.5 4.765 4.765 0 0 0 5.5.734 4.765 4.765 0 0 0 .734 5.5 4.765 4.765 0 0 0 5.5 10.266zm0-.73A4.033 4.033 0 0 1 1.465 5.5 4.033 4.033 0 0 1 5.5 1.465 4.033 4.033 0 0 1 9.535 5.5 4.033 4.033 0 0 1 5.5 9.535zM3.805 6.601 5.5 3.535l1.695 3.067zM5.5 2.016 2.566 7.332h5.868zm0 2.933c-.3 0-.55.25-.55.551 0 .3.25.55.55.55.3 0 .55-.25.55-.55 0-.3-.25-.55-.55-.55zm0 0"/></svg>