<svg xmlns="http://www.w3.org/2000/svg" width="11" height="11"><path style="stroke:none;fill-rule:nonzero;fill:#000;fill-opacity:1" d="M5.5 11C2.46 11 0 8.54 0 5.5S2.46 0 5.5 0 11 2.46 11 5.5 8.54 11 5.5 11zm0-.734A4.765 4.765 0 0 0 10.266 5.5 4.765 4.765 0 0 0 5.5.734 4.765 4.765 0 0 0 .734 5.5 4.765 4.765 0 0 0 5.5 10.266zm0-.73A4.038 4.038 0 0 1 1.465 5.5 4.038 4.038 0 0 1 5.5 1.465 4.038 4.038 0 0 1 9.535 5.5 4.038 4.038 0 0 1 5.5 9.535zM3.809 6.601 5.5 3.535l1.691 3.067zM5.5 2.016 2.566 7.332h5.868zm0 2.933a.55.55 0 1 0-.001 1.1.55.55 0 0 0 .001-1.1zm0 0"/></svg>