<svg xmlns="http://www.w3.org/2000/svg" width="11" height="11"><path style="stroke:none;fill-rule:nonzero;fill:#000;fill-opacity:1" d="M6.832 4.95c.164 0 .3.116.328.273l.008.062V6.48l.484.485c.844.082 1.516.789 1.516 1.652 0 .918-.75 1.668-1.668 1.668-.918 0-1.668-.75-1.668-1.668 0-.637.367-1.195.895-1.472l.109-.055-.27-.27-1.644.942c.152.25.246.539.246.855 0 .914-.75 1.668-1.668 1.668-.918 0-1.668-.75-1.668-1.668 0-.918.75-1.668 1.668-1.668.09 0 .18.012.266.028l.129.027-.29-.719H3.45c-.422.004-.449-.598-.074-.664l.074-.004h1.352c.426-.008.449.594.074.66l-.074.008h-.477l.344.852L6.5 6.09v-.473h-.332c-.426.004-.45-.597-.074-.66l.074-.008zM5.5 0 11 2.934v7.332H9.535V3.668h-8.07v6.598H0V2.934zm-2 7.617c-.555 0-1 .442-1 1 0 .555.445 1 1 1 .555 0 1-.445 1-1 0-.558-.445-1-1-1zm4 0c-.555 0-1 .442-1 1 0 .555.445 1 1 1 .555 0 1-.445 1-1 0-.558-.445-1-1-1zm0 0"/></svg>