<svg xmlns="http://www.w3.org/2000/svg" width="11" height="11"><path style="stroke:none;fill-rule:nonzero;fill:#000;fill-opacity:1" d="M6.234 2.566h.73c.204 0 .368.164.368.368V4.25l.535.535c.93.086 1.668.863 1.668 1.817A1.84 1.84 0 0 1 7.7 8.434a1.837 1.837 0 0 1-1.832-1.832c0-.75.457-1.395 1.102-1.68l-.293-.3-1.813 1.034c.168.278.27.598.27.946A1.837 1.837 0 0 1 3.3 8.434a1.84 1.84 0 0 1-1.836-1.832c0-1.008.828-1.836 1.836-1.836.148 0 .293.023.433.058l-.316-.789h-.172c-.496.004-.496-.742 0-.734H4.73c.497-.008.497.738 0 .734h-.523l.379.938L6.602 3.82V3.3h-.368c-.496.009-.496-.741 0-.734zM3.301 5.5c-.614 0-1.102.488-1.102 1.102 0 .609.489 1.097 1.102 1.097.61 0 1.097-.488 1.097-1.097 0-.614-.488-1.102-1.097-1.102zm4.398 0c-.61 0-1.097.488-1.097 1.102 0 .609.488 1.097 1.097 1.097.614 0 1.102-.488 1.102-1.097 0-.614-.489-1.102-1.102-1.102zm.735 4.035-.368-.734h1.47l.73 1.465H.734l.73-1.465h1.47l-.368.734zm0-8.07H2.566l.368.734h-1.47L.735.734h9.532L9.536 2.2h-1.47zm0 0"/></svg>