<svg xmlns="http://www.w3.org/2000/svg" width="11" height="11"><path d="M.734 1.465h9.532v8.07H.734Zm.73.734v6.602h8.071V2.199Zm0 0" style="stroke:none;fill-rule:nonzero;fill:#000;fill-opacity:1"/><path d="M6.168 2.75c-.457-.008-.457.676 0 .668h.328v.477L4.672 4.934l-.344-.848h.477c.445.008.445-.676 0-.668H3.453c-.453-.008-.453.676 0 .668h.156l.286.719a1.636 1.636 0 0 0-.399-.051c-.914 0-1.664.746-1.664 1.664 0 .914.75 1.664 1.664 1.664.918 0 1.676-.75 1.676-1.664 0-.316-.098-.61-.25-.86l1.648-.937.266.27a1.672 1.672 0 0 0-1.008 1.527c0 .914.758 1.664 1.676 1.664a1.67 1.67 0 0 0 1.664-1.664c0-.867-.668-1.57-1.512-1.652l-.492-.493V3.078a.328.328 0 0 0-.328-.328ZM3.496 5.418a.999.999 0 1 1 0 1.996.99.99 0 0 1-.996-.996c0-.559.441-1 .996-1Zm4.008 0c.555 0 .996.441.996 1a.99.99 0 0 1-.996.996.998.998 0 1 1 0-1.996Zm0 0" style="stroke:none;fill-rule:nonzero;fill:#000;fill-opacity:1"/></svg>