<svg xmlns="http://www.w3.org/2000/svg" width="11" height="11"><path style="stroke:none;fill-rule:nonzero;fill:#000;fill-opacity:1" d="M6.234 4.398c-.496-.003-.496.743 0 .735h.368v.523L4.586 6.805l-.379-.938h.523c.497.008.497-.742 0-.734H3.246c-.496-.008-.496.742 0 .734h.172l.316.79a1.782 1.782 0 0 0-.433-.055 1.84 1.84 0 0 0-1.836 1.832A1.84 1.84 0 0 0 3.3 10.266a1.837 1.837 0 0 0 1.832-1.832c0-.348-.102-.664-.27-.942l1.813-1.035.293.297a1.843 1.843 0 0 0-1.102 1.68c0 1.007.824 1.832 1.832 1.832a1.84 1.84 0 0 0 1.836-1.832c0-.95-.738-1.73-1.668-1.817l-.535-.535V4.766a.367.367 0 0 0-.367-.368zM3.301 7.332c.61 0 1.097.488 1.097 1.102 0 .613-.488 1.101-1.097 1.101a1.095 1.095 0 0 1-1.102-1.101c0-.614.489-1.102 1.102-1.102zm4.398 0c.614 0 1.102.488 1.102 1.102 0 .613-.489 1.101-1.102 1.101-.61 0-1.097-.488-1.097-1.101 0-.614.488-1.102 1.097-1.102zM8.8 1.465H4.247A1.84 1.84 0 0 0 2.566.367a1.84 1.84 0 0 0-1.68 1.098h1.68l.368.734-.368.735H.886c.286.648.93 1.101 1.68 1.101.75 0 1.395-.453 1.68-1.101h4.555a.734.734 0 1 0 0-1.47zm0 0"/></svg>