<svg xmlns="http://www.w3.org/2000/svg" width="11" height="11"><path style="stroke:none;fill-rule:nonzero;fill:#000;fill-opacity:1" d="M.734 1.465h9.532v8.07H.734zm.73.734v6.602h8.071V2.199zm0 0"/><path style="stroke:none;fill-rule:nonzero;fill:#000;fill-opacity:1" d="M6.168 2.75c-.453-.008-.453.672 0 .668H6.5v.473L4.668 4.937l-.344-.855h.477c.453.008.453-.672 0-.664H3.449C3 3.41 3 4.09 3.45 4.082h.156l.29.719A1.655 1.655 0 0 0 3.5 4.75c-.918 0-1.668.75-1.668 1.668 0 .914.75 1.664 1.668 1.664.918 0 1.668-.75 1.668-1.664 0-.316-.094-.606-.246-.86l1.644-.94.27.273a1.668 1.668 0 0 0-1.004 1.527c0 .914.75 1.664 1.668 1.664.918 0 1.668-.75 1.668-1.664a1.67 1.67 0 0 0-1.516-1.652l-.484-.489V3.082a.335.335 0 0 0-.336-.332zM3.5 5.418c.555 0 1 .441 1 1 0 .555-.445 1-1 1-.555 0-1-.445-1-1 0-.559.445-1 1-1zm4 0c.555 0 1 .441 1 1 0 .555-.445 1-1 1-.555 0-1-.445-1-1 0-.559.445-1 1-1zm0 0"/></svg>