<svg xmlns="http://www.w3.org/2000/svg" height="17" width="17"><path fill="none" d="M0 0h17v17H0z"/><path fill="rgba(255,255,255,0.25)" transform="translate(3 3)" d="M8 0a1 1 0 1 0 0 2 1 1 0 0 0 0-2zM6.014 2a.5.5 0 0 0-.368.147l-2 2a.5.5 0 0 0 0 .707L5 6.207V8.5a.5.5 0 1 0 1 0V6a.5.5 0 0 0-.144-.353l-.752-.752L6.27 3.692l.832 1.11A.5.5 0 0 0 7.5 5h2a.5.5 0 1 0 0-1H7.75L6.4 2.2a.5.5 0 0 0-.386-.2zm-3.65 4.004a2.502 2.502 0 0 0-2.36 2.492c-.001 1.037.641 1.97 1.61 2.34s2.068.1 2.757-.674a.5.5 0 0 0-.748-.664 1.498 1.498 0 0 1-2.62-1c.002-.624.386-1.179.97-1.4a1.498 1.498 0 0 1 1.654.408.5.5 0 1 0 .749-.663h-.001a2.506 2.506 0 0 0-2.012-.838zm6.279 0a2.499 2.499 0 0 0-2.014.838.5.5 0 1 0 .75.664 1.495 1.495 0 0 1 1.652-.408c.584.221.968.776.969 1.4a1.498 1.498 0 0 1-2.62 1 .5.5 0 1 0-.745.664 2.503 2.503 0 0 0 2.758.674 2.5 2.5 0 0 0-.75-4.832z" style="stroke-linejoin:round;stroke-miterlimit:4px" stroke="rgba(255,255,255,0.25)" stroke-width="2"/><path fill="#444" d="M11 3a1 1 0 1 0 0 2 1 1 0 0 0 0-2zM9.014 5a.5.5 0 0 0-.367.147l-2 2a.5.5 0 0 0 0 .707L8 9.207V11.5a.5.5 0 1 0 1 0V9a.5.5 0 0 0-.144-.353l-.753-.752L9.27 6.692l.832 1.11A.5.5 0 0 0 10.5 8h2a.5.5 0 1 0 0-1h-1.75L9.4 5.2a.5.5 0 0 0-.386-.2zm-3.65 4.004a2.502 2.502 0 0 0-2.36 2.492c-.001 1.037.641 1.97 1.61 2.34s2.068.1 2.757-.673a.5.5 0 0 0-.748-.665 1.498 1.498 0 0 1-2.62-1c.002-.624.386-1.179.97-1.4a1.498 1.498 0 0 1 1.654.408.5.5 0 1 0 .749-.663h-.001a2.506 2.506 0 0 0-2.012-.838zm6.279 0a2.499 2.499 0 0 0-2.014.838.5.5 0 1 0 .75.664 1.495 1.495 0 0 1 1.652-.408c.584.221.968.776.969 1.4a1.498 1.498 0 0 1-2.62 1 .5.5 0 1 0-.745.664 2.503 2.503 0 0 0 2.758.674 2.5 2.5 0 0 0-.75-4.832z"/></svg>