<svg xmlns="http://www.w3.org/2000/svg" width="11" height="11"><path style="stroke:none;fill-rule:nonzero;fill:#000;fill-opacity:1" d="M.367 1.465h10.266c.203 0 .367.164.367.367v7.336a.367.367 0 0 1-.367.367H.367A.367.367 0 0 1 0 9.168V1.832c0-.203.164-.367.367-.367zm.367.734v6.602h8.067V2.199zm9.164.735c-.199 0-.363.164-.363.367v1.465a.366.366 0 1 0 .73 0V3.3a.367.367 0 0 0-.367-.367zM5.434 2.75h.668c.183 0 .332.148.332.332v1.195l.488.489c.844.078 1.512.789 1.512 1.652 0 .914-.75 1.664-1.668 1.664a1.67 1.67 0 0 1-1.664-1.664c0-.684.414-1.27 1-1.527l-.266-.274-1.649.942c.153.253.247.543.247.859 0 .914-.75 1.664-1.668 1.664a1.67 1.67 0 0 1-1.664-1.664c0-.918.75-1.668 1.664-1.668.136 0 .27.02.394.05l-.285-.718h-.156c-.453.008-.453-.672 0-.664H4.07c.45-.008.45.672 0 .664h-.476l.34.856L5.766 3.89v-.473h-.332c-.45.004-.45-.676 0-.668zM2.766 5.418c-.555 0-1 .441-1 1 0 .555.445 1 1 1 .558 0 1-.445 1-1 0-.559-.442-1-1-1zm4 0c-.555 0-1 .441-1 1 0 .555.445 1 1 1 .558 0 1-.445 1-1 0-.559-.442-1-1-1zm0 0"/></svg>