<svg xmlns="http://www.w3.org/2000/svg" width="11" height="11"><path d="M.367 1.465h10.266c.207 0 .367.164.367.367v7.336c0 .203-.16.367-.367.367H.367A.364.364 0 0 1 0 9.168V1.832c0-.203.16-.367.367-.367Zm.367.734v6.602h8.067V2.199Zm9.164.735a.361.361 0 0 0-.363.367v1.465c0 .207.16.367.363.367.207 0 .368-.16.368-.367V3.3a.362.362 0 0 0-.368-.367ZM5.434 2.75h.668c.183 0 .328.148.328.328v1.195l.492.493a1.667 1.667 0 0 1 1.512 1.652A1.67 1.67 0 0 1 6.77 8.082c-.918 0-1.672-.75-1.672-1.664 0-.684.418-1.27 1.004-1.527l-.266-.27-1.649.938c.153.25.25.543.25.859 0 .914-.757 1.664-1.671 1.664-.918 0-1.664-.75-1.664-1.664 0-.918.746-1.664 1.664-1.664.136 0 .27.02.394.05l-.285-.718h-.156c-.453.008-.453-.676 0-.668H4.07c.446-.008.446.676 0 .668h-.476l.344.848 1.828-1.04v-.476h-.332c-.454.008-.454-.676 0-.668ZM2.766 5.418c-.559 0-1 .441-1 1 0 .555.441.996 1 .996a.997.997 0 1 0 0-1.996Zm4.004 0a.995.995 0 0 0-1.004 1c0 .555.445.996 1.004.996a.99.99 0 0 0 .996-.996c0-.559-.442-1-.996-1Zm0 0" style="stroke:none;fill-rule:nonzero;fill:#000;fill-opacity:1"/></svg>