<svg xmlns="http://www.w3.org/2000/svg" width="11" height="11"><path style="stroke:none;fill-rule:nonzero;fill:#000;fill-opacity:1" d="M6.836 4.95c.16 0 .3.116.328.273v1.254l.492.488a1.667 1.667 0 0 1 1.512 1.652c0 .918-.75 1.664-1.664 1.664a1.675 1.675 0 0 1-1.676-1.664c0-.637.367-1.195.899-1.472l.109-.055-.266-.27-1.648.938c.152.25.25.543.25.86 0 .917-.758 1.663-1.676 1.663a1.668 1.668 0 0 1-1.664-1.664A1.668 1.668 0 0 1 3.77 6.973l.125.03-.286-.718h-.156c-.426.008-.453-.594-.078-.66l.078-.008h1.352c.425-.008.445.594.07.66l-.07.008h-.477l.344.852 1.824-1.043v-.477h-.328c-.426.008-.45-.594-.074-.66l.074-.008zM5.5 0 11 2.934v7.332H9.535V3.668h-8.07v6.598H0V2.934zM3.496 7.621a.988.988 0 0 0-.996.996c0 .559.441.996.996.996a.995.995 0 1 0 0-1.992zm4.008 0a.995.995 0 1 0 0 1.992.988.988 0 0 0 .996-.996.988.988 0 0 0-.996-.996zm0 0"/></svg>