<svg xmlns="http://www.w3.org/2000/svg" width="11" height="11"><path d="M6.234 1.648h.73c.208 0 .368.165.368.368v1.312l.535.535c.934.09 1.668.867 1.668 1.82A1.846 1.846 0 0 1 7.7 7.517a1.842 1.842 0 0 1-1.832-1.832c0-.75.453-1.395 1.098-1.68l-.293-.3-1.809 1.034c.168.278.27.602.27.946A1.842 1.842 0 0 1 3.3 7.516a1.846 1.846 0 0 1-1.836-1.832c0-1.004.832-1.832 1.836-1.832.144 0 .293.02.433.058l-.316-.793H3.25c-.5.008-.5-.742 0-.734h1.48c.5-.008.5.742 0 .734h-.52l.372.938 2.02-1.153v-.52h-.368c-.5.009-.5-.737 0-.734ZM3.301 4.582a1.1 1.1 0 0 0-1.102 1.102 1.1 1.1 0 1 0 2.2 0c0-.61-.489-1.102-1.098-1.102Zm4.398 0c-.61 0-1.097.492-1.097 1.102a1.1 1.1 0 1 0 2.2 0 1.1 1.1 0 0 0-1.103-1.102Zm.735 4.035-.368-.734h1.47l.73 1.469H.734l.73-1.47h1.47l-.368.735Zm0 0" style="stroke:none;fill-rule:nonzero;fill:#000;fill-opacity:1"/></svg>