<svg xmlns="http://www.w3.org/2000/svg" width="11" height="11"><path style="stroke:none;fill-rule:nonzero;fill:#000;fill-opacity:1" d="M6.234 2.566h.73c.208 0 .368.16.368.368v1.312l.535.535c.934.09 1.668.867 1.668 1.82A1.846 1.846 0 0 1 7.7 8.435a1.842 1.842 0 0 1-1.832-1.832c0-.75.453-1.395 1.098-1.68l-.293-.3-1.809 1.03c.168.282.27.602.27.95A1.842 1.842 0 0 1 3.3 8.434a1.846 1.846 0 0 1-1.836-1.832c0-1.008.832-1.836 1.836-1.836.144 0 .293.023.433.058l-.316-.789H3.25c-.5.004-.5-.742 0-.734h1.48c.5-.008.5.738 0 .734h-.52l.372.938 2.02-1.153V3.3h-.368c-.5.009-.5-.741 0-.734zM3.301 5.5a1.1 1.1 0 1 0-.003 2.2 1.1 1.1 0 0 0 .003-2.2zm4.398 0c-.61 0-1.097.492-1.097 1.102A1.1 1.1 0 1 0 7.7 5.5zm.735 4.035-.368-.734h1.47l.73 1.465H.734l.73-1.465h1.47l-.368.734zm0-8.07H2.566l.368.734h-1.47L.735.734h9.532L9.536 2.2h-1.47zm0 0"/></svg>