<svg xmlns="http://www.w3.org/2000/svg" width="11" height="11"><path style="stroke:none;fill-rule:nonzero;fill:#000;fill-opacity:1" d="M6.234 4.398c-.5-.003-.5.743 0 .735h.368v.52l-2.02 1.152-.371-.938h.52c.5.008.5-.742 0-.734H3.25c-.5-.008-.5.742 0 .734h.168l.316.793c-.14-.039-.289-.058-.433-.058a1.846 1.846 0 0 0-1.836 1.832c0 1.004.832 1.832 1.836 1.832a1.842 1.842 0 0 0 1.832-1.832c0-.344-.102-.668-.27-.946l1.809-1.035.293.3a1.84 1.84 0 0 0-1.098 1.68c0 1.005.828 1.833 1.832 1.833a1.846 1.846 0 0 0 1.836-1.832c0-.954-.734-1.73-1.668-1.82l-.535-.536V4.766a.364.364 0 0 0-.367-.368zM3.301 7.332c.61 0 1.097.492 1.097 1.102a1.1 1.1 0 1 1-2.2 0 1.1 1.1 0 0 1 1.103-1.102zm4.398 0a1.1 1.1 0 0 1 1.102 1.102 1.1 1.1 0 1 1-2.2 0c0-.61.489-1.102 1.098-1.102zM8.8 1.465H4.247A1.84 1.84 0 0 0 2.566.367C1.82.367 1.172.82.886 1.465h1.68l.368.734-.368.735H.886a1.847 1.847 0 0 0 1.68 1.101c.75 0 1.395-.457 1.68-1.101h4.555a.739.739 0 0 0 .734-.735.739.739 0 0 0-.734-.734zm0 0"/></svg>