<svg xmlns="http://www.w3.org/2000/svg" width="11" height="11"><path style="stroke:none;fill-rule:nonzero;fill:#000;fill-opacity:1" d="M10.266 6.965v1.101l-1.079.54a12.751 12.751 0 0 0-3.05 2.132l-.27.262h-.734a12.778 12.778 0 0 0-3.32-2.395L.734 8.066V6.965c1.832.492 3.422.734 4.766.734 1.344 0 2.934-.242 4.766-.734zM5.133 2.934c-.57.976-1.426 1.464-2.567 1.464C.856 4.398 0 3.078 0 2.2 0 1.613.285.88.855 0c1.622 0 3.149.746 4.141 2.027l.137.172h.734l.137-.172A5.232 5.232 0 0 1 10.144 0c.57.879.856 1.613.856 2.2 0 .878-.855 2.198-2.566 2.198-1.082 0-1.907-.437-2.473-1.316l-.094-.148zm0 0"/></svg>