<svg xmlns="http://www.w3.org/2000/svg" width="11" height="11"><path style="stroke:none;fill-rule:nonzero;fill:#000;fill-opacity:1" d="M10.266 6.965v1.101l-1.079.543a12.946 12.946 0 0 0-3.05 2.125l-.27.266h-.734a12.635 12.635 0 0 0-3.32-2.39L.734 8.065V6.965c1.832.492 3.422.734 4.766.734 1.344 0 2.934-.242 4.766-.734zM5.133 2.934c-.57.976-1.422 1.464-2.567 1.464C.86 4.398 0 3.078 0 2.2 0 1.613.285.88.86 0 2.48 0 4.003.746 5 2.023l.133.176h.734L6 2.023A5.245 5.245 0 0 1 10.14 0c.575.879.86 1.613.86 2.2 0 .878-.86 2.198-2.566 2.198-1.079 0-1.907-.437-2.473-1.32l-.094-.144zm0 0"/></svg>