<svg xmlns="http://www.w3.org/2000/svg" width="11" height="11"><path style="stroke:none;fill-rule:nonzero;fill:#000;fill-opacity:1" d="M.734 1.465h9.532v6.234H.734zm1.098.734a.367.367 0 1 0 0 .735h2.203c.2 0 .363-.164.363-.368a.366.366 0 0 0-.363-.367zm0 1.469a.366.366 0 1 0 0 .73h.734a.366.366 0 1 0 0-.73zm2.203 0a.366.366 0 1 0 0 .73h2.93a.366.366 0 1 0 0-.73zM1.832 5.133a.367.367 0 1 0 0 .734H5.5a.367.367 0 1 0 0-.734zm2.566 2.933h2.204v2.2H4.398zm2.934 0h2.203v.735H7.332zm-5.867 0h2.203v.735H1.465zm0 0"/></svg>