<svg xmlns="http://www.w3.org/2000/svg" width="11" height="11"><path d="M8.066 1.832c.735 1.102.735 1.102 1.102 2.082.367.852.367 3.785.367 3.785 0 .367-2.933.367-2.933 0v-.734c0-.363-.368-.73-.368-1.098V5.5H4.766v.367c0 .367-.368.735-.368 1.098v.734c0 .367-2.933.367-2.933 0 0 0 0-2.933.367-3.785.367-.98.367-.98 1.102-2.082 0-.367 1.464-.367 1.464 0v.734h2.204v-.734c0-.367 1.464-.367 1.464 0ZM1.832 8.434c-1.098 0-1.098 1.832 0 1.832h2.203c1.098 0 1.098-1.832 0-1.832H1.832Zm5.133 0c-1.098 0-1.098 1.832 0 1.832h2.203c1.098 0 1.098-1.832 0-1.832H6.965ZM3.3.734c-.551 0-.551.73 0 .73h.734c.547 0 .547-.73 0-.73h-.734Zm3.664 0c-.547 0-.547.73 0 .73h.734c.551 0 .551-.73 0-.73h-.734Zm0 0" style="stroke:none;fill-rule:nonzero;fill:#000;fill-opacity:1"/></svg>