<svg xmlns="http://www.w3.org/2000/svg" width="11" height="11"><path style="stroke:none;fill-rule:nonzero;fill:#000;fill-opacity:1" d="M11 .367V11H.734c-.183 0-.183-.734 0-.734H2.2V6.965c0-.18.735-.18.735 0v2.95L5.5 8.69V5.5c0-.184.734-.184.734 0v2.844l2.567-1.23V4.034c0-.183.734-.183.734 0V6.77l.73-.352V.368c0-.184.735-.184.735 0zm-.734 6.781-.73.332v2.786h.73zm-1.465.7-2.567 1.21v1.208h2.567zM5.5 9.422l-1.762.844H5.5zM1.832 8.8H.184c-.184 0-.184.734 0 .734h1.648c.184 0 .184-.734 0-.734zm3.3-1.469H3.485c-.183 0-.183.734 0 .734h1.649c.183 0 .183-.734 0-.734zm3.302-1.465H6.785c-.183 0-.183.735 0 .735h1.649c.183 0 .183-.735 0-.735zm-5.133 0H1.465c-.18 0-.18.735 0 .735H3.3c.183 0 .183-.735 0-.735zm3.3-1.469H4.767c-.184 0-.184.735 0 .735h1.836c.183 0 .183-.735 0-.735zm3.297-1.464H8.066c-.183 0-.183.734 0 .734h1.832c.184 0 .184-.734 0-.734zm0 0"/></svg>