<svg xmlns="http://www.w3.org/2000/svg" width="11" height="11"><path style="stroke:none;fill-rule:nonzero;fill:#000;fill-opacity:1" d="M4.867.938a.808.808 0 0 0-.82-.82.818.818 0 0 0-.832.82.829.829 0 0 0 .832.835.821.821 0 0 0 .82-.835zm2.387 4.539-2.652-3.22c-.141-.206-.907-.292-1.235-.03L2.078 4.578l.317 1.984c.324.52.964-.003.785-.289l-.22-1.406.56-1.129v2.64L2.2 9.899c-.227.77.874 1.184 1.1.442l1.54-3.961v-1.98l-.645-.891a.089.089 0 0 1 .012-.13c.04-.034.094-.026.129.009L6.543 6c.355.484 1.066-.031.71-.523zM6.238 9.94 4.934 6.7l-.536 1.442.766 2.238c.309.719 1.39.297 1.074-.438zm3.457.746.004.008a.152.152 0 0 0 .207.016.15.15 0 0 0 .028-.188L7.477 6.258l-.008-.008a.14.14 0 0 0-.203-.016c-.055.047-.059.125-.024.188zm0 0"/></svg>