<svg xmlns="http://www.w3.org/2000/svg" width="11" height="11"><path style="stroke:none;fill-rule:nonzero;fill:#000;fill-opacity:1" d="M4.867.938a.819.819 0 0 0-.82-.825.827.827 0 0 0-.836.825c0 .464.371.832.836.835a.824.824 0 0 0 .82-.835zm2.387 4.539-2.652-3.22c-.141-.206-.907-.288-1.235-.027L2.078 4.578l.317 1.988c.324.52.96-.007.78-.293l-.214-1.406.559-1.125v2.64L2.2 9.903c-.227.77.874 1.18 1.1.442l1.54-3.961v-1.98l-.649-.895c-.03-.035-.023-.094.016-.13a.092.092 0 0 1 .129.013L6.539 6c.36.488 1.07-.027.715-.52zM6.238 9.94 4.938 6.7l-.536 1.442.766 2.238c.309.719 1.39.297 1.074-.438zm3.457.743.004.007c.055.063.145.07.207.02a.149.149 0 0 0 .024-.191L7.473 6.254l-.004-.008c-.051-.059-.145-.07-.203-.016-.055.047-.063.125-.028.188l2.453 4.266zm0 0"/></svg>