<svg xmlns="http://www.w3.org/2000/svg" width="11" height="11"><path style="stroke:none;fill-rule:nonzero;fill:#000;fill-opacity:1" d="M8.066.734v.73c.407 0 .735.333.735.735v.645a2.935 2.935 0 0 1 1.097 2.289c0 .508-.125.984-.351 1.398l.312.586a.736.736 0 0 1-.418 1.04l-2.476.827-2.473-.828a.729.729 0 0 1-.418-1.039l.313-.586a2.902 2.902 0 0 1-.352-1.398c0-.926.426-1.75 1.098-2.29V2.2c0-.402.328-.734.734-.734v-.73H5.5A.367.367 0 1 1 5.5 0h2.934a.367.367 0 1 1 0 .734zm-2.355 8.38-.211.421h2.934l-.211-.422.945-.312L10.266 11H9.168l-.367-.734H5.133L4.766 11H3.668l1.098-2.2zm1.254-1.782a2.2 2.2 0 1 0 0-4.398 2.199 2.199 0 1 0 0 4.398zm-.73-2.2a.367.367 0 0 1-.368-.366v-.73a.367.367 0 1 1 .735 0v.73a.367.367 0 0 1-.368.367zm1.464 0a.367.367 0 0 1-.367-.366v-.73a.367.367 0 1 1 .734 0v.73a.367.367 0 0 1-.367.367zm-.734 1.833c-.461 0-.82-.277-1.078-.836a.192.192 0 0 1-.02-.078c0-.102.082-.184.184-.184h1.832c.027 0 .05.004.078.016.09.043.129.152.086.246-.258.559-.617.836-1.082.836zM2.199 6.5v.832l-.02.117-.363 1.102a.37.37 0 0 1-.464.23.37.37 0 0 1-.235-.465l.348-1.043V6.5a.727.727 0 0 1-.363-.633V4.582A.732.732 0 0 1 2.25 3.98l.617.333.54-.54a.373.373 0 0 1 .519 0 .365.365 0 0 1 0 .52l-.735.734a.366.366 0 0 1-.433.063l-.192-.106v.84l.899.45a.364.364 0 0 1 .203.328v1.097a.367.367 0 1 1-.734 0v-.87l-.696-.349a.182.182 0 0 1-.039.02zm-.367-2.832a.733.733 0 0 1-.73-.734.733.733 0 1 1 1.464 0 .734.734 0 0 1-.734.734zm0 0"/></svg>