<svg xmlns="http://www.w3.org/2000/svg" width="11" height="11"><path style="stroke:none;fill-rule:nonzero;fill:#000;fill-opacity:1" d="M4.035 5.508a.367.367 0 0 1-.11.25l-.734.734a.366.366 0 0 1-.433.063l-.192-.102v.836l.899.45a.369.369 0 0 1 .203.327v1.102a.367.367 0 1 1-.734 0v-.875l-.696-.348c-.011.008-.027.016-.039.024V8.8l-.02.113-.363 1.102a.367.367 0 0 1-.464.23.366.366 0 0 1-.235-.46l.348-1.044V7.97a.734.734 0 0 1-.363-.637V6.051a.733.733 0 0 1 1.148-.606l.617.336.54-.539a.365.365 0 0 1 .519 0c.07.067.105.16.11.25V3.54c0-.387.152-.762.429-1.035L5.5 1.464h1.102v-.73H5.5A.367.367 0 1 1 5.5 0h2.934a.367.367 0 1 1 0 .734H7.332v.73h1.102l1.035 1.04c.277.273.43.648.43 1.035v4.527c0 .809-.657 1.47-1.465 1.47H5.5c-.809 0-1.465-.661-1.465-1.47zm2.016 4.39L5.5 11H4.398l.551-1.102zm2.933 0L9.535 11H8.434l-.551-1.102zM7.7 8.801h.735a.734.734 0 0 0 .734-.735v-.734c-.813 0-1.469.656-1.469 1.469zm-1.465 0c0-.813-.656-1.469-1.468-1.469v.734c0 .407.328.735.734.735zM4.766 4.035v2.2c0 .202.164.367.367.367H8.8a.367.367 0 0 0 .367-.368V4.035a.367.367 0 0 0-.367-.367H5.133a.367.367 0 0 0-.367.367zM5.5 2.566c0 .204.164.368.367.368h2.2a.367.367 0 1 0 0-.735h-2.2a.367.367 0 0 0-.367.367zM1.832 5.133a.733.733 0 1 1 .004-1.466.733.733 0 0 1-.004 1.466zm0 0"/></svg>