<svg xmlns="http://www.w3.org/2000/svg" width="11" height="11"><path style="stroke:none;fill-rule:nonzero;fill:#000;fill-opacity:1" d="M7.332.734v.73h1.469l1.035 1.04c.277.273.43.648.43 1.035v4.527c0 .809-.657 1.47-1.465 1.47H5.133c-.809 0-1.465-.661-1.465-1.47V3.54c0-.387.152-.762.43-1.035l1.035-1.04h1.469v-.73h-1.47a.367.367 0 1 1 0-.734h3.669a.367.367 0 1 1 0 .734zM5.684 9.898 5.133 11H4.035l.547-1.102zm3.668 0L9.898 11H8.801L8.25 9.898zM4.398 4.035 4.406 5.5c0 .203.164.367.367.367h1.465a.37.37 0 0 0 .367-.367l-.007-1.469a.368.368 0 0 0-.368-.363H4.766a.367.367 0 0 0-.368.367zm2.934 0L7.34 5.5c0 .203.164.367.367.367h1.465c.2 0 .363-.164.363-.367l-.004-1.469a.368.368 0 0 0-.367-.363H7.7a.367.367 0 0 0-.367.367zM5.137 2.566v.008c.004.2.168.36.367.36H8.44c.2 0 .36-.16.36-.36V2.56a.37.37 0 0 0-.367-.36H5.492a.358.358 0 0 0-.355.36v.007zm-.004 5.868a.734.734 0 1 0 .002-1.467.734.734 0 0 0-.002 1.467zm3.668 0a.736.736 0 0 0 .734-.735.739.739 0 0 0-.734-.734.734.734 0 1 0 0 1.469zm-6.969-.465V8.8l-.016.113-.367 1.102a.367.367 0 0 1-.695-.23l.348-1.044V7.97a.729.729 0 0 1-.368-.637V6.051a.733.733 0 0 1 1.149-.606l.617.336.54-.539a.365.365 0 0 1 .519 0 .36.36 0 0 1 0 .516l-.735.734a.366.366 0 0 1-.433.063l-.192-.102v.836l.899.45a.369.369 0 0 1 .203.327v1.102a.367.367 0 1 1-.735 0v-.875l-.695-.348c-.012.008-.023.016-.039.024zm-.367-2.836a.733.733 0 1 1 .004-1.466.733.733 0 0 1-.004 1.466zm0 0"/></svg>