<svg xmlns="http://www.w3.org/2000/svg" width="11" height="11"><path style="stroke:none;fill-rule:nonzero;fill:#000;fill-opacity:1" d="M2.934 4.773a.376.376 0 0 1-.11.254l-.73.73a.369.369 0 0 1-.434.067l-.195-.105v.84l.898.445a.369.369 0 0 1 .203.328v1.102a.367.367 0 1 1-.734 0v-.875l-.695-.348-.035.023v.832l-.02.118L.715 9.28a.367.367 0 1 1-.695-.23l.347-1.043v-.774A.73.73 0 0 1 0 6.602V5.316a.734.734 0 0 1 1.148-.605l.618.336.543-.54a.36.36 0 0 1 .515 0c.07.071.106.161.11.25V2.2c0-.808.656-1.465 1.464-1.465h5.137C10.344.734 11 1.391 11 2.2v5.133c0 .813-.656 1.469-1.465 1.469H4.398a1.466 1.466 0 0 1-1.464-1.469zm2.75 4.395-.184.367h2.934l-.184-.367h1.102L10.266 11H9.168l-.367-.734H5.133L4.766 11H3.668l.914-1.832zm2.382-2.203a.734.734 0 1 0 1.467.002.734.734 0 0 0-1.467-.002zm-2.199 0a.733.733 0 0 0-.734-.73.733.733 0 1 0 0 1.464.734.734 0 0 0 .734-.734zM3.664 2.57l.012 2.2c0 .199.164.363.367.363h2.195a.367.367 0 0 0 .367-.367l-.011-2.2a.367.367 0 0 0-.367-.367H4.03a.367.367 0 0 0-.367.367v.004zm3.668 0 .008 2.2c.004.199.168.363.367.363h2.2a.367.367 0 0 0 .366-.367l-.011-2.2a.367.367 0 0 0-.367-.367h-2.2c-.199 0-.363.164-.363.367v.004zM.734 4.398a.733.733 0 1 1-.003-1.465.733.733 0 0 1 .003 1.465zm0 0"/></svg>