<svg xmlns="http://www.w3.org/2000/svg" width="11" height="11"><path d="M2.934 3.309a.33.33 0 0 1-.11.25l-.734.73a.354.354 0 0 1-.434.066l-.191-.101v.836l.898.445a.382.382 0 0 1 .203.332v1.098c0 .207-.16.367-.367.367a.364.364 0 0 1-.367-.367v-.871l-.695-.352c-.016.016-.024.024-.035.028v.832l-.024.117-.367 1.097a.358.358 0 0 1-.461.227.358.358 0 0 1-.227-.461l.344-1.039V5.77A.737.737 0 0 1 0 5.133V3.852a.734.734 0 0 1 1.152-.602l.614.328.543-.535a.36.36 0 0 1 .515 0 .33.33 0 0 1 .11.25V1.465C2.934.66 3.594 0 4.398 0h5.137C10.34 0 11 .66 11 1.465v4.96a.729.729 0 0 1-.082.329l-1.18 2.375a.739.739 0 0 1-.66.406h-.277a.364.364 0 0 1-.367-.367V7.883c0-.301-.25-.551-.551-.551H6.05c-.301 0-.551.25-.551.55v1.286c0 .203-.16.367-.367.367h-.278a.735.735 0 0 1-.66-.406l-1.18-2.375a.681.681 0 0 1-.081-.328Zm3.3 4.39H7.7c.207 0 .367.164.367.367v1.102c0 .203-.16.367-.367.367h-.367V11h-.73V9.535h-.368a.364.364 0 0 1-.367-.367V8.066c0-.203.16-.367.367-.367ZM3.668 2.566v1.47c0 .202.16.362.367.362h5.863c.207 0 .368-.16.368-.363V2.566a.364.364 0 0 0-.368-.367H4.035a.364.364 0 0 0-.367.367Zm.73-1.464c0 .203.165.363.368.363h4.402a.364.364 0 1 0 0-.73H4.766a.364.364 0 0 0-.368.367Zm3.668 5.132c0 .204.16.368.368.368h1.054c.133 0 .25-.075.317-.192l.41-.734a.326.326 0 0 0 .043-.176.361.361 0 0 0-.363-.367H8.434a.362.362 0 0 0-.368.367Zm-2.199 0V5.5a.362.362 0 0 0-.367-.367H4.04a.361.361 0 0 0-.364.367c0 .066.011.125.043.176l.41.734a.364.364 0 0 0 .316.192H5.5a.364.364 0 0 0 .367-.368Zm-5.133-3.3A.736.736 0 0 1 0 2.199c0-.402.328-.734.734-.734a.735.735 0 0 1 0 1.469Zm0 0" style="stroke:none;fill-rule:nonzero;fill:#000;fill-opacity:1"/></svg>