<svg xmlns="http://www.w3.org/2000/svg" width="11" height="11"><path style="stroke:none;fill-rule:nonzero;fill:#000;fill-opacity:1" d="M2.934 6.242a.374.374 0 0 1-.11.25l-.73.735a.368.368 0 0 1-.434.062l-.195-.105v.84l.898.449a.364.364 0 0 1 .203.328v1.097a.367.367 0 1 1-.734 0v-.87l-.695-.348-.035.023v.832l-.02.113-.367 1.102a.365.365 0 0 1-.465.23.364.364 0 0 1-.23-.464l.347-1.043v-.77A.737.737 0 0 1 0 8.066v-1.28a.734.734 0 0 1 1.148-.606l.618.336.543-.543a.368.368 0 0 1 .625.254V3.05c0-.078.011-.156.039-.23L3.5 1.233c.098-.3.379-.5.695-.5H5.5v.73H4.402v1.47h5.496l-.367-1.47H8.434v-.73h1.304c.317 0 .598.2.696.5l.527 1.586c.027.075.039.153.039.23v6.485C11 10.344 10.344 11 9.535 11H4.398a1.465 1.465 0 0 1-1.464-1.465zm.73-.742.012 2.203c0 .2.164.363.367.363h2.195a.367.367 0 0 0 .367-.367L6.594 5.5a.367.367 0 0 0-.367-.367H4.03a.367.367 0 0 0-.367.367zm4.402 4.035a.735.735 0 0 0 1.469 0 .734.734 0 1 0-1.469 0zm-2.199 0A.734.734 0 1 0 4.4 9.533a.734.734 0 0 0 1.467.002zm-.73-5.5v.008c.004.2.168.355.367.355H8.44c.2 0 .36-.16.36-.355v-.02a.367.367 0 0 0-.367-.355H5.492a.357.357 0 0 0-.355.355v.012zM7.332 5.5l.008 2.203c.004.2.168.363.367.363h2.2a.367.367 0 0 0 .366-.367L10.262 5.5a.367.367 0 0 0-.367-.367h-2.2c-.199 0-.363.164-.363.367zM5.863.367c0-.203.164-.367.367-.367h1.465c.203 0 .367.164.367.363l.008 1.469a.367.367 0 0 1-.367.367H6.238a.368.368 0 0 1-.367-.363zm-5.129 5.5A.734.734 0 1 1 .733 4.4a.734.734 0 0 1 .001 1.467zm0 0"/></svg>