<svg xmlns="http://www.w3.org/2000/svg" width="11" height="11"><path d="M2.934 4.773a.323.323 0 0 1-.11.25l-.734.735a.36.36 0 0 1-.434.066l-.191-.105v.836l.898.449a.38.38 0 0 1 .203.328v1.102a.367.367 0 1 1-.734 0v-.872l-.695-.355c-.016.016-.024.023-.035.031v.828l-.024.118-.367 1.101a.358.358 0 0 1-.461.227.36.36 0 0 1-.227-.461l.344-1.043v-.77A.747.747 0 0 1 0 6.602V5.316c0-.402.328-.734.734-.734.153 0 .293.047.418.133l.614.332.543-.535a.354.354 0 0 1 .515 0c.074.062.11.152.11.246V2.199c0-.804.66-1.465 1.464-1.465h5.137C10.34.734 11 1.394 11 2.2v5.133c0 .809-.66 1.469-1.465 1.469H4.398c-.804 0-1.464-.66-1.464-1.469Zm2.75 4.395-.184.367h2.934l-.184-.367h1.102L10.266 11H9.168l-.367-.734H5.133L4.766 11H3.668l.914-1.832Zm2.382-2.203c0 .406.332.734.735.734a.736.736 0 0 0 .734-.734.735.735 0 0 0-1.469 0Zm-2.199 0a.735.735 0 0 0-1.469 0c0 .406.332.734.735.734a.736.736 0 0 0 .734-.734ZM3.668 2.566l.008 2.2c0 .207.168.367.363.367h2.203c.196 0 .363-.16.363-.367l-.011-2.2a.367.367 0 0 0-.367-.367H4.035a.364.364 0 0 0-.367.367Zm3.664 0 .008 2.2c0 .207.168.367.367.367h2.2c.198 0 .366-.16.366-.367l-.015-2.2a.363.363 0 0 0-.363-.367H7.699a.367.367 0 0 0-.367.367ZM.734 4.398a.733.733 0 1 1-.003-1.465.733.733 0 0 1 .003 1.465Zm0 0" style="stroke:none;fill-rule:nonzero;fill:#000;fill-opacity:1"/></svg>