<svg xmlns="http://www.w3.org/2000/svg" width="11" height="11"><path d="M7.332 3.668h1.594c.351 0 .652.254.719.602l.593 3.285a.74.74 0 0 1 0 .293l-.582 2.582a.725.725 0 0 1-.71.57H4.987a.733.733 0 0 1-.715-.57l-.578-2.582a.74.74 0 0 1 0-.293L4.29 4.27a.736.736 0 0 1 .719-.602h1.594V2.105a.74.74 0 0 1-.368-.64v-.086l-5.09.637a.37.37 0 0 1-.41-.32.37.37 0 0 1 .32-.41l5.188-.65A.727.727 0 0 1 6.965 0a.74.74 0 0 1 .683.46L9.855.185a.37.37 0 0 1 .41.324.375.375 0 0 1-.32.41L7.7 1.195v.27a.74.74 0 0 1-.367.64Zm0 .914v2.566a.18.18 0 0 0 .184.184h1.796a.183.183 0 0 0 .184-.184c0-.011 0-.02-.008-.035l-.496-2.566a.176.176 0 0 0-.176-.149h-1.3a.183.183 0 0 0-.184.184Zm-.73 2.566V4.582a.183.183 0 0 0-.184-.184h-1.3a.176.176 0 0 0-.177.149l-.496 2.566c-.008.016-.008.024-.008.035 0 .106.086.184.184.184h1.797a.18.18 0 0 0 .184-.184Zm-4.77 1.555v.832l-.02.117-.367 1.098a.36.36 0 0 1-.46.227.36.36 0 0 1-.231-.461l.348-1.04v-.773a.729.729 0 0 1-.368-.637v-1.28c0-.407.329-.735.73-.735.157 0 .298.043.419.133l.617.328.543-.535a.354.354 0 0 1 .516 0 .356.356 0 0 1 0 .511l-.735.735a.354.354 0 0 1-.433.066l-.192-.101v.835l.895.446A.378.378 0 0 1 3.3 8.8v1.097a.364.364 0 0 1-.367.368.362.362 0 0 1-.368-.368v-.87l-.695-.352c-.016.015-.023.023-.039.027Zm-.367-2.836a.735.735 0 0 1 0-1.469c.406 0 .734.332.734.735a.736.736 0 0 1-.734.734Zm0 0" style="stroke:none;fill-rule:nonzero;fill:#000;fill-opacity:1"/></svg>