<svg xmlns="http://www.w3.org/2000/svg" width="11" height="11"><path style="stroke:none;fill-rule:nonzero;fill:#000;fill-opacity:1" d="M7.332.734v.73h2.203c.809 0 1.465.661 1.465 1.47V8.8c0 .734-.734.734-.734.734v.73s0 .735-.73.735c-.735 0-.735-.734-.735-.734v-.73H5.133v.73s0 .734-.735.734c-.73 0-.73-.734-.73-.734v-.73c-.734 0-.734-.735-.734-.735V2.934c0-.809.656-1.47 1.464-1.47h2.204v-.73H4.766a.367.367 0 1 1 0-.734h4.402a.367.367 0 1 1 0 .734zM4.035 3.668a.367.367 0 0 0-.367.367v2.2c0 .202.164.367.367.367h5.863a.367.367 0 0 0 .368-.368V4.035a.367.367 0 0 0-.368-.367zm.363 3.664a.733.733 0 0 0-.73.734.733.733 0 1 0 1.465 0 .734.734 0 0 0-.735-.734zm5.137 0a.734.734 0 1 0-.002 1.467.734.734 0 0 0 .002-1.467zM4.398 2.566c0 .204.165.368.368.368h4.402a.367.367 0 1 0 0-.735H4.766a.367.367 0 0 0-.368.367zM1.102 8.703v.832l-.02.113-.367 1.102a.365.365 0 0 1-.465.23.364.364 0 0 1-.23-.464l.347-1.043v-.77A.737.737 0 0 1 0 8.066v-1.28a.734.734 0 0 1 1.148-.606l.618.336.543-.543a.365.365 0 1 1 .516.52l-.731.734a.368.368 0 0 1-.434.062l-.195-.105v.84l.898.449a.364.364 0 0 1 .203.328v1.097a.367.367 0 1 1-.734 0v-.87l-.695-.348-.035.023zM.734 5.867A.734.734 0 1 1 .733 4.4a.734.734 0 0 1 .001 1.467zm0 0"/></svg>