<svg xmlns="http://www.w3.org/2000/svg" width="11" height="11"><path style="stroke:none;fill-rule:nonzero;fill:#000;fill-opacity:1" d="m5.684 9.168-.184.367h2.934l-.184-.367h1.102L10.266 11H9.168l-.367-.734H5.133L4.766 11H3.668l.914-1.832zM11 1.465v5.867c0 .813-.656 1.469-1.465 1.469H4.398a1.466 1.466 0 0 1-1.464-1.469V1.465C2.934.656 3.59 0 4.398 0h5.137C10.344 0 11 .656 11 1.465zm-2.934 5.5a.734.734 0 1 0 1.467.002.734.734 0 0 0-1.467-.002zm-2.199 0a.733.733 0 0 0-.734-.73.733.733 0 1 0 0 1.464.734.734 0 0 0 .734-.734zM3.664 2.57l.012 2.2c0 .199.164.363.367.363h2.195a.367.367 0 0 0 .367-.367l-.011-2.2a.367.367 0 0 0-.367-.367H4.03a.367.367 0 0 0-.367.367v.004zm3.668 0 .008 2.2c.004.199.168.363.367.363h2.2a.367.367 0 0 0 .366-.367l-.011-2.2a.367.367 0 0 0-.367-.367h-2.2c-.199 0-.363.164-.363.367v.004zM4.398 1.102c0 .199.165.363.368.363h4.402a.366.366 0 1 0 0-.73H4.766a.367.367 0 0 0-.368.367zM1.102 7.234v.832l-.02.118L.715 9.28a.367.367 0 1 1-.695-.23l.347-1.043v-.774A.73.73 0 0 1 0 6.602V5.316a.734.734 0 0 1 1.148-.605l.618.336.543-.54a.36.36 0 0 1 .515 0 .365.365 0 0 1 0 .52l-.73.73a.369.369 0 0 1-.434.067l-.195-.105v.84l.898.445a.369.369 0 0 1 .203.328v1.102a.367.367 0 1 1-.734 0v-.875l-.695-.348-.035.023zM.734 4.398a.733.733 0 1 1-.003-1.465.733.733 0 0 1 .003 1.465zm0 0"/></svg>