<svg xmlns="http://www.w3.org/2000/svg" width="11" height="11"><path style="stroke:none;fill-rule:nonzero;fill:#000;fill-opacity:1" d="m3.34 8.625-.406-2.023.734-.403V2.934c0-.407.328-.735.73-.735h5.137c.402 0 .73.328.73.735v3.265l.735.403-.406 2.035c-.578-.38-1.063-.57-1.461-.57-.637 0-1.356.245-2.168.734-.777-.489-1.5-.735-2.164-.735-.41 0-.899.188-1.461.559zm6.195-2.824V3.3a.367.367 0 0 0-.367-.367H4.766a.367.367 0 0 0-.368.367v2.5l2.567-1.403zM5.5.734h2.934c.203 0 .367.164.367.368v.73H5.133v-.73c0-.204.164-.368.367-.368zm3.668 8.067c.285 0 .531.078.824.234.047.024.098.05.164.09.078.047.121.07.156.09.395.226.133.922-.367.637-.035-.02-.078-.047-.156-.09-.059-.035-.101-.059-.144-.082-.192-.102-.329-.145-.477-.145-.66 0-1.32.219-1.996.672l-.207.133-.203-.133c-.676-.453-1.34-.672-1.996-.672a.73.73 0 0 0-.317.082 5.06 5.06 0 0 0-.441.238c-.5.278-.758-.418-.356-.644.239-.133.364-.203.493-.262.214-.097.41-.148.62-.148.743 0 1.477.222 2.2.664.726-.442 1.46-.664 2.203-.664zM1.102 6.5v.832l-.02.117-.367 1.102a.369.369 0 0 1-.465.23.365.365 0 0 1-.23-.465l.347-1.043V6.5A.73.73 0 0 1 0 5.867V4.582a.733.733 0 0 1 1.148-.602l.618.333.543-.54a.365.365 0 1 1 .516.52l-.731.734a.368.368 0 0 1-.434.063l-.195-.106v.84l.898.45a.364.364 0 0 1 .203.328v1.097a.367.367 0 1 1-.734 0v-.87l-.695-.349c-.012.008-.024.016-.035.02zM.734 3.668a.734.734 0 1 1-.001-1.467.734.734 0 0 1 .001 1.467zm0 0"/></svg>