<svg xmlns="http://www.w3.org/2000/svg" width="11" height="11"><path style="stroke:none;fill-rule:nonzero;fill:#000;fill-opacity:1" d="M2.934 3.309a.374.374 0 0 1-.11.25l-.73.734a.368.368 0 0 1-.434.062l-.195-.105v.84l.898.45a.364.364 0 0 1 .203.327v1.098a.367.367 0 1 1-.734 0v-.871l-.695-.348-.035.024v.832l-.02.113-.367 1.101a.365.365 0 0 1-.465.23.361.361 0 0 1-.23-.46l.347-1.047v-.77A.737.737 0 0 1 0 5.134V3.852a.734.734 0 0 1 1.148-.606l.618.336.543-.543a.368.368 0 0 1 .625.254V1.465C2.934.656 3.59 0 4.398 0h5.137C10.344 0 11 .656 11 1.465v4.96a.737.737 0 0 1-.078.329L9.734 9.129a.73.73 0 0 1-.652.406h-.281a.367.367 0 0 1-.367-.367V7.883a.55.55 0 0 0-.551-.551H6.05a.55.55 0 0 0-.551.55v1.286a.367.367 0 0 1-.367.367h-.281a.73.73 0 0 1-.653-.406L3.012 6.754a.737.737 0 0 1-.078-.328zm3.3 4.39H7.7c.203 0 .367.164.367.367v1.102a.367.367 0 0 1-.367.367h-.367V11h-.73V9.535h-.368a.367.367 0 0 1-.367-.367V8.066c0-.203.164-.367.367-.367zM3.668 2.566v1.47c0 .198.164.362.367.362h5.863a.366.366 0 0 0 .368-.363V2.566a.367.367 0 0 0-.368-.367H4.035a.367.367 0 0 0-.367.367zm.73-1.464c0 .199.165.363.368.363h4.402a.366.366 0 1 0 0-.73H4.766a.367.367 0 0 0-.368.367zm3.668 5.132c0 .204.164.368.368.368h1.054a.36.36 0 0 0 .317-.192l.41-.73a.367.367 0 0 0-.32-.547H8.434a.367.367 0 0 0-.368.367zm-2.199 0V5.5a.367.367 0 0 0-.367-.367H4.04a.367.367 0 0 0-.321.547l.406.73a.37.37 0 0 0 .32.192H5.5a.367.367 0 0 0 .367-.368zm-5.133-3.3a.734.734 0 1 1-.001-1.467.734.734 0 0 1 .001 1.467zm0 0"/></svg>