<svg xmlns="http://www.w3.org/2000/svg" width="11" height="11"><path d="m5.71 9.117-.21.418h2.934l-.215-.418.949-.316L10.266 11H9.168l-.367-.734H5.133L4.766 11H3.668l1.098-2.2Zm4.556-7.797v2.348l.523.52c.129.132.211.324.211.511V6.66a.732.732 0 0 1-.453.672L6.965 8.801 3.387 7.332a.732.732 0 0 1-.453-.672V4.7c0-.188.082-.38.21-.513l.524-.519V1.32c0-.343.242-.636.57-.71L6.805.034c.11-.02.215-.02.324 0L9.695.61c.328.075.57.368.57.711Zm-5.868.453v.793c0 .207.165.368.368.368h1.468c.204 0 .368-.16.368-.368V1.531a.367.367 0 0 0-.368-.367c-.023 0-.046 0-.058.008l-1.469.242a.371.371 0 0 0-.309.36Zm2.934-.242v1.035c0 .207.164.368.367.368h1.469c.203 0 .367-.16.367-.368v-.793a.371.371 0 0 0-.308-.359l-1.47-.242a.365.365 0 0 0-.417.3c-.008.024-.008.04-.008.06Zm-.367 4.336a.736.736 0 0 0 .734-.734.736.736 0 0 0-.734-.735.735.735 0 0 0 0 1.47ZM1.102 5.77v.832l-.024.117-.367 1.097a.358.358 0 0 1-.461.227.358.358 0 0 1-.227-.461l.344-1.039V5.77A.737.737 0 0 1 0 5.133V3.852a.734.734 0 0 1 1.152-.602l.614.328.543-.535a.36.36 0 0 1 .515 0 .36.36 0 0 1 0 .516l-.734.73a.354.354 0 0 1-.434.066l-.191-.101v.836l.898.445a.382.382 0 0 1 .203.332v1.098c0 .207-.16.367-.367.367a.364.364 0 0 1-.367-.367v-.871l-.695-.352c-.016.016-.024.024-.035.028ZM.734 2.934A.736.736 0 0 1 0 2.199c0-.402.328-.734.734-.734a.735.735 0 0 1 0 1.469Zm0 0" style="stroke:none;fill-rule:nonzero;fill:#000;fill-opacity:1"/></svg>