<svg xmlns="http://www.w3.org/2000/svg" width="11" height="11"><path style="stroke:none;fill-rule:nonzero;fill:#000;fill-opacity:1" d="M2.934 2.2c0-.81.656-1.466 1.464-1.466h5.137C10.344.734 11 1.391 11 2.2v5.867c0 .735-.734.735-.734.735v.734a.732.732 0 0 1-1.465 0v-.734H5.133v.734a.733.733 0 0 1-1.465 0v-.734c-.734 0-.734-.735-.734-.735zm1.101.734a.367.367 0 0 0-.367.367V5.5c0 .203.164.367.367.367h5.863a.367.367 0 0 0 .368-.367V3.3a.367.367 0 0 0-.368-.366zm.363 3.668a.732.732 0 1 0 .003 1.463.732.732 0 0 0-.003-1.463zm5.137 0a.733.733 0 1 0-.003 1.465.733.733 0 0 0 .003-1.465zm-5.137-4.77c0 .203.165.367.368.367h4.402a.367.367 0 1 0 0-.734H4.766a.367.367 0 0 0-.368.367zM1.102 7.969V8.8l-.02.113-.367 1.102a.365.365 0 0 1-.465.23.361.361 0 0 1-.23-.46l.347-1.044V7.97A.737.737 0 0 1 0 7.332V6.051a.734.734 0 0 1 1.148-.606l.618.336.543-.539a.36.36 0 0 1 .515 0 .36.36 0 0 1 0 .516l-.73.734a.368.368 0 0 1-.434.063l-.195-.102v.836l.898.45a.369.369 0 0 1 .203.327v1.102a.367.367 0 1 1-.734 0v-.875l-.695-.348-.035.024zM.734 5.133a.734.734 0 1 1-.001-1.467.734.734 0 0 1 .001 1.467zm0 0"/></svg>