<svg xmlns="http://www.w3.org/2000/svg" width="11" height="11"><path style="stroke:none;fill-rule:nonzero;fill:#000;fill-opacity:1" d="m3.336 8.625-.402-2.023.734-.407V2.934c0-.403.328-.735.73-.735h5.137c.402 0 .73.332.73.735v3.261l.735.407-.41 2.035c-.574-.38-1.055-.57-1.461-.57-.629 0-1.356.242-2.164.734-.777-.492-1.5-.735-2.16-.735-.41 0-.903.184-1.47.559zm6.2-2.824V3.3a.364.364 0 0 0-.368-.367H4.766a.364.364 0 0 0-.368.367v2.5l2.567-1.403zM5.5.734h2.934c.203 0 .367.16.367.368v.73H5.133v-.73c0-.207.16-.368.367-.368zm3.668 8.067c.285 0 .535.078.82.234.051.024.102.05.168.086.082.055.117.074.156.098.395.219.13.914-.367.629-.03-.012-.082-.043-.156-.086-.059-.04-.101-.059-.144-.082-.192-.102-.332-.145-.477-.145-.66 0-1.32.219-1.996.672l-.207.133-.203-.133c-.676-.453-1.336-.672-1.996-.672a.692.692 0 0 0-.313.078c-.105.043-.2.102-.441.242-.508.278-.762-.418-.36-.644a7.56 7.56 0 0 1 .493-.266 1.5 1.5 0 0 1 .62-.144c.743 0 1.477.226 2.2.668.726-.442 1.46-.668 2.203-.668zM1.102 6.504v.828l-.024.117-.367 1.102a.358.358 0 0 1-.461.226.358.358 0 0 1-.227-.46l.344-1.044v-.77A.747.747 0 0 1 0 5.868V4.582c0-.402.328-.73.734-.73.153 0 .293.043.418.128l.614.333.543-.536a.354.354 0 0 1 .515 0 .356.356 0 0 1 0 .512l-.734.734a.354.354 0 0 1-.434.067l-.191-.102v.836l.898.446a.382.382 0 0 1 .203.332v1.097c0 .207-.16.367-.367.367a.364.364 0 0 1-.367-.367v-.87l-.695-.352c-.016.011-.024.02-.035.027zM.734 3.668A.736.736 0 0 1 0 2.934c0-.403.328-.735.734-.735a.735.735 0 0 1 0 1.469zm0 0"/></svg>