<svg xmlns="http://www.w3.org/2000/svg" width="11" height="11"><path style="stroke:none;fill-rule:nonzero;fill:#000;fill-opacity:1" d="m5.684 9.168-.184.367h2.934l-.184-.367h1.102L10.266 11H9.168l-.367-.734H5.133L4.766 11H3.668l.914-1.832zM11 2.934v4.398c0 .809-.66 1.469-1.465 1.469H4.398c-.804 0-1.464-.66-1.464-1.469V2.934c0-.809.66-1.47 1.464-1.47h5.137c.805 0 1.465.661 1.465 1.47zM8.066 7.332c0 .406.332.734.735.734a.736.736 0 0 0 .734-.734.735.735 0 0 0-1.469 0zm-2.199 0a.735.735 0 0 0-1.469 0c0 .406.332.734.735.734a.736.736 0 0 0 .734-.734zM3.668 4.035 3.676 5.5c0 .207.16.367.363.367h2.203c.196 0 .363-.16.363-.367l-.011-1.465a.364.364 0 0 0-.367-.367H4.035a.362.362 0 0 0-.367.367zm3.664 0L7.34 5.5c0 .207.164.367.367.367h2.2c.198 0 .366-.16.366-.367l-.015-1.465a.361.361 0 0 0-.363-.367H7.699a.364.364 0 0 0-.367.367zM4.398 2.566c0 .207.165.368.368.368h4.402c.203 0 .367-.16.367-.368a.367.367 0 0 0-.367-.367H4.766a.367.367 0 0 0-.368.367zM0 0h11v.734H0zm1.102 7.238v.828l-.024.118-.367 1.101a.358.358 0 0 1-.461.227.36.36 0 0 1-.227-.461l.344-1.043v-.77A.747.747 0 0 1 0 6.602V5.316c0-.402.328-.734.734-.734.153 0 .293.047.418.133l.614.332.543-.535a.354.354 0 0 1 .515 0 .356.356 0 0 1 0 .511l-.734.735a.36.36 0 0 1-.434.066l-.191-.105v.836l.898.449a.38.38 0 0 1 .203.328v1.102a.367.367 0 1 1-.734 0v-.872l-.695-.355c-.016.016-.024.023-.035.031zm-.368-2.84a.733.733 0 1 1-.003-1.465.733.733 0 0 1 .003 1.465zm0 0"/></svg>