<svg xmlns="http://www.w3.org/2000/svg" width="11" height="11"><path style="stroke:none;fill-rule:nonzero;fill:#000;fill-opacity:1" d="m5.684 9.168-.184.367h2.934l-.184-.367h1.102L10.266 11H9.168l-.367-.734H5.133L4.766 11H3.668l.914-1.832zm4.632-2.969c-1.203 1.735-2.32 2.602-3.351 2.602-1.027 0-2.145-.867-3.348-2.602a2.198 2.198 0 0 1-.242-2.047c.195-.504.293-.91.293-1.218C3.668 2.199 4.656 0 6.965 0c2.664 0 3.3 2.2 3.3 2.934 0 .308.098.714.294 1.218.265.68.171 1.446-.243 2.047zM5.16 2.023l.582 1.414c.059.141.192.231.34.231h1.77c.148 0 .28-.09.34-.23l.578-1.415a.368.368 0 0 0-.047-.363c-.48-.617-1.067-.926-1.758-.926-.688 0-1.274.309-1.754.926a.378.378 0 0 0-.05.363zm1.805 6.043A.734.734 0 1 0 6.967 6.6a.734.734 0 0 0-.002 1.467zm-5.5-2.296v.832l-.016.113-.367 1.101a.367.367 0 0 1-.695-.23l.347-1.047v-.77a.737.737 0 0 1-.367-.636V3.852a.734.734 0 0 1 1.149-.606l.617.336.543-.543a.365.365 0 1 1 .516.52l-.731.734a.368.368 0 0 1-.434.062l-.195-.105v.84l.898.45a.364.364 0 0 1 .204.327v1.098a.367.367 0 1 1-.735 0v-.871l-.695-.348c-.012.008-.024.016-.04.024zm-.363-2.836A.734.734 0 1 1 1.1 1.467a.734.734 0 0 1 .002 1.467zm0 0"/></svg>