<svg xmlns="http://www.w3.org/2000/svg" width="11" height="11"><path style="stroke:none;fill-rule:nonzero;fill:#000;fill-opacity:1" d="m5.71 9.113-.21.422h2.934l-.211-.422.945-.312L10.266 11H9.168l-.367-.734H5.133L4.766 11H3.668l1.098-2.2zm4.556-7.793v2.348l.52.516c.136.14.214.324.214.52v1.952c0 .301-.18.567-.457.68L6.965 8.8 3.39 7.336a.73.73 0 0 1-.457-.68V4.703c0-.195.078-.379.214-.52l.52-.515V1.32c0-.343.238-.64.574-.715L6.81.035a.72.72 0 0 1 .316 0l2.566.57a.731.731 0 0 1 .575.715zm-5.868.457v.79c0 .203.165.367.368.367h1.468a.367.367 0 0 0 .368-.368V1.531c0-.199-.165-.363-.368-.363-.02 0-.043 0-.062.004l-1.465.242a.372.372 0 0 0-.309.363zm2.934-.246v1.035c0 .204.164.368.367.368h1.469a.367.367 0 0 0 .367-.368v-.789a.372.372 0 0 0-.308-.363l-1.465-.242a.362.362 0 0 0-.422.3c-.004.02-.008.04-.008.06zm-.367 4.336A.734.734 0 1 0 6.967 4.4a.734.734 0 0 0-.002 1.467zM1.102 5.77v.832l-.02.113-.367 1.101a.365.365 0 0 1-.465.23.361.361 0 0 1-.23-.46l.347-1.047v-.77A.737.737 0 0 1 0 5.134V3.852a.734.734 0 0 1 1.148-.606l.618.336.543-.543a.365.365 0 1 1 .516.52l-.731.734a.368.368 0 0 1-.434.062l-.195-.105v.84l.898.45a.364.364 0 0 1 .203.327v1.098a.367.367 0 1 1-.734 0v-.871l-.695-.348-.035.024zM.734 2.934a.734.734 0 1 1-.001-1.467.734.734 0 0 1 .001 1.467zm0 0"/></svg>