<svg xmlns="http://www.w3.org/2000/svg" width="11" height="11"><path d="M7.332.734v.73h2.203c.805 0 1.465.661 1.465 1.47V8.8c0 .734-.734.734-.734.734v.73s0 .735-.73.735c-.735 0-.735-.734-.735-.734v-.73H5.133v.73s0 .734-.735.734c-.73 0-.73-.734-.73-.734v-.73c-.734 0-.734-.735-.734-.735V2.934c0-.809.66-1.47 1.464-1.47h2.204v-.73H4.766a.367.367 0 1 1 0-.734h4.402a.367.367 0 1 1 0 .734ZM4.035 3.668a.362.362 0 0 0-.367.367v2.2c0 .202.16.367.367.367h5.863a.364.364 0 0 0 .368-.368V4.035a.362.362 0 0 0-.368-.367Zm.363 3.664a.735.735 0 0 0 0 1.469.736.736 0 0 0 .735-.735.736.736 0 0 0-.735-.734Zm5.137 0a.736.736 0 0 0-.734.734c0 .403.328.735.734.735a.735.735 0 0 0 0-1.469ZM4.398 2.566c0 .207.165.368.368.368h4.402c.203 0 .367-.16.367-.368a.367.367 0 0 0-.367-.367H4.766a.367.367 0 0 0-.368.367ZM1.102 8.703v.832l-.024.117-.367 1.098a.358.358 0 0 1-.461.227.358.358 0 0 1-.227-.461l.344-1.04v-.773A.737.737 0 0 1 0 8.066v-1.28a.734.734 0 0 1 1.152-.602l.614.328.543-.535a.354.354 0 0 1 .515 0 .356.356 0 0 1 0 .511l-.734.735a.354.354 0 0 1-.434.066l-.191-.101v.835l.898.446a.382.382 0 0 1 .203.332v1.097c0 .207-.16.368-.367.368a.364.364 0 0 1-.367-.368v-.87l-.695-.352c-.016.015-.024.023-.035.027ZM.734 5.867A.736.736 0 0 1 0 5.133c0-.403.328-.735.734-.735a.735.735 0 0 1 0 1.47Zm0 0" style="stroke:none;fill-rule:nonzero;fill:#000;fill-opacity:1"/></svg>