<svg xmlns="http://www.w3.org/2000/svg" width="11" height="11"><path style="stroke:none;fill-rule:nonzero;fill:#000;fill-opacity:1" d="M2.934 2.2c0-.805.66-1.466 1.464-1.466h5.137C10.34.734 11 1.394 11 2.2v5.867c0 .735-.734.735-.734.735v.734a.732.732 0 0 1-1.465 0v-.734H5.133v.734a.733.733 0 0 1-1.465 0v-.734c-.734 0-.734-.735-.734-.735zm1.101.734a.362.362 0 0 0-.367.367V5.5c0 .207.16.367.367.367h2.2c.202 0 .367-.16.367-.367V3.3a.364.364 0 0 0-.368-.366zm3.664 0a.364.364 0 0 0-.367.367V5.5c0 .207.164.367.367.367h2.2c.206 0 .367-.16.367-.367V3.3a.362.362 0 0 0-.368-.366zM3.668 1.832c0 .3.246.55.547.55.3 0 .55-.25.55-.55a.548.548 0 0 0-1.098 0zm5.5 0c0 .3.246.55.547.55.3 0 .55-.25.55-.55a.548.548 0 0 0-1.098 0zm-1.469 0c0 .3.25.55.551.55.3 0 .55-.25.55-.55a.552.552 0 0 0-1.1 0zm-2.566 0c0 .3.25.55.55.55.301 0 .551-.25.551-.55a.552.552 0 0 0-1.101 0zm-.735 4.77a.732.732 0 1 0 .003 1.463.732.732 0 0 0-.003-1.463zm5.137 0a.733.733 0 1 0-.003 1.465.733.733 0 0 0 .003-1.465zm-8.433 1.37v.829l-.024.117-.367 1.098a.36.36 0 0 1-.461.23.362.362 0 0 1-.227-.465l.344-1.039v-.77A.748.748 0 0 1 0 7.333V6.051c0-.403.328-.735.734-.735a.7.7 0 0 1 .418.133l.614.328.543-.535a.36.36 0 0 1 .515 0 .36.36 0 0 1 0 .516l-.734.73a.354.354 0 0 1-.434.067l-.191-.102v.836l.898.45a.372.372 0 0 1 .203.327v1.102a.367.367 0 1 1-.734 0v-.875l-.695-.352c-.016.016-.024.024-.035.032zm-.368-2.84a.734.734 0 1 1-.001-1.466.734.734 0 0 1 .001 1.467zm0 0"/></svg>