<svg xmlns="http://www.w3.org/2000/svg" width="11" height="11"><path style="stroke:none;fill-rule:nonzero;fill:#000;fill-opacity:1" d="M7.332 3.668h1.59c.355 0 .656.254.723.602l.593 3.285a.72.72 0 0 1-.004.289l-.574 2.582a.731.731 0 0 1-.715.574H4.988a.731.731 0 0 1-.715-.574L3.7 7.844a.72.72 0 0 1-.008-.29L4.29 4.27a.737.737 0 0 1 .723-.602h1.59V2.102a.724.724 0 0 1-.368-.637v-.086l-5.09.637a.374.374 0 0 1-.41-.32.374.374 0 0 1 .32-.41l5.184-.65a.734.734 0 0 1 1.41-.175L9.855.187c.2-.027.383.118.41.317a.37.37 0 0 1-.32.41L7.7 1.195v.27a.732.732 0 0 1-.367.637zm0 .914v2.566c0 .102.082.184.184.184h1.796a.183.183 0 0 0 .184-.184c0-.011-.004-.023-.004-.035l-.5-2.566a.184.184 0 0 0-.18-.149H7.516a.183.183 0 0 0-.184.184zm-.73 2.566V4.582a.183.183 0 0 0-.184-.184H5.121a.18.18 0 0 0-.18.149l-.5 2.566c0 .012-.003.024-.003.035 0 .102.082.184.183.184h1.797a.183.183 0 0 0 .184-.184zm-4.77 1.555v.832l-.016.113-.367 1.102a.367.367 0 0 1-.695-.234l.348-1.043v-.77a.737.737 0 0 1-.368-.637v-1.28a.733.733 0 0 1 1.149-.606l.617.336.54-.543a.373.373 0 0 1 .519 0 .365.365 0 0 1 0 .52l-.735.734a.366.366 0 0 1-.433.062l-.192-.105v.84l.899.449A.364.364 0 0 1 3.3 8.8v1.097a.367.367 0 1 1-.735 0v-.87l-.695-.348c-.012.008-.023.015-.039.023zm-.367-2.836a.733.733 0 0 1-.73-.734.733.733 0 1 1 1.464 0 .734.734 0 0 1-.734.734zm0 0"/></svg>