<svg xmlns="http://www.w3.org/2000/svg" width="11" height="11"><path style="stroke:none;fill-rule:nonzero;fill:#000;fill-opacity:1" d="M11 2.2v5.866c0 .809-.656 1.47-1.465 1.47H4.398c-.808 0-1.464-.661-1.464-1.47V2.2c0-.808.656-1.465 1.464-1.465h5.137C10.344.734 11 1.391 11 2.2zM8.066 7.7a.734.734 0 1 0 1.467 0 .734.734 0 0 0-1.467 0zm-2.199 0a.736.736 0 0 0-.734-.735.734.734 0 1 0 .734.734zM3.664 3.3l.012 2.2c0 .203.164.367.367.367h2.195a.367.367 0 0 0 .367-.367l-.011-2.203c0-.2-.164-.363-.367-.363H4.03a.367.367 0 0 0-.367.367zm3.668 0 .008 2.2a.372.372 0 0 0 .367.367h2.2a.367.367 0 0 0 .366-.367l-.011-2.203c0-.2-.164-.363-.367-.363h-2.2c-.199 0-.363.164-.363.367zM4.398 1.833c0 .203.165.367.368.367h4.402a.367.367 0 1 0 0-.734H4.766a.367.367 0 0 0-.368.367zM1.102 7.969V8.8l-.02.113-.367 1.102a.365.365 0 0 1-.465.23.361.361 0 0 1-.23-.46l.347-1.044V7.97A.737.737 0 0 1 0 7.332V6.051a.734.734 0 0 1 1.148-.606l.618.336.543-.539a.36.36 0 0 1 .515 0 .36.36 0 0 1 0 .516l-.73.734a.368.368 0 0 1-.434.063l-.195-.102v.836l.898.45a.369.369 0 0 1 .203.327v1.102a.367.367 0 1 1-.734 0v-.875l-.695-.348-.035.024zM.734 5.133a.734.734 0 1 1-.001-1.467.734.734 0 0 1 .001 1.467zm0 0"/></svg>