<svg xmlns="http://www.w3.org/2000/svg" width="11" height="11"><path style="stroke:none;fill-rule:nonzero;fill:#000;fill-opacity:1" d="M7.332.734v.73h1.469L9.836 2.5c.277.281.43.652.43 1.043v4.523c0 .809-.66 1.47-1.465 1.47H5.133c-.805 0-1.465-.661-1.465-1.47V3.543c0-.39.152-.762.43-1.043l1.035-1.035h1.469v-.73h-1.47a.367.367 0 1 1 0-.735h3.669a.367.367 0 1 1 0 .734zM5.684 9.898 5.133 11H4.035l.547-1.102zm3.668 0L9.898 11H8.801L8.25 9.898zM4.398 4.035 4.406 5.5c0 .207.164.367.367.367h1.461c.204 0 .368-.16.368-.367V4.035a.374.374 0 0 0-.368-.367H4.766a.364.364 0 0 0-.368.367zm2.934 0L7.34 5.5c0 .207.164.367.367.367h1.461c.203 0 .367-.16.367-.367V4.035a.374.374 0 0 0-.367-.367H7.699a.364.364 0 0 0-.367.367zm-2.2-1.469v.008c.009.2.169.36.368.36h2.941a.36.36 0 0 0 .36-.36V2.56a.373.373 0 0 0-.367-.36H5.492a.36.36 0 0 0-.36.36v.007zm0 5.868a.739.739 0 0 0 .735-.735.739.739 0 0 0-.734-.734.739.739 0 0 0-.735.734c0 .403.332.735.735.735zm3.669 0a.739.739 0 0 0 .734-.735.739.739 0 0 0-.734-.734.739.739 0 0 0-.735.734c0 .403.332.735.735.735zm-6.969-.461V8.8l-.02.117-.367 1.098a.361.361 0 0 1-.46.23.364.364 0 0 1-.231-.465l.348-1.039v-.77a.74.74 0 0 1-.368-.64V6.051c0-.403.329-.735.73-.735.157 0 .298.043.419.133l.617.328.543-.535a.36.36 0 0 1 .516 0 .36.36 0 0 1 0 .516l-.735.73a.354.354 0 0 1-.433.067l-.192-.102v.836l.895.45a.368.368 0 0 1 .207.327v1.102a.367.367 0 1 1-.735 0v-.875l-.695-.352c-.016.016-.023.024-.039.032zm-.367-2.84a.733.733 0 1 1 .004-1.466.733.733 0 0 1-.004 1.466zm0 0"/></svg>