<svg xmlns="http://www.w3.org/2000/svg" width="11" height="11"><path style="stroke:none;fill-rule:nonzero;fill:#000;fill-opacity:1" d="M11 2.2v5.866c0 .809-.66 1.47-1.465 1.47H4.398c-.804 0-1.464-.661-1.464-1.47V2.2c0-.804.66-1.465 1.464-1.465h5.137C10.34.734 11 1.394 11 2.2zM8.066 7.7c0 .402.332.734.735.734a.739.739 0 0 0 .734-.735.739.739 0 0 0-.734-.734.739.739 0 0 0-.735.734zm-2.199 0a.739.739 0 0 0-.734-.735.739.739 0 0 0-.735.734c0 .403.332.735.735.735a.739.739 0 0 0 .734-.735zM3.668 3.3l.008 2.2c0 .207.168.367.363.367h2.203c.196 0 .363-.16.363-.367l-.011-2.2a.364.364 0 0 0-.367-.366H4.035a.362.362 0 0 0-.367.367zm3.664 0 .008 2.2c0 .207.168.367.367.367h2.2c.198 0 .366-.16.366-.367l-.015-2.2a.361.361 0 0 0-.363-.366H7.699a.364.364 0 0 0-.367.367zM4.398 1.833c0 .207.165.367.368.367h4.402a.367.367 0 1 0 0-.734H4.766a.367.367 0 0 0-.368.367zm-3.296 6.14v.829l-.024.117-.367 1.098a.36.36 0 0 1-.461.23.362.362 0 0 1-.227-.465l.344-1.039v-.77A.748.748 0 0 1 0 7.333V6.051c0-.403.328-.735.734-.735a.7.7 0 0 1 .418.133l.614.328.543-.535a.36.36 0 0 1 .515 0 .36.36 0 0 1 0 .516l-.734.73a.354.354 0 0 1-.434.067l-.191-.102v.836l.898.45a.372.372 0 0 1 .203.327v1.102a.367.367 0 1 1-.734 0v-.875l-.695-.352c-.016.016-.024.024-.035.032zm-.368-2.84a.734.734 0 1 1-.001-1.466.734.734 0 0 1 .001 1.467zm0 0"/></svg>