<svg xmlns="http://www.w3.org/2000/svg" width="11" height="11"><path d="M2.934 6.242a.315.315 0 0 1-.11.246l-.734.735a.354.354 0 0 1-.434.066l-.191-.101v.835l.898.446a.382.382 0 0 1 .203.332v1.097c0 .207-.16.368-.367.368a.364.364 0 0 1-.367-.368v-.87l-.695-.352c-.016.015-.024.023-.035.027v.832l-.024.117-.367 1.098a.358.358 0 0 1-.461.227.358.358 0 0 1-.227-.461l.344-1.04v-.773A.737.737 0 0 1 0 8.066v-1.28a.734.734 0 0 1 1.152-.602l.614.328.543-.535a.354.354 0 0 1 .515 0c.074.066.11.152.11.25V3.05c0-.082.015-.153.035-.227l.527-1.594a.746.746 0 0 1 .7-.496H5.5v.73H4.406v1.47h5.492l-.37-1.47H8.433v-.73h1.304c.317 0 .594.204.696.496l.53 1.594c.02.074.036.145.036.227v6.484A1.47 1.47 0 0 1 9.535 11H4.398a1.47 1.47 0 0 1-1.464-1.465Zm.734-.742.008 2.2c0 .206.168.366.363.366h2.203c.196 0 .363-.16.363-.367L6.594 5.5a.364.364 0 0 0-.367-.367H4.035a.362.362 0 0 0-.367.367Zm4.398 4.035a.735.735 0 0 0 1.47 0 .736.736 0 0 0-.735-.734.736.736 0 0 0-.735.734Zm-2.199 0a.736.736 0 0 0-.734-.734.736.736 0 0 0-.735.734.735.735 0 0 0 1.47 0Zm-.734-5.5v.004c.008.2.168.36.367.36h2.941a.36.36 0 0 0 .36-.36v-.012a.37.37 0 0 0-.367-.359H5.492c-.199 0-.36.16-.36.36v.007ZM7.332 5.5l.008 2.2c0 .206.168.366.367.366h2.2c.198 0 .366-.16.366-.367L10.258 5.5a.361.361 0 0 0-.363-.367H7.699a.364.364 0 0 0-.367.367ZM5.867.367c0-.207.16-.367.367-.367H7.7c.2 0 .36.16.367.367v1.465c0 .207-.16.367-.367.367H6.242a.362.362 0 0 1-.367-.367Zm-5.133 5.5A.736.736 0 0 1 0 5.133c0-.403.328-.735.734-.735a.735.735 0 0 1 0 1.47Zm0 0" style="stroke:none;fill-rule:nonzero;fill:#000;fill-opacity:1"/></svg>