<svg xmlns="http://www.w3.org/2000/svg" width="11" height="11"><path style="stroke:none;fill-rule:nonzero;fill:#000;fill-opacity:1" d="M8.8 2.2H4.247a1.84 1.84 0 0 0-1.68-1.098c-.746 0-1.394.453-1.68 1.097h1.68l.368.735-.368.734H.886a1.843 1.843 0 0 0 1.68 1.098 1.84 1.84 0 0 0 1.68-1.098h4.555a.739.739 0 0 0 .734-.734.739.739 0 0 0-.734-.735zM9.535 7.332c-.055 1.344-.785 2.031-2.203 2.07H2.199l-.734-2.07h5.883l-1.48-1.098.734-.367L8.8 7.332zm-5.867-.367H1.465V5.867h1.469c.402 0 .734.328.734.735zm0 0"/></svg>