<svg xmlns="http://www.w3.org/2000/svg" width="11" height="11"><path style="stroke:none;fill-rule:nonzero;fill:#000;fill-opacity:1" d="M8.184 7.047c-.051-.043-.094-.086-.145-.125a1.414 1.414 0 0 0-1.805 0c-.117.09-.226.2-.347.293a.532.532 0 0 1-.235.117h-.261a.554.554 0 0 1-.235-.117c-.117-.094-.226-.203-.343-.293a1.424 1.424 0 0 0-1.797 0c-.118.09-.215.191-.332.281a.62.62 0 0 1-.82-.066 1.297 1.297 0 0 0-.15-.117l-.98-2.622H7.7L6.234 2.934l.73-.368 2.204 1.832h1.098c0 1.07-.98 2.149-2.082 2.649zm-4.215.285h-.207a.614.614 0 0 1 .207 0zm-.301-3.297H.734V2.566h2.2c.402 0 .734.332.734.735zm6.598 3.32v.711a.72.72 0 0 0-.496.25c-.2.204-.457.352-.735.426-.45.133-.937.035-1.297-.265l-.289-.25a.575.575 0 0 0-.804 0c-.102.09-.2.175-.31.265a1.432 1.432 0 0 1-1.82-.05l-.285-.25a.577.577 0 0 0-.734 0c-.137.109-.262.226-.402.335a1.419 1.419 0 0 1-1.723-.043l-.226-.191a.684.684 0 0 0-.41-.227v-.71a.898.898 0 0 1 .55.093c.203.125.395.266.578.418a.61.61 0 0 0 .82.066c.118-.085.215-.19.333-.277a1.424 1.424 0 0 1 1.796 0c.118.086.227.2.344.293.211.176.52.176.73 0 .122-.094.231-.207.348-.293a1.414 1.414 0 0 1 1.805 0c.11.086.211.192.32.278.215.175.52.175.735 0l.344-.293c.234-.192.527-.293.828-.286zm0 0"/></svg>