<svg xmlns="http://www.w3.org/2000/svg" width="11" height="11"><path d="M10.559 9.02c-.22 0-.407-.051-.598-.133a1.556 1.556 0 0 0-.645-.145c-.234 0-.449.055-.648.145-.195.086-.41.136-.637.136-.226 0-.445-.05-.64-.136a1.626 1.626 0 0 0-1.32 0 1.596 1.596 0 0 1-1.282.004c-.2-.09-.426-.145-.66-.145-.234 0-.461.055-.66.145a1.596 1.596 0 0 1-.64.136c-.227 0-.446-.05-.642-.136-.199-.09-.425-.141-.66-.141-.234 0-.46.05-.664.14a1.625 1.625 0 0 1-.64.137V8.09c.218 0 .445-.05.64-.137.203-.09.43-.144.664-.144.235 0 .461.054.66.144a1.582 1.582 0 0 0 1.281 0c.2-.09.427-.144.66-.144.235 0 .462.054.661.144.195.086.414.137.64.137.227 0 .446-.05.641-.137a1.63 1.63 0 0 1 .66-.144c.239 0 .461.054.66.144.196.086.419.137.645.137.227 0 .445-.05.64-.137.2-.09.427-.144.66-.144.235 0 .423.054.626.144.195.086.383.137.601.137v.937ZM.227 5.059l-.004 2.18c.226 0 .445-.067.64-.153.2-.09.426-.152.66-.152.235 0 .457.046.66.136a1.593 1.593 0 0 0 1.282-.004 1.613 1.613 0 0 1 1.32-.004c.195.086.414.137.64.137.227 0 .446-.05.641-.136a1.626 1.626 0 0 1 1.32 0c.196.085.419.136.645.136.063 0 .125-.015.188-.02.113-.023.23-.034.344-.081l.007-.004c.825-.328 1.54-1.102 1.985-1.707l.222-.332H.223Zm5.89-2.418h1.551c.016 0 .418-.063.55.23l.583 1.309H6.816ZM1.98 4.043c0 .105-.082.137-.183.137H.945c-.105 0-.28-.032-.28-.137V2.781c0-.097.175-.14.28-.14h.852c.101 0 .187.043.187.14v1.262Zm3.524 0c0 .105-.094.137-.2.137h-.85c-.106 0-.27-.032-.27-.137V2.781c0-.097.164-.14.27-.14h.85c.106 0 .2.043.2.14Zm-1.762 0c0 .105-.094.137-.195.137h-.844c-.105 0-.277-.032-.277-.137V2.781c0-.097.172-.14.277-.14h.844c.105 0 .195.043.195.14Zm4.742-1.559c-.254-.546-.941-.507-.941-.507H.223v2.64h9.18Zm0 0" style="stroke:none;fill-rule:nonzero;fill:#000;fill-opacity:1"/></svg>