<svg xmlns="http://www.w3.org/2000/svg" width="11" height="11"><path style="stroke:none;fill-rule:nonzero;fill:#000;fill-opacity:1" d="M8.438 1.465H7.332a1.46 1.46 0 0 0-1.262.734H2.566l-.734.735.734.734.735-.734.734.734.73-.734.735.734h.57c.254.434.723.73 1.262.73h1.102a.367.367 0 0 0 .367-.367V1.832a.366.366 0 0 0-.364-.367zM8.066 3.3a.367.367 0 1 1-.734 0v-.735a.367.367 0 1 1 .734 0zM9.535 7.332c-.055 1.34-.789 2.031-2.203 2.066H2.199l-.734-2.066h5.883l-1.48-1.098.734-.367L8.8 7.332zm-5.867-.367H1.465V5.867h1.469c.406 0 .734.328.734.735zm0 0"/></svg>