<svg xmlns="http://www.w3.org/2000/svg" width="11" height="11"><path style="stroke:none;fill-rule:nonzero;fill:#000;fill-opacity:1" d="m1.871 1.559 2.102.582 1.168-.82.406.1-1.156.821 6.379 1.774-.47 1.734-6.398-1.77C1.422 3.234 1.875 1.56 1.875 1.56M7.469 5.996a1.47 1.47 0 0 0-.082-.414l2.922.816-.094.36zm-2.653-.73c.079-.118.172-.22.278-.309L.219 3.609v.387zm1.207 1.28c.262 0 .473-.21.473-.472a.473.473 0 0 0-.473-.476.475.475 0 1 0 0 .95zm4.758 2.915c-.234 0-.453-.055-.648-.145a1.673 1.673 0 0 0-.672-.148c-.238 0-.465.059-.668.148-.2.09-.418.145-.648.145a1.56 1.56 0 0 1-.649-.145 1.655 1.655 0 0 0-.668-.148c-.242 0-.469.059-.672.148a1.56 1.56 0 0 1-.648.145 1.56 1.56 0 0 1-.649-.145 1.673 1.673 0 0 0-.671-.148c-.239 0-.465.059-.668.148a1.56 1.56 0 0 1-.649.145c-.23 0-.453-.055-.652-.145a1.64 1.64 0 0 0-.668-.148 1.67 1.67 0 0 0-.668.148 1.56 1.56 0 0 1-.649.145L.22 5.586 5.55 7.059a1.1 1.1 0 0 1-.625-.985 1.096 1.096 0 1 1 1.097 1.094l-.109-.012 4.86 1.34zm0 0"/></svg>