<svg xmlns="http://www.w3.org/2000/svg" width="11" height="11"><path style="stroke:none;fill-rule:nonzero;fill:#000;fill-opacity:1" d="M10.559 9.02c-.22 0-.407-.051-.602-.137-.2-.09-.406-.14-.64-.14-.235 0-.454.05-.653.14a1.563 1.563 0 0 1-1.277 0 1.613 1.613 0 0 0-1.316 0 1.582 1.582 0 0 1-1.281 0 1.626 1.626 0 0 0-1.321 0 1.596 1.596 0 0 1-.64.137 1.6 1.6 0 0 1-.645-.137 1.613 1.613 0 0 0-1.32 0 1.63 1.63 0 0 1-.645.137v-.938c.222 0 .449-.05.644-.137.2-.09.426-.144.66-.144.235 0 .461.054.66.144.196.086.415.137.641.137.23 0 .45-.05.645-.137a1.587 1.587 0 0 1 1.32 0 1.582 1.582 0 0 0 1.281 0c.2-.09.426-.144.66-.144.235 0 .461.054.66.144.196.086.415.137.641.137.23 0 .45-.05.645-.137.199-.09.426-.144.66-.144.234 0 .422.054.621.144.195.086.383.137.602.137zM.227 5.059l-.004 2.18c.226 0 .445-.067.64-.153.2-.09.426-.152.66-.152.235 0 .461.046.66.136a1.593 1.593 0 0 0 1.286-.004 1.626 1.626 0 0 1 1.32 0 1.582 1.582 0 0 0 1.281 0c.2-.09.426-.144.66-.144.235 0 .461.055.66.144.196.086.415.137.641.137.067 0 .13-.016.192-.023.113-.024.23-.035.34-.078l.007-.004c.828-.328 1.543-1.102 1.989-1.707l.222-.332zm5.89-2.418h1.551c.016 0 .418-.063.55.23l.583 1.309H6.816zM1.98 4.043c0 .105-.085.137-.187.137H.941c-.105 0-.28-.032-.28-.137V2.785c0-.101.175-.144.28-.144h.852c.102 0 .187.043.187.144zm3.52 0c0 .105-.094.137-.195.137h-.852c-.105 0-.273-.032-.273-.137V2.785c0-.101.168-.144.273-.144h.852c.101 0 .195.043.195.144zm-1.762 0c0 .105-.09.137-.195.137h-.844c-.105 0-.277-.032-.277-.137V2.785c0-.101.172-.144.277-.144h.844c.105 0 .195.043.195.144zM8.48 2.488c-.253-.55-.937-.508-.937-.508H.223L.219 4.621h9.18zm0 0"/></svg>