<svg xmlns="http://www.w3.org/2000/svg" width="11" height="11"><path d="m1.871 1.559 2.106.582 1.168-.82.406.1-1.156.821 6.375 1.774-.465 1.734-6.399-1.77C1.426 3.234 1.875 1.56 1.875 1.56M7.473 5.996a1.622 1.622 0 0 0-.082-.414l2.921.816-.093.36Zm-2.657-.73c.079-.118.172-.22.278-.309L.219 3.609v.387ZM6.023 6.55a.478.478 0 0 0 .477-.477.478.478 0 0 0-.477-.476.478.478 0 0 0-.476.476c0 .262.215.477.476.477Zm4.758 2.91c-.23 0-.453-.05-.648-.14a1.597 1.597 0 0 0-.672-.15c-.238 0-.465.056-.664.15a1.572 1.572 0 0 1-1.3 0 1.561 1.561 0 0 0-1.333 0 1.576 1.576 0 0 1-1.3 0 1.575 1.575 0 0 0-1.336 0 1.585 1.585 0 0 1-1.3 0 1.579 1.579 0 0 0-1.336 0c-.2.09-.423.14-.654.14L.223 5.59l5.332 1.473a1.096 1.096 0 0 1 .472-2.083c.602 0 1.098.493 1.098 1.098 0 .602-.492 1.094-1.098 1.094l-.105-.012 4.855 1.34.008.965Zm0 0" style="stroke:none;fill-rule:nonzero;fill:#000;fill-opacity:1"/></svg>