<svg xmlns="http://www.w3.org/2000/svg" width="11" height="11"><path style="stroke:none;fill-rule:nonzero;fill:#000;fill-opacity:1" d="M11 8.8c-.219 0-.441-.05-.633-.14a1.505 1.505 0 0 0-.648-.148c-.23 0-.453.054-.649.148a1.5 1.5 0 0 1-1.266 0 1.505 1.505 0 0 0-.648-.148c-.23 0-.453.054-.648.148a1.482 1.482 0 0 1-1.262 0 1.522 1.522 0 0 0-.652-.148c-.23 0-.45.054-.649.148a1.482 1.482 0 0 1-1.257 0 1.522 1.522 0 0 0-.653-.148c-.23 0-.387.054-.586.148-.191.09-.347.14-.57.14v-.964c.223 0 .379-.05.57-.14a1.42 1.42 0 0 1 1.254 0c.192.09.395.14.621.14.223 0 .434-.05.63-.14.194-.09.413-.145.644-.145.23 0 .453.054.648.144a1.482 1.482 0 0 0 1.262 0 1.56 1.56 0 0 1 .648-.144c.23 0 .453.054.649.144a1.5 1.5 0 0 0 1.265 0 1.56 1.56 0 0 1 .649-.144c.23 0 .453.054.648.144.192.09.414.14.633.14zM8.422 4.778l1.863.149-.14-.969-1.368-.098c-.367-.02-.316.356-.316.356zm-3.453-.222a.618.618 0 0 0 .617-.625.621.621 0 0 0-.617-.63.624.624 0 0 0-.617.63.62.62 0 0 0 .617.625zM1.16 6.977c.078-.024.153-.055.227-.086.199-.094.418-.149.648-.149.235 0 .453.055.652.149.192.086.403.14.63.14.222 0 .437-.054.632-.14a1.492 1.492 0 0 1 1.297 0c.191.086.406.14.629.14.227 0 .438-.054.633-.14a1.505 1.505 0 0 1 1.3 0c.188.086.407.14.63.14.222 0 .437-.054.632-.14.196-.094.418-.149.649-.149.23 0 .453.055.648.149.192.086.406.14.63.14l-.208-1.718-7.742-.66 1.168-1.2-.512-.047L2.535 4.61 0 4.395c-.016.878.95 2.343 1.16 2.582zm0 0"/></svg>