<svg xmlns="http://www.w3.org/2000/svg" width="11" height="11"><path style="stroke:none;fill-rule:nonzero;fill:#000;fill-opacity:1" d="m8.18 7.047-.14-.129a1.435 1.435 0 0 0-1.806 0c-.117.094-.226.203-.347.297a.532.532 0 0 1-.235.117h-.261a.554.554 0 0 1-.235-.117c-.117-.094-.226-.203-.343-.297a1.434 1.434 0 0 0-1.797 0c-.118.094-.215.195-.332.281a.78.78 0 0 1-.227.117.628.628 0 0 1-.594-.18 4.042 4.042 0 0 0-.148-.12l-.98-2.618h6.964L6.234 2.934l.73-.368 2.204 1.832h1.098c0 1.075-.98 2.149-2.086 2.649zm-4.207.285h-.215a.66.66 0 0 1 .215 0zm-.305-3.297H.734V2.566h2.2c.406 0 .734.329.734.735zm6.598 3.317v.718a.728.728 0 0 0-.496.242c-.2.208-.454.356-.735.43a1.41 1.41 0 0 1-1.297-.265l-.289-.25a.583.583 0 0 0-.804 0c-.102.085-.2.18-.31.265a1.432 1.432 0 0 1-1.82-.05l-.285-.25a.568.568 0 0 0-.734 0c-.137.109-.262.23-.402.335a1.419 1.419 0 0 1-1.723-.043l-.226-.191a.67.67 0 0 0-.41-.223v-.718a.937.937 0 0 1 .55.101c.203.121.395.262.578.414.149.16.375.23.594.18a.686.686 0 0 0 .227-.113c.117-.086.214-.188.332-.282a1.434 1.434 0 0 1 1.796 0c.118.094.227.203.344.297.211.176.524.176.73 0 .122-.094.231-.203.348-.297a1.435 1.435 0 0 1 1.805 0c.11.094.211.196.32.282.211.18.524.18.735 0l.344-.293c.234-.188.527-.29.828-.29zm0 0"/></svg>