<svg xmlns="http://www.w3.org/2000/svg" width="11" height="11"><path style="stroke:none;fill-rule:nonzero;fill:#000;fill-opacity:1" d="M2.2 1.102c.183.183 0 .363 0 1.097 0 1.102 0 1.469.366 1.836.368.363.368.73.368 1.832v4.031c0 .735-2.934.735-2.934 0v-4.03c0-1.102 0-1.47.367-1.833.367-.367.367-.734.367-1.836 0-.734-.183-.914 0-1.097.184.183 1.282.183 1.465 0zM.733.367c-.183.184 0 .184 0 .367.184.184 1.282.184 1.465 0 0-.183.184-.183 0-.367H.734zM6.234 1.102c.184.183 0 .363 0 1.097 0 1.102 0 1.469.368 1.836.363.363.363.73.363 1.832v4.031c0 .735-2.93.735-2.93 0v-4.03c0-1.102 0-1.47.363-1.833.368-.367.368-.734.368-1.836 0-.734-.184-.914 0-1.097.183.183 1.285.183 1.468 0zM4.766.367c-.184.184 0 .184 0 .367.183.184 1.285.184 1.468 0 0-.183.184-.183 0-.367H4.766zM10.266 1.102c.183.183 0 .363 0 1.097 0 1.102 0 1.469.367 1.836.367.363.367.73.367 1.832v4.031c0 .735-2.934.735-2.934 0v-4.03c0-1.102 0-1.47.368-1.833.367-.367.367-.734.367-1.836 0-.734-.184-.914 0-1.097.183.183 1.281.183 1.465 0zM8.8.367c-.184.184 0 .184 0 .367.183.184 1.281.184 1.465 0 0-.183.183-.183 0-.367H8.8zm0 0"/></svg>