<svg xmlns="http://www.w3.org/2000/svg" width="11" height="11"><path style="stroke:none;fill-rule:nonzero;fill:#000;fill-opacity:1" d="m.734.734 3.664.73-1.617.54.887.887C5.41 1.445 7.727 1.27 10.52 2.316c.378.141.57.563.43.942a.742.742 0 0 1-.88.453L7.277 6.5l.903.902.62-.07 2.153 1.86-1.465.296-.297 1.465-1.859-2.152.07-.621-.902-.903-2.793 2.793.008.016a.74.74 0 0 1-.457.863.732.732 0 0 1-.942-.43c-1.046-2.792-.87-5.109.575-6.851l-.887-.887-.54 1.617zM3.45 9.297l2.535-2.535-2.05-2.051c-.895 1.156-1.067 2.66-.485 4.586zm1.262-5.363 2.05 2.05L9.298 3.45c-1.926-.582-3.43-.41-4.586.485zm0 0"/></svg>