<svg xmlns="http://www.w3.org/2000/svg" width="11" height="11"><path d="M1.102 10.266C.984 9.645.637 8.359.734 6.965c.118-1.692 1.028-2.711 1.098-2.93.125-.39.125-.61 0-1.101-.16-.633-.73-2.567.55-2.567 1.286 0 .696 1.899.552 2.567-.102.46-.102.777 0 1.101.082.238.902 1.383 1.101 2.93.18 1.476-.207 2.59-.367 3.3-.164.72-2.43.72-2.566 0Zm6.597-4.399c.207 0 .367.16.367.367a.367.367 0 1 1-.367-.367Zm1.469.367c.203 0 .367.16.367.368a.363.363 0 0 1-.367.363.361.361 0 0 1-.367-.363c0-.207.16-.368.367-.368ZM8.066 7.332c.207 0 .368.164.368.367 0 .207-.16.367-.368.367a.367.367 0 1 1 0-.734ZM7.7 4.766a2.932 2.932 0 0 0-2.933 2.933 2.932 2.932 0 0 0 2.933 2.934 2.932 2.932 0 0 0 2.934-2.934 2.932 2.932 0 0 0-2.934-2.933Zm0 0" style="stroke:none;fill-rule:nonzero;fill:#000;fill-opacity:1"/></svg>