<svg xmlns="http://www.w3.org/2000/svg" width="11" height="11"><path style="stroke:none;fill-rule:nonzero;fill:#000;fill-opacity:1" d="M1.102 10.266C.98 9.64.64 8.363.734 6.965c.114-1.695 1.028-2.711 1.098-2.93.129-.39.125-.61 0-1.101-.16-.63-.73-2.567.55-2.567 1.286 0 .7 1.903.552 2.567-.106.457-.106.777 0 1.101.078.238.906 1.387 1.101 2.93.184 1.476-.207 2.586-.367 3.3-.164.715-2.43.723-2.566 0zm6.597-4.399a.367.367 0 1 1 .001.734.367.367 0 0 1 0-.734zm1.469.367c.2 0 .367.164.367.368 0 .199-.168.363-.367.363a.366.366 0 1 1 0-.73zM8.066 7.332a.367.367 0 1 1 .001.734.367.367 0 0 1 0-.734zM7.7 4.766a2.932 2.932 0 0 0-2.933 2.933 2.932 2.932 0 0 0 2.933 2.934 2.932 2.932 0 0 0 2.934-2.934 2.932 2.932 0 0 0-2.934-2.933zm0 0"/></svg>