<svg xmlns="http://www.w3.org/2000/svg" width="11" height="11"><path d="M6.945 6.637s-.414-1.035-.812-2.02c0 0-.137-.59-.031-1.379 0 0 .289-1.199.125-1.77 0 0-.243-.488-.75-.523 0 0-.696.051-.829.73 0 0-.03.391.075.84 0 0 .39 1.497-.035 2.473 0 0-.602 1.25-.645 1.535 0 0-.227 1.227-.008 2.125 0 0 .465 1.543.8 2.055 0 0 .688.176 1.278-.015 0 0 .707-1.145.852-2.18 0 0 .176-1.09-.024-1.875Zm2.203-.727s-.414-1.031-.816-2.02c0 0-.133-.59-.027-1.374 0 0 .285-1.204.125-1.774 0 0-.242-.484-.746-.52 0 0-.7.048-.832.727 0 0-.036.395.078.848 0 0 .39 1.496-.043 2.469l-.207.445.738 1.824.008.031c.207.82.031 1.926.027 1.965-.066.492-.254.996-.437 1.403l.027.046s.687.176 1.273-.02c0 0 .707-1.14.848-2.175 0 0 .18-1.094-.02-1.879ZM4.23 4.898c.024-.05.043-.109.063-.164-.11-.265-.227-.55-.34-.84 0 0-.137-.593-.027-1.378 0 0 .285-1.2.125-1.77 0 0-.242-.488-.75-.523 0 0-.7.05-.828.726 0 0-.032.395.074.848 0 0 .39 1.496-.04 2.473 0 0-.597 1.25-.648 1.535 0 0-.222 1.222-.004 2.125 0 0 .465 1.543.801 2.05 0 0 .692.176 1.278-.015l.039-.059a16.891 16.891 0 0 1-.407-1.199c-.23-.941-.007-2.172 0-2.223.051-.3.563-1.386.66-1.59Zm0 0" style="stroke:none;fill-rule:nonzero;fill:#000;fill-opacity:1"/></svg>