<svg xmlns="http://www.w3.org/2000/svg" width="11" height="11"><path style="stroke:none;fill-rule:nonzero;fill:#000;fill-opacity:1" d="M6.945 6.633s-.414-1.031-.812-2.016c0 0-.137-.594-.031-1.379 0 0 .285-1.203.128-1.77 0 0-.246-.488-.75-.523 0 0-.699.051-.828.73 0 0-.035.391.075.845 0 0 .39 1.496-.04 2.468 0 0-.597 1.25-.644 1.54 0 0-.227 1.222-.004 2.124 0 0 .461 1.543.8 2.055 0 0 .688.176 1.278-.016 0 0 .707-1.144.848-2.18 0 0 .176-1.093-.02-1.878zm2.203-.727s-.414-1.031-.816-2.015c0 0-.133-.594-.027-1.38 0 0 .285-1.202.125-1.769 0 0-.242-.488-.75-.523 0 0-.7.05-.828.73 0 0-.036.39.074.844 0 0 .39 1.496-.04 2.469 0 0-.09.199-.206.449.375.922.734 1.824.734 1.824l.008.016.004.015c.207.82.031 1.926.023 1.965-.066.492-.25.992-.433 1.403l.027.046s.687.176 1.277-.02c0 0 .703-1.14.848-2.175 0 0 .176-1.094-.02-1.879zM4.23 4.895c.024-.051.043-.106.06-.16-.106-.27-.224-.555-.34-.84 0 0-.134-.594-.028-1.38 0 0 .285-1.199.125-1.769 0 0-.242-.488-.75-.52 0 0-.7.047-.828.727 0 0-.031.39.078.844 0 0 .39 1.496-.04 2.473 0 0-.597 1.25-.648 1.535 0 0-.222 1.222-.004 2.125 0 0 .465 1.543.805 2.054 0 0 .688.176 1.274-.015l.039-.063a18.539 18.539 0 0 1-.407-1.199c-.23-.937-.007-2.172 0-2.219.051-.304.563-1.386.664-1.593zm0 0"/></svg>