<svg xmlns="http://www.w3.org/2000/svg" width="11" height="11"><path style="stroke:none;fill-rule:nonzero;fill:#000;fill-opacity:1" d="m7.398 7.203-.468-.558-.844.703a.37.37 0 0 1-.52-.043L5.2 6.863l-2.492.45L.141 1.188A.364.364 0 0 1 .242.762L.617.453a.357.357 0 0 1 .43-.027l5.59 3.586-.88 2.383.138.16.843-.711a.366.366 0 0 1 .516.043l.703.843a.37.37 0 0 1 .52.047l2.355 2.809a.37.37 0 0 1-.043.52l-.566.468a.36.36 0 0 1-.512-.043L7.355 7.723a.37.37 0 0 1 .043-.52zm-3.57-.836L3.727 4.54l1.78.418.235-.644L.953 1.237l2.2 5.25zm0 0"/></svg>