<svg xmlns="http://www.w3.org/2000/svg" width="11" height="11"><path style="stroke:none;fill-rule:nonzero;fill:#000;fill-opacity:1" d="m7.398 7.203-.472-.558-.84.707a.37.37 0 0 1-.52-.047l-.37-.442-2.493.453L.137 1.188A.368.368 0 0 1 .242.766L.613.453a.364.364 0 0 1 .434-.027l5.59 3.59-.88 2.375.138.16.84-.707a.37.37 0 0 1 .519.047l.707.843a.366.366 0 0 1 .516.043l2.355 2.809a.37.37 0 0 1-.043.52l-.562.468a.365.365 0 0 1-.516-.043L7.35 7.723a.37.37 0 0 1 .047-.52zm-3.57-.836-.101-1.824 1.78.414.24-.644L.952 1.233l2.2 5.254zm0 0"/></svg>