<svg xmlns="http://www.w3.org/2000/svg" width="11" height="11"><path d="M7.332 1.465c.406 0 .734.332.734.734v.735h1.47c.402 0 .73.328.73.734v5.133a.735.735 0 0 1-.73.734H1.464a.735.735 0 0 1-.73-.734V3.668c0-.406.328-.734.73-.734h1.469v-.735c0-.402.328-.734.734-.734ZM6.051 3.668H4.949v1.613l-1.398-.808L3 5.426l1.398.808L3 7.04l.55.953 1.4-.804V8.8h1.1V7.187l1.4.805L8 7.04l-1.398-.805L8 5.426l-.55-.953-1.4.808Zm1.281-1.469H3.668v.735h3.664Zm0 0" style="stroke:none;fill-rule:nonzero;fill:#000;fill-opacity:1"/></svg>