<svg xmlns="http://www.w3.org/2000/svg" width="11" height="11"><path style="stroke:none;fill-rule:nonzero;fill:#000;fill-opacity:1" d="M3.668 2.934h3.664v-.735H3.668zm-.734 0v-.735c0-.402.328-.734.734-.734h3.664c.406 0 .734.332.734.734v.735h1.47c.402 0 .73.328.73.734v5.133a.735.735 0 0 1-.73.734H1.464a.735.735 0 0 1-.73-.734V3.668c0-.406.328-.734.73-.734zm0 1.464c0 1.957.855 3.422 2.566 4.403 2.566-1.469 2.566-4.403 2.566-4.403S6.602 5.5 5.5 3.668c-.734 1.223-1.59 1.465-2.566.73zM5.5 7.93V4.86c.004-.005.012-.008.016-.016.082.074.168.144.254.203.453.316.925.441 1.39.418-.11.402-.27.8-.488 1.172-.293.508-.68.945-1.172 1.293zm0 0"/></svg>