<svg xmlns="http://www.w3.org/2000/svg" width="11" height="11"><path style="stroke:none;fill-rule:nonzero;fill:#000;fill-opacity:1" d="M5.531 2.934 6.445.19l1.043.352-.8 2.39H8.8L7.332 11H3.668L2.199 2.934zM5.5 8.066c-.3 0-.55.25-.55.551 0 .301.25.551.55.551.3 0 .55-.25.55-.55 0-.302-.25-.552-.55-.552zm-.918 1.286a.548.548 0 1 0 .003 1.097.548.548 0 0 0-.003-1.097zm1.836 0c-.3 0-.55.246-.55.546 0 .301.25.551.55.551a.548.548 0 0 0 0-1.098zM5.5 6.418c-.3 0-.55.246-.55.547a.55.55 0 1 0 1.102 0c-.001-.3-.243-.547-.552-.547zm1.465.914a.552.552 0 0 0 0 1.102c.3 0 .55-.25.55-.551 0-.301-.25-.551-.55-.551zm-2.93 0c-.3 0-.55.25-.55.55 0 .302.25.552.55.552a.552.552 0 0 0 0-1.102zm3.113-1.648a.552.552 0 0 0 0 1.101c.301 0 .551-.25.551-.55 0-.301-.25-.551-.55-.551zm0 0"/></svg>