<svg xmlns="http://www.w3.org/2000/svg" width="11" height="11"><path style="stroke:none;fill-rule:nonzero;fill:#000;fill-opacity:1" d="M5.531 2.934 6.445.19 7.488.54l-.797 2.395h2.11L7.332 11H3.668L2.199 2.934zM5.5 8.066a.55.55 0 1 0-.001 1.1.55.55 0 0 0 .001-1.1zm-.918 1.286a.548.548 0 1 0 .003 1.097.548.548 0 0 0-.003-1.097zm1.836 0a.55.55 0 1 0-.003 1.098.55.55 0 0 0 .003-1.098zm-.914-2.934a.55.55 0 1 0 0 1.098.55.55 0 1 0 0-1.098zm1.46.914a.55.55 0 0 0-.546.55.55.55 0 1 0 1.098 0 .55.55 0 0 0-.551-.55zm-2.929 0a.55.55 0 1 0 0 1.102.55.55 0 0 0 .547-.551.55.55 0 0 0-.547-.551zm3.113-1.648a.552.552 0 0 0 0 1.102.55.55 0 1 0 0-1.102zm0 0"/></svg>