<svg xmlns="http://www.w3.org/2000/svg" width="11" height="11"><path style="stroke:none;fill-rule:nonzero;fill:#000;fill-opacity:1" d="M6.234 8.434H4.766c-.368 0-.368-1.47-1.098-2.2-.734-.734-1.469-1.836-1.469-3.3C2.2 1.102 4.035.367 5.5.367s3.3.735 3.3 2.567c0 1.464-.734 2.566-1.468 3.3-.73.73-.73 2.2-1.098 2.2zm-1.468 1.832h.183s.184.367.551.367c.367 0 .55-.367.55-.367h.184a.395.395 0 0 0 .368-.368c0-.183-.184-.363-.368-.363H4.766c-.184 0-.368.18-.368.363 0 .184.184.368.368.368zm1.468-1.649H4.766a.395.395 0 0 0-.368.367c0 .184.184.368.368.368h1.468a.395.395 0 0 0 .368-.368.395.395 0 0 0-.368-.367zm0 0"/></svg>