<svg xmlns="http://www.w3.org/2000/svg" width="11" height="11"><path d="M6.234 9.535c.184 0 .368.18.368.363a.395.395 0 0 1-.368.368h-.183s-.184.367-.551.367c-.367 0-.55-.367-.55-.367h-.184a.395.395 0 0 1-.368-.368c0-.183.184-.363.368-.363Zm0-.918H4.766a.395.395 0 0 0-.368.367c0 .184.184.368.368.368h1.468a.395.395 0 0 0 .368-.368.395.395 0 0 0-.368-.367ZM5.5.953c1.832 0 2.715.879 2.715 1.98 0 2.2-1.43 2.934-1.797 3.669-.367.73-.367 1.32-.734 1.32H5.28c-.367 0-.332-.59-.699-1.32-.367-.735-1.797-1.47-1.797-3.668 0-1.102.883-1.98 2.715-1.98Zm0-.586c-1.465 0-3.3.735-3.3 2.567 0 1.464.734 2.566 1.468 3.3.73.73.73 2.2 1.098 2.2h1.468c.368 0 .368-1.47 1.098-2.2.734-.734 1.469-1.836 1.469-3.3C8.8 1.102 6.965.367 5.5.367Zm0 0" style="stroke:none;fill-rule:nonzero;fill:#000;fill-opacity:1"/></svg>