<svg xmlns="http://www.w3.org/2000/svg" width="11" height="11"><path style="stroke:none;fill-rule:nonzero;fill:#000;fill-opacity:1" d="M7.7 6.602c1.1 0 1.468.73 1.468 1.464 0 .735-.367 1.47-1.469 1.47H1.465C.367 9.535 0 8.8 0 8.065c0-.734.367-1.464 1.465-1.464zm.183.73a.736.736 0 0 0-.735.734.734.734 0 1 0 .734-.734zm-6.598 0a.734.734 0 1 0-.002 1.467.734.734 0 0 0 .002-1.467zm4.399 0a.734.734 0 1 0-.002 1.467.734.734 0 0 0 .002-1.467zm-2.2 0a.734.734 0 1 0-.001 1.467.734.734 0 0 0 .001-1.467zm6.782-.73c0-2.934 1.101-2.934.367-2.934-.735 0-1.465.367-1.465 2.934 0 2.566.73 2.933 1.465 2.933.734 0-.367 0-.367-2.933zM4.69 2.199c.368 0 .442.367.442.367L5.5 4.398H2.2V2.2H4.69zm.442-.734H1.832s-.367 0-.367.367v2.566h-.363s-.368 0-.368.336v1.133c0 .367.368.367.368.367H8.8s0-1.836-.735-1.836H6.418l-.66-2.457s-.074-.476-.625-.476zm0 0"/></svg>