<svg xmlns="http://www.w3.org/2000/svg" width="11" height="11"><path style="stroke:none;fill-rule:nonzero;fill:#000;fill-opacity:1" d="M1.465 8.066h2.933V6.602c0-.407.332-.735.735-.735h4.402v-.734h-8.07zm0 .735v1.465h-.73V1.102c0-.207.16-.368.367-.368.203 0 .363.16.363.368v3.296h2.933V2.934c0-.403.332-.735.735-.735H8.8c.804 0 1.465.66 1.465 1.469v6.598h-.73V8.8zm1.469-4.766a1.1 1.1 0 0 1-1.102-1.101 1.1 1.1 0 0 1 1.102-1.102 1.1 1.1 0 0 1 1.101 1.102 1.1 1.1 0 0 1-1.101 1.101zm0 3.664a1.1 1.1 0 1 1 0-2.199 1.1 1.1 0 1 1 0 2.2zm0 0"/></svg>