<svg xmlns="http://www.w3.org/2000/svg" width="11" height="11"><path style="stroke:none;fill-rule:nonzero;fill:#000;fill-opacity:1" d="M1.465 8.066h2.933V6.602c0-.407.329-.735.735-.735h4.402v-.734h-8.07zm0 .735v1.465h-.73V1.102a.366.366 0 1 1 .73 0v3.296h2.933V2.934c0-.407.329-.735.735-.735H8.8c.808 0 1.465.656 1.465 1.469v6.598h-.73V8.8zm1.469-4.766a1.103 1.103 0 0 1 0-2.203c.605 0 1.101.492 1.101 1.102 0 .605-.496 1.101-1.101 1.101zm0 3.664a1.1 1.1 0 1 1 0-2.199c.605 0 1.101.492 1.101 1.102 0 .605-.496 1.097-1.101 1.097zm0 0"/></svg>