<svg xmlns="http://www.w3.org/2000/svg" width="11" height="11"><path style="stroke:none;fill-rule:nonzero;fill:#000;fill-opacity:1" d="M7.098 9.535c-.055 0-.114 0-.172.008a.587.587 0 0 0-.281.152c-.102.086-.2.18-.31.266a1.437 1.437 0 0 1-1.82-.05l-.285-.255a.568.568 0 0 0-.734 0c-.137.11-.262.23-.402.34a1.424 1.424 0 0 1-1.723-.043l-.226-.195a.71.71 0 0 0-.41-.223V8.82a.965.965 0 0 1 .55.098c.203.125.395.262.578.418.149.16.375.226.594.18a.627.627 0 0 0 .227-.118c.117-.085.214-.183.332-.277a1.39 1.39 0 0 1 .586-.285.573.573 0 0 1 .351-.031c.305.008.61.113.86.316.117.094.226.2.343.293a.562.562 0 0 0 .477.125l-.067-.02a1.5 1.5 0 0 0 .23-.042.463.463 0 0 0 .09-.063c.122-.094.231-.2.348-.293.164-.137.352-.226.551-.277a.564.564 0 0 1 .29-.043c.34-.012.687.094.964.32.11.094.211.191.32.277.211.18.524.18.735 0l.344-.293a1.3 1.3 0 0 1 .828-.285v.715a.732.732 0 0 0-.496.246c-.2.207-.454.356-.735.43a1.422 1.422 0 0 1-1.297-.266l-.289-.25a.543.543 0 0 0-.351-.16zm1.535-.738a.571.571 0 0 1-.309-.129c-.11-.086-.215-.188-.324-.281a1.435 1.435 0 0 0-1.805 0c-.117.093-.226.199-.343.293a.568.568 0 0 1-.735 0c-.117-.094-.226-.2-.344-.293a1.434 1.434 0 0 0-1.796 0c-.094.074-.172.152-.258.222a1.463 1.463 0 0 1-.469-1.496 1.473 1.473 0 0 1 1.797-1.039l1.656-3.351-.351-.094a.366.366 0 1 1 .187-.707l.356.094.093-.356A1.102 1.102 0 0 1 7.336.883c.586.156.934.762.777 1.347l-.093.356.351.094a.366.366 0 1 1-.187.707l-.356-.094-.238 3.73a1.47 1.47 0 0 1 1.043 1.774zm-1.867-5.79-.352-.093-1.66 3.352 1.062.285zm0 0"/></svg>