<svg xmlns="http://www.w3.org/2000/svg" width="11" height="11"><path style="stroke:none;fill-rule:nonzero;fill:#000;fill-opacity:1" d="M7.098 9.535c-.059 0-.118 0-.176.004a.568.568 0 0 0-.277.156c-.102.086-.2.176-.31.262a1.427 1.427 0 0 1-1.82-.05l-.285-.25a.577.577 0 0 0-.734 0c-.137.113-.262.23-.402.34a1.419 1.419 0 0 1-1.723-.044l-.226-.191a.664.664 0 0 0-.41-.227V8.82a.9.9 0 0 1 .55.098c.203.125.395.262.578.418a.62.62 0 0 0 .82.066c.118-.09.215-.191.333-.28.175-.145.379-.243.586-.286a.572.572 0 0 1 .351-.035c.309.015.61.117.86.32.117.09.226.2.343.293a.575.575 0 0 0 .477.125l-.067-.02c.082-.007.153-.023.235-.042a.596.596 0 0 0 .086-.063c.12-.094.23-.203.347-.293.168-.137.352-.226.551-.277a.67.67 0 0 1 .293-.043c.336-.016.68.094.961.32.11.09.211.191.32.281.215.176.52.176.735 0l.344-.293c.234-.191.527-.293.828-.289v.715a.716.716 0 0 0-.496.246c-.2.207-.457.352-.735.426a1.4 1.4 0 0 1-1.297-.262l-.289-.25a.545.545 0 0 0-.351-.16zm1.535-.734a.594.594 0 0 1-.309-.133c-.11-.09-.215-.191-.324-.277a1.414 1.414 0 0 0-1.805 0c-.117.086-.226.195-.343.293a.577.577 0 0 1-.735 0c-.117-.098-.226-.207-.344-.293a1.424 1.424 0 0 0-1.796 0c-.094.07-.168.144-.258.218a1.46 1.46 0 0 1-.469-1.496A1.471 1.471 0 0 1 4.047 6.07l1.66-3.351-.355-.094a.365.365 0 0 1-.262-.445.37.37 0 0 1 .445-.258l.36.094.097-.352A1.093 1.093 0 0 1 7.332.88a1.1 1.1 0 0 1 .777 1.351l-.093.352.359.094a.38.38 0 0 1 .258.457.37.37 0 0 1-.45.254l-.351-.094-.242 3.73c.77.207 1.238 1 1.043 1.778zM6.77 3.008l-.36-.098-1.656 3.352 1.062.285zm0 0"/></svg>