<svg xmlns="http://www.w3.org/2000/svg" width="11" height="11"><path d="M1.465 2.2c0-.805.66-1.466 1.469-1.466h5.132c.809 0 1.47.66 1.47 1.465v5.867a.739.739 0 0 1-.735.735v.734a.735.735 0 0 1-1.469 0v-.734H3.668v.734a.735.735 0 0 1-1.469 0v-.734a.739.739 0 0 1-.734-.735Zm1.101.734A.364.364 0 0 0 2.2 3.3V5.5c0 .207.164.367.367.367h5.868c.203 0 .367-.16.367-.367V3.3a.364.364 0 0 0-.367-.366Zm.368 3.668a.735.735 0 0 0-.735.73c0 .406.332.734.735.734a.736.736 0 0 0 .734-.734.735.735 0 0 0-.734-.73Zm5.132 0a.735.735 0 0 0-.734.73c0 .406.332.734.734.734a.736.736 0 0 0 .735-.734.735.735 0 0 0-.735-.73Zm-5.132-4.77c0 .207.16.367.367.367h4.398c.207 0 .367-.16.367-.367a.364.364 0 0 0-.367-.367H3.301a.364.364 0 0 0-.367.367Zm6.921 8.434a.463.463 0 0 1-.125-.02.37.37 0 0 1-.218-.473l1.129-3.152c.03-.074.093-.125.175-.125.102 0 .184.082.184.184v3.218c0 .207-.16.368-.367.368Zm-8.71 0H.367A.362.362 0 0 1 0 9.898V6.68c0-.102.082-.184.184-.184.082 0 .144.05.175.125l1.13 3.152a.37.37 0 0 1-.22.473.463.463 0 0 1-.124.02Zm0 0" style="stroke:none;fill-rule:nonzero;fill:#000;fill-opacity:1"/></svg>