<svg xmlns="http://www.w3.org/2000/svg" width="11" height="11"><path style="stroke:none;fill-rule:nonzero;fill:#000;fill-opacity:1" d="M1.465 2.2c0-.81.66-1.466 1.469-1.466h5.132c.809 0 1.47.657 1.47 1.465v5.867a.736.736 0 0 1-.735.735v.734c0 .402-.328.73-.735.73a.733.733 0 0 1-.734-.73v-.734H3.668v.734c0 .402-.328.73-.734.73a.733.733 0 0 1-.735-.73v-.734a.736.736 0 0 1-.734-.735zm1.101.734A.367.367 0 0 0 2.2 3.3V5.5c0 .203.164.367.367.367h5.868A.367.367 0 0 0 8.8 5.5V3.3a.367.367 0 0 0-.367-.366zm.368 3.668a.733.733 0 1 0 0 1.464.734.734 0 1 0 0-1.464zm5.132 0a.733.733 0 1 0 0 1.464.734.734 0 1 0 0-1.464zm-5.132-4.77c0 .203.164.367.367.367h4.398a.367.367 0 1 0 0-.734H3.301a.367.367 0 0 0-.367.367zm6.921 8.434a.463.463 0 0 1-.125-.02.368.368 0 0 1-.218-.469l1.133-3.16a.186.186 0 0 1 .171-.12c.102 0 .184.081.184.183v3.218a.367.367 0 0 1-.367.368zm-8.71 0H.367A.367.367 0 0 1 0 9.898V6.68c0-.102.082-.184.184-.184.078 0 .144.05.171.121l1.133 3.16a.368.368 0 0 1-.218.47.463.463 0 0 1-.125.019zm0 0"/></svg>