<svg xmlns="http://www.w3.org/2000/svg" width="11" height="11"><path style="stroke:none;fill-rule:nonzero;fill:#000;fill-opacity:1" d="m10.336.906.297.43c.472.691.492 1.539.047 2.242-.696 1.094-1.106 1.98-1.239 2.656-.109.54-.183 1.106-.226 1.707-.055.774-.57 1.473-1.367 1.86l-1.664.808c-1.653.805-3.762.329-4.715-1.062L.676 8.395C-.714 6.367.109 3.777 2.52 2.609L7.39.242c1.032-.5 2.352-.203 2.946.664zm-.754.52c-.332-.48-1.156-.668-1.793-.36L2.918 3.434C.996 4.367.371 6.332 1.43 7.875l.793 1.156c.687 1 2.304 1.364 3.558.754l1.664-.808c.516-.25.825-.668.856-1.102.047-.637.125-1.242.238-1.82.16-.809.617-1.785 1.363-2.97.25-.39.243-.839-.027-1.23zm-.758.52.297.429c.059.086.059.14.008.223-.8 1.27-1.3 2.34-1.488 3.28a15.555 15.555 0 0 0-.254 1.93c-.008.094-.11.231-.34.344l-1.664.809c-.86.418-1.98.164-2.403-.45l-.792-1.156c-.731-1.062-.305-2.398 1.132-3.097l4.871-2.363c.239-.118.57-.043.633.05zm-4.61 3.82a.734.734 0 0 0-.285 1.11.874.874 0 0 0 1.223.186l.446-.328c.351-.257.543-.675.507-1.109a.489.489 0 0 0-.691-.406zm0 0"/></svg>