<svg xmlns="http://www.w3.org/2000/svg" width="11" height="11"><path style="stroke:none;fill-rule:nonzero;fill:#000;fill-opacity:1" d="m9.535 4.223.43.316c.574.418.281 1.328-.43 1.328v.735a.732.732 0 0 1 0 1.464v.735a.733.733 0 0 1 0 1.465H6.602V7.332H4.398v2.934H1.465a.732.732 0 0 1 0-1.465v-.735a.733.733 0 0 1 0-1.464v-.735c-.711 0-1.004-.91-.43-1.328l4.031-2.934a.752.752 0 0 1 .868 0L8.066 3.16V.734h1.47zM2.2 5.867v.735h6.602v-.735zm6.602 2.2H7.332V8.8h1.469zm-6.602 0V8.8h1.469v-.735zM5.5 3.108 3.727 4.4h3.546zm0 0"/></svg>