<svg xmlns="http://www.w3.org/2000/svg" width="11" height="11"><path style="stroke:none;fill-rule:nonzero;fill:#000;fill-opacity:1" d="M5.5 0C8.523 0 11 2.477 11 5.5S8.54 11 5.5 11 0 8.523 0 5.5 2.477 0 5.5 0zm0 .367A5.126 5.126 0 0 0 .367 5.5 5.126 5.126 0 0 0 5.5 10.633 5.126 5.126 0 0 0 10.633 5.5 5.126 5.126 0 0 0 5.5.367zM8.066 2.2c.368 0 .368.735 0 .735H6.965c-.18 0-1.281-.551-.914-.735zm-3.117 0c.367.184-.734.735-.914.735H2.934c-.368 0-.368-.735 0-.735zM2.934 3.668c.367 0-.184.73-.368.73h-.734c-.367 0-.367-.73 0-.73h1.102zm6.234 0c.367 0 .367.73 0 .73h-.734c-.184 0-.735-.73-.368-.73zm.367 1.465c.363 0 .363.734 0 .734h-.734c-.367 0-.367-.734 0-.734zm-7.336 0c.367 0 .367.734 0 .734h-.734c-.363 0-.363-.734 0-.734zm.367 1.469c.184 0 .735.73.368.73H1.832c-.367 0-.367-.73 0-.73h.734zm6.602 0c.367 0 .367.73 0 .73H8.066c-.367 0 .184-.73.368-.73zM5.5 2.934c1.367 0 2.566 1.199 2.566 2.566 0 1.367-1.199 2.566-2.566 2.566-1.367 0-2.566-1.199-2.566-2.566 0-1.367 1.199-2.566 2.566-2.566zm2.566 5.132c.368 0 .368.735 0 .735H6.051c-.367-.184.734-.735.914-.735zm-4.03 0c.179 0 1.28.551.913.735H2.934c-.368 0-.368-.735 0-.735zM6.417.824s-.184.64-.918.64-.918-.64-.918-.64A4.793 4.793 0 0 0 .734 5.5c0 2.2 1.559 4.215 3.848 4.676 0 0 .184-.64.918-.64.695 0 .918.64.918.64A4.793 4.793 0 0 0 10.266 5.5c0-2.2-1.559-4.215-3.848-4.676zm0 0"/><path style="stroke:none;fill-rule:nonzero;fill:#000;fill-opacity:1" d="M6.418 6.418c.137.477 0 1.281 0 1.281-.137.137-1.7.137-1.836 0 0 0-.137-.804 0-1.281.273.273 1.563.273 1.836 0zm0 0"/><path style="stroke:none;fill-rule:nonzero;fill:#000;fill-opacity:1" d="M6.477 3.758c0-.137.488-.137.488 0 0 .683-.871 1.312-1.457 2.539-.074 0-.29-.27-.29-.27.583-1.164 1.259-1.722 1.259-2.27zm-.168 1.449c-.145.203-.215.273-.29.406 0 .207-.074.344-.367.754-.07.137.368.137.442 0 .289-.34.363-.547.215-1.16zm-.168-1.45c0-.136-.457-.128-.457 0-.075.419-.032.766.117 1.106.074-.066.219-.273.293-.41-.074-.273-.024-.422.047-.695zm-1.618 0c0 .684.403 1.106.985 1.516-.074.137-.145.274-.246.41-.63-.476-1.227-1.105-1.227-1.925 0-.137.488-.137.488 0zm.254 1.653c-.07.41-.144.684.149.957.07.07.363.137.582.07-.438-.343-.438-.48-.363-.683l-.368-.344zm.54-1.652c0-.137-.458-.137-.458 0 .07.344.286.629.211.969a.882.882 0 0 0 .364.343c.148-.48-.043-.902-.118-1.312zm0 0"/></svg>