<svg xmlns="http://www.w3.org/2000/svg" width="11" height="11"><path style="stroke:none;fill-rule:nonzero;fill:#000;fill-opacity:1" d="M7.7 7.516c.366 1.285.183 3.117.183 3.117-.367.367-4.399.367-4.766 0 0 0-.183-1.832.184-3.117.734.734 3.664.734 4.398 0zm0 0"/><path style="stroke:none;fill-rule:nonzero;fill:#000;fill-opacity:1" d="M8.066.367c0-.367 1.102-.367 1.102 0 0 1.832-2.203 3.485-3.668 6.781-.184 0-.734-.73-.734-.73 1.468-3.117 3.3-4.586 3.3-6.05zm-.55 3.848c-.368.55-.551.734-.73 1.101 0 .551-.184.918-.919 2.016-.183.367.918.367 1.098 0 .734-.914.918-1.465.55-3.117zM6.965.367C6.965 0 5.867 0 5.867.352c-.183 1.113 0 2.03.367 2.949.184-.184.551-.735.73-1.102-.179-.734-.179-1.097 0-1.832zm-4.031 0c0 1.832 1.101 2.934 2.566 4.031-.184.368-.367.735-.625 1.102C3.301 4.215 1.832 2.566 1.832.367c0-.367 1.102-.367 1.102 0zm.734 4.399c-.184 1.101-.367 1.836.367 2.566.18.184.914.367 1.465.184-1.102-.914-1.102-1.282-.918-1.832-.184-.184-.547-.551-.914-.918zM5.133.367c0-.367-1.098-.367-1.098 0 .18.918.547 1.649.363 2.567.184.367.551.734.918.918.368-1.286 0-2.387-.183-3.485zm0 0"/></svg>