<svg xmlns="http://www.w3.org/2000/svg" width="11" height="11"><path d="M4.398.367v1.098h1.836c.368 0 .368.367.368.367v7.336s0 .367-.368.367H4.398v1.098c0 .367-2.199.367-2.199 0V9.535H.367C0 9.535 0 9.168 0 9.168V1.832s0-.367.367-.367H2.2V.367C2.2 0 4.4 0 4.4.367Zm1.47 2.2c0-.368-.368-.368-.368-.368H1.102s-.368 0-.368.367v5.868c0 .367.368.367.368.367H5.5s.367 0 .367-.367V2.566Zm0 0" style="stroke:none;fill-rule:nonzero;fill:#000;fill-opacity:1"/><path d="M3.668 3.3v4.4c0 .366-.367.366-.367.366H1.832s-.367 0-.367-.367V3.301c0-.367.367-.367.367-.367h1.469s.367 0 .367.367Zm-.734 2.75c0-.183-.184-.183-.184-.183h-.367s-.184 0-.184.184v1.097c0 .184.184.184.184.184h.367s.184 0 .184-.184V6.051ZM4.398 3.3v1.466c0 .183.184.183.184.183h.367s.184 0 .184-.183V3.3c0-.184-.184-.184-.184-.184h-.367s-.184 0-.184.184Zm.368 3.212c.207 0 .367.25.367.453 0 .207-.16.465-.367.465-.204 0-.368-.258-.368-.465 0-.203.165-.453.368-.453Zm.828.453c0-.453-.364-.914-.828-.914-.454 0-.82.46-.82.914 0 .465.366.918.82.918.464 0 .828-.453.828-.918ZM10.266 6.855c.183.844.183 1.946.183 1.946-.183.183-2.75.183-2.933 0 0 0 0-1.102.183-1.946.551.477 2.2.477 2.567 0Zm0 0" style="stroke:none;fill-rule:nonzero;fill:#000;fill-opacity:1"/><path d="M10.266 2.566c0-.183.734-.183.734 0 0 1.102-1.102 2.2-1.98 4.036-.22-.184-.403-.442-.403-.442.735-1.762 1.649-2.676 1.649-3.594Zm0 2.2c-.184.367-.368.55-.47.734 0 .367-.108.559-.558 1.21-.07.255.477.255.66.075.368-.55.551-.918.368-2.02Zm-.368-2.2c0-.183-.73-.183-.73 0 0 .735 0 1.102.219 1.688.11-.11.328-.586.441-.77-.015-.3-.015-.55.07-.918Zm-2.199 0c0 1.102.367 1.723 1.285 2.383-.109.184-.183.367-.332.66-.953-.761-1.687-1.757-1.687-3.043 0-.183.734-.183.734 0Zm.184 2.567c-.184.734 0 1.101.258 1.578.109.11.476.254.879.125-.66-.602-.696-.824-.586-1.152l-.551-.551ZM8.8 2.566c0-.183-.735-.183-.735 0 .184.551.368.918.293 1.512.075.211.332.438.551.55.258-.776.05-1.41-.11-2.062Zm0 0" style="stroke:none;fill-rule:nonzero;fill:#000;fill-opacity:1"/></svg>