<svg xmlns="http://www.w3.org/2000/svg" width="11" height="11"><path d="M5.5 0C8.527 0 11 2.48 11 5.5 11 8.527 8.535 11 5.5 11A5.508 5.508 0 0 1 0 5.5C0 2.48 2.48 0 5.5 0Zm0 .367A5.126 5.126 0 0 0 .367 5.5 5.124 5.124 0 0 0 5.5 10.633 5.121 5.121 0 0 0 10.633 5.5c0-2.84-2.29-5.133-5.133-5.133ZM8.066 2.2c.368 0 .368.735 0 .735H6.965c-.18 0-1.281-.551-.914-.735Zm-3.117 0c.367.184-.734.735-.914.735H2.934c-.368 0-.368-.735 0-.735ZM2.934 3.668c.367 0-.184.73-.368.73h-.734c-.367 0-.367-.73 0-.73h1.102Zm6.234 0c.367 0 .367.73 0 .73h-.734c-.184 0-.735-.73-.368-.73Zm.367 1.465c.363 0 .363.734 0 .734h-.734c-.367 0-.367-.734 0-.734Zm-7.336 0c.367 0 .367.734 0 .734h-.734c-.363 0-.363-.734 0-.734Zm.367 1.469c.184 0 .735.73.368.73H1.832c-.367 0-.367-.73 0-.73h.734Zm6.602 0c.367 0 .367.73 0 .73H8.066c-.367 0 .184-.73.368-.73ZM5.5 2.934c1.371 0 2.566 1.195 2.566 2.566 0 1.371-1.195 2.566-2.566 2.566-1.371 0-2.566-1.195-2.566-2.566 0-1.371 1.195-2.566 2.566-2.566Zm2.566 5.132c.368 0 .368.735 0 .735H6.051c-.367-.184.734-.735.914-.735Zm-4.03 0c.179 0 1.28.551.913.735H2.934c-.368 0-.368-.735 0-.735ZM6.417.828s-.184.637-.918.637-.918-.637-.918-.637A4.79 4.79 0 0 0 .734 5.5c0 2.2 1.563 4.215 3.848 4.68 0 0 .184-.645.918-.645.695 0 .918.645.918.645a4.797 4.797 0 0 0 3.848-4.68c0-2.2-1.555-4.215-3.848-4.672Zm0 0" style="stroke:none;fill-rule:nonzero;fill:#000;fill-opacity:1"/><path d="M6.418 6.418c.137.477 0 1.281 0 1.281-.14.14-1.695.14-1.836 0 0 0-.137-.804 0-1.281.273.27 1.563.27 1.836 0Zm0 0" style="stroke:none;fill-rule:nonzero;fill:#000;fill-opacity:1"/><path d="M6.477 3.762c0-.14.488-.14.488 0 0 .683-.871 1.304-1.457 2.539-.074 0-.293-.274-.293-.274.586-1.164 1.262-1.722 1.262-2.265Zm-.165 1.445c-.144.203-.218.27-.292.41 0 .207-.07.336-.368.75-.07.137.368.137.442 0 .293-.34.36-.543.218-1.16Zm-.167-1.445c0-.14-.461-.133-.461 0-.075.41-.032.761.117 1.101.074-.066.219-.273.293-.41-.074-.273-.024-.418.05-.691Zm-1.622 0c0 .683.407 1.101.985 1.511a3.61 3.61 0 0 1-.25.41c-.625-.476-1.223-1.109-1.223-1.921 0-.14.488-.14.488 0Zm.258 1.648c-.074.414-.148.684.149.957.07.07.36.137.578.07-.434-.343-.434-.484-.367-.687a9.797 9.797 0 0 0-.36-.34Zm.535-1.648c0-.14-.453-.14-.453 0 .067.336.278.625.211.968a.81.81 0 0 0 .36.336c.148-.476-.043-.902-.118-1.304Zm0 0" style="stroke:none;fill-rule:nonzero;fill:#000;fill-opacity:1"/></svg>