<svg xmlns="http://www.w3.org/2000/svg" width="11" height="11"><path d="M4.398.367v1.098h1.836c.368 0 .368.367.368.367v7.336s0 .367-.368.367H4.398v1.098c0 .367-2.199.367-2.199 0V9.535H.367C0 9.535 0 9.168 0 9.168V1.832s0-.367.367-.367H2.2V.367C2.2 0 4.4 0 4.4.367ZM3.301 2.934C1.832 2.934.734 4.035.734 5.5c0 1.465 1.098 2.566 2.567 2.566 1.465 0 2.566-1.101 2.566-2.566 0-1.465-1.101-2.566-2.566-2.566Zm0 0" style="stroke:none;fill-rule:nonzero;fill:#000;fill-opacity:1"/><path d="M2.2 6.602h2.198c.368 0 .368.73 0 .73H2.2c-.367 0-.367-.73 0-.73Zm-.368-2.567c-.184.18.809 1.172.809 1.172s-.075.145-.075.293c0 .367.278.734.735.734.46 0 .734-.367.734-.734a.723.723 0 0 0-.734-.734c-.223 0-.293.074-.293.074s-.992-.988-1.176-.805ZM10.266 6.855c.183.844.183 1.946.183 1.946-.183.183-2.75.183-2.933 0 0 0 0-1.102.183-1.946.551.477 2.2.477 2.567 0Zm0 0" style="stroke:none;fill-rule:nonzero;fill:#000;fill-opacity:1"/><path d="M10.266 2.566c0-.183.734-.183.734 0 0 1.102-1.102 2.2-1.98 4.036-.22-.184-.403-.442-.403-.442.735-1.762 1.649-2.676 1.649-3.594Zm0 2.2c-.184.367-.368.55-.47.734 0 .367-.108.559-.558 1.21-.07.255.477.255.66.075.368-.55.551-.918.368-2.02Zm-.368-2.2c0-.183-.73-.183-.73 0 0 .735 0 1.102.219 1.688.11-.11.328-.586.441-.77-.015-.3-.015-.55.07-.918Zm-2.199 0c0 1.102.367 1.723 1.285 2.383-.109.184-.183.367-.332.66-.953-.761-1.687-1.757-1.687-3.043 0-.183.734-.183.734 0Zm.184 2.567c-.184.734 0 1.101.258 1.578.109.11.476.254.879.125-.66-.602-.696-.824-.586-1.152l-.551-.551ZM8.8 2.566c0-.183-.735-.183-.735 0 .184.551.368.918.293 1.512.075.211.332.438.551.55.258-.776.05-1.41-.11-2.062Zm0 0" style="stroke:none;fill-rule:nonzero;fill:#000;fill-opacity:1"/></svg>