<svg xmlns="http://www.w3.org/2000/svg" width="11" height="11"><path style="stroke:none;fill-rule:nonzero;fill:#000;fill-opacity:1" d="M4.605 10.266c-.527 0-3.87-.082-3.87-.797 0-1.067.85-1.348 1.613-1.543.847-.219 7.316-.762 7.738-.543.52.27-.176 1.777-.965 1.984-.851.219-1.633.899-2.906.899h-1.61zM5.078 3.3c-.191 0-1.41-.051-1.41-.453 0-.594.55-1.004.703-1.13.293-.234.266-.53.422-.788.219-.348.789-.563.988-.563.16 0 .633.293.989.676.156.172.562.988.562 1.242 0 .809-.469 1.016-.844 1.016h-1.41zM2.7 6.027c-.496-.355-.004-.996.653-1.468.593-.43.992-.188 1.628-.38 1.13-.34 1.637.016 1.637.016L7.997 5c.823.594.062.629-.384 1.277-.433.63-1.613.399-2.172.567-.468.14-1.226.277-2.05-.317zm0 0"/></svg>