<svg xmlns="http://www.w3.org/2000/svg" width="11" height="11"><path style="stroke:none;fill-rule:nonzero;fill:#000;fill-opacity:1" d="M4.605 10.266c-.527 0-3.87-.079-3.87-.797 0-1.067.85-1.352 1.613-1.543.851-.219 7.316-.762 7.742-.543.515.265-.176 1.777-.969 1.98-.848.223-1.633.903-2.902.903H4.605zm.47-6.965c-.184 0-1.407-.051-1.407-.457 0-.594.547-1.004.703-1.121.293-.235.262-.536.426-.793.219-.352.785-.563.98-.563.164 0 .641.293.993.676.16.176.562.988.562 1.246 0 .805-.469 1.012-.844 1.012H5.074zM2.698 6.027c-.5-.359-.008-.996.653-1.472.593-.426.988-.184 1.628-.375 1.13-.336 1.633.015 1.633.015L7.993 5c.827.594.066.625-.38 1.277-.433.63-1.613.403-2.172.567-.468.144-1.226.277-2.054-.317zm0 0"/></svg>