<svg xmlns="http://www.w3.org/2000/svg" width="11" height="11"><path style="stroke:none;fill-rule:nonzero;fill:#000;fill-opacity:1" d="M6.602 5.867v1.465h1.832c.203 0 .367.164.367.367v2.934a.367.367 0 0 1-.367.367H2.566a.367.367 0 0 1-.367-.367V7.699c0-.203.164-.367.367-.367h1.832V5.867H.368a.367.367 0 1 1 0-.734h1.831A1.465 1.465 0 0 1 .734 3.668V1.676c0-.754.567-1.383 1.317-1.461A37.928 37.928 0 0 1 5.867 0c1.125 0 2.399.07 3.817.215A1.47 1.47 0 0 1 11 1.675v2.723c0 .813-.656 1.47-1.465 1.47zM4.035 2.934c.2 0 .363-.164.363-.368v-.734a.366.366 0 0 0-.363-.367H2.566a.367.367 0 0 0-.367.367v.734c0 .204.164.368.367.368zm5.133 0a.367.367 0 0 0 .367-.368v-.734a.367.367 0 0 0-.367-.367H6.234a.367.367 0 0 0-.367.367v.734c0 .204.164.368.367.368zM5.133 8.066h-.961a.183.183 0 0 0-.184.184.19.19 0 0 0 .063.14l1.332 1.118a.188.188 0 0 0 .234 0L6.95 8.39a.184.184 0 0 0 .02-.258.18.18 0 0 0-.14-.067h-.962v-3.3a.367.367 0 1 0-.734 0zm0 0"/></svg>