<svg xmlns="http://www.w3.org/2000/svg" width="11" height="11"><path style="stroke:none;fill-rule:nonzero;fill:#000;fill-opacity:1" d="M6.602 5.867v1.465h1.832c.203 0 .367.164.367.367v2.934a.364.364 0 0 1-.367.367H2.566a.364.364 0 0 1-.367-.367V7.699c0-.203.164-.367.367-.367h1.832V5.867H.368A.362.362 0 0 1 0 5.5c0-.207.16-.367.367-.367H2.2A1.47 1.47 0 0 1 .734 3.668V1.68c0-.754.57-1.387 1.32-1.461A37.887 37.887 0 0 1 5.868 0c1.13 0 2.399.074 3.813.219.75.074 1.32.707 1.32 1.46V4.4c0 .808-.66 1.468-1.465 1.468zM4.035 2.934c.203 0 .363-.16.363-.368v-.734a.363.363 0 0 0-.363-.367H2.566a.367.367 0 0 0-.367.367v.734c0 .207.164.368.367.368zm5.133 0c.203 0 .367-.16.367-.368v-.734a.367.367 0 0 0-.367-.367H6.234a.364.364 0 0 0-.367.367v.734c0 .207.16.368.367.368zM5.133 8.066h-.961a.183.183 0 0 0-.184.184c0 .05.024.102.067.14l1.328 1.114a.178.178 0 0 0 .234 0L6.945 8.39a.18.18 0 0 0 .02-.258c-.027-.043-.078-.067-.137-.067h-.96v-3.3a.364.364 0 0 0-.368-.368.364.364 0 0 0-.367.368zm0 0"/></svg>