<svg xmlns="http://www.w3.org/2000/svg" width="11" height="11"><path style="stroke:none;fill-rule:nonzero;fill:#000;fill-opacity:1" d="M7.7 8.066c0-.808-.657-1.464-1.466-1.464-.812 0-1.468.656-1.468 1.464H.367a.367.367 0 1 1 0-.734H2.2A1.465 1.465 0 0 1 .734 5.867V3.875c0-.75.567-1.383 1.317-1.457a38.023 38.023 0 0 1 3.816-.219c1.125 0 2.399.074 3.817.219A1.466 1.466 0 0 1 11 3.875v2.727c0 .808-.656 1.464-1.465 1.464zM4.034 5.133c.2 0 .363-.164.363-.367v-.73a.366.366 0 0 0-.363-.368H2.566a.367.367 0 0 0-.367.367v.73c0 .204.164.368.367.368zm5.133 0a.367.367 0 0 0 .367-.367v-.73a.367.367 0 0 0-.367-.368H6.234a.367.367 0 0 0-.367.367v.73c0 .204.164.368.367.368zM6.234 9.168a1.103 1.103 0 0 1 0-2.203 1.102 1.102 0 0 1 0 2.203zm0 0"/></svg>