<svg xmlns="http://www.w3.org/2000/svg" width="11" height="11"><path style="stroke:none;fill-rule:nonzero;fill:#000;fill-opacity:1" d="M3.836 2.836A.979.979 0 1 0 3.84.879a.979.979 0 0 0-.004 1.957zM.219 8.176c.222 0 .453-.051.648-.14a1.579 1.579 0 0 1 1.34 0 1.594 1.594 0 0 0 1.305 0 1.597 1.597 0 0 1 1.34 0 1.558 1.558 0 0 0 1.296 0c.207-.095.434-.15.672-.15.239 0 .465.055.668.15a1.59 1.59 0 0 0 1.305 0 1.579 1.579 0 0 1 1.246-.04c.293-.316.473-.742.473-1.203 0-.984-.797-1.781-1.785-1.781l-.2.023c-.218.887-1.109.926-1.109.926H3.344l-.34-.203.82-1.375.899.52c.539.347.82-.141.82-.141l.902-1.465c.39-.64-.441-1.149-.832-.508l-.629 1.027-1.5-.828c-1.039-.578-1.48.38-1.48.38L.824 5.382c-.199.418-.02.597-.02.597H.22v2.2zM10.78 10.12c-.23 0-.453-.05-.648-.14a1.579 1.579 0 0 0-1.34 0 1.59 1.59 0 0 1-1.305 0 1.59 1.59 0 0 0-.668-.145c-.238 0-.465.055-.672.148a1.558 1.558 0 0 1-1.297 0 1.597 1.597 0 0 0-1.34 0 1.558 1.558 0 0 1-1.296 0 1.608 1.608 0 0 0-1.34.004c-.2.086-.418.14-.648.14v-.972c.23 0 .453-.05.648-.14a1.555 1.555 0 0 1 1.34.004c.195.085.418.14.652.14.23 0 .453-.055.649-.14a1.597 1.597 0 0 1 1.34 0 1.572 1.572 0 0 0 1.296 0c.207-.094.434-.149.672-.149.239 0 .465.055.668.152.2.086.422.141.653.141.23 0 .453-.055.652-.14a1.579 1.579 0 0 1 1.34 0c.195.09.418.14.648.14v.973zm0 0"/></svg>