<svg xmlns="http://www.w3.org/2000/svg" width="11" height="11"><path style="stroke:none;fill-rule:nonzero;fill:#000;fill-opacity:1" d="M3.836 2.836a.978.978 0 1 0 0-1.957.98.98 0 0 0-.98.976c0 .54.44.98.98.98zM.219 8.176c.222 0 .453-.051.648-.14a1.579 1.579 0 0 1 1.34 0 1.59 1.59 0 0 0 1.305 0 1.579 1.579 0 0 1 1.34 0 1.558 1.558 0 0 0 1.296 0c.207-.095.434-.15.672-.15.239 0 .465.055.668.15a1.59 1.59 0 0 0 1.305 0 1.579 1.579 0 0 1 1.25-.04 1.78 1.78 0 0 0-1.316-2.984l-.2.023c-.218.887-1.109.926-1.109.926l-4.074-.004-.34-.2.82-1.374.899.52c.539.347.82-.141.82-.141l.902-1.465c.39-.637-.441-1.149-.828-.512l-.633 1.031-1.5-.828c-1.039-.578-1.48.38-1.48.38l-1.18 2.01c-.199.419-.02.599-.02.599H.22zM10.78 10.12c-.23 0-.453-.05-.648-.14a1.579 1.579 0 0 0-1.34 0 1.59 1.59 0 0 1-1.305 0 1.592 1.592 0 0 0-1.34 0 1.558 1.558 0 0 1-1.296 0 1.579 1.579 0 0 0-1.34 0 1.59 1.59 0 0 1-1.305 0 1.579 1.579 0 0 0-1.336 0c-.2.09-.422.14-.652.14v-.973c.23 0 .453-.05.652-.14a1.579 1.579 0 0 1 1.336 0 1.59 1.59 0 0 0 1.305 0 1.579 1.579 0 0 1 1.34 0 1.558 1.558 0 0 0 1.297 0 1.592 1.592 0 0 1 1.34 0 1.59 1.59 0 0 0 1.305 0 1.579 1.579 0 0 1 1.339 0c.195.086.418.14.648.14zm0 0"/></svg>