<svg xmlns="http://www.w3.org/2000/svg" width="11" height="11"><path d="M9.535.734c.84.243 1.43.973 1.465 2.2.023.652-.11 1.464-.277 2.296l-.133.622-.266 1.203c-.02.093-.035.183-.058.277-.47 1.887-1.399 2.867-2.786 2.934h-.148l-4.238.527a5.346 5.346 0 0 1-2.887-.43L0 10.266V.734l.426.293C1.848 2.055 2.69 2.934 2.934 3.668l.242.719.152.43.098.242c.25.601.469.859.93 1.128l.19.114.212.11.375.19c1.469.731 2.199.731 2.933-.734L9.07 3.855A1.428 1.428 0 0 0 8.8 2.2l-.214-.21a.307.307 0 0 0-.43 0 .283.283 0 0 0-.09.21v.215c0 .336-.132.652-.367.887a.422.422 0 0 1-.601 0 .751.751 0 0 1-.051-.067l-.445-.668a.998.998 0 0 1 .277-1.386c.082-.051.176-.094.27-.125C8.315.719 9.108.617 9.534.735Zm-2.27 3.301c.048.035.067.094.067.152v.579c0 .207-.16.367-.367.367a.361.361 0 0 1-.363-.367v-.211c0-.102.035-.192.109-.266l.254-.254a.215.215 0 0 1 .3 0ZM5.5 2.72c.094 0 .191.039.258.105l.586.586c.14.14.14.375 0 .512l-.367.367a.357.357 0 0 1-.266.11H5.5a.361.361 0 0 1-.367-.364v-.95c0-.202.16-.366.367-.366Zm0 0" style="stroke:none;fill-rule:nonzero;fill:#000;fill-opacity:1"/></svg>