<svg xmlns="http://www.w3.org/2000/svg" width="11" height="11"><path style="stroke:none;fill-rule:nonzero;fill:#000;fill-opacity:1" d="M9.535.734c.844.239 1.43.973 1.465 2.2.02.652-.113 1.468-.281 2.296l-.133.622-.262 1.199-.058.281c-.473 1.89-1.399 2.867-2.782 2.93l-.152.004-4.238.53a5.422 5.422 0 0 1-2.887-.433L0 10.266V.734l.426.297c1.426 1.02 2.261 1.899 2.508 2.637l.242.719.152.433.098.242c.246.598.465.852.93 1.13l.187.105.215.113.375.192c1.469.73 2.199.73 2.933-.735L9.07 3.86A1.439 1.439 0 0 0 8.8 2.2l-.214-.215a.305.305 0 0 0-.52.215v.215c0 .332-.132.652-.367.887a.43.43 0 0 1-.601 0c-.02-.02-.035-.043-.051-.067l-.445-.668a.995.995 0 0 1 .55-1.511C8.316.719 9.113.613 9.535.735zM7.27 4.035c.043.04.062.094.062.149v.582a.366.366 0 1 1-.73 0V4.55c0-.098.035-.188.105-.258l.258-.258a.212.212 0 0 1 .305 0zM5.5 2.72c.098 0 .191.039.258.105l.582.582a.365.365 0 0 1 0 .52l-.367.367a.35.35 0 0 1-.258.105H5.5a.366.366 0 0 1-.367-.363v-.95c0-.202.164-.366.367-.366zm0 0"/></svg>