<svg xmlns="http://www.w3.org/2000/svg" width="11" height="11"><path style="stroke:none;fill-rule:nonzero;fill:#000;fill-opacity:1" d="M10.512 2.613c-.153-.117-.559-.215-.86-.285l-.414-.055v-.996h.211c.2.098.485.262.496.485h.793c-.011-.442-.347-.719-.644-.942-.2-.144-.414-.222-.856-.27V0h-.437v.535c-.442.04-.582.149-.781.328-.262.235-.375.528-.375.883 0 .387.109.672.375.852.148.105.34.199.78.289v1.078c-.222-.04-.222-.031-.3-.121-.074-.09-.094-.324-.117-.324h-.79c0 .44.122.652.419.886.215.168.347.2.789.242v.41h.437v-.402c.442-.043.817-.156 1.032-.34.277-.238.507-.535.507-.894 0-.352-.03-.621-.265-.809zM8.582 2c-.125-.07-.176-.176-.176-.316 0-.153.043-.274.172-.36.07-.043 0-.078.223-.097v.867c-.223-.035-.168-.067-.219-.094zm.957 1.941c-.035.012-.3.024-.3.032v-.914c.44.035.406.078.48.12a.34.34 0 0 1 .172.305c0 .223-.118.375-.352.457zm-1.066 2.66h-.121L7 4.153a.408.408 0 0 0-.324-.191H2.574a.415.415 0 0 0-.328.191L.895 6.602H.773c-.242 0-.554.195-.554.437v2.2c0 .241.312.44.554.44h.329v.66c0 .364.41.661.773.661h.219c.363 0 .547-.297.547-.66v-.66h3.738v.66c0 .363.414.66.777.66h.219c.363 0 .547-.297.547-.66v-.66h.55c.243 0 .329-.2.329-.442V7.04c0-.242-.086-.437-.328-.437zM1.543 8.36a.55.55 0 1 1 .005-1.098.55.55 0 0 1-.005 1.098zm.441-1.757.891-1.786a.39.39 0 0 1 .32-.195h2.86c.12 0 .265.086.316.195l.895 1.786zm5.72 1.757a.55.55 0 1 1 .004-1.098.55.55 0 0 1-.005 1.098zm0 0"/></svg>