<svg xmlns="http://www.w3.org/2000/svg" width="11" height="11"><path d="M8.066 3.668c.403 0 .735.328.735.73v2.204h-.735v.73a.734.734 0 1 1-1.464 0v-.73H4.398v.73a.733.733 0 1 1-1.464 0v-.73h-.735V4.398c0-.402.332-.73.735-.73l.652-1.953a.374.374 0 0 1 .344-.25h3.14c.153 0 .293.105.344.25Zm-4.398 2.2a.735.735 0 0 0 0-1.47.736.736 0 0 0-.734.735c0 .402.328.734.734.734Zm0-2.2h3.664l-.453-1.469H4.12Zm3.664 2.2a.736.736 0 0 0 .734-.735.736.736 0 0 0-.734-.735.735.735 0 0 0 0 1.47ZM8.434 8.8l-.368-.735h1.47l.73 1.47H.734l.73-1.47h1.47l-.368.735Zm0 0" style="stroke:none;fill-rule:nonzero;fill:#000;fill-opacity:1"/></svg>