<svg xmlns="http://www.w3.org/2000/svg" width="11" height="11"><path style="stroke:none;fill-rule:nonzero;fill:#000;fill-opacity:1" d="M8.066 3.668c.407 0 .735.328.735.73v2.204h-.735v.73a.734.734 0 1 1-1.464 0v-.73H4.398v.73a.733.733 0 1 1-1.464 0v-.73h-.735V4.398c0-.402.328-.73.735-.73l.652-1.953a.37.37 0 0 1 .344-.25h3.14a.37.37 0 0 1 .344.25zm-4.398 2.2c.402 0 .73-.329.73-.735a.733.733 0 1 0-1.464 0c0 .406.328.734.734.734zm0-2.2h3.664l-.453-1.469H4.12zm3.664 2.2A.734.734 0 1 0 7.334 4.4a.734.734 0 0 0-.002 1.467zM8.434 8.8l-.368-.735h1.47l.73 1.47H.734l.73-1.47h1.47l-.368.735zm0 0"/></svg>