<svg xmlns="http://www.w3.org/2000/svg" width="11" height="11"><path style="stroke:none;fill-rule:nonzero;fill:#000;fill-opacity:1" d="M9.46 1.32V.441H1.54v.88H0v9.46h.879V2.2h.66v.88h7.922v-.88h.66v8.582H11v-9.46zM9.25 6.38 7.816 3.934a.402.402 0 0 0-.32-.192H3.504a.384.384 0 0 0-.317.196L1.75 6.383c-.234 0-.43.199-.43.441v2.2c0 .242.196.44.43.44h.453v.661c0 .363.266.66.621.66h.215c.352 0 .707-.297.707-.66v-.66h3.52v.66c0 .363.351.66.703.66h.218c.352 0 .618-.297.618-.66v-.66h.453c.234 0 .43-.2.43-.442V6.824a.439.439 0 0 0-.43-.441zM2.5 8.14a.545.545 0 0 1-.54-.551c0-.305.243-.55.54-.55.297 0 .535.245.535.55 0 .305-.238.55-.535.55zm.32-1.762.977-1.781c.055-.11.195-.2.308-.2h2.79c.117 0 .257.09.308.2l.98 1.78zM8.5 8.14a.544.544 0 0 1-.535-.551c0-.305.238-.55.535-.55.297 0 .54.245.54.55 0 .305-.243.55-.54.55zm0 0"/></svg>