<svg xmlns="http://www.w3.org/2000/svg" width="11" height="11"><path style="stroke:none;fill-rule:nonzero;fill:#000;fill-opacity:1" d="M5.133 5.5h3.484l-.77-4.035H3.153L2.382 5.5zm2.933-.367H5.867v-.735c0-.402.328-.73.735-.73h.73c.406 0 .734.328.734.73zm-2.933 0h-2.2v-.735c0-.402.329-.73.735-.73h.73c.407 0 .735.328.735.73zM6.965 3.3a.735.735 0 0 1 0-1.469c.406 0 .734.332.734.734a.736.736 0 0 1-.734.735zm-2.93 0a.736.736 0 0 1-.734-.735c0-.402.328-.734.734-.734a.735.735 0 0 1 0 1.469zm6.23 3.3v2.567h-.73v.73a.736.736 0 0 1-.734.735.736.736 0 0 1-.735-.735v-.73H2.934v.73a.736.736 0 0 1-.735.735.736.736 0 0 1-.734-.735v-.73h-.73V6.602c0-.508.35-.954.843-1.07L2.61.936a.354.354 0 0 1 .325-.203h5.132a.36.36 0 0 1 .336.227l1.02 4.574c.492.117.844.559.844 1.067zM2.2 8.067a.736.736 0 0 0 .735-.734.735.735 0 0 0-1.47 0c0 .406.333.734.735.734zm6.602 0a.736.736 0 0 0 .734-.734.735.735 0 0 0-1.469 0c0 .406.332.734.735.734zm0 0"/></svg>