<svg xmlns="http://www.w3.org/2000/svg" width="11" height="11"><path d="M10.512 2.613c-.153-.117-.559-.215-.86-.285l-.414-.055v-.996h.215c.195.102.48.262.496.485h.793c-.015-.442-.351-.719-.648-.938-.2-.148-.414-.226-.856-.273V0h-.437v.531c-.442.043-.582.153-.781.332-.262.23-.375.528-.375.88 0 .386.109.671.375.855.148.101.34.199.777.285V3.96c-.219-.04-.219-.031-.297-.121-.074-.09-.094-.32-.121-.32h-.785c0 .437.117.648.418.886.215.168.347.2.789.242v.41h.437v-.402c.442-.043.817-.156 1.032-.34.28-.238.507-.535.507-.898 0-.352-.027-.621-.261-.805ZM8.586 2c-.129-.07-.18-.176-.18-.316 0-.157.043-.274.172-.36.067-.043 0-.078.219-.097v.867c-.219-.035-.168-.067-.215-.09Zm.953 1.941c-.039.012-.3.02-.3.032v-.918c.44.035.41.078.48.12.117.071.172.177.172.305 0 .223-.118.375-.352.461ZM8.473 6.598h-.121L7.004 4.152a.415.415 0 0 0-.328-.191H2.578a.415.415 0 0 0-.328.191L.898 6.602h-.12c-.243 0-.555.199-.555.441v2.2c0 .241.312.44.554.44h.328v.66c0 .364.41.66.774.66h.219c.363 0 .547-.296.547-.66v-.66h3.738v.66c0 .364.414.66.777.66h.219c.363 0 .547-.296.547-.66v-.66h.554c.243 0 .325-.199.325-.44v-2.2c0-.242-.082-.441-.325-.441Zm-6.93 1.761a.55.55 0 0 1-.547-.55.55.55 0 1 1 1.098 0 .55.55 0 0 1-.551.55Zm.441-1.761.891-1.782a.39.39 0 0 1 .32-.195h2.86a.39.39 0 0 1 .32.195l.89 1.786h-5.28Zm5.72 1.761a.55.55 0 0 1-.548-.55.55.55 0 1 1 1.098 0 .55.55 0 0 1-.55.55Zm0 0" style="stroke:none;fill-rule:nonzero;fill:#000;fill-opacity:1"/></svg>