<svg xmlns="http://www.w3.org/2000/svg" width="11" height="11"><path d="M8.066 4.398c.403 0 .735.332.735.735v2.199h-.735v.734a.736.736 0 0 1-.734.735.735.735 0 0 1-.73-.735v-.734H4.398v.734a.735.735 0 0 1-.73.735.736.736 0 0 1-.734-.735v-.734h-.735v-2.2c0-.402.332-.734.735-.734l.652-1.949a.369.369 0 0 1 .344-.25h3.14c.153 0 .293.102.344.25ZM3.668 6.602a.735.735 0 0 0 0-1.47.736.736 0 0 0-.734.735c0 .403.328.735.734.735Zm0-2.204h3.664l-.453-1.464H4.12Zm3.664 2.204a.736.736 0 0 0 .734-.735.736.736 0 0 0-.734-.734.735.735 0 0 0 0 1.469Zm1.102 2.933-.368-.734h1.47l.73 1.465H.734l.73-1.465h1.47l-.368.734Zm0-8.07H2.566l.368.734h-1.47L.735.734h9.532L9.536 2.2h-1.47Zm0 0" style="stroke:none;fill-rule:nonzero;fill:#000;fill-opacity:1"/></svg>