<svg xmlns="http://www.w3.org/2000/svg" width="11" height="11"><path style="stroke:none;fill-rule:nonzero;fill:#000;fill-opacity:1" d="M9.46 1.32V.441H1.54v.88H0v9.46h.879V2.2h.66v.88h7.922v-.88h.66v8.582H11v-9.46zM9.25 6.38 7.816 3.934a.406.406 0 0 0-.32-.196H3.504a.406.406 0 0 0-.32.196L1.75 6.379c-.238 0-.43.2-.43.441v2.2c0 .242.192.44.43.44h.45v.661c0 .363.269.66.62.66h.215c.352 0 .703-.297.703-.66v-.66h3.524v.66c0 .363.351.66.703.66h.215c.351 0 .62-.297.62-.66v-.66h.45c.238 0 .43-.2.43-.441v-2.2a.436.436 0 0 0-.43-.441zM2.5 8.14a.542.542 0 0 1-.535-.551c0-.305.238-.55.535-.55.297 0 .535.245.535.55 0 .305-.238.55-.535.55zm.32-1.762.977-1.781c.05-.11.191-.2.308-.2h2.79c.117 0 .257.09.308.2l.977 1.78zM8.5 8.14a.544.544 0 0 1-.535-.551c0-.305.242-.55.535-.55.297 0 .54.245.54.55 0 .305-.243.55-.54.55zm0 0"/></svg>