<svg xmlns="http://www.w3.org/2000/svg" width="11" height="11"><path style="stroke:none;fill-rule:nonzero;fill:#000;fill-opacity:1" d="M8.066 4.398c.407 0 .735.329.735.735v2.199h-.735v.734a.734.734 0 1 1-1.464 0v-.734H4.398v.734a.733.733 0 1 1-1.464 0v-.734h-.735v-2.2c0-.405.328-.734.735-.734l.652-1.949a.37.37 0 0 1 .344-.25h3.14a.37.37 0 0 1 .344.25zM3.668 6.602c.402 0 .73-.329.73-.735a.733.733 0 1 0-1.464 0c0 .406.328.735.734.735zm0-2.204h3.664l-.453-1.464H4.12zm3.664 2.204a.734.734 0 1 0 .002-1.467.734.734 0 0 0-.002 1.467zm1.102 2.933-.368-.734h1.47l.73 1.465H.734l.73-1.465h1.47l-.368.734zm0-8.07H2.566l.368.734h-1.47L.735.734h9.532L9.536 2.2h-1.47zm0 0"/></svg>