<svg xmlns="http://www.w3.org/2000/svg" width="11" height="11"><path style="stroke:none;fill-rule:nonzero;fill:#000;fill-opacity:1" d="M8.066 5.867c.407 0 .735.328.735.735V8.8h-.735v.734a.733.733 0 0 1-1.464 0v-.734H4.398v.734a.732.732 0 0 1-1.464 0v-.734h-.735V6.6c0-.406.328-.734.735-.734l.652-1.953a.367.367 0 0 1 .344-.246h3.14c.157 0 .293.102.344.246zm-4.398 2.2A.733.733 0 1 0 3.664 6.6a.733.733 0 0 0 .004 1.465zm0-2.2h3.664l-.453-1.469H4.12zm3.664 2.2a.734.734 0 1 0 .002-1.468.734.734 0 0 0-.002 1.467zM1.465 3.968v6.297H0v-7.27L5.5.672 11 2.996v7.27H9.535V3.969L5.5 2.262zm0 0"/></svg>