<svg xmlns="http://www.w3.org/2000/svg" width="11" height="11"><path style="stroke:none;fill-rule:nonzero;fill:#000;fill-opacity:1" d="M4.793 1.52 4.477.887a.725.725 0 0 1-.079-.328V.367c0-.203.165-.367.368-.367h1.468c.204 0 .368.164.368.367V.56a.725.725 0 0 1-.079.328l-.316.633a4.766 4.766 0 0 1 4.004 3.98H.789a4.766 4.766 0 0 1 4.004-3.98zM.551 5.867h9.898a.55.55 0 1 1 0 1.098H.551a.55.55 0 1 1 0-1.098zm6.543 4.031H4.195a.732.732 0 0 0-.695.5L3.3 11H.735l1.559-2.598a2.2 2.2 0 0 1 1.887-1.07h2.605a.55.55 0 0 1 0 1.102H4.582a.183.183 0 0 0-.184.183c0 .098.082.18.184.18h2.75l1.102-1.098a.519.519 0 1 1 .734.735l-1.04 1.035a1.47 1.47 0 0 1-1.034.43zm0 0"/></svg>