<svg xmlns="http://www.w3.org/2000/svg" width="11" height="11"><path d="M4.797 1.52 4.48.887a.729.729 0 0 1-.082-.328V.367c0-.207.165-.367.368-.367h1.468c.204 0 .368.16.368.367V.56a.729.729 0 0 1-.082.328l-.317.633a4.757 4.757 0 0 1 4.004 3.98H.793a4.757 4.757 0 0 1 4.004-3.98ZM.55 5.867h9.898c.301 0 .551.25.551.551 0 .3-.25.547-.55.547H.55c-.3 0-.55-.246-.55-.547 0-.3.25-.55.55-.55ZM7.09 9.898H4.195a.74.74 0 0 0-.699.5L3.301 11H.734l1.563-2.598a2.184 2.184 0 0 1 1.883-1.07h2.605a.552.552 0 0 1 0 1.102H4.582a.183.183 0 1 0 0 .367h2.75l1.102-1.102a.519.519 0 1 1 .734.735L8.133 9.469c-.278.277-.653.43-1.043.43Zm0 0" style="stroke:none;fill-rule:nonzero;fill:#000;fill-opacity:1"/></svg>