<svg xmlns="http://www.w3.org/2000/svg" width="11" height="11"><path style="stroke:none;fill-rule:nonzero;fill:#000;fill-opacity:1" d="M4.215 7.7H.496a.53.53 0 0 1-.387-.223l-.011-.012A.552.552 0 0 1 0 7.148V7.11c0-.004.004-.007.004-.011a.502.502 0 0 1 .074-.227l1.82-3.281a.549.549 0 0 1 .969 0L4.54 6.602h5.91a.55.55 0 1 1 0 1.097H4.215zM3.28 6.601l-.898-1.618-.899 1.618zM8.133 3.59s0-.004.004-.008a.546.546 0 0 1 .746-.21c.097.05.172.128.219.218l1.828 3.293a.55.55 0 0 1-.211.75.556.556 0 0 1-.75-.215L8.617 4.984 7.266 7.418a.556.556 0 0 1-.75.215.556.556 0 0 1-.215-.75zm0 0"/></svg>