<svg xmlns="http://www.w3.org/2000/svg" width="11" height="11"><path d="M9.371 8.176a.753.753 0 0 0 .488-.961l-.293.094c.082.238-.05.5-.293.578L1.57 10.492l.098.29Zm-7.098-4.5a.797.797 0 0 0 .543-.985.801.801 0 0 0-.992-.539.79.79 0 0 0-.543.985.796.796 0 0 0 .992.539Zm-.328 1.101c-.422-.8.79-1.445 1.235-.672l.87 1.641 1.653-.469c.274-.078.652.22.652.567l.008 2.34c.004.578-.863.578-.863-.008-.004-.543-.02-1.7-.02-1.7l-1.726.516a.705.705 0 0 1-.836-.355Zm2.672.368V.219H4.18v5.023Zm-3.465.695c-.238-.465.375-.77.614-.309l.746 1.453c.164.301.48.508.843.508.118 0 .223-.031.329-.05l.941-.274c.5-.148.691.504.188.652l-.989.285a1.642 1.642 0 0 1-1.934-.812l-.738-1.45Zm0 0" style="stroke:none;fill-rule:nonzero;fill:#000;fill-opacity:1"/></svg>