<svg xmlns="http://www.w3.org/2000/svg" width="11" height="11"><path style="stroke:none;fill-rule:nonzero;fill:#000;fill-opacity:1" d="M9.371 8.176a.753.753 0 0 0 .488-.961l-.293.094c.082.238-.05.5-.293.578l-7.707 2.605.102.29zm-7.094-4.5a.791.791 0 0 0 .54-.985.801.801 0 0 0-.993-.539.792.792 0 0 0-.543.985c.125.422.567.66.996.539zM1.95 4.777c-.422-.797.79-1.445 1.235-.672l.867 1.641 1.656-.469c.273-.074.652.22.652.57l.008 2.337c.004.578-.863.578-.863-.008-.004-.543-.02-1.7-.02-1.7l-1.726.512a.701.701 0 0 1-.836-.355zm2.672.371V.218H4.18v5.024zm-3.469.692c-.234-.461.375-.77.614-.305l.75 1.45c.16.3.476.503.843.503.114 0 .22-.027.325-.047l.941-.277c.5-.148.695.508.191.652l-.992.286a1.636 1.636 0 0 1-1.93-.812zm0 0"/></svg>