<svg xmlns="http://www.w3.org/2000/svg" width="11" height="11"><path style="stroke:none;fill-rule:nonzero;fill:#000;fill-opacity:1" d="m1.875 3.078-.613.399c.265.988.597 1.793 1 2.41.5.77 1.3 1.558 2.41 2.37l-.617.4c-1.106-.813-1.91-1.602-2.407-2.372-.5-.765-.894-1.824-1.187-3.164L4.156.723l.399-.258A.733.733 0 0 1 5.656.87c.227.754.469 1.39.727 1.902.36.72 1.023 1.743 1.996 3.079l-3.09 2.003c-1.11-.808-1.914-1.597-2.414-2.367-.398-.617-.734-1.422-1-2.41zm2.219-1.441a.733.733 0 1 0 .797 1.23.733.733 0 0 0-.797-1.23zm4.465 4.531 1.8 2.77a1.101 1.101 0 0 1-.324 1.519 1.093 1.093 0 0 1-1.515-.32v-.004l-.2-.309a1.322 1.322 0 0 0-.035-1.39l-.953-1.465zm0 0"/></svg>