<svg xmlns="http://www.w3.org/2000/svg" width="11" height="11"><path style="stroke:none;fill-rule:nonzero;fill:#000;fill-opacity:1" d="M1.465.734H2.75a.37.37 0 0 1 .293.145l2.09 2.789-.735 3.664 2.204 1.469L7.199 10a.178.178 0 0 1-.082.246.142.142 0 0 1-.082.02h-5.57a.732.732 0 0 1-.73-.73V1.464c0-.403.328-.73.73-.73zm5.45 2.954 1.651.546c.11.04.196.125.23.235l.56 1.676a.364.364 0 0 1-.231.464l-1.707.57a.37.37 0 0 1-.281-.019L6.07 6.625a.363.363 0 0 1-.191-.418l.566-2.262a.364.364 0 0 1 .442-.27.19.19 0 0 1 .027.013zm1.151 5.355v-.875c0-.14.079-.266.204-.328l.988-.496a.375.375 0 0 1 .46.11l.684.91a.371.371 0 0 1-.074.515c-.008.004-.012.008-.015.012l-.688.457a.364.364 0 0 1-.203.058h-.988a.366.366 0 0 1-.368-.363zm0 0"/></svg>