<svg xmlns="http://www.w3.org/2000/svg" width="11" height="11"><path d="M1.465.734H2.75c.117 0 .227.051.293.145l2.09 2.789-.735 3.664 2.204 1.469.601 1.203c.043.086.004.195-.082.242a.247.247 0 0 1-.082.02H1.465a.732.732 0 0 1-.73-.73V1.464c0-.403.328-.73.73-.73Zm5.45 2.954 1.651.55c.11.035.196.117.235.227l.554 1.68a.356.356 0 0 1-.234.46l-1.707.575a.362.362 0 0 1-.277-.024L6.07 6.621a.367.367 0 0 1-.195-.41l.57-2.266c.043-.199.25-.316.442-.265.015 0 .02 0 .027.007Zm1.151 5.355v-.875c0-.137.082-.262.207-.328l.989-.492a.362.362 0 0 1 .453.101l.683.918a.36.36 0 0 1-.074.512s-.008.008-.011.008l-.684.465a.436.436 0 0 1-.207.058h-.988a.364.364 0 0 1-.368-.367Zm0 0" style="stroke:none;fill-rule:nonzero;fill:#000;fill-opacity:1"/></svg>