<svg xmlns="http://www.w3.org/2000/svg" width="11" height="11"><path style="stroke:none;fill-rule:nonzero;fill:#000;fill-opacity:1" d="M1.414 4.742a1.228 1.228 0 0 0-.101.32 1.329 1.329 0 0 0-.012.176l.043 2.668-.926 1.985a.6.6 0 1 0 1.055.578l1.02-2.172c.019-.05.038-.102.046-.16l.004-.082-.008-1.649 1.567.68.25 1.61a.603.603 0 0 0 1.188-.203l-.31-1.946a.607.607 0 0 0-.335-.43l-1.399-.62.89-1.544.442.559c.043.05.102.093.168.12l1.684.49a.473.473 0 0 0 .277-.9l-.023-.007-1.461-.43L4.37 2.47a1.097 1.097 0 0 0-1.734.168zm4.828 3.824-.105.797-2.895.703.028.493h7.058c.25 0 .453-.2.453-.45L10.773.637 9.805.41 9.25 2.902l-.93.387-.824 2.297.781 1.758-.218.676zm-1.965-6.55a.899.899 0 0 0 0-1.797.902.902 0 0 0-.902.898.9.9 0 0 0 .902.899zm-1.793.14a.261.261 0 0 0-.097-.351l-.434-.254a.266.266 0 0 0-.355.097L.254 3.957a.257.257 0 0 0 .094.352l.441.25c.121.07.277.027.348-.094zm0 0"/></svg>