<svg xmlns="http://www.w3.org/2000/svg" width="11" height="11"><path style="stroke:none;fill-rule:nonzero;fill:#000;fill-opacity:1" d="M1.414 4.742a1.228 1.228 0 0 0-.101.32 1.329 1.329 0 0 0-.012.176l.043 2.668-.926 1.985a.6.6 0 1 0 1.055.578l1.02-2.172a.543.543 0 0 0 .046-.16l.008-.082-.008-1.649 1.563.68.253 1.613c.051.235.247.426.497.465a.607.607 0 0 0 .691-.668l-.309-1.945a.617.617 0 0 0-.336-.43L3.5 5.504l.89-1.543.442.559a.48.48 0 0 0 .172.117l1.684.492a.475.475 0 0 0 .277-.902l-.024-.008-1.46-.43-1.102-1.312a1.088 1.088 0 0 0-1.73.164L1.421 4.746zm4.828 3.824-.105.797-2.895.703.028.493h7.058c.25 0 .453-.2.453-.45L10.773.637 9.805.41 9.25 2.902l-.93.391-.824 2.297.785 1.758-.219.672zM4.277 2.012a.901.901 0 0 0 .903-.895.901.901 0 0 0-1.8 0c-.001.492.401.895.897.895zm-1.793.14a.259.259 0 0 0-.093-.347l-.438-.254a.268.268 0 0 0-.355.094L.254 3.957a.257.257 0 0 0 .098.348l.437.25c.121.07.277.03.348-.09L2.48 2.152zm0 0"/></svg>