<svg xmlns="http://www.w3.org/2000/svg" width="11" height="11"><path style="stroke:none;fill-rule:nonzero;fill:#000;fill-opacity:1" d="M7.984 3.309c.32.054.207-.016.38.144a.364.364 0 0 1-.083.512c-.324.23-.324.23-1.285.918-.96.687-.96.687-1.281.914a.368.368 0 0 1-.402.02c-.27-.165-.098-.06-.516-.313-.442-.262-.879-.527-1.32-.79a.368.368 0 0 1 .378-.628c.266.16.094.059.516.309.906.543.535.32 1.11.668.363-.262.726-.52 1.09-.778.96-.687.96-.687 1.28-.918zM5.5 1.102a4.398 4.398 0 1 1 0 8.796 4.398 4.398 0 1 1 0-8.796zM5.5 0C2.46 0 0 2.46 0 5.5S2.46 11 5.5 11 11 8.54 11 5.5 8.54 0 5.5 0zm0 0"/></svg>