<svg xmlns="http://www.w3.org/2000/svg" width="11" height="11"><path style="stroke:none;fill-rule:nonzero;fill:#000;fill-opacity:1" d="M7.984 3.309c.325.058.207-.016.383.144a.37.37 0 0 1-.086.516c-.324.226-.324.226-1.285.914-.96.683-.96.683-1.285.918a.383.383 0 0 1-.402.015c-.262-.164-.094-.058-.512-.308-.442-.266-.883-.528-1.32-.793a.374.374 0 0 1-.125-.504.367.367 0 0 1 .503-.125l.516.309c.91.539.535.32 1.113.664.36-.254.727-.512 1.086-.778.961-.68.961-.68 1.285-.914zM5.5 1.102A4.403 4.403 0 0 1 9.898 5.5 4.403 4.403 0 0 1 5.5 9.898 4.403 4.403 0 0 1 1.102 5.5 4.403 4.403 0 0 1 5.5 1.102zM5.5 0A5.503 5.503 0 0 0 0 5.5C0 8.535 2.465 11 5.5 11S11 8.535 11 5.5 8.535 0 5.5 0zm0 0"/></svg>