<svg xmlns="http://www.w3.org/2000/svg" width="11" height="11"><path d="M10.117 1.5C6.523 1.473 5.75.535 4.22.535c-1.82 0-2.887.5-3.348.781-.34.184-.258-.168-.258-.289 0-.125.2-.246.2-.246.421-.27 1.503-.816 3.406-.816 1.531 0 2.312.941 5.918.965 0 0 .273-.028.273.218 0 .247-.015.352-.293.352ZM10.41 10.61c0-.243-.273-.215-.273-.215-3.606-.028-4.387-.97-5.918-.97-1.903 0-2.985.548-3.407.821 0 0-.199.121-.199.242s-.082.473.258.29c.461-.278 1.527-.782 3.348-.782 1.531 0 2.304.941 5.898.969.278 0 .293-.11.293-.356Zm0 0" style="stroke:none;fill-rule:nonzero;fill:#000;fill-opacity:1"/><path d="M10.41 2.316c0-.246-.273-.218-.273-.218-3.606-.024-4.387-.965-5.918-.965-1.903 0-2.985.547-3.407.82 0 0-.199.117-.199.242v7.11c0 .125-.082.476.258.293.461-.282 1.527-.782 3.348-.782 1.531 0 2.304.938 5.898.965.278 0 .293-.105.293-.351Zm0 0" style="stroke:none;fill-rule:nonzero;fill:#000;fill-opacity:1"/></svg>