<svg xmlns="http://www.w3.org/2000/svg" width="11" height="11"><path style="stroke:none;fill-rule:nonzero;fill:#000;fill-opacity:1" d="M4.047 1.89a.555.555 0 0 1-.07-.777.559.559 0 0 1 .777-.07l2.2 1.836a.552.552 0 0 1 0 .844l-2.2 1.832a.552.552 0 0 1-.707-.844L5.742 3.3zM2.809 3.3 1.113 1.89a.559.559 0 0 1-.07-.777.559.559 0 0 1 .777-.07l2.2 1.836a.552.552 0 0 1 0 .844l-2.2 1.832a.552.552 0 0 1-.777-.07.554.554 0 0 1 .07-.774zm5.867 0L6.98 1.89a.552.552 0 0 1 .704-.847l2.203 1.836a.552.552 0 0 1 0 .844L7.684 5.555a.547.547 0 0 1-.774-.07.547.547 0 0 1 .07-.774zM2.199 8.067a.734.734 0 1 1 .002 1.467.734.734 0 0 1-.002-1.467zm2.2 0A.734.734 0 1 1 4.4 9.533a.734.734 0 0 1-.002-1.467zm2.203 0a.735.735 0 0 1 0 1.469.734.734 0 1 1 0-1.469zm2.199 0c.402 0 .734.329.734.735a.739.739 0 0 1-.734.734.734.734 0 1 1 0-1.469zm-6.602-.734a1.466 1.466 0 0 0 0 2.934h6.602a1.466 1.466 0 0 0 0-2.934zm0-.73h6.602A2.199 2.199 0 1 1 8.8 11H2.199a2.199 2.199 0 1 1 0-4.398zm0 0"/></svg>