<svg xmlns="http://www.w3.org/2000/svg" width="11" height="11"><path d="M8.8.734c-1.468 3.664 1.466 8.067 1.466 9.532-.73.734-8.801.734-9.532 0C.734 8.8 3.668 4.398 2.2.734 2.2 0 8.801 0 8.801.734Zm-2.788 6.73c-.344.266-.68.266-1.024 0L3.961 9.263c1.027.36 2.05.36 3.078 0ZM5.5 6.205c-.258 0-.512.265-.512.534 0 .274.254.543.512.543s.512-.27.512-.543c0-.27-.254-.535-.512-.535ZM4.305 4.397c-1.028.543-1.371 1.262-1.371 2.34H4.64c0-.27.175-.629.515-.804Zm2.39 0-.851 1.536c.34.175.515.535.515.804h1.707c0-1.078-.343-1.797-1.37-2.34Zm0 0" style="stroke:none;fill-rule:nonzero;fill:#000;fill-opacity:1"/></svg>