<svg xmlns="http://www.w3.org/2000/svg" width="11" height="11"><path style="stroke:none;fill-rule:nonzero;fill:#000;fill-opacity:1" d="M2.2 0h6.6c-.488.977-.734 1.71-.734 2.2v1.468c0 2.2 2.2 5.133 2.2 7.332H.734c0-2.2 2.2-5.133 2.2-7.332V2.199c0-.488-.247-1.222-.735-2.199zm1.792 10.055c.926.558 2.09.558 3.016 0L6.16 8.64a1.29 1.29 0 0 1-1.32 0zM2.566 7.539h1.649c0-.328.129-.656.379-.906.074-.078.156-.14.246-.196l-.848-1.414A2.922 2.922 0 0 0 2.566 7.54zm5.868 0a2.922 2.922 0 0 0-1.426-2.516L6.16 6.438c.09.054.172.117.246.195.25.25.38.578.38.906zM6.02 7.02a.738.738 0 0 0-1.04 0 .738.738 0 0 0 0 1.04c.29.285.75.285 1.04 0a.738.738 0 0 0 0-1.04zm0 0"/></svg>