<svg xmlns="http://www.w3.org/2000/svg" width="11" height="11"><path style="stroke:none;fill-rule:nonzero;fill:#000;fill-opacity:1" d="M3.668 0c.375 0 .684.281.727.648l.003.086V2.2a.734.734 0 0 1 .086 1.461l-.086.008v3.664a.732.732 0 0 0 .73-.648l.005-.082V4.398a.733.733 0 0 1 1.46-.082l.009.082v.735a.733.733 0 0 1 .082 1.46l-.082.009c0 1.214-.989 2.199-2.204 2.199v.754c.348-.016.715-.02 1.102-.02.977 0 1.832.047 2.566.14v-.874H7.7a.367.367 0 0 1-.066-.727l.066-.008h.367V5.867a.734.734 0 0 1 1.461-.086l.008.086h.363a.367.367 0 0 1 .067.727l-.067.008h-.363v.73h1.098a.37.37 0 0 1 .066.73l-.066.004H9.535v.735h.363a.367.367 0 0 1 .067.726l-.067.008h-.363v.445c.082.028.164.051.246.082a.73.73 0 0 1 .485.688V11H.734v-.25a.73.73 0 0 1 .485-.688c.082-.03.168-.058.258-.085l-.012-.079v-.363h-.363a.37.37 0 0 1-.066-.73l.066-.004h.363v-.367a.37.37 0 0 1 .73-.066l.004.066v1.363c.23-.047.473-.086.735-.121V7.332a2.197 2.197 0 0 1-2.196-2.07l-.004-.13v-.734a.733.733 0 0 1-.086-1.46l.086-.004v-.735c0-.402.329-.734.73-.734.38 0 .688.285.731.648L2.2 2.2v2.934c0 .375.285.687.649.73l.086.004V.734c0-.406.328-.734.734-.734zm2.309 1.203A2.01 2.01 0 0 1 8.559.25l.117.055.86.43-.477.472a.153.153 0 0 0-.043.11.15.15 0 0 0 .152.148c.191 0 .383-.035.562-.106l.13-.058L11 .734l-.367 1.098L11 2.934l-1.14-.57a1.578 1.578 0 0 0-.692-.165.142.142 0 0 0-.11.047.15.15 0 0 0-.027.172l.028.043.476.473-.453.226a2.935 2.935 0 0 1-3.777-1.035l-.082-.133-.09-.16.734-.367.051-.133zm0 0"/></svg>