<svg xmlns="http://www.w3.org/2000/svg" width="11" height="11"><path d="M3.668 0c.371 0 .687.285.727.645l.003.09v1.464c.407 0 .735.332.735.735a.732.732 0 0 1-.645.726l-.09.008v3.664a.729.729 0 0 0 .727-.644l.008-.086V4.398c0-.402.332-.73.734-.73.375 0 .688.285.727.644l.008.086v.735c.402 0 .73.332.73.734a.732.732 0 0 1-.644.727l-.086.008A2.2 2.2 0 0 1 4.398 8.8v.754c.348-.016.715-.02 1.102-.02.977 0 1.832.05 2.566.145V8.8H7.7a.367.367 0 0 1-.066-.726l.066-.008h.367V5.867c0-.402.332-.734.735-.734.375 0 .687.285.726.644l.008.09h.363c.207 0 .368.16.368.367a.366.366 0 0 1-.301.36l-.067.008h-.363v.73h1.098c.207 0 .367.164.367.367a.362.362 0 0 1-.3.36l-.067.007H9.535v.735h.363c.207 0 .368.16.368.367a.366.366 0 0 1-.301.36l-.067.007h-.363v.445c.086.024.168.051.246.082a.73.73 0 0 1 .485.688V11H.734v-.25a.73.73 0 0 1 .485-.688c.086-.03.168-.058.254-.082l-.008-.082v-.363h-.363a.364.364 0 0 1-.368-.367c0-.184.133-.332.301-.36l.067-.007h.363v-.367c0-.207.164-.368.367-.368.184 0 .332.133.36.301l.007.067v1.363c.227-.043.477-.086.735-.117V7.332A2.193 2.193 0 0 1 .742 5.266l-.008-.133v-.735A.733.733 0 0 1 0 3.668c0-.375.285-.691.645-.727l.09-.007v-.735c0-.402.328-.734.73-.734.375 0 .691.289.726.648L2.2 2.2v2.934c0 .375.285.691.645.726l.09.008V.734c0-.406.328-.734.734-.734Zm2.309 1.203C6.453.25 7.59-.16 8.559.25l.117.05.86.434-.477.477a.138.138 0 0 0-.047.101c0 .09.074.153.156.153.187 0 .379-.035.562-.102l.133-.058L11 .735l-.367 1.097L11 2.934l-1.137-.57a1.595 1.595 0 0 0-.695-.165.16.16 0 0 0-.11.043.171.171 0 0 0-.03.18l.03.035.477.477-.457.226a2.934 2.934 0 0 1-3.777-1.035l-.078-.137-.09-.156.734-.367.051-.13Zm0 0" style="stroke:none;fill-rule:nonzero;fill:#000;fill-opacity:1"/></svg>