<svg xmlns="http://www.w3.org/2000/svg" width="11" height="11"><path style="stroke:none;fill-rule:nonzero;fill:#000;fill-opacity:1" d="m3.98 5.398-2.023-1.14.703-1.235 2.027 1.141zm4.043 1.055L4.602 4.527l-.352.618L7.672 7.07zm.415.234-.352.618 1.766.992.351-.613zm-.473.618c-.027.05-.102.062-.164.027-.067-.035-.094-.105-.067-.156l.414-.723c.028-.047.102-.058.165-.023.062.035.09.105.062.156l-.41.723zm2.601.398a.419.419 0 0 0-.222-.055l-.45.79a.413.413 0 0 0 .719.02l.117-.204a.403.403 0 0 0-.16-.55zM4.883 3.93a.199.199 0 0 1-.274.074l-1.77-1a.194.194 0 0 1-.077-.266.199.199 0 0 1 .273-.074l1.77 1a.194.194 0 0 1 .074.266zm.246-.434a.195.195 0 0 1-.27.074l-1.773-1a.196.196 0 0 1-.074-.265.192.192 0 0 1 .27-.075l1.773.997a.195.195 0 0 1 .074.27zM3.633 6.121a.195.195 0 0 1-.27.074l-1.773-1a.194.194 0 0 1-.078-.265.204.204 0 0 1 .273-.075l1.774 1c.093.051.125.172.074.266zm.246-.434a.193.193 0 0 1-.27.075l-1.773-1a.197.197 0 0 1-.074-.266.195.195 0 0 1 .27-.074l1.773 1c.097.055.132.172.074.266zM.906 7.466h3.125v.36H.906zm3.809.75a.252.252 0 0 0-.25-.211H.477a.249.249 0 0 0-.247.21H.223v.587h4.5v-.586zm0 0"/></svg>