<svg xmlns="http://www.w3.org/2000/svg" width="11" height="11"><path style="stroke:none;fill-rule:nonzero;fill:#000;fill-opacity:1" d="m3.98 5.398-2.023-1.14.703-1.235 2.027 1.141zm4.043 1.055L4.602 4.527l-.352.618L7.672 7.07zm.415.234-.352.618 1.766.992.351-.617zm-.473.618c-.027.047-.102.058-.168.023-.063-.035-.09-.105-.063-.152l.41-.723c.032-.05.102-.062.168-.023.063.035.09.105.063.152zm2.601.394a.458.458 0 0 0-.222-.054l-.45.793c.036.066.09.12.16.16.2.113.45.047.56-.141l.116-.207a.406.406 0 0 0-.164-.55zM4.883 3.926a.2.2 0 0 1-.27.078l-1.773-1a.199.199 0 0 1-.074-.27.199.199 0 0 1 .27-.074l1.773.996a.199.199 0 0 1 .074.27zm.246-.434a.195.195 0 0 1-.27.074L3.086 2.57a.199.199 0 0 1-.074-.27.202.202 0 0 1 .273-.073l1.77.996a.195.195 0 0 1 .074.27zm-1.496 2.63a.202.202 0 0 1-.27.073l-1.773-1a.194.194 0 0 1-.074-.27.198.198 0 0 1 .27-.073l1.773 1a.198.198 0 0 1 .074.27zm.246-.438a.193.193 0 0 1-.27.074l-1.773-.996a.199.199 0 0 1-.074-.27.195.195 0 0 1 .27-.074l1.773 1c.093.05.129.172.074.266zM.906 7.46h3.125v.36H.906zm3.809.75A.256.256 0 0 0 4.465 8H.473a.252.252 0 0 0-.246.21H.219v.59h4.5v-.59zm0 0"/></svg>