<svg xmlns="http://www.w3.org/2000/svg" width="11" height="11"><path style="stroke:none;fill-rule:nonzero;fill:#000;fill-opacity:1" d="M4.398 4.398h-.546a.179.179 0 0 1-.184-.183v-.363c0-.106.078-.184.184-.184h.546v-.734h-.546a.18.18 0 0 1-.184-.184v-.367a.18.18 0 0 1 .184-.184h.546v-.734h-.546a.178.178 0 0 1-.184-.18V.918c0-.106.078-.184.184-.184h.546V0h.735v.734h.734V0h.735v.734h.546c.106 0 .184.079.184.184v.367c0 .102-.078.18-.184.18h-.546v.734h.546a.18.18 0 0 1 .184.184v.367a.18.18 0 0 1-.184.184h-.546v.734h.546c.106 0 .184.078.184.184v.363a.179.179 0 0 1-.184.183h-.546v.735h.546a.18.18 0 0 1 .184.183v.368a.18.18 0 0 1-.184.183h-.546v.735h.546c.106 0 .184.078.184.183v.363a.179.179 0 0 1-.184.184h-.546v.734h.546a.18.18 0 0 1 .184.184v.367a.18.18 0 0 1-.184.184h-.546v.734h.546c.106 0 .184.078.184.18v.367a.179.179 0 0 1-.184.184h-.546V11h-.735v-.734h-.734V11h-.735v-.734h-.546a.179.179 0 0 1-.184-.184v-.367c0-.102.078-.18.184-.18h.546v-.734h-.546a.18.18 0 0 1-.184-.184V8.25a.18.18 0 0 1 .184-.184h.546v-.734h-.546a.179.179 0 0 1-.184-.184v-.363c0-.105.078-.183.184-.183h.546v-.735h-.546a.18.18 0 0 1-.184-.183v-.368a.18.18 0 0 1 .184-.183h.546zm1.47 0h-.735v.735h.734zm0-.73v-.734h-.735v.734zm0 2.2h-.735v.734h.734zm0 1.464h-.735v.734h.734zm0 1.469h-.735v.734h.734zm-.735-6.602h.734v-.734h-.734zM0 7.332V3.668h3.3v3.664zm.734-2.2v.735H2.2v-.734zm6.965 2.2V3.668H11v3.664zm1.102-2.2v.735h1.465v-.734zm0 0"/></svg>