<svg xmlns="http://www.w3.org/2000/svg" width="11" height="11"><path style="stroke:none;fill-rule:nonzero;fill:#000;fill-opacity:1" d="M4.398 4.398h-.546a.183.183 0 0 1-.184-.183v-.363c0-.102.082-.184.184-.184h.546v-.734h-.546a.183.183 0 0 1-.184-.184v-.367c0-.102.082-.184.184-.184h.546v-.734h-.546a.183.183 0 0 1-.184-.18V.918c0-.102.082-.184.184-.184h.546V0h.735v.734h.734V0h.735v.734h.546c.102 0 .184.082.184.184v.367c0 .098-.082.18-.184.18h-.546v.734h.546c.102 0 .184.082.184.184v.367a.183.183 0 0 1-.184.184h-.546v.734h.546c.102 0 .184.082.184.184v.363a.183.183 0 0 1-.184.183h-.546v.735h.546c.102 0 .184.082.184.183v.368a.183.183 0 0 1-.184.183h-.546v.735h.546c.102 0 .184.082.184.183v.363a.183.183 0 0 1-.184.184h-.546v.734h.546c.102 0 .184.082.184.184v.367a.183.183 0 0 1-.184.184h-.546v.734h.546c.102 0 .184.082.184.18v.367a.183.183 0 0 1-.184.184h-.546V11h-.735v-.734h-.734V11h-.735v-.734h-.546a.183.183 0 0 1-.184-.184v-.367c0-.098.082-.18.184-.18h.546v-.734h-.546a.183.183 0 0 1-.184-.184V8.25c0-.102.082-.184.184-.184h.546v-.734h-.546a.183.183 0 0 1-.184-.184v-.363c0-.101.082-.183.184-.183h.546v-.735h-.546a.183.183 0 0 1-.184-.183v-.368c0-.101.082-.183.184-.183h.546zm1.47 0h-.735v.735h.734zm0-.73v-.734h-.735v.734zm0 2.2h-.735v.734h.734zm0 1.464h-.735v.734h.734zm0 1.469h-.735v.734h.734zm-.735-6.602h.734v-.734h-.734zM0 7.332V3.668h3.3v3.664zm7.7 0V3.668H11v3.664zm0 0"/></svg>