<svg xmlns="http://www.w3.org/2000/svg" width="11" height="11"><path d="M4.398 4.398h-.546a.179.179 0 0 1-.184-.183v-.363c0-.106.078-.184.184-.184h.546v-.734h-.546a.18.18 0 0 1-.184-.184v-.367a.18.18 0 0 1 .184-.184h.546v-.734h-.546a.178.178 0 0 1-.184-.18V.918c0-.106.078-.184.184-.184h.546V0h.735v.734h.734V0h.735v.734h.546c.106 0 .184.079.184.184v.367c0 .102-.078.18-.184.18h-.546v.734h.546a.18.18 0 0 1 .184.184v.367a.18.18 0 0 1-.184.184h-.546v.734h.546c.106 0 .184.078.184.184v.363a.179.179 0 0 1-.184.183h-.546v.735h.546a.18.18 0 0 1 .184.183v.368a.18.18 0 0 1-.184.183h-.546v.735h.546c.106 0 .184.078.184.183v.363a.179.179 0 0 1-.184.184h-.546v.734h.546a.18.18 0 0 1 .184.184v.367a.18.18 0 0 1-.184.184h-.546v.734h.546c.106 0 .184.078.184.18v.367a.179.179 0 0 1-.184.184h-.546V11h-.735v-.734h-.734V11h-.735v-.734h-.546a.179.179 0 0 1-.184-.184v-.367c0-.102.078-.18.184-.18h.546v-.734h-.546a.18.18 0 0 1-.184-.184V8.25a.18.18 0 0 1 .184-.184h.546v-.734h-.546a.179.179 0 0 1-.184-.184v-.363c0-.105.078-.183.184-.183h.546v-.735h-.546a.18.18 0 0 1-.184-.183v-.368a.18.18 0 0 1 .184-.183h.546Zm1.47 0h-.735v.735h.734Zm0-.73v-.734h-.735v.734Zm0 2.2h-.735v.734h.734Zm0 1.464h-.735v.734h.734Zm0 1.469h-.735v.734h.734Zm-.735-6.602h.734v-.734h-.734ZM0 5.844V3.668h3.3v.73h-.066L1.656 6.602h1.086l.559-.786v1.516H0v-.73h.543l1.57-2.204H1.035Zm11-.688v2.176H7.7v-.73h.066l1.578-2.204H8.258l-.559.786V3.668H11v.73h-.543l-1.57 2.204h1.078Zm0 0" style="stroke:none;fill-rule:nonzero;fill:#000;fill-opacity:1"/></svg>