<svg xmlns="http://www.w3.org/2000/svg" width="11" height="11"><path d="M4.035 1.102c0 1.464-2.203 1.464-2.203 0 0-1.47 2.203-1.47 2.203 0ZM9.168 1.102c0 1.464-2.203 1.464-2.203 0 0-1.47 2.203-1.47 2.203 0ZM4.035 9.898c0 1.47-2.203 1.47-2.203 0 0-1.464 2.203-1.464 2.203 0ZM9.168 9.898c0 1.47-2.203 1.47-2.203 0 0-1.464 2.203-1.464 2.203 0ZM4.035 4.035c0 1.465-2.203 1.465-2.203 0 0-1.469 2.203-1.469 2.203 0ZM9.168 4.035c0 1.465-2.203 1.465-2.203 0 0-1.469 2.203-1.469 2.203 0ZM4.035 6.965c0 1.469-2.203 1.469-2.203 0 0-1.465 2.203-1.465 2.203 0ZM9.168 6.965c0 1.469-2.203 1.469-2.203 0 0-1.465 2.203-1.465 2.203 0Zm0 0" style="stroke:none;fill-rule:nonzero;fill:#000;fill-opacity:1"/></svg>