<svg xmlns="http://www.w3.org/2000/svg" width="11" height="11"><path style="stroke:none;fill-rule:nonzero;fill:#000;fill-opacity:1" d="M2.918 9.285.218 6.57l.005.477L2.73 9.57c.29.317.786-.047.786-.047l-.239-.253s-.234.152-.355.023zM.218 4.18h2.86v.218H.218zm10.247-.77.316.149-3.136 6.34H7.3zm-5.2-.52L4.005 4.353a.409.409 0 1 1-.586-.567l1.36-1.57a.409.409 0 0 1 .316-.149h1.968a.53.53 0 0 1 .368.149l1.258 1.258 1.039-1.04a.41.41 0 0 1 .27-.101.423.423 0 0 1 .327.691L9.07 4.293c-.383.379-.687.055-.687.055l-.77-.774L6.41 4.97l1.102 1.105s.23.215.101.645l-.62 2.761a.523.523 0 1 1-1.02-.238l.507-2.265-1.25-1.22-1.078 1.204s-.175.215-.636.2l-2.184.003a.523.523 0 0 1-.52-.41.516.516 0 0 1 .524-.637l1.879.004 2.777-3.226zM10.082 9.938c0 .21-.176.402-.39.402H3.3v.219h6.39a.63.63 0 0 0 .649-.63zm0 0"/><path style="stroke:none;fill-rule:nonzero;fill:#000;fill-opacity:1" d="M7.246 1.473a.811.811 0 1 0 1.621 0 .811.811 0 1 0-1.621 0zm0 0"/></svg>