<svg xmlns="http://www.w3.org/2000/svg" width="11" height="11"><path style="stroke:none;fill-rule:nonzero;fill:#000;fill-opacity:1" d="M4.398 4.398h-.546a.183.183 0 0 1-.184-.183v-.363c0-.102.082-.184.184-.184h.546v-.734h-.546a.183.183 0 0 1-.184-.184v-.367c0-.102.082-.184.184-.184h.546v-.734h-.546a.183.183 0 0 1-.184-.18V.918c0-.102.082-.184.184-.184h.546V0h.735v.734h.734V0h.735v.734h.546c.102 0 .184.082.184.184v.367c0 .098-.082.18-.184.18h-.546v.734h.546c.102 0 .184.082.184.184v.367a.183.183 0 0 1-.184.184h-.546v.734h.546c.102 0 .184.082.184.184v.363a.183.183 0 0 1-.184.183h-.546v.735h.546c.102 0 .184.082.184.183v.368a.183.183 0 0 1-.184.183h-.546v.735h.546c.102 0 .184.082.184.183v.363a.183.183 0 0 1-.184.184h-.546v.734h.546c.102 0 .184.082.184.184v.367a.183.183 0 0 1-.184.184h-.546v.734h.546c.102 0 .184.082.184.18v.367a.183.183 0 0 1-.184.184h-.546V11h-.735v-.734h-.734V11h-.735v-.734h-.546a.183.183 0 0 1-.184-.184v-.367c0-.098.082-.18.184-.18h.546v-.734h-.546a.183.183 0 0 1-.184-.184V8.25c0-.102.082-.184.184-.184h.546v-.734h-.546a.183.183 0 0 1-.184-.184v-.363c0-.101.082-.183.184-.183h.546v-.735h-.546a.183.183 0 0 1-.184-.183v-.368c0-.101.082-.183.184-.183h.546zm1.47 0h-.735v.735h.734zm0-.73v-.734h-.735v.734zm0 2.2h-.735v.734h.734zm0 1.464h-.735v.734h.734zm0 1.469h-.735v.734h.734zm-.735-6.602h.734v-.734h-.734zM3.668 4.4v.734h-.734v.734h.734v.735h-.734v.546a.183.183 0 0 1-.184.184h-.367a.183.183 0 0 1-.184-.184v-.546h-.734v.546a.183.183 0 0 1-.18.184H.918a.183.183 0 0 1-.184-.184v-.546H0v-.735h.734v-.734H0v-.735h.734v-.546c0-.102.082-.184.184-.184h.367c.098 0 .18.082.18.184v.546h.734v-.546c0-.102.082-.184.184-.184h.367c.102 0 .184.082.184.184v.546zm3.664 0h.734v-.547c0-.102.082-.184.184-.184h.367c.102 0 .184.082.184.184v.546h.734v-.546c0-.102.082-.184.18-.184h.367c.102 0 .184.082.184.184v.546H11v.735h-.734v.734H11v.735h-.734v.546a.183.183 0 0 1-.184.184h-.367a.183.183 0 0 1-.18-.184v-.546h-.734v.546a.183.183 0 0 1-.184.184H8.25a.183.183 0 0 1-.184-.184v-.546h-.734v-.735h.734v-.734h-.734zM2.199 5.866v-.734h-.734v.734zm6.602-.734v.734h.734v-.734zm0 0"/></svg>