<svg xmlns="http://www.w3.org/2000/svg" width="11" height="11"><path d="M2.2.734c0-.183.183-.367.366-.367h2.2c.183 0 .367.184.367.367v.73a.395.395 0 0 1-.367.368h-2.2a.395.395 0 0 1-.367-.367ZM5.867.734c0-.183.184-.367.367-.367h2.2c.183 0 .367.184.367.367v.73a.395.395 0 0 1-.367.368h-2.2a.395.395 0 0 1-.367-.367ZM4.398 2.934c0-.184.184-.368.368-.368h1.468c.184 0 .368.184.368.368v.734a.395.395 0 0 1-.368.367H4.766a.395.395 0 0 1-.368-.367ZM7.332 2.934c0-.184.184-.368.367-.368h.735c.183 0 .367.184.367.368v.734a.395.395 0 0 1-.367.367h-.735a.395.395 0 0 1-.367-.367ZM2.2 2.934c0-.184.183-.368.366-.368h.735c.183 0 .367.184.367.368v.734a.395.395 0 0 1-.367.367h-.735a.395.395 0 0 1-.367-.367ZM2.2 5.133c0-.184.183-.367.366-.367h2.2c.183 0 .367.183.367.367v.734a.395.395 0 0 1-.367.367h-2.2a.395.395 0 0 1-.367-.367ZM5.867 5.133c0-.184.184-.367.367-.367h2.2c.183 0 .367.183.367.367v.734a.395.395 0 0 1-.367.367h-2.2a.395.395 0 0 1-.367-.367ZM4.398 7.332c0-.184.184-.367.368-.367h1.468c.184 0 .368.183.368.367v.734a.395.395 0 0 1-.368.368H4.766a.395.395 0 0 1-.368-.368ZM7.332 7.332c0-.184.184-.367.367-.367h.735c.183 0 .367.183.367.367v.734a.395.395 0 0 1-.367.368h-.735a.395.395 0 0 1-.367-.368ZM2.2 7.332c0-.184.183-.367.366-.367h.735c.183 0 .367.183.367.367v.734a.395.395 0 0 1-.367.368h-.735a.395.395 0 0 1-.367-.368ZM2.2 9.535c0-.183.183-.367.366-.367h2.2c.183 0 .367.184.367.367v.73a.395.395 0 0 1-.367.368h-2.2a.395.395 0 0 1-.367-.367ZM5.867 9.535c0-.183.184-.367.367-.367h2.2c.183 0 .367.184.367.367v.73a.395.395 0 0 1-.367.368h-2.2a.395.395 0 0 1-.367-.367Zm0 0" style="stroke:none;fill-rule:nonzero;fill:#000;fill-opacity:1"/></svg>