<svg xmlns="http://www.w3.org/2000/svg" width="11" height="11"><path d="M2.918 9.285.218 6.57l.005.473L2.73 9.57c.29.317.786-.047.786-.047l-.239-.253s-.234.152-.355.02ZM.218 4.18h2.86v.218H.218Zm10.247-.774.316.153-3.133 6.34h-.347Zm-5.2-.52L4.005 4.349a.407.407 0 1 1-.582-.562l1.36-1.571a.395.395 0 0 1 .312-.149h1.968c.149 0 .278.059.372.149L8.69 3.473l1.04-1.04a.42.42 0 0 1 .598.59l-1.255 1.27c-.379.383-.687.055-.687.055l-.77-.774L6.414 4.97l1.102 1.105s.234.215.101.649L7 9.48a.527.527 0 0 1-.516.422.527.527 0 0 1-.523-.527c0-.043.004-.09.02-.129l.507-2.27-1.254-1.218L4.16 6.965s-.172.215-.637.2l-2.183.003a.523.523 0 0 1-.52-.41.516.516 0 0 1 .39-.625c.044-.012.087-.016.134-.012l1.879.004L6 2.895l-.727-.004ZM10.082 9.938a.401.401 0 0 1-.387.402H3.301v.219h6.394a.63.63 0 0 0 .649-.63l-.258.008Zm0 0" style="stroke:none;fill-rule:nonzero;fill:#000;fill-opacity:1"/><path d="M7.246 1.473c0 .453.363.816.809.816.449 0 .812-.363.812-.816a.811.811 0 1 0-1.621 0Zm0 0" style="stroke:none;fill-rule:nonzero;fill:#000;fill-opacity:1"/></svg>