<svg xmlns="http://www.w3.org/2000/svg" width="11" height="11"><path style="stroke:none;fill-rule:nonzero;fill:#000;fill-opacity:1" d="M2.215 6.96c-.317-.14-.77-.433-1.344-.866l-.137-.102v-4.89c0-.207.16-.368.368-.368h4.03v.938A6.24 6.24 0 0 1 2.216 6.96zm1.453 3.306H1.102a.362.362 0 0 1-.368-.368V6.902c.371.278.836.54 1.371.797l.133.074a2.884 2.884 0 0 1 1.43 2.493zM8.785 6.96a6.24 6.24 0 0 1-2.918-5.29V.735h4.031c.207 0 .368.16.368.368v4.89l-.137.102c-.574.433-1.027.726-1.344.867zm-1.453 3.305c0-1.028.543-1.973 1.43-2.493l.133-.074c.535-.258 1-.52 1.37-.797v2.996c0 .207-.16.368-.367.368zm0 0"/></svg>