<svg xmlns="http://www.w3.org/2000/svg" width="11" height="11"><path style="stroke:none;fill-rule:nonzero;fill:#000;fill-opacity:1" d="M4.824 5.95a.758.758 0 0 0-.058.284v.73c0 .235.109.442.277.575a1.839 1.839 0 0 1-1.742 1.262 1.836 1.836 0 0 1-1.836-1.836 1.835 1.835 0 0 1 3.36-1.016zm1.133 1.59a.73.73 0 0 0 .277-.575v-.73c0-.102-.023-.2-.058-.286a1.835 1.835 0 0 1 3.36 1.016A1.836 1.836 0 0 1 7.698 8.8c-.812 0-1.5-.531-1.742-1.262zM3.301 5.866a1.1 1.1 0 1 0-.004 2.2 1.1 1.1 0 0 0 .004-2.2zm4.398 0a1.099 1.099 0 1 0 .002 2.197A1.099 1.099 0 0 0 7.7 5.867zM6.234 1.648a.915.915 0 1 1 1.83.003.915.915 0 0 1-1.83-.003zm.438 2.606-.61-.813-.855.883.555.551c.066.07.105.16.105.258v1.844a.37.37 0 0 1-.37.363.37.37 0 0 1-.364-.375v-1.68l-.992-.992a.365.365 0 0 1 0-.52L5.605 2.31a.395.395 0 0 1 .27-.11.37.37 0 0 1 .285.149l.988 1.32h1.297c.13 0 .25.07.313.187a.363.363 0 0 1-.324.543h-1.47a.376.376 0 0 1-.292-.144zM1.465 9.168h2.203l-.734 1.098h-2.2zm3.3 0h1.47l.73 1.098h-2.93zm4.77 0 .73 1.098H8.067l-.734-1.098zm0 0"/></svg>