<svg xmlns="http://www.w3.org/2000/svg" width="11" height="11"><path style="stroke:none;fill-rule:nonzero;fill:#000;fill-opacity:1" d="M1.445 5.867h2.953V4.398a.723.723 0 0 0-.05-.273zm2.242-2.199H1.466a.732.732 0 0 0-.73.73v1.04zm3.626 2.2h2.953v-1.47a.808.808 0 0 0-.051-.273zm2.242-2.2H7.332a.732.732 0 0 0-.73.73v1.04zM4.398 6.602H.734v1.464H0V4.398c0-.808.656-1.464 1.465-1.464h2.203c.809 0 1.465.656 1.465 1.464v3.668h-.735zm5.868 0H6.602v1.464h-.735V4.398c0-.808.656-1.464 1.465-1.464h2.203c.809 0 1.465.656 1.465 1.464v3.668h-.734zm0 0"/></svg>