<svg xmlns="http://www.w3.org/2000/svg" width="11" height="11"><path style="stroke:none;fill-rule:nonzero;fill:#000;fill-opacity:1" d="m9.156 2.598-.984 1.64 1.75 1.75a.55.55 0 1 1-.777.778L7.457 5.078 6.16 4.82l-.258-1.297L4.215 1.84a.55.55 0 0 1 0-.778.554.554 0 0 1 .781 0l1.75 1.75 1.637-.984A.736.736 0 0 1 8.496.93l.516-.516a.73.73 0 0 1 1.039 0l.52.516a.738.738 0 0 1 0 1.039l-.52.52a.734.734 0 0 1-.895.109zM5.543 4.652 1.496 9.488l4.832-4.05 1.129.16-4.148 3.629-3.11 1.558 1.555-3.113 3.629-4.149zm0 0"/></svg>