<svg xmlns="http://www.w3.org/2000/svg" width="11" height="11"><path d="M6.602 1.832c.183 0 .183.367 0 .367-.184.184-2.387.184-2.567 0-.183 0-.183-.367 0-.367h.363V.734c0-.367 1.836-.367 1.836 0v1.098h.368ZM6.602 2.566c-.368.184-2.204.184-2.567 0-.324 0-1.101.735-1.101 1.102v6.598c0 .367 5.867.367 5.867 0V6.234c0-1.836-1.102-3.668-2.2-3.668Zm.546 3.668c-.183-.183-.363-.918-.363-1.652 0-.914.363-1.098.547-.73.367.546.734 1.464.734 2.382 0 .551-.734.368-.918 0Zm0 0" style="stroke:none;fill-rule:nonzero;fill:#000;fill-opacity:1"/></svg>