<svg xmlns="http://www.w3.org/2000/svg" width="11" height="11"><path style="stroke:none;fill-rule:nonzero;fill:#000;fill-opacity:1" d="M5.867 8.8a.739.739 0 0 1-.734-.734c0-.402.332-.734.734-.734.403 0 .735.332.735.734a.739.739 0 0 1-.735.735zM4.398 7.333a.733.733 0 1 0 .004-1.465.733.733 0 0 0-.004 1.465zM2.934 5.867a.739.739 0 0 0 .734-.734.739.739 0 0 0-.734-.735.739.739 0 0 0-.735.735c0 .402.332.734.735.734zm2.933 0a.739.739 0 0 0 .735-.734.739.739 0 0 0-.735-.735.739.739 0 0 0-.734.735c0 .402.332.734.734.734zM2.934 8.801a.739.739 0 0 0 .734-.735.739.739 0 0 0-.734-.734.739.739 0 0 0-.735.734c0 .403.332.735.735.735zm4.398-5.133v5.867H1.465V3.668zm0-1.102H1.465A1.1 1.1 0 0 0 .367 3.668v5.867c0 .606.492 1.098 1.098 1.098h5.867a1.1 1.1 0 0 0 1.102-1.098V3.668a1.1 1.1 0 0 0-1.102-1.102zM9.535.918H3.668c-.3 0-.55.246-.55.547 0 .3.25.55.55.55h5.316v5.317c0 .3.25.55.551.55.3 0 .547-.25.547-.55V1.465c0-.3-.246-.547-.547-.547zm0 0"/></svg>