<svg xmlns="http://www.w3.org/2000/svg" width="11" height="11"><path style="stroke:none;fill-rule:nonzero;fill:#000;fill-opacity:1" d="M5.867 8.8a.734.734 0 1 1-.002-1.466.734.734 0 0 1 .002 1.467zM4.398 7.333a.733.733 0 1 0 .004-1.465.733.733 0 0 0-.004 1.465zM2.934 5.867A.734.734 0 1 0 2.935 4.4a.734.734 0 0 0-.001 1.467zm2.933 0a.736.736 0 0 0 .735-.734.739.739 0 0 0-.735-.735.734.734 0 1 0 0 1.469zM2.934 8.801a.734.734 0 1 0 .001-1.467.734.734 0 0 0-.001 1.467zm4.398-5.133v5.867H1.465V3.668zm0-1.102H1.465A1.1 1.1 0 0 0 .367 3.668v5.867c0 .606.492 1.098 1.098 1.098h5.867a1.1 1.1 0 0 0 1.102-1.098V3.668a1.1 1.1 0 0 0-1.102-1.102zM9.535.918H3.668a.55.55 0 1 0 0 1.098h5.316v5.316a.55.55 0 1 0 1.098 0V1.465c0-.3-.246-.547-.547-.547zm0 0"/></svg>