<svg xmlns="http://www.w3.org/2000/svg" width="11" height="11"><path style="stroke:none;fill-rule:nonzero;fill:#000;fill-opacity:1" d="M5.133 10.266H1.262L.05 8.258a.38.38 0 0 1 .125-.508.38.38 0 0 1 .508.125l.988 1.66h2.55C2.458 8.16 1.54 5.95 1.473 2.934h-.007a.361.361 0 0 1-.363-.368c0-.203.16-.367.363-.367h8.07c.203 0 .363.164.363.367 0 .207-.16.368-.363.368h-.008c-.066 3.015-.984 5.226-2.75 6.601h2.551l.988-1.66a.38.38 0 0 1 .508-.125.38.38 0 0 1 .125.508l-1.21 2.008H5.866V11h-.734zm0-1.715V2.934H4.035c.035 2.28.402 4.156 1.098 5.617zM3.3 2.934H2.207c.059 2.64.793 4.562 2.2 5.8-.704-1.546-1.071-3.484-1.106-5.8zM5.867 8.55C6.563 7.09 6.93 5.215 6.965 2.934H5.867zM7.7 2.934c-.035 2.316-.402 4.253-1.105 5.8 1.406-1.238 2.14-3.16 2.199-5.8zM5.5 0a1.1 1.1 0 1 1 0 2.2 1.1 1.1 0 1 1 0-2.2zm0 0"/></svg>