<svg xmlns="http://www.w3.org/2000/svg" width="11" height="11"><path style="stroke:none;fill-rule:nonzero;fill:#000;fill-opacity:1" d="M10.34 10.559c-.211 0-.414-.047-.598-.13a1.455 1.455 0 0 0-1.226 0 1.434 1.434 0 0 1-1.192 0 1.441 1.441 0 0 0-1.227 0 1.447 1.447 0 0 1-1.195 0 1.437 1.437 0 0 0-1.222 0 1.447 1.447 0 0 1-1.196 0 1.45 1.45 0 0 0-.609-.136c-.219 0-.43.05-.613.137-.18.082-.387.129-.598.129v-.891c.211 0 .418-.047.598-.129.183-.082.394-.133.613-.133.219 0 .426.051.61.133a1.447 1.447 0 0 0 1.195 0c.183-.082.394-.133.613-.133.219 0 .426.051.61.133a1.447 1.447 0 0 0 1.195 0c.183-.082.394-.133.613-.133.219 0 .426.051.613.133a1.438 1.438 0 0 0 1.192 0c.187-.082.398-.133.613-.133.219 0 .43.051.613.133.184.082.383.129.598.129zM3.398 6.19a.812.812 0 1 0 0-1.625.814.814 0 0 0-.816.809c0 .45.367.816.816.816zm.118 2.817a.458.458 0 0 1-.63.16.454.454 0 0 1-.163-.625l1.894-3.25a.76.76 0 0 1 .29-.29L7.34 3.532 8.996.727a.573.573 0 0 1 .781-.211c.274.16.364.507.207.78l-1.98 3.36a.735.735 0 0 1-.29.29l-2.87 1.78L3.52 9.009zm0 0"/></svg>