<svg xmlns="http://www.w3.org/2000/svg" width="11" height="11"><path style="stroke:none;fill-rule:nonzero;fill:#000;fill-opacity:1" d="M10.34 10.559c-.211 0-.414-.047-.594-.13a1.486 1.486 0 0 0-.617-.136c-.219 0-.426.05-.613.137a1.434 1.434 0 0 1-1.192 0 1.468 1.468 0 0 0-.613-.137c-.219 0-.43.05-.617.137a1.434 1.434 0 0 1-1.192 0 1.455 1.455 0 0 0-1.226 0 1.434 1.434 0 0 1-1.192 0 1.455 1.455 0 0 0-1.227 0c-.179.082-.386.129-.597.129v-.891c.211 0 .418-.047.598-.129.183-.082.394-.133.613-.133.219 0 .426.051.613.133a1.434 1.434 0 0 0 1.191 0c.188-.082.395-.133.614-.133.219 0 .43.051.613.133a1.434 1.434 0 0 0 1.191 0c.188-.082.4-.133.618-.133.219 0 .426.051.613.133a1.438 1.438 0 0 0 1.192 0c.187-.082.394-.133.613-.133.219 0 .43.051.617.133.18.082.383.129.594.129zM3.398 6.19a.814.814 0 1 0 0-1.625.812.812 0 1 0 0 1.625zm.118 2.817a.455.455 0 0 1-.63.16.454.454 0 0 1-.163-.625l1.89-3.25a.77.77 0 0 1 .293-.29L7.34 3.532 8.992.727a.57.57 0 0 1 .992.566l-1.98 3.36a.754.754 0 0 1-.293.292L4.836 6.723zm0 0"/></svg>