<svg xmlns="http://www.w3.org/2000/svg" width="11" height="11"><path style="stroke:none;fill-rule:nonzero;fill:#000;fill-opacity:1" d="M2.934 5.133v5.133h-1.47V5.707l-.73.277V4.398L10.266.734v1.567zM7.41 8.352H5.72l.754 1.242a.434.434 0 0 1-.157.601.453.453 0 0 1-.609-.152l-.809-1.34v1.125c0 .242-.199.438-.445.438a.446.446 0 0 1-.316-.13.423.423 0 0 1-.133-.308V6.961l-.61-.344a.25.25 0 0 1-.12-.152.235.235 0 0 1 .023-.192.268.268 0 0 1 .355-.097l.383.215H7.04l1.414.675v1.102c0 .102-.015.184-.148.184v1.476c0 .242-.2.438-.446.438a.442.442 0 0 1-.449-.438zM7.176 6.09V4.398l2.687 1.25-.379.801H8.45v.235zm0 0"/></svg>