<svg xmlns="http://www.w3.org/2000/svg" width="11" height="11"><path style="stroke:none;fill-rule:nonzero;fill:#000;fill-opacity:1" d="M2.934 5.133v5.133h-1.47V5.707l-.73.277V4.398L10.266.734v1.567zm4.472 3.219H5.72l.758 1.242c.125.21.05.476-.157.597a.446.446 0 0 1-.613-.152l-.809-1.336v1.125c0 .242-.199.438-.445.438a.443.443 0 0 1-.45-.438V6.961l-.608-.348a.268.268 0 0 1-.125-.144.273.273 0 0 1 .03-.2.265.265 0 0 1 .352-.093l.383.219H7.04l1.418.675v1.098c0 .098-.016.184-.156.184v1.476a.44.44 0 0 1-.438.438.449.449 0 0 1-.457-.438zM7.18 6.094V4.398l2.683 1.254-.383.801H8.45v.234zm0 0"/></svg>