<svg xmlns="http://www.w3.org/2000/svg" width="11" height="11"><path style="stroke:none;fill-rule:nonzero;fill:#000;fill-opacity:1" d="M5.5 0C8.54 0 11 2.46 11 5.5S8.54 11 5.5 11 0 8.54 0 5.5 2.46 0 5.5 0zm-.215 8.152c-.066-.172-.625.028-.578.196.047.164.305 1.023.371 1.21.067.192.668 0 .606-.183-.059-.188-.329-1.05-.399-1.223zm-2.715.141c-.195-.07-.37.55-.199.625.172.078 1.05.355 1.207.395.156.039.375-.524.195-.606-.117-.05-1.007-.344-1.203-.414zm4.54-.242c-.165-.063-.423.496-.227.594a21.6 21.6 0 0 0 1.183.453c.184.058.446-.493.23-.59-.218-.098-1.019-.39-1.187-.457zM8.3 6.77c-.198-.032-.296.59-.09.628.212.04 1.083.168 1.259.176.18.012.273-.601.09-.629A53.845 53.845 0 0 1 8.3 6.77zM5.5 3.809a1.692 1.692 0 1 0 .001 3.384A1.692 1.692 0 0 0 5.5 3.809zM1.937 6.348c-.16-.012-.246.609-.066.629.18.023 1.05.117 1.262.132.21.02.234-.613.066-.629a46.042 46.042 0 0 0-1.261-.132zm7.407-1.676c-.07.195-.399 1.09-.453 1.246-.055.156.539.34.609.176.066-.168.344-1.008.398-1.2.059-.195-.488-.417-.554-.222zm-7.336-.59c-.145.121-.836.762-.965.879-.129.117.277.601.402.496.125-.105.778-.723.926-.867.149-.145-.223-.625-.363-.508zM8.59 2.59c-.094-.137-.625.113-.527.297.097.183.523.96.613 1.113.09.148.64-.16.554-.309-.085-.152-.55-.96-.64-1.101zm-2.754-.043c-.14-.05-.367.531-.195.601.168.07 1.02.336 1.207.395.187.055.363-.543.195-.606-.168-.062-1.066-.343-1.207-.39zm-3.887.043c-.277-.012-.258.629-.066.64.191.012 1.105.086 1.265.09.196.004.29-.648.082-.66a77.264 77.264 0 0 0-1.28-.07zm1.785-1.5c-.113-.082-.55.367-.394.492.156.125.848.684 1 .781.152.102.535-.367.39-.5a22.04 22.04 0 0 0-.996-.773zM6.918.848a64.52 64.52 0 0 0-1.254.199c-.176.031-.082.648.102.625.18-.024 1.086-.156 1.254-.195.164-.043.082-.653-.102-.63zm0 0"/></svg>