<svg xmlns="http://www.w3.org/2000/svg" width="11" height="11"><path style="stroke:none;fill-rule:nonzero;fill:#000;fill-opacity:1" d="M5.5 0C8.535 0 11 2.465 11 5.5S8.535 11 5.5 11A5.503 5.503 0 0 1 0 5.5C0 2.465 2.465 0 5.5 0zm-.21 8.156c-.067-.176-.634.028-.583.188.047.172.3 1.027.375 1.219.066.19.66 0 .602-.192-.059-.184-.332-1.047-.395-1.215zm-2.716.137c-.199-.066-.375.55-.207.625.176.078 1.059.36 1.211.395.156.039.375-.528.2-.602-.118-.059-1.012-.352-1.204-.418zm4.54-.242c-.169-.067-.426.5-.227.594.218.097.996.398 1.18.457.183.05.449-.5.226-.594-.211-.098-1.012-.39-1.18-.457zM8.3 6.77c-.2-.032-.301.593-.086.628.203.04 1.078.168 1.254.176.183.008.277-.601.086-.629A56.622 56.622 0 0 1 8.3 6.77zM5.5 3.805c-.93 0-1.695.765-1.695 1.695 0 .938.765 1.695 1.695 1.695.938 0 1.695-.758 1.695-1.695 0-.93-.758-1.695-1.695-1.695zM1.937 6.344c-.164-.008-.242.617-.066.636.184.024 1.055.118 1.262.133.21.016.234-.617.07-.629a78.32 78.32 0 0 0-1.265-.14zm7.407-1.672a66.64 66.64 0 0 1-.457 1.246c-.051.152.543.344.61.176.073-.168.343-1.004.401-1.203.059-.192-.488-.41-.554-.22zm-7.336-.586c-.145.117-.836.762-.965.879-.125.117.277.594.402.492.125-.105.778-.719.93-.867.148-.145-.227-.621-.367-.504zM8.586 2.59c-.086-.133-.621.117-.527.3.101.184.527.962.617 1.106.086.156.644-.152.558-.308-.09-.145-.55-.961-.648-1.098zm-2.75-.047c-.137-.043-.367.535-.195.602.168.074 1.02.34 1.207.398.183.059.367-.543.199-.602-.168-.066-1.07-.343-1.211-.398zm-3.887.047c-.277-.008-.254.629-.066.644.191.008 1.101.082 1.27.086.19 0 .284-.652.081-.66a80.437 80.437 0 0 0-1.285-.07zm1.785-1.504c-.113-.074-.55.375-.398.5.16.121.852.68 1.004.777.156.102.535-.367.39-.5-.148-.133-.878-.699-.996-.777zM6.922.852c-.184.02-1.078.168-1.254.195-.184.031-.086.648.098.625.183-.024 1.082-.152 1.254-.2.168-.042.078-.644-.098-.62zm0 0"/></svg>