<svg xmlns="http://www.w3.org/2000/svg" width="11" height="11"><path style="stroke:none;fill-rule:nonzero;fill:#000;fill-opacity:1" d="M7.332 5.434a4.203 4.203 0 0 1-1.832.433 4.203 4.203 0 0 1-1.832-.433c-.023-1.43-.734-2.508-.734-3.235 0-.492.242-.972.734-1.465h.73c.368.73.735 1.098 1.102 1.098.367 0 .734-.367 1.102-1.098h.73c.492.493.734.973.734 1.465 0 .926-.71 1.805-.734 3.235zm.164.734c.352.703 1.274 1.336 2.77 1.898 0 .493-.243.977-.73 1.47-.735.73-1.47 0-2.204 0-.73 0-.73.73-1.832.73s-1.102-.73-1.832-.73c-.734 0-1.469.73-2.203 0-.488-.493-.73-.977-.73-1.47 1.495-.562 2.417-1.195 2.769-1.898a4.9 4.9 0 0 0 1.996.434 4.9 4.9 0 0 0 1.996-.434zm0 0"/></svg>