<svg xmlns="http://www.w3.org/2000/svg" width="11" height="11"><path d="M9.535 8.434C9.535 9.898 9.168 11 8.434 11H2.566c-.734 0-1.101-1.102-1.101-2.566 3.3 1.832 4.77 1.832 8.07 0ZM5.5 8.066c.184 0 .367.184.367.368A.395.395 0 0 1 5.5 8.8a.395.395 0 0 1-.367-.367c0-.184.183-.368.367-.368Zm3.3-.734H2.2c-.368 0-.735.367-.735.734 3.3 1.832 4.77 1.832 8.07 0 0-.367-.367-.734-.734-.734ZM2.91 6.234c-.836 0-1.457 0-1.664-.828 0 0-.418-1.668-.418-2.289 0-1.043.418-1.453 1.461-1.453h1.246c1.035 0 1.453.41 1.453 1.453 0 .621-.418 2.29-.418 2.29-.207.827-.832.827-1.66.827ZM3.32 0h-.828c-.418 0-.418.418-.418.52.317 0 .317.41 0 .41 0 .113 0 .523.418.523h.828c.418 0 .524-.41.524-.625h.52c0 .215.206.418.624.418.418 0 .828-.203.828-.52 0-.308-.41-.519-.828-.519s-.625.211-.625.418h-.52C3.844.418 3.739 0 3.32 0ZM1.531.836c.055-.016.106.031.117.082.008.059-.035.11-.085.125l-.215.027c-.051.008-.102-.035-.118-.086-.003-.058.04-.113.09-.117Zm-.62.082a.105.105 0 0 1 .116.094c.016.05-.03.101-.09.117l-.203.031c-.05.004-.109-.039-.117-.09A.106.106 0 0 1 .703.953Zm-.618.094c.059-.016.11.031.117.09.008.05-.027.101-.086.117l-.207.027A.106.106 0 0 1 0 1.16c-.008-.058.031-.113.09-.117ZM.117.207l.207.035C.383.25.418.301.41.36a.112.112 0 0 1-.117.09L.09.41C.03.402-.008.352 0 .3A.105.105 0 0 1 .117.208Zm.617.094.204.027c.058.008.105.059.09.121A.106.106 0 0 1 .91.535L.703.508C.653.492.61.44.617.387.625.328.684.285.734.3Zm.614.086c-.051-.012-.102.031-.118.09-.003.05.04.101.09.117l.211.031c.055.004.106-.04.117-.09.008-.058-.035-.11-.085-.125ZM11 2.934l-1.371-1.47h-2.75L5.5 2.935l2.75 3.3 2.75-3.3Zm-1.613 0 .242-1.102 1.027 1.102Zm-.102.367h1.027L8.595 5.5Zm-.176-.367-.617-1.102h.895ZM7.563 3.3h1.375L8.25 5.684Zm.101-.367.586-1.102.586 1.102Zm-.273 0-.278-1.102h.895ZM7.906 5.5 6.188 3.3h1.027ZM6.88 1.832l.234 1.102h-1.27Zm0 0" style="stroke:none;fill-rule:nonzero;fill:#000;fill-opacity:1"/></svg>