<svg xmlns="http://www.w3.org/2000/svg" width="11" height="11"><path style="stroke:none;fill-rule:nonzero;fill:#000;fill-opacity:1" d="M9.535 8.434C9.535 9.898 9.168 11 8.434 11H2.566c-.734 0-1.101-1.102-1.101-2.566 3.3 1.832 4.77 1.832 8.07 0zM5.5 8.066c.184 0 .367.184.367.368A.395.395 0 0 1 5.5 8.8a.395.395 0 0 1-.367-.367c0-.184.183-.368.367-.368zm3.3-.734H2.2c-.368 0-.735.367-.735.734 3.3 1.832 4.77 1.832 8.07 0 0-.367-.367-.734-.734-.734zM2.91 6.234c-.832 0-1.457 0-1.664-.832 0 0-.414-1.664-.414-2.285 0-1.039.414-1.453 1.453-1.453h1.246c1.04 0 1.457.414 1.457 1.453 0 .621-.418 2.285-.418 2.285-.207.832-.832.832-1.66.832zM3.324 0h-.832c-.414 0-.414.414-.414.52.313 0 .313.414 0 .414 0 .105 0 .52.414.52h.832c.414 0 .52-.415.52-.622h.52c0 .207.206.414.624.414.414 0 .828-.207.828-.52 0-.312-.414-.519-.828-.519-.418 0-.625.207-.625.418h-.52c0-.21-.105-.625-.519-.625zM1.527.832a.103.103 0 0 1 .118.09c.011.055-.032.11-.086.117l-.207.027A.105.105 0 0 1 1.234.98a.103.103 0 0 1 .09-.117zm-.613.09c.055-.008.11.031.113.086a.097.097 0 0 1-.086.117l-.207.031a.105.105 0 0 1-.117-.09.105.105 0 0 1 .09-.117zm-.621.086a.108.108 0 0 1 .121.09.108.108 0 0 1-.09.117l-.207.027A.105.105 0 0 1 0 1.156a.103.103 0 0 1 .09-.117zM.117.207l.207.031a.105.105 0 0 1 .09.117.108.108 0 0 1-.121.09L.09.415A.105.105 0 0 1 0 .296C.008.242.063.199.117.21zm.617.09.207.031a.097.097 0 0 1 .086.117C1.023.5.97.54.914.531L.707.504a.105.105 0 0 1-.09-.117.105.105 0 0 1 .117-.09zm.618.09c-.055-.012-.11.031-.118.086a.103.103 0 0 0 .09.117l.203.031a.103.103 0 0 0 .118-.09c.011-.054-.032-.11-.086-.117zM11 2.934l-1.375-1.47h-2.75L5.5 2.935l2.75 3.3 2.75-3.3zm-1.617 0 .242-1.102 1.031 1.102zM9.28 3.3h1.031L8.595 5.5zm-.172-.367-.617-1.102h.89zM7.563 3.3h1.375L8.25 5.684zm.101-.367.586-1.102.586 1.102zm-.273 0-.274-1.102h.89zM7.906 5.5 6.188 3.3h1.03zM6.875 1.832l.242 1.102H5.844zm0 0"/></svg>