<svg xmlns="http://www.w3.org/2000/svg" width="11" height="11"><path style="stroke:none;fill-rule:nonzero;fill:#000;fill-opacity:1" d="M.809 7.094a.731.731 0 0 1 1.027-.145.73.73 0 0 1 .144 1.028.735.735 0 0 0 .145 1.027.738.738 0 0 0 1.027-.145l1.102-1.464 1.172.882-1.102 1.465a2.199 2.199 0 0 1-3.082.43A2.199 2.199 0 0 1 .81 7.094zm9.55-6.578c.32.242.387.703.145 1.027L5.648 7.984l-1.171-.882L9.332.66a.73.73 0 0 1 1.027-.144zm-1.558 9.75a1.466 1.466 0 1 1-.005-2.933 1.466 1.466 0 0 1 .005 2.933zm0 0"/></svg>