<svg xmlns="http://www.w3.org/2000/svg" width="11" height="11"><path d="M.809 7.09a.726.726 0 0 1 1.023-.137c.332.242.39.695.148 1.027a.734.734 0 0 0 .145 1.024.738.738 0 0 0 1.027-.145l1.102-1.468 1.172.89-1.098 1.457A2.202 2.202 0 1 1 .808 7.09ZM10.355.512a.731.731 0 0 1 .145 1.027L5.648 7.984l-1.175-.886L9.328.66a.736.736 0 0 1 1.027-.148Zm-1.554 9.754c-.809 0-1.469-.66-1.469-1.465 0-.809.66-1.469 1.469-1.469.804 0 1.465.66 1.465 1.469A1.47 1.47 0 0 1 8.8 10.266Zm0 0" style="stroke:none;fill-rule:nonzero;fill:#000;fill-opacity:1"/></svg>