<svg xmlns="http://www.w3.org/2000/svg" width="11" height="11"><path style="stroke:none;fill-rule:nonzero;fill:#000;fill-opacity:1" d="M10.543 5.957a.462.462 0 0 0-.461.461v.687l-2.75-2.062v-1.04a.567.567 0 0 0-.914-.448V2.437a.615.615 0 0 0-.05-.253L5.753.168a.273.273 0 0 0-.504 0l-.617 2.016a.615.615 0 0 0-.051.253v1.118a.567.567 0 0 0-.914.45v1.038L.918 7.105v-.687a.462.462 0 0 0-.461-.461.461.461 0 0 0-.457.461v3.207a.458.458 0 0 0 .918 0v-.457l3.664-.918v1.145l-1.02.875a.426.426 0 0 0-.09.464c.067.16.22.266.395.266l1.63-.23 1.636.23a.425.425 0 0 0 .394-.266.426.426 0 0 0-.09-.464l-1.019-.875V8.25l3.664.918v.457a.458.458 0 0 0 .918 0V6.418a.461.461 0 0 0-.457-.461zm0 0"/></svg>