<svg xmlns="http://www.w3.org/2000/svg" width="11" height="11"><path style="stroke:none;fill-rule:nonzero;fill:#000;fill-opacity:1" d="M10.543 5.957a.462.462 0 0 0-.461.461v.687l-2.75-2.062v-1.04a.574.574 0 0 0-.316-.507.57.57 0 0 0-.598.059V2.437c0-.09-.02-.175-.05-.253L5.75.172A.266.266 0 0 0 5.5 0c-.11 0-.21.066-.25.172l-.617 2.012a.684.684 0 0 0-.051.253v1.118a.57.57 0 0 0-.598-.059.574.574 0 0 0-.316.508v1.039L.918 7.105v-.687a.462.462 0 0 0-.461-.461.461.461 0 0 0-.457.461v3.207a.458.458 0 0 0 .918 0v-.457l3.664-.918v1.145l-1.02.875a.426.426 0 0 0-.09.464c.067.16.22.266.395.266l1.63-.23 1.636.23a.425.425 0 0 0 .394-.266.426.426 0 0 0-.09-.464l-1.019-.875V8.25l3.664.918v.457a.458.458 0 0 0 .918 0V6.418a.461.461 0 0 0-.457-.461zm0 0"/></svg>