<svg xmlns="http://www.w3.org/2000/svg" width="11" height="11"><path style="stroke:none;fill-rule:nonzero;fill:#000;fill-opacity:1" d="m4.473 8.8-1.79-.894.41-.82 2.407 1.2 2.406-1.2.41.82-1.789.895 1.79.894-.41.82L5.5 9.313l-2.406 1.204-.41-.82zM1.465.735h8.07c.402 0 .73.329.73.73v8.802H8.802L8.809 5.5a3.3 3.3 0 1 0-6.602 0l-.008 4.766H.734V1.465c0-.403.329-.73.73-.73zm3.668 1.832L5.5 5.133l1.102-1.465.503.945c.41.778.227 1.739-.445 2.293l-.031.024a1.728 1.728 0 0 1-2.242-.024 1.93 1.93 0 0 1-.473-2.308 13.3 13.3 0 0 1 .484-.93c.157-.242.399-.61.735-1.102zm0 0"/></svg>