<svg xmlns="http://www.w3.org/2000/svg" width="11" height="11"><path d="M7.809 1.523c.293 0 .293.59 0 .59h-.88c-.144 0-1.027-.441-.734-.59Zm-3.028 0c.293.149-.586.59-.734.59h-.879c-.293 0-.293-.59 0-.59ZM2.601 3.22c.297 0-.144.586-.292.586h-.586c-.293 0-.293-.586 0-.586Zm6.645 0c.293 0 .293.586 0 .586H8.66c-.144 0-.586-.586-.293-.586Zm.61 1.687c.292 0 .292.586 0 .586H9.27c-.293 0-.293-.586 0-.586Zm-8.153 0c.293 0 .293.586 0 .586h-.59c-.293 0-.293-.586 0-.586Zm.203 1.688c.149 0 .586.586.293.586h-.87c-.294 0-.294-.586 0-.586Zm7.73 0c.294 0 .294.586 0 .586h-.878c-.297 0 .144-.586.293-.586ZM8.646 8.28c.293 0 .293.586 0 .586H7.039c-.293-.148.586-.586.734-.586Zm-5.434 0c.148 0 1.027.438.734.586H2.34c-.293 0-.293-.586 0-.586Zm2.164-6.3c1.68 0 3.57 1.84 3.57 3.519 0 1.68-1.758 3.504-3.437 3.504-1.68 0-3.461-1.824-3.461-3.504s1.656-3.52 3.336-3.52ZM6.418.827s-.184.637-.918.637-.918-.637-.918-.637A4.79 4.79 0 0 0 .734 5.5c0 2.2 1.563 4.215 3.848 4.68 0 0 .184-.645.918-.645.695 0 .918.645.918.645a4.797 4.797 0 0 0 3.848-4.68c0-2.2-1.555-4.215-3.848-4.672ZM5.5.368A5.126 5.126 0 0 0 .367 5.5 5.124 5.124 0 0 0 5.5 10.633 5.121 5.121 0 0 0 10.633 5.5c0-2.84-2.29-5.133-5.133-5.133ZM5.5 0C8.527 0 11 2.48 11 5.5 11 8.527 8.535 11 5.5 11A5.508 5.508 0 0 1 0 5.5C0 2.48 2.48 0 5.5 0Zm0 0" style="stroke:none;fill-rule:nonzero;fill:#000;fill-opacity:1"/><path d="M5.5 2.492a.27.27 0 0 1 .27.274V2.75c.464.09.66.375.816.777h.074c.094 0 .168.102.168.22 0 .116-.074.222-.168.222H6.38v.761h.66c.125 0 .223.094.223.22v.652a.22.22 0 0 1-.223.222h-.66v1.473h.223c.152 0 .277.125.277.27a.278.278 0 0 1-.277.273H4.398a.278.278 0 0 1-.277-.274c0-.152.125-.27.277-.27h.223V5.825h-.66a.22.22 0 0 1-.223-.222v-.653c0-.125.098-.219.223-.219h.66V3.97H4.34c-.094 0-.16-.106-.16-.223 0-.125.074-.219.16-.219h.058c.157-.492.368-.609.832-.777v.016a.27.27 0 0 1 .27-.274Zm0 0" style="stroke:none;fill-rule:nonzero;fill:#000;fill-opacity:1"/></svg>