<svg xmlns="http://www.w3.org/2000/svg" width="11" height="11"><path style="stroke:none;fill-rule:nonzero;fill:#000;fill-opacity:1" d="M5.5.367a.52.52 0 0 1 .516.524V.863c.863.168 1.222.711 1.511 1.492h.137c.172 0 .313.188.313.422 0 .23-.141.418-.313.418h-.516V4.66h1.239c.226 0 .414.188.414.422V6.34c0 .23-.188.418-.414.418H7.148v2.828h.415a.52.52 0 0 1 .515.523.52.52 0 0 1-.515.524H3.438a.52.52 0 0 1-.516-.524c0-.289.23-.523.515-.523h.415V6.758H2.613A.418.418 0 0 1 2.2 6.34V5.082c0-.234.188-.422.414-.422h1.239V3.195h-.516c-.172 0-.313-.187-.313-.418 0-.234.141-.422.313-.422h.11c.28-.949.683-1.171 1.538-1.492v.028c0-.29.23-.524.516-.524zm0 0"/></svg>