<svg xmlns="http://www.w3.org/2000/svg" width="11" height="11"><path style="stroke:none;fill-rule:nonzero;fill:#000;fill-opacity:1" d="m4.477 8.8-1.793-.894.41-.82L5.5 8.289l2.406-1.203.41.82-1.793.895 1.793.894-.41.82L5.5 9.313l-2.406 1.204-.41-.82zM1.465.735h8.07c.402 0 .73.329.73.73v8.802H8.802L8.805 5.5a3.294 3.294 0 0 0-3.29-3.3h-.003a3.305 3.305 0 0 0-3.305 3.3l-.008 4.766H.734V1.465c0-.403.329-.73.73-.73zm3.668 1.832L5.5 5.133l1.102-1.465.503.945a1.852 1.852 0 0 1-.449 2.297l-.023.02a1.733 1.733 0 0 1-2.246-.02 1.933 1.933 0 0 1-.473-2.312c.238-.48.398-.793.484-.93.153-.242.399-.61.735-1.102zm0 0"/></svg>