<svg xmlns="http://www.w3.org/2000/svg" width="11" height="11"><path style="stroke:none;fill-rule:nonzero;fill:#000;fill-opacity:1" d="M5.5.367c.285 0 .512.235.512.52v-.02c.867.168 1.226.711 1.52 1.488h.132c.176 0 .316.188.316.426 0 .227-.14.418-.316.418h-.516v1.465h1.243c.226 0 .41.184.41.418v1.254a.412.412 0 0 1-.41.418H7.148v2.832h.415a.524.524 0 0 1 0 1.047H3.438a.524.524 0 0 1 0-1.047h.414V6.754H2.609a.412.412 0 0 1-.41-.418V5.082c0-.234.184-.418.41-.418h1.243V3.2h-.516c-.176 0-.309-.191-.309-.418 0-.238.133-.426.309-.426h.11c.28-.949.683-1.175 1.542-1.488v.02c0-.285.227-.52.512-.52zm0 0"/></svg>