<svg xmlns="http://www.w3.org/2000/svg" width="11" height="11"><path style="stroke:none;fill-rule:nonzero;fill:#000;fill-opacity:1" d="m.535 7.395-.012-.028c0-.02.016-.039.04-.039l1.066.004a.097.097 0 0 0 .098-.098c0-.043-.02-.074-.059-.097l-.973-.489a.083.083 0 0 1-.027-.058c0-.02.008-.04.016-.047 0 0 2.55-2.395 8.187-.074l1.547-.805a.108.108 0 0 1 .05-.012.125.125 0 0 1 .102.192L9.656 7.05l.914 1.207c.012.02.02.043.02.066 0 .07-.055.13-.121.13a.108.108 0 0 1-.051-.013l-1.547-.808S3.481 9.914.535 7.395zm1.719-.493c.203 0 .367-.175.367-.39 0-.219-.164-.395-.367-.395-.203 0-.363.176-.363.395 0 .215.16.39.363.39zM7.039 2.86v1.32h3.117c.344 0 .625-.292.625-.66 0-.367-.281-.66-.625-.66zm-5.742.95.285-.125.176.324.289-.223.203.305.273-.235.223.29.262-.254.234.277.25-.266.25.266.25-.266.246.266.25-.266.25.266.25-.266.246.266.25-.266.25.266.25-.266.246.266.293-.266.297.266V2.859H.22v.008c.222.383.664.703 1.078.942zm0 0"/></svg>