<svg xmlns="http://www.w3.org/2000/svg" width="11" height="11"><path style="stroke:none;fill-rule:nonzero;fill:#000;fill-opacity:1" d="M5.516 1.664c.39 0 .707-.316.707-.703a.706.706 0 0 0-1.41 0c0 .387.312.703.703.703zm4.421 8.05a1.54 1.54 0 0 0-1.285 0 1.488 1.488 0 0 1-.62.134 1.57 1.57 0 0 1-.626-.133 1.536 1.536 0 0 0-1.285 0 1.501 1.501 0 0 1-.621.133c-.223 0-.434-.051-.625-.133a1.536 1.536 0 0 0-1.285 0 1.483 1.483 0 0 1-.617.133 1.57 1.57 0 0 1-.625-.133 1.536 1.536 0 0 0-1.285 0 1.515 1.515 0 0 1-.622.133v.933c.22 0 .43-.05.622-.133.195-.09.414-.144.644-.144.227 0 .445.055.64.144.188.082.403.133.626.133.218 0 .43-.05.617-.133.2-.09.418-.144.644-.144.227 0 .446.055.641.144.191.082.402.133.625.133.219 0 .434-.05.621-.133.195-.09.414-.144.645-.144.226 0 .445.055.64.144.188.082.403.133.625.133.223 0 .434-.05.621-.133.196-.09.414-.144.641-.144.23 0 .45.055.645.144.187.082.402.133.62.133v-.933c-.218 0-.433-.047-.62-.133zM9.998.23a.183.183 0 0 0-.169.028L7.25 2.855c-.043-.02-.094.004-.145.004h-.972c-.164-.218-1.047-1.078-1.047-1.078a.351.351 0 0 0-.16-.101.509.509 0 0 0-.7.011L2.72 3.203c-.059.055-.078.133-.078.219v.976H.44v.442h2.2v2.535a.55.55 0 0 0 .546.566c.313 0 .551-.253.551-.566V4.84h1.543v3.3H.441v.66H5.72V4.84h.66v-.442h-2.64v-.18l1.425-1.413.582.593a.355.355 0 0 0 .246.122h1.113c.192 0 .375-.028.375-.22 0-.046.016-.179 0-.222C8.09 2.473 9.68.98 9.898.676V8.8h.223V.355c0-.054-.078-.101-.125-.125zm0 0"/></svg>