<svg xmlns="http://www.w3.org/2000/svg" width="11" height="11"><path style="stroke:none;fill-rule:nonzero;fill:#000;fill-opacity:1" d="M7.148 5.867c0-.91.743-1.652 1.653-1.652h1.648v1.101H8.801a.55.55 0 0 0-.551.551v1.281H5.867a.55.55 0 0 0-.55.551v1.285H2.933a.55.55 0 0 0-.551.551v.914H1.285v-.914a1.65 1.65 0 0 1 1.649-1.652h1.28v-.184c0-.91.743-1.648 1.653-1.648h1.281zM5.868 2.2h2.198s0 1.469-3.648 2.2c-.367.074-1.484.734-1.484 1.417.488.524.734 1.028.734 1.516s-.488.246-1.469-.73c-.976.976-1.465 1.218-1.465.73s.243-.977.73-1.465c0-1.43 0-2.199 1.102-3.668C3.668.734 6.602.734 7.332.734c.488 0 0 .489-1.465 1.465zm0 0"/></svg>