<svg xmlns="http://www.w3.org/2000/svg" width="11" height="11"><path style="stroke:none;fill-rule:nonzero;fill:#000;fill-opacity:1" d="M7.148 5.867c0-.91.743-1.652 1.653-1.652h1.648v1.101H8.801c-.301 0-.551.25-.551.551v1.281H5.867c-.3 0-.55.25-.55.551v1.285H2.933c-.301 0-.551.25-.551.551v.914H1.285v-.914c0-.91.738-1.652 1.649-1.652h1.28v-.184c0-.91.743-1.648 1.653-1.648h1.281zM5.868 2.2h2.198s0 1.469-3.652 2.2c-.367.074-1.48.734-1.48 1.417.492.52.734 1.028.734 1.516 0 .492-.492.242-1.469-.73-.972.972-1.465 1.222-1.465.73 0-.488.243-.973.73-1.465 0-1.43 0-2.199 1.102-3.668C3.668.734 6.602.734 7.332.734c.492 0 0 .493-1.465 1.465zm0 0"/></svg>