<svg xmlns="http://www.w3.org/2000/svg" width="11" height="11"><path style="stroke:none;fill-rule:nonzero;fill:#000;fill-opacity:1" d="M2.75 1.102c-1.648 0-2.2 1.464-2.2 3.296 0 1.47.735 1.47.735 0 0-1.832.73-2.566 1.465-2.566 1.285 0 2.016 2.383 2.016 3.3 0 0-.184-.183-.73-.183-.919 0-1.47.735-1.47 2.016 0 .918.551.918.551 0 0-.914.551-1.281.918-1.281.363 0 .914.183 1.098 1.648.207 1.453.523 1.457.707 0 .21-1.465.578-1.648 1.125-1.648.367 0 .734.367.734.918 0 1.097.551 1.097.551 0 0-1.286-.734-1.653-1.285-1.653-.547 0-.73.184-.73.184.183-1.281.73-2.934 1.831-2.934 1.102 0 1.649 1.469 1.649 2.75 0 1.285.734 1.285.734 0 0-2.383-1.097-3.484-2.383-3.484-1.648 0-2.382 1.836-2.566 2.933-.184-1.464-.918-3.296-2.75-3.296zm7.516 7.336a.367.367 0 1 1 0 .734.744.744 0 0 0-.438.242c-.2.211-.453.363-.734.441-.45.133-.934.032-1.293-.273l-.285-.254c0-.004-.004-.008-.008-.012a.566.566 0 0 0-.797.012c-.11.086-.2.188-.309.27a1.4 1.4 0 0 1-1.804-.051l-.285-.258a.55.55 0 0 0-.735 0c-.14.11-.262.242-.402.344a1.396 1.396 0 0 1-1.711-.043l-.262-.192a.697.697 0 0 0-.469-.226.367.367 0 1 1 0-.735h.043a.936.936 0 0 1 .5.118c.203.129.399.27.578.425.149.16.372.23.586.184a.565.565 0 0 0 .22-.117c.112-.086.214-.192.323-.285a1.393 1.393 0 0 1 1.79 0c.117.093.226.207.343.3a.55.55 0 0 0 .735 0c.117-.093.226-.207.343-.3a1.394 1.394 0 0 1 1.797 0c.11.093.215.199.324.285a.55.55 0 0 0 .735 0l.344-.3c.242-.204.554-.313.87-.31zm0 0"/></svg>