<svg xmlns="http://www.w3.org/2000/svg" width="11" height="11"><path style="stroke:none;fill-rule:nonzero;fill:#000;fill-opacity:1" d="M2.75 1.102c-1.648 0-2.2 1.464-2.2 3.296 0 1.47.735 1.47.735 0 0-1.832.73-2.566 1.465-2.566 1.285 0 2.016 2.383 2.016 3.3 0 0-.184-.183-.73-.183-.919 0-1.47.735-1.47 2.016 0 .918.551.918.551 0 0-.914.551-1.281.918-1.281.363 0 .914.183 1.098 1.648.207 1.453.527 1.453.71 0 .208-1.465.575-1.648 1.122-1.648.367 0 .734.367.734.918 0 1.097.551 1.097.551 0 0-1.286-.734-1.653-1.285-1.653-.547 0-.73.184-.73.184.183-1.281.73-2.934 1.831-2.934 1.102 0 1.649 1.469 1.649 2.75 0 1.285.734 1.285.734 0 0-2.383-1.097-3.484-2.383-3.484-1.648 0-2.382 1.836-2.566 2.933-.184-1.464-.918-3.296-2.75-3.296zm7.516 7.34c.207 0 .367.16.367.367a.37.37 0 0 1-.367.367.71.71 0 0 0-.438.238c-.2.215-.457.36-.734.441-.45.133-.934.032-1.293-.27l-.285-.257c0-.008-.008-.008-.008-.008a.559.559 0 0 0-.797.008c-.11.086-.2.192-.309.27a1.396 1.396 0 0 1-1.804-.051l-.285-.254a.541.541 0 0 0-.735 0c-.14.11-.262.242-.402.344a1.401 1.401 0 0 1-1.711-.043l-.262-.192a.623.623 0 0 0-.469-.226.37.37 0 0 1-.367-.367c0-.207.16-.368.367-.368h.043a.84.84 0 0 1 .5.118 4 4 0 0 1 .578.425c.149.16.375.227.586.184a.78.78 0 0 0 .22-.117c.112-.09.214-.192.323-.29.52-.429 1.27-.429 1.79 0 .117.098.226.208.343.302a.558.558 0 0 0 .735 0c.117-.094.226-.204.343-.301a1.394 1.394 0 0 1 1.797 0c.11.097.215.199.324.289.211.183.528.183.735 0l.344-.301c.242-.207.558-.316.87-.309zm0 0"/></svg>