<svg xmlns="http://www.w3.org/2000/svg" width="11" height="11"><path style="stroke:none;fill-rule:nonzero;fill:#000;fill-opacity:1" d="M4.398 7.7a1.1 1.1 0 0 1-2.136.366h-.125A1.1 1.1 0 0 1 0 7.7V1.832h.734v.367h9.532v-.367H11v5.867a1.1 1.1 0 0 1-2.137.367h-.125A1.1 1.1 0 0 1 6.601 7.7zm5.868-1.098V2.934H.734v3.668zM1.832 3.3c.203 0 .367.164.367.367v2.2a.367.367 0 1 1-.734 0v-2.2c0-.203.164-.367.367-.367zm1.469 0c.203 0 .367.164.367.367v2.2a.367.367 0 1 1-.734 0v-2.2c0-.203.164-.367.367-.367zm1.465 0c.203 0 .367.164.367.367v2.2a.367.367 0 1 1-.735 0v-2.2c0-.203.165-.367.368-.367zm1.468 0c.204 0 .368.164.368.367v2.2a.367.367 0 1 1-.735 0v-2.2c0-.203.164-.367.367-.367zm1.465 0c.203 0 .367.164.367.367v2.2a.367.367 0 1 1-.734 0v-2.2c0-.203.164-.367.367-.367zm1.469 0c.203 0 .367.164.367.367v2.2a.367.367 0 1 1-.734 0v-2.2c0-.203.164-.367.367-.367zM1.102 7.148a.55.55 0 1 0 0 1.102.55.55 0 0 0 .546-.55.55.55 0 0 0-.546-.552zm2.199 0a.55.55 0 1 0-.001 1.1.55.55 0 0 0 0-1.1zm4.398 0a.55.55 0 1 0-.001 1.1.55.55 0 0 0 .001-1.1zm2.2 0a.55.55 0 0 0-.547.551.55.55 0 1 0 1.097 0 .55.55 0 0 0-.55-.55zm0 0"/></svg>