<svg xmlns="http://www.w3.org/2000/svg" width="11" height="11"><path d="M4.398 7.7a1.097 1.097 0 0 1-2.132.366h-.133a1.091 1.091 0 0 1-1.031.735A1.1 1.1 0 0 1 0 7.699V1.832h.734v.367h9.532v-.367H11v5.867a1.1 1.1 0 0 1-1.102 1.102c-.476 0-.886-.309-1.03-.735h-.134A1.097 1.097 0 0 1 6.601 7.7Zm5.868-1.098V2.934H.734v3.668ZM1.832 3.3c.207 0 .367.16.367.367v2.2a.367.367 0 0 1-.734 0v-2.2c0-.207.164-.367.367-.367Zm1.469 0c.203 0 .367.16.367.367v2.2a.367.367 0 1 1-.734 0v-2.2c0-.207.16-.367.367-.367Zm1.465 0c.207 0 .367.16.367.367v2.2a.367.367 0 0 1-.734 0v-2.2c0-.207.163-.367.367-.367Zm1.468 0c.204 0 .368.16.368.367v2.2a.367.367 0 1 1-.735 0v-2.2c0-.207.16-.367.367-.367Zm1.465 0c.207 0 .367.16.367.367v2.2a.367.367 0 0 1-.734 0v-2.2c0-.207.164-.367.367-.367Zm1.469 0c.203 0 .367.16.367.367v2.2a.367.367 0 1 1-.734 0v-2.2c0-.207.16-.367.367-.367ZM1.102 7.148c-.301 0-.551.25-.551.551 0 .301.25.551.55.551a.552.552 0 0 0 0-1.102Zm2.199 0c-.301 0-.551.25-.551.551 0 .301.25.551.55.551.302 0 .552-.25.552-.55 0-.302-.25-.552-.551-.552Zm4.398 0c-.3 0-.55.25-.55.551 0 .301.25.551.55.551.301 0 .551-.25.551-.55 0-.302-.25-.552-.55-.552Zm2.2 0a.552.552 0 0 0 0 1.102c.3 0 .55-.25.55-.55 0-.302-.25-.552-.55-.552Zm0 0" style="stroke:none;fill-rule:nonzero;fill:#000;fill-opacity:1"/></svg>