<svg xmlns="http://www.w3.org/2000/svg" width="11" height="11"><path d="M8.8 8.8V7.7c0-.204.16-.368.368-.368h.73c.207 0 .368.164.368.367v2.2c0 .206-.16.367-.368.367H1.102a.362.362 0 0 1-.368-.368V7.7c0-.203.16-.367.368-.367h.73c.207 0 .367.164.367.367v1.102ZM5.134 4.036l-.98-.492a2.198 2.198 0 0 1-1.22-1.965V.734A4.204 4.204 0 0 1 5.5 3.125 4.204 4.204 0 0 1 8.066.735v.843c0 .828-.468 1.59-1.218 1.965l-.98.492v1.8A5.406 5.406 0 0 1 8.8 3.669a3.67 3.67 0 0 1-2.934 3.594v1.172h-.734V7.262a3.67 3.67 0 0 1-2.934-3.594 5.406 5.406 0 0 1 2.934 2.168Zm0 0" style="stroke:none;fill-rule:nonzero;fill:#000;fill-opacity:1"/></svg>