<svg xmlns="http://www.w3.org/2000/svg" width="11" height="11"><path style="stroke:none;fill-rule:nonzero;fill:#000;fill-opacity:1" d="M8.8 8.8V7.7c0-.204.165-.368.368-.368h.73c.204 0 .368.164.368.367v2.2a.367.367 0 0 1-.368.367H1.102a.367.367 0 0 1-.368-.368V7.7c0-.203.164-.367.368-.367h.73c.203 0 .367.164.367.367v1.102zM5.134 4.036l-.985-.492a2.203 2.203 0 0 1-1.214-1.969v-.84A4.214 4.214 0 0 1 5.5 3.125 4.214 4.214 0 0 1 8.066.735v.84c0 .831-.468 1.593-1.214 1.968l-.985.492v1.8a5.369 5.369 0 0 1 2.934-2.167 3.67 3.67 0 0 1-2.934 3.594v1.172h-.734V7.262a3.67 3.67 0 0 1-2.934-3.594 5.369 5.369 0 0 1 2.934 2.168zm0 0"/></svg>