<svg xmlns="http://www.w3.org/2000/svg" width="11" height="11"><path d="M6.602.367v.367h2.566c.367 0 .367.368.367.368v8.796s0 .368-.367.368H6.602v.367c0 .367-2.204.367-2.204 0v-.367H1.832c-.367 0-.367-.368-.367-.368V1.102s0-.368.367-.368h2.566V.367c0-.367 2.204-.367 2.204 0ZM5.5 2.2A3.29 3.29 0 0 0 2.2 5.5a3.29 3.29 0 0 0 3.3 3.3 3.29 3.29 0 0 0 3.3-3.3 3.29 3.29 0 0 0-3.3-3.3Zm0 0" style="stroke:none;fill-rule:nonzero;fill:#000;fill-opacity:1"/><path d="M7.332 6.602c0 .914-.73 1.464-1.648 1.464 1.464-1.464 0-1.28-.368-2.199-.183.735-.918 1.465 0 2.2-.734 0-1.648-.368-1.648-1.465 0-.735.73-1.47.73-2.934.184.547.551.914.551.914 0-1.281 1.285-2.016 1.285-2.016-.183 1.47.73 1.649.551 2.383-.183.918.547 1.102.547 1.653Zm0 0" style="stroke:none;fill-rule:nonzero;fill:#000;fill-opacity:1"/></svg>