<svg xmlns="http://www.w3.org/2000/svg" width="11" height="11"><path style="stroke:none;fill-rule:nonzero;fill:#000;fill-opacity:1" d="M4.398.367v1.098h1.836c.368 0 .368.367.368.367v7.336s0 .367-.368.367H4.398v1.098c0 .367-2.199.367-2.199 0V9.535H.367C0 9.535 0 9.168 0 9.168V1.832s0-.367.367-.367H2.2V.367C2.2 0 4.4 0 4.4.367zM3.301 2.934C1.832 2.934.734 4.035.734 5.5c0 1.465 1.098 2.566 2.567 2.566 1.465 0 2.566-1.101 2.566-2.566 0-1.465-1.101-2.566-2.566-2.566zm0 0"/><path style="stroke:none;fill-rule:nonzero;fill:#000;fill-opacity:1" d="M2.2 6.602h2.198c.368 0 .368.73 0 .73H2.2c-.367 0-.367-.73 0-.73zm-.368-2.567c-.184.18.809 1.172.809 1.172s-.075.145-.075.293c0 .367.274.734.735.734a.725.725 0 0 0 .734-.734.725.725 0 0 0-.734-.734c-.223 0-.293.074-.293.074s-.992-.988-1.176-.805zM11 6.602c0 1.28-1.102 1.648-1.832 1.648 1.465-1.465 0-1.465-.367-2.383-.184.735-.735 1.649 0 2.383-.735 0-1.469-.367-1.469-1.465 0-.734.55-2.02.55-3.484.184.55.735 1.097.735 1.097 0-1.28 1.098-2.566 1.098-2.566-.18 1.469.55 2.02.367 2.75-.184.918.918 1.469.918 2.02zm0 0"/></svg>