<svg xmlns="http://www.w3.org/2000/svg" width="11" height="11"><path d="M4.398.367v1.098h1.836c.368 0 .368.367.368.367v7.336s0 .367-.368.367H4.398v1.098c0 .367-2.199.367-2.199 0V9.535H.367C0 9.535 0 9.168 0 9.168V1.832s0-.367.367-.367H2.2V.367C2.2 0 4.4 0 4.4.367ZM3.301 2.75C1.648 2.75.55 3.852.55 5.5S1.648 8.25 3.3 8.25c1.648 0 2.75-1.102 2.75-2.75S4.949 2.75 3.3 2.75ZM11 6.602c0 1.28-1.102 1.648-1.832 1.648 1.465-1.465 0-1.465-.367-2.383-.184.735-.735 1.649 0 2.383-.735 0-1.469-.367-1.469-1.465 0-.734.55-2.02.55-3.484.184.55.735 1.097.735 1.097 0-1.28 1.098-2.566 1.098-2.566-.18 1.469.55 2.02.367 2.75-.184.918.918 1.469.918 2.02Zm0 0" style="stroke:none;fill-rule:nonzero;fill:#000;fill-opacity:1"/><path d="M3.3 3.3c1.247 0 2.2 1.028 2.2 2.2 0 1.172-.953 2.2-2.2 2.2-1.245 0-2.198-.954-2.198-2.2 0-1.246.953-2.2 2.199-2.2Zm-.44 2.712-.844.59s.406.585 1.285.585c.879 0 1.281-.585 1.281-.585l-.844-.59a.77.77 0 0 1-.879 0Zm.148-2.2c-.735.149-1.395.88-1.395 1.688 0 .46.133.645.133.645l.895-.57s-.075-.442.367-.66V3.811Zm.586 0v1.102c.441.219.367.66.367.66l.902.57s.125-.203.125-.644c0-.809-.66-1.54-1.394-1.688Zm0 0" style="stroke:none;fill-rule:nonzero;fill:#000;fill-opacity:1"/></svg>