<svg xmlns="http://www.w3.org/2000/svg" width="11" height="11"><path style="stroke:none;fill-rule:nonzero;fill:#000;fill-opacity:1" d="M1.926 9.898a1.209 1.209 0 1 1 0-2.418 1.209 1.209 0 1 1 0 2.418zM7.977 9.898a1.209 1.209 0 1 1-.005-2.417 1.209 1.209 0 0 1 .005 2.417zm0 0"/><path style="stroke:none;fill-rule:nonzero;fill:#000;fill-opacity:1" d="M9.184 1.465v3.3h.77c.405 0 .679 2.9.679 3.301 0 .403-.328.368-.735.368-.402 0-.714-1.356-1.921-1.356-1.211 0-1.54 1.723-2.11 1.723H4.035c-.406 0-.898-1.723-2.11-1.723-.808 0-.808.402-1.21.402-.402 0-.348-.476-.348-.878 0-.407.328-1.102.735-1.102h.73l1.102-3.3h-.735a.367.367 0 1 1 0-.735zm-.75.734H3.668L2.566 5.5h.735l.683-.523-.222-.278c-.063-.078-.063-.172.027-.258.094-.086.219-.03.258.028.043.058.691.855.691.855a.178.178 0 0 1-.027.258.185.185 0 0 1-.258-.027l-.262-.325-.582.418c.414.188.621 1.086.79 1.684h1.468l.735-.73s.421-1.836 1.152-1.836h.68zm0 0"/></svg>