<svg xmlns="http://www.w3.org/2000/svg" width="11" height="11"><path d="M1.93 9.898c-.676 0-1.211-.543-1.211-1.207a1.209 1.209 0 1 1 1.21 1.207ZM7.98 9.898c-.675 0-1.21-.543-1.21-1.207 0-.668.535-1.21 1.21-1.21.665 0 1.207.542 1.207 1.21A1.21 1.21 0 0 1 7.98 9.898Zm0 0" style="stroke:none;fill-rule:nonzero;fill:#000;fill-opacity:1"/><path d="M9.188 1.465v3.3h.769c.406 0 .676 2.9.676 3.301 0 .403-.328.368-.735.368-.402 0-.71-1.356-1.918-1.356-1.21 0-1.543 1.723-2.113 1.723H4.035c-.406 0-.898-1.723-2.105-1.723-.809 0-.809.402-1.211.402-.403 0-.352-.476-.352-.878 0-.407.328-1.102.735-1.102h.73l1.102-3.3h-.735a.367.367 0 1 1 0-.734Zm-.754.734H3.668L2.566 5.5h.735l.687-.527-.226-.274c-.067-.078-.067-.176.031-.254.086-.09.21-.039.254.02l.691.86a.184.184 0 0 1-.023.257.178.178 0 0 1-.258-.031l-.262-.32-.586.417c.418.188.621 1.09.79 1.684h1.468l.735-.73s.418-1.836 1.156-1.836h.676Zm0 0" style="stroke:none;fill-rule:nonzero;fill:#000;fill-opacity:1"/></svg>