<svg xmlns="http://www.w3.org/2000/svg" width="11" height="11"><path d="M3.3 7.45v.952c-.476.059-.917.184-.917.399 0 .328 1.012.437 1.652.437.637 0 1.649-.11 1.649-.437 0-.215-.442-.34-.918-.399V7.348c.234-.008.484-.016.734-.016 3.3 0 5.5.734 5.5 1.469 0 .734-2.2 1.465-5.5 1.465S0 9.536 0 8.8c0-.559 1.262-1.11 3.3-1.352ZM4.036 0c.203 0 .363.16.363.367v8.434h-.73V.367c0-.207.16-.367.367-.367Zm.73.367c.391.375.86.66 1.403.863.543.2 1.789.348 3.73.434-1.113 1.16-2.043 1.887-2.8 2.164-.746.27-1.524.27-2.332 0Zm0 0" style="stroke:none;fill-rule:nonzero;fill:#000;fill-opacity:1"/></svg>