<svg xmlns="http://www.w3.org/2000/svg" width="11" height="11"><path style="stroke:none;fill-rule:nonzero;fill:#000;fill-opacity:1" d="M3.3 7.453v.95c-.48.058-.917.183-.917.398 0 .332 1.015.441 1.652.441.633 0 1.649-.11 1.649-.441 0-.215-.438-.34-.918-.399V7.348c.238-.012.484-.016.734-.016 3.3 0 5.5.734 5.5 1.469 0 .734-2.2 1.465-5.5 1.465S0 9.536 0 8.8c0-.555 1.258-1.11 3.3-1.348zM4.036 0c.2 0 .363.164.363.367v8.434h-.73V.367c0-.203.164-.367.367-.367zm.73.367c.391.375.86.664 1.403.863.539.204 1.785.344 3.73.434-1.113 1.16-2.046 1.883-2.796 2.16-.754.278-1.532.278-2.336 0zm0 0"/></svg>