<svg xmlns="http://www.w3.org/2000/svg" width="11" height="11"><path style="stroke:none;fill-rule:nonzero;fill:#000;fill-opacity:1" d="M5.133 2.102a.732.732 0 0 1-.367-.637v-.086l-3.621.453a.37.37 0 0 1-.41-.32.374.374 0 0 1 .32-.41L4.773.637A.734.734 0 0 1 6.18.46L9.855.004c.2-.027.383.117.41.316a.37.37 0 0 1-.32.41l-3.71.465v.27a.732.732 0 0 1-.368.637v1.566h1.586c.356 0 .66.254.723.602l.597 3.285a.798.798 0 0 1-.003.289l-.575 2.582a.736.736 0 0 1-.718.574H3.523a.736.736 0 0 1-.718-.574L2.23 7.844a.798.798 0 0 1-.003-.29l.597-3.284a.733.733 0 0 1 .723-.602h1.586zm-1.48 2.296a.187.187 0 0 0-.18.149l-.496 2.566c-.004.012-.004.024-.004.035 0 .102.082.184.183.184H4.95a.183.183 0 0 0 .184-.184V4.582a.183.183 0 0 0-.184-.184zm3.695 0H6.05a.183.183 0 0 0-.184.184v2.566c0 .102.082.184.184.184h1.793a.183.183 0 0 0 .183-.184c0-.011 0-.023-.004-.035l-.496-2.566a.187.187 0 0 0-.18-.149zm0 0"/></svg>