<svg xmlns="http://www.w3.org/2000/svg" width="11" height="11"><path style="stroke:none;fill-rule:nonzero;fill:#000;fill-opacity:1" d="M5.133 2.105a.748.748 0 0 1-.367-.64v-.086l-3.621.453a.37.37 0 0 1-.41-.32.37.37 0 0 1 .32-.41L4.773.637A.728.728 0 0 1 5.5 0c.309 0 .57.191.684.46L9.855 0a.37.37 0 0 1 .41.324.375.375 0 0 1-.32.41l-3.71.461v.27a.748.748 0 0 1-.368.64v1.563h1.59c.352 0 .652.254.719.602l.594 3.285a.62.62 0 0 1 0 .293L8.19 10.43a.732.732 0 0 1-.71.57H3.52a.732.732 0 0 1-.711-.57L2.23 7.848a.62.62 0 0 1 0-.293l.594-3.285a.736.736 0 0 1 .719-.602h1.59zm-1.48 2.293c-.09 0-.16.059-.176.149l-.5 2.566c-.008.016-.008.024-.008.035 0 .106.09.184.183.184H4.95a.18.18 0 0 0 .184-.184V4.582a.183.183 0 0 0-.184-.184zm3.695 0H6.05a.183.183 0 0 0-.184.184v2.566a.18.18 0 0 0 .184.184h1.797a.186.186 0 0 0 .183-.184c0-.011 0-.02-.008-.035l-.5-2.566a.173.173 0 0 0-.175-.149zm0 0"/></svg>