<svg xmlns="http://www.w3.org/2000/svg" width="11" height="11"><path style="stroke:none;fill-rule:nonzero;fill:#000;fill-opacity:1" d="M.785 8.246 4.48 1.781l-3.335.414a.368.368 0 0 1-.41-.316.374.374 0 0 1 .32-.41L4.934.984l.25-.433a.363.363 0 0 1 .632 0l.176.3 3.863-.48c.2-.027.383.117.41.317a.371.371 0 0 1-.32.41l-3.562.445 3.832 6.703.004.004a.34.34 0 0 1 .047.191v1.094c0 .402-.329.73-.73.73H1.464a.732.732 0 0 1-.73-.73V8.441A.34.34 0 0 1 .78 8.25l.004-.004zm.68.285v.27h8.07v-.27l-3.937-6.89-.207.027zm1.469-1.93h2.199v1.833h-2.2zm2.933 0h2.2v1.833h-2.2zM4.398 4.399h2.204v1.836H4.398zm0 0"/></svg>