<svg xmlns="http://www.w3.org/2000/svg" width="11" height="11"><path style="stroke:none;fill-rule:nonzero;fill:#000;fill-opacity:1" d="m.785 8.242 3.695-6.46-3.335.417a.37.37 0 0 1-.41-.32.377.377 0 0 1 .32-.414l3.879-.48.25-.434a.366.366 0 0 1 .632 0l.176.3L9.855.368a.37.37 0 0 1 .41.32.377.377 0 0 1-.32.415l-3.558.437 3.828 6.703v.008c.039.059.05.125.05.191v1.094c0 .402-.328.73-.73.73h-8.07a.732.732 0 0 1-.73-.73V8.441c0-.066.011-.132.05-.191v-.008zm.68.285v.274h8.07v-.274L5.594 1.645l-.203.02zm1.469-1.925h2.199v1.832h-2.2zm2.933 0h2.2v1.832h-2.2zM4.398 4.398h2.204v1.836H4.398zm0 0"/></svg>