<svg xmlns="http://www.w3.org/2000/svg" width="11" height="11"><path style="stroke:none;fill-rule:nonzero;fill:#000;fill-opacity:1" d="M6.602.734c-.368.73-.735 1.098-1.102 1.098-.367 0-.734-.367-1.102-1.098-.73.243-1.097.73-1.097 1.465 0 1.102 1.097 1.469 1.097 3.301 0 1.223-1.218 2.078-3.664 2.566 0 .489.243.977.73 1.47.735.73 1.47 0 2.204 0 .73 0 .73.73 1.832.73s1.102-.73 1.832-.73c.734 0 1.469.73 2.203 0 .488-.493.73-.981.73-1.47C7.82 7.578 6.603 6.723 6.603 5.5c0-1.832 1.097-2.2 1.097-3.3 0-.735-.367-1.223-1.097-1.466zm0 0"/></svg>