<svg xmlns="http://www.w3.org/2000/svg" width="11" height="11"><path style="stroke:none;fill-rule:nonzero;fill:#000;fill-opacity:1" d="M2.2 9.352c0 .363 0 .73.366 1.097 0 .367-.367.551-.918.551-.546 0-.914-.367-.914-.918 0-.547.368-.914.914-.914.368 0 .551.184.551.184zm1.1-4.77c.184-.367.368-.547.735-.73 0-.735-.367-1.102-.918-1.102-.55 0-.918.367-.918.918 0 .184 0 .547.367.73.368 0 .551 0 .735.184zm0 4.035c-.366 0-.734.367-.734.918 0 .547.368.914.918.914.551 0 .914-.367.914-.55-.363-.364-.363-.731-.363-1.098-.367 0-.55 0-.734-.184zm-.734-1.285s-.183-.367-.55-.367c-.551 0-.914.367-.914.918 0 .55.363.918.914.918.55 0 .734-.367.734-.551-.184-.184-.367-.367-.184-.918zm1.286 1.102c.363 0 .363-.368.73-.551 0 0-.367-.367-.184-.918 0 0 0-.363-.546-.363-.551 0-.918.363-.918.914 0 .55.367.918.918.918zm1.464-4.399c.551 0 .918-.367.918-.918 0-.55-.367-.918-.918-.918-.55 0-.918.367-.918.918 0 .367.184.551.368.735.183 0 .55.183.55.183zm2.2 4.399c.55 0 .918-.368.918-.918 0-.184 0-.368-.184-.551-.367 0-.55-.18-.734-.363-.368 0-.551.183-.551.183.183.363 0 .73-.18 1.098 0 .183.18.55.73.55zm.367-4.036c.508 0 .918-.363.918-.914 0-.55-.367-.918-.918-.918s-.918.368-.918.918c0 .368.183.551.183.551.184.07.368.18.504.336.047.027.157.027.23.027zm.734 2.204c.551 0 .918-.368.918-.918 0-.551-.367-.918-.918-.918-.367 0-.55.183-.55.183s.183.735-.184 1.102c0 .367.367.55.734.55zm-3.3 3.296c.55 0 .917-.363.917-.914 0-.183 0-.367-.183-.55-.551.183-.735 0-1.102-.184-.183 0-.55.184-.55.734 0 .551.367.914.917.914zm1.468-3.664c.547 0 .914-.367.914-.918 0-.55-.367-.918-.914-.918-.55 0-.918.368-.918.918 0 .368.184.551.184.551.367 0 .55.184.734.367zm-4.402.368c.55 0 .918-.368.918-.918 0-.551-.367-.918-.918-.918s-.918.367-.918.918c0 .55.367.918.918.918zm2.199-.551c.55 0 .918-.367.918-.918s-.367-.918-.918-.918c-.547 0-.914.367-.914.918 0 .55.367.918.914.918zm1.102 2.015c.55 0 .918-.367.918-.918 0-.546-.368-.914-.918-.914-.551 0-.918.368-.918.914 0 .551.367.918.918.918zM9.714.184c-.73 0-2.015.918-2.929 1.832-.367.367 0 .734.363.367C8.25 1.285 8.801.918 9.898.55c.368-.184.368-.367-.183-.367zm0 0"/></svg>