<svg xmlns="http://www.w3.org/2000/svg" width="11" height="11"><path style="stroke:none;fill-rule:nonzero;fill:#000;fill-opacity:1" d="M3.988 4.754c.676-2.191 1.465-3.285 2.364-3.281.472-.028 1.367.136 1.73.453-.777.035-1.48.789-1.73 1.562-.094.29-.22 1.055-.383 2.29a16.864 16.864 0 0 0-.79 1.874c-.37-1.207-.765-2.172-1.19-2.898zM5.7 9.535l-.031-.133a207.73 207.73 0 0 0-.219-.832C6.516 5.3 7.695 3.668 8.984 3.672c.473-.02.934.094 1.297.324-.777.027-1.457.414-1.707.98-.164.376-.449 1.895-.851 4.56zM.734 4c.309-.23.707-.348 1.11-.328 1.207 0 2.304 1.953 3.289 5.867h-2.2c-.343-2.668-.597-4.187-.738-4.562C1.98 4.414 1.398 4.023.735 4zm0 0"/></svg>