<svg xmlns="http://www.w3.org/2000/svg" width="11" height="11"><path style="stroke:none;fill-rule:nonzero;fill:#000;fill-opacity:1" d="M9.535 2.75c.363 0 .547 0 .547.55.55 0 .55.368.55.735 0 .363 0 .73-.55.73V5.5c.55 0 .55.367.55.734 0 .32 0 .73-.55.73v1.102c0 .368-.246.551-.547.551-.305 0-.55-.183-.55-.55V6.964h-6.97v1.101c0 .368-.183.551-.55.551-.363 0-.547-.183-.547-.55V6.964c-.55 0-.55-.426-.55-.73 0-.368 0-.735.55-.735v-.734c-.55 0-.55-.426-.55-.73 0-.368 0-.735.55-.735 0-.551.184-.551.547-.551.367 0 .55 0 .55.55h6.97c0-.55.183-.55.55-.55zm-.55 2.016h-6.97V5.5h6.97zm0 0"/></svg>