<svg xmlns="http://www.w3.org/2000/svg" width="11" height="11"><path style="stroke:none;fill-rule:nonzero;fill:#000;fill-opacity:1" d="M3.953 9.871c.082.09.074.23-.012.313l-.48.445a.217.217 0 0 1-.309-.008l-2.78-3a.225.225 0 0 1 .007-.312l.48-.446a.217.217 0 0 1 .309.012zm3.55-5.64a.22.22 0 0 1-.01.308L4.483 7.352a.222.222 0 0 1-.312-.012l-.715-.777a.22.22 0 0 1 .008-.31l3.008-2.808a.222.222 0 0 1 .312.008zM4.978 8.913c.082.09.074.23-.012.313l-.48.449a.22.22 0 0 1-.31-.012l-2.78-3a.222.222 0 0 1 .011-.312l.477-.446a.217.217 0 0 1 .308.012zm4.632-4.578c.082.09.079.23-.011.312l-.48.446a.217.217 0 0 1-.31-.012l-2.78-2.996a.222.222 0 0 1 .011-.313l.477-.445a.222.222 0 0 1 .312.008zm1.02-.953a.225.225 0 0 1-.008.312l-.48.446a.217.217 0 0 1-.309-.012l-2.781-3a.222.222 0 0 1 .011-.313L7.54.371a.217.217 0 0 1 .309.012zm0 0"/></svg>