<svg xmlns="http://www.w3.org/2000/svg" width="11" height="11"><path d="M3.953 9.871a.23.23 0 0 1-.012.313l-.48.445a.217.217 0 0 1-.309-.008l-2.78-3a.225.225 0 0 1 .007-.312l.48-.446a.217.217 0 0 1 .309.008Zm3.55-5.644a.23.23 0 0 1-.01.312L4.483 7.352a.225.225 0 0 1-.312-.012l-.715-.774a.222.222 0 0 1 .012-.312L6.473 3.44a.23.23 0 0 1 .312.012Zm-2.53 4.687c.082.09.078.23-.008.313l-.48.445a.217.217 0 0 1-.31-.008l-2.78-3a.222.222 0 0 1 .011-.312l.477-.446a.225.225 0 0 1 .312.008l2.782 3Zm4.632-4.578c.082.09.079.23-.007.312l-.48.446a.217.217 0 0 1-.31-.008l-2.78-3a.222.222 0 0 1 .011-.313l.48-.445a.22.22 0 0 1 .31.008l2.78 3Zm1.024-.953a.222.222 0 0 1-.012.312l-.476.446a.222.222 0 0 1-.313-.012l-2.781-3A.224.224 0 0 1 7.059.82l.48-.449a.217.217 0 0 1 .309.012Zm0 0" style="stroke:none;fill-rule:nonzero;fill:#000;fill-opacity:1"/></svg>