<svg xmlns="http://www.w3.org/2000/svg" width="11" height="11"><path d="M9.29 5.566a.923.923 0 0 1 .347-.238l.945-.383c.11-.058.195-.199.195-.32V1.93a.346.346 0 0 0-.203-.297s-1.976-.75-3.3-.75c-1.231 0-2.934.648-2.934.648-.113.043-.305.09-.426.106l-3.477.375a.255.255 0 0 0-.218.246v1.828a.27.27 0 0 0 .218.258l3.473.562c.121.02.313.074.426.117l2.379.61c.117.015.25.125.289.242l1.398 4.04a.226.226 0 0 0 .282.136l1.476-.496a.217.217 0 0 0 .137-.278l-.969-2.8c-.039-.114-.074-.215-.074-.223l-.004-.008c-.117-.476.043-.672.043-.672ZM7.601 4.113a.987.987 0 0 1-.997-.98c0-.543.446-.98.997-.98.55 0 1 .437 1 .984 0 .543-.446.98-.997.98Zm0 0" style="stroke:none;fill-rule:nonzero;fill:#000;fill-opacity:1"/></svg>