<svg xmlns="http://www.w3.org/2000/svg" width="11" height="11"><path style="stroke:none;fill-rule:nonzero;fill:#000;fill-opacity:1" d="M9.293 5.566a.88.88 0 0 1 .344-.238l.945-.387c.11-.054.2-.195.2-.316V1.93a.343.343 0 0 0-.208-.297S8.598.879 7.274.879c-1.231 0-2.934.652-2.934.652-.113.043-.305.09-.426.106l-3.477.37a.255.255 0 0 0-.218.247v1.832a.27.27 0 0 0 .218.258l3.473.562c.121.02.309.07.422.117l2.379.61A.39.39 0 0 1 7 5.87l1.402 4.04c.04.116.164.179.278.14l1.48-.5a.217.217 0 0 0 .137-.278l-.973-2.8c-.039-.114-.07-.215-.074-.223v-.008c-.117-.476.043-.676.043-.676zM7.602 4.113a.987.987 0 0 1-.997-.98.99.99 0 0 1 .997-.985c.55 0 1 .442 1 .985a.99.99 0 0 1-1 .98zm0 0"/></svg>