<svg xmlns="http://www.w3.org/2000/svg" width="11" height="11"><path style="stroke:none;fill-rule:nonzero;fill:#000;fill-opacity:1" d="m5.766 7.453 3.492-2.016 1.652 2.86c.09.156.05.348-.082.46l-.078.052-.293.171c-.21.122-.52-.02-.703-.128l-.094-.059-.058-.043a.353.353 0 0 0-.211.008l-.067.031-1.14.656.55.953a.442.442 0 0 1 0 .325.41.41 0 0 1-.476.242l-.063-.02-2.418-1a6.876 6.876 0 0 0-1.183-.12c-.121 0-.274.019-.442.05l-.265.055-.75.172-.32.07c-.797.16-1.59.23-1.938-.195l-.059-.09-.183-.317 2.539-1.468c.379-.22.715-.278 1.043-.305l.492-.035c.273-.024.55-.067.855-.203zm2.539-3.656.039.055.547.949-3.176 1.836a2.73 2.73 0 0 1-1.192.355l-.261.016c-.344.02-.649.039-.989.199l-.144.078-2.86 1.649-.183-.317a.374.374 0 0 1 .078-.465l.055-.035 2.543-1.469a2.744 2.744 0 0 1 1.195-.355l.258-.016c.344-.02.648-.039.988-.199L5.352 6l-.184-.316a.37.37 0 0 1 .078-.465l.055-.035 2.539-1.47a.37.37 0 0 1 .418.036zM2.934 0l-.215.215c-.301.297-.48.695-.512 1.113l-.008.137h.735v1.469l-.735 1.464h.551c.102 0 .184.082.184.184v.367a.183.183 0 0 1-.184.184H.918a.183.183 0 0 1-.184-.184v-.367c0-.102.082-.184.184-.184h.547l-.73-1.464v-.735c0-1.172.913-2.129 2.07-2.195zm6.964 1.465a.734.734 0 1 1 0 1.469H3.301v-1.47zm0 0"/></svg>