<svg xmlns="http://www.w3.org/2000/svg" width="11" height="11"><path style="stroke:none;fill-rule:nonzero;fill:#000;fill-opacity:1" d="M6.348 6.32a.545.545 0 0 0 .695-.328.528.528 0 0 0-.336-.676.547.547 0 0 0-.695.329.527.527 0 0 0 .336.675zm4.476-3.465s-1.847-.218-5.683-.218C2.312 2.637 0 2.855 0 2.855s.957.41.793 1.684c0 0 1.375-.156 1.95.988l2.585-.761-.168 1.68-1.094.261a.527.527 0 0 0-.246.125L1.422 9.086a.334.334 0 0 0-.008.484c.137.14.363.145.5.012L3.72 7.891l2.21-.528-.015.004.367-.09.336.375c.055.055.13.09.207.09l1.192.004c.148 0 .27-.117.27-.266 0-.128-.09-.226-.212-.257l-.886-3.004 3.69-1.09c.177-.074.161-.25-.054-.274zM7.81 7.211c-.27 0-.723-.004-.86-.004l-.64-.703-.028-.02a.559.559 0 0 0-.543-.18l-.32.079.172-1.696 1.355-.398zm0 0"/></svg>