<svg xmlns="http://www.w3.org/2000/svg" width="11" height="11"><path style="stroke:none;fill-rule:nonzero;fill:#000;fill-opacity:1" d="M2.938 2.934h5.124v-1.47H6.966v-.73H8.27c.316 0 .597.2.699.5l.527 1.586c.024.075.04.153.04.23v6.485c0 .809-.661 1.465-1.47 1.465H2.934a1.469 1.469 0 0 1-1.47-1.465V3.051c0-.078.016-.156.04-.23l.527-1.587c.102-.3.383-.5.7-.5h1.304v.73H2.937zM2.195 5.5l.012 2.203c0 .2.164.363.367.363h2.2A.37.37 0 0 0 5.14 7.7L5.129 5.5a.37.37 0 0 0-.367-.367h-2.2a.367.367 0 0 0-.367.367zm4.407 4.035a.732.732 0 1 0 1.463-.003.732.732 0 0 0-1.463.003zm-2.204 0a.733.733 0 1 0-1.465-.003.733.733 0 0 0 1.465.003zm-.73-5.5v.008c.008.2.168.355.367.355h2.942c.195 0 .355-.16.355-.355v-.02a.364.364 0 0 0-.367-.355H4.027c-.199 0-.359.16-.359.355v.012zM5.863 5.5l.012 2.203c0 .2.164.363.367.363h2.196a.367.367 0 0 0 .367-.367L8.793 5.5a.366.366 0 0 0-.363-.367h-2.2a.367.367 0 0 0-.367.367zM4.398.367c0-.203.165-.367.368-.367H6.23c.2 0 .364.164.368.363l.007 1.469a.37.37 0 0 1-.367.367H4.773a.366.366 0 0 1-.367-.363zm0 0"/></svg>