<svg xmlns="http://www.w3.org/2000/svg" width="11" height="11"><path style="stroke:none;fill-rule:nonzero;fill:#000;fill-opacity:1" d="M9.535 9.535V5.5a.367.367 0 0 0-.367-.367H1.832a.367.367 0 0 0-.367.367v4.035H0v-2.57a5.5 5.5 0 0 1 11 0v2.57zM2.566 3.668a.366.366 0 1 0 0 .73h2.2a.366.366 0 1 0 0-.73zm3.668 0a.366.366 0 1 0 0 .73h2.2a.366.366 0 1 0 0-.73zM2.2 8.801h2.934v.734H2.199zm0-1.469h2.934v.734H2.199zm0-1.465h2.934v.735H2.199zm3.668 0h2.934v.735H5.867zm0 1.465h2.934v.734H5.867zm0 1.469h2.934v.734H5.867zm0 0"/></svg>