<svg xmlns="http://www.w3.org/2000/svg" width="11" height="11"><path d="M6.348 6.32a.547.547 0 0 0 .695-.328.53.53 0 0 0-.336-.676.547.547 0 0 0-.695.329.527.527 0 0 0 .336.675Zm4.476-3.465s-1.847-.214-5.683-.214C2.312 2.64 0 2.855 0 2.855s.96.41.793 1.684c0 0 1.375-.16 1.95.988l2.585-.761-.172 1.68-1.093.261a.547.547 0 0 0-.247.125L1.418 9.086a.334.334 0 0 0-.004.484c.133.14.36.145.496.016l1.805-1.691 2.21-.528-.015.004.367-.094.34.375a.29.29 0 0 0 .207.09l1.192.008a.273.273 0 0 0 .273-.27.266.266 0 0 0-.215-.253l-.886-3.008 3.69-1.09c.177-.074.161-.25-.054-.27ZM7.81 7.211h-.86l-.64-.707-.028-.02a.542.542 0 0 0-.539-.175l-.32.074.172-1.696 1.351-.398Zm0 0" style="stroke:none;fill-rule:nonzero;fill:#000;fill-opacity:1"/></svg>