<svg xmlns="http://www.w3.org/2000/svg" width="11" height="11"><path d="M0 4.766c0 1.101.734 2.199 1.465 2.199 1.101 0 1.469 0 1.469-.73 0-.735-1.102-.735-1.102-1.837 0-.73 0-1.464-1.098-1.464-.367 0-.734.734-.734 1.832Zm4.035 1.468c0 .368-.367.73-.734.73s-.367 0-.367-.362c0-.735-.368-1.102.367-1.102.367 0 .734.367.734.734Zm0 0" style="stroke:none;fill-rule:nonzero;fill:#000;fill-opacity:1"/><path d="M6.602 0C9.535 0 11 1.465 11 3.668 11 5.5 9.535 6.234 9.168 8.066 8.801 9.168 8.066 11 6.602 11c-1.47 0-1.836-1.102-2.567-2.2-.734-1.1 0-1.468.363-1.1.368.366 1.102 2.566 2.204 2.566.73 0 1.464-1.465 1.832-2.567.367-1.832 1.832-2.566 1.832-4.031 0-1.836-1.098-2.934-3.664-2.934-1.836 0-2.567 1.098-2.567 2.2 0 .734-.734.734-.734 0C3.3 1.102 4.398 0 6.6 0Zm.363 1.832c-1.465 0-2.2.734-2.2 1.836 0 .73 0 1.465.368 1.832.367.367.734.734.367 1.102-.367.363.367 1.097 1.102 0 .363-.735 0-1.102-.368-1.47-.367-.366-.734-.734-.734-1.464 0-.367.367-1.469 1.465-1.469.734 0 1.836.367 1.836 1.469 0 1.098-.735 1.832-.367 1.832.367 0 .734-1.102.734-1.832 0-1.469-1.469-1.836-2.203-1.836Zm0 0" style="stroke:none;fill-rule:nonzero;fill:#000;fill-opacity:1"/></svg>