<svg xmlns="http://www.w3.org/2000/svg" width="11" height="11"><path style="stroke:none;fill-rule:nonzero;fill:#000;fill-opacity:1" d="m4.215 9.168-.18.367h2.93l-.18-.367h1.098L8.8 11H7.699l-.367-.734H3.668L3.301 11H2.199l.918-1.832zm5.32-7.703v5.867c0 .809-.66 1.469-1.469 1.469H2.934c-.809 0-1.47-.66-1.47-1.469V1.465C1.465.66 2.126 0 2.935 0h5.132c.809 0 1.47.66 1.47 1.465zm-2.933 5.5a.733.733 0 1 0 1.465.003.733.733 0 0 0-1.465-.003zm-2.204 0a.732.732 0 1 0-1.463.003.732.732 0 0 0 1.463-.003zM2.2 2.566l.008 2.2c0 .207.168.367.367.367h2.2c.199 0 .367-.16.367-.367l-.016-2.2a.364.364 0 0 0-.367-.367H2.566a.367.367 0 0 0-.367.367zm3.668 0 .008 2.2c0 .207.168.367.367.367h2.2a.37.37 0 0 0 .367-.367l-.016-2.2a.364.364 0 0 0-.367-.367H6.234a.364.364 0 0 0-.367.367zM2.934 1.102c0 .203.16.363.367.363h4.398c.207 0 .367-.16.367-.363A.362.362 0 0 0 7.7.734H3.301a.362.362 0 0 0-.367.368zm0 0"/></svg>