<svg xmlns="http://www.w3.org/2000/svg" width="11" height="11"><path style="stroke:none;fill-rule:nonzero;fill:#000;fill-opacity:1" d="M7.332 8.484 5.5 6.914l-1.832 1.57v1.051h-.734v-1.05L.746 6.612H.551C.25 6.613 0 6.367 0 6.066V1.957a.55.55 0 0 1 .492-.543l1.156-.129a29.35 29.35 0 0 1 3.309-.183h1.086c1.102 0 2.207.058 3.309.183l1.156.13a.55.55 0 0 1 .492.542v4.11c0 .3-.25.546-.55.546h-.196L8.066 8.484v1.051h-.734zm.734-.921 1.102-.961H6.234l1.098.96v-.96h.734zm-4.398 0 1.098-.961H1.832l1.102.96v-.96h.734zm0 0"/></svg>