<svg xmlns="http://www.w3.org/2000/svg" width="11" height="11"><path style="stroke:none;fill-rule:nonzero;fill:#000;fill-opacity:1" d="M7.332 8.484 5.5 6.914l-1.832 1.57v1.051h-.734v-1.05L.75 6.612h-.2A.55.55 0 0 1 0 6.066V1.957c0-.277.21-.516.488-.543l1.16-.129a29.368 29.368 0 0 1 3.313-.183h1.078c1.106 0 2.211.058 3.313.183l1.16.13a.546.546 0 0 1 .488.542v4.11a.55.55 0 0 1-.55.546h-.2L8.066 8.484v1.051h-.734zm.734-.921 1.102-.961H6.234l1.098.96v-.96h.734zm-4.398 0 1.098-.961H1.832l1.102.96v-.96h.734zm0 0"/></svg>