<svg xmlns="http://www.w3.org/2000/svg" width="11" height="11"><path style="stroke:none;fill-rule:nonzero;fill:#000;fill-opacity:1" d="M1.559 2.293v8.066H.64V1.102C.64.848.848.64 1.1.64c.25 0 .458.207.458.46v.274H9.44v-.273c0-.254.207-.461.457-.461.254 0 .461.207.461.46v9.258h-.918V2.293H8.066v.64H7.81l-1.47 1.465H5.028l1.465-1.464h.84v-.641H3.668v.64h.473L2.676 4.399h-.11a.366.366 0 0 1-.367-.363v-.734c0-.203.164-.367.367-.367h.368v-.641zm4.414.64L4.508 4.399H3.19l1.47-1.464zm2.351 0h.11c.203 0 .367.165.367.368v.734c0 .2-.164.363-.367.363H6.859zm0 0"/></svg>