<svg xmlns="http://www.w3.org/2000/svg" width="11" height="11"><path style="stroke:none;fill-rule:nonzero;fill:#000;fill-opacity:1" d="M1.563 2.297v8.066H.644V1.102c0-.258.199-.457.457-.457.253 0 .46.199.46.457v.277h7.883v-.277c0-.258.2-.457.453-.457.258 0 .465.199.465.457v9.261h-.918V2.297H8.066v.637H7.81L6.344 4.398h-1.32l1.464-1.464h.844v-.637H3.668v.637h.477l-1.47 1.464h-.109a.363.363 0 0 1-.367-.363v-.734c0-.207.164-.367.367-.367h.368v-.637zm4.414.637L4.512 4.398h-1.32l1.464-1.464zm2.347 0h.11c.203 0 .367.16.367.367v.734a.363.363 0 0 1-.367.363H6.855zm0 0"/></svg>