<svg xmlns="http://www.w3.org/2000/svg" width="11" height="11"><path d="M4.707 1.523s1.254 2.247 3.14.407l.786 1.187s-2.7 1.871-3.926-1.594ZM.785 3.117c.227.485.52 1.078.785 1.59.395-.797 1.567-.797 1.567-.797.785 0 1.367.313 1.367.82 0 .5-.582.77-1.367.77v1.195c1.027-.199 1.57.625 1.32 1.196C3.98 8.969 1.18 9.094 0 7.09c0 3.168 2.7 3.176 3.137 3.176 1.57 0 2.355-1.59 2.355-3.176.41.433 1.063.433 1.57 0 .711-.606.989-1.598 1.965-1.59 1.188.008 1.172 2.383.387 3.176-.781.8-2.66.511-3.137-.793 0 .793 0 2.383 2.356 2.383 2.351 0 2.828-2.692 1.965-4.766-.536-1.285-1.547-1.629-2.633-1.29-.836.263-.8.645-1.293 1.29-.262.316-.395.793-1.18.793-.27 0-.601-.215-.785-.398.977-.704.828-2.051 0-2.778-1.086-.953-3.012-.754-3.922 0Zm4.707-1.594.785-.789.785.79-.785.8Zm0 0" style="stroke:none;fill-rule:nonzero;fill:#000;fill-opacity:1"/></svg>