<svg xmlns="http://www.w3.org/2000/svg" width="11" height="11"><path style="stroke:none;fill-rule:nonzero;fill:#000;fill-opacity:1" d="M4.707 1.527s1.258 2.243 3.14.399l.786 1.191S5.93 4.988 4.707 1.527zM.785 3.117c.227.485.52 1.078.785 1.59.395-.797 1.57-.797 1.57-.797.786 0 1.36.313 1.36.817 0 .503-.574.773-1.36.773v1.191c1.028-.195 1.57.63 1.32 1.2C3.985 8.969 1.18 9.098 0 7.09c0 3.168 2.7 3.176 3.14 3.176 1.567 0 2.352-1.59 2.352-3.176.41.43 1.067.433 1.57 0 .711-.61.989-1.598 1.965-1.59 1.188.008 1.176 2.383.391 3.176-.785.797-2.664.515-3.14-.793 0 .793 0 2.383 2.355 2.383s2.832-2.688 1.96-4.766c-.534-1.285-1.542-1.629-2.628-1.29-.836.267-.797.642-1.293 1.29-.258.316-.395.793-1.18.793-.27 0-.605-.215-.785-.395.973-.703.832-2.054 0-2.78-1.086-.954-3.012-.759-3.922 0zm4.707-1.59.785-.793.785.793-.785.797zm0 0"/></svg>