<svg xmlns="http://www.w3.org/2000/svg" width="11" height="11"><path style="stroke:none;fill-rule:nonzero;fill:#000;fill-opacity:1" d="M10.266 11h-.73V1.465h-.919v2.203a.551.551 0 0 1-.183.41l-.063.047-1.77 1.18v2.457l1.25 1.254c.266.261.286.68.063.968l-.062.067a.734.734 0 0 1-.97.062l-.066-.062-1.468-1.465a.745.745 0 0 1-.207-.422l-.008-.098v-.43l-.574.575.496.996.035.078a.732.732 0 0 1-.363.902.732.732 0 0 1-.942-.25l-.043-.078-.73-1.464-.04-.086a.733.733 0 0 1 .114-.692l.062-.07 1.25-1.25v-.992l-1.77-1.18-.062-.047a.546.546 0 0 1-.175-.332l-.008-.078V1.465h-.918V11h-.73V.367a.366.366 0 1 1 .73 0v.367h.918L2.387.66a.555.555 0 0 1 .472-.473l.075-.003.074.004a.547.547 0 0 1 .469.472l.007.074h4.032c0-.28.207-.507.476-.546l.074-.004c.278 0 .508.207.547.476l.004.074h.918V.367a.366.366 0 1 1 .73 0zm-2.75-9.535H3.484V3.37l1.543 1.027h.946l1.543-1.027zM5.5 1.832a1.103 1.103 0 1 1-.002 2.2 1.103 1.103 0 0 1 .002-2.2zm0 0"/></svg>