<svg xmlns="http://www.w3.org/2000/svg" width="11" height="11"><path style="stroke:none;fill-rule:nonzero;fill:#000;fill-opacity:1" d="M10.266 11h-.73V1.465h-.919v2.203a.551.551 0 0 1-.183.41l-.059.043L6.602 5.31v2.457l1.253 1.246a.734.734 0 0 1 .06.968l-.06.075a.734.734 0 0 1-.968.058l-.074-.058-1.465-1.47a.757.757 0 0 1-.207-.425l-.008-.094v-.425l-.57.574.488.988.039.082a.728.728 0 0 1-.36.902.737.737 0 0 1-.945-.25l-.039-.074-.73-1.465-.04-.09a.714.714 0 0 1 .11-.687l.059-.074 1.253-1.254v-.984L2.625 4.12l-.059-.043a.566.566 0 0 1-.175-.332l-.008-.078V1.465h-.918V11h-.73V.367C.734.16.894 0 1.101 0c.203 0 .363.16.363.367v.367h.918L2.39.66a.543.543 0 0 1 .468-.469l.075-.007.074.007a.543.543 0 0 1 .469.47l.007.073h4.032c0-.28.207-.507.476-.543l.074-.007c.278 0 .508.203.543.476l.008.074h.918V.367c0-.207.16-.367.363-.367.207 0 .368.16.368.367zm-2.75-9.535H3.484v1.91l1.54 1.023h.953l1.539-1.023zM5.5 1.832a1.1 1.1 0 0 1 1.102 1.102A1.1 1.1 0 0 1 5.5 4.035a1.1 1.1 0 0 1-1.102-1.101A1.1 1.1 0 0 1 5.5 1.832zm0 0"/></svg>