<svg xmlns="http://www.w3.org/2000/svg" width="11" height="11"><path style="stroke:none;fill-rule:nonzero;fill:#000;fill-opacity:1" d="M.684 2.434c.062 0 .125.007.187.03 1.945.556 3.492.837 4.629.837 1.137 0 2.684-.281 4.629-.836a.67.67 0 0 1 .84.46.546.546 0 0 1 .031.192c0 .61-.344 1.156-.887 1.43a8.824 8.824 0 0 1-1.789.637l.395 1.78h.652a.75.75 0 0 1 .7.5l.117.36a.194.194 0 0 1-.118.235c-.015.007-.039.007-.058.007H.988a.18.18 0 0 1-.18-.183c0-.02 0-.035.004-.059l.118-.36a.75.75 0 0 1 .699-.5h.652l.395-1.78a8.824 8.824 0 0 1-1.79-.637A1.597 1.597 0 0 1 0 3.117c0-.375.309-.683.684-.683zm5.918 3.023a14.27 14.27 0 0 1-2.204 0v1.508h2.204zM3.668 3.668c-.406 0-.734.16-.734.367 0 .203.328.363.734.363.402 0 .73-.16.73-.363 0-.207-.328-.367-.73-.367zm3.664 0c-.402 0-.73.16-.73.367 0 .203.328.363.73.363.406 0 .734-.16.734-.363 0-.207-.328-.367-.734-.367zm0 0"/></svg>