<svg xmlns="http://www.w3.org/2000/svg" width="11" height="11"><path style="stroke:none;fill-rule:nonzero;fill:#000;fill-opacity:1" d="M.684 2.434c.062 0 .125.007.187.027 1.945.559 3.488.84 4.629.84 1.14 0 2.684-.281 4.629-.84a.68.68 0 0 1 .871.656c0 .606-.344 1.16-.89 1.426a8.63 8.63 0 0 1-1.786.64l.395 1.782h.652a.73.73 0 0 1 .695.504l.121.355c.032.098-.019.2-.117.235a.302.302 0 0 1-.058.007H.988a.183.183 0 0 1-.183-.183c0-.02.004-.04.007-.059l.122-.355a.73.73 0 0 1 .695-.504h.652l.395-1.781A8.63 8.63 0 0 1 .89 4.543 1.584 1.584 0 0 1 0 3.117c0-.379.305-.683.684-.683zm5.918 3.023a14.348 14.348 0 0 1-2.204 0v1.508h2.204zM3.668 3.668c-.406 0-.734.164-.734.367 0 .2.328.363.734.363.402 0 .73-.164.73-.363 0-.203-.328-.367-.73-.367zm3.664 0c-.402 0-.73.164-.73.367 0 .2.328.363.73.363.406 0 .734-.164.734-.363 0-.203-.328-.367-.734-.367zm0 0"/></svg>