<svg xmlns="http://www.w3.org/2000/svg" width="11" height="11"><path style="stroke:none;fill-rule:nonzero;fill:#000;fill-opacity:1" d="M1.465.734h1.613c.809 0 .809.793.809 1.586 0 2.422-2.367 6.36 1.613 6.36 3.988 0 1.613-3.946 1.613-6.36 0-.793 0-1.586.809-1.586h1.613v.793c0 .532-.246.754-.734.672-.035.352-.035.594 0 .735.37 1.449.734 2.765.734 4.156 0 2.383-1.996 3.176-4.035 3.176-2.04 0-4.035-.793-4.035-3.176 0-1.305.406-2.797.734-4.156.051-.2.051-.442 0-.735-.488.082-.734-.14-.734-.672zm0 0"/><path style="stroke:none;fill-rule:nonzero;fill:#000;fill-opacity:1" d="M5.5 3.668c.406 0 .773-.125 1.102-.367l-.735 4.765h-.734l-.735-4.765c.329.242.696.367 1.102.367zm0 0"/><path style="stroke:none;fill-rule:nonzero;fill:#000;fill-opacity:1" d="M5.5 3.3c.61 0 1.102-.327 1.102-.734 0-.406-.551-.734-1.102-.734-.55 0-1.102.328-1.102.734 0 .407.493.735 1.102.735zm0 0"/></svg>