<svg xmlns="http://www.w3.org/2000/svg" width="11" height="11"><path style="stroke:none;fill-rule:nonzero;fill:#000;fill-opacity:1" d="m8.8 4.398.65.653a.723.723 0 0 1 .136.187l.68 1.364v.136a.339.339 0 0 1-.04.164.361.361 0 0 1-.492.164l-.933-.464c-.031.02-.68-.133-.735-.368a111.774 111.774 0 0 0 0 1.832l.368.735v1.465H7.332V8.8c-.242-.489-.61-.735-1.098-.735-.734 0-1.109.653-1.101.735v1.465H4.035V8.8l.363-.723V6.613L2.934 8.801c-.004.058-.004-.672 0-2.188 0-.406.328-.738.734-.742h.168c.242 0 .465.14.562.363.133-.199.497-.359.735-.367h1.465L8.8 3.668zm-6.6.735v5.133H.733V5.707L0 5.984V4.398L10.266.734v1.567zm0 0"/></svg>