<svg xmlns="http://www.w3.org/2000/svg" width="11" height="11"><path style="stroke:none;fill-rule:nonzero;fill:#000;fill-opacity:1" d="M1.465.734h1.613c.809 0 .809.79.809 1.59 0 2.414-2.367 6.352 1.613 6.352 3.988 0 1.613-3.938 1.613-6.352 0-.8 0-1.59.809-1.59h1.613v.79c0 .538-.242.757-.734.675-.04.352-.04.594 0 .735.375 1.453.734 2.765.734 4.156 0 2.387-1.996 3.176-4.035 3.176-2.04 0-4.035-.79-4.035-3.176 0-1.305.406-2.8.734-4.156.051-.2.051-.442 0-.735-.492.082-.734-.136-.734-.676zm0 0"/><path style="stroke:none;fill-rule:nonzero;fill:#000;fill-opacity:1" d="M5.5 3.668c.402 0 .77-.125 1.102-.367l-.735 4.765h-.734l-.735-4.765c.332.242.7.367 1.102.367zm0 0"/><path style="stroke:none;fill-rule:nonzero;fill:#000;fill-opacity:1" d="M5.5 3.3c.61 0 1.102-.331 1.102-.734 0-.402-.551-.734-1.102-.734-.55 0-1.102.332-1.102.734 0 .403.493.735 1.102.735zm0 0"/></svg>