<svg xmlns="http://www.w3.org/2000/svg" width="11" height="11"><path d="M6.602 1.523V.734h1.464v1.047c.477.11.961.25 1.47.418v1.102H1.464V2.199c1.469-.492 2.808-.734 4.035-.734.36 0 .727.023 1.102.058Zm.496 8.012h-.102a.545.545 0 0 0-.351.16c-.102.086-.2.176-.31.262a1.427 1.427 0 0 1-1.82-.05l-.285-.25a.52.52 0 0 0-.261-.122h-.207a.533.533 0 0 0-.266.121c-.137.114-.262.23-.402.34a1.419 1.419 0 0 1-1.723-.043l-.226-.191a.664.664 0 0 0-.41-.227V8.82a.9.9 0 0 1 .55.098c.203.125.395.262.578.418a.645.645 0 0 0 .446.2c.03-.009.066-.009.105-.009.012-.007.027-.007.043-.015a.677.677 0 0 0 .227-.11c.117-.09.214-.191.332-.28.195-.161.421-.263.66-.302a.526.526 0 0 1 .32-.011c.293.011.578.117.817.312.117.09.226.2.343.293a.59.59 0 0 0 .196.113c.14.008.28 0 .414-.03a.509.509 0 0 0 .12-.083c.122-.094.231-.203.348-.293.192-.16.41-.254.637-.3a.682.682 0 0 1 .234-.02c.332-.008.66.101.934.32.11.09.211.191.32.281a.578.578 0 0 0 .325.133.927.927 0 0 0 .203-.023.587.587 0 0 0 .207-.11l.344-.293c.234-.191.527-.293.828-.289v.715a.716.716 0 0 0-.496.246c-.2.207-.457.352-.735.426a1.4 1.4 0 0 1-1.297-.262l-.289-.25a.545.545 0 0 0-.351-.16Zm-1.446 0a.592.592 0 0 1-.261 0Zm3.883-1.234c-.031.023-.066.043-.098.074l-.343.293a.577.577 0 0 1-.735 0c-.109-.09-.21-.191-.32-.277a1.414 1.414 0 0 0-1.805 0c-.117.086-.226.195-.347.293a.572.572 0 0 1-.73 0c-.118-.098-.227-.207-.345-.293a1.424 1.424 0 0 0-1.796 0c-.118.086-.215.187-.332.277a.61.61 0 0 1-.82-.066 4.43 4.43 0 0 0-.4-.301v-.969h8.071ZM6.602 6.965V5.133H4.398v1.832H2.2V3.668h6.602v3.297Zm0 0" style="stroke:none;fill-rule:nonzero;fill:#000;fill-opacity:1"/></svg>