<svg xmlns="http://www.w3.org/2000/svg" width="11" height="11"><path style="stroke:none;fill-rule:nonzero;fill:#000;fill-opacity:1" d="m6.71 6.469 1.45.816.79-.789.585.195V11H6.602V8.066H4.398V11H1.465V6.691l.586-.195.789.79 1.45-.817L5.5 7.777zm-.003-2.867 1.469.734.511-.512L11 6.602l-2.2-.735-.734.735-1.464-.829L5.5 6.965 4.398 5.773l-1.464.829-.735-.735L0 6.602l2.313-2.778.511.512 1.465-.734L5.5 4.812zM5.5 0l3.3 2.934-.734.734-1.464-.734L5.5 4.035 4.398 2.934l-1.464.734-.735-.734zm0 0"/></svg>