<svg xmlns="http://www.w3.org/2000/svg" width="11" height="11"><path style="stroke:none;fill-rule:nonzero;fill:#000;fill-opacity:1" d="M10.781 10.43c-2.422.035-5.039-.442-7.039-2.035l.016-.047c0-.036.047-.067.086-.067H5.82a.174.174 0 0 0 .176-.172c0-.07-.031-.117-.105-.16l-1.778-.844a.107.107 0 0 1-.054-.097c0-.035-.059-.063-.036-.082 0 0 2.133-1.906 6.754-1.864v5.368zM6.742 7.406c.23 0 .422-.187.422-.418a.422.422 0 0 0-.844 0c0 .23.192.418.422.418zM.22.441h1.98v1.54H.22zm3.96 0h6.602v1.54H4.18zm-1.1 2.313c-.22.05-.286.21-.286.39 0 .184.066.344.285.403v2.586c0 .332-.316.597-.652.597-.332 0-.625-.265-.625-.597 0-.082 0-.16.031-.23l.02.019.21.191-.136-1.18-.348.797c-.105.243-.078.403-.078.403 0 .48.414.87.898.87.485 0 .899-.39.899-.87v-2.59c.223-.059.281-.215.281-.395 0-.183-.058-.34-.281-.402V.441h-.219zm0 0"/></svg>