<svg xmlns="http://www.w3.org/2000/svg" width="11" height="11"><path style="stroke:none;fill-rule:nonzero;fill:#000;fill-opacity:1" d="M9.598 2.156c.535 0 .96-.433.96-.969a.962.962 0 0 0-.96-.968.964.964 0 0 0-.957.969c0 .535.43.968.957.968zM6.82 10.56h2.64s.22-.02.22-.22v-.218h.218s.094.594-.406.66H6.82zM.66 8.579l1.762 1.76s.144.056.281-.085l.14-.137.235.223s-.394.578-.789.265L.441 8.738zm6.8-.712v1.75c0 .332.235.598.56.598.3 0 .558-.348.558-.598V7.18c0-.172-.035-.325-.148-.434L7.023 5.32l1.891-1.898c.352-.445.172-.98.172-.98-.195-.594-.86-.614-.86-.614H3.38a.468.468 0 0 0-.465.473c0 .261.211.472.469.472l3.344.004L5.32 4.195a1.004 1.004 0 0 0-.304.746c0 .297.113.559.308.75zm-2.437-1.91a1.044 1.044 0 0 1-.12-.14L2.104 8.644a.592.592 0 0 0-.152.726c.145.29.496.402.781.254a.65.65 0 0 0 .11-.07l2.87-2.903zm0 0"/></svg>