<svg xmlns="http://www.w3.org/2000/svg" width="11" height="11"><path style="stroke:none;fill-rule:nonzero;fill:#000;fill-opacity:1" d="M10.781 10.426c-2.422.035-5.039-.438-7.039-2.035l.016-.043c0-.04.047-.067.086-.067H5.82c.098 0 .18-.074.18-.172 0-.07-.031-.12-.105-.156l-1.782-.848a.107.107 0 0 1-.054-.097c0-.035-.055-.063-.036-.082 0 0 2.137-1.91 6.758-1.864zm-4.039-3.02c.23 0 .422-.187.422-.422a.422.422 0 0 0-.844 0c0 .235.192.422.422.422zM.22.441h1.98v1.54H.22zm3.96 0h6.602v1.54H4.18zM3.08 2.75c-.22.055-.286.21-.286.395 0 .183.066.34.285.398v2.586c0 .336-.316.601-.652.601-.332 0-.625-.27-.625-.601 0-.082.004-.16.031-.23l.02.019.21.195-.132-1.18-.348.794c-.105.246-.082.402-.082.402 0 .48.414.875.898.875.489 0 .903-.395.903-.875v-2.59c.219-.059.281-.215.281-.394 0-.184-.062-.34-.281-.399V.441h-.223zm0 0"/></svg>