<svg xmlns="http://www.w3.org/2000/svg" width="11" height="11"><path style="stroke:none;fill-rule:nonzero;fill:#000;fill-opacity:1" d="M9.527 8.066V11h-.726V8.066H2.199V11h-.726V2.934H.395a.361.361 0 0 1-.364-.368c0-.086.028-.175.094-.242L2.199 0h6.602l2.074 2.324a.358.358 0 0 1-.027.516.376.376 0 0 1-.243.094H9.527zM2.2 2.934v4.398h6.602V2.934zm1.102.734h.734c.203 0 .363.16.363.367v2.2c0 .202-.16.367-.363.367h-.734a.37.37 0 0 1-.367-.368V4.035c0-.207.168-.367.367-.367zm2.199 0h2.2c.198 0 .366.16.366.367v.73a.367.367 0 0 1-.367.368H5.5a.362.362 0 0 1-.367-.367v-.73c0-.208.16-.368.367-.368zm0 2.2h2.2a.367.367 0 1 1 0 .734H5.5a.364.364 0 0 1-.367-.368c0-.207.16-.367.367-.367zm0 0"/></svg>