<svg xmlns="http://www.w3.org/2000/svg" width="11" height="11"><path style="stroke:none;fill-rule:nonzero;fill:#000;fill-opacity:1" d="M7.738.219a.906.906 0 0 0-.898.91c0 .504.402.91.898.91a.91.91 0 0 0 0-1.82zM.934 6.5a.264.264 0 0 0-.368-.09.272.272 0 0 0-.086.371.266.266 0 1 0 .454-.281zm.183.742a.266.266 0 0 0-.367-.086.275.275 0 0 0-.086.371.266.266 0 0 0 .367.086.271.271 0 0 0 .086-.37zm.184.746a.26.26 0 0 0-.367-.086.27.27 0 0 0-.086.371.27.27 0 0 0 .367.082.264.264 0 0 0 .086-.367zm.183.742a.267.267 0 0 0-.363-.09.277.277 0 0 0-.09.376.27.27 0 0 0 .371.086.274.274 0 0 0 .082-.372zm4.329 1.512a.275.275 0 0 0-.176.34.268.268 0 1 0 .511-.16.273.273 0 0 0-.335-.18zm.757.008a.264.264 0 0 0-.172.336.263.263 0 0 0 .336.176.277.277 0 0 0 .172-.34.266.266 0 0 0-.336-.172zm.762.004a.263.263 0 0 0-.176.336c.047.14.196.219.336.176a.267.267 0 0 0 .172-.34.262.262 0 0 0-.332-.172zm.758 0a.27.27 0 0 0-.172.34c.043.14.195.219.332.172a.27.27 0 0 0 .176-.336.273.273 0 0 0-.336-.176zm1.808-6.516H8.324l-.777-1.27a.858.858 0 0 0-.75-.5.589.589 0 0 0-.184.02l-3.957.942a.447.447 0 0 0-.332.539.44.44 0 0 0 .531.336l2.641-.48L3.488 6.82H1.34l.476 1.735c.016.058.016-.004.032.027.07.11.21.105.32.04.059-.036.094-.114.105-.177l.286-.886.011-.04 1.325-.007c.261 0 .488-.074.62-.297l.61-1.02 1.355 1.39-.574 2.313h1.989c.128 0 .234-.132.234-.261a.267.267 0 0 0-.14-.227l-.856-.488.41-1.645s.102-.347-.223-.668L6.21 5.484s.595-.98.974-1.613l.515.75h2.192a.445.445 0 0 0 .449-.441.436.436 0 0 0-.442-.442zm0 0"/></svg>