<svg xmlns="http://www.w3.org/2000/svg" width="11" height="11"><path style="stroke:none;fill-rule:nonzero;fill:#000;fill-opacity:1" d="M7.738.219a.906.906 0 0 0-.898.91c0 .504.402.914.898.914.5 0 .907-.41.907-.914a.91.91 0 0 0-.907-.91zM.934 6.5a.26.26 0 0 0-.368-.086.274.274 0 0 0-.086.371.275.275 0 0 0 .372.086.274.274 0 0 0 .082-.371zm.183.742a.265.265 0 1 0-.449.285.26.26 0 0 0 .363.086.27.27 0 0 0 .086-.37zm.184.746a.262.262 0 0 0-.367-.086.275.275 0 0 0-.086.371.267.267 0 0 0 .453-.28zm.183.742a.27.27 0 0 0-.363-.085.268.268 0 0 0-.086.37.263.263 0 0 0 .367.087.275.275 0 0 0 .086-.372zm4.329 1.516a.275.275 0 0 0-.176.34c.047.144.199.219.34.176a.27.27 0 0 0-.165-.516zm.757.008a.264.264 0 0 0-.172.336c.047.14.196.223.336.176a.273.273 0 0 0 .172-.34.266.266 0 0 0-.336-.172zm.762 0a.268.268 0 0 0-.172.34c.043.14.195.219.336.172a.264.264 0 0 0 .168-.336.262.262 0 0 0-.332-.176zm.758.004a.264.264 0 0 0-.172.336c.047.14.2.222.336.176a.269.269 0 0 0 .172-.336.265.265 0 0 0-.336-.176zm1.808-6.516H8.324L7.547 2.47a.862.862 0 0 0-.75-.5.904.904 0 0 0-.18.02l-3.96.94a.45.45 0 0 0 .195.876l2.644-.48L3.488 6.82H1.34l.476 1.739c.016.054.016-.008.036.023.066.11.207.11.316.043.059-.035.098-.117.105-.176l.286-.886.011-.04 1.325-.007c.261 0 .488-.075.62-.297l.61-1.02L6.48 7.59l-.574 2.317h1.989c.128 0 .234-.136.234-.261a.273.273 0 0 0-.137-.23l-.86-.49.411-1.644s.105-.347-.223-.668l-1.11-1.12s.595-.985.974-1.618l.515.75h2.192a.444.444 0 0 0 .449-.438.436.436 0 0 0-.442-.44zm0 0"/></svg>