<svg xmlns="http://www.w3.org/2000/svg" width="11" height="11"><path style="stroke:none;fill-rule:nonzero;fill:#000;fill-opacity:1" d="M5.867 5.434V4.398h-.265a.365.365 0 0 1-.364-.363c0-.031 0-.062.008-.09l.633-2.523a.368.368 0 0 1 .71 0l.63 2.523a.368.368 0 0 1-.266.446c-.031.004-.058.007-.09.007h-.261v1.079c.015.007.03.015.05.023l.625.293c.106.05.215.094.325.137l.464.172v-.97h-.261a.367.367 0 0 1-.356-.456l.63-2.52a.368.368 0 0 1 .71 0l.629 2.524a.362.362 0 0 1-.355.453H8.8v1.242l.36.137c.16.058.304.144.433.254l.238.199c.277.234.434.574.434.937v.184c-.301 0-.594.101-.829.285l-.343.297a.568.568 0 0 1-.735 0c-.109-.086-.21-.188-.32-.281a1.435 1.435 0 0 0-1.805 0c-.117.093-.226.199-.347.293a.562.562 0 0 1-.73 0c-.118-.094-.227-.2-.345-.293a1.434 1.434 0 0 0-1.796 0c-.118.093-.215.195-.332.281a.686.686 0 0 1-.227.113.619.619 0 0 1-.594-.18 4.59 4.59 0 0 0-.578-.414 1.025 1.025 0 0 0-.18-.074c.258-.449.637-.828 1.094-1.086V5.5h2.2v1.05c.234-.1.542-.362.93-.788.148-.16.335-.274.538-.328zm4.399 3.386v.715a.732.732 0 0 0-.496.246c-.2.207-.454.356-.735.43a1.422 1.422 0 0 1-1.297-.266l-.289-.25a.543.543 0 0 0-.351-.16h-.102a.543.543 0 0 0-.351.16c-.102.086-.2.18-.31.266a1.437 1.437 0 0 1-1.82-.05l-.285-.255a.543.543 0 0 0-.257-.12h-.215a.574.574 0 0 0-.262.12c-.137.11-.262.23-.402.34a1.424 1.424 0 0 1-1.723-.043l-.226-.195a.71.71 0 0 0-.41-.223V8.82a.965.965 0 0 1 .55.098c.203.125.395.262.578.418a.641.641 0 0 0 .446.195c.035-.004.066-.004.101-.008.016-.003.031-.003.047-.007a.627.627 0 0 0 .227-.118c.117-.085.214-.183.332-.277.195-.16.421-.258.66-.297a.56.56 0 0 1 .32-.02c.29.02.578.122.817.317.117.094.226.2.343.293.059.05.13.09.2.11.136.011.273 0 .41-.028a.66.66 0 0 0 .12-.082c.122-.094.231-.2.348-.293.188-.156.41-.254.641-.297.074-.023.152-.031.227-.023.332-.008.664.097.937.32.11.094.211.191.32.277a.542.542 0 0 0 .325.133c.066 0 .132-.008.203-.02a.568.568 0 0 0 .207-.113l.344-.293c.199-.156.44-.253.695-.28a.726.726 0 0 1 .133-.024zm-4.875.715h.261a.592.592 0 0 1-.261 0zM3.3 2.934l1.832 2.199H1.465zm0 0"/></svg>