<svg xmlns="http://www.w3.org/2000/svg" width="11" height="11"><path style="stroke:none;fill-rule:nonzero;fill:#000;fill-opacity:1" d="M2.934 6.91V5.88c-.204-.055-.446-.2-.735-.43C.734 4.277 2.813.367 3.301.367c.492 0 2.566 3.91 1.097 5.082-.285.23-.527.371-.73.43v.773c.172-.035.348-.05.531-.05.246 0 .621-.282 1.13-.84A1.14 1.14 0 0 1 6.651 5.5l.582.273c.137.063.266.133.391.207l.938.56c.07.038.136.085.195.14l.344.285c.273.234.433.574.433.937v.403a.858.858 0 0 0-.098.066l-.343.297a.568.568 0 0 1-.735 0c-.109-.086-.21-.188-.32-.281a1.435 1.435 0 0 0-1.805 0c-.117.093-.226.199-.347.293a.562.562 0 0 1-.73 0c-.118-.094-.227-.2-.345-.293a1.434 1.434 0 0 0-1.796 0c-.118.093-.215.195-.332.281a.686.686 0 0 1-.227.113.619.619 0 0 1-.594-.18 3.584 3.584 0 0 0-.238-.187A2.739 2.739 0 0 1 2.934 6.91zm4.164 2.625h-.102a.543.543 0 0 0-.351.16c-.102.086-.2.18-.31.266a1.437 1.437 0 0 1-1.82-.05l-.285-.255a.543.543 0 0 0-.257-.12h-.215a.574.574 0 0 0-.262.12c-.137.11-.262.23-.402.34a1.424 1.424 0 0 1-1.723-.043l-.226-.195a.71.71 0 0 0-.41-.223V8.82a.965.965 0 0 1 .55.098c.203.125.395.262.578.418a.641.641 0 0 0 .446.195c.035-.004.066-.004.101-.008.016-.003.031-.003.047-.007a.627.627 0 0 0 .227-.118c.117-.085.214-.183.332-.277.195-.16.421-.258.66-.297a.56.56 0 0 1 .32-.02c.29.02.578.122.817.317.117.094.226.2.343.293.059.05.13.09.2.11.136.011.273 0 .41-.028a.66.66 0 0 0 .12-.082c.122-.094.231-.2.348-.293.188-.156.41-.254.641-.297.074-.023.152-.031.227-.023.332-.008.664.097.937.32.11.094.211.191.32.277a.542.542 0 0 0 .325.133c.066 0 .132-.008.203-.02a.568.568 0 0 0 .207-.113l.344-.293a1.3 1.3 0 0 1 .828-.285v.715a.732.732 0 0 0-.496.246c-.2.207-.454.356-.735.43a1.422 1.422 0 0 1-1.297-.266l-.289-.25a.543.543 0 0 0-.351-.16zm-1.707 0h.261a.592.592 0 0 1-.261 0zm0 0"/></svg>