<svg xmlns="http://www.w3.org/2000/svg" width="11" height="11"><path style="stroke:none;fill-rule:nonzero;fill:#000;fill-opacity:1" d="M3.625 2.617a.867.867 0 0 0 .746-.969.86.86 0 0 0-.95-.761.87.87 0 0 0-.745.968.86.86 0 0 0 .949.762zm7.027 4.106-3.53-1.828-.884-1.16-.054-.016c-.122-.11-.243-.102-.465.02v.003c0 .094-.047.23.015.34l.676.863.016.008-.54 1.27-1.44-.368-.063-.523 1.187-.148a.34.34 0 0 0 .16-.043.418.418 0 0 0 .168-.555.4.4 0 0 0-.402-.219l-1.207.149-.11-.914a.864.864 0 0 0-.949-.762.874.874 0 0 0-.75.973l.254 2.113a.886.886 0 0 0 .399.64l-1.903.23-.59 1.497.067-.02c.246-.117.52-.18.785-.18.27 0 .54.063.781.177a1.177 1.177 0 0 0 .97 0A1.807 1.807 0 0 1 4.8 8.266a1.152 1.152 0 0 0 .972.004c.247-.118.52-.18.786-.18.27 0 .539.062.777.172a.96.96 0 0 0 .187.062c.97-.258 2.688-.761 3.153-1.183.136-.121.16-.329-.016-.418zM.22 10.12c.222 0 .437-.05.625-.14a1.483 1.483 0 0 1 1.285.004c.191.085.402.136.625.136.219 0 .433-.05.625-.137.191-.093.41-.144.64-.144.227 0 .446.05.641.144a1.465 1.465 0 0 0 1.25 0 1.47 1.47 0 0 1 1.281.004 1.49 1.49 0 0 0 1.246 0c.2-.093.418-.144.645-.144.227 0 .441.05.637.144.187.09.398.14.617.14v-.952c-.219 0-.43-.051-.617-.137a1.493 1.493 0 0 0-1.281 0 1.465 1.465 0 0 1-1.246 0 1.522 1.522 0 0 0-1.282.004 1.522 1.522 0 0 1-.625.137c-.223 0-.433-.051-.625-.137a1.48 1.48 0 0 0-.64-.145c-.23 0-.45.051-.641.145a1.465 1.465 0 0 1-1.25 0 1.536 1.536 0 0 0-.64-.14c-.231 0-.45.05-.645.144a1.508 1.508 0 0 1-.625.137v.953zm0 0"/></svg>