<svg xmlns="http://www.w3.org/2000/svg" width="11" height="11"><path style="stroke:none;fill-rule:nonzero;fill:#000;fill-opacity:1" d="M3.625 2.617a.87.87 0 0 0 .746-.969.854.854 0 0 0-.95-.761.867.867 0 0 0-.745.968c.058.477.48.817.949.762zm7.027 4.106a4978.66 4978.66 0 0 0-3.53-1.828l-.884-1.16-.054-.016c-.122-.114-.243-.102-.465.023 0 .094-.047.23.011.34l.68.863.012.008-.54 1.274-1.44-.368-.06-.527 1.188-.148c.051 0 .106-.016.157-.047a.415.415 0 0 0 .171-.555.413.413 0 0 0-.402-.219l-1.21.153-.106-.918a.862.862 0 0 0-.953-.758.873.873 0 0 0-.747.969l.25 2.117c.032.27.188.504.399.636l-1.899.235-.593 1.492.066-.02c.246-.117.52-.18.785-.18.27 0 .54.063.782.177.152.07.32.105.484.105.164 0 .332-.035.484-.101a1.807 1.807 0 0 1 1.559-.004c.156.07.328.105.492.105.164 0 .328-.035.48-.105a1.826 1.826 0 0 1 1.563 0c.059.023.121.043.184.058.972-.258 2.691-.758 3.156-1.183.133-.121.16-.329-.02-.418zM.22 10.12c.222 0 .437-.05.625-.14.195-.09.414-.145.644-.145.23 0 .446.055.645.144.187.09.398.141.62.141.224 0 .434-.05.626-.14.195-.09.414-.145.644-.145.227 0 .446.055.641.144a1.448 1.448 0 0 0 1.25 0c.191-.09.41-.144.64-.144.227 0 .446.055.641.144a1.465 1.465 0 0 0 1.25 0c.196-.09.414-.144.64-.144.231 0 .442.055.638.144.187.09.398.141.617.141v-.953c-.219 0-.43-.05-.617-.14a1.493 1.493 0 0 0-1.281 0 1.465 1.465 0 0 1-1.246 0 1.48 1.48 0 0 0-.641-.145c-.23 0-.45.05-.645.144a1.448 1.448 0 0 1-1.246 0 1.48 1.48 0 0 0-.64-.144c-.231 0-.45.05-.645.144-.192.09-.402.141-.625.141-.223 0-.434-.05-.621-.14a1.498 1.498 0 0 0-1.29 0c-.187.09-.402.14-.624.14zm0 0"/></svg>