<svg xmlns="http://www.w3.org/2000/svg" width="11" height="11"><path style="stroke:none;fill-rule:nonzero;fill:#000;fill-opacity:1" d="M9.07 6.965a.737.737 0 0 1-.636 1.101.734.734 0 0 1-.637-1.101h-.664C6.828 7.62 6.21 8.066 5.5 8.066c-.71 0-1.328-.445-1.633-1.101h-.664a.737.737 0 0 1-.637 1.101.734.734 0 0 1-.636-1.101H.61l-.583-1.13a.233.233 0 0 1 .102-.312.233.233 0 0 1 .105-.023h.227c.094 0 .187.04.254.105l.644.63 2.325-.415C3.816 4.816 4.816 4.035 5.5 4.035c.684 0 1.684.781 1.816 1.785l2.325.414.644-.629a.364.364 0 0 1 .254-.105h.227c.129 0 .23.102.23.23 0 .036-.008.07-.023.106l-.582 1.129zM5.133 3.668V2.566a.367.367 0 1 1 .734 0v1.102zm0 1.098-.735.734c.41.246.778.367 1.102.367.324 0 .691-.12 1.102-.367l-.735-.734zm0 0"/></svg>