<svg xmlns="http://www.w3.org/2000/svg" width="11" height="11"><path d="M9.07 6.965a.805.805 0 0 1 .098.367.736.736 0 0 1-.734.734.736.736 0 0 1-.735-.734c0-.129.04-.254.098-.367h-.66C6.828 7.62 6.21 8.066 5.5 8.066c-.71 0-1.328-.445-1.637-1.101h-.66a.805.805 0 0 1 .098.367.736.736 0 0 1-.735.734.736.736 0 0 1-.734-.734c0-.129.04-.254.098-.367H.61L.03 5.835a.23.23 0 0 1 .094-.312.276.276 0 0 1 .11-.023H.46c.098 0 .184.035.258.102l.644.632 2.317-.41c.14-1.008 1.136-1.789 1.82-1.789.684 0 1.68.781 1.82 1.79l2.317.41.644-.633a.377.377 0 0 1 .258-.102h.227c.132 0 .234.102.234.227 0 .039-.016.074-.031.109l-.578 1.129ZM5.133 3.668V2.566c0-.203.16-.367.367-.367s.367.164.367.367v1.102Zm0 1.098-.735.734c.415.242.778.367 1.102.367.324 0 .688-.125 1.102-.367l-.735-.734Zm0 0" style="stroke:none;fill-rule:nonzero;fill:#000;fill-opacity:1"/></svg>