<svg xmlns="http://www.w3.org/2000/svg" width="11" height="11"><path style="stroke:none;fill-rule:nonzero;fill:#000;fill-opacity:1" d="m7.754 3.215-2.555.637a.278.278 0 0 1-.336-.2.28.28 0 0 1 .203-.336l1.145-.285-2.496-.812-.957 1.746 2.742.648h3.457l-.395-1.515zm2.508 2.668L10 8.433l-.715-.078a.722.722 0 0 1-.785.657.736.736 0 0 1-.64-.809L6.546 6.957l-3.676.711-.074.73a.725.725 0 0 1-.79.653.733.733 0 0 1-.636-.809l.074-.726-.71-.079.261-2.554c.05-.504.434-.91.93-.977l1.246-2.27a.367.367 0 0 1 .336-.167l3.488 1.113c.145.016 1.766-.457 1.805-.316l.75 2.468c.465.172.758.645.71 1.149zm-7.84.922c.324.03.644-.227.969-.785l-.786-.09v-.875c-.609.199-.933.46-.964.78a.879.879 0 0 0 .78.97zm6.265.191c.407.043.688-.09.848-.394-.11-.18-.363-.293-.77-.336-.609-.063-1.117.05-1.136.25-.024.203.453.418 1.059.48zM4.837 8.81a1.412 1.412 0 0 0-.438-.375c-.73-.407 1.102-.368 1.47-.368.362 0 1.464-.039 1.464.368 0 .406-.742 1.101-1.55 1.101-.075 0-.141-.008-.204-.02-.14.012-.289.02-.445.02-.809 0-1.465-.164-1.465-.367 0-.18.5-.324 1.168-.36zm0 0"/></svg>