<svg xmlns="http://www.w3.org/2000/svg" width="11" height="11"><path style="stroke:none;fill-rule:nonzero;fill:#000;fill-opacity:1" d="M9.117 6.781a1.4 1.4 0 0 0-.613.14 1.469 1.469 0 0 1-.598.134c-.21 0-.414-.051-.597-.133a1.413 1.413 0 0 0-1.23 0c-.18.082-.384.133-.595.133-.21 0-.418-.051-.597-.133a1.417 1.417 0 0 0-1.23 0 1.469 1.469 0 0 1-.598.133c-.211 0-.414-.051-.598-.133a1.383 1.383 0 0 0-1.215 0 1.387 1.387 0 0 1-.586.133v.925c.219 0 .402-.046.586-.132a1.396 1.396 0 0 1 1.219 0c.156.07.324.109.5.125l-.742.765a.595.595 0 0 0-.754.086l-.852.883a.652.652 0 0 0 0 .89.6.6 0 0 0 .86 0l.847-.882c.196-.2.227-.5.11-.738l1.02-1.059c.07-.023.14-.04.202-.07a1.417 1.417 0 0 1 1.23 0 1.395 1.395 0 0 0 1.192 0 1.413 1.413 0 0 1 1.23 0 1.408 1.408 0 0 0 1.196 0 1.413 1.413 0 0 1 1.234 0c.18.086.383.132.602.132v-.925c-.219 0-.422-.051-.602-.133a1.448 1.448 0 0 0-.62-.14zm.414-4.531.852-.883a.644.644 0 0 0 0-.89.592.592 0 0 0-.86 0l-.851.882a.65.65 0 0 0-.082.782L7.53 3.238 5.43 2.43a.86.86 0 0 0-1.258.523l-.645 2.25-.011.078H.66V6.47a.87.87 0 0 0 .45-.102 1.724 1.724 0 0 1 1.488-.004 1.078 1.078 0 0 0 .925.004 1.728 1.728 0 0 1 1.493-.004 1.095 1.095 0 0 0 .93.004 1.74 1.74 0 0 1 .75-.172c.257 0 .507.059.742.168a1.107 1.107 0 0 0 .93.004 1.74 1.74 0 0 1 .75-.172c.042 0 .218.012.394-.105.308-.14.422-.219.691-.39.223-.141.399-.419-.082-.419h-4.18l1.29-1.277.164.062a.4.4 0 0 0 .515-.246.42.42 0 0 0-.09-.425l1-1.04a.59.59 0 0 0 .711-.105zM5.574 5.281h-.258l.52-1.804 1.074.414zm-.008-3.98-.109.222a.425.425 0 0 1-.394.239H4.8a.892.892 0 0 0 .715.355c.453 0 .863-.383.863-.851v.054h-.774zm-.503.238c.09 0 .167-.055.203-.133l.109-.199c.043-.094.129-.105.23-.105h.848C6.34.66 5.945.27 5.477.27c-.559 0-1.012.44-1.012 1.02 0 .093.012.25.035.25zm0 0"/></svg>