<svg xmlns="http://www.w3.org/2000/svg" width="11" height="11"><path style="stroke:none;fill-rule:nonzero;fill:#000;fill-opacity:1" d="M9.168 5.5c.73 0 2.2 5.5 1.465 5.5H.367c-.734 0 .735-5.5 1.465-5.5h7.336zm-.918.918h-5.5c-.367 0-1.465 3.848-.918 3.848h7.336c.547 0-.55-3.848-.918-3.848zm-2.75.914c.367 0 .734.367.734.734 0 .368-.367.735-.734.735s-.734-.367-.734-.735c0-.367.367-.734.734-.734zm2.383-.547H3.117c-.367 0-1.285 3.113-.734 3.113h6.234c.551 0-.367-3.113-.734-3.113zM3.668 3.668c.184 0 .184.547 0 .547v.918c0 .367-.734.367-.734 0v-.918h-.735c-.183 0-.183-.547 0-.547h1.469zm5.133 0c.183 0 .183.547 0 .547h-.735v.918c0 .367-.734.367-.734 0v-.918c-.184 0-.184-.547 0-.547h1.469zM6.6.734C5.5.734 5.134 1.102 5.134 2.2v2.934c0 .367.734.367.734 0V2.566c0-.734 0-1.101.735-1.101.363 0 .73.183.73.55 0 .184.734.184.734 0 0-.913-.734-1.28-1.464-1.28zm0 0"/></svg>