<svg xmlns="http://www.w3.org/2000/svg" width="11" height="11"><path style="stroke:none;fill-rule:nonzero;fill:#000;fill-opacity:1" d="M.066 6.066c.09.7.684 1.239 1.407 1.239.722 0 1.32-.54 1.41-1.239zm7.672 2.86a.22.22 0 0 1-.218.222H3.418a.223.223 0 0 1-.223-.222c0-.117.102-.215.223-.215H7.52c.12 0 .218.098.218.215zm-4.52.336h4.497v.633H3.219zm4.9-3.196c.089.7.687 1.239 1.41 1.239.722 0 1.316-.54 1.406-1.239zm2.737-.441-1.152-1.59h.617a.27.27 0 0 0 .27-.273.27.27 0 0 0-.27-.274H7.055A1.62 1.62 0 0 0 5.813 2.45v-.86a.272.272 0 0 0-.274-.273l-.023.004-.028-.004a.272.272 0 0 0-.273.274v.86a1.614 1.614 0 0 0-1.238 1.038H.71a.272.272 0 0 0-.273.274c0 .152.12.273.273.273h.586L.145 5.625H0v.293h2.95v-.293h-.145l-1.157-1.59h2.68c0-.058.004-.12.016-.18.008-.027.015-.054.015-.085.102-.422.434-.762.856-.864v3.012h-.012c-.023 1.137-.562 2.125-1.363 2.68h3.348c-.801-.555-1.34-1.543-1.364-2.68h-.011V2.906c.425.102.757.442.859.864a.21.21 0 0 0 .016.085c.007.06.015.122.015.18h2.649l-1.157 1.59h-.14v.293H11v-.293zm-9.5 0H.438l.917-1.266zm.239 0V4.359l.918 1.266zm7.816 0h-.922l.922-1.266zm.235 0V4.359l.921 1.266zm-7.899-2.52a.272.272 0 0 1-.273.274.274.274 0 0 1-.274-.274c0-.148.125-.273.274-.273.152 0 .273.125.273.273zm8.055-.011a.274.274 0 0 1-.274.273.272.272 0 0 1-.273-.273c0-.153.121-.274.273-.274.149 0 .274.121.274.274zm0 0"/></svg>