<svg xmlns="http://www.w3.org/2000/svg" width="11" height="11"><path style="stroke:none;fill-rule:nonzero;fill:#000;fill-opacity:1" d="M.066 6.066c.09.7.688 1.239 1.41 1.239.723 0 1.317-.54 1.407-1.239zm7.676 2.86a.222.222 0 0 1-.219.222H3.418a.225.225 0 0 1-.223-.222c0-.121.102-.215.223-.215h4.105c.122 0 .22.094.22.215zm-4.52.336H7.72v.633H3.223zm4.9-3.196a1.419 1.419 0 0 0 2.816 0zm2.737-.441-1.152-1.59h.617a.273.273 0 0 0 0-.547h-3.27A1.608 1.608 0 0 0 5.817 2.45v-.86a.272.272 0 0 0-.273-.273h-.055a.272.272 0 0 0-.273.274v.86a1.62 1.62 0 0 0-1.238 1.038H.71a.27.27 0 0 0-.27.274.27.27 0 0 0 .27.273h.59L.148 5.625H.004v.293h2.95v-.293h-.145l-1.153-1.59h2.676c0-.058.008-.12.016-.18a.278.278 0 0 0 .015-.082c.102-.425.434-.761.856-.863v3.012H5.21c-.027 1.133-.566 2.125-1.363 2.68h3.347c-.8-.555-1.34-1.547-1.367-2.68H5.82V2.91c.422.102.754.438.856.863 0 .028.004.059.015.082a.931.931 0 0 1 .016.18h2.648l-1.152 1.59h-.14v.293h2.945v-.293zm-9.5 0H.441l.918-1.266v1.27zm.235 0V4.359l.922 1.27h-.922zm7.816 0h-.922l.922-1.266v1.27zm.238 0V4.359l.922 1.27h-.922zM1.75 3.105a.272.272 0 0 1-.273.274.274.274 0 0 1-.274-.274c0-.152.125-.273.274-.273.152 0 .273.121.273.273zm8.055-.015a.274.274 0 0 1-.274.273.272.272 0 0 1-.273-.273c0-.152.12-.274.273-.274.153 0 .274.122.274.274zm0 0"/></svg>