<svg xmlns="http://www.w3.org/2000/svg" width="11" height="11"><path style="stroke:none;fill-rule:nonzero;fill:#000;fill-opacity:1" d="m3.184 4.512 5.902-3.41 1.101 1.906-5.789 3.336v3.922H.734V6.234c0-1.011.82-1.836 1.832-1.836.22 0 .426.04.618.114zm.695.445c.168.168.308.383.394.617l1.102-.64-.367-.63zm2.133-.387 1.27-.734-.368-.633-1.266.735zM7.914 3.47l1.274-.735-.368-.629-1.273.735zM2.566 6.965a.735.735 0 0 0 .735-.73.736.736 0 0 0-.735-.735.736.736 0 0 0-.734.734c0 .403.332.73.734.73zm0 0"/></svg>