<svg xmlns="http://www.w3.org/2000/svg" width="11" height="11"><path style="stroke:none;fill-rule:nonzero;fill:#000;fill-opacity:1" d="M5.867.734v.73h1.465l1.04 1.04c.273.273.429.648.429 1.035v4.527a1.47 1.47 0 0 1-1.469 1.47H3.668a1.47 1.47 0 0 1-1.469-1.47V3.54c0-.387.156-.762.43-1.035l1.039-1.04h1.465v-.73H3.668a.367.367 0 1 1 0-.734h3.664a.367.367 0 1 1 0 .734zM4.215 9.898 3.668 11H2.566l.551-1.102zm3.668 0L8.433 11H7.333l-.547-1.102zM2.93 4.035 2.937 5.5a.372.372 0 0 0 .368.367H4.77a.367.367 0 0 0 .367-.367l-.008-1.469a.363.363 0 0 0-.367-.363H3.297a.367.367 0 0 0-.367.367zm2.933 0L5.871 5.5a.37.37 0 0 0 .367.367h1.465A.367.367 0 0 0 8.07 5.5l-.008-1.469a.363.363 0 0 0-.367-.363H6.23a.367.367 0 0 0-.367.367zM3.668 2.566v.008c.008.2.168.36.367.36h2.942c.195 0 .355-.16.355-.36V2.56a.368.368 0 0 0-.367-.36H4.027c-.199 0-.359.16-.359.36v.007zm0 5.868a.735.735 0 0 0 0-1.469.734.734 0 1 0 0 1.469zm3.664 0a.734.734 0 1 0 .002-1.467.734.734 0 0 0-.002 1.467zm0 0"/></svg>