<svg xmlns="http://www.w3.org/2000/svg" width="11" height="11"><path style="stroke:none;fill-rule:nonzero;fill:#000;fill-opacity:1" d="M5.867.734v.73h1.465L8.367 2.5c.278.281.434.652.434 1.043v4.523c0 .809-.66 1.47-1.469 1.47H3.668c-.809 0-1.469-.661-1.469-1.47V3.543c0-.39.156-.762.434-1.043l1.035-1.035h1.465v-.73H3.668a.364.364 0 0 1-.367-.368C3.3.16 3.46 0 3.668 0h3.664c.207 0 .367.16.367.367 0 .203-.16.367-.367.367zM4.215 9.898 3.668 11H2.566l.551-1.102zm3.668 0L8.433 11H7.333l-.547-1.102zm-4.95-5.863L2.942 5.5c0 .207.16.367.368.367h1.457c.207 0 .367-.16.367-.367V4.035a.372.372 0 0 0-.367-.367H3.3a.362.362 0 0 0-.367.367zm2.934 0L5.875 5.5c0 .207.16.367.367.367H7.7c.207 0 .367-.16.367-.367V4.035a.372.372 0 0 0-.367-.367H6.234a.362.362 0 0 0-.367.367zM3.668 2.566v.008c.008.2.168.36.367.36h2.938c.199 0 .359-.16.359-.36V2.56a.373.373 0 0 0-.367-.36H4.027a.36.36 0 0 0-.359.36v.007zm0 5.868a.735.735 0 0 0 0-1.47.736.736 0 0 0-.734.735c0 .403.328.735.734.735zm3.664 0a.736.736 0 0 0 .734-.735.736.736 0 0 0-.734-.734.735.735 0 0 0 0 1.469zm0 0"/></svg>