<svg xmlns="http://www.w3.org/2000/svg" width="11" height="11"><path d="M8.066 5.867c.735.367 2.2.367 2.934 0v4.399c0 .734-2.934.734-2.934 0V5.867Zm.368-2.566V5.5c0 .367 2.199.367 2.199 0V3.3c-.367.368-1.832.368-2.2 0ZM8.8 1.465v1.469c0 .367 1.465.367 1.465 0V.367S8.8 1.102 8.8 1.465ZM5.133 3.668c1.101 0 1.101 1.465 2.199 1.465 0 0-1.465 2.199-3.664 2.199-2.203 0-3.668-2.2-3.668-2.2 1.102 0 1.102-1.464 2.2-1.464.734 0 1.468.73 1.468.73s.73-.73 1.465-.73Zm.734 1.465c-1.101.367-3.3.367-4.402 0 1.836 1.101 2.57 1.101 4.402 0Zm0 0" style="stroke:none;fill-rule:nonzero;fill:#000;fill-opacity:1"/></svg>