<svg xmlns="http://www.w3.org/2000/svg" width="11" height="11"><path style="stroke:none;fill-rule:nonzero;fill:#000;fill-opacity:1" d="M9.496 4.621H9.02V2.723c0-1.25-1.254-2.504-2.5-2.504H4.434c-1.25 0-2.454 1.254-2.454 2.504V4.62h-.527c-.148 0-.351.234-.351.363v5.602c0 .133.203.195.351.195h8.043c.149 0 .402-.062.402-.195V4.984c0-.129-.253-.363-.402-.363zm-2.96 5.277H4.413l.445-2.191c-.27-.191-.445-.55-.445-.902 0-.582.477-1.078 1.063-1.078.585 0 1.058.46 1.058 1.043 0 .351-.176.753-.441.945zm.944-5.277H3.52V2.723c0-.57.37-.961.933-.961h2.043c.563 0 .984.39.984.96zm0 0"/></svg>