<svg xmlns="http://www.w3.org/2000/svg" width="11" height="11"><path style="stroke:none;fill-rule:nonzero;fill:#000;fill-opacity:1" d="M10.785 3.883a.73.73 0 0 1 .063.965l-.063.07-2.719 2.719v2.629H6.602v-2.2H1.465v2.2H0V7.332c0-.375.281-.684.648-.727l.086-.003h6.293l2.723-2.72a.726.726 0 0 1 1.035 0zM8.844 2.707c.402.402.43 1.04.078 1.469l-.078.086-1.832 1.832a1.097 1.097 0 0 1-1.301.191l-.086-.055-1.637-1.09-1.976 1.133a1.1 1.1 0 0 1-1.442-.32l-.058-.09a1.102 1.102 0 0 1 .32-1.445l.09-.055 2.566-1.468a1.097 1.097 0 0 1 1.059-.016l.098.055 1.449.968 1.195-1.195c.43-.43 1.125-.43 1.555 0zM9.535.551a1.099 1.099 0 1 1-.002 2.197A1.099 1.099 0 0 1 9.535.551zm0 0"/></svg>