<svg xmlns="http://www.w3.org/2000/svg" width="11" height="11"><path style="stroke:none;fill-rule:nonzero;fill:#000;fill-opacity:1" d="M10.79 3.879a.734.734 0 0 1 .058.969l-.059.074-2.723 2.71v2.634H6.602v-2.2H1.465v2.2H0V7.332c0-.371.285-.687.645-.727l.09-.003h6.288l2.723-2.723a.743.743 0 0 1 1.043 0zM8.843 2.707c.402.402.426 1.04.074 1.473l-.074.082-1.832 1.832a1.109 1.109 0 0 1-1.301.191l-.086-.05L3.988 5.14 2.008 6.27A1.093 1.093 0 0 1 .57 5.953L.512 5.86a1.096 1.096 0 0 1 .316-1.437l.098-.059 2.566-1.465a1.1 1.1 0 0 1 1.055-.023l.094.059 1.453.968 1.195-1.195a1.092 1.092 0 0 1 1.555 0zM9.535.551a1.099 1.099 0 1 1-.002 2.197A1.099 1.099 0 0 1 9.535.551zm0 0"/></svg>