<svg xmlns="http://www.w3.org/2000/svg" width="11" height="11"><path style="stroke:none;fill-rule:nonzero;fill:#000;fill-opacity:1" d="M5.5 0C8.523 0 11 2.477 11 5.5S8.54 11 5.5 11 0 8.523 0 5.5 2.477 0 5.5 0zm0 .367A5.126 5.126 0 0 0 .367 5.5 5.126 5.126 0 0 0 5.5 10.633 5.126 5.126 0 0 0 10.633 5.5 5.126 5.126 0 0 0 5.5.367zm0 0"/><path style="stroke:none;fill-rule:nonzero;fill:#000;fill-opacity:1" d="M6.418.824A4.793 4.793 0 0 1 10.266 5.5c0 2.2-1.559 4.215-3.848 4.676 0 0-.223-.64-.918-.64-.734 0-.918.64-.918.64A4.793 4.793 0 0 1 .734 5.5c0-2.2 1.559-4.215 3.848-4.676 0 0 .184.64.918.64s.918-.64.918-.64zm1.648 7.242H6.051c-.367 0-.367.735 0 .735h2.015c.368 0 .368-.735 0-.735zm-3.117 0H2.934c-.368 0-.368.735 0 .735h2.015c.367 0 .367-.735 0-.735zm0-1.464H2.2c-.367 0-.367.73 0 .73h2.75c.367 0 .367-.73 0-.73zm3.852 0H6.05c-.367 0-.367.73 0 .73H8.8c.367 0 .367-.73 0-.73zm.367-1.47H6.051c-.367 0-.367.735 0 .735h3.117c.367 0 .367-.734 0-.734zm-4.219 0H1.832c-.367 0-.367.735 0 .735h3.117c.367 0 .367-.734 0-.734zm0-1.464H2.2c-.367 0-.367.73 0 .73h2.75c.367 0 .367-.73 0-.73zm3.852 0H6.05c-.367 0-.367.73 0 .73H8.8c.367 0 .367-.73 0-.73zm-.735-1.469H6.051c-.367 0-.367.735 0 .735h2.015c.368 0 .368-.735 0-.735zm-3.117 0H2.934c-.368 0-.368.735 0 .735h2.015c.367 0 .367-.735 0-.735zm0 0"/></svg>