<svg xmlns="http://www.w3.org/2000/svg" width="11" height="11"><path d="M8.066 8.8H2.934v.368c0 .203-.16.367-.368.367H.367A.364.364 0 0 1 0 9.168V8.066h11v1.102c0 .203-.16.367-.367.367h-2.2a.364.364 0 0 1-.367-.367ZM6.602 2.2v-.368c0-.203.16-.367.363-.367h2.203c.203 0 .367.164.367.367v.367h1.098c.207 0 .367.164.367.367v.368H0v-.368C0 2.363.16 2.2.367 2.2ZM3.668 7.7V4.765a.367.367 0 0 0-.367-.368H1.832a.367.367 0 0 0-.367.368v2.933H0V3.301h11v4.398Zm2.934-3.302h-1.47v1.47h1.47Zm2.933 0H8.066v1.47h1.47Zm0 0" style="stroke:none;fill-rule:nonzero;fill:#000;fill-opacity:1"/></svg>