<svg xmlns="http://www.w3.org/2000/svg" width="11" height="11"><path d="M4.398.367v1.098h.735v-.73c0-.368.734-.368.734 0v.73h.735V.367c0-.367.73-.367.73 0v1.211l.734.254v-.73c0-.368.735-.368.735 0v2.933c0 .363-.735.363-.735 0V2.566l-.734-.257V3.3c0 .367-.73.367-.73 0V2.199h-.7l.04 1.469 4.874 6.965c.184.367-.55.367-.918 0l-3.886-5.5.222 5.5c0 .367-1.468.367-1.468 0l.222-5.5-3.886 5.5C.734 11 0 11 .184 10.633l4.875-6.965.039-1.469h-.7v1.102c0 .367-.73.367-.73 0v-.992l-.734.257v1.47c0 .362-.735.362-.735 0V1.101c0-.368.735-.368.735 0v.73l.734-.254V.368c0-.368.73-.368.73 0Zm0 0" style="stroke:none;fill-rule:nonzero;fill:#000;fill-opacity:1"/></svg>