<svg xmlns="http://www.w3.org/2000/svg" width="11" height="11"><path d="M5.5.46c-.184 0-.367.09-.367.274L5.125.93H2.406a.171.171 0 0 0-.176.156c.094 1.379.176 2.793.25 4.027 0 .094.079.168.176.168h2.309l-.2 5.352c0 .367 1.47.367 1.47 0-.133-3.301-.169-4.238-.208-5.352h2.305a.175.175 0 0 0 .168-.14c.074-1.371.16-2.793.234-4.036 0-.093-.082-.167-.175-.167H8.55L5.875.93 5.867.734c0-.183-.183-.273-.367-.273Zm-1.938 1c.368 0 .668.302.668.665a.67.67 0 0 1-.668.668.67.67 0 0 1-.664-.668c0-.363.301-.664.664-.664Zm1.938 0c.09 0 .176.02.25.052.008 0 .008.008.016.008a.654.654 0 0 1 .004 1.207c-.004 0-.012.007-.028.015a.608.608 0 0 1-.242.043.532.532 0 0 1-.25-.05c-.008 0-.016 0-.016-.008A.656.656 0 0 1 5.23 1.52c.004-.008.02-.008.028-.016A.785.785 0 0 1 5.5 1.46Zm1.941 0c.368 0 .668.302.668.665a.67.67 0 0 1-.668.668.668.668 0 0 1-.656-.668c0-.363.293-.664.656-.664Zm-3.84 1.978c.368 0 .669.296.669.66a.67.67 0 0 1-.668.668.67.67 0 0 1-.668-.668c0-.364.3-.66.668-.66Zm1.899 0a.65.65 0 0 1 .25.054c.008 0 .008.004.016.004a.664.664 0 0 1 .402.602.655.655 0 0 1-.191.465c-.008.007-.016.007-.016.011a.58.58 0 0 1-.195.133c-.008 0-.008.008-.016.008a.649.649 0 0 1-.5 0h-.008l-.008-.008a.58.58 0 0 1-.195-.133s-.008-.004-.016-.011a.655.655 0 0 1 0-.926l.008-.008a.614.614 0 0 1 .2-.133s.003 0 .003-.004a.648.648 0 0 1 .266-.054Zm1.898 0a.664.664 0 1 1 0 1.328.67.67 0 0 1-.668-.668c0-.364.301-.66.668-.66ZM2.523 5.707a.184.184 0 0 0-.125.063l-1.07 1.16a.175.175 0 0 0-.062.187.18.18 0 0 0 .14.137.184.184 0 0 0 .184-.074l1.07-1.16a.18.18 0 0 0 .043-.207.176.176 0 0 0-.18-.106Zm0 0" style="stroke:none;fill-rule:nonzero;fill:#000;fill-opacity:1"/><path d="M3.629 6.008a.165.165 0 0 0-.137.086L2.348 8.043a.186.186 0 0 0-.016.195.182.182 0 0 0 .328-.011l1.145-1.95a.18.18 0 0 0-.176-.27ZM8.457 5.707a.184.184 0 0 0-.164.113.182.182 0 0 0 .039.192l1.07 1.16c.04.058.11.09.18.078a.182.182 0 0 0 .09-.32l-1.07-1.16a.172.172 0 0 0-.145-.063ZM7.34 6.008a.184.184 0 0 0-.149.094.187.187 0 0 0 .004.175l1.145 1.95a.182.182 0 0 0 .328.012.186.186 0 0 0-.016-.196l-1.144-1.95a.172.172 0 0 0-.168-.085Zm0 0" style="stroke:none;fill-rule:nonzero;fill:#000;fill-opacity:1"/></svg>