<svg xmlns="http://www.w3.org/2000/svg" width="11" height="11"><path d="m10.34.91.293.426c.469.687.492 1.539.043 2.242-.688 1.094-1.106 1.98-1.239 2.656a15.063 15.063 0 0 0-.218 1.707c-.059.77-.574 1.473-1.371 1.864l-1.664.808c-1.653.797-3.762.32-4.72-1.066L.677 8.398C-.72 6.368.109 3.778 2.516 2.61L7.39.242c1.027-.5 2.347-.207 2.949.668Zm-.754.52c-.34-.485-1.16-.676-1.797-.36L2.918 3.434C.996 4.364.375 6.328 1.43 7.875l.793 1.152c.687 1.004 2.3 1.371 3.554.754l1.664-.804c.524-.25.832-.668.86-1.102.043-.637.125-1.246.242-1.816.156-.809.617-1.79 1.355-2.973.25-.395.243-.844-.02-1.23Zm-.758.511.293.434c.059.09.059.14.008.223-.805 1.265-1.305 2.336-1.488 3.285a16.037 16.037 0 0 0-.258 1.926c-.004.097-.11.23-.336.347l-1.664.805c-.86.418-1.98.168-2.406-.445l-.793-1.16C1.46 6.292 1.883 4.956 3.32 4.261L8.191 1.89c.243-.118.57-.043.637.05ZM4.215 5.766c-.043.02-.078.043-.121.07a.738.738 0 0 0-.172 1.027s0 .008.008.016a.881.881 0 0 0 1.226.184l.438-.333c.355-.253.543-.671.515-1.105a.49.49 0 0 0-.7-.402Zm0 0" style="stroke:none;fill-rule:nonzero;fill:#000;fill-opacity:1"/></svg>