<svg xmlns="http://www.w3.org/2000/svg" width="11" height="11"><path style="stroke:none;fill-rule:nonzero;fill:#000;fill-opacity:1" d="M10.266 5.133v4.765a.367.367 0 0 1-.368.368l-4.03-.016zM5.133 9.898V6.602H1.465a.733.733 0 0 1-.73-.735c0-.406.328-.734.73-.734h7.703zm4.004-5.921c-.348.5-.875.789-1.434.789-.562 0-1.09-.29-1.437-.79A2.337 2.337 0 0 1 5.914 2.2h3.57c.13.621 0 1.278-.347 1.778zm.273-2.145H5.988c-.265.008-.484-.277-.488-.633v-.066C5.504.8 5.691.527 5.934.5L9.355.004a.407.407 0 0 1 .375.152.74.74 0 0 1 .168.48V1.2c-.003.356-.222.64-.488.633zm0 0"/></svg>