<svg xmlns="http://www.w3.org/2000/svg" width="11" height="11"><path style="stroke:none;fill-rule:nonzero;fill:#000;fill-opacity:1" d="M10.266 5.133v4.765a.367.367 0 0 1-.368.368l-4.03-.012zM5.133 9.898V6.602H1.465a.735.735 0 0 1 0-1.47h7.703zm4.004-5.921c-.352.496-.88.789-1.438.789-.554 0-1.086-.293-1.437-.79-.344-.5-.477-1.152-.344-1.777H9.48c.133.625 0 1.278-.343 1.778zm.273-2.145H5.992c-.265.008-.484-.277-.492-.637V1.13C5.508.8 5.691.527 5.934.5L9.355.008A.393.393 0 0 1 9.73.16a.722.722 0 0 1 .168.477v.558c-.003.36-.226.645-.488.637zm0 0"/></svg>