<svg xmlns="http://www.w3.org/2000/svg" width="11" height="11"><path style="stroke:none;fill-rule:nonzero;fill:#000;fill-opacity:1" d="M5.133 5.133h2.101a.367.367 0 0 0 .184-.047l.559-.32a.193.193 0 0 0 .07-.266.193.193 0 0 0-.168-.102H5.133V.734h4.402c.402 0 .73.329.73.73v8.071c0 .402-.328.73-.73.73h-8.07a.732.732 0 0 1-.73-.73v-8.07c0-.403.328-.73.73-.73h1.469v7.699c0 .203.164.367.367.367h1.465a.367.367 0 0 0 .367-.367V7.332h3.57a.363.363 0 0 0 .18-.047l.558-.32a.193.193 0 0 0 .075-.266.195.195 0 0 0-.172-.097H5.133zm0 0"/></svg>