<svg xmlns="http://www.w3.org/2000/svg" width="11" height="11"><path style="stroke:none;fill-rule:nonzero;fill:#000;fill-opacity:1" d="M5.133 4.398V.734h.734v3.664h1.098c.207 0 .367.165.367.368v4.402c0 .203-.16.367-.367.367h-2.93a.364.364 0 0 1-.367-.367V4.766c0-.204.16-.368.367-.368zm0 .735h-.735v1.469h2.204v-1.47zM2.933.734v9.532H1.466a.732.732 0 0 1-.73-.73V1.464c0-.403.328-.73.73-.73zm5.133 0h1.47c.402 0 .73.329.73.73v8.071c0 .402-.329.73-.73.73h-1.47zM6.602 7.332h-.735v.734h.735zm0 0"/></svg>