<svg xmlns="http://www.w3.org/2000/svg" width="11" height="11"><path style="stroke:none;fill-rule:nonzero;fill:#000;fill-opacity:1" d="M8.066 0v4.398s-.734-.546-1.101-.546c-.547 0-.914.73-.363 1.28l1.464 1.47v1.832H2.934V0zM3.301 6.965v1.101h1.097c0-.734-.363-1.101-1.097-1.101zm4.398 0c-.734 0-1.097.367-1.097 1.101h1.097zM5.316 3.3c-.921 0-1.28.492-1.28 1.097 0 .61.362 1.102 1.28 1.102.735 0 .918-.367.918-.367-.367-.551-.183-1.098.184-1.465 0 0-.367-.367-1.102-.367zM7.7.367H6.602c0 .735.363 1.098 1.097 1.098zm-3.3 0H3.3v1.098c.734 0 1.097-.363 1.097-1.098zm0 0"/><path style="stroke:none;fill-rule:nonzero;fill:#000;fill-opacity:1" d="m2.566 8.066.735.735h4.398l.735-.735V6.602S6.766 5.094 6.602 4.766c-.184-.368 0-1.098 1.097-.368.684.457 1.469 1.102 1.836 1.47.363.366.73 2.198.73 2.933 0 .734-1.464 2.199-1.464 2.199H5.867s-1.37-.844-2.199-1.465C.734 7.332.734 5.867 2.566 6.965.734 5.867.367 4.398 2.566 5.5c-2.199-1.102-2.199-2.566 0-1.465-2.199-1.101-1.101-1.836 0-1.285v5.316zm0 0"/></svg>