<svg xmlns="http://www.w3.org/2000/svg" width="11" height="11"><path style="stroke:none;fill-rule:nonzero;fill:#000;fill-opacity:1" d="M9.535 1.465v4.96a.737.737 0 0 1-.078.329L8.27 9.129a.74.74 0 0 1-.657.406h-.281a.367.367 0 0 1-.367-.367V7.883a.55.55 0 0 0-.547-.551H4.582a.55.55 0 0 0-.547.55v1.286a.367.367 0 0 1-.367.367h-.281a.74.74 0 0 1-.657-.406L1.543 6.754a.737.737 0 0 1-.078-.328V1.465C1.465.656 2.125 0 2.934 0h5.132c.809 0 1.47.656 1.47 1.465zm-4.77 6.234h1.47c.202 0 .367.164.367.367v1.102a.367.367 0 0 1-.368.367h-.367V11h-.734V9.535h-.367a.367.367 0 0 1-.368-.367V8.066c0-.203.165-.367.368-.367zM2.2 2.566v1.47c0 .198.164.362.367.362h5.868a.366.366 0 0 0 .367-.363V2.566a.367.367 0 0 0-.367-.367H2.566a.367.367 0 0 0-.367.367zm.735-1.464c0 .199.164.363.367.363h4.398a.366.366 0 1 0 0-.73H3.301a.367.367 0 0 0-.367.367zm3.668 5.132c0 .204.164.368.363.368H8.02a.37.37 0 0 0 .32-.192l.41-.73a.367.367 0 0 0-.32-.547H6.965c-.2 0-.363.164-.363.367zm-2.204 0V5.5a.366.366 0 0 0-.363-.367H2.57a.367.367 0 0 0-.32.547l.41.73a.37.37 0 0 0 .32.192h1.055c.2 0 .363-.165.363-.368zm0 0"/></svg>