<svg xmlns="http://www.w3.org/2000/svg" width="11" height="11"><path style="stroke:none;fill-rule:nonzero;fill:#000;fill-opacity:1" d="M9.535 1.465v4.96a.729.729 0 0 1-.082.329l-1.18 2.375a.739.739 0 0 1-.66.406h-.281a.367.367 0 0 1-.367-.367V7.883c0-.301-.246-.551-.547-.551H4.582c-.3 0-.547.25-.547.55v1.286a.367.367 0 0 1-.367.367h-.281a.739.739 0 0 1-.66-.406l-1.18-2.375a.729.729 0 0 1-.082-.328V1.465C1.465.66 2.125 0 2.934 0h5.132c.809 0 1.47.66 1.47 1.465zm-4.77 6.234h1.47c.202 0 .367.164.367.367v1.102a.367.367 0 0 1-.368.367h-.367V11h-.734V9.535h-.367a.367.367 0 0 1-.368-.367V8.066c0-.203.165-.367.368-.367zM2.2 2.566v1.47c0 .202.164.362.367.362h5.868c.203 0 .367-.16.367-.363V2.566a.367.367 0 0 0-.367-.367H2.566a.367.367 0 0 0-.367.367zm.735-1.464c0 .203.16.363.367.363h4.398c.207 0 .367-.16.367-.363A.362.362 0 0 0 7.7.734H3.301a.362.362 0 0 0-.367.368zm3.668 5.132c0 .204.16.368.363.368h1.058c.133 0 .25-.075.317-.192l.41-.734a.366.366 0 0 0 .043-.176.362.362 0 0 0-.367-.367H6.965a.361.361 0 0 0-.363.367zm-2.204 0V5.5a.361.361 0 0 0-.363-.367h-1.46a.362.362 0 0 0-.368.367c0 .066.016.125.043.176l.41.734a.364.364 0 0 0 .317.192h1.058a.363.363 0 0 0 .363-.368zm0 0"/></svg>