<svg xmlns="http://www.w3.org/2000/svg" width="11" height="11"><path style="stroke:none;fill-rule:nonzero;fill:#000;fill-opacity:1" d="M6.719 3.668H5.5a.367.367 0 1 1 0-.734h1.457a.357.357 0 0 1 .23.074.392.392 0 0 1 .094.101c.012.02.02.043.028.063l.785 1.96h.34c1.011 0 1.832.821 1.832 1.833a1.833 1.833 0 1 1-3.63-.363h-.769c0 .402-.328.73-.734.73h-.77a1.832 1.832 0 0 1-3.629-.367c0-.887.63-1.625 1.465-1.793v-.04h2.2l2.64-.66zM3.605 7.332h-.671a.733.733 0 0 1-.735-.73V5.93a1.104 1.104 0 0 0-.734 1.035 1.103 1.103 0 0 0 2.14.367zm4.102-1.191a1.1 1.1 0 0 0 .727 1.926c.605 0 1.101-.493 1.101-1.102 0-.606-.496-1.098-1.101-1.098h-.047l.386.965a.369.369 0 0 1-.203.477.369.369 0 0 1-.476-.207zM3.668 4.766H1.465V3.668h1.469c.406 0 .734.328.734.73zm0 0"/></svg>