<svg xmlns="http://www.w3.org/2000/svg" width="11" height="11"><path style="stroke:none;fill-rule:nonzero;fill:#000;fill-opacity:1" d="M6.719 5.133H5.5a.367.367 0 1 1 0-.735h1.457c.023 0 .047.004.066.008a.34.34 0 0 1 .258.172c.012.02.02.04.028.059l.785 1.965h.34a1.832 1.832 0 1 1-1.797 1.464h-.77a.734.734 0 0 1-.734.735h-.77a1.832 1.832 0 0 1-3.629-.367c0-.887.63-1.63 1.465-1.797v-.035h2.2l2.64-.66zM3.605 8.8h-.671a.734.734 0 0 1-.735-.735v-.671a1.105 1.105 0 0 0-.734 1.039c0 .605.496 1.101 1.101 1.101.48 0 .887-.308 1.04-.734zm4.102-1.196a1.102 1.102 0 0 0 .727 1.93c.605 0 1.101-.496 1.101-1.101 0-.61-.496-1.102-1.101-1.102-.016 0-.032 0-.047.004l.386.96a.367.367 0 0 1-.68.274zm1.094-6.14a.734.734 0 1 1 0 1.469H4.246a1.836 1.836 0 0 1-1.68 1.101c-.75 0-1.394-.453-1.68-1.101h1.68l.368-.735-.368-.734H.886A1.84 1.84 0 0 1 2.567.367c.75 0 1.395.453 1.68 1.098zm-5.133 4.77H1.465V5.132h1.469c.406 0 .734.328.734.734zm0 0"/></svg>