<svg xmlns="http://www.w3.org/2000/svg" width="11" height="11"><path style="stroke:none;fill-rule:nonzero;fill:#000;fill-opacity:1" d="M6.719 5.133H5.5a.362.362 0 0 1-.367-.367c0-.204.16-.368.367-.368h1.46c.02 0 .044 0 .063.008a.325.325 0 0 1 .165.067c.035.03.066.058.093.101.008.024.024.047.032.067l.785 1.96h.336a1.832 1.832 0 1 1-1.797 1.465h-.77a.739.739 0 0 1-.734.735h-.77a1.832 1.832 0 0 1-3.629-.367c0-.887.63-1.63 1.465-1.797v-.035h2.2l2.64-.66zM3.602 8.8h-.668a.739.739 0 0 1-.735-.735v-.668a1.1 1.1 0 1 0 1.403 1.403zm4.105-1.196a1.1 1.1 0 0 0 .727 1.93 1.1 1.1 0 0 0 1.101-1.101 1.1 1.1 0 0 0-1.101-1.102H8.39l.379.961a.358.358 0 0 1-.196.477.358.358 0 0 1-.476-.196zm-4.039-1.37H1.465V5.132h1.469c.402 0 .734.332.734.734zm4.766-5.5c.203 0 .367.16.367.367V3.3a.367.367 0 0 1-.367.367H7.332a1.442 1.442 0 0 1-1.262-.734H5.5l-.734-.735-.73.735-.735-.735-.735.735-.734-.735.734-.734H6.07c.25-.438.72-.73 1.262-.73zm-.368 1.831v-.734a.367.367 0 1 0-.734 0v.734c0 .207.164.368.367.368.207 0 .367-.16.367-.368zm0 0"/></svg>