<svg xmlns="http://www.w3.org/2000/svg" width="11" height="11"><path style="stroke:none;fill-rule:nonzero;fill:#000;fill-opacity:1" d="M6.719 3.668H5.5a.364.364 0 0 1-.367-.367c0-.207.16-.367.367-.367h1.46c.02 0 .044 0 .063.007a.294.294 0 0 1 .165.067.392.392 0 0 1 .093.101c.008.024.024.043.032.067l.785 1.957h.336c1.011 0 1.832.82 1.832 1.832a1.833 1.833 0 1 1-3.63-.363h-.769c0 .402-.332.73-.734.73h-.77A1.833 1.833 0 1 1 2.2 5.172v-.04h2.2l2.64-.66zM3.602 7.332h-.668a.735.735 0 0 1-.735-.73v-.668a1.091 1.091 0 0 0-.734 1.03 1.1 1.1 0 0 0 2.137.368zm4.105-1.195a1.1 1.1 0 0 0 .727 1.93 1.1 1.1 0 1 0 0-2.2H8.39l.379.961a.36.36 0 0 1-.196.477.363.363 0 0 1-.476-.2zM3.668 4.766H1.465V3.668h1.469c.402 0 .734.328.734.73zm0 0"/></svg>