<svg xmlns="http://www.w3.org/2000/svg" width="11" height="11"><path style="stroke:none;fill-rule:nonzero;fill:#000;fill-opacity:1" d="m4.348 3.55.566-1.327a.64.64 0 0 1 .586-.391.64.64 0 0 1 .586.39l1.246 2.544.516-1.079a.636.636 0 0 1 1.172 0l1.878 4.856c.067.168.102.352.102.527v.465c0 .402-.328.73-.734.73H1.102A1.1 1.1 0 0 1 0 9.169V6.602c0-1.286.625-2.665 1.129-3.844L1.98.754a.636.636 0 0 1 1.172 0zm4.086.665-1.47 3.484 1.47-.734.734 1.469.73-.735zm-5.868-2.93-1.464 3.48 1.464-.73.735 1.465.734-.734zM5.5 2.75 4.035 6.234 5.5 5.5l.734 1.465.73-.73zm0 0"/></svg>