<svg xmlns="http://www.w3.org/2000/svg" width="11" height="11"><path style="stroke:none;fill-rule:nonzero;fill:#000;fill-opacity:1" d="M6.695 1.453c.34-.008.602-.012.875-.008 1.055.024 1.664.137 1.895.547.34.602-.324 1.18-1.969 2.004-.527.262-.906.473-1.156.637-.035.027-.07.05-.098.07.063.016.137.031.227.05.078.013.363.067.406.075.176.035.32.063.457.098 1.164.27 1.836.742 1.836 1.676v2.933H5.5V6.602h2.934c0-.477-.399-.762-1.27-.965a13.387 13.387 0 0 0-.426-.086l-.41-.078c-.297-.059-.476-.106-.625-.176-.285-.133-.453-.375-.34-.688.125-.343.64-.687 1.805-1.27.719-.359 1.203-.655 1.465-.886.12-.105.152-.14.176-.125l.004.012c-.09-.063-.583-.149-1.258-.16-.29-.004-.575-.004-.97.007-.136.004-.23.008-.3.008-.703 1.028-2.8 3.946-6.285 8.746C2.875 4.5 4.418 1.09 4.633.715c.324-.559.965-.938 1.601-.57.504.292.602.82.461 1.308zM4.398 9.898V6.234a.367.367 0 1 1 .735 0v3.664a.367.367 0 1 1-.735 0zm5.137 0V6.234a.366.366 0 1 1 .73 0v3.664a.366.366 0 1 1-.73 0zm-4.27-7.347L6 1.28a.365.365 0 0 0-.133-.5.365.365 0 0 0-.5.133l-.734 1.27a.37.37 0 0 0 .133.503c.175.098.402.04.5-.136zm0 0"/></svg>