<svg xmlns="http://www.w3.org/2000/svg" width="11" height="11"><path style="stroke:none;fill-rule:nonzero;fill:#000;fill-opacity:1" d="m6.602 6.012.73 4.254h1.102c.367 0 .367.734 0 .734H2.566c-.367 0-.367-.734 0-.734h1.102l.73-4.254c.735.5 1.47.5 2.204 0zM6.16 8.8H4.84l-.219 1.465H6.38zm-.293-2.016h-.734l-.184 1.281h1.102l-.184-1.28zm1.281-1.922c-.011.27-.136.703-.363.93l2.75 1.086v3.851c0 .364.73.364.73 0V7.148c.551.184.919-.77.368-.953L7.148 4.863zM2.566.734C0 .734-.734 6.964.918 6.964c.547 0 1.457-2.859 1.457-2.859l1.477.551c0-.3.183-.71.378-.922L2.72 3.16S3.3 1.355 3.3 1.102c0-.184-.367-.368-.735-.368zM5.5 5.867c.645 0 1.102-.457 1.102-1.101 0-.637-.457-1.098-1.102-1.098-.637 0-1.102.469-1.102 1.113 0 .637.465 1.086 1.102 1.086zm0 0"/></svg>