<svg xmlns="http://www.w3.org/2000/svg" width="11" height="11"><path style="stroke:none;fill-rule:nonzero;fill:#000;fill-opacity:1" d="M5.902 2.566h3.594c.024.118.04.243.04.368a1.835 1.835 0 0 1-1.837 1.832 1.832 1.832 0 0 1-1.797-2.2zM9.38 2.2H4.582a.18.18 0 0 1-.184-.183c0-.11.067-.211.172-.254l1.297-.602V.492c0-.207.16-.367.367-.367a.38.38 0 0 1 .094.008C7.84.535 8.91.734 9.535.734h.363c.207 0 .368.16.368.368v.73c0 .207-.16.367-.368.367zm.887 2.934v4.765a.367.367 0 0 1-.368.368l-4.03-.012zM5.133 9.898V6.602H1.465a.735.735 0 0 1 0-1.47h7.703zM1.102.734H3.3c.203 0 .367.16.367.368v2.933a.363.363 0 0 1-.367.363H1.1a.361.361 0 0 1-.367-.363V1.102c0-.207.16-.368.368-.368zm1.097.73a.739.739 0 0 0-.734.735c0 .403.332.735.734.735a.739.739 0 0 0 .735-.735.739.739 0 0 0-.735-.734zm0 0"/></svg>