<svg xmlns="http://www.w3.org/2000/svg" width="11" height="11"><path style="stroke:none;fill-rule:nonzero;fill:#000;fill-opacity:1" d="M2.895.727a.834.834 0 1 0 .003 1.669.834.834 0 0 0-.003-1.67zm5.003.668a.836.836 0 0 0-.835.832.834.834 0 1 0 .836-.832zM2.063 2.562l-.833.833-.503 1.304v.309h.503l.833-1.613v1.304l.707.977c.18-.227.453-.356.738-.465l-.113-.203V3.824l1.183.84a.813.813 0 0 0 .152-.266c.028-.085.055-.171.079-.261L2.562 2.563zm4.68.168a.318.318 0 0 0-.247.098L5.16 4.16a.337.337 0 0 0 0 .473l.902.902v1.527c0 .184.145.336.329.34a.333.333 0 0 0 .34-.328v-1.68a.348.348 0 0 0-.094-.234l-.508-.5.777-.8.559.738c.062.082.16.132.265.132h1.336a.336.336 0 0 0 .293-.5.333.333 0 0 0-.285-.168H7.898l-.902-1.199a.313.313 0 0 0-.254-.133zM1.831 5.18.895 7.758l.332.304h.343l.774-2.32zm2.566.215c-.921 0-1.671.75-1.671 1.668a1.67 1.67 0 0 0 3.253.523.675.675 0 0 1-.25-.524v-.664a.71.71 0 0 1 .051-.261 1.66 1.66 0 0 0-1.383-.742zm4 0c-.578 0-1.085.296-1.386.742.035.078.05.168.05.258v.668c0 .21-.093.398-.25.523A1.671 1.671 0 0 0 8.399 8.73a1.667 1.667 0 1 0 0-3.335zm-4 .668a1 1 0 1 1 0 2 1 1 0 1 1 0-2zm4 0A1 1 0 1 1 8.4 8.06a1 1 0 0 1-.002-1.998zm-6.941 3.03-.73 1.095H2.91l.727-1.094zm3.273 0L4 10.189h2.91l-.726-1.094zm2.547 0 .727 1.095h2.184l-.731-1.094zm0 0"/></svg>