<svg xmlns="http://www.w3.org/2000/svg" width="11" height="11"><path style="stroke:none;fill-rule:nonzero;fill:#000;fill-opacity:1" d="M2.898.727a.834.834 0 0 0-.836.836c0 .46.372.835.836.835a.83.83 0 0 0 .829-.836.83.83 0 0 0-.829-.835zm5 .668a.834.834 0 0 0-.835.835c0 .461.375.829.835.829a.83.83 0 0 0 .836-.829.834.834 0 0 0-.836-.835zM2.063 2.559l-.833.836-.503 1.304v.309h.503l.833-1.613v1.304l.71.977c.176-.227.446-.352.73-.461l-.108-.207V3.82l1.18.844a.81.81 0 0 0 .155-.266c.028-.085.06-.175.082-.261L2.56 2.559zm4.675.168a.364.364 0 0 0-.242.097L5.164 4.156a.335.335 0 0 0 0 .477l.902.902v1.527c0 .184.145.336.329.336a.324.324 0 0 0 .335-.328V5.398a.334.334 0 0 0-.093-.234l-.508-.508.777-.8.559.742a.34.34 0 0 0 .265.132h1.332a.339.339 0 0 0 .293-.16.35.35 0 0 0 0-.34.315.315 0 0 0-.285-.168H7.898L6.996 2.86a.325.325 0 0 0-.258-.132zM1.832 5.176.895 7.758l.332.308h.343l.778-2.324zm2.566.222a1.67 1.67 0 0 0-1.671 1.665c0 .921.75 1.671 1.671 1.671.735 0 1.368-.484 1.586-1.152a.651.651 0 0 1-.257-.52v-.667a.67.67 0 0 1 .058-.258 1.675 1.675 0 0 0-1.387-.739zm4 0c-.582 0-1.085.293-1.386.739a.66.66 0 0 1 .05.258v.668c0 .21-.097.402-.25.519a1.677 1.677 0 0 0 1.586 1.152c.922 0 1.672-.75 1.672-1.671a1.67 1.67 0 0 0-1.672-1.665zm-4 .668c.551 0 1 .446 1 .997 0 .55-.449 1.003-1 1.003a1 1 0 1 1 0-2zm4 0a1 1 0 1 1 0 2c-.55 0-1-.453-1-1.004 0-.55.45-.996 1-.996zM1.453 9.094l-.726 1.094H2.91l.727-1.094zm3.277 0-.726 1.094h2.91l-.73-1.094zm2.543 0L8 10.188h2.188L9.46 9.094zm0 0"/></svg>