<svg xmlns="http://www.w3.org/2000/svg" width="11" height="11"><path style="stroke:none;fill-rule:nonzero;fill:#000;fill-opacity:1" d="M1.102.734c.203 0 .363.16.363.368v8.796c0 .207-.16.368-.363.368a.362.362 0 0 1-.368-.368V1.102c0-.207.16-.368.368-.368zm8.796 0c.207 0 .368.16.368.368v8.796c0 .207-.16.368-.368.368a.361.361 0 0 1-.363-.368V1.102c0-.207.16-.368.363-.368zM6.602 2.383a.917.917 0 1 1-1.838.002.917.917 0 0 1 1.838-.002zM4.766 3.484h.55l3.118 2.184v.508h-.368L6.234 4.87v1.305l.73 1.34.735 1.68-.367.34h-.367l-.73-1.68-1.47-2.02V4.27l-.913.722-.735 1.184h-.55v-.34l.55-1.012zm.308 3.496L4.23 9.535h-.378l-.368-.34L4.516 6.36zm0 0"/></svg>