<svg xmlns="http://www.w3.org/2000/svg" width="11" height="11"><path style="stroke:none;fill-rule:nonzero;fill:#000;fill-opacity:1" d="M1.102.734c.199 0 .363.164.363.368v8.796a.366.366 0 1 1-.73 0V1.102c0-.204.163-.368.367-.368zm8.796 0c.204 0 .368.164.368.368v8.796a.366.366 0 1 1-.73 0V1.102c0-.204.163-.368.362-.368zM6.602 2.383a.917.917 0 1 1-1.838.002.917.917 0 0 1 1.838-.002zM4.766 3.484h.55l3.118 2.184v.504h-.368l-1.832-1.3v1.3l.73 1.344.735 1.683-.367.336h-.367l-.73-1.683-1.47-2.016V4.27l-.913.726-.735 1.176h-.55v-.336l.55-1.008zm.308 3.496-.847 2.555h-.375L3.484 9.2l1.032-2.836zm0 0"/></svg>