<svg xmlns="http://www.w3.org/2000/svg" width="11" height="11"><path style="stroke:none;fill-rule:nonzero;fill:#000;fill-opacity:1" d="M6.602 1.648a.917.917 0 1 1-1.838.002.917.917 0 0 1 1.838-.002zM4.766 2.75h.55l3.118 2.184v.503h-.368l-1.832-1.3v1.3l.73 1.348.735 1.68-.367.336h-.367l-.73-1.68-1.47-2.02V3.54l-.913.723-.735 1.176h-.55v-.336l.55-1.008zm.308 3.496-.847 2.555h-.375l-.368-.336 1.032-2.836zm-3.61 2.922h2.204l-.734 1.098h-2.2zm3.302 0h1.468l.73 1.098H4.036zm4.77 0 .73 1.098h-2.2l-.734-1.098zm0 0"/></svg>