<svg xmlns="http://www.w3.org/2000/svg" width="11" height="11"><path style="stroke:none;fill-rule:nonzero;fill:#000;fill-opacity:1" d="M7.332 2.75a.917.917 0 1 1 1.836 0 .917.917 0 1 1-1.836 0zm.441 2.602-.613-.809-.851.879.55.55c.07.071.106.165.106.262v1.844a.361.361 0 0 1-.371.36.361.361 0 0 1-.36-.372v-1.68l-.992-.991a.365.365 0 0 1 0-.52l1.465-1.469a.373.373 0 0 1 .555.04l.988 1.32h1.293a.363.363 0 0 1 .309.555.365.365 0 0 1-.317.179H8.066a.368.368 0 0 1-.293-.148zM5.926 7.047a.703.703 0 0 0-.059.285v.734c0 .23.106.438.274.575a1.832 1.832 0 1 1-1.742-2.406c.636 0 1.195.324 1.527.812zM7.059 8.64a.738.738 0 0 0 .273-.575v-.734a.772.772 0 0 0-.055-.285A1.832 1.832 0 1 1 7.06 8.64zm-2.66-1.676a1.102 1.102 0 0 0 0 2.203 1.103 1.103 0 0 0 0-2.203zm4.402 0a1.103 1.103 0 0 0 0 2.203 1.102 1.102 0 0 0 0-2.203zM4.855 4.852c-.027.093-.058.187-.09.285a.809.809 0 0 1-.163.289L3.3 4.504v1.3l.12.227c-.312.121-.612.262-.808.508l-.781-1.07V4.035l-.914 1.77h-.55v-.336l.55-1.434.914-.918h.55zM1.293 9.168H.918l-.367-.336 1.031-2.836.559.617zm2.375-7.152a.917.917 0 1 1-1.834.002.917.917 0 0 1 1.834-.002zm0 0"/></svg>