<svg xmlns="http://www.w3.org/2000/svg" width="11" height="11"><path style="stroke:none;fill-rule:nonzero;fill:#000;fill-opacity:1" d="M6.602 2.934c1.832 0 2.566.734 2.566 2.566 0 1.102-.734 4.035-.734 4.035C8.066 11 6.964 11 5.5 11c-1.465 0-2.566 0-2.934-1.465 0 0-.734-2.933-.734-4.035 0-1.832.734-2.566 2.566-2.566zm-1.47.734C2.2 3.668 2.567 5.5 2.935 7.332c0-1.832 0-2.934 2.199-3.664zM6.234 0c.73 0 .914.734.914 1.102h.918c0-.368.368-.735 1.102-.735.73 0 1.465.367 1.465.918 0 .547-.735.914-1.465.914-.734 0-1.102-.367-1.102-.734h-.918c0 .367-.183 1.101-.914 1.101H4.766c-.73 0-.73-.734-.73-.918.546 0 .546-.73 0-.73 0-.184 0-.918.73-.918zM2.754.68l.363.05c.102.016.168.11.156.208a.184.184 0 0 1-.207.156l-.363-.051a.182.182 0 0 1-.156-.207.182.182 0 0 1 .207-.156zM1.664.523a.184.184 0 0 0-.05.364l.363.05a.184.184 0 0 0 .05-.363zM.574.367a.19.19 0 0 0-.207.156.185.185 0 0 0 .156.207l.364.051A.18.18 0 0 0 1.094.63.18.18 0 0 0 .937.422zm.313 1.414-.364.051a.187.187 0 0 0-.156.207c.016.102.11.168.207.156l.364-.05a.185.185 0 0 0 .156-.211.18.18 0 0 0-.207-.153zm1.09-.156-.364.05a.184.184 0 0 0 .051.364l.363-.05a.184.184 0 0 0-.05-.364zm1.09-.156-.364.05a.184.184 0 0 0 .05.364l.364-.051a.187.187 0 0 0 .156-.207.184.184 0 0 0-.207-.156zm0 0"/></svg>