<svg xmlns="http://www.w3.org/2000/svg" width="11" height="11"><path style="stroke:none;fill-rule:nonzero;fill:#000;fill-opacity:1" d="M6.602 2.934c1.832 0 2.566.734 2.566 2.566 0 1.102-.734 4.035-.734 4.035C8.066 11 6.964 11 5.5 11c-1.465 0-2.566 0-2.934-1.465 0 0-.734-2.933-.734-4.035 0-1.832.734-2.566 2.566-2.566zm-1.47.734C2.2 3.668 2.567 5.5 2.935 7.332c0-1.832 0-2.934 2.199-3.664zM6.234 0c.73 0 .914.734.914 1.102h.918c0-.368.368-.735 1.102-.735.73 0 1.465.367 1.465.918 0 .547-.735.914-1.465.914-.734 0-1.102-.367-1.102-.734h-.918c0 .367-.183 1.101-.914 1.101H4.766c-.73 0-.73-.734-.73-.918.546 0 .546-.73 0-.73 0-.184 0-.918.73-.918zM2.758.684l.36.05a.173.173 0 0 1 .152.204c-.012.105-.102.167-.204.156L2.7 1.043a.187.187 0 0 1-.156-.207.186.186 0 0 1 .215-.152zM1.664.527a.173.173 0 0 0-.203.157.18.18 0 0 0 .152.203l.367.05a.177.177 0 0 0 .204-.152.184.184 0 0 0-.153-.207zM.578.367a.188.188 0 0 0-.21.16C.351.625.425.72.527.734l.359.051A.184.184 0 0 0 1.094.63.185.185 0 0 0 .937.418zm.309 1.414-.36.051a.184.184 0 0 0-.16.207c.016.102.11.168.211.152l.36-.05a.178.178 0 0 0 .156-.204.179.179 0 0 0-.207-.156zM1.98 1.63l-.367.05a.175.175 0 0 0-.152.204.173.173 0 0 0 .203.156l.367-.05a.187.187 0 0 0 .153-.208c-.012-.101-.11-.176-.204-.152zm1.086-.164L2.7 1.52c-.097.011-.168.109-.156.21a.192.192 0 0 0 .215.153l.36-.051a.177.177 0 0 0 .152-.203.182.182 0 0 0-.204-.164zm0 0"/></svg>