<svg xmlns="http://www.w3.org/2000/svg" width="11" height="11"><path style="stroke:none;fill-rule:nonzero;fill:#000;fill-opacity:1" d="M8.434 4.398c.367 0 .367.368.367.368v.367c.367 0 .734 0 1.097.367L11 6.602s0 .73-.734.73H9.168L7.699 6.234l.367-1.468c.114-.34.368-.368.368-.368zm-3.668.735c.496-.008.496.742 0 .734 0 0-.106.004-.204.051-.093.05-.164.07-.164.316v.368h2.567l1.101.73c.27.18.735.45.735 1.102v1.832s.367 0 .367.367-.367.367-.367.367h-.367s-.368 0-.614-.738L7.332 8.8h-2.2v1.832s0 .367-.366.367c-.368 0-.368-.367-.368-.367v-1.32c-.226.12-.472.222-.73.222v1.098s0 .367-.367.367-.367-.367-.367-.367V9.168c0-.367.367-.367.367-.367.367 0 .367-.367.367-1.102V6.234c0-.488.297-.836.57-.972.27-.133.528-.13.528-.13zm1.101-2.934v1.836c0 .2-.164.363-.367.363a.366.366 0 0 1-.367-.363V2.2h-.735v1.836a.365.365 0 0 1-.73 0V2.2h-.734v1.836c0 .2-.164.363-.368.363a.366.366 0 0 1-.367-.363V2.2h-.734v1.836a.365.365 0 0 1-.73 0V1.937c0-.296.18-.566.456-.675C2.051.91 2.996.734 4.035.734c1.035 0 1.98.176 2.844.528.273.11.453.379.453.675v2.098a.366.366 0 0 1-.73 0V2.2zm0 0"/></svg>