<svg xmlns="http://www.w3.org/2000/svg" width="11" height="11"><path d="M8.434 4.398c.367 0 .367.368.367.368v.367c.367 0 .734 0 1.097.367L11 6.602s0 .73-.734.73H9.168L7.699 6.234l.367-1.468c.11-.336.368-.368.368-.368Zm-3.668.735c.5-.008.5.742 0 .734 0 0-.11.008-.204.051-.097.05-.164.074-.164.316v.368h2.567l1.101.73c.274.176.735.45.735 1.102v1.832s.367 0 .367.367-.367.367-.367.367h-.367s-.368 0-.618-.742L7.332 8.8h-2.2v1.832s0 .367-.366.367c-.368 0-.368-.367-.368-.367v-1.32c-.226.117-.476.222-.73.222v1.098s0 .367-.367.367-.367-.367-.367-.367V9.168c0-.367.367-.367.367-.367.367 0 .367-.367.367-1.102V6.234c0-.492.3-.836.57-.968.274-.141.528-.133.528-.133Zm1.101-2.934v1.836c0 .203-.16.363-.367.363a.361.361 0 0 1-.367-.363V2.2h-.735v1.836a.36.36 0 0 1-.363.363.361.361 0 0 1-.367-.363V2.2h-.734v1.836c0 .203-.16.363-.368.363a.363.363 0 0 1-.367-.363V2.2h-.734v1.836a.36.36 0 0 1-.363.363.361.361 0 0 1-.368-.363V1.937c0-.292.184-.566.454-.675C2.054.91 3 .734 4.034.734c1.031 0 1.977.176 2.844.528.27.11.453.383.453.675v2.098c0 .203-.16.363-.367.363a.36.36 0 0 1-.363-.363V2.2Zm0 0" style="stroke:none;fill-rule:nonzero;fill:#000;fill-opacity:1"/></svg>