<svg xmlns="http://www.w3.org/2000/svg" width="11" height="11"><path style="stroke:none;fill-rule:nonzero;fill:#000;fill-opacity:1" d="M5.5 4.723c.617 0 1.133.418 1.281.984.184.707.16 1.484.969 1.89.715.243.988.551.988 1.372 0 .656-.562 1.355-1.285 1.441-.812.121-1.441-.035-1.953-.328-.512.293-1.14.453-1.95.328-.726-.086-1.288-.785-1.288-1.441 0-.805.289-1.145 1.008-1.38.878-.448.761-1.237.957-1.917.16-.547.671-.95 1.273-.95zm4.04-.489c-.22-.191-1.11.551-1.392.918a1.152 1.152 0 0 0-.277.762c0 .598.426 1.078.953 1.078.399 0 .742-.277.883-.672.273-.71.29-1.687-.168-2.086zm-8.08 0c-.456.399-.44 1.375-.167 2.086.14.395.484.672.883.672.527 0 .953-.48.953-1.078 0-.297-.106-.566-.277-.762-.282-.367-1.172-1.109-1.391-.918zM6.673.34c2.223.375 2.066 4.113.289 3.812-.512-.086-.895-.554-.953-1.113-.059-.566-.192-2.844.664-2.7zm-2.344 0c.856-.145.723 2.133.664 2.7-.058.558-.441 1.026-.953 1.112C2.262 4.453 2.105.715 4.33.34zm0 0"/></svg>