<svg xmlns="http://www.w3.org/2000/svg" width="11" height="11"><path style="stroke:none;fill-rule:nonzero;fill:#000;fill-opacity:1" d="M5.5 4.723c.617 0 1.137.418 1.281.984.184.707.157 1.484.969 1.887.715.246.988.554.988 1.375 0 .66-.562 1.355-1.285 1.441-.812.121-1.441-.039-1.953-.328-.512.29-1.14.453-1.953.328-.723-.086-1.285-.789-1.285-1.441 0-.805.289-1.145 1.004-1.38.882-.448.765-1.237.96-1.917a1.32 1.32 0 0 1 1.27-.95zm4.04-.489c-.22-.187-1.11.555-1.392.918a1.172 1.172 0 0 0-.277.762c0 .598.426 1.078.953 1.078.399 0 .742-.277.883-.672.273-.71.29-1.687-.168-2.086zm-8.08 0c-.456.399-.44 1.375-.167 2.086.14.395.484.672.883.672.527 0 .953-.48.953-1.078 0-.297-.106-.566-.277-.762-.282-.367-1.172-1.105-1.391-.918zM6.673.34c2.219.375 2.062 4.113.285 3.812-.512-.09-.89-.554-.95-1.113-.058-.566-.19-2.844.665-2.7zm-2.348 0c.856-.145.727 2.133.664 2.7-.054.558-.437 1.026-.949 1.112C2.262 4.453 2.105.715 4.324.34zm0 0"/></svg>