<svg xmlns="http://www.w3.org/2000/svg" width="11" height="11"><path style="stroke:none;fill-rule:nonzero;fill:#000;fill-opacity:1" d="M7.723 2.3a.756.756 0 0 0 .746-.769.755.755 0 0 0-.746-.765.758.758 0 0 0-.746.765c0 .426.335.77.746.77zm.554.173h-1.09L5.332.563A.372.372 0 0 0 4.793.55a.396.396 0 0 0-.016.55l1.942 2v6.622c0 .242.187.433.418.433a.425.425 0 0 0 .422-.433v-3.59h.34v3.59c0 .242.19.433.421.433.23 0 .418-.191.418-.433l-.004-6.621 1.942-1.997a.401.401 0 0 0-.016-.554.372.372 0 0 0-.539.011zM4.332 5.395a.6.6 0 0 0-.441-.192H2.328a.59.59 0 0 0-.437.192L.324 7.004a.398.398 0 0 0 .016.555.37.37 0 0 0 .535-.012l1.215-1.25v1.668H.73a.456.456 0 0 0-.453.465c0 .136.047.254.137.34l1.535 1.578a.448.448 0 0 0 .613.144.478.478 0 0 0 .168-.648l-.875-.899.016.004h2.516l-.88.895a.49.49 0 0 0 .169.652c.21.125.48.059.617-.144l1.535-1.579a.478.478 0 0 0 .137-.34.459.459 0 0 0-.453-.464h-1.36V6.316l1.192 1.23c.144.161.386.165.539.016a.401.401 0 0 0 .012-.554zm-1.207-.356a.752.752 0 0 0 .742-.766.75.75 0 0 0-.742-.765c-.41 0-.742.34-.742.765 0 .422.332.766.742.766zm0 0"/></svg>