<svg xmlns="http://www.w3.org/2000/svg" width="11" height="11"><path style="stroke:none;fill-rule:nonzero;fill:#000;fill-opacity:1" d="M4.883 4.914 6.18 6.211 4.406 7.984a7.14 7.14 0 0 0-1.34 1.856l-.418.836a.372.372 0 0 1-.328.203h-.808l-1.04-1.04a.373.373 0 0 1 0-.519zm3.11-2.594.777.778a.365.365 0 0 1 0 .52l-.516.519L6.957 2.84l.516-.52a.373.373 0 0 1 .52 0zm2.112 6.262L7.473 5.949a.733.733 0 0 0-1.035 0L5.14 4.656a.566.566 0 0 0-.118-.886L3.195 2.71 2.16 1.673 3.715.117l4.277 4.278 2.633 3.668zm0 0"/></svg>