<svg xmlns="http://www.w3.org/2000/svg" width="11" height="11"><path style="stroke:none;fill-rule:nonzero;fill:#000;fill-opacity:1" d="m3.387 4.227-.723 1.445L7.77 4.539 7.19 3.383zm.422-.844 3.043-.676-.25-.508H4.398zM2.242 6.52l-.043.082h6.602l-.696-1.387zM8.801 9.53a.573.573 0 0 0 .293-.133l.344-.293a1.3 1.3 0 0 1 .828-.285v.715a.732.732 0 0 0-.496.246c-.2.207-.454.356-.735.43a1.422 1.422 0 0 1-1.297-.266l-.289-.25a.575.575 0 0 0-.804 0c-.102.086-.2.18-.31.266a1.437 1.437 0 0 1-1.82-.05l-.285-.255a.568.568 0 0 0-.734 0c-.137.11-.262.23-.402.34a1.424 1.424 0 0 1-1.723-.043l-.226-.195a.71.71 0 0 0-.41-.223V8.82a.965.965 0 0 1 .55.098c.203.125.395.262.578.418a.641.641 0 0 0 .446.195c.035-.004.066-.004.101-.008.016-.003.031-.003.047-.007a.627.627 0 0 0 .227-.118c.117-.085.214-.183.332-.277a1.434 1.434 0 0 1 1.796 0c.118.094.227.2.344.293.211.18.524.18.73 0 .122-.094.231-.2.348-.293a1.435 1.435 0 0 1 1.805 0c.11.094.211.191.32.277a.542.542 0 0 0 .325.133c.039 0 .078-.004.117-.008zM.734 6.601l2.934-5.136h3.664l2.934 5.137v1.464H.734zm0 0"/></svg>