<svg xmlns="http://www.w3.org/2000/svg" width="11" height="11"><path style="stroke:none;fill-rule:nonzero;fill:#000;fill-opacity:1" d="m3.387 3.492-.723 1.45L7.77 3.804 7.19 2.648zm.422-.844 3.043-.675-.25-.508H4.398zM2.242 5.785l-.043.082h6.602L8.105 4.48zm6.559 3.746a.573.573 0 0 0 .293-.133l.344-.293a1.3 1.3 0 0 1 .828-.285v.715a.732.732 0 0 0-.496.246c-.2.207-.454.356-.735.43a1.422 1.422 0 0 1-1.297-.266l-.289-.25a.575.575 0 0 0-.804 0c-.102.086-.2.18-.31.266a1.437 1.437 0 0 1-1.82-.05l-.285-.255a.568.568 0 0 0-.734 0c-.137.11-.262.23-.402.34a1.424 1.424 0 0 1-1.723-.043l-.226-.195a.71.71 0 0 0-.41-.223V8.82a.965.965 0 0 1 .55.098c.203.125.395.262.578.418a.641.641 0 0 0 .446.195c.035-.004.066-.004.101-.008.016-.003.031-.003.047-.007a.627.627 0 0 0 .227-.118c.117-.085.214-.183.332-.277a1.434 1.434 0 0 1 1.796 0c.118.094.227.2.344.293.211.18.524.18.73 0 .122-.094.231-.2.348-.293a1.435 1.435 0 0 1 1.805 0c.11.094.211.191.32.277a.542.542 0 0 0 .325.133c.039 0 .078-.004.117-.008zM.734 5.867 3.668.734h3.664l2.934 5.133v1.465H8.8v1.465a.572.572 0 0 1-.442-.129c-.109-.086-.21-.188-.32-.281a1.432 1.432 0 0 0-.707-.305v-.75H3.668v.758c-.234.043-.461.14-.652.297-.118.093-.215.195-.332.281a.686.686 0 0 1-.227.113.637.637 0 0 1-.258.004V7.332H.734zm0 0"/></svg>