<svg xmlns="http://www.w3.org/2000/svg" width="11" height="11"><path style="stroke:none;fill-rule:nonzero;fill:#000;fill-opacity:1" d="M3.387 4.223 2.66 5.676l5.106-1.137-.57-1.16zm.418-.844 3.043-.672-.246-.508H4.398zm-1.563 3.14-.043.083h6.602l-.692-1.387zm6.559 3.008a.527.527 0 0 0 .293-.125l.344-.293c.234-.191.527-.293.828-.289v.715a.716.716 0 0 0-.496.246c-.2.207-.457.352-.735.426a1.4 1.4 0 0 1-1.297-.262l-.289-.25a.575.575 0 0 0-.804 0c-.102.086-.2.176-.31.262a1.427 1.427 0 0 1-1.82-.05l-.285-.25a.577.577 0 0 0-.734 0c-.137.113-.262.23-.402.34a1.419 1.419 0 0 1-1.723-.044l-.226-.191a.664.664 0 0 0-.41-.227V8.82a.9.9 0 0 1 .55.098c.203.125.395.262.578.418a.645.645 0 0 0 .446.2c.03-.009.066-.009.105-.009.012-.007.027-.007.043-.015a.677.677 0 0 0 .227-.11c.117-.09.214-.191.332-.28a1.434 1.434 0 0 1 1.796 0c.118.089.227.198.344.292.211.18.52.18.73 0 .122-.094.231-.203.348-.293.52-.43 1.282-.43 1.805 0 .11.09.211.191.32.281a.578.578 0 0 0 .325.133c.035 0 .078-.008.117-.008zM.734 6.602l2.934-5.137h3.664l2.934 5.137v1.464H.734zm0 0"/></svg>