<svg xmlns="http://www.w3.org/2000/svg" width="11" height="11"><path style="stroke:none;fill-rule:nonzero;fill:#000;fill-opacity:1" d="M6.008.61c.344.343.172.863-.52 1.554l-.258.258.258 2.851-.52.52-1.034-2.074-1.04 1.039v1.035l-.515.52-.52-1.555-1.554-.52.52-.52h1.034l1.036-1.034-2.07-1.04.515-.519 2.851.262.262-.262C5.145.434 5.66.262 6.008.609zm-1 9.796c-.348-.344-.172-.863.52-1.554l.257-.258-.258-2.852.516-.52 1.039 2.075 1.035-1.04V5.224l.52-.52.52 1.555 1.554.52-.52.519H9.156L8.117 8.332l2.074 1.04-.515.519-2.852-.262-.261.262c-.692.691-1.211.863-1.555.515zm0 0"/></svg>