<svg xmlns="http://www.w3.org/2000/svg" width="11" height="11"><path style="stroke:none;fill-rule:nonzero;fill:#000;fill-opacity:1" d="M7.32 0c0 1.465-.242 2.566-.718 3.3-.243.376-.485.645-.735.829v1.004c.242-.504.602-.961 1.055-1.305l1.144-.894a5.65 5.65 0 0 1-1.93 4.254l-.269.234V8.55a5.636 5.636 0 0 1 2.735-2.602l.199-.082v.735a3.663 3.663 0 0 1-2.934 3.59V11h-.734v-.809A3.68 3.68 0 0 1 2.199 6.77v-.903l.2.082a5.636 5.636 0 0 1 2.734 2.602V7.43l-.27-.242a5.61 5.61 0 0 1-1.922-4.043l-.007-.211 1.144.894c.453.344.813.8 1.055 1.305v-.996c-.25-.184-.492-.461-.735-.836C3.922 2.566 3.68 1.465 3.68 0c.773.46 1.402 1.246 1.77 2.2h.1c.368-.954.997-1.74 1.77-2.2zm0 0"/></svg>