<svg xmlns="http://www.w3.org/2000/svg" width="11" height="11"><path style="stroke:none;fill-rule:nonzero;fill:#000;fill-opacity:1" d="M7.324 6.512c.012.488-.097.968-.32 1.406-.332.652-.711 1.047-1.137 1.187v.793c0-.199.164-.363.367-.363.204 0 .368.164.368.363v.735a.367.367 0 1 1-.735 0h-.734a.367.367 0 1 1-.735 0v-.735c0-.199.165-.363.368-.363.203 0 .367.164.367.363v-.793c-.426-.14-.805-.535-1.137-1.187a2.926 2.926 0 0 1-.32-1.406l-1.477-.66v1.113c0-.2.164-.363.367-.363.204 0 .368.164.368.363v.734a.367.367 0 1 1-.735 0h-.734a.366.366 0 1 1-.73 0v-.734a.366.366 0 0 1 .73 0V5.52l-.86-.387L.027 4a.227.227 0 0 1 .098-.309.245.245 0 0 1 .105-.023h.227c.094 0 .188.035.258.102l.644.628h2.512c.156-.847.406-1.453.746-1.812l-1.054-.41a.369.369 0 0 1 .132-.711h1.438V.367a.367.367 0 1 1 .734 0v1.098h1.438c.199 0 .363.164.363.367 0 .152-.09.29-.23.344l-1.055.41c.34.36.59.965.746 1.812h2.508l.644-.628a.37.37 0 0 1 .258-.102h.227a.23.23 0 0 1 .23.23c0 .036-.012.07-.027.102l-.582 1.133-.852.387v1.445a.365.365 0 0 1 .73 0v.734a.366.366 0 1 1-.73 0h-.734a.367.367 0 1 1-.735 0v-.734c0-.2.164-.363.368-.363.203 0 .367.164.367.363V5.848zM5.133 5.5l-.735.734c.41.243.778.368 1.102.368.324 0 .691-.125 1.102-.368L5.867 5.5zm0 0"/></svg>