<svg xmlns="http://www.w3.org/2000/svg" width="11" height="11"><path style="stroke:none;fill-rule:nonzero;fill:#000;fill-opacity:1" d="M7.316 0c0 1.465-.238 2.566-.714 3.3-.243.372-.489.65-.735.833v1a3.639 3.639 0 0 1 1.055-1.309l1.144-.89a5.664 5.664 0 0 1-1.93 4.257l-.269.235v1.12A5.645 5.645 0 0 1 8.602 5.95l.199-.082v.735a3.667 3.667 0 0 1-2.934 3.59V11h-.734v-.809a3.665 3.665 0 0 1-2.93-3.425L2.2 6.602v-.735l.2.082a5.636 5.636 0 0 1 2.734 2.602V7.426l-.27-.235a5.666 5.666 0 0 1-1.926-4.046l-.003-.211 1.144.89c.453.352.813.801 1.055 1.309v-1c-.246-.184-.492-.461-.735-.832-.476-.735-.714-1.836-.714-3.301.77.465 1.398 1.25 1.77 2.2h.093c.371-.95 1-1.735 1.77-2.2zm0 0"/></svg>