<svg xmlns="http://www.w3.org/2000/svg" width="11" height="11"><path style="stroke:none;fill-rule:nonzero;fill:#000;fill-opacity:1" d="M2.934 0c.488 0 .734.488.734 1.465v.367l2.2 1.836v.73l-2.2-.73v1.465l.73.734v.735l-1.464-.735-1.47.735v-.735l.735-.734V3.668L0 4.398v-.73l2.2-1.836v-.367C2.2.488 2.444 0 2.933 0zm5.132 4.398c.489 0 .735.493.735 1.47v.366L11 8.066v.735l-2.2-.735v1.47l.735.73V11l-1.469-.734L6.602 11v-.734l.73-.73v-1.47l-2.2.735v-.735l2.2-1.832v-.367c0-.976.246-1.469.734-1.469zm0 0"/></svg>