<svg xmlns="http://www.w3.org/2000/svg" width="11" height="11"><path style="stroke:none;fill-rule:nonzero;fill:#000;fill-opacity:1" d="M.367 2.2h10.266c.207 0 .367.163.367.366v5.868c0 .203-.16.367-.367.367H.367A.364.364 0 0 1 0 8.434V2.566C0 2.363.16 2.2.367 2.2zm.367.734v5.132h9.532V2.934zm0 4.03c.61 0 1.098.493 1.098 1.102H.734zm0-2.929V2.934h1.098c0 .609-.488 1.101-1.098 1.101zm9.532 0c-.61 0-1.098-.492-1.098-1.101h1.098zm0 2.93v1.101H9.168c0-.609.488-1.101 1.098-1.101zm-7.7-2.527a.407.407 0 0 1-.402-.403c0-.223.184-.406.402-.406h1.47c.218 0 .402.183.402.406a.407.407 0 0 1-.403.402zm4.399 1.464a.407.407 0 0 1-.402-.402c0-.219.183-.402.402-.402h1.469c.218 0 .402.183.402.402a.407.407 0 0 1-.402.402zM5.5 4.437a.407.407 0 0 1-.402-.402c0-.223.183-.406.402-.406h2.934c.218 0 .402.183.402.406a.407.407 0 0 1-.402.402zM2.566 7.372a.408.408 0 0 1-.402-.406c0-.219.184-.402.402-.402h1.47c.218 0 .402.183.402.402a.408.408 0 0 1-.403.406zm2.934 0a.408.408 0 0 1-.402-.406c0-.219.183-.402.402-.402h2.934c.218 0 .402.183.402.402a.408.408 0 0 1-.402.406zM2.566 5.902a.407.407 0 0 1-.402-.402c0-.219.184-.402.402-.402H5.5c.219 0 .402.183.402.402a.407.407 0 0 1-.402.402zm0 0"/></svg>