<svg xmlns="http://www.w3.org/2000/svg" width="11" height="11"><path d="M5.133 2.2v2.198c0 .368-.735.368-.735 0H1.832c-.73 0-1.098-.363-1.098-1.097V.734C.367.734.367 0 .734 0h2.2c.367 0 .367.734 0 .734v1.098s0 .367.367.367h1.097c0-.367.735-.367.735 0Zm5.133 5.132c.367 0 .367-.73 0-.73V3.3c0-.735-.368-1.102-1.098-1.102H6.602c0-.367-.735-.367-.735 0v2.2c0 .367.735.367.735 0h1.097c.367 0 .367.367.367.367v1.836c-.367 0-.367.73 0 .73h2.2ZM9.168 7.7c.184 0 1.281 1.284 1.281 2.198 0 .735-.734 1.102-1.281 1.102-.55 0-1.285-.367-1.285-1.102 0-.914 1.101-2.199 1.285-2.199Zm-.992 2.198c0 .442.441.883.992.883-.55-.222-.77-.441-.992-.883Zm0 0" style="stroke:none;fill-rule:nonzero;fill:#000;fill-opacity:1"/></svg>