<svg xmlns="http://www.w3.org/2000/svg" width="11" height="11"><path style="stroke:none;fill-rule:nonzero;fill:#000;fill-opacity:1" d="M8.066 5.867v4.766A.367.367 0 0 1 7.7 11l-4.031-.016zm-5.132 4.766V6.234c0-.207.16-.367.367-.367h3.664zm4.398-7.7c.016.067.023.301.023.712A1.852 1.852 0 0 1 5.5 5.5h-.035A1.822 1.822 0 0 1 3.68 3.645c.007-.403.023-.637.039-.711l1.781.734zm.734-.917L5.5 3.117 2.934 2.016V.734C3.609.695 4.098.637 4.398.551 4.7.46 5.058.277 5.468 0c.427.27.802.453 1.134.55.328.095.812.153 1.464.184zm-1.832-.543a.994.994 0 0 0-.148-.137.94.94 0 0 0-1.32.137l.449.558a.21.21 0 0 0 .058.059.362.362 0 0 0 .512-.059zm0 0"/></svg>