<svg xmlns="http://www.w3.org/2000/svg" width="11" height="11"><path style="stroke:none;fill-rule:nonzero;fill:#000;fill-opacity:1" d="M8.066 4.652c.489 1.461.735 3.578.735 6.348H2.199c0-2.77.246-4.887.735-6.348v-.254C2.934 1.465 3.789 0 5.5 0c1.71 0 2.566 1.465 2.566 4.398v.254zm-.261 2.114C7.43 8.12 6.665 8.8 5.5 8.8c-1.164 0-1.93-.68-2.305-2.035-.144.972-.234 2.14-.257 3.5V11h5.128l-.004-.734c-.023-1.36-.113-2.528-.257-3.5zM4.582.867a.381.381 0 0 0-.02.684l.543.281c.45.234.782.64.926 1.129l.54 1.805a.35.35 0 0 0 .363.254.353.353 0 0 0 .336-.375c-.06-1.063-.16-1.875-.305-2.446C6.602.734 5.957.734 5.5.734c-.418 0-.723.043-.918.133zm0 0"/></svg>