<svg xmlns="http://www.w3.org/2000/svg" width="11" height="11"><path style="stroke:none;fill-rule:nonzero;fill:#000;fill-opacity:1" d="M10.266 5.133v4.765a.367.367 0 0 1-.368.368l-4.03-.012zM5.133 9.898V6.602H1.465a.735.735 0 0 1 0-1.47h7.703zm4.402-6.964c.063.316-.008 1.832-1.836 1.832-1.832 0-1.847-1.508-1.781-1.832l1.781.734zm.73-.918L7.7 3.117 5.133 2.016V.734C5.809.695 6.3.637 6.602.551c.3-.09.66-.274 1.07-.551.426.27.797.453 1.129.55.328.095.812.153 1.465.184zm-1.831-.543a.834.834 0 0 0-.149-.137.94.94 0 0 0-1.32.137l.45.558a.21.21 0 0 0 .058.059c.152.125.39.101.511-.059zm0 0"/></svg>