<svg xmlns="http://www.w3.org/2000/svg" width="11" height="11"><path style="stroke:none;fill-rule:nonzero;fill:#000;fill-opacity:1" d="M8.066 5.867v4.766A.367.367 0 0 1 7.7 11l-4.031-.016zm-5.132 4.766V6.234c0-.203.164-.367.367-.367h3.664zm4.398-7.7c.016.067.023.301.023.712A1.855 1.855 0 0 1 5.5 5.5h-.035A1.822 1.822 0 0 1 3.68 3.645c.007-.403.02-.641.035-.711l1.781.734zm.734-.917L5.5 3.117 2.934 2.016V.734C3.609.7 4.098.637 4.398.551 4.703.46 5.058.277 5.473 0c.425.273.8.457 1.129.55.324.09.812.153 1.464.184zm-1.832-.54a.821.821 0 0 0-.144-.14.942.942 0 0 0-1.324.14l.449.56a.37.37 0 0 0 .57 0zm0 0"/></svg>