<svg xmlns="http://www.w3.org/2000/svg" width="11" height="11"><path style="stroke:none;fill-rule:nonzero;fill:#000;fill-opacity:1" d="M10.266 5.133v4.765a.367.367 0 0 1-.368.368l-4.03-.016zM5.133 9.898V6.602H1.465a.733.733 0 0 1-.73-.735c0-.406.328-.734.73-.734h7.703zm4.402-6.964c.063.316-.008 1.832-1.836 1.832-1.832 0-1.851-1.508-1.785-1.832l1.785.734zm.73-.918L7.7 3.117 5.133 2.016V.734C5.809.7 6.297.637 6.602.551c.3-.09.66-.274 1.07-.551.426.273.8.457 1.129.55.324.09.816.153 1.465.184zm-1.831-.54a.821.821 0 0 0-.145-.14.943.943 0 0 0-1.324.14l.45.56a.37.37 0 0 0 .57 0zm0 0"/></svg>