<svg xmlns="http://www.w3.org/2000/svg" width="11" height="11"><path style="stroke:none;fill-rule:nonzero;fill:#000;fill-opacity:1" d="M2.727 8.324c.304.133.64.242 1 .328l.351.078.188.047.226.063.59.183.762.254.52.184.03.027c.383.344.622.825.665 1.34l.007.172h-5.03v-.594c0-.691.206-1.355.577-1.922zM8.07 2.63v1.27l1.008 2.027H8.07c0 1.07-.82 1.949-1.86 2.023l-.151.008v.86l-.844-.282-.469-.148-.258-.075-.215-.058-.496-.11a5.997 5.997 0 0 1-.734-.238V5.625zM9.375.699 9.5.922a.25.25 0 0 1-.094.344L2.004 5.578a.25.25 0 0 1-.344-.094l-.125-.218a.505.505 0 0 1 .184-.692L8.687.516a.501.501 0 0 1 .688.183zM7.02.9l-4.141 2.41C2.55 1.94 2.906.953 3.945.348c1.04-.606 2.063-.422 3.075.55zm0 0"/></svg>