<svg xmlns="http://www.w3.org/2000/svg" width="11" height="11"><path style="stroke:none;fill-rule:nonzero;fill:#000;fill-opacity:1" d="M9.535 0v11h-8.07V0zM8.066.734H2.934L2.93.82a.734.734 0 0 1-.645.64l-.086.005v8.07l.086.004c.336.04.606.305.645.64l.004.087h5.132l.004-.086a.734.734 0 0 1 .645-.64l.086-.005v-8.07l-.086-.004a.735.735 0 0 1-.649-.727zM3.437 7.598c.223.097.465.175.727.238l.258.055.137.035.164.047.43.132.554.184.379.133.023.015c.282.25.454.598.485.97l.008.128H2.934v-.43c0-.5.148-.984.421-1.39zm3.895-4.114v.914l.734 1.47h-.734c0 .773-.598 1.405-1.355 1.46l-.11.004v.625L5.25 7.75l-.34-.105-.191-.055-.157-.04-.359-.081a4.15 4.15 0 0 1-.539-.172l.004-1.649zm.95-1.394.093.156c.05.09.02.2-.066.25L2.91 5.613c-.09.051-.203.024-.25-.066l-.094-.16a.369.369 0 0 1 .133-.5l5.082-2.934a.366.366 0 0 1 .5.137zm-1.716.14-3.02 1.743c-.237-.989.02-1.703.778-2.141.758-.437 1.504-.305 2.242.398zm0 0"/></svg>