<svg xmlns="http://www.w3.org/2000/svg" width="11" height="11"><path style="stroke:none;fill-rule:nonzero;fill:#000;fill-opacity:1" d="M2.727 8.324c.308.133.64.242 1 .328l.351.075.184.05.234.067.586.183.762.25.523.184.028.027c.382.348.625.825.668 1.336L7.07 11H2.04v-.594c0-.691.202-1.355.57-1.922zm5.347-5.691v1.27l1.004 2.023H8.074c0 1.07-.82 1.949-1.863 2.023l-.152.008v.86l-.844-.282-.469-.144-.258-.075-.215-.058-.496-.117a5.226 5.226 0 0 1-.734-.235V5.625zM9.371.703l.125.223a.25.25 0 0 1-.086.344L2.004 5.582a.258.258 0 0 1-.348-.098l-.125-.218a.516.516 0 0 1 .184-.692L8.69.512a.498.498 0 0 1 .68.191zM7.02.895 2.883 3.309C2.55 1.94 2.903.953 3.945.344c1.043-.602 2.063-.418 3.075.55zm0 0"/></svg>