<svg xmlns="http://www.w3.org/2000/svg" width="11" height="11"><path style="stroke:none;fill-rule:nonzero;fill:#000;fill-opacity:1" d="M2.2 6.965v3.3h6.6V.736H2.2zm.734.734V1.465h3.3L8.066 3.3v6.234h-3.3zM1.832 0h7.336c.203 0 .367.16.367.367v10.266a.364.364 0 0 1-.367.367H1.832a.364.364 0 0 1-.367-.367V.367c0-.207.164-.367.367-.367zm4.77.734H8.8v2.2zM2.199 8.066l2.2 2.2h-2.2zm1.836-5.132a.362.362 0 0 0-.367.367c0 .203.16.367.367.367h2.2a.367.367 0 1 0 0-.734zm0 1.464a.364.364 0 0 0-.367.368c0 .207.16.367.367.367h.73c.208 0 .368-.16.368-.367a.364.364 0 0 0-.367-.368zm0 0"/></svg>