<svg xmlns="http://www.w3.org/2000/svg" width="11" height="11"><path style="stroke:none;fill-rule:nonzero;fill:#000;fill-opacity:1" d="M6.602.367v.367h2.566c.367 0 .367.368.367.368v8.796s0 .368-.367.368H6.602v.367c0 .367-2.204.367-2.204 0v-.367H1.832c-.367 0-.367-.368-.367-.368V1.102s0-.368.367-.368h2.566V.367c0-.367 2.204-.367 2.204 0zM5.5 2.2A3.29 3.29 0 0 0 2.2 5.5a3.29 3.29 0 0 0 3.3 3.3 3.29 3.29 0 0 0 3.3-3.3 3.29 3.29 0 0 0-3.3-3.3zm0 0"/><path style="stroke:none;fill-rule:nonzero;fill:#000;fill-opacity:1" d="m4.766 2.934-.73 2.933h1.097l-.735 2.567 2.934-3.301H5.867l.735-2.2H4.766zm0 0"/></svg>