<svg xmlns="http://www.w3.org/2000/svg" width="11" height="11"><path style="stroke:none;fill-rule:nonzero;fill:#000;fill-opacity:1" d="M.734 9.535V3.668c0-.813.657-1.469 1.465-1.469H3.668v-.734H2.566a.366.366 0 1 1 0-.73H5.5a.366.366 0 1 1 0 .73H4.398v.734h1.47c.808 0 1.464.656 1.464 1.469v2.2l3.078.612c.344.07.59.372.59.723v.129H8.434a.367.367 0 1 0 0 .734H11v.735H8.434a.367.367 0 1 0 0 .734H11c0 .402-.328.73-.734.73H5.133c-.977-.488-1.465-1.222-1.465-2.199 0-.976.488-1.71 1.465-2.199V4.398h-2.2v5.137h.368a.366.366 0 1 1 0 .73H.367a.366.366 0 1 1 0-.73zm0 0"/></svg>