<svg xmlns="http://www.w3.org/2000/svg" width="11" height="11"><path style="stroke:none;fill-rule:nonzero;fill:#000;fill-opacity:1" d="M8.434 1.465 7.332 5.867h1.469l-.735 3.668L11 4.398H9.535l1.098-2.933h-2.2zM3.3 0c.552 0 1.098.55 1.098 1.102 0 .546-.546 1.097-1.097 1.097-.551 0-1.102-.55-1.102-1.097C2.2.55 2.75 0 3.301 0zm0 .734a.395.395 0 0 0-.366.368c0 .183.183.363.367.363.183 0 .367-.18.367-.363a.395.395 0 0 0-.367-.368zm0 8.801c.184 0 .368.18.368.363a.395.395 0 0 1-.367.368.395.395 0 0 1-.367-.368c0-.183.183-.363.367-.363zm0-.734c-.55 0-1.1.55-1.1 1.097C2.2 10.45 2.75 11 3.3 11c.552 0 1.098-.55 1.098-1.102 0-.546-.546-1.097-1.097-1.097zm0-3.668c.184 0 .368.183.368.367a.395.395 0 0 1-.367.367.395.395 0 0 1-.367-.367c0-.184.183-.367.367-.367zm0-.735c-.55 0-1.1.551-1.1 1.102 0 .55.55 1.102 1.1 1.102.552 0 1.098-.551 1.098-1.102 0-.55-.546-1.102-1.097-1.102zm2.384-2.015L3.852 4.215c-.184.183.546.918.73.734l1.836-1.832c.184-.183-.55-.918-.734-.734zM2.016 6.05.184 7.883c-.184.183.55.918.734.734L2.75 6.785c.184-.183-.55-.918-.734-.734zm0 0"/></svg>