<svg xmlns="http://www.w3.org/2000/svg" width="11" height="11"><path style="stroke:none;fill-rule:nonzero;fill:#000;fill-opacity:1" d="M5.5 0C8.527 0 11 2.48 11 5.5 11 8.527 8.535 11 5.5 11A5.508 5.508 0 0 1 0 5.5C0 2.48 2.48 0 5.5 0zm0 .367A5.126 5.126 0 0 0 .367 5.5 5.124 5.124 0 0 0 5.5 10.633 5.121 5.121 0 0 0 10.633 5.5c0-2.84-2.29-5.133-5.133-5.133zM8.066 2.2c.368 0 .368.735 0 .735H6.965c-.18 0-1.281-.551-.914-.735zm-3.117 0c.367.184-.734.735-.914.735H2.934c-.368 0-.368-.735 0-.735zM2.934 3.668c.367 0-.184.73-.368.73h-.734c-.367 0-.367-.73 0-.73h1.102zm6.234 0c.367 0 .367.73 0 .73h-.734c-.184 0-.735-.73-.368-.73zm.367 1.465c.363 0 .363.734 0 .734h-.734c-.367 0-.367-.734 0-.734zm-7.336 0c.367 0 .367.734 0 .734h-.734c-.363 0-.363-.734 0-.734zm.367 1.469c.184 0 .735.73.368.73H1.832c-.367 0-.367-.73 0-.73h.734zm6.602 0c.367 0 .367.73 0 .73H8.066c-.367 0 .184-.73.368-.73zM5.5 2.934c1.371 0 2.566 1.195 2.566 2.566 0 1.371-1.195 2.566-2.566 2.566-1.371 0-2.566-1.195-2.566-2.566 0-1.371 1.195-2.566 2.566-2.566zm2.566 5.132c.368 0 .368.735 0 .735H6.051c-.367-.184.734-.735.914-.735zm-4.03 0c.179 0 1.28.551.913.735H2.934c-.368 0-.368-.735 0-.735zM6.417.828s-.184.637-.918.637-.918-.637-.918-.637A4.79 4.79 0 0 0 .734 5.5c0 2.2 1.563 4.215 3.848 4.68 0 0 .184-.645.918-.645.695 0 .918.645.918.645a4.797 4.797 0 0 0 3.848-4.68c0-2.2-1.555-4.215-3.848-4.672zm0 0"/><path style="stroke:none;fill-rule:nonzero;fill:#000;fill-opacity:1" d="m4.95 3.668-.735 2.2h.918l-.367 1.831 2.02-2.383H5.683l.55-1.648H4.95zm0 0"/></svg>