<svg xmlns="http://www.w3.org/2000/svg" width="11" height="11"><path style="stroke:none;fill-rule:nonzero;fill:#000;fill-opacity:1" d="M8.434 1.465 7.332 5.867h1.469l-.735 3.668L11 4.398H9.535l1.098-2.933h-2.2zM1.102 0c.546 0 1.097.55 1.097 1.102 0 .546-.55 1.097-1.097 1.097C.55 2.2 0 1.65 0 1.102 0 .55.55 0 1.102 0zm0 .734a.395.395 0 0 0-.368.368c0 .183.184.363.368.363.183 0 .363-.18.363-.363 0-.184-.18-.368-.363-.368zm0 8.801c.183 0 .363.18.363.363 0 .184-.18.368-.363.368a.395.395 0 0 1-.368-.368c0-.183.184-.363.368-.363zm0-.734C.55 8.8 0 9.35 0 9.898 0 10.45.55 11 1.102 11c.546 0 1.097-.55 1.097-1.102 0-.546-.55-1.097-1.097-1.097zm.363-6.235c0-.367-.73-.367-.73 0v5.868c0 .367.73.367.73 0V3.668h2.75c.183.367.55.367.55.367.368 0 .735-.183.735-.734 0-.551-.367-.735-.734-.735 0 0-.368 0-.551.368h-2.75v-.368zm3.3 2.934c-.367 0-.73.367-.73.734 0 0 0 .368.363.551V8.25H3.301c-.367 0-.367.55 0 .55h2.933c.368 0 .368-.55 0-.55H5.133V6.785c.367-.183.367-.55.367-.55 0-.368-.367-.735-.734-.735zm-.73 3.668c-.367 0-.367.547 0 .547H5.5c.367 0 .367-.547 0-.547H4.035zm.547.914c-.367 0-.367.55 0 .55h.367c.367 0 .367-.55 0-.55h-.367zm0 0"/></svg>