<svg xmlns="http://www.w3.org/2000/svg" width="11" height="11"><path style="stroke:none;fill-rule:nonzero;fill:#000;fill-opacity:1" d="M4.398.367v1.098h1.836c.368 0 .368.367.368.367v7.336s0 .367-.368.367H4.398v1.098c0 .367-2.199.367-2.199 0V9.535H.367C0 9.535 0 9.168 0 9.168V1.832s0-.367.367-.367H2.2V.367C2.2 0 4.4 0 4.4.367zm1.47 2.2c0-.368-.368-.368-.368-.368H1.102s-.368 0-.368.367v5.868c0 .367.368.367.368.367H5.5s.367 0 .367-.367V2.566zm0 0"/><path style="stroke:none;fill-rule:nonzero;fill:#000;fill-opacity:1" d="M3.668 3.3v4.4c0 .366-.367.366-.367.366H1.832s-.367 0-.367-.367V3.301c0-.367.367-.367.367-.367h1.469s.367 0 .367.367zm-.734 2.75c0-.183-.184-.183-.184-.183h-.367s-.184 0-.184.184v1.097c0 .184.184.184.184.184h.367s.184 0 .184-.184V6.051zM4.398 3.3v1.466c0 .183.184.183.184.183h.367s.184 0 .184-.183V3.3c0-.184-.184-.184-.184-.184h-.367s-.184 0-.184.184zm.368 3.208c.203 0 .367.258.367.457 0 .203-.164.46-.367.46-.204 0-.368-.257-.368-.46 0-.2.165-.457.368-.457zm.824.457c0-.457-.363-.914-.824-.914-.457 0-.825.457-.825.914 0 .46.368.918.825.918.46 0 .824-.457.824-.918zM8.434 1.465 7.332 5.867h1.469l-.735 3.668L11 4.398H9.535l1.098-2.933h-2.2zm0 0"/></svg>