<svg xmlns="http://www.w3.org/2000/svg" width="11" height="11"><path style="stroke:none;fill-rule:nonzero;fill:#000;fill-opacity:1" d="M8.434 1.465 7.332 5.867h1.469l-.735 3.668L11 4.398H9.535l1.098-2.933h-2.2zM1.832 0c.55 0 1.102.55 1.102 1.102 0 .546-.551 1.097-1.102 1.097-.547 0-1.098-.55-1.098-1.097C.734.55 1.285 0 1.832 0zm0 .734a.395.395 0 0 0-.367.368c0 .183.183.363.367.363s.367-.18.367-.363a.395.395 0 0 0-.367-.368zm0 8.801c.184 0 .367.18.367.363a.395.395 0 0 1-.367.368.395.395 0 0 1-.367-.368c0-.183.183-.363.367-.363zm0-.734c-.547 0-1.098.55-1.098 1.097 0 .551.551 1.102 1.098 1.102.55 0 1.102-.55 1.102-1.102 0-.546-.551-1.097-1.102-1.097zm.367-1.285h-.734v.918c0 .367.734.367.734 0v-.918zm-.734-4.95v2.825c0 .183.734.183.734 0V2.566c0-.367-.734-.367-.734 0zM5.5 3.668c.184 0 .367.184.367.367 0 .18-.183.363-.367.363s-.367-.183-.367-.363c0-.183.183-.367.367-.367zm0-.734c-.55 0-1.102.55-1.102 1.101 0 .547.551 1.098 1.102 1.098.55 0 1.102-.551 1.102-1.098 0-.55-.551-1.101-1.102-1.101zm0 3.668c.184 0 .367.183.367.363a.395.395 0 0 1-.367.367.395.395 0 0 1-.367-.367c0-.18.183-.363.367-.363zm0-.735c-.55 0-1.102.551-1.102 1.098 0 .55.551 1.101 1.102 1.101.55 0 1.102-.55 1.102-1.101 0-.547-.551-1.098-1.102-1.098zm-5.316.184S0 6.05 0 6.6c0 .547.734.731 1.648.731h2.387c.363 0 .363-.73 0-.73H1.648c-.73 0-1.097-.184-1.464-.551zm1.101-2.383C.551 3.668 0 4.215 0 4.949c0 .918.734 1.469 1.648 1.469.551 0 1.836.043 1.836-.918 0-.734-.55-.918-1.101-.918v.734s.367 0 .367.184c0 .21-.734.184-1.102.184-.546 0-.914-.368-.914-.735s.184-.55.551-.55zm2.75 0c0-.008-1.652 0-1.652 0v.73h1.652c.363 0 .363-.73 0-.73zM.918 4.949c0 .184.184.367.367.367v-.734a.395.395 0 0 0-.367.367zm0 0"/></svg>