<svg xmlns="http://www.w3.org/2000/svg" width="11" height="11"><path style="stroke:none;fill-rule:nonzero;fill:#000;fill-opacity:1" d="M8.434 1.465 7.332 5.867h1.469l-.735 3.668L11 4.398H9.535l1.098-2.933h-2.2zM2.566 11c.551 0 1.102-.55 1.102-1.102 0-.546-.55-1.097-1.102-1.097-.55 0-1.101.55-1.101 1.097 0 .551.55 1.102 1.101 1.102zm0-.734a.395.395 0 0 1-.367-.368c0-.183.184-.363.367-.363.184 0 .368.18.368.363a.395.395 0 0 1-.368.368zm0-8.801c.184 0 .368-.18.368-.363a.395.395 0 0 0-.368-.368.395.395 0 0 0-.367.368c0 .183.184.363.367.363zm0 .734c-.55 0-1.101-.55-1.101-1.097C1.465.55 2.015 0 2.566 0c.551 0 1.102.55 1.102 1.102 0 .546-.55 1.097-1.102 1.097zm2.567 6.235-2.2-5.868c-.132-.343.602-.71.735-.367l2.2 5.867c.132.344-.602.711-.735.368zm0 0"/></svg>