<svg xmlns="http://www.w3.org/2000/svg" width="11" height="11"><path style="stroke:none;fill-rule:nonzero;fill:#000;fill-opacity:1" d="M.734 9.535V3.668c0-.809.66-1.469 1.465-1.469H3.668v-.734H2.566a.363.363 0 0 1-.367-.363c0-.207.164-.368.367-.368H5.5c.207 0 .367.16.367.368 0 .203-.16.363-.367.363H4.398v.734h1.47c.804 0 1.464.66 1.464 1.469v2.2l3.082.616a.727.727 0 0 1 .586.72v.128H8.434a.364.364 0 0 0-.368.367c0 .207.16.367.368.367H11v.735H8.434a.362.362 0 0 0-.368.367c0 .203.16.367.368.367H11c0 .402-.328.73-.734.73H5.133c-.977-.492-1.465-1.222-1.465-2.199 0-.976.488-1.707 1.465-2.199V4.398h-2.2v5.137h.368a.364.364 0 1 1 0 .73H.367A.362.362 0 0 1 0 9.899c0-.203.16-.363.367-.363zm0 0"/></svg>