<svg xmlns="http://www.w3.org/2000/svg" width="11" height="11"><path style="stroke:none;fill-rule:nonzero;fill:#000;fill-opacity:1" d="m5.5 7.188 1.531-1.02L5.5 4.941 3.969 6.168zm.66.437 1.664 1.11-.308-2.008zm-1.32 0-1.356-.898-.308 2.007zm-.887-3.922L3.68 5.457l1.234-.984zm.117-.77a.378.378 0 0 1 .192.083l1.238.988 1.238-.988a.378.378 0 0 1 .192-.082zm3.25 2.524-.273-1.754-.961.77zm2.946-3.258v1.469h-.73v-.734H7.671L8.8 10.266 5.5 8.066l-3.3 2.2 1.128-7.332H1.465v.734h-.73V2.199h2.703l.23-1.465h3.664l.23 1.465zm-6.086 0h2.64l-.117-.734H4.297zm0 0"/></svg>