<svg xmlns="http://www.w3.org/2000/svg" width="11" height="11"><path d="M6.602.367c.73 0 .73.367.73 1.098v1.101c1.102 0 1.836.735 1.836 1.832v4.403c0 .734-.734 1.465-1.836 1.465v.367H3.668v-.367c-1.102 0-1.836-.73-1.836-1.465V4.398c0-1.097.734-1.832 1.836-1.832V2.2h.547c.183 0 .183-.183.183-.367v-.367c0-.18 0-.363-.183-.363h-.547c0-.368 0-.735.73-.735Zm-.368.735H5.5c-.184 0-.367.183-.367.363v.367c0 .184.183.367.367.367h.734a.395.395 0 0 0 .368-.367v-.367c0-.18-.184-.363-.368-.363Zm0 0" style="stroke:none;fill-rule:nonzero;fill:#000;fill-opacity:1"/></svg>