<svg xmlns="http://www.w3.org/2000/svg" width="11" height="11"><path style="stroke:none;fill-rule:nonzero;fill:#000;fill-opacity:1" d="M5.133 0c.734 0 .734 2.566.734 3.3v1.466c.125-.512.293-1.246.367-1.832.16-1.172.22-2.2.73-2.2.735 0 .368 2.2.368 4.766 0 .586.367 1.832.367 1.832s2.055-2.566 2.567-1.465c.367.735-.73 1.688-1.465 2.567-.442.511-.735 1.101-.735 1.101S7.332 11 6.234 11H3.668c-.734 0-1.102-.367-1.469-2.2-.437-2.198-1.097-6.968-.367-6.968.367 0 .55 1.102.734 1.836l.368 1.465c0-3.668 0-4.399.367-4.399.734 0 .734 2.934 1.097 4.032.368-1.832 0-4.766.735-4.766zm-.086 6.965c-1.102 0-1.93.367-1.93 1.101 0 .735.828 1.102 1.93 1.102 1.098 0 1.918-.367 1.918-1.102 0-.734-.82-1.101-1.918-1.101zm0 .183c.562 0 .82.309.82.918 0 .61-.258.918-.82.918-.574 0-.832-.308-.832-.918 0-.609.258-.918.832-.918zm0 0"/></svg>