<svg xmlns="http://www.w3.org/2000/svg" width="11" height="11"><path d="M2.656 6.277a1.45 1.45 0 0 0 0 2.075c.57.574 1.496.574 2.067 0l3.629-3.63a1.464 1.464 0 0 0 0-2.074 1.455 1.455 0 0 0-2.067 0ZM1.094 4.723l3.629-3.63a3.678 3.678 0 0 1 5.191 0 3.668 3.668 0 0 1 0 5.184l-3.629 3.63a3.678 3.678 0 0 1-5.191 0 3.668 3.668 0 0 1 0-5.184Zm1.039 1.035 3.633-3.633a2.204 2.204 0 0 1 3.109 0 2.214 2.214 0 0 1 0 3.117L5.242 8.875a2.204 2.204 0 0 1-3.11 0 2.214 2.214 0 0 1 0-3.117Zm-.52-.516a2.93 2.93 0 0 0 0 4.145 2.926 2.926 0 0 0 4.153 0l3.629-3.63a2.93 2.93 0 0 0 0-4.144 2.926 2.926 0 0 0-4.153 0Zm0 0" style="stroke:none;fill-rule:nonzero;fill:#000;fill-opacity:1"/></svg>