<svg xmlns="http://www.w3.org/2000/svg" width="11" height="11"><path style="stroke:none;fill-rule:nonzero;fill:#000;fill-opacity:1" d="M2.652 6.277a1.464 1.464 0 0 0 0 2.075c.57.574 1.5.574 2.075 0l3.628-3.63c.575-.574.575-1.5 0-2.074a1.464 1.464 0 0 0-2.074 0zM1.098 4.723l3.629-3.63a3.661 3.661 0 0 1 5.183 0 3.661 3.661 0 0 1 0 5.184l-3.629 3.63a3.661 3.661 0 0 1-5.183 0 3.661 3.661 0 0 1 0-5.184zm1.035 1.035 3.629-3.63a2.202 2.202 0 0 1 3.113 3.114l-3.633 3.63c-.855.858-2.25.858-3.11 0a2.202 2.202 0 0 1 0-3.114zm-.52-.516a2.935 2.935 0 0 0 0 4.149 2.935 2.935 0 0 0 4.149 0L9.39 5.758a2.928 2.928 0 0 0 0-4.149 2.935 2.935 0 0 0-4.149 0zm0 0"/></svg>