<svg xmlns="http://www.w3.org/2000/svg" width="11" height="11"><path style="stroke:none;fill-rule:nonzero;fill:#000;fill-opacity:1" d="M5.133 8.8v.735h.734v-.734zm1.77-5.132L.733 1.422l.25-.688 8.059 2.934h.492c.402 0 .73.328.73.73v5.137c0 .402-.328.73-.73.73h-8.07a.732.732 0 0 1-.73-.73V4.398c0-.402.328-.73.73-.73zm-5.438.73v1.47h4.402v-1.47zm.734.735h.735v.734h-.735zm-.734 1.469v.73h.734v-.73zm.734.73v.734h.735v-.734zm.735-.73v.73h.734v-.73zm.734.73v.734h.73v-.734zm.73-.73v.73h.735v-.73zm.735.73v.734h.734v-.734zm-.735.734v.735h.735v-.735zm-1.464 0v.735h.734v-.735zm-1.47 0v.735H2.2v-.735zm.735.735v.734h.735v-.734zm1.469 0v.734h.73v-.734zm4.398-4.403c-.804 0-1.464.66-1.464 1.47 0 .804.66 1.464 1.464 1.464.809 0 1.47-.66 1.47-1.465 0-.808-.661-1.469-1.47-1.469zm0 .735c.403 0 .735.332.735.734a.739.739 0 0 1-.735.735.739.739 0 0 1-.734-.735c0-.402.332-.734.734-.734zm0 0"/></svg>