<svg xmlns="http://www.w3.org/2000/svg" width="11" height="11"><path d="M6.602 6.602 8.8 10.266c-2.2.734-4.403.734-6.602 0l2.2-3.664c.734.546 1.468.546 2.203 0ZM8.066.367 6.234 3.484c.73.368 1.098 1.098 1.098 1.649H11c0-2.2-.734-3.668-2.934-4.766Zm-5.132 0C.734 1.465 0 2.934 0 5.133h3.668c0-.551.367-1.281 1.098-1.649Zm3.668 4.766c0-.551-.551-1.098-1.102-1.098-.55 0-1.102.547-1.102 1.098 0 .55.551 1.101 1.102 1.101.55 0 1.102-.55 1.102-1.101Zm0 0" style="stroke:none;fill-rule:nonzero;fill:#000;fill-opacity:1"/></svg>