<svg xmlns="http://www.w3.org/2000/svg" width="11" height="11"><path style="stroke:none;fill-rule:nonzero;fill:#000;fill-opacity:1" d="m4.727 1.762-.118.21c-.078.16-.238.227-.421.227h-.282c.16.223.418.403.719.403.488 0 .879-.372.879-.856v.016h-.73c-.02 0-.04-.02-.044 0zm-.54.218c.098 0 .184-.035.22-.117l.116-.207c.043-.097.137-.117.247-.117h.914c-.122-.437-.547-.848-1.055-.848-.598 0-1.086.446-1.086 1.047 0 .098.012.242.039.242zm3.004 4.84c.813 0 2.942-.25 3.524-.808-.262-.813-1.3-.875-2.254-.465-.164.07-.379.125-.633.172l-.191-.754a.461.461 0 0 0-.227-.871l-.144-.551a.464.464 0 0 0 .175-.469.463.463 0 0 0-.55-.347s-2.016.02-2.649.187c-.629.172-.84 1.23-.84 1.23l-.554 1.793H.223v.88H7.19zM5.383 3.695l1.562-.062.125.48a361.9 361.9 0 0 0-1.843.094zm-.438 1.43 2.36-.105.195.75c-.965.14-2.21.16-2.805.16zm4.41 2.71s1.426-.019 1.426-1.413a.914.914 0 0 0-.011-.149c-.891.645-3.274.766-3.575.766H.223v1.078c.168 0 .343-.039.496-.105a1.915 1.915 0 0 1 1.605 0 1.254 1.254 0 0 0 1.004 0 1.928 1.928 0 0 1 1.61 0 1.24 1.24 0 0 0 1 0 1.928 1.928 0 0 1 1.609 0c.16.07.332.105.504.105h.062l.207.797c-.09.012-.18.024-.27.024-.23 0-.448-.047-.644-.137a1.634 1.634 0 0 0-.664-.145c-.234 0-.46.055-.66.145-.195.09-.414.14-.64.14-.227 0-.45-.05-.645-.136a1.561 1.561 0 0 0-1.324 0 1.596 1.596 0 0 1-.641.136c-.227 0-.445-.046-.64-.136a1.62 1.62 0 0 0-.665-.145c-.23 0-.457.055-.66.145-.195.09-.414.136-.644.136v.965c.23 0 .449-.05.644-.136.203-.094.43-.149.66-.149.239 0 .465.055.664.149.196.085.414.136.641.136.227 0 .445-.05.64-.136a1.557 1.557 0 0 1 1.325 0 1.6 1.6 0 0 0 .644.136c.227 0 .446-.05.641-.136a1.557 1.557 0 0 1 1.324 0 1.582 1.582 0 0 0 1.285 0c.2-.094.426-.149.664-.149.235 0 .415.055.614.149.199.085.379.136.601.136v-.96c-.222 0-.402-.048-.601-.137a1.453 1.453 0 0 0-.637-.149c-.234 0-.45.055-.652.149l-.04.02-.195-.767.106-.042a1.95 1.95 0 0 1 .808-.18zm0 0"/></svg>