<svg xmlns="http://www.w3.org/2000/svg" width="11" height="11"><path style="stroke:none;fill-rule:nonzero;fill:#000;fill-opacity:1" d="m4.727 1.762-.118.21c-.078.16-.238.227-.421.227h-.282c.16.223.418.403.715.403.488 0 .879-.372.879-.856v.016h-.73c-.02 0-.036-.02-.043 0zm-.54.218c.094 0 .18-.035.22-.117l.116-.207c.043-.097.137-.117.247-.117h.914c-.122-.437-.547-.844-1.055-.844-.598 0-1.086.442-1.086 1.043 0 .094.012.242.039.242zm3.004 4.84c.813 0 2.938-.25 3.524-.808-.262-.809-1.3-.875-2.254-.461a3.21 3.21 0 0 1-.629.168l-.195-.754a.446.446 0 0 0 .246-.43.452.452 0 0 0-.473-.437l-.144-.555a.46.46 0 0 0 .175-.465.46.46 0 0 0-.55-.348s-2.016.016-2.649.188c-.633.168-.844 1.227-.844 1.227L2.844 5.94H.219v.88zM5.38 3.695l1.562-.062.125.48c-.421.02-1.171.059-1.843.094zm-.438 1.43 2.36-.105.195.75c-.96.14-2.21.16-2.8.16zm4.41 2.707s1.43-.016 1.43-1.41c0-.055-.008-.098-.011-.149-.891.645-3.274.766-3.575.766H.22v1.078c.172 0 .344-.039.496-.105a1.932 1.932 0 0 1 1.61 0 1.25 1.25 0 0 0 1 0c.253-.114.53-.176.808-.176.277 0 .547.059.8.176.157.07.333.11.505.11.171 0 .34-.04.496-.11.253-.114.535-.176.804-.176.282 0 .551.059.805.176.16.07.332.11.504.11l.058-.005.207.797c-.09.016-.175.027-.269.027-.227 0-.45-.05-.645-.14-.199-.09-.425-.145-.66-.145a1.62 1.62 0 0 0-.664.145 1.554 1.554 0 0 1-1.285 0c-.2-.09-.426-.145-.66-.145-.238 0-.461.055-.66.145a1.54 1.54 0 0 1-1.285 0c-.2-.09-.426-.145-.66-.145-.235 0-.462.055-.66.145a1.54 1.54 0 0 1-.645.14v.957c.23 0 .449-.046.644-.136.2-.094.426-.149.66-.149.235 0 .461.055.66.149.196.09.419.136.641.136.23 0 .45-.046.645-.136a1.544 1.544 0 0 1 1.32 0c.195.09.418.136.645.136.23 0 .445-.046.64-.136a1.561 1.561 0 0 1 1.324 0c.196.09.418.136.645.136.227 0 .445-.046.64-.136.2-.094.426-.149.665-.149.234 0 .414.055.613.149.195.09.379.136.598.136v-.957c-.22 0-.403-.05-.598-.14a1.507 1.507 0 0 0-1.29 0l-.038.02-.2-.766.11-.043c.25-.117.535-.18.809-.18zm0 0"/></svg>