<svg xmlns="http://www.w3.org/2000/svg" width="11" height="11"><path d="M1.832 8.066v2.2h-.73a.362.362 0 0 1-.368-.368V8.434c0-.207.16-.368.368-.368Zm1.469 0h4.398v2.2H3.301Zm5.867 0h.73c.207 0 .368.16.368.368v1.464c0 .207-.16.368-.368.368h-.73ZM1.832 3.38v2.273l-.863-.226a.374.374 0 0 1-.266-.453l.383-1.414A.37.37 0 0 1 1.53 3.3Zm1.469.39 4.398 1.18V7.23L3.301 6.05Zm5.867 1.579.863.226c.2.059.317.254.266.453l-.383 1.414a.37.37 0 0 1-.445.258l-.301-.078ZM1.832.734v2.2h-.73a.362.362 0 0 1-.368-.368V1.102c0-.207.16-.368.368-.368Zm1.469 0h4.398v2.2H3.301Zm5.867 0h.73c.207 0 .368.16.368.368v1.464c0 .207-.16.368-.368.368h-.73ZM2.199 0h.735v11h-.735Zm5.867 0h.735v11h-.735Zm0 0" style="stroke:none;fill-rule:nonzero;fill:#000;fill-opacity:1"/></svg>