<svg xmlns="http://www.w3.org/2000/svg" width="11" height="11"><path style="stroke:none;fill-rule:nonzero;fill:#000;fill-opacity:1" d="M8.434 2.2H8.8v-.735h-.367v-.73h.734c.203 0 .367.163.367.367v1.464a.367.367 0 0 1-.367.368h-.734zm-5.868 0v.734h-.734a.367.367 0 0 1-.367-.368V1.102c0-.204.164-.368.367-.368h.734v.73H2.2V2.2zm0 7.335v.73h-.734a.367.367 0 0 1-.367-.367V8.434c0-.204.164-.368.367-.368h.734v.735H2.2v.734zm5.868 0H8.8v-.734h-.367v-.735h.734c.203 0 .367.164.367.368v1.464a.367.367 0 0 1-.367.368h-.734zm0-3.668H8.8v-.734h-.367v-.735h.734c.203 0 .367.165.367.368v1.468a.367.367 0 0 1-.367.368h-.734zm-5.868 0v.735h-.734a.367.367 0 0 1-.367-.368V4.766c0-.204.164-.368.367-.368h.734v.735H2.2v.734zm1.47 2.2h2.929v2.199h-2.93zm0-3.669h2.929v2.204h-2.93zm0-3.664h2.929v2.2h-2.93zM2.933 0h.734v11h-.734zm4.398 0h.734v11h-.734zm0 0"/></svg>