<svg xmlns="http://www.w3.org/2000/svg" width="11" height="11"><path style="stroke:none;fill-rule:nonzero;fill:#000;fill-opacity:1" d="M1.832 9.535v.73h-.73a.367.367 0 0 1-.368-.367V8.434c0-.204.164-.368.368-.368h.73v.735h-.367v.734zm0-3.668v.735h-.73a.367.367 0 0 1-.368-.368V4.766c0-.204.164-.368.368-.368h.73v.735h-.367v.734zm0-3.668v.735h-.73a.367.367 0 0 1-.368-.368V1.102c0-.204.164-.368.368-.368h.73v.73h-.367V2.2zm7.336 7.336h.367v-.734h-.367v-.735h.73c.204 0 .368.164.368.368v1.464a.367.367 0 0 1-.368.368h-.73zm0-3.668h.367v-.734h-.367v-.735h.73c.204 0 .368.165.368.368v1.468a.367.367 0 0 1-.368.368h-.73zm0-3.668h.367v-.734h-.367v-.73h.73c.204 0 .368.163.368.367v1.464a.367.367 0 0 1-.368.368h-.73zM3.301 8.066h1.465v2.2H3.3zm2.933 0H7.7v2.2H6.234zM3.301 4.398h1.465v2.204H3.3zm2.933 0H7.7v2.204H6.234zM3.301.734h1.465v2.2H3.3zm2.933 0H7.7v2.2H6.234zM2.2 0h.735v11h-.735zm5.867 0h.735v11h-.735zM5.133 0h.734v11h-.734zm0 0"/></svg>