<svg xmlns="http://www.w3.org/2000/svg" width="11" height="11"><path style="stroke:none;fill-rule:nonzero;fill:#000;fill-opacity:1" d="M1.832 8.066v2.2h-.73a.367.367 0 0 1-.368-.368V8.434c0-.204.164-.368.368-.368zm1.469 0h4.398v2.2H3.301zm5.867 0h.73c.204 0 .368.164.368.368v1.464a.367.367 0 0 1-.368.368h-.73zM1.832 3.38v2.277l-.867-.234a.36.36 0 0 1-.258-.445l.379-1.418a.37.37 0 0 1 .45-.262zm1.469.394L7.699 4.95v2.278L3.301 6.05zm5.867 1.57.867.235a.36.36 0 0 1 .258.445l-.379 1.418a.37.37 0 0 1-.45.262l-.296-.082zM1.832.735v2.2h-.73a.367.367 0 0 1-.368-.368V1.102c0-.204.164-.368.368-.368zm1.469 0h4.398v2.2H3.301zm5.867 0h.73c.204 0 .368.164.368.368v1.464a.367.367 0 0 1-.368.368h-.73zM2.199 0h.735v11h-.735zm5.867 0h.735v11h-.735zm0 0"/></svg>