<svg xmlns="http://www.w3.org/2000/svg" width="11" height="11"><path style="stroke:none;fill-rule:nonzero;fill:#000;fill-opacity:1" d="M3.3 9.535v.73h-.734a.364.364 0 0 1-.367-.367V8.434c0-.207.164-.368.367-.368h.735v.735h-.367v.734zm0-3.668v.735h-.734a.367.367 0 0 1-.367-.368V4.766c0-.204.164-.368.367-.368h.735v.735h-.367v.734zm0-3.668v.735h-.734a.364.364 0 0 1-.367-.368V1.102c0-.207.164-.368.367-.368h.735v.73h-.367V2.2zm4.4 7.336h.366v-.734H7.7v-.735h.735c.203 0 .367.16.367.368v1.464a.364.364 0 0 1-.367.368h-.735zm0-3.668h.366v-.734H7.7v-.735h.735c.203 0 .367.165.367.368v1.468a.367.367 0 0 1-.367.368h-.735zm0-3.668h.366v-.734H7.7v-.73h.735c.203 0 .367.16.367.367v1.464a.364.364 0 0 1-.367.368h-.735zM4.765 8.066h1.468v2.2H4.766zm0-3.668h1.468v2.204H4.766zm0-3.664h1.468v2.2H4.766zM3.668 0h.73v11h-.73zm2.934 0h.73v11h-.73zm0 0"/></svg>