<svg xmlns="http://www.w3.org/2000/svg" width="11" height="11"><path d="M1.832 9.535v.73h-.73a.362.362 0 0 1-.368-.367V8.434c0-.207.16-.368.368-.368h.73v.735h-.367v.734Zm0-3.668v.735h-.73a.364.364 0 0 1-.368-.368V4.766c0-.204.16-.368.368-.368h.73v.735h-.367v.734Zm0-3.668v.735h-.73a.362.362 0 0 1-.368-.368V1.102c0-.207.16-.368.368-.368h.73v.73h-.367V2.2Zm7.336 7.336h.367v-.734h-.367v-.735h.73c.207 0 .368.16.368.368v1.464c0 .207-.16.368-.368.368h-.73Zm0-3.668h.367v-.734h-.367v-.735h.73c.207 0 .368.165.368.368v1.468c0 .204-.16.368-.368.368h-.73Zm0-3.668h.367v-.734h-.367v-.73h.73c.207 0 .368.16.368.367v1.464c0 .207-.16.368-.368.368h-.73ZM3.301 8.066h1.465v2.2H3.3Zm2.933 0H7.7v2.2H6.234ZM3.301 4.398h1.465v2.204H3.3Zm2.933 0H7.7v2.204H6.234ZM3.301.734h1.465v2.2H3.3Zm2.933 0H7.7v2.2H6.234ZM2.2 0h.735v11h-.735Zm5.867 0h.735v11h-.735ZM5.133 0h.734v11h-.734Zm0 0" style="stroke:none;fill-rule:nonzero;fill:#000;fill-opacity:1"/></svg>