<svg xmlns="http://www.w3.org/2000/svg" width="11" height="11"><path style="stroke:none;fill-rule:nonzero;fill:#000;fill-opacity:1" d="m4.398 8.8-.363.735h2.93l-.363-.734h1.097L8.801 11H7.699l-.367-.734H3.668L3.301 11H2.199l1.102-2.2zM4.332.274a.553.553 0 0 1 .2.754L1.046 7.06a.546.546 0 0 1-.75.203.553.553 0 0 1-.2-.754L3.579.477a.557.557 0 0 1 .754-.204zM2.566 5.164l2.2-3.812 2.265.503c.074.016.14.055.192.11L8.71 3.59c.05.055.117.094.191.11l1.778.394a.367.367 0 0 1 .238.539L9.102 7.777a.367.367 0 0 1-.399.176l-2-.441a.346.346 0 0 1-.191-.114L5.023 5.773a.364.364 0 0 0-.191-.109zm0 0"/></svg>