<svg xmlns="http://www.w3.org/2000/svg" width="17" height="17"><path fill="none" d="M0 0h17v17H0z"/><path fill="rgba(255,255,255,0.25)" stroke="rgba(255,255,255,0.25)" stroke-width="2" d="M9 10.5a.5.5 0 0 1-.5.5.49.49 0 0 1-.43-.27L7.69 10H3.31l-.37.74A.5.5 0 0 1 2 10.5a.49.49 0 0 1 .07-.24l1-2A.49.49 0 0 1 3.5 8a.5.5 0 0 1 .5.7l-.19.3h3.38L7 8.7a.5.5 0 0 1 .9-.43l1 2a.49.49 0 0 1 .1.23zM8 0H3a1 1 0 0 0-1 1v5a1 1 0 0 0 1 1h5a1 1 0 0 0 1-1V1a1 1 0 0 0-1-1zM3.5 6a.5.5 0 1 1 0-1 .5.5 0 0 1 0 1zm0-2a.5.5 0 0 1-.5-.5v-2a.5.5 0 0 1 .5-.5h1.79v3H3.5zm4 2a.5.5 0 1 1 0-1 .5.5 0 0 1 0 1zM8 3.5a.5.5 0 0 1-.5.5H5.69V1H7.5a.5.5 0 0 1 .5.5v2z" style="stroke-linejoin:round;stroke-miterlimit:4px" transform="translate(3 3)"/><path fill="#444" d="M12 13.5a.5.5 0 0 1-.5.5.49.49 0 0 1-.43-.27l-.38-.73H6.31l-.37.74A.5.5 0 0 1 5 13.5a.49.49 0 0 1 .07-.24l1-2A.49.49 0 0 1 6.5 11a.5.5 0 0 1 .5.7l-.19.3h3.38l-.19-.3a.5.5 0 0 1 .9-.43l1 2a.49.49 0 0 1 .1.23zM11 3H6a1 1 0 0 0-1 1v5a1 1 0 0 0 1 1h5a1 1 0 0 0 1-1V4a1 1 0 0 0-1-1zM6.5 9a.5.5 0 1 1 0-1 .5.5 0 0 1 0 1zm0-2a.5.5 0 0 1-.5-.5v-2a.5.5 0 0 1 .5-.5h1.79v3H6.5zm4 2a.5.5 0 1 1 0-1 .5.5 0 0 1 0 1zm.5-2.5a.5.5 0 0 1-.5.5H8.69V4h1.81a.5.5 0 0 1 .5.5v2z"/></svg>