<svg xmlns="http://www.w3.org/2000/svg" width="11" height="11"><path style="stroke:none;fill-rule:nonzero;fill:#000;fill-opacity:1" d="M.734 9.535c.184.363.551.73.73.73V11h-.73zm3.664-7.52s1.47.56 1.47 2.75v1.47c0 1.648 1.464 4.03 4.398 4.03.367 0 .367.735 0 .735-2.934 0-5.133-2.383-5.133-4.766V4.766c0-1.098-.367-1.465-.367-1.465 0-.367 0-.735-.368-1.285zM.734 8.435c0-.918.914-1.832 1.832-1.832s1.832.914 1.832 1.832-.73 1.832-1.832 1.832c-1.101 0-1.832-.914-1.832-1.832zm1.832-.735c-.367 0-.734.367-.734.735 0 .367.367.734.734.734.368 0 .735-.367.735-.734 0-.368-.367-.735-.735-.735zM.734 4.4c.184.367.368.55.73.734v1.469c-.362.183-.546.363-.73.73zm3.664 0v2.933c-.183-.367-.363-.547-.73-.73v-1.47c.367-.183.547-.366.73-.734zM2.566 0c.368 0 1.832 2.2 1.832 3.3 0 .915-.914 1.833-1.832 1.833S.734 4.215.734 3.3C.734 2.199 2.2 0 2.566 0zm0 2.566c-.367 0-.734.368-.734.735s.367.734.734.734c.368 0 .735-.367.735-.734s-.367-.735-.735-.735zm0 0"/></svg>