<svg xmlns="http://www.w3.org/2000/svg" width="11" height="11"><path style="stroke:none;fill-rule:nonzero;fill:#000;fill-opacity:1" d="M.73 9.648a2.3 2.3 0 0 0 .735.692V11h-.73zm3.684-7.617a3.305 3.305 0 0 1 1.45 2.578l.003.157v1.468a4.03 4.03 0 0 0 3.871 4.028l.16.004h.368V11h-.368a4.766 4.766 0 0 1-4.761-4.594l-.004-.172V4.766c0-.485-.137-.942-.371-1.329l.004-.136c0-.34-.118-.758-.352-1.27zm-3.39 5.414.011-.023a1.51 1.51 0 0 1 .137-.176l.098-.11.105-.093.09-.078a1.853 1.853 0 0 1 2.086-.078l.117.082c.039.027.074.058.11.09l.1.097.106.114.11.148.054.09.055.097.07.153.04.113.039.149.027.125.004.035c.012.082.015.168.015.254a1.582 1.582 0 0 1-.035.367 1.835 1.835 0 0 1-2.87 1.117l-.028-.02c-.043-.03-.082-.066-.125-.101l-.11-.11-.058-.066a1.635 1.635 0 0 1-.156-.21l-.067-.114-.066-.133-.051-.14-.027-.09-.028-.098-.02-.098L.75 8.68a1.7 1.7 0 0 1-.016-.246l.004-.13.02-.16.012-.085.027-.102.02-.07.042-.121.051-.114c.031-.074.07-.14.113-.207zm1.542.254a.734.734 0 1 0-.001 1.467.734.734 0 0 0 .001-1.467zM.73 4.516a2.3 2.3 0 0 0 .735.691v1.32a2.258 2.258 0 0 0-.735.692zm3.672 0v2.703a2.258 2.258 0 0 0-.734-.692v-1.32a2.3 2.3 0 0 0 .734-.691zM2.777.078a.328.328 0 0 1 .09.09c.352.504.64.957.867 1.36l.114.195c.12.226.222.433.304.62l.075.188.062.18.055.191.004.02c.035.14.05.265.05.379 0 .351-.097.683-.27.96l-.097.141-.043.055-.078.09-.094.094-.09.078-.058.047c-.305.23-.688.367-1.102.367-.351 0-.68-.098-.96-.27l-.141-.097-.063-.047-.09-.082-.085-.086-.055-.063-.07-.086a1.83 1.83 0 0 1-.368-1.101c0-.59.461-1.563 1.391-2.926l.14-.207a.368.368 0 0 1 .512-.09zm-.21 2.488a.734.734 0 1 0-.002 1.467.734.734 0 0 0 .001-1.467zm0 0"/></svg>