<svg xmlns="http://www.w3.org/2000/svg" width="11" height="11"><path style="stroke:none;fill-rule:nonzero;fill:#000;fill-opacity:1" d="M4.035 3.668 11 11H9.898L8.801 9.898V11h-.735V9.168L6.602 7.516V11h-.735V6.965L4.398 5.316V11h-.73V4.582S2.75 3.484 2.199 3.484V11h-.734V3.484c-.73 0-1.465.73-1.465.73V3.118s.734-.55 1.832-.55c1.469 0 2.203 1.101 2.203 1.101zM3.668 1.832l.73.734s.735-.734 1.47 0c.734.735 0 1.47 0 1.47l1.831 1.831s.735-.734 1.469 0c.73.735 0 1.465 0 1.465l1.098 1.102s1.101-2.567-.73-4.399C8.065 5.133 6.601 3.301 7.698 2.2 8.434 1.465 5.133 0 5.133 0S3.68 1.832 3.668 1.832zm1.465 2.203c.367 0 .734-.367.734-.734s-.367-.735-.734-.735-.735.368-.735.735.368.734.735.734zm3.3 3.297c.368 0 .735-.367.735-.73 0-.368-.367-.735-.734-.735-.368 0-.735.367-.735.735 0 .363.367.73.735.73zm0 0"/></svg>