<svg xmlns="http://www.w3.org/2000/svg" width="11" height="11"><path style="stroke:none;fill-rule:nonzero;fill:#000;fill-opacity:1" d="m5.5 6.613 5.434 2.172.046.016H11L5.5 11 0 8.8l.035-.003.031-.012zm0 .778L1.973 8.8 5.5 10.21 9.023 8.8zM5.316.074v6.16l.004.04.004.015-1.656.664v-2.91a.786.786 0 0 0-1.102-.719 1.837 1.837 0 0 0-1.093 1.543l-.008.137v2.828L0 8.418V2.199zm.368 0L11 2.2v6.219L5.676 6.289l.008-.055zm1.464 2.86v2.199l2.204.918v-2.2zM2.934 4.949a.367.367 0 1 1 0 .734.367.367 0 0 1 0-.734zm0 0"/></svg>