<svg xmlns="http://www.w3.org/2000/svg" width="11" height="11"><path style="stroke:none;fill-rule:nonzero;fill:#000;fill-opacity:1" d="M1.465 2.934c.406 0 .734.328.734.734v4.398H.734V3.668c0-.406.329-.734.73-.734zM9.535 2.934c.402 0 .73.328.73.734v4.398H8.802V3.668c0-.406.328-.734.734-.734zm0 0"/><path style="stroke:none;fill-rule:nonzero;fill:#000;fill-opacity:1" d="M.48 4.414a.46.46 0 0 1-.128-.637.462.462 0 0 1 .636-.125c1.39.926 2.89 1.391 4.512 1.391 1.621 0 3.121-.465 4.512-1.39a.462.462 0 0 1 .636.124.46.46 0 0 1-.128.637C8.98 5.441 7.3 5.957 5.5 5.957c-1.8 0-3.48-.516-5.02-1.543zm0 0"/></svg>