<svg xmlns="http://www.w3.org/2000/svg" width="11" height="11"><path style="stroke:none;fill-rule:nonzero;fill:#000;fill-opacity:1" d="M1.465 2.934c.406 0 .734.328.734.734v4.398H.734V3.668c0-.406.329-.734.73-.734zM9.535 2.934c.402 0 .73.328.73.734v4.398H8.802V3.668c0-.406.328-.734.734-.734zm0 0"/><path style="stroke:none;fill-rule:nonzero;fill:#000;fill-opacity:1" d="M.477 4.414a.462.462 0 0 1-.125-.637.462.462 0 0 1 .636-.125c1.387.93 2.89 1.395 4.512 1.395 1.621 0 3.125-.465 4.512-1.395a.462.462 0 0 1 .636.125c.141.211.082.496-.125.637C8.977 5.441 7.305 5.961 5.5 5.961c-1.805 0-3.477-.52-5.023-1.547zm0 0"/></svg>