<svg xmlns="http://www.w3.org/2000/svg" width="11" height="11"><path d="M.734 4.035c0-.367 2.2-.367 2.2 0v5.5c0 .363-2.2.363-2.2 0v-5.5Zm3.664 0v5.5c0 .363 2.204.363 2.204 0v-5.5c0-.367-2.204-.367-2.204 0Zm4.036.73c-.368-.367-1.832 1.102-1.47 1.47l2.571 3.3c.363.363 1.098.363 1.465 0-.734-.734-.734-1.836-.367-2.203l-2.2-2.566ZM4.398 1.103H.734c-.367 0-.367 2.199 0 2.199h5.868c.363 0 .363-1.469 0-1.469-1.102 0-2.204-.367-2.204-.73Zm0 0" style="stroke:none;fill-rule:nonzero;fill:#000;fill-opacity:1"/></svg>