<svg xmlns="http://www.w3.org/2000/svg" width="11" height="11"><path style="stroke:none;fill-rule:nonzero;fill:#000;fill-opacity:1" d="M0 8.027V7.13C0 5.82.25 4.523.734 3.305l.598-1.496A.541.541 0 0 1 2.336 1.8c.945 2.23 2 3.344 3.164 3.344 1.164 0 2.219-1.114 3.164-3.344a.541.541 0 0 1 1.004.008l.598 1.496C10.75 4.523 11 5.82 11 7.129v.898c0 .809-.656 1.465-1.465 1.465-.164 0-.324-.027-.48-.078A10.805 10.805 0 0 0 5.5 8.801c-1.184 0-2.371.203-3.555.613A1.467 1.467 0 0 1 0 8.027zm1.832-5.812L.734 5.242l.73.735.735-.735.735 1.469.734-1.469a5.972 5.972 0 0 1-1.184-1.668zm7.336 0-.652 1.36a5.972 5.972 0 0 1-1.184 1.667l.734 1.469.735-1.469.734.735.73-.735zm0 0"/></svg>