<svg xmlns="http://www.w3.org/2000/svg" width="11" height="11"><path style="stroke:none;fill-rule:nonzero;fill:#000;fill-opacity:1" d="M4.035 1.465c.2 0 .363.164.363.367v7.703h6.235a.366.366 0 1 1 0 .73H4.398V11h-.73v-.734h-3.3a.366.366 0 1 1 0-.73h3.3V1.831c0-.203.164-.367.367-.367zM6.602 0c.152 1.219.644 2.688 1.464 4.398a56.353 56.353 0 0 0 2.567 4.77H4.766l.105-.621c.176-1.098.262-1.992.262-2.68 0-.152-.004-.32-.012-.5l-.023-.383-.035-.421c-.008-.075-.012-.149-.02-.223l-.055-.477-.062-.515-.074-.555-.086-.594zM2.957 3.418l.344-.484-.114.949-.093.86-.074.769-.04.465-.035.425-.011.2c-.051.808.043 1.582.28 2.32l.087.246H.367l.078-.297.157-.555.156-.511.148-.473.074-.219.145-.41c.117-.324.23-.601.34-.836.133-.281.312-.61.535-.976l.234-.383c.043-.067.086-.137.133-.203l.281-.43zm0 0"/></svg>