<svg xmlns="http://www.w3.org/2000/svg" width="11" height="11"><path style="stroke:none;fill-rule:nonzero;fill:#000;fill-opacity:1" d="M10.34 10.781c-.211 0-.414-.05-.594-.133a1.45 1.45 0 0 0-1.227 0 1.469 1.469 0 0 1-.597.133c-.211 0-.414-.05-.598-.133a1.454 1.454 0 0 0-1.226 0 1.469 1.469 0 0 1-.598.133c-.21 0-.414-.05-.594-.133a1.482 1.482 0 0 0-.613-.136c-.223 0-.43.05-.617.136a1.44 1.44 0 0 1-.598.133c-.21 0-.414-.05-.594-.133a1.455 1.455 0 0 0-1.227 0 1.469 1.469 0 0 1-.597.133V9.88c.211 0 .414-.05.598-.133a1.455 1.455 0 0 1 1.226 0c.18.082.383.133.594.133.215 0 .418-.05.598-.133a1.45 1.45 0 0 1 1.227 0c.183.082.386.133.597.133.21 0 .414-.05.598-.133a1.454 1.454 0 0 1 1.227 0c.179.082.386.133.597.133.21 0 .414-.05.598-.133a1.45 1.45 0 0 1 1.226 0c.18.082.383.133.594.133zM6.379.22v6.82H.94zm.66 1.566c0 .762 3.488 2.836 3.234 5.254H7.04zM9.574 7.48H2.2v1.364c.223.023.188.047.262.082.184.082.398.129.61.129.21 0 .421-.047.6-.13a1.455 1.455 0 0 1 1.23 0c.185.083.388.13.599.13.21 0 .414-.047.598-.13a1.455 1.455 0 0 1 1.227 0c.183.083.386.13.597.13.039 0 .078-.008.117-.012l.008.004.074-.012c.047-.008.094-.012.145-.027.433-.09.714-.442.714-.442l.844-1.086zm0 0"/></svg>