<svg xmlns="http://www.w3.org/2000/svg" width="11" height="11"><path style="stroke:none;fill-rule:nonzero;fill:#000;fill-opacity:1" d="M.914 8.25h2.758a.223.223 0 0 0 .223-.223V3.895a.226.226 0 0 0-.157-.215.228.228 0 0 0-.254.09L.727 7.902a.222.222 0 0 0 .187.348zM4.582 8.25h5.5a.219.219 0 0 0 .164-.07.23.23 0 0 0 .066-.164C10.216 3.805 7.527.176 4.59 0a.226.226 0 0 0-.168.063.246.246 0 0 0-.067.167v7.79c0 .128.102.23.227.23zM10.543 8.938H.457A.46.46 0 0 0 0 9.395C0 10.28.719 11 1.605 11h7.79C10.28 11 11 10.281 11 9.395a.46.46 0 0 0-.457-.457zm0 0"/></svg>