<svg xmlns="http://www.w3.org/2000/svg" width="11" height="11"><path d="M10.34 10.781a1.45 1.45 0 0 1-.594-.133 1.4 1.4 0 0 0-1.226 0c-.18.082-.387.133-.598.133-.207 0-.414-.05-.598-.133a1.388 1.388 0 0 0-1.222 0 1.469 1.469 0 0 1-.598.133c-.211 0-.414-.05-.598-.133a1.4 1.4 0 0 0-1.226 0c-.18.082-.383.133-.594.133-.211 0-.414-.05-.598-.133a1.4 1.4 0 0 0-1.226 0 1.469 1.469 0 0 1-.598.133V9.88c.211 0 .414-.05.598-.133a1.454 1.454 0 0 1 1.226 0c.184.082.387.133.598.133.21 0 .414-.05.594-.133a1.454 1.454 0 0 1 1.227 0c.183.082.386.133.597.133.21 0 .414-.05.598-.133a1.454 1.454 0 0 1 1.227 0c.179.082.386.133.597.133.21 0 .414-.05.597-.133a1.45 1.45 0 0 1 1.227 0c.18.082.383.133.594.133v.902ZM6.379.22v6.82H.945Zm.66 1.566c0 .762 3.488 2.836 3.234 5.254H7.04ZM9.58 7.48h-7.38v1.364c.223.023.188.047.262.082.184.082.398.133.61.133.21 0 .421-.051.6-.13a1.455 1.455 0 0 1 1.23 0 1.47 1.47 0 0 0 1.197.005c.187-.09.398-.141.613-.141.223 0 .43.05.613.14.184.079.387.13.598.13.043 0 .078-.008.117-.016l.012.004.074-.012c.047-.008.098-.012.145-.023.433-.09.714-.442.714-.442l.844-1.09h-.246Zm0 0" style="stroke:none;fill-rule:nonzero;fill:#000;fill-opacity:1"/></svg>