<svg xmlns="http://www.w3.org/2000/svg" width="11" height="11"><path style="stroke:none;fill-rule:nonzero;fill:#000;fill-opacity:1" d="m9.105.074.051.043 1.727 1.727a.405.405 0 0 1 .09.433l-.032.063-.886 1.473-.035.042-.032.028-.035.023-.066.035-.055.02-.07.012h-.047l-.055-.004-.066-.02-.07-.031-.067-.05-.875-.876L7.34 4.238l.2.114c.03.015.062.035.093.05L11 4.398v5.868H0V4.398h1.664l.29-.27c.804-.733 1.632-1.194 2.444-1.194.512 0 .93.128 1.559.472l.305.176.363.219 1.383-1.383-.88-.883-.046-.058-.02-.043-.023-.059-.012-.07v-.067l.012-.07.027-.078.032-.05.02-.028.046-.047.043-.035L8.66.059a.41.41 0 0 1 .445.015zM6.602 6.602H2.934l.27-.54a6.46 6.46 0 0 1 1.194-1.664l.813.813.879-.875-.027-.02c-.801-.484-1.208-.648-1.665-.648-.582 0-1.27.383-1.953 1.004l-.246.23-.422.414-.523.528-.52.539V8.8h9.532V7.332c.011-.531-.047-.98-.172-1.352-.227-.293-.598-.453-1.14-.476L8.8 5.5c-.512 0-.926-.129-1.555-.473l-.309-.175-.132-.082-1.02 1.02zm2.566.73a.367.367 0 1 1 0 .734.367.367 0 0 1 0-.734zm-5.867 0a.367.367 0 1 1 0 .734.367.367 0 0 1 0-.734zm3.664 0a.367.367 0 1 1 0 .734.366.366 0 0 1-.363-.367c0-.203.164-.367.363-.367zm-5.133-.73a.366.366 0 1 1 0 .73.366.366 0 1 1 0-.73zm6.602-.735a.367.367 0 1 1 0 .734.367.367 0 0 1 0-.734zm-5.868-.734a.367.367 0 1 1 .001.733.367.367 0 0 1 0-.733zM8.805.918l-.72.43L9.649 2.91l.434-.715zm0 0"/></svg>