<svg xmlns="http://www.w3.org/2000/svg" width="11" height="11"><path d="m9.102.074.058.043 1.723 1.723a.401.401 0 0 1 .086.441l-.028.059-.886 1.473-.04.042-.027.032c-.008.008-.023.015-.035.023l-.066.035-.051.016-.074.016h-.047l-.059-.008-.062-.016-.074-.039-.06-.05-.882-.872L7.34 4.238l.2.11c.026.023.058.039.093.05H11v5.868H0V4.398h1.664l.285-.27c.809-.733 1.637-1.194 2.45-1.194.515 0 .925.125 1.554.476l.309.168.36.219 1.386-1.375-.88-.883-.042-.059-.024-.042-.023-.067-.016-.066v-.067l.016-.074.031-.07.028-.051.023-.031.043-.051.043-.031L8.66.059a.395.395 0 0 1 .442.015Zm-2.5 6.528H2.934l.27-.543c.308-.61.71-1.176 1.194-1.66l.817.816.879-.88-.028-.015c-.808-.484-1.21-.652-1.668-.652-.585 0-1.265.379-1.949 1.004l-.25.234-.426.41-.52.528-.519.535V8.8h9.532V7.332c.007-.535-.051-.98-.168-1.348-.235-.3-.602-.453-1.145-.484h-.152c-.516 0-.926-.125-1.555-.477l-.309-.168-.132-.082-1.02 1.012Zm2.566.73a.367.367 0 1 1 0 .734.362.362 0 0 1-.367-.367c0-.203.16-.367.367-.367Zm-5.867 0a.367.367 0 1 1 0 .734.362.362 0 0 1-.367-.367c0-.203.16-.367.367-.367Zm3.664 0c.207 0 .367.164.367.367 0 .207-.16.367-.367.367a.361.361 0 0 1-.363-.367c0-.203.16-.367.363-.367Zm-5.133-.73c.207 0 .367.16.367.363 0 .207-.16.367-.367.367a.364.364 0 0 1-.367-.367c0-.203.164-.363.367-.363Zm6.602-.735a.367.367 0 1 1-.367.367c0-.207.16-.367.367-.367Zm-5.868-.734c.207 0 .368.16.368.367s-.16.367-.368.367A.364.364 0 0 1 2.2 5.5c0-.207.164-.367.367-.367ZM8.81.918l-.72.43L9.653 2.91l.43-.719Zm0 0" style="stroke:none;fill-rule:nonzero;fill:#000;fill-opacity:1"/></svg>