<svg xmlns="http://www.w3.org/2000/svg" width="11" height="11"><path style="stroke:none;fill-rule:nonzero;fill:#000;fill-opacity:1" d="m6.234 6.965 1.098 1.101 1.102-1.101h1.832v.367c0 .813-.657 1.469-1.465 1.469H2.199A1.466 1.466 0 0 1 .734 7.332v-.367zM1.832 5.867a.367.367 0 1 1 0 .735h-.73a.367.367 0 1 1 0-.735zm2.934 0H3.3a.367.367 0 1 0 0 .735h1.465a.367.367 0 1 0 0-.735zm5.132 0H8.434a.367.367 0 1 0 0 .735h1.464a.367.367 0 1 0 0-.735zm-2.933 0h-.73a.367.367 0 1 0 0 .735h.73a.367.367 0 1 0 0-.735zM6.832 2.934l-.547.91a.368.368 0 0 0 .63.379l.784-1.29h1.102c.808 0 1.465.657 1.465 1.465V5.5H.734V4.398c0-.808.657-1.464 1.465-1.464h.965l-.547.91a.369.369 0 0 0 .13.504.363.363 0 0 0 .5-.125l.788-1.29H5l-.547.91a.368.368 0 0 0 .629.38l.785-1.29zm0 0"/></svg>