<svg xmlns="http://www.w3.org/2000/svg" width="11" height="11"><path style="stroke:none;fill-rule:nonzero;fill:#000;fill-opacity:1" d="m6.234 6.965 1.098 1.101 1.102-1.101h1.832v.367c0 .816-.653 1.469-1.465 1.469H2.199A1.466 1.466 0 0 1 .734 7.332v-.367zM1.832 5.867c.207 0 .367.16.367.367 0 .204-.16.368-.367.368h-.73a.364.364 0 0 1-.368-.368c0-.207.16-.367.368-.367zm2.934 0H3.3a.362.362 0 0 0-.367.367c0 .204.16.368.367.368h1.465a.364.364 0 0 0 .367-.368.362.362 0 0 0-.367-.367zm5.132 0H8.434a.362.362 0 0 0-.368.367c0 .204.16.368.368.368h1.464a.364.364 0 0 0 .368-.368.362.362 0 0 0-.368-.367zm-2.933 0h-.73a.362.362 0 0 0-.368.367c0 .204.16.368.367.368h.73a.364.364 0 0 0 .368-.368.362.362 0 0 0-.367-.367zM6.836 2.934l-.55.91a.374.374 0 0 0 .124.504.367.367 0 0 0 .504-.125l.785-1.29h1.102a1.46 1.46 0 0 1 1.465 1.465V5.5H.734V4.398c0-.812.66-1.464 1.465-1.464h.969l-.55.91a.374.374 0 0 0 .124.504.372.372 0 0 0 .508-.125l.785-1.29H5l-.547.91a.37.37 0 0 0 .121.505.37.37 0 0 0 .508-.125l.785-1.29zm0 0"/></svg>