<svg xmlns="http://www.w3.org/2000/svg" width="11" height="11"><path style="stroke:none;fill-rule:nonzero;fill:#000;fill-opacity:1" d="M1.465 2.2c0-.81.66-1.466 1.469-1.466h5.132c.809 0 1.47.657 1.47 1.465v5.867c0 .735-.735.735-.735.735v.734c0 .402-.328.73-.735.73a.733.733 0 0 1-.734-.73v-.734H3.668v.734c0 .402-.328.73-.734.73a.733.733 0 0 1-.735-.73v-.734c-.734 0-.734-.735-.734-.735zm1.101.734A.367.367 0 0 0 2.2 3.3V5.5c0 .203.164.367.367.367h2.2a.367.367 0 0 0 .367-.367V3.3a.367.367 0 0 0-.367-.366zm3.668 0a.367.367 0 0 0-.367.367V5.5c0 .203.164.367.367.367h2.2A.367.367 0 0 0 8.8 5.5V3.3a.367.367 0 0 0-.367-.366zM2.2 1.832a.55.55 0 1 0 1.102 0 .55.55 0 0 0-.551-.547.55.55 0 0 0-.55.547zm5.5 0a.55.55 0 1 0 1.102 0 .55.55 0 0 0-.551-.547.55.55 0 0 0-.55.547zm-1.465 0a.55.55 0 1 0 0 0zm-2.566 0a.55.55 0 1 0 1.099.003.55.55 0 0 0-1.099-.003zm-.734 4.77a.733.733 0 1 0 0 1.464.734.734 0 1 0 0-1.464zm5.132 0a.733.733 0 1 0 0 1.464.734.734 0 1 0 0-1.464zm0 0"/></svg>