<svg xmlns="http://www.w3.org/2000/svg" width="11" height="11"><path style="stroke:none;fill-rule:nonzero;fill:#000;fill-opacity:1" d="m.219 1.102 1.676 1.734.644-.586-.582-1.145zm7.554 4.863a.611.611 0 0 0 .75-.422.61.61 0 0 0-.418-.746l-.25-.07-.32 1.168zm-.195-1.313-2.004-.574c-.133-.035-.261.047-.3.18l-.188.68a.252.252 0 0 0 .168.312l2.008.566.32-1.164zm.317 1.93a1.325 1.325 0 0 0-.563-.324l-2.43-.692L3.406 2.88a.629.629 0 0 0-.367-.293.612.612 0 0 0-.758.434.625.625 0 0 0 .047.453L4.2 6.797s.153.246.54.379l3.394.965 1.574 1.62a.451.451 0 0 0 .758-.195.452.452 0 0 0-.13-.453zm1.812.672.355.469.72-.793-.61-.344a.883.883 0 0 0-.629-.969.865.865 0 0 0-1.074.613.88.88 0 0 0 .605 1.09.84.84 0 0 0 .633-.066zm0 0"/></svg>