<svg xmlns="http://www.w3.org/2000/svg" width="11" height="11"><path style="stroke:none;fill-rule:nonzero;fill:#000;fill-opacity:1" d="m.219 1.102 1.676 1.734.644-.586-.582-1.145zm7.554 4.863a.607.607 0 0 0 .329-1.172l-.247-.066-.32 1.164zm-.195-1.317-2.004-.57a.253.253 0 0 0-.304.18l-.188.68a.25.25 0 0 0 .172.308l2.004.566zm.317 1.934a1.332 1.332 0 0 0-.563-.328l-2.434-.688L3.406 2.88a.612.612 0 0 0-1.129.14.625.625 0 0 0 .047.454l1.871 3.324s.153.246.54.375l3.394.969 1.578 1.62c.05.055.121.098.203.122a.456.456 0 0 0 .555-.317.458.458 0 0 0-.13-.453zm1.812.672.355.469.72-.797-.61-.34a.88.88 0 0 0-.629-.969.868.868 0 0 0-1.074.613.883.883 0 0 0 .605 1.09.86.86 0 0 0 .633-.066zm0 0"/></svg>