<svg xmlns="http://www.w3.org/2000/svg" width="11" height="11"><path style="stroke:none;fill-rule:nonzero;fill:#000;fill-opacity:1" d="M9.535 2.566c.375 0 .684.286.727.649l.004.086v1.832a.734.734 0 0 1 .344 1.383l-.079.035-1.73.664v.117a.734.734 0 0 1-1.348.402l-1.723.664L7.555 11h-4.11l1.653-2.36-1.43.551v.344c0 .402-.328.73-.734.73a.731.731 0 0 1-.704-.523l-1.234.477a.73.73 0 0 1-.945-.422.734.734 0 0 1 .34-.914l.078-.035.265-.102V6.234a.733.733 0 0 1 1.461-.086l.004.086v.891l.555-.137a.75.75 0 0 1 .125-.02l.066-.003.043.004.082.011.075.02.097.035.028.012.066.039.082.062.07.07.028.04.046.066.04.074.03.086.024.082.004.055 3.672-1.414.004-.754v-.031l-.004.078c0-.07.012-.137.031-.203l.04-.11.027-.054.054-.082.063-.07.07-.063.051-.031.055-.035.109-.047.059-.016.91-.23V3.3c0-.406.328-.735.734-.735zm-8.07.368a1.1 1.1 0 1 1 .002 2.2 1.1 1.1 0 0 1-.002-2.2zM9.535 0a1.1 1.1 0 1 1-.003 2.199A1.1 1.1 0 0 1 9.535 0zm0 0"/></svg>