<svg xmlns="http://www.w3.org/2000/svg" width="11" height="11"><path style="stroke:none;fill-rule:nonzero;fill:#000;fill-opacity:1" d="M9.535 2.566c.371 0 .688.286.723.645l.008.09v1.832c.293 0 .574.176.683.469a.738.738 0 0 1-.336.918l-.082.027-1.73.668v.117a.736.736 0 0 1-1.352.406l-1.722.66L7.555 11h-4.11l1.653-2.363-1.43.55v.348a.735.735 0 0 1-1.438.211l-1.234.469a.727.727 0 0 1-.945-.418.74.74 0 0 1 .336-.918l.082-.027.265-.102V6.234c0-.406.329-.734.73-.734.376 0 .692.285.727.645l.008.09v.894l.559-.14a3.1 3.1 0 0 0 .117-.024h.11l.081.015.079.016.097.035.028.016.066.039.082.062.074.075.028.03.042.071.04.074.035.082.015.086.008.055 3.672-1.41v-.754l.008-.039-.008.082c0-.074.008-.14.031-.207l.035-.102.032-.058.058-.082.059-.07.074-.06.043-.038.059-.028.109-.05.059-.016.91-.226V3.3c0-.403.328-.735.734-.735zm-8.07.368a1.1 1.1 0 1 1 .002 2.2 1.1 1.1 0 0 1-.002-2.2zM9.535 0a1.1 1.1 0 1 1-.003 2.199A1.1 1.1 0 0 1 9.535 0zm0 0"/></svg>