<svg xmlns="http://www.w3.org/2000/svg" width="11" height="11"><path d="M0 0c0 .785.512 1.29.785 1.563.27.269.66.16.66.367 0 0 .125.418.52.418h.984c0 .226.196.386.196.386s-.196.11-.196.399h-.984c-.395 0-.395.195-.395.394v.785c0 .184.184.387.395.387h.984v.785h-.594c0 .325.211.582.594.793v4.32c0 .512 1.18.555 1.18 0V4.7h2.75v5.899c0 .543 1.172.504 1.172 0v-4.32c.383-.25.594-.47.594-.794H8.05V4.7h.984c.176 0 .395-.203.395-.386v-.786c0-.394-.22-.394-.395-.394h-.984c.023-.207-.196-.399-.196-.399s.196-.16.196-.386h.984c.395 0 .395-.399.395-.399 0-.183.457-.11.785-.387C10.547 1.278 11 .785 11 0 6.285.785 3.93.785 0 0Zm4.129 2.348h.785v.785H4.13c0-.23-.2-.399-.2-.399s.2-.144.2-.386Zm1.957 0h.793c0 .203.191.386.191.386s-.191.192-.191.399h-.793Zm0 0" style="stroke:none;fill-rule:nonzero;fill:#000;fill-opacity:1"/></svg>