<svg xmlns="http://www.w3.org/2000/svg" width="11" height="11"><path style="stroke:none;fill-rule:nonzero;fill:#000;fill-opacity:1" d="M0 0c0 .785.516 1.29.785 1.559.274.273.664.168.664.37 0 0 .121.415.516.415h.98c0 .226.2.394.2.394s-.2.11-.2.39h-.98c-.395 0-.395.2-.395.395v.786c0 .187.184.394.395.394h.98v.785h-.59c0 .317.215.574.59.785v4.32c0 .52 1.18.563 1.18 0v-5.89h2.75v5.89c0 .544 1.18.509 1.18 0v-4.32c.375-.246.59-.464.59-.785h-.59v-.785h.98c.176 0 .395-.207.395-.394v-.786c0-.394-.22-.394-.395-.394h-.98c.02-.207-.2-.39-.2-.39s.2-.169.2-.395h.98c.395 0 .395-.39.395-.39 0-.188.457-.11.785-.395C10.543 1.273 11 .785 11 0 6.285.785 3.93.785 0 0zm4.125 2.344h.785v.785h-.785c0-.223-.195-.39-.195-.39s.195-.15.195-.395zm1.965 0h.785c0 .207.195.394.195.394s-.195.184-.195.39H6.09zm0 0"/></svg>