<svg xmlns="http://www.w3.org/2000/svg" width="11" height="11"><path style="stroke:none;fill-rule:nonzero;fill:#000;fill-opacity:1" d="M5.629 1.969c.504.035.945-.324.988-.805.04-.48-.34-.906-.844-.941-.507-.04-.949.32-.988.8-.039.485.34.903.844.942zm3.785 7.05L9.11 6.38h-.496A2.12 2.12 0 0 0 8.602 6c-.016-.137-.059-.234-.13-.266a.383.383 0 0 0 .106-.23.38.38 0 0 0-.164-.344l-1.258-.832-.93-1.746a.993.993 0 0 0-.73-.441 1 1 0 0 0-.64.183L3.015 3.75a.35.35 0 0 0-.13.191l-.429 1.727-.031.05h-.004c-.074 0-.137.067-.164.16-.024.09-.055.208-.055.302v.199h-.476l-.305 2.64h1.234l-.543.864a.746.746 0 0 0-.082.254.603.603 0 0 0 .57.64.653.653 0 0 0 .583-.293l.914-1.464h.117l-.016-.165.25-.406c.031-.054.117-.187.125-.254l.313-1.343 1.32 1.378.414 2.079a.632.632 0 0 0 .559.468.614.614 0 0 0 .668-.547l-.004-.12-.215-1.09zM2.41 6.157c.016-.101.05-.16.121-.16h.028c.07.082.171.14.289.152a.434.434 0 0 0 .343-.14c.016.015.032.039.043.074a.87.87 0 0 1 .028.195c0 .035 0 .106-.004.106h-.852c-.004 0-.004-.14.004-.219zm1.262.223h-.258A2.12 2.12 0 0 0 3.402 6c-.015-.113-.047-.2-.097-.246l.324-1.418.644-.496zm4.789 0h-.856c-.003 0-.003-.14.008-.223.008-.101.051-.16.121-.16.098 0 .188-.004.266-.004a6.79 6.79 0 0 1 .328-.008c.05 0 .086.032.106.094.02.063.03.137.03.195l-.003.11zm-2.762-.5.414-1.746.348.656a.46.46 0 0 0 .101.113l1.243.817h-.188c-.07 0-.097.066-.12.16-.024.09-.017.207-.017.3v.2h-.554l-.09.777-1.137-1.281zm0 0"/></svg>