<svg xmlns="http://www.w3.org/2000/svg" width="11" height="11"><path style="stroke:none;fill-rule:nonzero;fill:#000;fill-opacity:1" d="M5.625 1.965c.508.039.95-.32.988-.8.043-.481-.336-.903-.84-.942-.507-.036-.949.32-.988.804-.039.48.34.903.84.938zm3.79 7.055-.31-2.641h-.492a2.056 2.056 0 0 0-.011-.375c-.016-.137-.059-.238-.13-.27a.378.378 0 0 0 .102-.226.393.393 0 0 0-.16-.348l-1.262-.828-.93-1.75a.982.982 0 0 0-.726-.437 1.032 1.032 0 0 0-.644.18L3.008 3.75a.374.374 0 0 0-.125.191l-.43 1.727-.031.05h-.004c-.074 0-.14.071-.164.16-.024.09-.055.208-.055.302v.199h-.476l-.305 2.64h1.23l-.539.868a.628.628 0 0 0-.082.254c-.027.328.227.609.57.636a.65.65 0 0 0 .583-.289l.91-1.468h.12l-.019-.16.254-.41c.028-.055.117-.188.125-.25l.309-1.345 1.32 1.38.414 2.074c.067.246.278.449.559.468.344.028.644-.214.672-.543l-.004-.12-.215-1.094zM2.41 6.156c.012-.101.05-.16.121-.16l.024-.004a.41.41 0 0 0 .293.153.403.403 0 0 0 .34-.141.14.14 0 0 1 .042.074c.02.063.032.137.032.195 0 .036-.004.106-.004.106h-.856s0-.14.008-.223zm1.262.223H3.41c.008-.219.004-.242-.012-.375-.011-.117-.043-.203-.093-.25l.324-1.418.644-.496zm4.785 0h-.852c-.003 0-.003-.14.004-.223.012-.101.055-.16.121-.16.098 0 .188-.004.27-.008.078 0 .188-.004.324-.004.055 0 .09.032.11.094.02.063.027.137.027.195zm-2.758-.5.414-1.746.348.656a.477.477 0 0 0 .101.117l1.243.813h-.188c-.07 0-.097.07-.125.16-.023.09-.012.207-.012.3v.2h-.558l-.09.777zm0 0"/></svg>