<svg xmlns="http://www.w3.org/2000/svg" width="11" height="11"><path style="stroke:none;fill-rule:nonzero;fill:#000;fill-opacity:1" d="M4.766.734c1.101 0 1.836.368 2.199.73 0 .368-2.93 4.036-3.297 4.036s-.648-.285-.734-.734c-.559 1.191-1.47 4.035-1.832 5.5 0 .367-1.102.367-1.102 0 0-.368 1.078-6.329 2.566-8.067.711-.828 1.47-1.465 2.2-1.465zM10.004 7.434c.148.14.27.246.398.382.13.137-.234.508-.379.399-.144-.113-.207-.18-.398-.383-.195-.2.23-.535.379-.398zM8.809 6.297c-.184-.192-.536.258-.38.398.16.137.247.227.4.38.155.152.542-.247.378-.4-.164-.152-.21-.19-.398-.378zm-1.192-1.14c-.129-.126-.5.28-.379.398.188.187.266.254.395.379.133.125.547-.239.383-.399a23.47 23.47 0 0 1-.399-.379zM6.422 4.02c-.176-.168-.578.207-.379.394.2.188.258.262.398.383.141.117.504-.281.38-.399-.122-.117-.243-.238-.4-.378zm2.035 5.156c-.18-.25-.562.187-.43.347.137.165.223.274.348.43.125.152.574-.168.43-.348-.149-.18-.153-.187-.348-.43zM7.422 7.895c-.133-.16-.594.125-.43.343.164.223.18.219.348.43.164.21.543-.2.426-.348-.118-.144-.227-.285-.344-.425zm-1.04-1.286c-.179-.218-.585.153-.425.348.156.195.219.285.344.426.125.144.597-.117.43-.344-.126-.168-.176-.223-.348-.43zM5.349 5.33c-.262-.231-.63.1-.43.343.2.242.215.273.348.43.132.152.578-.165.425-.348-.148-.18-.25-.313-.343-.426zm4.82-.684c-.211-.145-.441.351-.32.445.117.09.28.203.445.32.164.117.445-.348.324-.445a3.98 3.98 0 0 0-.449-.32zm-1.336-.97c-.168-.112-.492.348-.324.446.18.14.281.2.449.324.164.125.461-.355.32-.445a7.14 7.14 0 0 0-.445-.324zm-1.34-.964c-.172-.129-.48.324-.32.445.16.121.3.223.445.32.149.102.485-.312.324-.445-.14-.113-.253-.18-.449-.32zm0 0"/></svg>