<svg xmlns="http://www.w3.org/2000/svg" width="11" height="11"><path d="M4.766.734c1.101 0 1.836.368 2.199.73 0 .368-2.93 4.036-3.297 4.036s-.648-.285-.734-.734c-.559 1.187-1.47 4.035-1.832 5.5 0 .367-1.102.367-1.102 0 0-.368 1.078-6.329 2.566-8.067.711-.828 1.47-1.465 2.2-1.465ZM10.004 7.438c.144.136.27.242.394.378.133.133-.234.508-.375.399-.144-.113-.203-.176-.402-.383-.191-.2.234-.535.383-.394ZM8.809 6.3c-.184-.192-.536.254-.375.394.152.14.242.227.394.383.156.152.543-.25.383-.406a6.437 6.437 0 0 1-.402-.371ZM7.62 5.156c-.133-.125-.5.285-.383.403.192.183.266.25.395.375.133.125.55-.235.383-.399a7.786 7.786 0 0 1-.395-.379ZM6.426 4.02c-.18-.168-.582.21-.383.394.2.191.258.266.394.383.141.117.508-.281.383-.399-.125-.117-.242-.234-.394-.378Zm2.031 5.16c-.176-.254-.559.183-.426.347l.344.426c.125.152.57-.172.426-.348-.14-.183-.149-.19-.344-.425ZM7.422 7.898c-.133-.16-.594.125-.426.344.16.219.176.215.344.426.164.21.543-.2.426-.344a20.335 20.335 0 0 0-.344-.426ZM6.387 6.613c-.184-.226-.586.149-.434.348.164.187.223.285.348.422.129.14.601-.117.43-.344-.126-.168-.176-.219-.344-.426Zm-1.04-1.289c-.257-.226-.624.11-.425.352.195.242.21.273.344.426.132.152.578-.168.425-.344-.148-.184-.25-.317-.343-.434Zm4.825-.683c-.215-.137-.442.351-.324.449.117.094.28.203.449.32.16.121.437-.344.32-.445a5.334 5.334 0 0 0-.445-.324Zm-1.344-.965c-.168-.114-.484.344-.32.445.176.14.277.2.445.324.168.125.461-.351.324-.449-.132-.101-.257-.2-.449-.32Zm-1.332-.961c-.176-.133-.484.32-.324.437.16.125.3.227.45.325.144.101.48-.317.32-.442-.141-.117-.258-.183-.446-.32Zm0 0" style="stroke:none;fill-rule:nonzero;fill:#000;fill-opacity:1"/></svg>