<svg xmlns="http://www.w3.org/2000/svg" width="11" height="11"><path style="stroke:none;fill-rule:nonzero;fill:#000;fill-opacity:1" d="M9.168 9.535H1.465C.656 9.535 0 8.875 0 8.066c0-.808.656-1.464 1.465-1.464h.031a2.29 2.29 0 0 1-.031-.368c0-1.011.66-1.836 1.469-1.836.273 0 .527.094.746.254a2.698 2.698 0 0 1-.012-.254c0-1.214.82-2.199 1.832-2.199.867 0 1.594.723 1.785 1.692a1.472 1.472 0 0 1 2.25 1.242c0 .27-.074.523-.203.742A1.832 1.832 0 0 1 11 7.699c0 1.012-.82 1.836-1.832 1.836zm0 0"/></svg>