<svg xmlns="http://www.w3.org/2000/svg" width="11" height="11"><path d="M8.516 7.95a1.829 1.829 0 0 1-1.77.835c0 .008.008.008.008.016a6.82 6.82 0 0 0 1.68 1.465H2.566A6.44 6.44 0 0 0 4.246 8.8c.102-.133.207-.293.309-.492-.332.3-.77.492-1.254.492a1.84 1.84 0 0 1-1.805-1.496A1.84 1.84 0 0 1 0 5.5c0-.734.426-1.363 1.047-1.656a1.471 1.471 0 0 1 1.152-2.379c.34 0 .645.12.895.308A3.281 3.281 0 0 1 5.5.734c.867 0 1.648.329 2.238.871.211-.085.446-.14.696-.14a1.835 1.835 0 0 1 1.37 3.05 1.832 1.832 0 0 1-.637 3.55c-.23.001-.448-.042-.651-.116Zm0 0" style="stroke:none;fill-rule:nonzero;fill:#000;fill-opacity:1"/></svg>