<svg xmlns="http://www.w3.org/2000/svg" width="11" height="11"><path style="stroke:none;fill-rule:nonzero;fill:#000;fill-opacity:1" d="M8.516 7.95a1.834 1.834 0 0 1-1.77.835 6.652 6.652 0 0 0 1.687 1.48H2.567a6.291 6.291 0 0 0 1.676-1.464c.106-.133.211-.297.309-.496A1.807 1.807 0 0 1 3.3 8.8a1.837 1.837 0 0 1-1.805-1.5 1.83 1.83 0 0 1-.445-3.457 1.469 1.469 0 0 1 1.148-2.379c.34 0 .649.117.899.308A3.28 3.28 0 0 1 5.5.734a3.28 3.28 0 0 1 2.234.871 1.835 1.835 0 0 1 2.07 2.91 1.832 1.832 0 0 1-.637 3.55c-.23.001-.448-.042-.651-.116zm0 0"/></svg>