<svg xmlns="http://www.w3.org/2000/svg" width="11" height="11"><path style="stroke:none;fill-rule:nonzero;fill:#000;fill-opacity:1" d="M9.168 9.535H1.465C.66 9.535 0 8.875 0 8.066c0-.804.66-1.464 1.465-1.464h.031a1.89 1.89 0 0 1-.031-.368c0-1.011.66-1.836 1.469-1.836.27 0 .527.098.746.258-.004-.086-.012-.168-.012-.258 0-1.214.82-2.199 1.832-2.199.867 0 1.59.719 1.781 1.696a1.471 1.471 0 0 1 2.254 1.238c0 .273-.074.52-.2.742.93.078 1.665.871 1.665 1.824 0 1.012-.82 1.836-1.832 1.836zm0 0"/></svg>