<svg xmlns="http://www.w3.org/2000/svg" width="11" height="11"><path d="M1.465 2.2h1.101c.207 0 .368.163.368.366 0 .207-.16.368-.368.368H1.465Zm0-.735v2.933h2.203V1.465Zm0-.73h2.203c.402 0 .73.328.73.73v2.933a.733.733 0 0 1-.73.735H1.465a.733.733 0 0 1-.73-.735V1.465c0-.403.328-.73.73-.73ZM2.199 5.5h.735v4.766h-.735Zm7.336.367c.402 0 .73.328.73.735V8.8h-.73v.734a.735.735 0 0 1-1.469 0v-.734H5.867v.734a.735.735 0 0 1-1.469 0v-.734h-.73V6.6c0-.406.328-.734.73-.734l.653-1.953a.375.375 0 0 1 .347-.246h3.137c.156 0 .293.102.344.246Zm-4.402 2.2a.736.736 0 0 0 .734-.735.735.735 0 0 0-1.469 0c0 .406.332.734.735.734Zm0-2.2H8.8l-.457-1.469H5.59Zm3.668 2.2a.736.736 0 0 0 .734-.735.735.735 0 0 0-1.469 0c0 .406.332.734.735.734Zm0 0" style="stroke:none;fill-rule:nonzero;fill:#000;fill-opacity:1"/></svg>