<svg xmlns="http://www.w3.org/2000/svg" width="11" height="11"><path style="stroke:none;fill-rule:nonzero;fill:#000;fill-opacity:1" d="m5.488 0-.797.785c.051.344.063.61.098.91-.973.297-1.691 1.176-1.691 2.235 0 1.066.734 1.941 1.718 2.234-.043.293-.07.574-.125.906l.399.395v.32c-.73-.488-1.512-1.031-1.992-1.5-1.614-1.57-1.188-4.32.797-5.5-1.59.395-3.16 1.817-3.16 3.93 0 2.355 2.363 3.14 2.363 3.93l.797-.79 1.02.567c-.49.297-1.02.613-1.02.613l.398.395.848-.47v.567a.772.772 0 0 0-.45.688.79.79 0 0 0 .797.785.793.793 0 0 0 .797-.785.75.75 0 0 0-.426-.688v-.566l.825.469.398-.395s-.562-.348-.996-.613l.996-.567.797.79c0-.79 2.387-1.575 2.387-3.93 0-2.113-1.59-3.535-3.184-3.93 1.988 1.18 2.414 3.93.797 5.5-.492.477-1.25 1.031-1.992 1.524v-.344l.398-.395c-.055-.324-.086-.61-.125-.906.985-.293 1.719-1.168 1.719-2.234 0-1.067-.734-1.946-1.719-2.235.04-.3.07-.586.125-.91zm.57 2.457c.602.227 1.024.8 1.024 1.473 0 .668-.422 1.246-1.023 1.472a15.457 15.457 0 0 1 0-2.945zm-1.195.023c.008-.003.02.004.028 0 .105 1.09.12 1.95.023 2.922a1.57 1.57 0 0 1-.05-2.922zM3.496 9.43a.396.396 0 0 0-.398.39c0 .22.18.395.398.395a.397.397 0 0 0 .399-.395c0-.215-.18-.39-.399-.39zm3.984 0a.394.394 0 0 0-.398.39c0 .22.176.395.398.395a.397.397 0 0 0 .399-.395c0-.215-.18-.39-.399-.39zm0 0"/></svg>