<svg xmlns="http://www.w3.org/2000/svg" width="11" height="11"><path style="stroke:none;fill-rule:nonzero;fill:#000;fill-opacity:1" d="M6.633 10.773a.302.302 0 0 0 .297-.308.302.302 0 0 0-.297-.309.302.302 0 0 0-.297.309c0 .172.133.308.3.308zm-.516-8.925a.804.804 0 0 0 .793-.817.803.803 0 0 0-.793-.812.8.8 0 0 0-.789.812c0 .453.356.817.79.817zM1.82 8.973a.516.516 0 0 0-.058.242c0 .285.226.52.508.52.199 0 .37-.122.453-.294l1.73-3.058-.719-.738zm3.746-.137a.504.504 0 0 1-.457.297.514.514 0 0 1-.441-.762l.75-1.363-1.469-1.5c-.562-.586-.16-1.215-.16-1.215l.79-1.434H2.48c-.23 0-.414-.203-.414-.437 0-.235.184-.442.414-.442h6.348c.227 0 .41.208.41.446 0 .234-.183.437-.41.437H6.406L5.25 4.945l1.18 1.196c.41.41.144.867.144.867l-1.008 1.84zm1.914.844a.218.218 0 0 1-.218.218H3.52a.218.218 0 1 1 0-.437h3.742c.12 0 .218.098.218.219zM3.922 10.473a.32.32 0 0 0 .14.289.307.307 0 0 0 .317 0 .32.32 0 0 0 .14-.29.318.318 0 0 0-.14-.284.307.307 0 0 0-.316 0 .318.318 0 0 0-.141.285zm0 0"/></svg>