<svg xmlns="http://www.w3.org/2000/svg" width="11" height="11"><path style="stroke:none;fill-rule:nonzero;fill:#000;fill-opacity:1" d="M6.633 10.773a.302.302 0 0 0 .297-.308.302.302 0 0 0-.297-.309.302.302 0 0 0-.297.309c0 .172.133.308.297.308zm-.516-8.925a.804.804 0 0 0 .793-.817.803.803 0 0 0-.793-.812.803.803 0 0 0-.793.812c0 .453.356.817.793.817zM1.82 8.977a.494.494 0 0 0-.058.242c0 .285.226.52.504.52a.507.507 0 0 0 .457-.294l1.73-3.058-.719-.739zm3.746-.137a.507.507 0 0 1-.457.293.514.514 0 0 1-.504-.52c0-.09.02-.172.06-.242l.753-1.363-1.469-1.5c-.566-.586-.164-1.215-.164-1.215l.793-1.438-2.098.004c-.23 0-.417-.203-.417-.441 0-.234.187-.438.417-.438h6.344c.23 0 .414.204.414.442 0 .234-.183.437-.414.437H6.406L5.25 4.941l1.176 1.196c.414.406.144.863.144.863zm1.914.84a.218.218 0 0 1-.218.218H3.52a.218.218 0 1 1 0-.437h3.742c.12 0 .218.098.218.219zM3.922 10.473c0 .172.133.308.3.308a.302.302 0 0 0 .298-.308.301.301 0 0 0-.297-.305c-.168 0-.301.137-.301.305zm0 0"/></svg>