<svg xmlns="http://www.w3.org/2000/svg" width="11" height="11"><path style="stroke:none;fill-rule:nonzero;fill:#000;fill-opacity:1" d="M7.45 1.887a.826.826 0 0 0 .823-.832.83.83 0 0 0-.824-.836.83.83 0 0 0-.824.836c0 .46.367.832.824.832zM3.95 5.27l2.964-1.938a.847.847 0 0 0 .258-1.16.821.821 0 0 0-1.145-.258L3.844 3.34a.808.808 0 0 0-.285.312L1.28 8.188a.55.55 0 0 0 .235.73.534.534 0 0 0 .722-.238zm5.777-.317a.855.855 0 0 0 .265-1.168l-.285.176a.508.508 0 0 1-.164.7L.441 10.491l.18.29zm0 0"/></svg>