<svg xmlns="http://www.w3.org/2000/svg" width="11" height="11"><path style="stroke:none;fill-rule:nonzero;fill:#000;fill-opacity:1" d="M7.45 1.887a.826.826 0 0 0 .823-.832.832.832 0 0 0-.824-.836.83.83 0 0 0-.824.836c0 .465.367.836.824.836zM3.952 5.27l2.965-1.938a.847.847 0 0 0 .258-1.16.826.826 0 0 0-1.145-.262L3.844 3.34a.826.826 0 0 0-.285.308l-2.274 4.54a.55.55 0 0 0 .235.73.528.528 0 0 0 .718-.238zm5.774-.317c.39-.25.515-.77.27-1.168l-.29.176a.508.508 0 0 1-.16.7L.44 10.491l.18.29zm0 0"/></svg>