<svg xmlns="http://www.w3.org/2000/svg" width="11" height="11"><path style="stroke:none;fill-rule:nonzero;fill:#000;fill-opacity:1" d="M9.453 7.367c.555 0 1.004-.469 1.004-1.043s-.45-1.039-1.004-1.039c-.555 0-1.004.465-1.004 1.04 0 .573.45 1.042 1.004 1.042zm.77 2.324c.047.016.066.024.117.024.258 0 .453-.215.453-.48a.481.481 0 0 0-.297-.446l-1.39-.562-1.016-1.86s-.082-.207-.375-.32L4.398 4.672 2.426 1.215a.654.654 0 0 0-.567-.336c-.363 0-.66.308-.66.687 0 .118.031.23.086.329l2.445 4.3-1.55-.64-.39.261L7.987 8.36h-.004l.258.399s.098.215.399.336l.77.304c-.5.52-1.204.293-1.204.293L.637 6.543l-.418.258 7.96 3.234c.919.348 1.72-.484 1.72-.484v.004zm0 0"/></svg>