<svg xmlns="http://www.w3.org/2000/svg" width="11" height="11"><path style="stroke:none;fill-rule:nonzero;fill:#000;fill-opacity:1" d="M7.617 1.922c.465 0 .84-.379.84-.852a.846.846 0 0 0-.84-.851.847.847 0 0 0-.844.851c0 .47.375.852.844.852zM9.88 5.168c-.149.34-.461.238-.461.238l-1.32-.5a.43.43 0 0 1-.27-.293l-.297-.879-.468 1.293 1.37 1.45c.172.304.145.527.145.527v2s.895.398.895.89a.883.883 0 0 1-1.082.868l-2.895-.653v-.43l2.2-.484v-1.82L6.218 5.902l-.235 1.543c-.035.196-.18.38-.257.47L4.71 9.101c-.016-.012-.035-.012-.055-.012l.055.012a.895.895 0 0 1 .316.906.88.88 0 0 1-1.257.59L1.102 9.289l.097-.422 2.45.035 1.163-1.355.364-2.672.754-2.02-1.047.606-.625 1.234c-.188.395-.528.188-.528.188-.308-.18-.19-.48-.19-.48l.64-1.305c.172-.332.308-.38.308-.38l1.492-.827c.329-.227.707-.051.707-.051l.86.332c.43.156.45.398.45.398l.53 1.72 1.145.41s.308.132.203.476zm-1.344 5.21.067.005c.27 0 .476-.223.476-.492 0-.274-.277-.493-.496-.493V9.5c0 .262-.2.469-.457.469a.452.452 0 0 1-.441-.38l-1.352.302zm-4.539-.124.063.02a.488.488 0 0 0 .586-.364.499.499 0 0 0-.192-.515l-.2.234a.465.465 0 0 1-.655.05.47.47 0 0 1-.153-.382L1.961 9.27l2.035.988zm0 0"/></svg>