<svg xmlns="http://www.w3.org/2000/svg" width="11" height="11"><path style="stroke:none;fill-rule:nonzero;fill:#000;fill-opacity:1" d="M5.059 10.492V9.098l-.739.437-.36-.226v-.493L5.06 8.16v-.918l-.88.54v-.973l-.878.46v1.32l-.364.27-.296-.246v-.879l-1.227.684-.535-.219v-.554l1.25-.7-.809-.398v-.512l.465-.25 1.149.676.796-.457-.02-.016-.804-.465.781-.492-.785-.457-1.148.672-.434-.215v-.508l.778-.433-1.22-.672v-.559l.513-.242 1.25.703v-.898l.324-.246.43.258-.012 1.343.808.465.004-.945.864.46V2.84L3.96 2.184v-.489l.36-.23.738.437V.512L5.5.219l.441.293v1.39l.86-.445.46.27v.437l-1.32.676v.918l.88-.5v1l.878-.461V2.363l.32-.191.34.191v.914l1.286-.675.476.27v.515l-1.21.699.769.43v.496l-.403.218-1.172-.695-.808.516.781.492-.805.465.829.437 1.187-.656.39.27v.472l-.73.414 1.172.7v.546l-.555.227-1.207-.656v.87l-.332.231-.328-.23v-1.32l-.879-.489v.918l-.879-.5v.918l1.098.656v.52l-.363.2-.735-.438v1.394l-.441.29zm-.32-4.972.413.64h.774l.355-.64-.375-.68h-.773zm0 0"/></svg>