<svg xmlns="http://www.w3.org/2000/svg" width="11" height="11"><path style="stroke:none;fill-rule:nonzero;fill:#000;fill-opacity:1" d="M7.617 1.922c.465 0 .84-.383.84-.852a.846.846 0 0 0-.84-.851.847.847 0 0 0-.844.851c0 .47.375.852.844.852zM9.88 5.168c-.149.34-.461.238-.461.238l-1.32-.504a.423.423 0 0 1-.27-.293l-.297-.879-.465 1.293 1.368 1.45c.171.304.144.527.144.527v1.996s.895.402.895.895c0 .492-.391.89-.875.89a.708.708 0 0 1-.203-.027L5.5 10.105v-.433l2.2-.485v-1.82L6.222 5.895l-.235 1.543c-.035.195-.18.378-.258.468L4.715 9.094c-.016-.012-.035-.012-.055-.012l.05.012a.892.892 0 0 1 .321.906.887.887 0 0 1-1.261.594L1.102 9.28l.097-.418 2.45.035L4.811 7.54l.364-2.672.754-2.02-1.047.61-.625 1.234c-.188.391-.528.184-.528.184-.308-.176-.19-.477-.19-.477l.64-1.308c.172-.328.308-.38.308-.38l1.496-.827c.325-.227.704-.051.704-.051l.859.332c.433.156.45.398.45.398l.53 1.72 1.149.41s.308.132.203.476zm-1.344 5.207.067.008c.27 0 .476-.223.476-.492 0-.274-.277-.493-.5-.493V9.5a.457.457 0 0 1-.453.469c-.227 0-.398-.164-.441-.383l-1.352.305zm-4.539-.121.063.02a.488.488 0 0 0 .586-.364.496.496 0 0 0-.192-.515l-.2.234a.46.46 0 0 1-.655.047.47.47 0 0 1-.153-.383l-1.48-.027zm0 0"/></svg>