<svg xmlns="http://www.w3.org/2000/svg" width="11" height="11"><path style="stroke:none;fill-rule:nonzero;fill:#000;fill-opacity:1" d="M10.422 4.793 8.043 2.637a.941.941 0 0 0-.277-.18L5.91 1.805l-.84-1.2a.425.425 0 0 0-.28-.164.407.407 0 0 0-.45.352.374.374 0 0 0 .058.254l.86 1.226c.039.051.09.09.148.118l1 .386-1.64.825a.896.896 0 0 0-.438.617l.012 1.476-1.516.672a.515.515 0 0 0-.207.762l-.816-.305a.542.542 0 0 1-.324-.336A.535.535 0 0 0 .8 6.16a.517.517 0 0 0-.332.66c.152.453.504.813.953.98l7.094 2.653a1.63 1.63 0 0 0 1.375-.101.521.521 0 0 0 .195-.715.537.537 0 0 0-.727-.192.553.553 0 0 1-.464.035l-1.758-.66a.525.525 0 0 0 .347-.418L7.762 6.2v-.031a.505.505 0 0 0-.16-.395L6.41 4.734l1.793-.87 1.668 1.511c.074.07.176.113.29.113a.396.396 0 0 0 .26-.695zM6.68 6.34 6.44 8.277v.032a.513.513 0 0 0 .067.277l-3.34-1.25c.035-.012.074-.024.11-.04l1.855-.823a.52.52 0 0 0 .262-.348l-.004-.914zM7.629 1.66c0 .461.379.832.848.832a.838.838 0 0 0 .843-.832.84.84 0 0 0-.843-.832.841.841 0 0 0-.848.832zm0 0"/></svg>