<svg xmlns="http://www.w3.org/2000/svg" width="11" height="11"><path d="M5.059 10.492V9.098l-.739.437-.36-.226v-.493L5.06 8.16v-.918l-.88.54v-.973l-.878.46v1.317l-.364.27-.296-.243V7.73l-1.227.688-.535-.223v-.554l1.254-.7-.813-.398v-.512l.47-.246 1.144.676L3.73 6l-.02-.012-.804-.465.785-.492-.789-.457-1.144.672-.438-.215v-.508l.782-.437-1.22-.668v-.559l.513-.242 1.246.703v-.898l.328-.25.43.262-.016 1.343.808.465.008-.945.86.46V2.84L3.96 2.184v-.489l.36-.23.738.437V.512l.437-.293.445.293v1.39l.86-.445.46.27v.437l-1.32.676v.918l.88-.5v.996l.878-.457V2.363l.32-.191.344.191v.918l1.285-.68.473.27v.52l-1.207.695.77.43v.496l-.403.218-1.172-.695-.808.52.781.488-.805.469.828.437 1.184-.66.395.27v.472l-.73.418 1.171.696v.546l-.555.23-1.207-.655v.87l-.332.231-.328-.23v-1.32l-.879-.489v.918l-.879-.5v.918l1.098.656v.52l-.363.2-.735-.438v1.394l-.441.29-.441-.29Zm-.32-4.972.413.64h.774l.351-.64-.37-.68h-.774Zm0 0" style="stroke:none;fill-rule:nonzero;fill:#000;fill-opacity:1"/></svg>