<svg xmlns="http://www.w3.org/2000/svg" width="11" height="11"><path style="stroke:none;fill-rule:nonzero;fill:#000;fill-opacity:1" d="M0 6.234c1.465.368 3.3 1.098 3.3 1.098s.735-.367 1.098-.367h1.47l2.198-.363s.368.363 0 .73c-.367.367-1.832.734-2.199.734-.367 0 .367.368.367.368h1.098s1.469 0 2.203-.368C10.265 7.7 11 7.332 11 7.7 9.535 9.168 8.8 9.535 8.8 9.535s-1.468.363-2.933.363c-.367 0-1.469-.73-1.832-.73-.367 0-4.035.367-4.035 0zM9.168.367c1.098 0 1.098 1.098 1.098 1.465 0 1.469-2.2 3.668-2.567 3.668S5.133 3.3 5.133 1.832c0-.367 0-1.465 1.101-1.465C7.332.367 7.7 1.465 7.7 1.465S8.066.367 9.168.367zm0 0"/></svg>