<svg xmlns="http://www.w3.org/2000/svg" width="11" height="11"><path style="stroke:none;fill-rule:nonzero;fill:#000;fill-opacity:1" d="M10.39 9.02H6.82v.878h3.606c.297 0 .355-.257.355-.257V9.43s-.004-.41-.39-.41zm-.492-.172a.884.884 0 0 0 0-1.77.885.885 0 0 0 0 1.77zM8.035 8.8c.465 0 .836-.328.836-.79 0-.46-.371-.702-.832-.706l-1.219.152v1.344zm-3.96-5.735a.982.982 0 0 0 0-1.964.978.978 0 0 0-.977.98c0 .543.437.984.976.984zm-1 3.18-.009-.012L2.625 5.2l-.004 2.063H3.95l.29-.309-.786-.305a.644.644 0 0 1-.379-.402zm.28-.094a.393.393 0 0 0 .223.211l1.516.563a.385.385 0 0 0 .504-.2.389.389 0 0 0-.2-.507L4.004 5.69l-.43-1.035.281-.105.364.886 1.062.395V4.75l.563.332.281 1.414a.384.384 0 0 0 .488.242c.2-.07.305-.293.235-.492l-.313-1.363a.42.42 0 0 0-.125-.192c-.16-.18-.976-1.09-1.035-1.152-.086-.086-.281-.238-.648-.238h-1.32c-.75 0-.895.765-.739 1.152zM6.602 7.48H.652c-.215 0-.433.122-.433.391v2.027h6.383zm0 0"/></svg>