<svg xmlns="http://www.w3.org/2000/svg" width="11" height="11"><path style="stroke:none;fill-rule:nonzero;fill:#000;fill-opacity:1" d="M3.668.734h3.664c.367 0 .734.368.734.73v8.071c0 .363-.367.73-.734.73H3.668c-.367 0-.734-.367-.734-.73v-8.07c0-.363.367-.73.734-.73zM5.5 1.832c-.809 0-1.465.66-1.465 1.469 0 .812.656 1.465 1.465 1.465A1.46 1.46 0 0 0 6.965 3.3c0-.809-.652-1.469-1.465-1.469zm0 .734c.402 0 .734.332.734.735a.739.739 0 0 1-.734.734.739.739 0 0 1-.734-.734c0-.403.332-.735.734-.735zm0 3.301c-1.012 0-1.832.82-1.832 1.832s.82 1.836 1.832 1.836A1.835 1.835 0 0 0 7.332 7.7c0-1.011-.82-1.832-1.832-1.832zm0 .735a1.1 1.1 0 1 1 0 2.2 1.1 1.1 0 1 1 0-2.2zm0 0"/></svg>