<svg xmlns="http://www.w3.org/2000/svg" width="11" height="11"><path style="stroke:none;fill-rule:nonzero;fill:#000;fill-opacity:1" d="M6.602 7.332v.367A3.302 3.302 0 0 1 0 7.7c0-1.82 1.477-3.3 3.3-3.3h3.302v-.731h-.735v-.367c0-.106.008-.207.024-.305a.366.366 0 0 0-.723-.121c-.023.14-.035.281-.035.426v.367h-.735v-.367A3.302 3.302 0 0 1 11 3.3c0 1.82-1.477 3.3-3.3 3.3H4.397v.731h.735v.398c0 .11-.012.22-.035.332-.04.196.09.391.289.43.199.04.39-.09.43-.289a2.65 2.65 0 0 0 .05-.469v-.402zm-2.204-.73H3.301a1.1 1.1 0 1 0 1.097 1.097zm2.204-2.204h1.097a1.1 1.1 0 1 0-1.097-1.097zm.261-2.73c.246-.125.516-.195.793-.2.07-.003.106 0 .14 0a.367.367 0 1 0 .04-.73c-.05-.004-.102-.004-.188-.004a2.56 2.56 0 0 0-1.12.282.364.364 0 0 0-.157.492c.09.183.313.254.492.16zm2.39.66c.165.262.263.559.278.875.012.2.184.356.387.344a.363.363 0 0 0 .344-.383 2.55 2.55 0 0 0-.387-1.227.362.362 0 0 0-.504-.113.366.366 0 0 0-.117.504zm-.39 2.39a1.809 1.809 0 0 1-.832.384.368.368 0 0 0 .133.722c.43-.078.828-.265 1.164-.539a.366.366 0 1 0-.465-.566zm-2.793.415H4.97a.367.367 0 1 0 0 .734H6.07a.367.367 0 1 0 0-.734zm-3.172.031c-.433.07-.836.246-1.18.512a.367.367 0 1 0 .454.578c.242-.191.531-.316.84-.363a.37.37 0 0 0 .304-.422.366.366 0 0 0-.418-.305zM.734 7.813c.02.437.149.859.375 1.226a.367.367 0 0 0 .504.121.364.364 0 0 0 .121-.504 1.807 1.807 0 0 1-.265-.875.367.367 0 1 0-.735.032zm2.371 2.445c.06.008.122.008.18.008.39 0 .754-.079 1.094-.235a.367.367 0 0 0 .176-.488.366.366 0 0 0-.485-.18 1.827 1.827 0 0 1-.78.172c-.044-.004-.087-.004-.13-.008a.362.362 0 0 0-.39.34c-.016.2.132.38.335.39zm0 0"/></svg>