<svg xmlns="http://www.w3.org/2000/svg" width="11" height="11"><path d="M2.656 6.277a1.45 1.45 0 0 0 0 2.075c.57.574 1.496.574 2.067 0l3.629-3.63a1.464 1.464 0 0 0 0-2.074 1.455 1.455 0 0 0-2.067 0ZM1.094 4.723l3.629-3.63a3.678 3.678 0 0 1 5.191 0 3.668 3.668 0 0 1 0 5.184l-3.629 3.63a3.678 3.678 0 0 1-5.191 0 3.668 3.668 0 0 1 0-5.184Zm1.039 1.035.777-.778a.365.365 0 1 0-.52-.516l-.777.778a.365.365 0 1 0 .52.516ZM4.18 3.71l.777-.777a.359.359 0 0 0 0-.52.363.363 0 0 0-.512 0l-.785.777a.373.373 0 0 0 0 .52.365.365 0 0 0 .52 0Zm2.03-1.93c.274-.16.58-.258.895-.285A.368.368 0 0 0 7.04.762a3.073 3.073 0 0 0-1.203.39.365.365 0 0 0-.125.496.364.364 0 0 0 .5.133Zm2.407.125c.082.059.16.133.242.207.16.16.286.328.387.512.098.184.324.25.5.148a.374.374 0 0 0 .149-.5 2.823 2.823 0 0 0-.524-.683c-.101-.102-.21-.188-.32-.278a.371.371 0 0 0-.516.083.358.358 0 0 0 .082.511Zm.836 2.309a2.09 2.09 0 0 1-.418.844.367.367 0 0 0 .059.515c.16.125.386.102.511-.058.274-.332.457-.711.56-1.121a.367.367 0 1 0-.712-.18ZM7.816 6.3l-.777.777a.37.37 0 0 0 0 .512.363.363 0 0 0 .524 0l.777-.777a.37.37 0 0 0 0-.512.363.363 0 0 0-.524 0ZM5.77 8.344l-.528.531c-.07.07-.144.137-.226.195a.368.368 0 0 0-.075.516c.125.16.352.187.516.07.11-.078.211-.176.309-.27l.527-.519a.385.385 0 0 0 0-.523.37.37 0 0 0-.523 0ZM3.512 9.512a2.401 2.401 0 0 1-.903-.278.363.363 0 0 0-.496.137.362.362 0 0 0 .137.5c.375.211.785.336 1.203.367a.366.366 0 0 0 .399-.34.365.365 0 0 0-.34-.386Zm-1.89-1.453c-.11-.301-.157-.618-.126-.93a.366.366 0 0 0-.332-.399.374.374 0 0 0-.402.332c-.028.426.023.852.168 1.247a.364.364 0 0 0 .465.218.37.37 0 0 0 .226-.468Zm0 0" style="stroke:none;fill-rule:nonzero;fill:#000;fill-opacity:1"/></svg>