<svg xmlns="http://www.w3.org/2000/svg" width="11" height="11"><path style="stroke:none;fill-rule:nonzero;fill:#000;fill-opacity:1" d="M2.652 6.277a1.464 1.464 0 0 0 0 2.075c.57.574 1.5.574 2.075 0l3.628-3.63c.575-.574.575-1.5 0-2.074a1.464 1.464 0 0 0-2.074 0zM1.098 4.723l3.629-3.63a3.661 3.661 0 0 1 5.183 0 3.661 3.661 0 0 1 0 5.184l-3.629 3.63a3.661 3.661 0 0 1-5.183 0 3.661 3.661 0 0 1 0-5.184zm1.035 1.035.777-.778a.36.36 0 0 0 0-.515.365.365 0 0 0-.52 0l-.777.777a.365.365 0 1 0 .52.516zM4.18 3.71l.777-.777a.365.365 0 0 0 0-.52.36.36 0 0 0-.516 0l-.777.777a.365.365 0 0 0 0 .52.36.36 0 0 0 .516 0zm2.03-1.926c.274-.16.583-.262.9-.289a.367.367 0 0 0-.07-.73c-.423.039-.833.171-1.2.382a.369.369 0 0 0 .37.637zm2.403.121a2.294 2.294 0 0 1 .637.723.366.366 0 0 0 .64-.352 2.924 2.924 0 0 0-.843-.965.367.367 0 0 0-.434.594zm.84 2.309a2.115 2.115 0 0 1-.418.844.366.366 0 0 0 .059.515.37.37 0 0 0 .515-.054c.266-.336.457-.72.559-1.13a.371.371 0 0 0-.27-.445.373.373 0 0 0-.445.27zM7.82 6.297l-.78.777a.373.373 0 0 0 0 .52c.144.14.378.14.519 0l.777-.782a.36.36 0 0 0 0-.515.36.36 0 0 0-.516 0zM5.77 8.344l-.528.527c-.07.07-.148.14-.226.2a.368.368 0 0 0-.075.515c.125.16.356.191.516.07.106-.082.211-.172.305-.265l.527-.528a.365.365 0 0 0 0-.52.365.365 0 0 0-.52 0zM3.512 9.508a2.167 2.167 0 0 1-.903-.274.358.358 0 0 0-.496.141.36.36 0 0 0 .137.496c.371.211.781.336 1.203.367a.365.365 0 0 0 .395-.336.365.365 0 0 0-.336-.394zM1.617 8.063a2.253 2.253 0 0 1-.12-.938.368.368 0 0 0-.333-.398.37.37 0 0 0-.398.335c-.036.422.02.848.164 1.247.066.191.277.289.468.222a.368.368 0 0 0 .22-.469zm0 0"/></svg>