<svg xmlns="http://www.w3.org/2000/svg" width="11" height="11"><path style="stroke:none;fill-rule:nonzero;fill:#000;fill-opacity:1" d="M4.398 2.2v.55a.916.916 0 0 1-.793.91l-.292 3.223c.46-.504 1.07-1.004 1.82-1.504.777-.52 1.554-.832 2.336-.938l-.074-.78a.916.916 0 0 1-.793-.911V2.2zm-.73 0h-.367a.367.367 0 0 1-.367-.368V.734c0-.406.328-.734.734-.734h3.664c.406 0 .734.328.734.734v1.098a.367.367 0 0 1-.367.367h-.367v.551c0 .102.082.184.184.184h.183c.207 0 .383.156.403.363l.625 6.902a.73.73 0 0 1-.665.797C8.043 11 8.02 11 7.997 11H3.004a.734.734 0 0 1-.734-.734c0-.02 0-.043.003-.067l.625-6.902a.403.403 0 0 1 .403-.363h.183a.183.183 0 0 0 .184-.184zm0 0"/></svg>