<svg xmlns="http://www.w3.org/2000/svg" width="11" height="11"><path style="stroke:none;fill-rule:nonzero;fill:#000;fill-opacity:1" d="M4.398 2.2v.55c0 .46-.343.852-.796.91L3.309 6.88c.468-.5 1.07-.996 1.824-1.504.777-.512 1.554-.828 2.332-.93l-.067-.785a.919.919 0 0 1-.796-.91V2.2zm-.73 0h-.367a.362.362 0 0 1-.367-.368V.734c0-.406.328-.734.734-.734h3.664c.406 0 .734.328.734.734v1.098c0 .207-.16.367-.367.367h-.367v.551c0 .102.082.184.184.184h.183c.207 0 .383.16.403.367l.625 6.898a.733.733 0 0 1-.66.801H3.007a.731.731 0 0 1-.735-.734v-.067l.625-6.898a.406.406 0 0 1 .403-.367h.183a.183.183 0 0 0 .184-.184zm0 0"/></svg>