<svg xmlns="http://www.w3.org/2000/svg" width="11" height="11"><path style="stroke:none;fill-rule:nonzero;fill:#000;fill-opacity:1" d="M7.332 6.965a.354.354 0 0 1-.203.332l-.074.027-1.512.375 1.512.375c.343.086.367.559.074.688l-.074.031-1.512.375 1.512.371c.343.09.367.559.074.691l-.074.028-.043.008H8.8c.375 0 .687.285.726.644l.008.09h-8.07c0-.402.332-.734.734-.734H3.98l1.477-.368-1.512-.37c-.343-.09-.367-.56-.074-.692l.074-.027 1.512-.375-1.512-.375c-.343-.086-.367-.555-.074-.688l.074-.031 1.512-.375zM8.801 0v.734c.453 0 .886.227 1.136.61l.938 1.406a.719.719 0 0 1 .125.402v.567a.37.37 0 0 1-.367.367.342.342 0 0 1-.203-.066l-.715-.477a.602.602 0 0 0-.82.16.655.655 0 0 0-.094.332c0 .422-.059.84-.168 1.246l1.867.621a.742.742 0 0 1 .348 1.153l-.059.066L9.32 8.586a.73.73 0 0 1-1.039 0 .725.725 0 0 1-.062-.965l.062-.074.63-.625-.962-.32H2.891l-.692.418v1.046l-.008.09a.729.729 0 0 1-.726.645.728.728 0 0 1-.723-.645l-.008-.09V6.602l.008-.098a.685.685 0 0 1 .27-.477l.082-.058L2.199 5.3v-.168a.731.731 0 0 0-1.457-.086l-.008.086a.729.729 0 0 1-.644.726L0 5.867V3.301c0-.403.328-.735.734-.735.454 0 .887.227 1.137.61l.328.492c0-.406.332-.734.735-.734h.734V3.3l.008.117c.058.96.847 1.715 1.824 1.715.977 0 1.766-.754 1.824-1.715l.008-.117v-.367C7.332.977 7.824 0 8.801 0zM6.6 2.934V3.3l-.007.101c-.051.567-.524.996-1.094.996-.57 0-1.043-.43-1.094-.996l-.008-.101v-.367zm0 0"/></svg>