<svg xmlns="http://www.w3.org/2000/svg" width="11" height="11"><path style="stroke:none;fill-rule:nonzero;fill:#000;fill-opacity:1" d="M7.332 6.969a.35.35 0 0 1-.207.328l-.07.027-1.508.375 1.508.38c.347.085.37.55.07.687l-.07.023-1.508.379 1.508.375c.347.086.37.55.07.687l-.07.024-.043.012H8.8c.375 0 .683.285.726.648l.008.086h-8.07c0-.406.332-.734.734-.734h1.785l1.47-.368-1.509-.375c-.347-.085-.37-.55-.07-.687l.07-.024 1.508-.378-1.508-.38c-.347-.085-.37-.55-.07-.687l.07-.023 1.508-.38zM8.801 0v.734c.457 0 .886.227 1.14.61l.934 1.406a.713.713 0 0 1 .125.406v.559a.367.367 0 0 1-.57.305l-.715-.477a.59.59 0 0 0-.914.492c0 .422-.059.84-.172 1.246l1.871.625a.73.73 0 0 1 .344 1.145l-.059.066L9.32 8.586a.734.734 0 0 1-1.102-.969l.063-.07.63-.629-.962-.316H2.891l-.692.414v1.05l-.004.086a.735.735 0 0 1-1.457 0l-.004-.086V6.602l.004-.098a.745.745 0 0 1 .274-.477l.078-.054 1.11-.668v-.172a.734.734 0 0 0-1.462-.086l-.004.086a.738.738 0 0 1-.648.73L0 5.867V3.301c0-.406.328-.735.734-.735.457 0 .887.23 1.141.61l.324.492c0-.406.328-.734.735-.734h.734V3.3l.004.12a1.833 1.833 0 0 0 3.656 0l.004-.12v-.367C7.332.977 7.82 0 8.801 0zM6.6 2.934V3.3l-.007.105c-.051.559-.524.992-1.094.992-.57 0-1.043-.433-1.094-.992l-.008-.105v-.367zm0 0"/></svg>