<svg xmlns="http://www.w3.org/2000/svg" width="11" height="11"><path style="stroke:none;fill-rule:nonzero;fill:#000;fill-opacity:1" d="M10.266.734v1.098c-.551 0-.551 1.102 0 1.102v.918c-.551 0-.551 1.097 0 1.097v1.102c-.551 0-.551 1.097 0 1.097v.918c-.551 0-.551 1.102 0 1.102v1.098H9.168c0-.551-1.102-.551-1.102 0h-.918c0-.551-1.097-.551-1.097 0H4.949c0-.551-1.097-.551-1.097 0h-.918c0-.551-1.102-.551-1.102 0H.734V9.168c.551 0 .551-1.102 0-1.102v-.918c.551 0 .551-1.097 0-1.097V4.949c.551 0 .551-1.097 0-1.097v-.918c.551 0 .551-1.102 0-1.102V.734h1.098c0 .551 1.102.551 1.102 0h.918c0 .551 1.097.551 1.097 0h1.102c0 .551 1.097.551 1.097 0h.918c0 .551 1.102.551 1.102 0h1.098zM8.8 2.2H2.199v6.602h6.602V2.199zm-.735.735v5.132H2.934V2.934zm0 0"/></svg>