<svg xmlns="http://www.w3.org/2000/svg" width="11" height="11"><path d="M8.434.734H7.332c-.543 0-1.012.293-1.262.73H2.566l-.734.735.734.735.735-.735.734.735.73-.735.735.735h.57c.25.441.72.734 1.262.734h1.102a.367.367 0 0 0 .367-.367V1.1a.364.364 0 0 0-.367-.367Zm-.368 1.832c0 .207-.16.368-.367.368a.364.364 0 0 1-.367-.368v-.734a.367.367 0 1 1 .734 0ZM8.8 10.266V5.867H2.2v4.399H1.101v-5.5h8.796v5.5ZM3.3 6.602h4.4c.206 0 .366.16.366.363 0 .207-.16.367-.367.367H3.301a.362.362 0 0 1-.367-.367c0-.203.16-.363.367-.363Zm0 2.933h4.4c.206 0 .366.16.366.363 0 .207-.16.368-.367.368H3.301a.362.362 0 0 1-.367-.368c0-.203.16-.363.367-.363Zm0-1.469h4.4c.206 0 .366.16.366.368 0 .203-.16.367-.367.367H3.301a.364.364 0 0 1-.367-.367c0-.207.16-.368.367-.368Zm0 0" style="stroke:none;fill-rule:nonzero;fill:#000;fill-opacity:1"/></svg>