<svg xmlns="http://www.w3.org/2000/svg" width="11" height="11"><path style="stroke:none;fill-rule:nonzero;fill:#000;fill-opacity:1" d="M8.438.734H7.332c-.539 0-1.008.297-1.262.73H2.566l-.734.735.734.735.735-.735.734.735.73-.735.735.735h.57a1.46 1.46 0 0 0 1.262.734h1.102a.37.37 0 0 0 .367-.371v-2.2a.363.363 0 0 0-.364-.363zm-.372 1.832a.367.367 0 1 1-.734 0v-.734a.367.367 0 1 1 .734 0zM8.8 10.266V5.867H2.2v4.399H1.101v-5.5h8.796v5.5zM3.3 6.602h4.4a.366.366 0 1 1 0 .73H3.3a.366.366 0 1 1 0-.73zm0 2.933h4.4a.366.366 0 1 1 0 .73H3.3a.366.366 0 1 1 0-.73zm0-1.469h4.4a.367.367 0 1 1 0 .735H3.3a.367.367 0 1 1 0-.735zm0 0"/></svg>