<svg xmlns="http://www.w3.org/2000/svg" width="11" height="11"><path style="stroke:none;fill-rule:nonzero;fill:#000;fill-opacity:1" d="M2.656 8.527 7.98 6l-.242-1.703-4.804 2.289zm.438-3.035 4.511-2.148-.214-1.48L3.344 3.71zm.375-2.64 3.02-1.387H3.667zM8.14 7.137 3.879 9.168h4.555zm-5.2-6.09A.34.34 0 0 1 3.066.82.36.36 0 0 1 3.31.734h4.39c.184 0 .34.133.36.313l1.468 8.789c0 .004.008.02.008.035a.365.365 0 0 1-.308.387c-.024.008-.047.008-.067.008H1.84c-.02 0-.043 0-.067-.008a.361.361 0 0 1-.3-.418v-.004zm0 0"/></svg>