<svg xmlns="http://www.w3.org/2000/svg" width="11" height="11"><path style="stroke:none;fill-rule:nonzero;fill:#000;fill-opacity:1" d="M2.656 8.531 7.98 5.996l-.242-1.7-4.8 2.286zm.434-3.039 4.512-2.148-.211-1.485-4.043 1.856zm.379-2.64 3.02-1.387H3.667zm4.676 4.285L3.883 9.168h4.55zm-5.207-6.09a.366.366 0 0 1 .367-.313H7.699c.184 0 .336.133.364.313l1.464 8.785a.12.12 0 0 1 .004.04.364.364 0 0 1-.304.39c-.024.004-.043.004-.067.004H1.84c-.024 0-.043 0-.067-.004a.366.366 0 0 1-.3-.422v-.008zm0 0"/></svg>