<svg xmlns="http://www.w3.org/2000/svg" width="11" height="11"><path style="stroke:none;fill-rule:nonzero;fill:#000;fill-opacity:1" d="m4.215 9.168-.18.367h2.93l-.18-.367h1.098L8.8 11H7.699l-.367-.734H3.668L3.301 11H2.199l.918-1.832zm5.32-6.234v4.398c0 .809-.66 1.469-1.469 1.469H2.934c-.809 0-1.47-.66-1.47-1.469V2.934c0-.809.661-1.47 1.47-1.47h5.132c.809 0 1.47.661 1.47 1.47zM6.602 7.332a.733.733 0 1 0 1.465.003.733.733 0 0 0-1.465-.003zm-2.204 0a.732.732 0 1 0-1.463.003.732.732 0 0 0 1.463-.003zM2.2 4.035 2.207 5.5c0 .207.16.367.367.367h2.2c.199 0 .367-.16.367-.367l-.016-1.465a.362.362 0 0 0-.367-.367H2.566a.364.364 0 0 0-.367.367zm3.668 0L5.875 5.5c0 .207.16.367.367.367h2.2a.37.37 0 0 0 .367-.367l-.016-1.465a.362.362 0 0 0-.367-.367H6.234a.362.362 0 0 0-.367.367zM2.934 2.566c0 .207.16.368.367.368h4.398c.207 0 .367-.16.367-.368A.364.364 0 0 0 7.7 2.2H3.301a.364.364 0 0 0-.367.367zm-2.2 6.97H0V2.933A2.932 2.932 0 0 1 2.934 0h5.132A2.932 2.932 0 0 1 11 2.934v6.601h-.734V2.934c0-1.22-.98-2.2-2.2-2.2H2.934c-1.22 0-2.2.98-2.2 2.2zm0 0"/></svg>