<svg xmlns="http://www.w3.org/2000/svg" width="11" height="11"><path style="stroke:none;fill-rule:nonzero;fill:#000;fill-opacity:1" d="m4.215 9.168-.18.367h2.93l-.18-.367h1.098L8.8 11H7.699l-.367-.734H3.668L3.301 11H2.199l.918-1.832zm5.32-6.234v4.398a1.47 1.47 0 0 1-1.469 1.469H2.934a1.47 1.47 0 0 1-1.47-1.469V2.934c0-.809.661-1.47 1.47-1.47h5.132c.809 0 1.47.661 1.47 1.47zM6.602 7.332a.733.733 0 1 0 1.465.003.733.733 0 0 0-1.465-.003zm-2.204 0a.732.732 0 1 0-1.463.003.732.732 0 0 0 1.463-.003zM2.2 4.035l.008 1.469c0 .2.164.363.367.363H4.77a.367.367 0 0 0 .367-.367v-.004l-.008-1.465a.363.363 0 0 0-.367-.363h-2.2c-.199 0-.363.164-.363.367zm3.664 0 .012 1.469c0 .2.164.363.367.363h2.196a.367.367 0 0 0 .367-.367v-.004l-.008-1.465a.368.368 0 0 0-.367-.363h-2.2a.367.367 0 0 0-.367.367zm-2.93-1.469c0 .204.165.368.368.368h4.398a.367.367 0 1 0 0-.735H3.301a.367.367 0 0 0-.367.367zM.735 9.536H0V2.933A2.932 2.932 0 0 1 2.934 0h5.132A2.932 2.932 0 0 1 11 2.934v6.601h-.734V2.934c0-1.215-.985-2.2-2.2-2.2H2.934c-1.215 0-2.2.985-2.2 2.2zm0 0"/></svg>