<svg xmlns="http://www.w3.org/2000/svg" width="11" height="11"><path style="stroke:none;fill-rule:nonzero;fill:#000;fill-opacity:1" d="M1.465.734h8.07c.402 0 .73.329.73.73v8.071c0 .402-.328.73-.73.73h-8.07a.732.732 0 0 1-.73-.73v-8.07c0-.403.328-.73.73-.73zm8.07 3.664a.735.735 0 0 0-.734-.73H2.199a.735.735 0 0 0-.734.73v3.668c0 .407.332.735.734.735h6.602a.736.736 0 0 0 .734-.735zm-2.933-.73h.73v-.734a.733.733 0 0 0-.73-.735H4.398a.733.733 0 0 0-.73.735v.734h.73v-.734h2.204zm-4.036.73h1.47c.198 0 .362.165.362.368v2.933a.366.366 0 0 1-.363.367H2.566A.367.367 0 0 1 2.2 7.7V4.766c0-.204.164-.368.367-.368zm4.036 0h1.464a.734.734 0 1 1 0 1.47H6.602zm-.735 0h.367v1.47h-.367a.734.734 0 1 1 0-1.47zm0 2.204h.367v1.464h-.367a.734.734 0 1 1 0-1.464zm.735 0h1.464a.733.733 0 1 1 0 1.464H6.602zm0 0"/></svg>