<svg xmlns="http://www.w3.org/2000/svg" width="11" height="11"><path style="stroke:none;fill-rule:nonzero;fill:#000;fill-opacity:1" d="M7.332 5.133v5.133H3.668V5.133zm.734 0h.735c.402 0 .734.328.734.734v3.668c0 .402-.332.73-.734.73h-.735zm-5.132 0v5.133h-.735a.735.735 0 0 1-.734-.73V5.866c0-.406.332-.734.734-.734zm3.668 0v-.735H4.398v.735h-.73v-.735c0-.402.328-.73.73-.73h2.204c.402 0 .73.328.73.73v.735zM8.437 0c.2 0 .364.164.364.363v2.203a.367.367 0 0 1-.367.368H7.332a1.46 1.46 0 0 1-1.262-.735H5.5l-.734-.734-.73.734-.735-.734-.735.734-.734-.734.734-.73H6.07A1.46 1.46 0 0 1 7.332 0zm-.37 1.832v-.73a.367.367 0 1 0-.735 0v.73a.367.367 0 1 0 .734 0zm0 0"/></svg>