<svg xmlns="http://www.w3.org/2000/svg" width="11" height="11"><path style="stroke:none;fill-rule:nonzero;fill:#000;fill-opacity:1" d="M2.07 7.8c2.953 1.25 5.196 1.977 8.356 2.977.062.012.12-.035.133-.101a.123.123 0 0 0-.098-.14C5.484 8.96 1.578 7.218.687 6.812a.183.183 0 0 0-.234.097c-.035.094.004.192.094.227.223.101.441.199.652.289l-.703.539a.249.249 0 0 0 .074.348c.086.058.211.05.293-.004zm8.149-3.148-2.297-2.12.05.003c.465 0 .84-.379.84-.848a.843.843 0 1 0-1.683 0c0 .18.055.344.148.481L5.72 1.609 4.879.387a.403.403 0 0 0-.281-.164.409.409 0 0 0-.446.359c-.007.09.012.18.059.258l.86 1.25c.038.047.085.09.148.117l.996.395-1.637.84a.885.885 0 0 0-.433.628l.007 1.504-1.511.684a.528.528 0 0 0-.301.457.52.52 0 0 0 .5.543.558.558 0 0 0 .254-.051l1.847-.84a.53.53 0 0 0 .266-.355l-.004-.934 1.285 1.156-.238 1.97v.034a.521.521 0 0 0 1.04.094l.276-2.246v-.031a.521.521 0 0 0-.16-.399L6.215 4.594l1.793-.887 1.664 1.54c.074.07.176.116.285.116a.411.411 0 0 0 .402-.41.43.43 0 0 0-.14-.3zm0 0"/></svg>