<svg xmlns="http://www.w3.org/2000/svg" width="11" height="11"><path style="stroke:none;fill-rule:nonzero;fill:#000;fill-opacity:1" d="M2.074 7.805c2.95 1.246 5.192 1.972 8.352 2.976a.119.119 0 0 0 .133-.105c.011-.063-.036-.125-.098-.14C5.488 8.96 1.582 7.218.69 6.812c-.093-.036-.199.003-.234.093-.035.094.004.196.094.227.222.101.437.199.652.293L.5 7.96a.251.251 0 0 0 .07.348.28.28 0 0 0 .297 0L2.078 7.8zm8.149-3.153-2.297-2.12.05.003c.465 0 .84-.379.84-.844a.845.845 0 0 0-.84-.847.844.844 0 0 0-.843.847c0 .176.054.34.148.48l-1.558-.558-.84-1.222a.407.407 0 0 0-.281-.168.409.409 0 0 0-.446.359.443.443 0 0 0 .059.258l.86 1.25c.038.05.09.094.148.12l.996.395-1.633.84a.88.88 0 0 0-.438.625l.008 1.504-1.511.684a.526.526 0 0 0 .2 1.004.49.49 0 0 0 .249-.055l1.851-.84c.133-.07.23-.199.266-.351l-.004-.938 1.285 1.156-.234 1.97-.004.038c-.012.29.21.535.5.547.27.012.5-.187.539-.457l.277-2.246.004-.031a.53.53 0 0 0-.164-.399L6.223 4.594l1.793-.887 1.664 1.54c.074.07.175.116.285.116a.405.405 0 0 0 .262-.71zm0 0"/></svg>