<svg xmlns="http://www.w3.org/2000/svg" width="11" height="11"><path style="stroke:none;fill-rule:nonzero;fill:#000;fill-opacity:1" d="M5.672.535a.915.915 0 0 0-.914.914s.027.016.027.04a.896.896 0 0 0-1.262.097.88.88 0 0 0-.203.445 1.027 1.027 0 0 0-.36-.05 1.095 1.095 0 0 0-1.026 1.515 1.092 1.092 0 0 0 0 2.106c.187.574.8.89 1.375.703.394-.125.68-.465.746-.871a.857.857 0 0 0 .472.21l.02 1.985c.004.242.031.465.07.668.059.035.117.074.168.117.117.098.23.207.348.3.18.165.441.177.644.056.004-.067.02-.114.02-.188l.016-.734a4.971 4.971 0 0 1 2.03-1.47 1.09 1.09 0 0 0 1.313-.816 1.02 1.02 0 0 0 .031-.269v-.117c.454-.215.743-.676.735-1.18a1.295 1.295 0 0 0-.735-1.183.91.91 0 0 0-.917-.833.839.839 0 0 0-.215.043.88.88 0 0 0-1.465-.574.916.916 0 0 0-.918-.914zm.14 4.246c.2.352.57.57.977.57h.203c.012.325.164.622.418.82-.598.278-1.14.661-1.598 1.134zm1.282 4.012c-.317 0-.637.11-.899.328-.117.098-.226.207-.343.3a.55.55 0 0 1-.735 0c-.117-.093-.226-.202-.344-.3a1.393 1.393 0 0 0-1.789 0c-.109.098-.21.2-.32.29a.758.758 0 0 1-.223.116.619.619 0 0 1-.586-.183 4.683 4.683 0 0 0-.578-.426.894.894 0 0 0-.5-.117H.734a.367.367 0 1 0 0 .734c.18.008.348.09.47.227l.26.191c.497.402 1.2.422 1.712.043.14-.101.265-.234.402-.344a.55.55 0 0 1 .735 0l.285.254a1.4 1.4 0 0 0 1.804.051c.11-.078.2-.18.309-.27a.562.562 0 0 1 .797-.007l.008.008.289.257c.355.301.84.403 1.289.27.281-.074.535-.227.734-.442a.719.719 0 0 1 .438-.238.367.367 0 1 0 0-.734 1.295 1.295 0 0 0-.871.308l-.344.301a.558.558 0 0 1-.735 0c-.109-.09-.21-.191-.324-.289a1.386 1.386 0 0 0-.898-.328zm0 0"/></svg>