<svg xmlns="http://www.w3.org/2000/svg" width="11" height="11"><path style="stroke:none;fill-rule:nonzero;fill:#000;fill-opacity:1" d="M8.8 3.3a.367.367 0 1 1 .735 0v5.868a.367.367 0 1 1-.734 0zM7.332 2.566a.367.367 0 1 1 .734 0v6.602a.367.367 0 1 1-.734 0zM5.867 1.832a.367.367 0 1 1 .735 0v7.336a.367.367 0 1 1-.735 0zm0 0"/><path style="stroke:none;fill-rule:nonzero;fill:#000;fill-opacity:1" d="M6.965 5.133a.367.367 0 1 1 0 .734h-2.93a.367.367 0 1 1 0-.734zM9.004 3.629 6.07 2.16a.365.365 0 0 1-.164-.492.368.368 0 0 1 .492-.164l2.934 1.469c.18.09.254.308.164.492a.37.37 0 0 1-.492.164zM1.465 3.3a.367.367 0 1 1 .734 0v5.868a.367.367 0 1 1-.734 0zm0 0"/><path style="stroke:none;fill-rule:nonzero;fill:#000;fill-opacity:1" d="M2.934 2.566a.367.367 0 1 1 .734 0v6.602a.367.367 0 1 1-.734 0zM4.398 1.832a.367.367 0 1 1 .735 0v7.336a.367.367 0 1 1-.735 0zm0 0"/><path style="stroke:none;fill-rule:nonzero;fill:#000;fill-opacity:1" d="M1.996 3.629a.37.37 0 0 1-.492-.164.368.368 0 0 1 .164-.492l2.934-1.47a.368.368 0 0 1 .492.165c.09.184.02.402-.164.492zM1.465 7.332h3.668v2.203H1.465zm4.402 0h3.668v2.203H5.867zm0 0"/></svg>