<svg xmlns="http://www.w3.org/2000/svg" width="11" height="11"><path d="M8.066 4.035c1.102 0 2.2.363 2.2 1.465s-1.098 1.465-2.2 1.465c-1.101 0-2.199-.363-2.199-1.465-.367-.184-.367-.184-.734 0 0 1.102-1.098 1.465-2.2 1.465C1.833 6.965.735 6.602.735 5.5s1.098-1.465 2.2-1.465c1.101 0 1.832.363 1.972.805.227-.258.961-.258 1.188 0 .14-.442.87-.805 1.972-.805Zm0 .914c-.3 0-.55.25-.55.551 0 .3.25.55.55.55.301 0 .551-.25.551-.55 0-.3-.25-.55-.55-.55Zm-5.132 0c-.301 0-.551.25-.551.551 0 .3.25.55.55.55.301 0 .551-.25.551-.55 0-.3-.25-.55-.55-.55Zm0 0" style="stroke:none;fill-rule:nonzero;fill:#000;fill-opacity:1"/></svg>