<svg xmlns="http://www.w3.org/2000/svg" width="11" height="11"><path style="stroke:none;fill-rule:nonzero;fill:#000;fill-opacity:1" d="M8.066 8.066H1.465c-.73 0-.73-1.101 0-1.101h2.933c.735-.363 1.102-.363 1.47-.363h1.831c0 .73 0 1.097.367 1.464zm1.102 0a1.1 1.1 0 1 0-.004-2.199 1.1 1.1 0 0 0 .004 2.2zM10.633 8.8c.367 0 .367 1.466 0 1.466H.367C0 10.266 0 8.8.367 8.8zM6.418 0s0 .918.184 1.102c.183.183 1.097.183 1.097.183s-.734.73-.734.914c0 .184.734.918.734.918s-.914 0-1.097.184c-.184.183-.184 1.097-.184 1.097s-.734-.73-.918-.73c-.184 0-.918.73-.918.73s0-.914-.184-1.097c-.183-.184-1.097-.184-1.097-.184s.734-.734.734-.918c0-.183-.734-.914-.734-.914s.914 0 1.097-.183C4.582.918 4.582 0 4.582 0s.734.734.918.734c.184 0 .918-.734.918-.734zM5.5 1.285c-.55 0-.918.363-.918.914s.367.918.918.918c.55 0 .918-.367.918-.918 0-.55-.367-.914-.918-.914zm0 1.649a.739.739 0 0 0 .734-.735.739.739 0 0 0-.734-.734.739.739 0 0 0-.734.734c0 .403.332.735.734.735zM3.77 3.879c.14.09.109.168.05.258l-.734 1.097c-.059.082-.168.114-.254.055a.191.191 0 0 1-.05-.258s.655-.984.73-1.101c.066-.086.191-.086.258-.051zm3.718.05c-.082-.085-.168-.124-.258-.05-.085.082-.101.168-.05.258l.734 1.097c.059.082.168.114.254.055.082-.059.113-.172.05-.258 0 0-.655-1.011-.73-1.101zM5.5 4.583a.183.183 0 0 0-.184.184v1.101a.183.183 0 1 0 .368 0V4.766a.183.183 0 0 0-.184-.184zm0 0"/></svg>