<svg xmlns="http://www.w3.org/2000/svg" width="11" height="11"><path style="stroke:none;fill-rule:nonzero;fill:#000;fill-opacity:1" d="M8.066 4.035c1.102 0 2.2.363 2.2 1.465s-1.098 1.465-2.2 1.465c-1.101 0-2.199-.363-2.199-1.465-.367-.184-.367-.184-.734 0 0 1.102-1.098 1.465-2.2 1.465C1.833 6.965.735 6.602.735 5.5s1.098-1.465 2.2-1.465c1.101 0 1.832.363 1.972.805.227-.258.961-.258 1.188 0 .14-.442.87-.805 1.972-.805zm0 .914a.55.55 0 1 0 0 1.1.55.55 0 0 0 0-1.1zm-5.132 0a.55.55 0 1 0-.002 1.1.55.55 0 0 0 .002-1.1zm0 0"/></svg>