<svg xmlns="http://www.w3.org/2000/svg" width="11" height="11"><path style="stroke:none;fill-rule:nonzero;fill:#000;fill-opacity:1" d="M8.066 8.066H1.465c-.73 0-.73-1.101 0-1.101h2.933c.735-.363 1.102-.363 1.47-.363h1.831c0 .73 0 1.097.367 1.464zm1.102 0a1.1 1.1 0 1 0-.004-2.199 1.1 1.1 0 0 0 .004 2.2zM10.633 8.8c.367 0 .367 1.466 0 1.466H.367C0 10.266 0 8.8.367 8.8zM6.418 0s0 .918.184 1.102c.183.183 1.097.183 1.097.183s-.734.73-.734.914c0 .184.734.918.734.918s-.914 0-1.097.184c-.184.183-.184 1.097-.184 1.097s-.734-.73-.918-.73c-.184 0-.918.73-.918.73s0-.914-.184-1.097c-.183-.184-1.097-.184-1.097-.184s.734-.734.734-.918c0-.183-.734-.914-.734-.914s.914 0 1.097-.183C4.582.918 4.582 0 4.582 0s.734.734.918.734c.184 0 .918-.734.918-.734zM5.5 1.285c-.55 0-.918.363-.918.914s.367.918.918.918c.55 0 .918-.367.918-.918 0-.55-.367-.914-.918-.914zm0 1.649a.734.734 0 1 0 .002-1.467.734.734 0 0 0-.002 1.467zM3.77 3.879c.14.09.105.172.05.258l-.734 1.097a.18.18 0 0 1-.254.051.179.179 0 0 1-.05-.254l.734-1.101c.058-.09.183-.09.254-.051zm3.714.05c-.074-.09-.164-.124-.254-.05-.09.078-.105.172-.05.258l.734 1.097a.18.18 0 0 0 .254.051.179.179 0 0 0 .05-.254s-.655-1.008-.734-1.101zM5.5 4.583a.183.183 0 0 0-.184.184v1.101a.183.183 0 1 0 .368 0V4.766a.183.183 0 0 0-.184-.184zm0 0"/></svg>