<svg xmlns="http://www.w3.org/2000/svg" width="11" height="11"><path style="stroke:none;fill-rule:nonzero;fill:#000;fill-opacity:1" d="M6.273 1.488A2.195 2.195 0 0 1 9.343 1a.365.365 0 0 1 .083.512.364.364 0 0 1-.512.082 1.463 1.463 0 0 0-2.047.324l3.856 2.8c.164.122.199.352.082.512a.37.37 0 0 1-.516.082l-.297-.214L8.7 6.878l-.297-.214-.43.59.594.434c.164.117.2.347.082.511a.368.368 0 0 1-.511.082l-3.86-2.804-.43.593.298.215c.164.121.199.352.082.516L2.5 9.17a.367.367 0 0 1-.512.083l-.297-.215-.43.594-1.16.969.567-1.403.43-.594-.293-.214a.364.364 0 0 1-.082-.512l1.722-2.371a.365.365 0 0 1 .512-.082l.297.215.433-.594L2.5 4.184l-.215.296a.365.365 0 0 1-.512.082l-.593-.43a.365.365 0 0 1-.082-.51l.863-1.188a.367.367 0 0 1 .512-.082l.593.43c.164.12.2.35.079.515l-.215.293 1.187.863L5.84 2.082l-.297-.219a.363.363 0 0 1-.078-.511.363.363 0 0 1 .512-.079zm.16 1.024L4.712 4.887l.89.644.43-.593-.297-.215L7.027 2.94zM8.81 4.234l-.594-.43-1.293 1.782-.297-.219-.434.594 1.188.863.434-.594-.297-.214zm0 0"/></svg>