<svg xmlns="http://www.w3.org/2000/svg" width="11" height="11"><path d="M6.27 1.488A2.208 2.208 0 0 1 9.344.996a.362.362 0 0 1 .078.516.348.348 0 0 1-.504.078 1.47 1.47 0 0 0-2.055.332l3.86 2.8c.16.118.195.344.078.508a.364.364 0 0 1-.512.086l-.293-.218L8.7 6.878l-.297-.218-.43.594.594.43c.16.117.196.355.079.515a.37.37 0 0 1-.512.082L4.28 5.477l-.43.593.294.215a.365.365 0 0 1 .078.512L2.5 9.176a.37.37 0 0 1-.512.078l-.293-.219-.433.594-1.16.976.566-1.402.434-.594L.8 8.391a.372.372 0 0 1-.082-.516l1.73-2.367a.36.36 0 0 1 .508-.082l.3.215.43-.594-1.187-.86-.219.293a.366.366 0 0 1-.508.082L1.18 4.13a.352.352 0 0 1-.078-.508l.855-1.187a.361.361 0 0 1 .516-.079l.593.426c.16.121.196.352.079.512l-.211.3 1.18.86 1.73-2.371-.301-.219a.374.374 0 0 1-.078-.515.37.37 0 0 1 .512-.078Zm.16 1.02L4.707 4.883l.895.648.425-.597-.293-.211 1.29-1.782Zm2.379 1.73-.594-.433L6.922 5.59l-.3-.223-.427.594 1.184.867.43-.594-.293-.222Zm0 0" style="stroke:none;fill-rule:nonzero;fill:#000;fill-opacity:1"/></svg>