<svg xmlns="http://www.w3.org/2000/svg" width="11" height="11"><path style="stroke:none;fill-rule:nonzero;fill:#000;fill-opacity:1" d="M10.055 5.313 8.316 2.39c-.066-.13-.234-.188-.375-.188H6.38V.883A.44.44 0 0 0 5.94.44H4.84c-.242 0-.442.2-.442.442v1.32H3.09c-.145 0-.317.059-.387.188L.961 5.336a.51.51 0 0 0-.52.512V8.52c0 .293.23.503.52.503h.582v.832c0 .438.293.707.723.707h.257c.43 0 .778-.269.778-.707v-.832h4.402v.832c0 .438.375.707.805.707h.262c.43 0 .69-.269.69-.707v-.832h.61c.285 0 .492-.21.492-.503V5.848c0-.293-.218-.535-.507-.535zM1.87 7.449c-.36 0-.648-.3-.648-.668 0-.367.289-.664.648-.664.363 0 .652.297.652.668 0 .371-.289.668-.652.668zm.39-2.168L3.446 3.22c.063-.133.235-.137.375-.137h3.383c.145 0 .313.008.379.137L8.766 5.28zm6.895 2.172c-.36 0-.652-.3-.652-.668a.66.66 0 0 1 .652-.668c.36 0 .653.301.653.668a.66.66 0 0 1-.653.668zm0 0"/></svg>