<svg xmlns="http://www.w3.org/2000/svg" width="11" height="11"><path style="stroke:none;fill-rule:nonzero;fill:#000;fill-opacity:1" d="M10.055 5.313 8.316 2.386c-.066-.13-.234-.188-.379-.188H6.38V.88A.437.437 0 0 0 5.94.44H4.84a.44.44 0 0 0-.442.438v1.32H3.09c-.145 0-.317.059-.387.188L.961 5.336a.508.508 0 0 0-.52.512v2.668c0 .293.235.504.52.504h.578v.832c0 .441.293.707.723.707h.261c.426 0 .778-.266.778-.707V9.02h4.398v.832c0 .441.38.707.809.707h.258c.43 0 .695-.266.695-.707V9.02h.605c.29 0 .493-.211.493-.504V5.848c0-.297-.22-.535-.504-.535zM1.87 7.449c-.36 0-.652-.3-.652-.668a.66.66 0 0 1 .652-.668.66.66 0 0 1 .652.668.662.662 0 0 1-.652.668zm.39-2.168L3.446 3.22c.067-.133.235-.14.38-.14h3.382c.14 0 .313.007.375.14L8.766 5.28zM9.157 7.45c-.36 0-.648-.3-.648-.668 0-.37.289-.668.648-.668a.66.66 0 0 1 .653.668.662.662 0 0 1-.653.668zm0 0"/></svg>