<svg xmlns="http://www.w3.org/2000/svg" width="11" height="11"><path d="M10.473 2.91a.417.417 0 0 0-.137-.23L6.988.07a.406.406 0 0 0-.457 0L3.184 2.68a.417.417 0 0 0-.137.23l-.184 1.305.711-.547c.39-.3.918-.3 1.309 0l1.304 1.008.458.344.62.48.298.23.664.528c.207.16.343.363.39.617H11Zm0 0" style="stroke:none;fill-rule:nonzero;fill:#000;fill-opacity:1"/><path d="M7.816 6.805 6.645 5.89l-.204-.16-.253-.184-1.72-1.332a.41.41 0 0 0-.23-.067c-.09 0-.16.024-.226.067L2.75 5.18.664 6.785c-.066.043-.113.137-.137.227L0 11h4.125V8.777c0-.047.023-.07.07-.07.02 0 .043.023.067.023L5.5 11h2.98l-.527-3.965a.417.417 0 0 0-.137-.23Zm0 0" style="stroke:none;fill-rule:nonzero;fill:#000;fill-opacity:1"/></svg>