<svg xmlns="http://www.w3.org/2000/svg" width="11" height="11"><path style="stroke:none;fill-rule:nonzero;fill:#000;fill-opacity:1" d="M1.832 10.082a.916.916 0 1 0 .004-1.832.916.916 0 0 0-.004 1.832zm0 .918A1.832 1.832 0 0 1 0 9.168a1.833 1.833 0 1 1 3.668 0c0 1.012-.82 1.832-1.836 1.832zm1.469-4.582c.504 0 .914-.41.914-.918a.916.916 0 1 0-1.832 0c0 .508.41.918.918.918zm0 .914A1.835 1.835 0 0 1 1.465 5.5c0-1.012.824-1.832 1.836-1.832a1.832 1.832 0 0 1 0 3.664zM9.168 2.75A.916.916 0 1 0 9.164.918a.916.916 0 0 0 .004 1.832zm0 .918A1.834 1.834 0 1 1 9.164 0a1.834 1.834 0 0 1 .004 3.668zM4.766 2.75A.917.917 0 1 0 4.768.916a.917.917 0 0 0-.002 1.834zm0 .918a1.833 1.833 0 0 1-1.832-1.836C2.934.82 3.754 0 4.766 0c1.011 0 1.836.82 1.836 1.832a1.836 1.836 0 0 1-1.836 1.836zm2.933 2.75a.917.917 0 1 0 .002-1.834.917.917 0 0 0-.002 1.834zm0 .914a1.832 1.832 0 0 1 0-3.664c1.012 0 1.836.82 1.836 1.832A1.835 1.835 0 0 1 7.7 7.332zm-1.465 2.75a.915.915 0 1 0-.002-1.83.915.915 0 0 0 .002 1.83zm0 .918a1.835 1.835 0 0 1-1.836-1.832 1.833 1.833 0 1 1 3.668 0c0 1.012-.82 1.832-1.832 1.832zm0 0"/></svg>