<svg xmlns="http://www.w3.org/2000/svg" width="11" height="11"><path style="stroke:none;fill-rule:nonzero;fill:#000;fill-opacity:1" d="M7.332 0c1.219 0 2.203 2.566 2.203 5.5S8.434 11 7.332 11c-1.098 0-2.2-2.566-2.2-5.5S6.235 0 7.333 0c1.102 0 0 0 0 0zm0 1.465c-.73 0-1.098 1.836-1.098 4.035 0 2.2.368 4.035 1.098 4.035.734 0 1.102-2.203 1.102-4.035 0-1.832-.368-4.035-1.102-4.035zm0 .183c.55 0 .918 2.02.918 3.852 0 1.832-.367 3.852-.918 3.852-.367 0-.547-.551-.547-.735.547-.918.547-2.75.547-3.117s0-2.2-.547-3.117c0-.184.18-.735.547-.735zM6.602 0H3.668C2.566 0 1.465 2.566 1.465 5.5S2.566 11 3.668 11h2.934C5.5 10.266 4.766 8.066 4.766 5.5S5.5.734 6.602 0zm0 0"/></svg>