<svg xmlns="http://www.w3.org/2000/svg" width="11" height="11"><path d="M10.266 2.2h-.73v.734h.362c.207 0 .368.16.368.367v.734c0 .203-.16.363-.368.363H8.434a.361.361 0 0 1-.368-.363v-.734c0-.207.16-.367.368-.367H8.8v-.735H6.6v.735h.364c.207 0 .367.16.367.367v.734c0 .203-.16.363-.367.363H5.5a.361.361 0 0 1-.367-.363v-.734c0-.207.16-.367.367-.367h.367v-.735H3.668v.735h.367c.203 0 .363.16.363.367v.734a.36.36 0 0 1-.363.363H2.566a.363.363 0 0 1-.367-.363v-.734c0-.207.164-.367.367-.367h.368v-.735h-.735a.739.739 0 0 0-.734.735v7.332H0V2.934c0-1.22.984-2.2 2.2-2.2h8.066a.733.733 0 1 1 0 1.465Zm0 0" style="stroke:none;fill-rule:nonzero;fill:#000;fill-opacity:1"/></svg>