<svg xmlns="http://www.w3.org/2000/svg" width="11" height="11"><path style="stroke:none;fill-rule:nonzero;fill:#000;fill-opacity:1" d="M7.805 3.309c-.055 0-.106-.04-.106-.09v-1.36c0-.054-.027-.097-.082-.097H3.383c-.055 0-.082.043-.082.097v1.36c0 .05-.059.082-.114.082H.32c-.054 0-.101.058-.101.11v1.51c0 .056.047.138.101.138h4.617c.055 0 .122-.082.122-.137v-.32c0-.055.023-.204.078-.204h.73c.055 0 .074.149.074.204v.32c0 .055.067.137.122.137h4.617c.054 0 .101-.082.101-.137V3.41c0-.05-.047-.11-.101-.11H7.813zM3.98 3.3c-.054 0-.02-.031-.02-.082v-.774c0-.054-.034-.023.02-.023h3.04c.054 0 .02-.031.02.023v.774c0 .05.034.082-.02.082zm1.973 3.234c0 .055-.031.067-.086.067h-.73c-.055 0-.078.023-.078-.032V5.484c0-.054-.067-.203-.122-.203H.32c-.054 0-.101.149-.101.203v3.22c0 .05.047.097.101.097h10.36c.054 0 .101-.047.101-.098V5.484c0-.054-.047-.203-.101-.203H6.063c-.055 0-.122.149-.122.203V6.57zm0 0"/></svg>