<svg xmlns="http://www.w3.org/2000/svg" width="11" height="11"><path style="stroke:none;fill-rule:nonzero;fill:#000;fill-opacity:1" d="M4.066 1.227c.188.23.325.48.414.75.09.273.118.816.118.816s-.07.543-.18.8c-.11.259-.266.493-.477.7-.132.137-.64.473-1.007.473v5.132c0 1.102-1.47 1.102-1.47 0V4.766c-.362 0-.651-.368-.78-.493a2.305 2.305 0 0 1-.508-.761A2.37 2.37 0 0 1 0 2.645c0-.293.05-.579.16-.86s.274-.535.496-.754c.211-.21.453-.375.73-.488.282-.113.571-.172.868-.176l-.938 2.04.66.948 1.141-.097zM11 .367H9.898c0 .367-.363.735-.73.735H7.332c-1.098 0-2.2 1.503-2.2 2.566.735-.695 1.016-.734 2.2-.734v6.964c0 1.102 1.469 1.102 1.469 0V2.934h.367c.367 0 .73.367.73.734H11v-3.3zm0 0"/></svg>