<svg xmlns="http://www.w3.org/2000/svg" width="11" height="11"><path d="M7.332 2.309V3.3c0 .367-.73.367-.73 0V2.199h-.735l.367 8.434c0 .367-1.468.367-1.468 0l.367-8.434h-.735v1.102c0 .367-.73.367-.73 0v-.992l-.734.257v1.47c0 .362-.735.362-.735 0V1.101c0-.368.735-.368.735 0v.73l.734-.254V.368c0-.368.73-.368.73 0v1.097h.735v-.73c0-.368.734-.368.734 0v.73h.735V.367c0-.367.73-.367.73 0v1.211l.734.254v-.73c0-.368.735-.368.735 0v2.933c0 .363-.735.363-.735 0V2.566Zm0 0" style="stroke:none;fill-rule:nonzero;fill:#000;fill-opacity:1"/></svg>