<svg xmlns="http://www.w3.org/2000/svg" width="11" height="11"><path style="stroke:none;fill-rule:nonzero;fill:#000;fill-opacity:1" d="M6.758 0c.926 0 1.676.758 1.676 1.691V9.31c0 .933-.75 1.691-1.676 1.691H4.242a1.684 1.684 0 0 1-1.676-1.691V1.69C2.566.758 3.316 0 4.242 0zM5.5 7.7c-.605 0-1.102.491-1.102 1.1a1.102 1.102 0 0 0 2.204 0A1.1 1.1 0 0 0 5.5 7.7zm0-3.302c-.605 0-1.102.497-1.102 1.102a1.103 1.103 0 0 0 2.204 0c0-.605-.493-1.102-1.102-1.102zm0-3.296c-.605 0-1.102.492-1.102 1.097a1.103 1.103 0 0 0 2.204 0A1.1 1.1 0 0 0 5.5 1.102zm0 0"/></svg>