<svg xmlns="http://www.w3.org/2000/svg" width="11" height="11"><path style="stroke:none;fill-rule:nonzero;fill:#000;fill-opacity:1" d="M4.035 9.535h2.93l-.363-.734h1.097L8.801 11H7.699l-.367-.734H3.668L3.301 11H2.199l1.102-2.2h1.097zm4.031-8.8h1.47c.402 0 .73.328.73.73v1.469c.406 0 .734.328.734.734v3.664a.734.734 0 0 1-.734.734v1.47h-.73v-1.47a.734.734 0 0 1-.735-.734V3.668c0-.406.328-.734.734-.734v-1.47H8.066a.734.734 0 0 1-.734.735H3.668a.734.734 0 0 1-.734-.734h-1.47v1.469c.407 0 .735.328.735.734v3.664a.734.734 0 0 1-.734.734v1.47h-.73v-1.47A.734.734 0 0 1 0 7.332V3.668c0-.406.328-.734.734-.734v-1.47c0-.401.329-.73.73-.73h1.47c0-.406.328-.734.734-.734h3.664c.406 0 .734.328.734.734zm-.734 2.199c.406 0 .734.328.734.734v3.664a.734.734 0 0 1-.734.734H3.668a.734.734 0 0 1-.734-.734V3.668c0-.406.328-.734.734-.734zm-.367.734h-2.93a.367.367 0 0 0-.367.367v1.098c0 .203.164.367.367.367h2.93a.367.367 0 0 0 .367-.367V4.035a.367.367 0 0 0-.367-.367zm-2.75 2.566a.55.55 0 1 0 .005 1.099.55.55 0 0 0-.005-1.099zm2.57 0a.55.55 0 1 0-.003 1.097.55.55 0 0 0 .003-1.097zm0 0"/></svg>