<svg xmlns="http://www.w3.org/2000/svg" width="11" height="11"><path style="stroke:none;fill-rule:nonzero;fill:#000;fill-opacity:1" d="M6.602.734v.73c.402 0 .73.333.73.735v.645a2.939 2.939 0 0 1 .75 3.691l.309.586a.73.73 0 0 1-.301.988c-.04.016-.074.04-.11.047l-2.48.828-2.48-.828a.736.736 0 0 1-.461-.926c.015-.035.03-.082.05-.109l.309-.586a2.939 2.939 0 0 1 .75-3.691v-.645c0-.402.328-.734.73-.734v-.73h-.363a.364.364 0 0 1-.367-.368c0-.207.16-.367.367-.367h2.93c.207 0 .367.16.367.367 0 .203-.16.367-.367.367zM4.246 9.117l-.21.418h2.929l-.211-.418.945-.316L8.801 11H7.699l-.367-.734H3.668L3.301 11H2.199l1.102-2.2zM5.5 7.332c1.219 0 2.2-.98 2.2-2.2 0-1.218-.981-2.198-2.2-2.198-1.219 0-2.2.98-2.2 2.199 0 1.219.981 2.199 2.2 2.199zm-.734-2.2a.364.364 0 0 1-.368-.366v-.73c0-.208.165-.368.368-.368.207 0 .367.16.367.367v.73c0 .208-.16.368-.367.368zm1.468 0a.362.362 0 0 1-.367-.366v-.73c0-.208.16-.368.367-.368.204 0 .368.16.368.367v.73a.364.364 0 0 1-.368.368zM5.5 6.966c-.46 0-.82-.277-1.086-.836-.008-.027-.016-.05-.016-.078 0-.102.082-.184.184-.184h1.836a.181.181 0 0 1 .16.262c-.258.559-.617.836-1.078.836zm0 0"/></svg>