<svg xmlns="http://www.w3.org/2000/svg" width="11" height="11"><path style="stroke:none;fill-rule:nonzero;fill:#000;fill-opacity:1" d="m4.242 9.113-.207.422h2.93l-.207-.422.941-.312L8.801 11H7.699l-.367-.734H3.668L3.301 11H2.199l1.102-2.2zM8.801 1.32v2.348l.52.516c.136.14.214.324.214.52v1.952c0 .301-.183.567-.457.68L5.5 8.8 1.922 7.336a.737.737 0 0 1-.457-.68V4.703c0-.195.078-.379.215-.52l.52-.515V1.32c0-.343.237-.64.573-.715L5.34.035a.738.738 0 0 1 .32 0l2.567.57a.731.731 0 0 1 .574.715zm-5.867.457v.79c0 .203.164.367.367.367h1.465a.367.367 0 0 0 .367-.368V1.531c0-.199-.164-.363-.367-.363-.02 0-.04 0-.059.004l-1.469.242a.369.369 0 0 0-.304.363zm2.933-.246v1.035c0 .204.164.368.367.368H7.7a.367.367 0 0 0 .367-.368v-.789a.369.369 0 0 0-.304-.363l-1.469-.242a.366.366 0 0 0-.422.3c-.004.02-.004.04-.004.06zM5.5 5.867A.734.734 0 1 0 5.502 4.4.734.734 0 0 0 5.5 5.867zm0 0"/></svg>