<svg xmlns="http://www.w3.org/2000/svg" width="11" height="11"><path style="stroke:none;fill-rule:nonzero;fill:#000;fill-opacity:1" d="m4.215 9.168-.18.367h2.93l-.18-.367h1.098L8.8 11H7.699l-.367-.734H3.668L3.301 11H2.199l.918-1.832zm5.32-6.969v5.133a1.47 1.47 0 0 1-1.469 1.469H2.934a1.47 1.47 0 0 1-1.47-1.469V2.199c0-.808.661-1.465 1.47-1.465h5.132c.809 0 1.47.657 1.47 1.465zM6.602 6.965a.733.733 0 1 0 1.465.003.733.733 0 0 0-1.465-.003zm-2.204 0a.732.732 0 1 0-1.463.003.732.732 0 0 0 1.463-.003zM2.195 2.57l.012 2.2c0 .199.164.363.367.363h2.2a.37.37 0 0 0 .367-.367l-.012-2.2a.37.37 0 0 0-.367-.367h-2.2a.367.367 0 0 0-.367.367v.004zm3.668 0 .012 2.2c0 .199.164.363.367.363h2.196a.367.367 0 0 0 .367-.367l-.012-2.2A.366.366 0 0 0 8.43 2.2h-2.2a.367.367 0 0 0-.367.367v.004zm0 0"/></svg>