<svg xmlns="http://www.w3.org/2000/svg" width="11" height="11"><path d="M6.602.734v.73c.402 0 .73.333.73.735v.645a2.939 2.939 0 0 1 .75 3.691l.309.586a.73.73 0 0 1-.301.988c-.04.016-.074.04-.11.047l-2.48.828-2.48-.828a.736.736 0 0 1-.461-.926c.015-.035.03-.082.05-.109l.309-.586a2.939 2.939 0 0 1 .75-3.691v-.645c0-.402.328-.734.73-.734v-.73h-.363a.364.364 0 0 1-.367-.368c0-.207.16-.367.367-.367h2.93c.207 0 .367.16.367.367 0 .203-.16.367-.367.367ZM4.246 9.117l-.21.418h2.929l-.211-.418.945-.316L8.801 11H7.699l-.367-.734H3.668L3.301 11H2.199l1.102-2.2ZM5.5 5.867a.739.739 0 0 0 .734-.734.739.739 0 0 0-.734-.735.739.739 0 0 0-.734.735c0 .402.332.734.734.734Zm0 0" style="stroke:none;fill-rule:nonzero;fill:#000;fill-opacity:1"/></svg>