<svg xmlns="http://www.w3.org/2000/svg" width="11" height="11"><path style="stroke:none;fill-rule:nonzero;fill:#000;fill-opacity:1" d="M6.602.734v.73c.402 0 .73.333.73.735v.645a2.927 2.927 0 0 1 .746 3.687l.313.586a.735.735 0 0 1-.414 1.04L5.5 8.983l-2.477-.828a.735.735 0 0 1-.414-1.039l.313-.586a2.927 2.927 0 0 1 .746-3.688V2.2c0-.402.328-.734.73-.734v-.73h-.363a.367.367 0 1 1 0-.735h2.93a.367.367 0 1 1 0 .734zm-2.36 8.38-.207.421h2.93l-.207-.422.941-.312L8.801 11H7.699l-.367-.734H3.668L3.301 11H2.199l1.102-2.2zM5.5 5.866A.734.734 0 1 0 5.502 4.4.734.734 0 0 0 5.5 5.867zm0 0"/></svg>