<svg xmlns="http://www.w3.org/2000/svg" width="11" height="11"><path style="stroke:none;fill-rule:nonzero;fill:#000;fill-opacity:1" d="m4.215 9.168-.18.367h2.93l-.18-.367h1.098L8.8 11H7.699l-.367-.734H3.668L3.301 11H2.199l.918-1.832zm4.633-2.969C7.645 7.934 6.53 8.801 5.5 8.801c-1.031 0-2.145-.867-3.348-2.602a2.2 2.2 0 0 1-.246-2.047c.196-.504.293-.91.293-1.218C2.2 2.199 3.191 0 5.5 0c2.66 0 3.3 2.2 3.3 2.934 0 .308.098.714.294 1.218A2.2 2.2 0 0 1 8.848 6.2zM3.695 2.023l.582 1.414c.055.141.192.231.34.231h1.766c.148 0 .285-.09.34-.23l.582-1.415a.36.36 0 0 0-.051-.363C6.777 1.043 6.19.734 5.5.734c-.691 0-1.277.309-1.754.926a.36.36 0 0 0-.05.363zM5.5 8.066A.734.734 0 1 0 5.502 6.6.734.734 0 0 0 5.5 8.066zm0 0"/></svg>