<svg xmlns="http://www.w3.org/2000/svg" width="11" height="11"><path style="stroke:none;fill-rule:nonzero;fill:#000;fill-opacity:1" d="m4.215 9.168-.18.367h2.93l-.18-.367h1.098L8.8 11H7.699l-.367-.734H3.668L3.301 11H2.199l.918-1.832zm4.637-2.973C7.648 7.934 6.527 8.801 5.5 8.801c-1.027 0-2.148-.867-3.352-2.606a2.21 2.21 0 0 1-.242-2.043c.2-.507.293-.91.293-1.218C2.2 2.199 3.191 0 5.5 0c2.66 0 3.3 2.2 3.3 2.934 0 .308.095.71.294 1.218a2.21 2.21 0 0 1-.242 2.043zM3.695 2.023l.578 1.414c.063.141.192.231.34.231h1.774c.148 0 .277-.09.34-.23l.578-1.415a.376.376 0 0 0-.051-.367C6.777 1.043 6.188.734 5.5.734s-1.277.309-1.754.922a.376.376 0 0 0-.05.367zM5.5 8.066a.736.736 0 0 0 .734-.734.735.735 0 0 0-1.468 0c0 .406.332.734.734.734zm0 0"/></svg>