<svg xmlns="http://www.w3.org/2000/svg" width="11" height="11"><path style="stroke:none;fill-rule:nonzero;fill:#000;fill-opacity:1" d="m4.246 9.117-.21.418h2.929l-.211-.418.945-.316L8.801 11H7.699l-.367-.734H3.668L3.301 11H2.199l1.102-2.2zM8.801 1.32v2.348l.52.52a.742.742 0 0 1 .214.511V6.66a.73.73 0 0 1-.457.672L5.5 8.801 1.922 7.332a.73.73 0 0 1-.457-.672V4.7c0-.188.082-.38.215-.513l.52-.519V1.32c0-.343.241-.636.573-.71L5.34.034c.11-.02.21-.02.32 0L8.227.61a.731.731 0 0 1 .574.711zm-5.867.453v.793c0 .207.16.368.367.368h1.465c.207 0 .367-.16.367-.368V1.531a.364.364 0 0 0-.367-.367c-.02 0-.043 0-.059.008l-1.465.242a.371.371 0 0 0-.308.36zm2.933-.242v1.035c0 .207.16.368.367.368H7.7c.207 0 .367-.16.367-.368v-.793a.371.371 0 0 0-.308-.359l-1.465-.242a.361.361 0 0 0-.418.3c-.008.024-.008.04-.008.06zM5.5 5.867a.739.739 0 0 0 .734-.734.739.739 0 0 0-.734-.735.739.739 0 0 0-.734.735c0 .402.332.734.734.734zm0 0"/></svg>