<svg xmlns="http://www.w3.org/2000/svg" width="11" height="11"><path style="stroke:none;fill-rule:nonzero;fill:#000;fill-opacity:1" d="M5.867.734v.73h1.098l1.039 1.04c.273.273.43.648.43 1.035v4.527a1.47 1.47 0 0 1-1.47 1.47H4.036a1.47 1.47 0 0 1-1.469-1.47V3.54c0-.387.157-.762.43-1.035l1.04-1.04h1.097v-.73H4.035a.367.367 0 1 1 0-.734h2.93a.367.367 0 1 1 0 .734zM4.582 9.898 4.035 11H2.934l.55-1.102zm2.934 0L8.066 11H6.965l-.547-1.102zM6.234 8.801h.73a.734.734 0 0 0 .735-.735v-.734c-.808 0-1.465.656-1.465 1.469zm-1.468 0c0-.813-.657-1.469-1.465-1.469v.734c0 .407.328.735.734.735zM3.3 4.035v2.2c0 .202.164.367.367.367h3.664a.367.367 0 0 0 .367-.368V4.035a.367.367 0 0 0-.367-.367H3.668a.367.367 0 0 0-.367.367zm.734-1.469c0 .204.164.368.363.368h2.204c.199 0 .363-.164.363-.368a.366.366 0 0 0-.363-.367H4.398c-.199 0-.363.164-.363.367zm0 0"/></svg>