<svg xmlns="http://www.w3.org/2000/svg" width="11" height="11"><path d="M5.867.734v.73h1.098L8 2.5c.281.281.434.652.434 1.043v4.523c0 .809-.66 1.47-1.47 1.47H4.036c-.808 0-1.469-.661-1.469-1.47V3.543c0-.39.153-.762.434-1.043l1.035-1.035h1.098v-.73H4.035a.364.364 0 0 1-.367-.368c0-.207.16-.367.367-.367h2.93c.207 0 .367.16.367.367 0 .203-.16.367-.367.367ZM4.582 9.898 4.035 11H2.934l.55-1.102Zm2.934 0L8.066 11H6.965l-.547-1.102ZM6.234 8.801h.73a.736.736 0 0 0 .735-.735v-.734c-.804 0-1.465.66-1.465 1.469Zm-1.468 0c0-.809-.66-1.469-1.465-1.469v.734c0 .403.328.735.734.735ZM3.3 4.035v2.2c0 .202.16.367.367.367h3.664a.364.364 0 0 0 .367-.368V4.035a.362.362 0 0 0-.367-.367H3.668a.362.362 0 0 0-.367.367Zm.734-1.469c0 .207.16.368.363.368h2.204c.203 0 .363-.16.363-.368a.363.363 0 0 0-.363-.367H4.398a.363.363 0 0 0-.363.367Zm0 0" style="stroke:none;fill-rule:nonzero;fill:#000;fill-opacity:1"/></svg>