<svg xmlns="http://www.w3.org/2000/svg" width="11" height="11"><path style="stroke:none;fill-rule:nonzero;fill:#000;fill-opacity:1" d="M10.266 5.867V5.31l-.454-.91H1.188l-.454.91v.558h1.098V4.398h.734v1.47h1.102v-1.47h.73v2.934h2.204V4.398h.73v1.47h1.102v-1.47h.734v1.47zm0 2.2h-.368a.735.735 0 0 1-.73.734.736.736 0 0 1-.734-.735h-.368a.736.736 0 0 1-.734.735.735.735 0 0 1-.73-.735H4.398a.735.735 0 0 1-.73.735.736.736 0 0 1-.734-.735h-.368a.736.736 0 0 1-.734.735.735.735 0 0 1-.73-.735H.734A.734.734 0 0 1 0 7.332V5.309c0-.118.031-.227.082-.329l.445-.91a.735.735 0 0 1 .66-.402h4.106l-1.238-1.41a.458.458 0 0 1 .043-.645l.023-.023a.392.392 0 0 1 .277-.125h2.204c.203 0 .363.164.363.367 0 .207-.16.367-.363.367H5.23l1.29 1.469h3.293c.277 0 .535.152.66.402l.445.91c.05.102.082.211.082.329v2.023a.734.734 0 0 1-.734.734zM5.133 4.397h.734v2.934h-.734zm0 0"/></svg>