<svg xmlns="http://www.w3.org/2000/svg" width="11" height="11"><path style="stroke:none;fill-rule:nonzero;fill:#000;fill-opacity:1" d="M10.266 5.867v-.562l-.454-.907H1.188l-.454.907v.562h1.098V4.398h.734v1.47h1.102v-1.47h.73v2.934h2.204V4.398h.73v1.47h1.102v-1.47h.734v1.47zm0 2.2h-.368a.733.733 0 1 1-1.464 0h-.368a.734.734 0 1 1-1.464 0H4.398a.733.733 0 1 1-1.464 0h-.368a.734.734 0 1 1-1.464 0H.734A.734.734 0 0 1 0 7.331V5.305a.75.75 0 0 1 .078-.328l.453-.907a.737.737 0 0 1 .656-.402h4.11L4.055 2.262a.462.462 0 0 1 .043-.649c.007-.008.015-.015.027-.02a.359.359 0 0 1 .273-.128h2.204c.199 0 .363.164.363.367a.366.366 0 0 1-.363.367H5.227L6.52 3.668h3.293c.277 0 .53.156.656.402l.453.907a.75.75 0 0 1 .078.328v2.027a.734.734 0 0 1-.734.734zM5.133 4.397h.734v2.934h-.734zm0 0"/></svg>