<svg xmlns="http://www.w3.org/2000/svg" width="11" height="11"><path style="stroke:none;fill-rule:nonzero;fill:#000;fill-opacity:1" d="M9.535 2.2v5.866c0 .809-.66 1.47-1.469 1.47H2.934c-.809 0-1.47-.661-1.47-1.47V2.2c0-.808.661-1.465 1.47-1.465h5.132c.809 0 1.47.657 1.47 1.465zM6.602 7.7a.733.733 0 1 0 1.464 0 .736.736 0 0 0-.734-.735.735.735 0 0 0-.73.734zm-2.204 0a.735.735 0 0 0-.73-.735.734.734 0 1 0 .73.734zM2.195 3.3l.012 2.2c0 .203.164.367.367.367h2.2A.37.37 0 0 0 5.14 5.5l-.012-2.203a.368.368 0 0 0-.367-.363h-2.2a.367.367 0 0 0-.367.367zm3.668 0 .012 2.2c0 .203.164.367.367.367h2.196a.367.367 0 0 0 .367-.367l-.012-2.203c0-.2-.164-.363-.363-.363h-2.2a.367.367 0 0 0-.367.367zm-2.93-1.468c0 .203.165.367.368.367h4.398a.367.367 0 1 0 0-.734H3.301a.367.367 0 0 0-.367.367zm0 0"/></svg>