<svg xmlns="http://www.w3.org/2000/svg" width="11" height="11"><path style="stroke:none;fill-rule:nonzero;fill:#000;fill-opacity:1" d="M9.535 2.2v5.866c0 .809-.66 1.47-1.469 1.47H2.934c-.809 0-1.47-.661-1.47-1.47V2.2c0-.804.661-1.465 1.47-1.465h5.132c.809 0 1.47.66 1.47 1.465zM6.602 7.7c0 .402.328.734.73.734a.736.736 0 0 0 .734-.735.736.736 0 0 0-.734-.734.735.735 0 0 0-.73.734zm-2.204 0a.735.735 0 0 0-.73-.735.736.736 0 0 0-.734.734c0 .403.328.735.734.735.402 0 .73-.332.73-.735zM2.2 3.3l.008 2.2c0 .207.168.367.367.367h2.2c.199 0 .367-.16.367-.367l-.016-2.2a.362.362 0 0 0-.367-.366H2.566A.364.364 0 0 0 2.2 3.3zm3.668 0 .008 2.2c0 .207.168.367.367.367h2.2a.37.37 0 0 0 .367-.367l-.016-2.2a.362.362 0 0 0-.367-.366H6.234a.362.362 0 0 0-.367.367zM2.934 1.833c0 .207.16.367.367.367h4.398c.207 0 .367-.16.367-.367a.364.364 0 0 0-.367-.367H3.301a.364.364 0 0 0-.367.367zm0 0"/></svg>