<svg xmlns="http://www.w3.org/2000/svg" width="11" height="11"><path d="M8.8 8.023v2.243h-.734V8.03a1.728 1.728 0 0 1-1.105-.765 1.74 1.74 0 0 1-1.094.757v2.243h-.734V8.03a1.728 1.728 0 0 1-1.106-.765 1.74 1.74 0 0 1-1.093.757v2.243h-.735V8.03A1.743 1.743 0 0 1 .844 6.043C1.445 2.5 2.03.734 2.609.734c.485 0 .97 1.274 1.438 3.836C4.555 2.008 5.05.734 5.543.734c.484 0 .969 1.274 1.437 3.836C7.488 2.008 7.984.734 8.477.734c.574 0 1.136 1.766 1.687 5.301.14.926-.46 1.797-1.363 1.988Zm0 0" style="stroke:none;fill-rule:nonzero;fill:#000;fill-opacity:1"/></svg>