<svg xmlns="http://www.w3.org/2000/svg" width="11" height="11"><path d="M4.766 10.633V8.066c0-.734 0-.918-.73-1.28-.552-.259-2.934-.919-2.934-.919L.734 4.766 4.84 5.867V4.95c0-.55-.074-.55-.442-.734C4.035 4.035 2.2 3.117 2.2 3.117L2.016 2.2l2.933 1.102.11-2.383.625-.734.183 1.28.184 1.837 2.933-1.102-.183.918s-1.836.918-2.2 1.098c-.367.183-.44.183-.44.734v.918l4.105-1.101-.368 1.101s-2.75.66-3.113.918c-.55.363-.55.547-.55 1.281v2.567c0 .367-1.47.367-1.47 0Zm0 0" style="stroke:none;fill-rule:nonzero;fill:#000;fill-opacity:1"/></svg>