<svg xmlns="http://www.w3.org/2000/svg" width="11" height="11"><path style="stroke:none;fill-rule:nonzero;fill:#000;fill-opacity:1" d="M8.8 8.027v2.239h-.734V8.03a1.743 1.743 0 0 1-1.101-.761 1.763 1.763 0 0 1-1.098.757v2.239h-.734V8.03A1.743 1.743 0 0 1 4.03 7.27a1.763 1.763 0 0 1-1.097.757v2.239h-.735V8.03A1.739 1.739 0 0 1 .82 6.332c0-.098.008-.195.028-.289C1.445 2.503 2.03.734 2.609.734c.489 0 .97 1.278 1.438 3.836C4.555 2.012 5.05.734 5.543.734c.488 0 .969 1.278 1.437 3.836C7.488 2.012 7.984.734 8.477.734 9.05.734 9.613 2.5 10.16 6.04A1.759 1.759 0 0 1 8.8 8.027zm0 0"/></svg>