<svg xmlns="http://www.w3.org/2000/svg" width="11" height="11"><path style="stroke:none;fill-rule:nonzero;fill:#000;fill-opacity:1" d="M5.867.734v.73h2.2c.808 0 1.468.661 1.468 1.47V8.8c0 .734-.734.734-.734.734v.73s0 .735-.735.735c-.734 0-.734-.734-.734-.734v-.73H3.668v.73s0 .734-.734.734c-.735 0-.735-.734-.735-.734v-.73c-.734 0-.734-.735-.734-.735V2.934c0-.809.66-1.47 1.469-1.47h2.199v-.73H3.3a.364.364 0 0 1-.367-.367C2.934.16 3.094 0 3.3 0h4.398c.207 0 .367.16.367.367 0 .203-.16.367-.367.367zm-3.3 2.934a.364.364 0 0 0-.368.367v2.2c0 .202.164.367.367.367h5.868a.367.367 0 0 0 .367-.368V4.035a.364.364 0 0 0-.367-.367zm.367 3.664a.739.739 0 0 0-.735.734c0 .403.332.735.735.735a.739.739 0 0 0 .734-.735.739.739 0 0 0-.734-.734zm5.132 0a.739.739 0 0 0-.734.734c0 .403.332.735.734.735a.739.739 0 0 0 .735-.735.739.739 0 0 0-.735-.734zM2.934 2.566c0 .207.16.368.367.368h4.398c.207 0 .367-.16.367-.368A.364.364 0 0 0 7.7 2.2H3.301a.364.364 0 0 0-.367.367zm0 0"/></svg>