<svg xmlns="http://www.w3.org/2000/svg" width="11" height="11"><path style="stroke:none;fill-rule:nonzero;fill:#000;fill-opacity:1" d="M2.566.734a1.1 1.1 0 0 1 1.102 1.098v8.434H1.465V1.832c0-.605.496-1.098 1.101-1.098zm0 0"/><path style="stroke:none;fill-rule:nonzero;fill:#000;fill-opacity:1" d="M3.668 3.043a.476.476 0 1 1 0-.953h5.5c.262 0 .477.215.477.476a.478.478 0 0 1-.477.477zm0 0"/><path style="stroke:none;fill-rule:nonzero;fill:#000;fill-opacity:1" d="M5.957 7.191a.482.482 0 0 1-.316.598.476.476 0 0 1-.598-.316L3.645 2.918a.479.479 0 0 1 .312-.598.482.482 0 0 1 .598.317zm0 0"/><path style="stroke:none;fill-rule:nonzero;fill:#000;fill-opacity:1" d="M8.348 5.113c.21.157.257.453.105.668a.483.483 0 0 1-.668.106L3.93 3.082a.475.475 0 0 1-.102-.664.471.471 0 0 1 .664-.106zm0 0"/></svg>