<svg xmlns="http://www.w3.org/2000/svg" width="11" height="11"><path style="stroke:none;fill-rule:nonzero;fill:#000;fill-opacity:1" d="M9.898.734c.368 0 .368.293.368.293s0 .293-.368.293h-.73C8.066 3.227 8.066 3.227 7.395 4.46c.304.306-.063 1.407-.43 2.142C6.449 7.637 5.867 8.434 5.41 8.32c.457.114.457.48.457.848 0 .367 0 1.098-.367 1.098h-.148c-.008.16-.22.367-.586.367-.368 0-.586-.207-.586-.367H2.566c-.046.289-.32.367-.55.367-.204 0-.493-.094-.551-.367h-.363c-.735 0-.735-.73-.368-1.098.368-.367.743-.367 1.465-.367.367 0 .735-.735 1.836-.735h.363c-.363-.367.145-1.382.735-2.566.367-.734.734-1.46 1.8-1.285C8.802.742 8.802.735 9.169.735zm0 0"/></svg>