<svg xmlns="http://www.w3.org/2000/svg" width="11" height="11"><path style="stroke:none;fill-rule:nonzero;fill:#000;fill-opacity:1" d="M2.934 4.398v5.868H0V2.199C0 1.395.66.734 1.465.734c.808 0 1.469.66 1.469 1.465v.735h.921a3.292 3.292 0 0 1 3.11-2.2c1.828 0 3.3 1.473 3.3 3.301v2.93H8.802v-2.93A1.834 1.834 0 0 0 5.5 2.934h.367c1.219 0 2.2.98 2.2 2.199v2.933c0 1.22-.981 2.2-2.2 2.2-1.219 0-2.199-.98-2.199-2.2V4.398zM8.8 7.332h1.465v1.469l.734.734v.73H8.066v-.73l.735-.734zm-3.668.734c0 .403.332.735.734.735a.739.739 0 0 0 .735-.735V5.133a.739.739 0 0 0-.735-.735h-.734zm0 0"/></svg>