<svg xmlns="http://www.w3.org/2000/svg" width="11" height="11"><path style="stroke:none;fill-rule:nonzero;fill:#000;fill-opacity:1" d="M2.2 10.266H1.101A1.1 1.1 0 0 1 0 9.168V4.91l1.617-3.793A.633.633 0 0 1 2.2.734c.254 0 .485.153.586.383l2.348 5.485.367 1.097c.594.469.715.832.367 1.102-.347.265-1.57.754-3.668 1.465zm4.402 0 .73-.73c.945-.946.371-1.673-1.719-2.177l.254-.757 2.348-5.485A.643.643 0 0 1 8.8.734c.254 0 .484.153.582.383L11 4.914v4.254a1.1 1.1 0 0 1-1.102 1.098zM2.199 1.648.734 5.133 2.2 4.398l.735 1.47.734-.735zm6.602 0L7.332 5.133l1.469-.735.734 1.47.73-.735zm0 0"/></svg>