<svg xmlns="http://www.w3.org/2000/svg" width="11" height="11"><path style="stroke:none;fill-rule:nonzero;fill:#000;fill-opacity:1" d="M2.2 10.266H1.101A1.1 1.1 0 0 1 0 9.168V4.914l1.613-3.793a.636.636 0 0 1 1.172 0l2.348 5.48L5.5 7.7c.594.469.719.836.367 1.102-.351.261-1.57.754-3.668 1.465zm4.402 0 .73-.73c.95-.95.375-1.673-1.723-2.173l.258-.761 2.348-5.48a.636.636 0 0 1 1.172 0L11 4.913v4.254a1.1 1.1 0 0 1-1.102 1.098zM2.199 1.648.734 5.133 2.2 4.398l.735 1.47.734-.735zm6.602 0L7.332 5.133l1.469-.735.734 1.47.73-.735zm0 0"/></svg>