<svg xmlns="http://www.w3.org/2000/svg" width="11" height="11"><path style="stroke:none;fill-rule:nonzero;fill:#000;fill-opacity:1" d="M8.8 6.695c-.44-.41-.702-.55-1.1-.55-.485 0-.77.214-1.423.867-.449.445-.652.601-.777.601s-.328-.156-.777-.601c-.653-.653-.938-.867-1.422-.867-.399 0-.66.14-1.102.55v-.093c0-1.961 2.2-1.47 2.2-2.934 0-.977-.489-1.469-1.465-1.469v-.734h5.132v.734c-.976 0-1.464.492-1.464 1.469 0 1.465 2.199.973 2.199 2.934v.093zM8.575 7.75c-.316.75-.976 1.344-1.972 1.785H4.398C3.402 9.094 2.742 8.5 2.426 7.75c.031-.027.058-.059.097-.094.446-.449.653-.593.778-.593s.328.144.777.593c.652.653.938.871 1.422.871s.77-.218 1.422-.87c.45-.45.652-.595.777-.595s.332.145.778.594c.039.035.066.067.097.094zm0 0"/></svg>