<svg xmlns="http://www.w3.org/2000/svg" width="11" height="11"><path style="stroke:none;fill-rule:nonzero;fill:#000;fill-opacity:1" d="M8.066 0c.735 0 .735 0 .735.734v9.532c0 .734 0 .734-.735.734H2.934c-.735 0-.735 0-.735-.734V.734C2.2 0 2.2 0 2.934 0zM4.582 5.867h-.547c-.367 0-.367.367-.367.367v3.664c0 .368.367.368.367.368h2.93s.367 0 .367-.368V6.234c0-.367-.367-.367-.367-.367h-.547l-.184.723c0 .183-1.468.183-1.468 0l-.184-.723zM7.699.734H3.301s-.367 0-.367.368v2.933s0 .363.367.363h4.398s.367 0 .367-.363V1.102C8.066.734 7.7.734 7.7.734zm0 0"/><path style="stroke:none;fill-rule:nonzero;fill:#000;fill-opacity:1" d="M6.418 3.668c.082 0 .184.102.184.184 0 .078-.102.183-.184.183H4.215c-.078 0-.18-.105-.18-.183 0-.082.102-.184.18-.184zm.547-1.652c.183 0 .297.093.297.257 0 .16-.114.293-.297.293h-.442c.079-.183.079-.55.079-.55zm-.363-.914H4.035v1.097c0 .735.547 1.285 1.281 1.285.368 0 .918-.183 1.102-.55h.547c.367 0 .55-.336.55-.66 0-.325-.183-.626-.55-.626h-.363zM4.766 8.434c0 .183 1.468.183 1.468 0l-.222 1.464c0 .368-1.063.368-1.063 0l-.183-1.464zm.875 0c.398-.133.53-.266.53-.536 0-.132-.132-.265-.398-.398-.265-.133-.402-.266-.402-.535-.133.27 0 .668.27.8.664.27 0 .669 0 .669zm-.551 0c.21-.059.34-.059.336-.266 0-.117-.074-.176-.192-.27-.12-.093-.246-.125-.277-.398-.133.133-.043.398.133.535.36.176 0 .399 0 .399zm0 0"/></svg>