<svg xmlns="http://www.w3.org/2000/svg" width="11" height="11"><path style="stroke:none;fill-rule:nonzero;fill:#000;fill-opacity:1" d="M8.066 0c.735 0 .735 0 .735.734v9.532c0 .734 0 .734-.735.734H2.934c-.735 0-.735 0-.735-.734V.734C2.2 0 2.2 0 2.934 0zM4.582 5.867h-.547c-.367 0-.367.367-.367.367v3.664c0 .368.367.368.367.368h2.93s.367 0 .367-.368V6.234c0-.367-.367-.367-.367-.367h-.547l-.184.723c0 .183-1.468.183-1.468 0l-.184-.723zM7.699.734H3.301s-.367 0-.367.368v2.933s0 .363.367.363h4.398s.367 0 .367-.363V1.102C8.066.734 7.7.734 7.7.734zm0 0"/><path style="stroke:none;fill-rule:nonzero;fill:#000;fill-opacity:1" d="M4.766 8.066c0 .184 1.468.184 1.468 0l-.183 1.832c0 .368-1.102.368-1.102 0l-.183-1.832zm.918-1.093a.092.092 0 0 1 .097.086l.008.09a.092.092 0 1 1-.184.011l-.007-.09a.092.092 0 0 1 .086-.097zm.027.363c.05 0 .094.035.098.086l.007.094a.094.094 0 0 1-.086.097.092.092 0 0 1-.097-.086l-.008-.09a.095.095 0 0 1 .086-.101zm.027.367a.092.092 0 0 0-.086.098c.008.074.008.074.008.094.004.05.047.085.098.082a.092.092 0 0 0 .086-.098c0-.016 0-.016-.008-.09a.092.092 0 0 0-.098-.086zm-.422-.73c.051.004.09.047.086.097l-.007.09a.092.092 0 1 1-.184-.012l.008-.09a.092.092 0 0 1 .097-.085zm-.027.363c.05.004.09.05.086.101l-.008.09a.092.092 0 0 1-.097.086.094.094 0 0 1-.086-.097l.007-.094c.004-.05.047-.086.098-.086zm-.027.367a.092.092 0 0 0-.098.086c-.008.074-.008.074-.008.09a.092.092 0 0 0 .086.098.089.089 0 0 0 .098-.082c0-.02 0-.02.008-.094a.092.092 0 0 0-.086-.098zM6.418 1.832l-.367 2.203H4.949l-.367-2.203h1.285l.367-.914c.036-.094.204-.07.184 0l-.367.914h.367zm0 0"/></svg>