<svg xmlns="http://www.w3.org/2000/svg" width="11" height="11"><path style="stroke:none;fill-rule:nonzero;fill:#000;fill-opacity:1" d="M8.066 0c.735 0 .735 0 .735.734v9.532c0 .734 0 .734-.735.734H2.934c-.735 0-.735 0-.735-.734V.734C2.2 0 2.2 0 2.934 0zM3.301 5.867s-.367 0-.367.367v3.664c0 .368.367.368.367.368h4.398s.367 0 .367-.368V6.234c0-.367-.367-.367-.367-.367H3.301zM7.699.734H3.301s-.367 0-.367.368v2.933s0 .363.367.363h4.398s.367 0 .367-.363V1.102C8.066.734 7.7.734 7.7.734zm0 0"/><path style="stroke:none;fill-rule:nonzero;fill:#000;fill-opacity:1" d="M5.5 1.465c1.227 0 2.2.367 2.2 1.101 0 .735-.973 1.102-2.2 1.102-1.227 0-2.2-.367-2.2-1.102 0-.734.973-1.101 2.2-1.101zm-.176 1.738c-.05 0-.094.04-.094.09-.007.05.036.094.086.094.059 0 .118.008.184.008.05 0 .094-.043.094-.094 0-.051-.043-.09-.094-.09-.059 0-.117-.008-.176-.008zm.66-.02c-.058.008-.117.016-.175.016a.1.1 0 0 0-.09.094c0 .05.047.094.097.086.067 0 .125-.004.192-.012a.09.09 0 0 0 .078-.105c-.008-.051-.05-.086-.102-.078zm-1.195-.03c-.05-.016-.101.023-.11.074-.007.05.02.093.075.101.062.016.121.024.187.031.047.008.098-.03.106-.082 0-.05-.031-.093-.082-.101a5.055 5.055 0 0 1-.176-.024zm1.758-.079c-.059.012-.11.028-.168.043a.095.095 0 0 0-.07.11c.011.05.058.082.109.074.066-.016.125-.031.184-.051.05-.016.07-.066.058-.113-.008-.051-.058-.078-.113-.063zM4.27 3.016c-.047-.024-.098 0-.118.05-.015.043.004.102.051.118.059.02.117.043.184.058a.085.085 0 0 0 .11-.058c.015-.051-.009-.098-.06-.118a1.71 1.71 0 0 1-.167-.05zm2.851-.192-.066.02c-.043.031-.09.058-.149.09a.094.094 0 0 0-.035.125.094.094 0 0 0 .125.035c.059-.035.117-.067.168-.102.04-.031.05-.09.016-.133zM3.77 2.707l-.067.012a.099.099 0 0 0-.015.133c.046.05.097.097.156.14a.087.087 0 0 0 .125-.023c.027-.035.02-.094-.016-.125a.696.696 0 0 1-.125-.11zm3.562-.36h-.07c-.047.02-.067.079-.047.126.031.101.023.117.023.125-.008.05.024.101.074.109.051.008.102-.031.11-.074 0-.024.008-.043.008-.074a.783.783 0 0 0-.047-.168zm-3.52-.156-.066.032a.51.51 0 0 0-.129.168c-.023.05 0 .101.043.125.043.023.102 0 .125-.043a.26.26 0 0 1 .086-.118c.04-.039.04-.097.008-.132zm3.008-.203-.05.051a.092.092 0 0 0 .05.117c.051.028.102.051.153.082a.09.09 0 0 0 .125-.031.094.094 0 0 0-.035-.125 1.162 1.162 0 0 0-.168-.094zm-2.53-.066c-.067.02-.126.043-.185.066a.095.095 0 0 0-.043.125c.024.043.075.067.125.043.043-.023.102-.043.16-.066.048-.016.075-.067.06-.11a.093.093 0 0 0-.118-.058zm2.054-.102c-.051-.008-.102.02-.11.07-.007.051.02.098.075.114.058.004.117.02.168.035.05.016.101-.016.117-.066.008-.043-.024-.094-.067-.11a3.117 3.117 0 0 0-.183-.043zm-1.461-.039c-.067.008-.13.024-.192.032-.05.011-.078.058-.07.109.012.05.059.082.11.074.058-.016.117-.023.175-.031a.095.095 0 0 0 .082-.102c-.008-.05-.058-.09-.105-.082zm.894-.027c-.043-.008-.086.035-.093.078 0 .05.035.098.086.105.058 0 .117.004.18.012.05 0 .093-.035.1-.086.009-.043-.03-.097-.081-.097-.059-.004-.125-.012-.192-.012zm-.379-.008c-.058 0-.125 0-.183.008-.05 0-.09.043-.09.094.008.05.05.09.098.09.058-.008.125-.008.183-.008.051 0 .086-.047.086-.098 0-.05-.043-.086-.094-.086zM5.5 6.234c1.043 0 1.832.856 1.832 1.832 0 .977-.789 1.832-1.832 1.832-1.043 0-1.832-.789-1.832-1.832 0-1.043.789-1.832 1.832-1.832zm-.367 2.258-.703.492s.336.493 1.07.493 1.07-.493 1.07-.493l-.703-.492a.647.647 0 0 1-.734 0zm.125-1.832c-.617.125-1.164.73-1.164 1.406 0 .383.11.536.11.536l.745-.477s-.058-.367.309-.55V6.66zm.484 0v.914c.367.184.309.551.309.551l.746.477s.11-.168.11-.536c0-.675-.548-1.28-1.165-1.406zm0 0"/></svg>