<svg xmlns="http://www.w3.org/2000/svg" width="11" height="11"><path style="stroke:none;fill-rule:nonzero;fill:#000;fill-opacity:1" d="M8.8 0c.735 0 .735 0 .735.734v9.532c0 .734 0 .734-.734.734H2.199c-.734 0-.734 0-.734-.734V.734c0-.734 0-.734.734-.734zM7.333 8.8H2.934v.735h4.398zm1.469-2.198h-.735v.546h.735zM7.332 1.465H2.934v5.867h4.398zM8.801 5.5h-.735v.55h.735zm0-1.102h-.735v.551h.735zm0-1.097h-.735v.55h.735zm0 0"/><path style="stroke:none;fill-rule:nonzero;fill:#000;fill-opacity:1" d="M5.133 1.832c.918 0 1.652.734 1.652 1.652 0 .914-.55 1.465-1.285 1.649v.734h.734c.184 0 .184.551 0 .551H5.5v.547c0 .183-.734.183-.734 0v-.547h-.73c-.184 0-.184-.55 0-.55h.73v-.735c-.73-.184-1.282-.918-1.282-1.649 0-.918.73-1.652 1.649-1.652zm0 .55c-.551 0-1.098.552-1.098 1.102 0 .551.547 1.098 1.098 1.098.55 0 1.101-.547 1.101-1.098 0-.55-.55-1.101-1.101-1.101zm0 0"/></svg>