<svg xmlns="http://www.w3.org/2000/svg" width="11" height="11"><path style="stroke:none;fill-rule:nonzero;fill:#000;fill-opacity:1" d="M8.8 0c.735 0 .735 0 .735.734v9.532c0 .734 0 .734-.734.734H2.199c-.734 0-.734 0-.734-.734V.734c0-.734 0-.734.734-.734zM7.333 8.8H2.934v.735h4.398zm1.469-2.198h-.735v.546h.735zM7.332 1.465H2.934v5.867h4.398zM8.801 5.5h-.735v.55h.735zm0-1.102h-.735v.551h.735zm0-1.097h-.735v.55h.735zm0 0"/><path style="stroke:none;fill-rule:nonzero;fill:#000;fill-opacity:1" d="m3.668 5.5.262-.367s.836-.184.105-.184l.235-.367s.863-.184.128-.184l.235-.363s.867-.183.133-.183l.242-.368s.86-.183.125-.183l.242-.367s.86-.184.125-.184l.367-.55c.735-1.098 1.281-.368.367 1.1L4.035 6.603c-.55.73-1.285.363-.367-1.102zm0 0"/></svg>