<svg xmlns="http://www.w3.org/2000/svg" width="11" height="11"><path style="stroke:none;fill-rule:nonzero;fill:#000;fill-opacity:1" d="M10.266 1.102v8.796c0 .207-.16.368-.368.368H1.102a.362.362 0 0 1-.368-.368V1.102c0-.207.16-.368.368-.368h8.796c.207 0 .368.16.368.368zm-.73 2.566H7.331v2.2h2.203zm-1.47 2.934h-.734v.73h.734zm1.47 0H8.8v.73h.734zM1.464 3.668v1.465h2.203V3.668zm0 2.2v1.464h2.203V5.867zm0 2.198v1.47h2.203v-1.47zm2.933 0v1.47h2.204v-1.47zm0-2.199v1.465h2.204V5.867zm0-2.199v1.465h2.204V3.668zm0-2.203v1.469h2.204v-1.47zm-.73 0H1.465v1.469h2.203zm0 0"/></svg>