<svg xmlns="http://www.w3.org/2000/svg" width="11" height="11"><path d="M8.8 0c.735 0 .735 0 .735.734v9.532c0 .734 0 .734-.734.734H2.199c-.734 0-.734 0-.734-.734V.734c0-.734 0-.734.734-.734ZM7.333 8.8H2.934v.735h4.398Zm1.469-2.198h-.735v.546h.735ZM7.332 1.465H2.934v5.867h4.398ZM8.801 5.5h-.735v.55h.735Zm0-1.102h-.735v.551h.735Zm0-1.097h-.735v.55h.735Zm0 0" style="stroke:none;fill-rule:nonzero;fill:#000;fill-opacity:1"/><path d="M4.766 2.934 4.754 4.02l-1.086.015c-.184 0-.184.73 0 .73l1.086.016.012 1.086c0 .184.734.184.734 0l.016-1.086 1.086-.015c.183 0 .183-.73 0-.73L5.516 4.02 5.5 2.934c0-.184-.734-.184-.734 0Zm0 0" style="stroke:none;fill-rule:nonzero;fill:#000;fill-opacity:1"/></svg>