<svg xmlns="http://www.w3.org/2000/svg" width="11" height="11"><path style="stroke:none;fill-rule:nonzero;fill:#000;fill-opacity:1" d="M9.535.367c.73.367 0 8.801-.367 8.801-1.102.367-2.934.367-2.934.367v1.098c0 .367-1.468.367-1.468 0V9.535s-1.832 0-2.934-.367c-.367 0-1.098-8.434-.367-8.8C2.199 0 8.8 0 9.535.367zM4.156 4.48s-.16-.003-.324.082a.657.657 0 0 0-.348.59c0 1.348 0 1.57-.226 1.57 0 0-.223 0-.223.223v.899s0 .222.223.222c.226 0 .226-.222.226-.222v-.672a.958.958 0 0 0 .446-.137v.809s0 .222.226.222c.223 0 .223-.222.223-.222V6.723h1.344l.297.89c.152.453.375.453.375.453h.226s.223 0 .223-.222c0-.227-.223-.227-.223-.227V6.5c0-.402-.285-.563-.45-.676L5.5 5.38H3.93v-.227c0-.148.043-.16.101-.191.059-.027.125-.031.125-.031.301.004.301-.453 0-.45zm2.239-.445s-.153.016-.223.223l-.223.894.895.672h.672c.449 0 .449-.445.449-.445l-.672-.672c-.223-.227-.45-.227-.672-.227v-.222s0-.223-.226-.223zm.937-2.933H3.668c-.45 0-.734 1.464-.367 1.464h4.398c.367 0 0-1.464-.367-1.464zm0 0"/></svg>