<svg xmlns="http://www.w3.org/2000/svg" width="11" height="11"><path style="stroke:none;fill-rule:nonzero;fill:#000;fill-opacity:1" d="M8.8 0c.735 0 .735 0 .735.734v9.532c0 .734 0 .734-.734.734H2.199c-.734 0-.734 0-.734-.734V.734c0-.734 0-.734.734-.734zM7.333 8.8H2.934v.735h4.398zm1.469-2.198h-.735v.546h.735zM7.332 1.465H2.934v5.867h4.398zM8.801 5.5h-.735v.55h.735zm0-1.102h-.735v.551h.735zm0-1.097h-.735v.55h.735zm0 0"/><path style="stroke:none;fill-rule:nonzero;fill:#000;fill-opacity:1" d="M6.418 4.582V5.5h.367v-.918h-.367zM6.27 3.219a.115.115 0 0 1-.047-.09v-.336a.043.043 0 0 0-.043-.043h-.258a.043.043 0 0 0-.043.043v.336c0 .117.055.23.152.297a.787.787 0 0 1 .364.664v.164c0 .023.02.043.043.043h.257c.024 0 .043-.02.043-.043V4.09c0-.352-.176-.676-.468-.871zM5.5 4.582H3.3c-.183 0-.183.918 0 .918h2.2c.184 0 .184-.918 0-.918zm-.11.625h-.992v-.332h.993zm.528-1.695a.482.482 0 0 1-.211-.383v-.336a.043.043 0 0 0-.043-.043h-.258a.043.043 0 0 0-.043.043v.355a.71.71 0 0 0 .324.575.46.46 0 0 1 .192.367v.164c0 .023.02.043.043.043h.258c.023 0 .043-.02.043-.043V4.09a.703.703 0 0 0-.305-.578zm.316 1.07h-.367V5.5h.367v-.918zm0 0"/></svg>