<svg xmlns="http://www.w3.org/2000/svg" width="11" height="11"><path style="stroke:none;fill-rule:nonzero;fill:#000;fill-opacity:1" d="M8.8 0c.735 0 .735 0 .735.734v9.532c0 .734 0 .734-.734.734H2.199c-.734 0-.734 0-.734-.734V.734c0-.734 0-.734.734-.734zM7.333 8.8H2.934v.735h4.398zm1.469-2.198h-.735v.546h.735zM7.332 1.465H2.934v5.867h4.398zM8.801 5.5h-.735v.55h.735zm0-1.102h-.735v.551h.735zm0-1.097h-.735v.55h.735zm0 0"/><path style="stroke:none;fill-rule:nonzero;fill:#000;fill-opacity:1" d="M6.965 2.566v.184H3.3v-.184h.183v-.55c0-.184.368-.184.368 0v.55h.546v-.55c0-.184.368-.184.368 0v.55h.55v-.55c0-.184.368-.184.368 0v.55h.55v-.55c0-.184.368-.184.368 0v.55zm0 1.47h-.363v-.552c0-.183-.368-.183-.368 0v.551h-.55v-.55c0-.184-.368-.184-.368 0v.55h-.55v-.55c0-.184-.368-.184-.368 0v.55h-.546v-.55c0-.184-.368-.184-.368 0v.55h-.183v.18h3.664zm0 1.464h-.363v-.55c0-.184-.368-.184-.368 0v.55h-.55v-.55c0-.184-.368-.184-.368 0v.55h-.55v-.55c0-.184-.368-.184-.368 0v.55h-.546v-.55c0-.184-.368-.184-.368 0v.55h-.183v.184h3.664zm0 1.465h-.363v-.547c0-.184-.368-.184-.368 0v.547h-.55v-.547c0-.184-.368-.184-.368 0v.547h-.55v-.547c0-.184-.368-.184-.368 0v.547h-.546v-.547c0-.184-.368-.184-.368 0v.547h-.183v.183h3.664zm0 0"/></svg>