<svg xmlns="http://www.w3.org/2000/svg" width="11" height="11"><path d="M8.8 0c.735 0 .735 0 .735.734v9.532c0 .734 0 .734-.734.734H2.199c-.734 0-.734 0-.734-.734V.734c0-.734 0-.734.734-.734ZM7.333 8.8H2.934v.735h4.398Zm1.469-2.198h-.735v.546h.735ZM7.332 1.465H2.934v5.867h4.398ZM8.801 5.5h-.735v.55h.735Zm0-1.102h-.735v.551h.735Zm0-1.097h-.735v.55h.735Zm0 0" style="stroke:none;fill-rule:nonzero;fill:#000;fill-opacity:1"/><path d="M6.602 2.016v4.77h-.918c0-.735-1.102-.735-1.102 0h-.914v-4.77h.914c0 .734 1.102.734 1.102 0Zm-.551.918H4.215v2.933H6.05V2.934Zm-.184.183v2.567H4.398V3.117Zm0 0" style="stroke:none;fill-rule:nonzero;fill:#000;fill-opacity:1"/></svg>