<svg xmlns="http://www.w3.org/2000/svg" width="11" height="11"><path d="M8.8 0c.735 0 .735 0 .735.734v9.532c0 .734 0 .734-.734.734H2.199c-.734 0-.734 0-.734-.734V.734c0-.734 0-.734.734-.734ZM7.333 8.8H2.934v.735h4.398Zm1.469-2.198h-.735v.546h.735ZM7.332 1.465H2.934v5.867h4.398ZM8.801 5.5h-.735v.55h.735Zm0-1.102h-.735v.551h.735Zm0-1.097h-.735v.55h.735Zm0 0" style="stroke:none;fill-rule:nonzero;fill:#000;fill-opacity:1"/><path d="M6.234 3.668c.184-.367.036-1.027-.367-1.285-.402-.25-1.062-.25-1.469 0-.402.258-.546.918-.363 1.285a.395.395 0 0 0-.367.367c0 .18.184.363.367.363h2.2c.183 0 .367-.183.367-.363a.395.395 0 0 0-.368-.367ZM5.133 6.785c.183 0 1.101-2.02 1.101-2.02H4.035s.914 2.02 1.098 2.02Zm0 0" style="stroke:none;fill-rule:nonzero;fill:#000;fill-opacity:1"/></svg>