<svg xmlns="http://www.w3.org/2000/svg" width="11" height="11"><path style="stroke:none;fill-rule:nonzero;fill:#000;fill-opacity:1" d="M8.8 0c.735 0 .735 0 .735.734v9.532c0 .734 0 .734-.734.734H2.199c-.734 0-.734 0-.734-.734V.734c0-.734 0-.734.734-.734zM7.333 8.8H2.934v.735h4.398zm1.469-2.198h-.735v.546h.735zM7.332 1.465H2.934v5.867h4.398zM8.801 5.5h-.735v.55h.735zm0-1.102h-.735v.551h.735zm0-1.097h-.735v.55h.735zm0 0"/><path style="stroke:none;fill-rule:nonzero;fill:#000;fill-opacity:1" d="M6.418 4.582V5.5h.367v-.918h-.367zM6.27 3.219a.114.114 0 0 1-.051-.094v-.332c0-.02-.016-.043-.035-.043h-.266c-.023 0-.035.023-.035.043v.332c0 .125.05.234.152.3.219.145.36.395.36.669v.16c0 .02.015.043.043.043h.257c.024 0 .043-.024.043-.043v-.16c0-.356-.176-.676-.468-.875zM5.5 4.582H3.3c-.183 0-.183.918 0 .918h2.2c.184 0 .184-.918 0-.918zm-.11.625h-.992v-.332h.993zm.528-1.695a.472.472 0 0 1-.211-.387v-.332c0-.02-.016-.043-.047-.043h-.254c-.023 0-.047.023-.047.043v.36c0 .234.133.433.325.574.125.078.199.218.199.367v.16c0 .02.012.043.035.043h.266c.02 0 .035-.024.035-.043v-.16c0-.239-.11-.45-.301-.582zm.316 1.07h-.367V5.5h.367v-.918zm0 0"/></svg>