<svg xmlns="http://www.w3.org/2000/svg" width="11" height="11"><path style="stroke:none;fill-rule:nonzero;fill:#000;fill-opacity:1" d="M8.066 0c.735 0 .735 0 .735.734v9.532c0 .734 0 .734-.735.734H2.934c-.735 0-.735 0-.735-.734V.734C2.2 0 2.2 0 2.934 0zM4.582 5.867h-.547c-.367 0-.367.367-.367.367v3.664c0 .368.367.368.367.368h2.93s.367 0 .367-.368V6.234c0-.367-.367-.367-.367-.367h-.547l-.184.723c0 .183-1.468.183-1.468 0l-.184-.723zM7.699.734H3.301s-.367 0-.367.368v2.933s0 .363.367.363h4.398s.367 0 .367-.363V1.102C8.066.734 7.7.734 7.7.734zm0 0"/><path style="stroke:none;fill-rule:nonzero;fill:#000;fill-opacity:1" d="M4.582 8.434c0 .183 1.836.183 1.836 0l-.184 1.464c0 .368-1.468.368-1.468 0l-.184-1.464zm.184-.184c0 .184 1.468.184 1.468 0 0 0 0-.184-.183-.184 0 0 .183-.296-.184-.296-.183-.07 0-.438-.183-.622-.368.184-.551.368-.368.551-.367 0-.27.297-.27.297s-.28.07-.28.254zM6.234 2.2c.114-.231.07-.759-.183-.915-.254-.16-.848-.16-1.102 0-.254.156-.297.684-.183.914-.114 0-.184.067-.184.184 0 .117.07.183.184.183h1.468c.114 0 .184-.066.184-.183 0-.117-.07-.184-.184-.184zM5.5 4.034c.117 0 .734-1.285.734-1.285H4.766s.617 1.285.734 1.285zm0 0"/></svg>