<svg xmlns="http://www.w3.org/2000/svg" width="11" height="11"><path d="M10.266 1.102v8.796c0 .207-.16.368-.368.368H1.102a.362.362 0 0 1-.368-.368V1.102c0-.207.16-.368.368-.368h8.796c.207 0 .368.16.368.368Zm-.73 2.566H7.331v2.2h2.203Zm-1.47 2.934h-.734v.73h.734Zm1.47 0H8.8v.73h.734ZM1.464 3.668v1.465h2.203V3.668Zm0 2.2v1.464h2.203V5.867Zm0 2.198v1.47h2.203v-1.47Zm2.933 0v1.47h2.204v-1.47Zm0-2.199v1.465h2.204V5.867Zm0-2.199v1.465h2.204V3.668Zm0-2.203v1.469h2.204v-1.47Zm-.73 0H1.465v1.469h2.203Zm0 0" style="stroke:none;fill-rule:nonzero;fill:#000;fill-opacity:1"/></svg>