<svg xmlns="http://www.w3.org/2000/svg" width="11" height="11"><path d="M8.8 0c.735 0 .735 0 .735.734v9.532c0 .734 0 .734-.734.734H2.199c-.734 0-.734 0-.734-.734V.734c0-.734 0-.734.734-.734ZM7.333 8.8H2.934v.735h4.398Zm1.469-2.198h-.735v.546h.735ZM7.332 1.465H2.934v5.867h4.398ZM8.801 5.5h-.735v.55h.735Zm0-1.102h-.735v.551h.735Zm0-1.097h-.735v.55h.735Zm0 0" style="stroke:none;fill-rule:nonzero;fill:#000;fill-opacity:1"/><path d="M6.785 2.75v.367c-.183 0-.183.367 0 .367v.368c-.183 0-.183.363 0 .363v.367c-.183 0-.183.367 0 .367v.367c-.183 0-.183.368 0 .368v.367h-.367c0-.184-.367-.184-.367 0h-.367c0-.184-.368-.184-.368 0H4.95c0-.184-.367-.184-.367 0h-.367c0-.184-.363-.184-.363 0h-.368v-.367c.184-.008.184-.368 0-.368V4.95c.184 0 .184-.367 0-.367v-.367c.184 0 .184-.363 0-.363v-.368c.184 0 .184-.367 0-.367V2.75h.368c0 .184.363.184.363 0h.367c0 .184.367.184.367 0h.367c0 .184.368.184.368 0h.367c0 .184.367.184.367 0h.367Zm-.55.55h-2.2v2.2h2.2V3.3Zm-.184.184v1.832H4.215V3.484Zm0 0" style="stroke:none;fill-rule:nonzero;fill:#000;fill-opacity:1"/></svg>