<svg xmlns="http://www.w3.org/2000/svg" width="11" height="11"><path style="stroke:none;fill-rule:nonzero;fill:#000;fill-opacity:1" d="M6.965 0s.367 0 .367.367v3.301h1.102s.367 0 .367.367v6.598c0 .367-.367.367-.367.367H2.566s-.367 0-.367-.367V4.035c0-.367.367-.367.367-.367h1.102v-3.3C3.668 0 4.035 0 4.035 0zm.734 4.398H3.301v2.934h4.398zM6.234 2.934H4.766c-.368 0-.368.367 0 .367h.367v.914h.734V3.3h.367c.368 0 .368-.367 0-.367zm0-2.2H4.766v1.098h1.468zm0 0"/><path style="stroke:none;fill-rule:nonzero;fill:#000;fill-opacity:1" d="M4.035 5.867h1.281v.184h-1.28zm0 .735v.183h1.281v-.183zm0-1.836v.367h2.93v-.367zm0 1.468v.184h1.281v-.184zm0-.734v.184h1.281V5.5zm1.649.367v.184h1.28v-.184zm0 .735v.183h1.28v-.183zm0-.368v.184h1.28v-.184zm0-.734v.184h1.28V5.5zm0 0"/></svg>