<svg xmlns="http://www.w3.org/2000/svg" width="11" height="11"><path style="stroke:none;fill-rule:nonzero;fill:#000;fill-opacity:1" d="M8.8 0c.735 0 .735 0 .735.734v9.532c0 .734 0 .734-.734.734H2.199c-.734 0-.734 0-.734-.734V.734c0-.734 0-.734.734-.734zM7.333 8.8H2.934v.735h4.398zm1.469-2.198h-.735v.546h.735zM7.332 1.465H2.934v5.867h4.398zM8.801 5.5h-.735v.55h.735zm0-1.102h-.735v.551h.735zm0-1.097h-.735v.55h.735zm0 0"/><path style="stroke:none;fill-rule:nonzero;fill:#000;fill-opacity:1" d="m6.602 4.035-.551 2.93c0 .183-1.836.183-1.836 0l-.547-2.93c.184.18 2.75.18 2.934 0zm-1.286-.367c.551-.184.735-.367.735-.734 0-.184-.184-.368-.551-.551-.367-.184-.55-.367-.55-.735-.184.368 0 .918.366 1.102.918.367 0 .918 0 .918zm-.918 0c.29-.082.45-.082.442-.367 0-.164.023-.25-.242-.367a.653.653 0 0 1-.383-.551c-.18.183-.059.55.183.734.493.25 0 .551 0 .551zm0 0"/></svg>