<svg xmlns="http://www.w3.org/2000/svg" width="11" height="11"><path style="stroke:none;fill-rule:nonzero;fill:#000;fill-opacity:1" d="M8.066 0c.735 0 .735 0 .735.734v9.532c0 .734 0 .734-.735.734H2.934c-.735 0-.735 0-.735-.734V.734C2.2 0 2.2 0 2.934 0zM4.582 5.867h-.547c-.367 0-.367.367-.367.367v3.664c0 .368.367.368.367.368h2.93s.367 0 .367-.368V6.234c0-.367-.367-.367-.367-.367h-.547l-.184.723c0 .183-1.468.183-1.468 0l-.184-.723zM7.699.734H3.301s-.367 0-.367.368v2.933s0 .363.367.363h4.398s.367 0 .367-.363V1.102C8.066.734 7.7.734 7.7.734zm0 0"/><path style="stroke:none;fill-rule:nonzero;fill:#000;fill-opacity:1" d="M4.582 8.434c0 .183 1.836.183 1.836 0l-.184 1.464c0 .368-1.468.368-1.468 0l-.184-1.464zm.39-1.106-.35.422.421.352.352-.422zm.633.438-.105.539.54.105.105-.539zm-.324-.63.25.489.489-.25-.25-.488zM5.5.918l.137.09v.433l.27-.136.144.082v.136l-.414.211v.29l.277-.157v.313l.274-.145v-.45l.101-.058.106.059v.285l.402-.21.148.085v.16l-.379.219.239.133v.156l-.125.066-.367-.214-.25.16.242.152-.25.149.258.136.37-.207.122.086v.145l-.227.133.367.214v.172l-.175.074-.375-.207v.274l-.106.07-.101-.07v-.414l-.274-.153v.286l-.277-.153v.285l.343.204v.164l-.113.062-.23-.137v.434l-.137.09-.137-.09v-.434l-.23.137-.113-.07v-.156l.343-.204v-.285l-.277.168v-.304l-.274.144v.41l-.113.086-.094-.078v-.273l-.382.214-.168-.07v-.176l.39-.214-.25-.125v-.16l.145-.079.36.211.245-.144-.004-.004-.253-.145.246-.152-.247-.145-.355.211-.137-.066v-.16l.242-.137-.382-.21v-.173l.16-.078.39.223v-.282l.102-.078.133.082v.418l.25.149.004-.297.27.144v-.289l-.344-.203V1.38l.113-.074.23.136v-.433zm0 0"/></svg>