<svg xmlns="http://www.w3.org/2000/svg" width="11" height="11"><path style="stroke:none;fill-rule:nonzero;fill:#000;fill-opacity:1" d="M8.066 0c.735 0 .735 0 .735.734v9.532c0 .734 0 .734-.735.734H2.934c-.735 0-.735 0-.735-.734V.734C2.2 0 2.2 0 2.934 0zM3.301 5.867s-.367 0-.367.367v3.664c0 .368.367.368.367.368h4.398s.367 0 .367-.368V6.234c0-.367-.367-.367-.367-.367H3.301zM7.699.734H3.301s-.367 0-.367.368v2.933s0 .363.367.363h4.398s.367 0 .367-.363V1.102C8.066.734 7.7.734 7.7.734zm0 0"/><path style="stroke:none;fill-rule:nonzero;fill:#000;fill-opacity:1" d="M5.5 1.465c1.223 0 2.2.367 2.2 1.101 0 .735-.977 1.102-2.2 1.102-1.223 0-2.2-.367-2.2-1.102 0-.734.977-1.101 2.2-1.101zm-.18 1.738c-.05 0-.093.04-.093.09a.086.086 0 0 0 .085.094c.063.004.125.004.188.004.05 0 .09-.04.09-.09 0-.051-.04-.094-.09-.094-.063 0-.121 0-.18-.004zm.664-.02c-.058.005-.117.012-.18.016a.092.092 0 0 0-.085.098c.004.05.047.086.097.086a3.05 3.05 0 0 0 .188-.02.091.091 0 0 0 .082-.097c-.008-.051-.05-.09-.102-.082zm-1.199-.03a.087.087 0 0 0-.105.074.094.094 0 0 0 .074.105c.059.008.121.02.187.027a.097.097 0 0 0 .102-.082.095.095 0 0 0-.082-.101l-.176-.024zm1.762-.079a1.84 1.84 0 0 1-.172.043.093.093 0 0 0-.066.11.09.09 0 0 0 .109.07l.184-.047a.09.09 0 0 0 .058-.113.087.087 0 0 0-.113-.063zM4.27 3.012a.088.088 0 0 0-.118.05c-.02.051.004.102.051.122.059.02.117.043.18.062.047.012.101-.016.113-.062.016-.051-.012-.102-.059-.114a4.096 4.096 0 0 1-.167-.058zm2.851-.188-.066.016c-.043.031-.09.062-.145.09-.043.023-.062.082-.039.125a.092.092 0 0 0 .125.039c.063-.035.117-.067.168-.106.04-.027.047-.086.02-.129zm-3.351-.12-.07.019c-.036.035-.044.09-.013.129a.88.88 0 0 0 .153.14c.043.028.098.02.129-.02a.093.093 0 0 0-.02-.128.53.53 0 0 1-.117-.11zm3.562-.36-.07.004a.092.092 0 0 0-.043.125c.023.105.023.117.02.125a.09.09 0 0 0 .074.105.087.087 0 0 0 .105-.074.344.344 0 0 0 .008-.067.386.386 0 0 0-.043-.171zm-3.52-.149-.066.024a.566.566 0 0 0-.129.172.092.092 0 0 0 .043.125c.043.02.102 0 .121-.043.02-.04.051-.078.09-.121a.089.089 0 0 0 .004-.13zm3.008-.207-.047.047a.09.09 0 0 0 .043.121c.059.028.11.051.157.082a.094.094 0 0 0 .125-.031c.023-.047.011-.102-.032-.129a2.35 2.35 0 0 0-.171-.086zm-2.535-.07-.176.07a.093.093 0 0 0-.046.121c.019.047.074.067.12.047.051-.023.106-.043.165-.062a.09.09 0 0 0 .054-.117.093.093 0 0 0-.117-.059zM6.34 1.82c-.047-.008-.098.024-.106.07-.011.051.02.102.07.11.06.012.118.027.173.04a.09.09 0 0 0 .113-.063c.012-.051-.016-.102-.067-.114a2.526 2.526 0 0 0-.183-.043zm-1.461-.039c-.063.012-.125.02-.184.032a.096.096 0 0 0-.074.109c.012.047.059.082.11.07.054-.012.113-.02.175-.027a.093.093 0 0 0 .078-.106c-.007-.046-.054-.082-.105-.078zm.902-.031a.092.092 0 0 0-.097.086c0 .05.039.094.086.098l.18.011c.05.008.093-.03.1-.082a.091.091 0 0 0-.081-.097c-.063-.008-.125-.012-.188-.016zm-.383-.008c-.062 0-.125.004-.183.008a.098.098 0 0 0-.09.098c.004.05.047.09.098.086.058-.004.12-.008.18-.008a.092.092 0 1 0-.005-.184zM5.5 6.234c1.04 0 1.832.856 1.832 1.832 0 .977-.793 1.832-1.832 1.832a1.798 1.798 0 0 1-1.832-1.832c0-1.039.793-1.832 1.832-1.832zm-.367 2.262-.703.488s.336.489 1.07.489 1.07-.489 1.07-.489l-.703-.488a.647.647 0 0 1-.734 0zm.12-1.836c-.608.125-1.16.735-1.16 1.406 0 .383.11.536.11.536l.746-.473s-.058-.367.305-.55V6.66zm.493 0v.918c.363.184.305.55.305.55l.746.474s.11-.168.11-.536c0-.671-.552-1.28-1.16-1.406zm0 0"/></svg>