<svg xmlns="http://www.w3.org/2000/svg" width="11" height="11"><path d="M9.535.367c.73.367 0 8.801-.367 8.801-1.102.367-2.934.367-2.934.367v1.098c0 .367-1.468.367-1.468 0V9.535s-1.832 0-2.934-.367c-.367 0-1.098-8.434-.367-8.8C2.199 0 8.8 0 9.535.367ZM4.156 4.48s-.16 0-.32.082a.657.657 0 0 0-.352.594c0 1.34 0 1.57-.226 1.57 0 0-.223 0-.223.22v.894s0 .226.223.226c.226 0 .226-.226.226-.226v-.668c.16 0 .309-.067.446-.133v.8s0 .227.226.227c.223 0 .223-.226.223-.226V6.727h1.348l.293.886c.156.453.375.453.375.453h.226s.223 0 .223-.226c0-.219-.223-.219-.223-.219V6.496c0-.394-.285-.562-.445-.672L5.5 5.375H3.93v-.219c0-.156.047-.164.105-.191.059-.031.121-.035.121-.035.301.004.301-.45 0-.45Zm2.239-.445s-.153.012-.22.227l-.226.894.895.668h.672c.449 0 .449-.449.449-.449l-.676-.668c-.219-.227-.445-.227-.668-.227v-.218s0-.227-.226-.227Zm.937-2.933H3.668c-.45 0-.734 1.464-.367 1.464h4.398c.367 0 0-1.464-.367-1.464Zm0 0" style="stroke:none;fill-rule:nonzero;fill:#000;fill-opacity:1"/></svg>