<svg xmlns="http://www.w3.org/2000/svg" width="11" height="11"><path style="stroke:none;fill-rule:nonzero;fill:#000;fill-opacity:1" d="m8.234 8.61-.007.023c-.094.52-.547.902-1.079.902H3.852c-.532 0-.985-.383-1.079-.902l-.132-.711 1.757-.59-1.984-.66-.172-.945 1.793-.594-2.027-.676-.168-.914 1.828-.61-1.945-.644c.101-.406.433-.727.867-.809.066-.007.129-.015.195-.015h5.43a1.1 1.1 0 0 1 1.098 1.101c0 .067-.008.133-.016.2l-.05.261-1.915.641 1.695.562-.183 1.012-1.88.625 1.669.559-.184 1.023-1.847.617zM5.133 0h.734v1.102h-.734zm0 9.898h.734V11h-.734zm0 0"/></svg>