<svg xmlns="http://www.w3.org/2000/svg" width="11" height="11"><path style="stroke:none;fill-rule:nonzero;fill:#000;fill-opacity:1" d="m8.234 8.613-.004.016c-.093.523-.55.906-1.082.906H3.852c-.532 0-.989-.383-1.082-.906l-.13-.707 1.758-.59-1.984-.66-.172-.942 1.793-.597-2.023-.672-.168-.922 1.824-.605-1.945-.649a1.1 1.1 0 0 1 1.062-.82h5.43a1.103 1.103 0 0 1 1.082 1.297l-.047.265-1.918.641 1.7.562-.184 1.008-1.883.63 1.668.554-.188 1.031-1.843.613zM5.133 0h.734v1.102h-.734zm0 9.898h.734V11h-.734zm0 0"/></svg>