<svg xmlns="http://www.w3.org/2000/svg" width="11" height="11"><path d="M4.066 4.152c.512-.086.891-.554.95-1.109.058-.566.191-2.848-.664-2.703-2.22.379-2.063 4.113-.286 3.812Zm2.918 0C8.762 4.453 8.918.72 6.7.34c-.855-.145-.722 2.137-.664 2.703.059.559.438 1.023.95 1.11ZM3.152 5.914c0-.297-.105-.562-.277-.758-.277-.367-1.172-1.11-1.39-.918-.458.399-.442 1.375-.169 2.086.141.395.485.672.883.672.528 0 .953-.484.953-1.082Zm6.41-1.676c-.218-.191-1.109.551-1.39.918-.168.196-.277.461-.277.758 0 .598.43 1.082.953 1.082.402 0 .742-.277.882-.672.274-.71.29-1.687-.168-2.086Zm-1.789 3.36c-.808-.403-.785-1.18-.968-1.887a1.319 1.319 0 0 0-1.282-.984 1.32 1.32 0 0 0-1.27.949c-.194.68-.081 1.469-.96 1.918-.715.234-1.004.574-1.004 1.379 0 .656.559 1.355 1.285 1.441.809.121 1.442-.035 1.953-.328.508.293 1.141.453 1.95.328.726-.086 1.289-.785 1.289-1.441 0-.82-.274-1.13-.993-1.375Zm-.957.984H5.98v.879h-.914l.004-.879h-.89v-.879h.89V6.82h.914v.883h.836v.879Zm0 0" style="stroke:none;fill-rule:nonzero;fill:#000;fill-opacity:1"/></svg>