<svg xmlns="http://www.w3.org/2000/svg" width="11" height="11"><path style="stroke:none;fill-rule:nonzero;fill:#000;fill-opacity:1" d="M4.066 4.152c.512-.086.891-.554.95-1.113.058-.566.191-2.844-.664-2.7-2.22.376-2.063 4.114-.286 3.813zm2.918 0C8.762 4.453 8.918.715 6.7.34c-.855-.145-.722 2.133-.664 2.7.059.558.438 1.026.95 1.112zM3.152 5.914a1.17 1.17 0 0 0-.273-.762c-.281-.367-1.172-1.109-1.39-.918-.458.399-.446 1.375-.169 2.086.14.395.48.672.883.672.524 0 .95-.48.95-1.078zm6.41-1.68c-.218-.191-1.109.551-1.39.918a1.17 1.17 0 0 0-.274.762c0 .598.426 1.078.95 1.078.402 0 .742-.277.882-.672.278-.71.29-1.687-.168-2.086zM7.774 7.598c-.808-.407-.78-1.184-.968-1.891a1.325 1.325 0 0 0-2.55-.035c-.196.68-.08 1.469-.962 1.918-.715.234-1.004.574-1.004 1.379 0 .656.563 1.355 1.285 1.441.809.125 1.442-.035 1.953-.328.508.293 1.141.453 1.95.328.726-.086 1.285-.785 1.285-1.441 0-.82-.27-1.13-.989-1.371zm-.953.98h-.84l.004.883H5.07v-.883h-.89V7.7h.89V6.82h.914l-.004.88h.84zm0 0"/></svg>