<svg xmlns="http://www.w3.org/2000/svg" width="11" height="11"><path style="stroke:none;fill-rule:nonzero;fill:#000;fill-opacity:1" d="M4.398.367v1.098h1.836c.368 0 .368.367.368.367v7.336s0 .367-.368.367H4.398v1.098c0 .367-2.199.367-2.199 0V9.535H.367C0 9.535 0 9.168 0 9.168V1.832s0-.367.367-.367H2.2V.367C2.2 0 4.4 0 4.4.367zM3.301 2.934C1.832 2.934.734 4.035.734 5.5c0 1.465 1.098 2.566 2.567 2.566 1.465 0 2.566-1.101 2.566-2.566 0-1.465-1.101-2.566-2.566-2.566zm0 0"/><path style="stroke:none;fill-rule:nonzero;fill:#000;fill-opacity:1" d="M2.2 6.602h2.198c.368 0 .368.73 0 .73H2.2c-.367 0-.367-.73 0-.73zm-.368-2.567c-.184.18.809 1.172.809 1.172s-.075.145-.075.293c0 .367.274.734.735.734a.725.725 0 0 0 .734-.734.725.725 0 0 0-.734-.734c-.223 0-.293.074-.293.074s-.992-.988-1.176-.805zM8.8 3.484c1.098 0 2.016.914 2.016 2.016a2.033 2.033 0 0 1-2.015 2.016A2.03 2.03 0 0 1 6.785 5.5a2.03 2.03 0 0 1 2.016-2.016zm0 .274c-.917 0-1.741.824-1.741 1.742S7.883 7.242 8.8 7.242c.914 0 1.742-.824 1.742-1.742s-.828-1.742-1.742-1.742zM7.55 5.37c.067.008.388.04.466.047.078.012.046.242-.024.234-.074-.007-.39-.039-.465-.05-.078-.008-.043-.239.024-.23zm2.024 0c.094-.012.356-.035.461-.043.102-.012.11.234.016.242-.098.012-.348.035-.446.043-.097.012-.125-.23-.03-.242zm-.816.027c.023-.07.23-.007.207.079-.027.085-.113.367-.14.441-.028.074-.259.02-.227-.063.03-.082.136-.394.16-.457zm.586.657c.078.03.37.14.437.168.063.027-.015.25-.086.218a8.423 8.423 0 0 1-.437-.168c-.078-.035.004-.246.086-.218zm-1.29.023c.024.05.145.387.165.457.023.067-.184.152-.215.074-.031-.074-.121-.359-.149-.433-.027-.074.18-.149.2-.098zm.571.371c.074.028.367.117.445.145.078.023.012.25-.074.222-.082-.027-.367-.117-.441-.144-.078-.031-.004-.254.07-.223zm1.64-1.59c-.183.274-.456.274-.73 0-.277.274-.46.274-.734 0-.278.274-.461.274-.735 0-.273.274-.457.274-.734 0-.082.297-.09.641-.09.641 0 .824.64 1.559 1.559 1.559.914 0 1.558-.735 1.558-1.559 0 0 0-.367-.093-.64zm0 0"/></svg>