<svg xmlns="http://www.w3.org/2000/svg" width="11" height="11"><path d="M5.5 0C8.527 0 11 2.48 11 5.5 11 8.527 8.535 11 5.5 11A5.508 5.508 0 0 1 0 5.5C0 2.48 2.48 0 5.5 0Zm0 .367A5.126 5.126 0 0 0 .367 5.5 5.124 5.124 0 0 0 5.5 10.633 5.121 5.121 0 0 0 10.633 5.5c0-2.84-2.29-5.133-5.133-5.133ZM8.066 2.2c.368 0 .368.735 0 .735H6.965c-.18 0-1.281-.551-.914-.735Zm-3.117 0c.367.184-.734.735-.914.735H2.934c-.368 0-.368-.735 0-.735ZM2.934 3.668c.367 0-.184.73-.368.73h-.734c-.367 0-.367-.73 0-.73h1.102Zm6.234 0c.367 0 .367.73 0 .73h-.734c-.184 0-.735-.73-.368-.73Zm.367 1.465c.363 0 .363.734 0 .734h-.734c-.367 0-.367-.734 0-.734Zm-7.336 0c.367 0 .367.734 0 .734h-.734c-.363 0-.363-.734 0-.734Zm.367 1.469c.184 0 .735.73.368.73H1.832c-.367 0-.367-.73 0-.73h.734Zm6.602 0c.367 0 .367.73 0 .73H8.066c-.367 0 .184-.73.368-.73ZM5.5 2.934c1.371 0 2.566 1.195 2.566 2.566 0 1.371-1.195 2.566-2.566 2.566-1.371 0-2.566-1.195-2.566-2.566 0-1.371 1.195-2.566 2.566-2.566Zm2.566 5.132c.368 0 .368.735 0 .735H6.051c-.367-.184.734-.735.914-.735Zm-4.03 0c.179 0 1.28.551.913.735H2.934c-.368 0-.368-.735 0-.735ZM6.417.828s-.184.637-.918.637-.918-.637-.918-.637A4.79 4.79 0 0 0 .734 5.5c0 2.2 1.563 4.215 3.848 4.68 0 0 .184-.645.918-.645.695 0 .918.645.918.645a4.797 4.797 0 0 0 3.848-4.68c0-2.2-1.555-4.215-3.848-4.672Zm0 0" style="stroke:none;fill-rule:nonzero;fill:#000;fill-opacity:1"/><path d="M7.516 4.398c.183.391.183.91.183 1.102 0 1.164-.914 2.2-2.199 2.2-1.285 0-2.2-1.036-2.2-2.2 0-.191 0-.71.184-1.102.368.391.66.391 1.028 0 .363.391.62.391.988 0 .367.391.645.391 1.012 0 .367.391.636.391 1.004 0ZM5.25 6.718c-.102-.046-.203.278-.102.313.102.047.493.172.61.215.11.035.195-.285.094-.324l-.602-.203Zm-.754-.53c-.059-.122-.344 0-.293.132.05.11.16.524.203.633.04.102.324-.016.293-.117Zm1.723-.036c-.102-.043-.219.266-.11.317.11.05.47.195.594.242.094.043.2-.281.11-.316-.086-.043-.485-.2-.594-.243ZM5.484 5.2c-.05.133-.234.551-.277.668-.043.117.27.2.309.086a3.16 3.16 0 0 0 .234-.613c.059-.14-.207-.266-.266-.14Zm-1.691-.027c-.09-.016-.14.32-.04.328.11.016.536.066.634.074.101.008.144-.324.035-.34-.11-.004-.543-.058-.629-.062Zm3.363-.067c-.136.012-.496.043-.62.067-.134.012-.09.36.042.344.133-.008.469-.047.602-.059.125-.016.117-.367-.024-.352Zm0 0" style="stroke:none;fill-rule:nonzero;fill:#000;fill-opacity:1"/></svg>