<svg xmlns="http://www.w3.org/2000/svg" width="11" height="11"><path d="M6.602.367v.367h2.566c.367 0 .367.368.367.368v8.796s0 .368-.367.368H6.602v.367c0 .367-2.204.367-2.204 0v-.367H1.832c-.367 0-.367-.368-.367-.368V1.102s0-.368.367-.368h2.566V.367c0-.367 2.204-.367 2.204 0ZM5.5 2.2A3.29 3.29 0 0 0 2.2 5.5a3.29 3.29 0 0 0 3.3 3.3 3.29 3.29 0 0 0 3.3-3.3 3.29 3.29 0 0 0-3.3-3.3Zm0 0" style="stroke:none;fill-rule:nonzero;fill:#000;fill-opacity:1"/><path d="M3.227 5.2c.125.015.71.073.859.09.144.019.086.437-.047.42-.129-.003-.71-.062-.855-.085-.141-.016-.075-.441.043-.426Zm3.718 0c.168-.024.653-.067.844-.083.191-.012.195.434.02.45-.168.015-.63.058-.805.081-.184.012-.234-.425-.059-.449Zm-1.504.05c.051-.133.426-.016.383.14-.054.16-.215.676-.258.813-.05.14-.476.04-.418-.117.059-.145.258-.719.293-.836ZM6.52 6.453c.144.059.683.258.8.309.117.05-.023.46-.156.402-.16-.05-.652-.242-.797-.309-.148-.066.004-.453.153-.402Zm-2.364.043c.04.09.266.711.301.836.04.125-.344.281-.394.14-.06-.14-.22-.66-.27-.8-.055-.137.328-.27.363-.176Zm1.043.676c.14.05.676.219.82.27.141.046.024.456-.132.406-.153-.051-.68-.215-.82-.266-.137-.05-.008-.46.132-.41ZM8.25 4.215c-.55.55-.82.55-1.371 0-.55.55-.828.55-1.379 0-.55.55-.82.55-1.371 0-.55.55-.828.55-1.379 0-.184.55-.184 1.101-.184 1.285 0 1.465 1.286 2.934 2.934 2.934 1.648 0 2.934-1.47 2.934-2.934 0 0 0-.734-.184-1.285Zm0 0" style="stroke:none;fill-rule:nonzero;fill:#000;fill-opacity:1"/></svg>