<svg xmlns="http://www.w3.org/2000/svg" width="11" height="11"><path style="stroke:none;fill-rule:nonzero;fill:#000;fill-opacity:1" d="M5.5 0C8.434 0 11 2.566 11 5.5S8.434 11 5.5 11 0 8.434 0 5.5 2.566 0 5.5 0zm0 .734C2.934.734.734 2.934.734 5.5s2.2 4.766 4.766 4.766 4.766-2.2 4.766-4.766S8.066.734 5.5.734zM2.082 5.117c.176.024 1.05.113 1.262.133.215.031.125.652-.067.633-.199-.016-1.054-.106-1.261-.133-.211-.023-.118-.652.066-.633zm5.484 0A86.45 86.45 0 0 1 8.816 5c.286-.027.293.64.043.66-.257.031-.937.09-1.203.117-.273.024-.343-.62-.09-.66zM5.352 5.2c.066-.199.632-.023.558.207a36.52 36.52 0 0 1-.379 1.196c-.074.203-.699.058-.617-.172.086-.22.379-1.063.438-1.23zm1.593 1.774c.211.082 1.004.382 1.18.457.176.078-.035.68-.227.593-.234-.082-.968-.359-1.18-.457-.222-.093.009-.664.227-.593zm-3.5.058c.059.14.399 1.059.45 1.242.058.184-.5.41-.586.211-.082-.203-.325-.98-.399-1.187-.07-.2.485-.395.535-.266zM4.992 8.04c.207.078 1 .328 1.211.395.207.066.031.675-.195.601-.23-.074-1-.316-1.211-.39-.207-.079-.008-.68.195-.606zm4.543-4.371c-.734.73-1.285.73-2.02 0-.73.73-1.28.73-2.015 0-.734.73-1.246.73-1.98 0-.735.73-1.32.73-2.055 0-.363.73-.363 1.465-.363 1.832 0 2.2 1.832 4.398 4.398 4.398S9.898 7.7 9.898 5.5c0-.367 0-1.102-.363-1.832zm0 0"/></svg>