<svg xmlns="http://www.w3.org/2000/svg" width="11" height="11"><path style="stroke:none;fill-rule:nonzero;fill:#000;fill-opacity:1" d="M5.5 0C8.434 0 11 2.566 11 5.5S8.434 11 5.5 11 0 8.434 0 5.5 2.566 0 5.5 0zm0 .734C2.934.734.734 2.934.734 5.5s2.2 4.766 4.766 4.766 4.766-2.2 4.766-4.766S8.066.734 5.5.734zM2.078 5.117c.18.02 1.05.11 1.266.133.21.027.129.652-.067.633L2.012 5.75c-.211-.027-.11-.652.066-.633zm5.488 0c.258-.031.97-.094 1.25-.117.282-.027.293.637.04.66-.254.027-.934.09-1.2.117-.27.028-.347-.625-.09-.66zm-2.214.078c.07-.191.628-.023.562.207-.074.239-.312.996-.383 1.2-.074.203-.699.058-.613-.168.086-.223.371-1.067.434-1.239zm1.59 1.782a45.68 45.68 0 0 1 1.183.453c.176.078-.035.683-.227.593a24.82 24.82 0 0 1-1.183-.453c-.219-.097.012-.672.226-.593zm-3.493.058c.055.137.39 1.055.446 1.238.058.184-.504.415-.586.207-.079-.203-.325-.976-.399-1.18-.074-.202.48-.402.54-.265zM4.996 8.04c.203.078.996.324 1.203.395.211.066.035.675-.191.601-.23-.074-1-.316-1.211-.39-.207-.079-.008-.68.2-.606zm4.54-4.371c-.735.73-1.286.73-2.02 0-.73.73-1.282.73-2.016 0-.734.73-1.246.73-1.98 0-.73.73-1.32.73-2.055 0-.363.73-.363 1.465-.363 1.832 0 2.2 1.832 4.398 4.398 4.398S9.898 7.7 9.898 5.5c0-.367 0-1.102-.363-1.832zm0 0"/></svg>