<svg xmlns="http://www.w3.org/2000/svg" width="11" height="11"><path style="stroke:none;fill-rule:nonzero;fill:#000;fill-opacity:1" d="M5.5 0C8.523 0 11 2.477 11 5.5S8.54 11 5.5 11 0 8.523 0 5.5 2.477 0 5.5 0zm0 .367A5.126 5.126 0 0 0 .367 5.5 5.126 5.126 0 0 0 5.5 10.633 5.126 5.126 0 0 0 10.633 5.5 5.126 5.126 0 0 0 5.5.367zM8.066 2.2c.368 0 .368.735 0 .735H6.965c-.18 0-1.281-.551-.914-.735zm-3.117 0c.367.184-.734.735-.914.735H2.934c-.368 0-.368-.735 0-.735zM2.934 3.668c.367 0-.184.73-.368.73h-.734c-.367 0-.367-.73 0-.73h1.102zm6.234 0c.367 0 .367.73 0 .73h-.734c-.184 0-.735-.73-.368-.73zm.367 1.465c.363 0 .363.734 0 .734h-.734c-.367 0-.367-.734 0-.734zm-7.336 0c.367 0 .367.734 0 .734h-.734c-.363 0-.363-.734 0-.734zm.367 1.469c.184 0 .735.73.368.73H1.832c-.367 0-.367-.73 0-.73h.734zm6.602 0c.367 0 .367.73 0 .73H8.066c-.367 0 .184-.73.368-.73zM5.5 2.934c1.367 0 2.566 1.199 2.566 2.566 0 1.367-1.199 2.566-2.566 2.566-1.367 0-2.566-1.199-2.566-2.566 0-1.367 1.199-2.566 2.566-2.566zm2.566 5.132c.368 0 .368.735 0 .735H6.051c-.367-.184.734-.735.914-.735zm-4.03 0c.179 0 1.28.551.913.735H2.934c-.368 0-.368-.735 0-.735zM6.417.824s-.184.64-.918.64-.918-.64-.918-.64A4.793 4.793 0 0 0 .734 5.5c0 2.2 1.559 4.215 3.848 4.676 0 0 .184-.64.918-.64.695 0 .918.64.918.64A4.793 4.793 0 0 0 10.266 5.5c0-2.2-1.559-4.215-3.848-4.676zm0 0"/><path style="stroke:none;fill-rule:nonzero;fill:#000;fill-opacity:1" d="M7.516 4.398c.183.391.183.907.183 1.102 0 1.164-.914 2.2-2.199 2.2-1.285 0-2.2-1.036-2.2-2.2 0-.195 0-.71.184-1.102.368.391.66.391 1.028 0 .367.391.62.391.988 0 .367.391.64.391 1.008 0 .367.391.64.391 1.008 0zm-2.27 2.317c-.101-.04-.203.281-.098.32.106.04.493.168.606.207.113.04.2-.285.098-.32a36.93 36.93 0 0 1-.606-.207zm-.754-.527c-.058-.125-.344 0-.289.136.047.102.16.516.203.625.04.11.32-.011.293-.11zm1.73-.036c-.109-.043-.222.262-.117.313.11.05.477.2.594.242.098.047.2-.273.114-.316-.086-.04-.485-.196-.59-.239zm-.734-.949c-.058.125-.238.543-.281.66-.043.121.273.2.309.09.062-.11.18-.418.238-.613.055-.137-.207-.266-.266-.137zM3.79 5.168c-.09-.008-.137.32-.031.336l.629.07c.097.008.14-.32.035-.336-.11-.011-.543-.058-.633-.07zm3.371-.063c-.14.012-.5.047-.625.063-.129.02-.094.363.043.352.133-.016.473-.051.602-.063.125-.016.12-.367-.02-.352zm0 0"/></svg>