<svg xmlns="http://www.w3.org/2000/svg" width="11" height="11"><path style="stroke:none;fill-rule:nonzero;fill:#000;fill-opacity:1" d="M4.398.367v1.098h1.836c.368 0 .368.367.368.367v7.336s0 .367-.368.367H4.398v1.098c0 .367-2.199.367-2.199 0V9.535H.367C0 9.535 0 9.168 0 9.168V1.832s0-.367.367-.367H2.2V.367C2.2 0 4.4 0 4.4.367zM3.301 2.934C1.832 2.934.734 4.035.734 5.5c0 1.465 1.098 2.566 2.567 2.566 1.465 0 2.566-1.101 2.566-2.566 0-1.465-1.101-2.566-2.566-2.566zm0 0"/><path style="stroke:none;fill-rule:nonzero;fill:#000;fill-opacity:1" d="M2.2 6.602h2.198c.368 0 .368.73 0 .73H2.2c-.367 0-.367-.73 0-.73zm-.368-2.567c-.184.18.809 1.172.809 1.172s-.075.145-.075.293c0 .367.278.734.735.734.46 0 .734-.367.734-.734a.723.723 0 0 0-.734-.734c-.223 0-.293.074-.293.074s-.992-.988-1.176-.805zM8.8 3.484c1.098 0 2.016.914 2.016 2.016a2.033 2.033 0 0 1-2.015 2.016A2.03 2.03 0 0 1 6.785 5.5a2.03 2.03 0 0 1 2.016-2.016zm0 .278c-.917 0-1.738.82-1.738 1.738s.82 1.746 1.739 1.746c.914 0 1.746-.828 1.746-1.746S9.715 3.762 8.8 3.762zM7.556 5.367l.46.051c.083.008.051.242-.023.234-.07-.004-.387-.043-.469-.05-.074-.008-.035-.243.032-.235zm2.015 0c.094-.008.36-.027.461-.043.11-.008.11.235.016.25-.094.008-.344.028-.442.043-.101.008-.125-.234-.035-.25zm-.812.031c.027-.066.234-.007.203.079a5.87 5.87 0 0 1-.14.441c-.028.074-.255.023-.227-.059.039-.09.14-.394.164-.46zm.586.66c.078.028.37.137.437.169.059.02-.011.25-.086.21-.09-.027-.351-.128-.433-.16-.082-.035 0-.25.082-.218zm-1.293.02c.023.05.148.39.168.457.023.067-.18.152-.211.078-.035-.078-.125-.367-.153-.437-.023-.074.184-.149.196-.098zm.574.367c.078.032.367.125.445.149.075.02.008.25-.074.218-.078-.023-.363-.117-.445-.14-.074-.027 0-.254.074-.227zm1.64-1.582c-.183.27-.453.27-.73 0-.273.27-.457.27-.734 0-.274.27-.457.27-.735 0-.27.27-.453.27-.734 0-.078.293-.086.637-.086.637 0 .828.637 1.563 1.555 1.563.914 0 1.562-.735 1.562-1.563 0 0 0-.367-.097-.637zm0 0"/></svg>