<svg xmlns="http://www.w3.org/2000/svg" width="11" height="11"><path style="stroke:none;fill-rule:nonzero;fill:#000;fill-opacity:1" d="M6.602.367v.367h2.566c.367 0 .367.368.367.368v8.796s0 .368-.367.368H6.602v.367c0 .367-2.204.367-2.204 0v-.367H1.832c-.367 0-.367-.368-.367-.368V1.102s0-.368.367-.368h2.566V.367c0-.367 2.204-.367 2.204 0zM5.5 2.2A3.29 3.29 0 0 0 2.2 5.5a3.29 3.29 0 0 0 3.3 3.3 3.29 3.29 0 0 0 3.3-3.3 3.29 3.29 0 0 0-3.3-3.3zm0 0"/><path style="stroke:none;fill-rule:nonzero;fill:#000;fill-opacity:1" d="M3.23 5.2c.118.01.708.07.852.09.145.015.09.437-.043.425-.133-.012-.71-.07-.855-.09-.141-.016-.075-.441.046-.426zm3.711 0c.172-.024.657-.063.848-.083.188-.015.195.434.024.45A80.27 80.27 0 0 0 7 5.644c-.18.015-.23-.422-.059-.446zm-1.5.054c.047-.133.426-.02.383.137-.05.164-.21.675-.261.812-.047.137-.473.04-.415-.113.059-.152.254-.723.293-.836zM6.52 6.457c.144.05.683.254.8.305.117.05-.023.46-.152.402a14.974 14.974 0 0 1-.805-.309c-.144-.062.008-.453.157-.398zm-2.364.04c.04.093.262.71.301.835.04.125-.34.281-.394.14-.055-.136-.223-.66-.27-.796-.05-.14.324-.274.363-.18zm1.047.679c.137.05.672.219.817.265.14.043.02.457-.133.407-.157-.051-.676-.215-.817-.266-.144-.05-.008-.457.133-.406zM8.25 4.215c-.55.55-.824.55-1.375 0-.55.55-.824.55-1.375 0-.55.55-.824.55-1.375 0-.55.55-.824.55-1.375 0-.184.55-.184 1.101-.184 1.285 0 1.465 1.286 2.934 2.934 2.934 1.648 0 2.934-1.47 2.934-2.934 0 0 0-.734-.184-1.285zm0 0"/></svg>