<svg xmlns="http://www.w3.org/2000/svg" width="11" height="11"><path style="stroke:none;fill-rule:nonzero;fill:#000;fill-opacity:1" d="m5.578 7.965.129-.633H3.094l.242 1.2c.352.288.707.257 1.062-.098.395-.395.79-.551 1.18-.47zm1.024-6.5v.734h.73c.813 0 1.469.656 1.469 1.469v6.598H7.332V3.668h-2.2v1.465H5.5c.203 0 .367.164.367.367v.367H2.934V5.5c0-.203.164-.367.367-.367h.367V3.668c0-.734.73-1.469 1.465-1.469h.734v-.734H4.766a.366.366 0 1 1 0-.73h2.933a.366.366 0 1 1 0 .73zM2.199 6.602h4.403l-.618 3.074a.735.735 0 0 1-.718.59h-1.73a.729.729 0 0 1-.72-.59zm0 0"/></svg>