<svg xmlns="http://www.w3.org/2000/svg" width="11" height="11"><path style="stroke:none;fill-rule:nonzero;fill:#000;fill-opacity:1" d="M5.5 0C8.523 0 11 2.477 11 5.5S8.54 11 5.5 11 0 8.523 0 5.5 2.477 0 5.5 0zm0 .367A5.126 5.126 0 0 0 .367 5.5 5.126 5.126 0 0 0 5.5 10.633 5.126 5.126 0 0 0 10.633 5.5 5.126 5.126 0 0 0 5.5.367zM8.066 2.2c.368 0 .368.735 0 .735H6.965c-.18 0-1.281-.551-.914-.735zm-3.117 0c.367.184-.734.735-.914.735H2.934c-.368 0-.368-.735 0-.735zM2.934 3.668c.367 0-.184.73-.368.73h-.734c-.367 0-.367-.73 0-.73h1.102zm6.234 0c.367 0 .367.73 0 .73h-.734c-.184 0-.735-.73-.368-.73zm.367 1.465c.363 0 .363.734 0 .734h-.734c-.367 0-.367-.734 0-.734zm-7.336 0c.367 0 .367.734 0 .734h-.734c-.363 0-.363-.734 0-.734zm.367 1.469c.184 0 .735.73.368.73H1.832c-.367 0-.367-.73 0-.73h.734zm6.602 0c.367 0 .367.73 0 .73H8.066c-.367 0 .184-.73.368-.73zM5.5 2.934c1.367 0 2.566 1.199 2.566 2.566 0 1.367-1.199 2.566-2.566 2.566-1.367 0-2.566-1.199-2.566-2.566 0-1.367 1.199-2.566 2.566-2.566zm2.566 5.132c.368 0 .368.735 0 .735H6.051c-.367-.184.734-.735.914-.735zm-4.03 0c.179 0 1.28.551.913.735H2.934c-.368 0-.368-.735 0-.735zM6.417.824s-.184.64-.918.64-.918-.64-.918-.64A4.793 4.793 0 0 0 .734 5.5c0 2.2 1.559 4.215 3.848 4.676 0 0 .184-.64.918-.64.695 0 .918.64.918.64A4.793 4.793 0 0 0 10.266 5.5c0-2.2-1.559-4.215-3.848-4.676zm0 0"/><path style="stroke:none;fill-rule:nonzero;fill:#000;fill-opacity:1" d="M5.5 3.484c.184 0 1.465 1.832 1.465 2.75 0 .73-.73 1.282-1.465 1.282-.734 0-1.465-.551-1.465-1.282 0-.918 1.281-2.75 1.465-2.75zm-1.285 2.75c0 .551.55 1.098 1.285 1.098-.55-.184-.918-.547-1.285-1.098zm0 0"/></svg>