<svg xmlns="http://www.w3.org/2000/svg" width="11" height="11"><path style="stroke:none;fill-rule:nonzero;fill:#000;fill-opacity:1" d="M9.168 2.566c.184 0 1.832 2.2 1.832 3.668 0 1.098-1.102 1.832-1.832 1.832-.734 0-1.836-.734-1.836-1.832 0-1.468 1.652-3.668 1.836-3.668zM7.699 6.234c0 .73.735 1.465 1.469 1.465-.734-.367-1.102-.734-1.469-1.465zM4.398.367v1.098h1.836c.368 0 .368.367.368.367v7.336s0 .367-.368.367H4.398v1.098c0 .367-2.199.367-2.199 0V9.535H.367C0 9.535 0 9.168 0 9.168V1.832s0-.367.367-.367H2.2V.367C2.2 0 4.4 0 4.4.367zM3.301 2.75C1.648 2.75.55 3.852.55 5.5S1.648 8.25 3.3 8.25c1.648 0 2.75-1.102 2.75-2.75S4.949 2.75 3.3 2.75zm0 0"/><path style="stroke:none;fill-rule:nonzero;fill:#000;fill-opacity:1" d="M3.3 3.3c1.247 0 2.2 1.028 2.2 2.2 0 1.172-.953 2.2-2.2 2.2-1.245 0-2.198-.954-2.198-2.2 0-1.246.953-2.2 2.199-2.2zm-.44 2.712-.844.59s.406.585 1.285.585c.879 0 1.281-.585 1.281-.585l-.844-.59a.77.77 0 0 1-.879 0zm.148-2.2c-.735.149-1.395.88-1.395 1.688 0 .457.13.64.13.64l.898-.566s-.075-.441.367-.66V3.813zm.586 0v1.102c.441.219.367.66.367.66l.898.567s.13-.2.13-.641c0-.809-.66-1.54-1.395-1.688zm0 0"/></svg>