<svg xmlns="http://www.w3.org/2000/svg" width="11" height="11"><path d="M.55 3.438h9.9c.304 0 .55-.102.55-.231 0-.758-1.477-1.375-3.3-1.375V.918c.609 0 1.1-.207 1.1-.461C8.8.207 8.31 0 7.7 0H3.3c-.609 0-1.1.207-1.1.457 0 .254.491.461 1.1.461v.914c-1.823 0-3.3.617-3.3 1.375 0 .129.246.23.55.23ZM.55 4.125h9.9c.304 0 .55.102.55.23v.457c0 .125-.246.231-.55.231H.55c-.304 0-.55-.106-.55-.23v-.458c0-.128.246-.23.55-.23ZM.55 5.73h9.9c.304 0 .55.102.55.227v.461c0 .125-.246.227-.55.227H.55c-.304 0-.55-.102-.55-.227v-.461c0-.125.246-.227.55-.227ZM10.45 7.332H.55c-.304 0-.55.106-.55.23v2.981c0 .25.492.457 1.102.457h8.796c.61 0 1.102-.207 1.102-.457v-2.98c0-.125-.246-.231-.55-.231Zm0 0" style="stroke:none;fill-rule:nonzero;fill:#000;fill-opacity:1"/></svg>