<svg xmlns="http://www.w3.org/2000/svg" width="11" height="11"><path style="stroke:none;fill-rule:nonzero;fill:#000;fill-opacity:1" d="M6.516 9.559c.074-.016.148-.02.226-.02.235 0 .461.055.664.149a1.586 1.586 0 0 0 1.285 0c.2-.094.426-.149.66-.149.239 0 .415.055.614.149.195.085.37.136.594.136v.957c-.223 0-.399-.05-.594-.14a1.51 1.51 0 0 0-.637-.149c-.234 0-.45.059-.648.149-.196.086-.407.14-.637.14-.23 0-.445-.05-.637-.14a1.632 1.632 0 0 0-.66-.149c-.234 0-.46.059-.664.149a1.54 1.54 0 0 1-1.285 0c-.2-.09-.422-.149-.66-.149-.239 0-.461.059-.664.149a1.536 1.536 0 0 1-1.281 0 1.65 1.65 0 0 0-.665-.149c-.234 0-.46.059-.66.149-.195.086-.414.14-.644.14v-.957c.23 0 .449-.05.644-.136a1.557 1.557 0 0 1 1.324 0 1.582 1.582 0 0 0 1.281 0c.118-.051.235-.094.36-.118l6.082-1.074c.2-.047.469-.184.559-.418.02-.047.086-.058.14-.058a.191.191 0 0 1 .172.19c0 .153-.12.59-.785.724l-3.48.625zm-5.278-7.59a.88.88 0 0 0 .88-.88.876.876 0 0 0-.88-.87.874.874 0 0 0-.879.87.88.88 0 0 0 .88.88zm2.559 7.058c.043.192.281.38.527.38l-.004.003c.309 0 .563-.25.563-.558l-.012-.09L4.2 5.906a.74.74 0 0 0-.41-.43l-.984-.585-.45-1.926 2.77-.004c.227 0 .41-.152.41-.379 0-.223-.183-.379-.41-.379h-4c-.402 0-.586.258-.54.504l.571 2.54a.75.75 0 0 0 .414.538l.016.004 1.648.961.563 2.281zm1.922-6.386h5.062v.218H5.72zm0 0"/></svg>