<svg xmlns="http://www.w3.org/2000/svg" width="11" height="11"><path style="stroke:none;fill-rule:nonzero;fill:#000;fill-opacity:1" d="M6.516 9.555a1.561 1.561 0 0 1 .89.133c.196.082.414.136.64.136.231 0 .45-.054.645-.136a1.57 1.57 0 0 1 .66-.149c.239 0 .415.055.618.149.195.082.37.136.59.136v.957c-.22 0-.395-.05-.59-.14a1.525 1.525 0 0 0-.64-.145c-.235 0-.45.055-.65.145a1.518 1.518 0 0 1-1.277 0c-.199-.09-.425-.145-.66-.145-.234 0-.46.055-.664.145a1.522 1.522 0 0 1-1.281 0 1.62 1.62 0 0 0-.664-.145c-.235 0-.461.055-.66.145a1.536 1.536 0 0 1-1.285 0 1.648 1.648 0 0 0-.665-.145c-.234 0-.46.055-.66.145a1.54 1.54 0 0 1-.644.14v-.957c.23 0 .449-.054.644-.136a1.557 1.557 0 0 1 1.325 0c.195.082.414.136.644.136.227 0 .445-.054.64-.136.114-.055.231-.094.356-.118L9.91 8.492c.2-.047.469-.18.559-.418.02-.043.086-.054.14-.054a.191.191 0 0 1 .172.19c0 .153-.12.587-.785.724zM1.238 1.969a.88.88 0 0 0 .88-.875.877.877 0 0 0-.88-.875.874.874 0 1 0 0 1.75zm2.559 7.058c.043.196.281.38.527.38l-.004.003c.309 0 .563-.25.563-.558l-.012-.09L4.2 5.906a.74.74 0 0 0-.41-.43l-.984-.59-.45-1.921 2.77-.008c.227 0 .41-.152.41-.375 0-.227-.183-.383-.41-.383h-4c-.398 0-.586.258-.54.504l.567 2.54a.771.771 0 0 0 .418.542h.012l1.648.961zm1.922-6.386h5.062v.218H5.72zm0 0"/></svg>