<svg xmlns="http://www.w3.org/2000/svg" width="11" height="11"><path d="M6.602.367v.367h2.566c.367 0 .367.368.367.368v8.796s0 .368-.367.368H6.602v.367c0 .367-2.204.367-2.204 0v-.367H1.832c-.367 0-.367-.368-.367-.368V1.102s0-.368.367-.368h2.566V.367c0-.367 2.204-.367 2.204 0ZM5.5 2.2A3.29 3.29 0 0 0 2.2 5.5a3.29 3.29 0 0 0 3.3 3.3 3.29 3.29 0 0 0 3.3-3.3 3.29 3.29 0 0 0-3.3-3.3Zm0 0" style="stroke:none;fill-rule:nonzero;fill:#000;fill-opacity:1"/><path d="M5.5 2.934c.184 0 1.832 2.199 1.832 3.3 0 1.098-1.098 1.832-1.832 1.832s-1.832-.734-1.832-1.832c0-1.101 1.648-3.3 1.832-3.3Zm-1.465 3.3c0 .73.73 1.465 1.465 1.465-.734-.367-1.102-.734-1.465-1.465Zm0 0" style="stroke:none;fill-rule:nonzero;fill:#000;fill-opacity:1"/></svg>