<svg xmlns="http://www.w3.org/2000/svg" width="16" height="8" viewBox="9.384 4 16 8" xml:space="preserve"><path fill="rgba(50,50,50,0.05)" d="M21.936 6.262a.743.743 0 0 0-.706-.421.735.735 0 0 0-.655.497c-.367 1.071-2.339 2.204-3.193 2.204-2.326 0-3.405-2.191-3.449-2.28a.737.737 0 0 0-1.362.076c-.366 1.071-2.339 2.204-3.191 2.204v1.471c1.067 0 2.869-.86 3.908-2.068.729.908 2.059 2.068 4.094 2.068 1.067 0 2.87-.86 3.909-2.068.729.908 2.059 2.068 4.094 2.068v-1.47c-2.326 0-3.406-2.191-3.449-2.281z"/></svg>