<svg xmlns="http://www.w3.org/2000/svg" width="11" height="11"><path style="stroke:none;fill-rule:nonzero;fill:#000;fill-opacity:1" d="M3.668 1.465H2.566a.366.366 0 1 1 0-.73H5.5a.366.366 0 1 1 0 .73H4.398v.734h.735a1.47 1.47 0 0 1 1.469 1.469v2.2l3.074.612c.344.07.59.372.59.723v.129H7.699a.367.367 0 1 0 0 .734h2.567v.735H7.699a.367.367 0 1 0 0 .734h2.567c0 .402-.329.73-.73.73H5.132c-.977-.488-1.465-1.222-1.465-2.199 0-.976.488-1.71 1.465-2.199V3.668h-2.2v1.465h.368c.203 0 .367.164.367.367v.367H.734V5.5c0-.203.164-.367.368-.367h.363V3.668c0-.734.734-1.469 1.469-1.469h.734zm0 0"/></svg>