<svg xmlns="http://www.w3.org/2000/svg" width="11" height="11"><path d="M3.668 1.465H2.566c-.183 0-.367-.18-.367-.363 0-.184.184-.368.367-.368H5.5c.184 0 .367.184.367.368 0 .183-.183.363-.367.363H4.398v.734h.735c.808 0 1.469.66 1.469 1.469v2.2l3.078.585c.336.074.586.39.586.734v.145H7.699a.395.395 0 0 0-.367.367c0 .184.184.367.367.367h2.567v.735H7.699a.395.395 0 0 0-.367.367c0 .184.184.367.367.367h2.567c0 .363-.368.73-.73.73H5.132c-.977-.492-1.465-1.222-1.465-2.199 0-.976.488-1.707 1.465-2.199V3.668h-2.2v1.465h.368c.183 0 .367.183.367.367v.367H.734V5.5c0-.184.184-.367.368-.367h.363V3.668c0-.734.734-1.469 1.469-1.469h.734Zm0 0" style="stroke:none;fill-rule:nonzero;fill:#000;fill-opacity:1"/></svg>