<svg xmlns="http://www.w3.org/2000/svg" width="11" height="11"><path style="stroke:none;fill-rule:nonzero;fill:#000;fill-opacity:1" d="M10.559 10.781c-.22 0-.434-.05-.621-.136a1.48 1.48 0 0 0-.641-.145c-.23 0-.45.05-.645.145a1.504 1.504 0 0 1-.62.136c-.223 0-.438-.05-.626-.136a1.485 1.485 0 0 0-.644-.145c-.227 0-.446.05-.64.145a1.508 1.508 0 0 1-.626.136c-.219 0-.434-.05-.621-.136a1.498 1.498 0 0 0-1.285 0 1.49 1.49 0 0 1-1.242 0 1.485 1.485 0 0 0-.645-.145c-.226 0-.445.05-.64.145a1.504 1.504 0 0 1-.622.136V9.84c.22 0 .434-.05.622-.137.195-.09.414-.144.64-.144.23 0 .45.054.645.144a1.49 1.49 0 0 0 1.242 0c.195-.09.418-.144.644-.144.227 0 .446.054.641.144.188.086.402.137.621.137.223 0 .438-.05.625-.137.195-.09.414-.144.64-.144.231 0 .45.054.645.144.188.086.403.137.625.137.219 0 .434-.05.621-.137.196-.09.414-.144.645-.144.226 0 .445.054.64.144.188.086.403.137.622.137zM6.473 8.836a1.54 1.54 0 0 1 .934.113c.187.086.402.137.624.137.219 0 .434-.05.621-.137.133-.062.278-.11.43-.129-.082-2.523-2.7-4.777-2.82-4.894a.678.678 0 0 1-.164-.672l.625-2.082c.109-.32.054-.754-.098-.883-.09-.07-.273-.121-.402.024l-1.688 1.93c-.37.394-.062.82-.07.816-.574-.207-1.25-.067-1.66.101l-1.395.715c-.137.059-.2.234-.125.355.23.372 1 .375 2.602.2 2.586-.282 2.59 3.894 2.586 4.406zm0 0"/></svg>