<svg xmlns="http://www.w3.org/2000/svg" width="11" height="11"><path style="stroke:none;fill-rule:nonzero;fill:#000;fill-opacity:1" d="M5.5 0C8.617 0 11 2.566 11 5.5S8.617 11 5.5 11 0 8.617 0 5.5 2.383 0 5.5 0zM4.398 6.785 2.297 8.25S3.3 9.715 5.5 9.715c2.2 0 3.21-1.465 3.21-1.465L6.603 6.785c-.692.461-1.512.461-2.204 0zm.368-5.5c-1.832.363-3.48 2.2-3.48 4.215 0 1.145.32 1.605.32 1.605l2.246-1.421s-.184-1.102.914-1.649v-2.75zm1.468 0v2.75c1.098.547.914 1.649.914 1.649l2.247 1.421s.32-.503.32-1.605c0-2.016-1.649-3.852-3.48-4.215zm0 0"/></svg>