<svg xmlns="http://www.w3.org/2000/svg" width="11" height="11"><path style="stroke:none;fill-rule:nonzero;fill:#000;fill-opacity:1" d="m3.652 2.066.309-.37a.64.64 0 0 1 .789-.157l3.328 1.762a.635.635 0 0 1 .2.96l-.794.997 1.934.48c.34.086.547.434.46.774l-.901 3.613a.512.512 0 0 1-.855.238 1.6 1.6 0 0 1-.419-1.515l.418-1.676H6.68a2.87 2.87 0 1 1-2.707-1.914c.168 0 .328.012.488.039L5.566 3.66l-.812-.406-.953 1.18a.8.8 0 0 1-1.242-1.008zm4.434.61a1.339 1.339 0 1 1-.002-2.678 1.339 1.339 0 0 1 .002 2.678zM3.973 9.402a1.278 1.278 0 1 0-.001-2.555 1.278 1.278 0 0 0 0 2.555zm0 0"/></svg>