<svg xmlns="http://www.w3.org/2000/svg" width="11" height="11"><path style="stroke:none;fill-rule:nonzero;fill:#000;fill-opacity:1" d="m3.652 2.066.309-.37a.65.65 0 0 1 .793-.157l3.32 1.762a.632.632 0 0 1 .207.96l-.8.997 1.933.484a.63.63 0 0 1 .465.77l-.902 3.617a.523.523 0 0 1-.133.234.524.524 0 0 1-.727 0A1.602 1.602 0 0 1 7.7 8.852l.418-1.68H6.68a2.87 2.87 0 1 1-5.578.953 2.868 2.868 0 0 1 2.875-2.867c.16 0 .328.015.48.035l1.11-1.633-.813-.402-.957 1.18a.81.81 0 0 1-1.121.117.805.805 0 0 1-.117-1.13zm4.438.61a1.341 1.341 0 0 1-1.344-1.332C6.746.602 7.348 0 8.09 0a1.339 1.339 0 0 1 0 2.676zM3.977 9.402a1.277 1.277 0 0 0 0-2.554 1.278 1.278 0 0 0 0 2.554zm0 0"/></svg>