<svg xmlns="http://www.w3.org/2000/svg" width="11" height="11"><path style="stroke:none;fill-rule:nonzero;fill:#000;fill-opacity:1" d="m6.68 5.5 1.37 5.04a.356.356 0 0 1-.253.444.356.356 0 0 1-.426-.191l-.023-.063-.328-1.195H5.867V11h-.734V9.535H3.98l-.328 1.195a.36.36 0 0 1-.449.254.358.358 0 0 1-.27-.379l.016-.066L4.32 5.5zm-1.547.367H4.98l-.8 2.934h.953zm.887 0h-.153v2.934h.953zM6.137 0c.082 0 .148.066.148.148 0 .02-.008.036-.015.059l-.66 1.598c.132.015.25.066.35.144L6.63.352A.152.152 0 0 1 6.82.27a.15.15 0 0 1 .043.03l.903.903c.05.05.05.145 0 .203a.112.112 0 0 1-.051.032l-1.598.667a.676.676 0 0 1 .145.352l1.601-.66a.141.141 0 0 1 .188.082.11.11 0 0 1 .015.05v1.274a.148.148 0 0 1-.144.149c-.024 0-.04-.008-.059-.016l-1.601-.66a.676.676 0 0 1-.145.351l1.598.668c.074.032.11.118.082.192-.008.015-.024.027-.031.043l-.903.902a.154.154 0 0 1-.203 0 .112.112 0 0 1-.031-.05L5.96 3.183a.67.67 0 0 1-.352.144l.66 1.602a.141.141 0 0 1-.082.187.11.11 0 0 1-.05.016H4.87a.143.143 0 0 1-.148-.145c0-.023 0-.039.007-.058l.66-1.602a.645.645 0 0 1-.35-.144L4.37 4.78a.152.152 0 0 1-.191.082.15.15 0 0 1-.043-.031l-.903-.902a.154.154 0 0 1 0-.203.112.112 0 0 1 .051-.032l1.598-.668a.704.704 0 0 1-.145-.351l-1.601.66a.143.143 0 0 1-.188-.078.145.145 0 0 1-.015-.059V1.938c0-.09.066-.149.144-.149.024 0 .04 0 .059.008l1.601.66a.676.676 0 0 1 .145-.352l-1.598-.667a.152.152 0 0 1-.082-.192.15.15 0 0 1 .031-.043l.903-.902a.154.154 0 0 1 .203 0 .112.112 0 0 1 .031.05L5.04 1.95a.676.676 0 0 1 .352-.144L4.73.207a.144.144 0 0 1 .082-.191.11.11 0 0 1 .05-.016zM0 1.465l2.566.734v.735L0 3.668l.734-1.102zm0 0"/></svg>