<svg xmlns="http://www.w3.org/2000/svg" width="11" height="11"><path style="stroke:none;fill-rule:nonzero;fill:#000;fill-opacity:1" d="m6.68 5.5 1.375 5.035a.373.373 0 0 1-.258.453.365.365 0 0 1-.426-.195l-.023-.063-.328-1.195H5.867V11h-.734V9.535H3.98l-.328 1.195a.367.367 0 0 1-.718-.128l.011-.067L4.32 5.5zm-1.547.367H4.98l-.8 2.934h.953zm.887 0h-.153v2.934h.953zM6.133 0c.082 0 .148.066.148.148a.153.153 0 0 1-.011.055l-.665 1.598c.133.02.258.07.36.148L6.629.352A.15.15 0 0 1 6.82.27c.016.007.032.02.047.035l.895.894a.144.144 0 0 1 0 .207.107.107 0 0 1-.047.035l-1.598.66a.76.76 0 0 1 .149.356l1.597-.66a.146.146 0 0 1 .203.137v1.265a.148.148 0 0 1-.144.149.157.157 0 0 1-.059-.012l-1.597-.66a.76.76 0 0 1-.149.355l1.598.664c.074.032.11.118.082.192a.184.184 0 0 1-.035.047l-.895.898a.151.151 0 0 1-.207 0 .1.1 0 0 1-.031-.05l-.664-1.598a.76.76 0 0 1-.356.148l.66 1.598a.146.146 0 0 1-.136.203H4.867a.148.148 0 0 1-.148-.145c0-.02.004-.039.011-.058l.66-1.598a.76.76 0 0 1-.355-.148L4.371 4.78a.146.146 0 0 1-.191.082.184.184 0 0 1-.047-.035l-.895-.894a.144.144 0 0 1 0-.207.078.078 0 0 1 .047-.032l1.598-.664a.76.76 0 0 1-.149-.355l-1.597.66a.146.146 0 0 1-.203-.137V1.934c0-.082.066-.149.144-.149.02 0 .04.004.059.012l1.597.66a.76.76 0 0 1 .149-.355l-1.598-.66a.151.151 0 0 1-.082-.196.184.184 0 0 1 .035-.047l.895-.894a.144.144 0 0 1 .207 0 .078.078 0 0 1 .031.047l.664 1.597a.76.76 0 0 1 .356-.148L4.73.203A.146.146 0 0 1 4.866 0zM0 1.465l2.566.734v.735L0 3.668l.734-1.102zm0 0"/></svg>