<svg xmlns="http://www.w3.org/2000/svg" width="11" height="11"><path style="stroke:none;fill-rule:nonzero;fill:#000;fill-opacity:1" d="M10.559 10.781c-.22 0-.434-.05-.621-.136a1.536 1.536 0 0 0-1.282 0 1.522 1.522 0 0 1-.625.136c-.222 0-.433-.05-.625-.136a1.522 1.522 0 0 0-1.281 0 1.504 1.504 0 0 1-.621.136c-.223 0-.434-.05-.625-.136a1.536 1.536 0 0 0-1.281 0 1.522 1.522 0 0 1-.625.136c-.22 0-.434-.05-.621-.136a1.536 1.536 0 0 0-1.282 0 1.522 1.522 0 0 1-.625.136V9.86c.223 0 .434-.05.625-.132.192-.09.41-.141.64-.141.231 0 .446.055.645.14.188.083.403.133.622.133.218 0 .433-.05.62-.132.2-.09.415-.141.645-.141.227 0 .446.055.64.14.192.083.403.133.626.133.222 0 .433-.05.62-.132.196-.09.419-.141.645-.141.227 0 .446.055.641.14.188.083.402.133.621.133.223 0 .434-.05.625-.132a1.536 1.536 0 0 1 1.285 0c.188.082.403.132.621.132v.922zM1.527 5.457c.34 0 .614-.27.614-.602a.607.607 0 0 0-.614-.601c-.34 0-.613.27-.613.601a.61.61 0 0 0 .613.602zm2.696 2.684H2.469c-.258 0-.48-.125-.582-.344l-.649-1.442a.448.448 0 0 1-.023-.144c0-.352.289-.629.644-.629h1.426l.977-.437a.247.247 0 0 1 .097-.02c.168 0 .309.137.309.3a.31.31 0 0 1-.133.25l-1.062.446c-.07.055-.207.04-.207.04h-.641l.54 1.32h1.183c.117 0 .203-.008.273.05l1.16 1.063a.38.38 0 0 1 .02.55c-.153.157-.406.137-.57-.015zm5.465-1.918c.019.039.074.054.124.054a.18.18 0 0 0 .18-.18.259.259 0 0 0-.047-.128C8.852 3.91 5.891 4.523 5.527 4.656c-.058.024-.093.09-.093.157 0 .097.082.175.18.175.03 0 .046 0 .07-.008 2.902-.64 3.847.985 4.003 1.247zm.503.187-3.71 2.305L3.1.223c3.02.394 6.868 2.707 7.09 6.187zm0 0"/></svg>