<svg xmlns="http://www.w3.org/2000/svg" width="11" height="11"><path style="stroke:none;fill-rule:nonzero;fill:#000;fill-opacity:1" d="M10.559 10.781c-.22 0-.434-.05-.621-.136a1.599 1.599 0 0 0-.641-.141c-.23 0-.45.05-.64.14a1.536 1.536 0 0 1-.626.137c-.222 0-.433-.05-.625-.136a1.536 1.536 0 0 0-1.281 0 1.522 1.522 0 0 1-.625.136c-.219 0-.434-.05-.621-.136a1.536 1.536 0 0 0-1.285 0 1.49 1.49 0 0 1-1.246 0 1.536 1.536 0 0 0-1.285 0 1.504 1.504 0 0 1-.622.136V9.86c.22 0 .434-.05.622-.132.195-.086.414-.141.64-.141.23 0 .45.055.645.14.187.086.398.133.62.133.223 0 .434-.05.626-.132.195-.086.414-.141.64-.141.23 0 .446.055.645.14.187.086.398.133.621.133.223 0 .434-.05.621-.132.2-.086.418-.141.645-.141.226 0 .445.055.64.14.192.086.403.133.625.133a1.6 1.6 0 0 0 .625-.132c.192-.086.41-.141.637-.141.23 0 .45.055.645.14.187.086.402.133.62.133zM1.527 5.457a.61.61 0 0 0 .614-.602.61.61 0 0 0-.614-.601c-.34 0-.613.27-.613.601 0 .332.273.602.613.602zm2.696 2.684H2.469c-.258 0-.485-.125-.586-.344l-.649-1.442a.613.613 0 0 1-.02-.144c0-.348.29-.629.645-.629h1.422l.98-.437a.231.231 0 0 1 .098-.02c.168 0 .305.137.305.3a.31.31 0 0 1-.133.25l-1.062.446c-.07.055-.203.04-.203.04h-.641l.535 1.32h1.188c.117 0 .199-.012.27.05L5.78 8.594c.16.148.168.386.02.547-.153.16-.406.136-.57-.012zm5.465-1.918c.019.039.074.05.124.05.098 0 .18-.078.18-.175 0-.047-.023-.09-.043-.13C8.852 3.91 5.891 4.52 5.531 4.657c-.062.024-.097.09-.097.157 0 .093.082.175.18.175.03 0 .042-.004.07-.011 2.902-.641 3.847.984 4.003 1.246zm.503.187-3.71 2.3L3.097.22c3.027.394 6.87 2.707 7.093 6.191zm0 0"/></svg>