<svg width="609" height="609" viewBox="0 0 609 609" fill="none" xmlns="http://www.w3.org/2000/svg">
<rect width="609" height="609" fill="#EB5757"/>
<mask id="mask0_1702_220" style="mask-type:alpha" maskUnits="userSpaceOnUse" x="0" y="0" width="609" height="609">
<rect width="609" height="609" fill="white"/>
</mask>
<g mask="url(#mask0_1702_220)">
<path d="M660.777 72.35C671.012 65.8022 684.617 68.7914 691.165 79.0264C697.713 89.2614 694.724 102.867 684.489 109.414L660.777 72.35ZM427.551 177.006C407.546 162.076 381.812 155.948 359.042 159.312C336.693 162.613 318.426 174.688 309.456 195.501L269.049 178.086C285.041 140.983 317.816 120.925 352.611 115.784C386.986 110.706 424.499 119.826 453.868 141.743L427.551 177.006ZM300.305 264.078C300.494 242.079 300.476 242.078 300.458 242.078C300.452 242.078 300.434 242.078 300.423 242.078C300.401 242.078 300.381 242.078 300.362 242.078C300.324 242.078 300.292 242.078 300.267 242.078C300.217 242.078 300.192 242.079 300.192 242.079C300.193 242.079 300.296 242.077 300.504 242.067C300.92 242.049 301.755 242 303.027 241.877C305.571 241.631 309.862 241.088 316.044 239.893C328.414 237.502 348.321 232.506 376.902 222.084C434.104 201.224 525.733 158.743 660.777 72.35L684.489 109.414C547.454 197.081 452.918 241.198 391.976 263.421C361.485 274.54 339.325 280.207 324.395 283.093C316.928 284.537 311.261 285.286 307.26 285.673C305.26 285.866 303.675 285.969 302.49 286.023C301.897 286.049 301.404 286.064 301.009 286.071C300.811 286.075 300.638 286.077 300.489 286.077C300.415 286.078 300.347 286.078 300.284 286.078C300.253 286.078 300.223 286.078 300.195 286.077C300.181 286.077 300.161 286.077 300.154 286.077C300.134 286.077 300.115 286.077 300.305 264.078ZM298.106 346.244C308.01 335.837 321.366 330.605 332.715 327.226C344.002 323.867 357.844 321.177 369.229 318.547C394.126 312.794 415.208 305.676 429.784 289.305L462.646 318.564C438.155 346.071 404.755 355.498 379.134 361.417C365.26 364.623 354.835 366.55 345.268 369.398C335.764 372.227 331.68 374.79 329.98 376.576L298.106 346.244ZM429.784 289.305C446.228 270.836 454.695 248.994 454.628 229.092C454.563 209.769 446.544 191.18 427.551 177.006L453.868 141.743C484.249 164.417 498.517 196.168 498.628 228.943C498.737 261.139 485.27 293.154 462.646 318.564L429.784 289.305ZM309.456 195.501C305.469 204.752 304.454 217.7 306.754 233.901C309.016 249.832 314.197 266.927 320.419 283.041C326.601 299.053 333.563 313.464 339.006 323.907C341.718 329.108 344.029 333.278 345.642 336.114C346.447 337.531 347.077 338.613 347.494 339.32C347.702 339.674 347.857 339.934 347.954 340.095C348.002 340.176 348.036 340.232 348.054 340.263C348.064 340.279 348.069 340.288 348.071 340.291C348.072 340.292 348.072 340.292 348.071 340.29C348.07 340.289 348.068 340.287 348.068 340.286C348.066 340.283 348.064 340.28 329.26 351.699C310.456 363.118 310.453 363.114 310.45 363.109C310.449 363.107 310.446 363.102 310.443 363.098C310.438 363.09 310.432 363.08 310.425 363.068C310.411 363.045 310.393 363.015 310.372 362.979C310.328 362.907 310.269 362.809 310.195 362.685C310.047 362.438 309.84 362.091 309.579 361.646C309.056 360.758 308.314 359.484 307.392 357.863C305.55 354.622 302.979 349.981 299.99 344.247C294.032 332.819 286.312 316.863 279.372 298.889C272.471 281.016 266.09 260.505 263.191 240.086C260.33 219.937 260.555 197.794 269.049 178.086L309.456 195.501Z" fill="white"/>
<path d="M-49.3886 537.166C-59.6237 543.713 -73.2288 540.724 -79.7765 530.489C-86.3243 520.254 -83.3352 506.649 -73.1001 500.101L-49.3886 537.166ZM183.837 432.51C203.843 447.44 229.576 453.568 252.347 450.204C274.696 446.902 292.962 434.827 301.933 414.014L342.34 431.43C326.348 468.533 293.573 488.591 258.777 493.732C224.403 498.81 186.889 489.69 157.521 467.772L183.837 432.51ZM311.084 345.438C310.894 367.437 310.913 367.437 310.931 367.437C310.937 367.437 310.954 367.438 310.965 367.438C310.987 367.438 311.008 367.438 311.027 367.438C311.065 367.438 311.096 367.438 311.121 367.438C311.172 367.437 311.197 367.437 311.197 367.437C311.196 367.437 311.092 367.439 310.884 367.448C310.468 367.467 309.634 367.516 308.362 367.639C305.818 367.885 301.526 368.428 295.345 369.623C282.975 372.014 263.068 377.009 234.487 387.432C177.284 408.291 85.6561 450.772 -49.3886 537.166L-73.1001 500.101C63.9347 412.435 158.471 368.318 219.413 346.095C249.904 334.976 272.064 329.309 286.993 326.422C294.461 324.979 300.127 324.23 304.128 323.843C306.129 323.649 307.714 323.547 308.899 323.493C309.492 323.466 309.985 323.452 310.38 323.445C310.577 323.441 310.75 323.439 310.899 323.438C310.974 323.438 311.042 323.438 311.105 323.438C311.136 323.438 311.165 323.438 311.194 323.438C311.208 323.438 311.228 323.438 311.235 323.438C311.254 323.439 311.274 323.439 311.084 345.438ZM313.283 263.271C303.379 273.678 290.023 278.911 278.673 282.289C267.387 285.649 253.545 288.339 242.16 290.969C217.263 296.721 196.181 303.839 181.604 320.211L148.742 290.952C173.233 263.445 206.634 254.018 232.255 248.098C246.128 244.893 256.554 242.965 266.121 240.118C275.625 237.289 279.709 234.725 281.408 232.939L313.283 263.271ZM181.604 320.211C165.16 338.68 156.693 360.521 156.761 380.424C156.826 399.747 164.845 418.336 183.837 432.51L157.521 467.772C127.139 445.099 112.872 413.347 112.761 380.573C112.652 348.377 126.119 316.362 148.742 290.952L181.604 320.211ZM301.933 414.014C305.92 404.764 306.935 391.815 304.635 375.615C302.373 359.684 297.192 342.589 290.97 326.475C284.788 310.462 277.826 296.051 272.382 285.609C269.67 280.407 267.36 276.238 265.747 273.401C264.941 271.984 264.311 270.903 263.895 270.196C263.687 269.842 263.532 269.582 263.435 269.42C263.387 269.339 263.353 269.283 263.334 269.252C263.325 269.237 263.319 269.228 263.318 269.225C263.317 269.224 263.317 269.224 263.318 269.226C263.319 269.226 263.32 269.229 263.321 269.229C263.322 269.232 263.324 269.236 282.129 257.817C300.933 246.398 300.936 246.402 300.938 246.406C300.94 246.408 300.943 246.413 300.945 246.418C300.95 246.426 300.956 246.436 300.963 246.447C300.977 246.471 300.995 246.5 301.017 246.537C301.061 246.609 301.12 246.707 301.194 246.83C301.341 247.077 301.548 247.425 301.81 247.869C302.333 248.757 303.074 250.031 303.996 251.653C305.839 254.894 308.409 259.535 311.398 265.268C317.356 276.696 325.077 292.652 332.017 310.627C338.918 328.5 345.299 349.011 348.198 369.429C351.059 389.578 350.834 411.722 342.34 431.43L301.933 414.014Z" fill="white"/>
</g>
</svg>
