<svg xmlns="http://www.w3.org/2000/svg" width="11" height="11"><path d="m6.234 3.203-1.468.184V1.465a.735.735 0 0 1 1.468 0Zm0 1.844v5.219H4.766V5.23ZM3.301 3.559a.739.739 0 0 1-.735-.735c0-.402.332-.734.735-.734.402 0 .734.332.734.734a.739.739 0 0 1-.734.735Zm4.398-.59a.735.735 0 0 1-.734-.73c0-.407.332-.735.734-.735.403 0 .735.328.735.734 0 .403-.332.73-.735.73Zm-4.398 3.96a.736.736 0 0 1-.735-.734.735.735 0 0 1 1.47 0 .736.736 0 0 1-.735.735Zm4.398-.585a.739.739 0 0 1-.734-.735c0-.402.332-.734.734-.734.403 0 .735.332.735.734a.739.739 0 0 1-.735.735ZM1.145 5.133a.37.37 0 0 1-.41-.32.377.377 0 0 1 .32-.415l8.8-1.097a.37.37 0 0 1 .41.32.377.377 0 0 1-.32.414Zm0 0" style="stroke:none;fill-rule:nonzero;fill:#000;fill-opacity:1"/></svg>