<svg xmlns="http://www.w3.org/2000/svg" width="11" height="11"><path d="m8.066 9.168 1.47 1.098V11h-1.47c-.492-.492-1.101-.734-1.832-.734-.734 0-1.343.242-1.836.734H2.934v-.734l1.464-1.098ZM11 5.133v.734a2.938 2.938 0 0 0-2.934 2.785v.149H4.398c0-.469-.183-.918-.52-1.254l-.21-.215v-2.2ZM3.3 5.5v1.832C2.075 7.332.978 6.727 0 5.5ZM8.435.734c.183 0 .328.133.359.301l.008.067v2.933c0 .18-.133.328-.301.36l-.066.003h-1.47a.365.365 0 0 1-.359-.3l-.003-.063V1.102c0-.184.128-.332.3-.36l.063-.008ZM6.234 2.2v.735H1.832a.366.366 0 0 1-.066-.727l.066-.008Zm0 0" style="stroke:none;fill-rule:nonzero;fill:#000;fill-opacity:1"/></svg>