<svg xmlns="http://www.w3.org/2000/svg" width="11" height="11"><path d="m9.11 4.816-.54-2.261a.742.742 0 0 0-.89-.543.843.843 0 0 0-.59.5c-.082.199-.445 1.105-.527 1.293a.214.214 0 0 1-.106.105l-.793.34a.417.417 0 0 0-.238.375c0 .227.187.414.418.414.05 0 .097-.012.144-.023l.957-.399a.519.519 0 0 0 .258-.25c.027-.047.113-.246.18-.41l.578 2.414v3.738c0 .371.254.672.629.676.379 0 .648-.3.648-.672l.008-4.41c0-.207-.086-.7-.133-.883ZM3.77 8.16v.945a.527.527 0 0 0 .296-.168.463.463 0 0 0 .114-.316c0-.105-.032-.2-.094-.277-.063-.078-.172-.137-.316-.184ZM3.187 6.7a.415.415 0 0 0-.007.491.56.56 0 0 0 .234.18v-.836a.44.44 0 0 0-.227.164Zm2.239-1.118L4.113 2.945a.602.602 0 0 0-.539-.336H2.36a.597.597 0 0 0-.597.594v7.578h3.734V5.88a.64.64 0 0 0-.07-.297ZM4.512 9.27c-.176.203-.426.324-.742.367v.453h-.352v-.442a1.145 1.145 0 0 1-.688-.308c-.175-.176-.285-.422-.335-.738l.636-.067a.782.782 0 0 0 .387.535V8.06c-.32-.09-.555-.227-.7-.41a.99.99 0 0 1-.222-.665c0-.261.082-.484.25-.664.168-.18.395-.285.672-.308V5.77h.355v.242c.258.031.465.117.618.261.148.141.25.336.289.579l-.614.078c-.039-.188-.136-.32-.293-.387v.945c.391.106.657.239.797.407.14.168.211.378.211.64 0 .29-.09.535-.265.735ZM6.168 1.059a.846.846 0 0 0 .41.765c.27.16.606.16.875 0a.83.83 0 0 0 .41-.765.829.829 0 0 0-.41-.762.857.857 0 0 0-.875 0 .844.844 0 0 0-.41.762Zm0 0" style="stroke:none;fill-rule:nonzero;fill:#000;fill-opacity:1"/></svg>