<svg xmlns="http://www.w3.org/2000/svg" width="11" height="11"><path d="M4.398.367c-.73 0-1.464.367-1.464.735h5.132c0-.368-.734-.735-1.464-.735H4.398ZM5.133 1.832c0-.367.734-.367.734 0v.367c0 .367-.734.367-.734 0m0 1.38c0 .366.734.366.734 0V3.21c0-.367-.734-.367-.734 0m2.18-1.203c.093.355-.61.543-.711.191l-.098-.351c-.094-.36.617-.551.71-.2m.45 1.645c.094.352-.61.543-.703.191l-.098-.359c-.093-.352.61-.543.703-.191m-3.855-.926c-.094.355.617.543.71.191l.095-.351c.097-.352-.606-.551-.704-.192M3.36 3.293c-.097.352.618.543.711.191l.094-.351c.098-.352-.613-.551-.71-.2M6.234 4.398c-.5-.003-.5.743 0 .735h.368v.52l-2.02 1.152-.371-.938h.52c.5.008.5-.742 0-.734H3.25c-.5-.008-.5.742 0 .734h.168l.316.793c-.14-.039-.289-.058-.433-.058a1.846 1.846 0 0 0-1.836 1.832c0 1.004.832 1.832 1.836 1.832a1.842 1.842 0 0 0 1.832-1.832c0-.344-.102-.668-.27-.946l1.809-1.035.293.3a1.84 1.84 0 0 0-1.098 1.68c0 1.005.828 1.833 1.832 1.833a1.846 1.846 0 0 0 1.836-1.832c0-.954-.734-1.73-1.668-1.82l-.535-.536V4.766a.364.364 0 0 0-.367-.368ZM3.301 7.332c.61 0 1.097.492 1.097 1.102a1.1 1.1 0 1 1-2.2 0 1.1 1.1 0 0 1 1.103-1.102Zm4.398 0a1.1 1.1 0 0 1 1.102 1.102 1.1 1.1 0 1 1-2.2 0c0-.61.489-1.102 1.098-1.102Zm0 0" style="stroke:none;fill-rule:nonzero;fill:#000;fill-opacity:1"/></svg>