<svg xmlns="http://www.w3.org/2000/svg" width="11" height="11"><path d="M.734 1.465h9.532v6.234H.734Zm1.098.734a.367.367 0 1 0 0 .735h2.203c.203 0 .363-.16.363-.368a.363.363 0 0 0-.363-.367Zm0 1.469a.364.364 0 0 0-.367.367c0 .203.164.363.367.363h.734c.207 0 .368-.16.368-.363a.362.362 0 0 0-.368-.367Zm2.203 0a.362.362 0 0 0-.367.367c0 .203.16.363.367.363h2.93c.207 0 .367-.16.367-.363a.362.362 0 0 0-.367-.367ZM1.832 5.133a.364.364 0 0 0-.367.367c0 .207.164.367.367.367H5.5c.207 0 .367-.16.367-.367a.362.362 0 0 0-.367-.367Zm2.566 2.933h2.204v2.2H4.398Zm2.934 0h2.203v.735H7.332Zm-5.867 0h2.203v.735H1.465Zm0 0" style="stroke:none;fill-rule:nonzero;fill:#000;fill-opacity:1"/></svg>