<svg xmlns="http://www.w3.org/2000/svg" width="11" height="11"><path d="M8.066.734v.73c.403 0 .735.333.735.735v.645a2.935 2.935 0 0 1 1.097 2.289c0 .508-.125.984-.351 1.402l.308.586c.192.352.06.8-.3.988-.035.016-.075.04-.11.047l-2.48.828-2.477-.828a.733.733 0 0 1-.46-.926.35.35 0 0 1 .05-.109l.309-.586a2.884 2.884 0 0 1-.352-1.402c0-.922.43-1.754 1.098-2.29V2.2c0-.402.332-.734.734-.734v-.73H5.5a.364.364 0 0 1-.367-.368C5.133.16 5.293 0 5.5 0h2.934a.367.367 0 1 1 0 .734ZM5.711 9.117l-.211.418h2.934l-.215-.418.949-.316L10.266 11H9.168l-.367-.734H5.133L4.766 11H3.668l1.098-2.2Zm1.254-3.25a.736.736 0 0 0 .734-.734.736.736 0 0 0-.734-.735.735.735 0 0 0 0 1.47Zm-4.766.637v.828l-.02.117-.366 1.102a.362.362 0 0 1-.465.226.36.36 0 0 1-.227-.46l.344-1.044v-.77a.743.743 0 0 1-.363-.636V4.582A.732.732 0 0 1 2.25 3.98l.617.333.543-.536a.35.35 0 0 1 .512 0 .35.35 0 0 1 0 .512l-.73.734a.356.356 0 0 1-.434.067l-.192-.102v.836l.895.446a.378.378 0 0 1 .207.332v1.097a.364.364 0 0 1-.367.367.362.362 0 0 1-.367-.367v-.87l-.696-.352c-.015.011-.023.02-.039.027Zm-.367-2.836a.735.735 0 0 1 0-1.469c.406 0 .734.332.734.735a.736.736 0 0 1-.734.734Zm0 0" style="stroke:none;fill-rule:nonzero;fill:#000;fill-opacity:1"/></svg>