<svg xmlns="http://www.w3.org/2000/svg" width="11" height="11"><path d="m5.684 9.168-.184.367h2.934l-.184-.367h1.102L10.266 11H9.168l-.367-.734H5.133L4.766 11H3.668l.914-1.832Zm4.632-2.973C9.117 7.934 7.992 8.801 6.965 8.801c-1.024 0-2.149-.867-3.348-2.606a2.188 2.188 0 0 1-.242-2.043c.195-.507.293-.91.293-1.218C3.668 2.199 4.656 0 6.965 0c2.664 0 3.3 2.2 3.3 2.934 0 .308.098.71.294 1.218.265.68.171 1.45-.243 2.043ZM5.164 2.023l.578 1.414c.059.141.192.231.336.231h1.777c.145 0 .278-.09.336-.23l.579-1.415a.366.366 0 0 0-.051-.367C8.242 1.043 7.656.734 6.965.734c-.688 0-1.274.309-1.75.922a.366.366 0 0 0-.05.367Zm1.8 6.043A.734.734 0 1 0 6.968 6.6a.734.734 0 0 0-.002 1.467Zm-5.5-2.296v.832l-.019.117-.367 1.097a.358.358 0 0 1-.46.227.363.363 0 0 1-.231-.461l.347-1.039V5.77a.729.729 0 0 1-.367-.637V3.852A.734.734 0 0 1 1.52 3.25l.613.328.543-.535a.36.36 0 0 1 .515 0 .36.36 0 0 1 0 .516l-.734.73a.354.354 0 0 1-.434.066l-.191-.101v.836l.895.445a.378.378 0 0 1 .207.332v1.098c0 .207-.16.367-.368.367a.364.364 0 0 1-.367-.367v-.871l-.695-.352c-.016.016-.024.024-.04.028Zm-.362-2.836a.736.736 0 0 1-.735-.735c0-.402.328-.734.735-.734a.735.735 0 0 1 0 1.469Zm0 0" style="stroke:none;fill-rule:nonzero;fill:#000;fill-opacity:1"/></svg>