<svg xmlns="http://www.w3.org/2000/svg" width="11" height="11"><path d="M4.035 5.508c0 .094-.039.183-.113.25l-.73.73a.356.356 0 0 1-.434.067l-.192-.102v.836l.895.45a.368.368 0 0 1 .207.327v1.102a.367.367 0 1 1-.734 0v-.875l-.696-.352c-.015.016-.023.024-.039.032V8.8l-.02.117-.366 1.098a.365.365 0 1 1-.691-.234l.343-1.04v-.77a.745.745 0 0 1-.363-.64V6.051c0-.403.328-.735.73-.735.156 0 .293.043.418.133l.617.328.543-.535a.356.356 0 0 1 .512 0 .333.333 0 0 1 .113.25V3.543c0-.39.152-.762.43-1.043L5.5 1.465h1.102v-.73H5.5a.364.364 0 0 1-.367-.368C5.133.16 5.293 0 5.5 0h2.934a.367.367 0 1 1 0 .734H7.332v.73h1.102L9.469 2.5c.277.281.43.652.43 1.043v4.523c0 .809-.66 1.47-1.465 1.47H5.5c-.809 0-1.465-.661-1.465-1.47Zm2.016 4.39L5.5 11H4.398l.551-1.102Zm2.933 0L9.535 11H8.434l-.551-1.102ZM7.7 8.801h.735a.739.739 0 0 0 .734-.735v-.734c-.809 0-1.469.66-1.469 1.469Zm-1.465 0c0-.809-.66-1.469-1.468-1.469v.734c0 .403.332.735.734.735ZM4.766 4.035v2.2c0 .202.164.367.367.367H8.8a.367.367 0 0 0 .367-.368V4.035a.364.364 0 0 0-.367-.367H5.133a.364.364 0 0 0-.367.367ZM5.5 2.566c0 .207.16.368.367.368h2.2c.206 0 .367-.16.367-.368a.364.364 0 0 0-.368-.367H5.867a.364.364 0 0 0-.367.367ZM1.832 5.133a.733.733 0 1 1 .004-1.466.733.733 0 0 1-.004 1.466Zm0 0" style="stroke:none;fill-rule:nonzero;fill:#000;fill-opacity:1"/></svg>