<svg xmlns="http://www.w3.org/2000/svg" width="11" height="11"><path d="M11 8.8c-.219 0-.441-.054-.633-.14a1.505 1.505 0 0 0-.648-.148c-.23 0-.453.054-.649.148-.195.086-.41.14-.633.14-.222 0-.437-.054-.628-.14a1.5 1.5 0 0 0-1.297 0 1.58 1.58 0 0 1-.637.14c-.223 0-.438-.054-.629-.14a1.505 1.505 0 0 0-.648-.148c-.235 0-.45.054-.649.148-.195.086-.406.14-.633.14-.222 0-.437-.054-.628-.14a1.505 1.505 0 0 0-.649-.148c-.234 0-.39.054-.59.148-.191.086-.347.14-.566.14v-.964c.219 0 .375-.05.566-.14a1.437 1.437 0 0 1 1.258 0c.191.09.395.14.621.14.223 0 .434-.05.629-.14.195-.09.414-.145.645-.145.23 0 .453.054.648.144a1.482 1.482 0 0 0 1.266 0c.195-.09.418-.144.644-.144.23 0 .453.054.652.144a1.496 1.496 0 0 0 1.262 0c.2-.09.418-.144.653-.144.226 0 .449.054.644.144.191.09.414.14.637.14v.966ZM8.422 4.778l1.867.145-.144-.965-1.364-.102c-.37-.015-.316.36-.316.36l-.04.562Zm-3.453-.222a.621.621 0 0 0 .62-.625.624.624 0 0 0-.62-.63.62.62 0 0 0-.614.63c0 .351.274.632.614.632ZM1.16 6.977c.078-.024.156-.055.227-.086.199-.094.418-.149.652-.149.23 0 .45.055.648.149.192.086.407.14.63.14.226 0 .437-.05.636-.14a1.492 1.492 0 0 1 1.297 0c.191.086.402.14.629.14.223 0 .437-.05.633-.14a1.505 1.505 0 0 1 1.3 0c.192.086.41.14.63.14a1.5 1.5 0 0 0 .632-.14 1.5 1.5 0 0 1 1.297 0c.191.086.406.14.633.14l-.207-1.718-7.742-.66 1.168-1.2-.512-.047L2.543 4.61.008 4.395c-.016.882.949 2.343 1.156 2.582Zm0 0" style="stroke:none;fill-rule:nonzero;fill:#000;fill-opacity:1"/></svg>