<svg xmlns="http://www.w3.org/2000/svg" width="11" height="11"><path d="M8.434 1.465H7.332a1.45 1.45 0 0 0-1.262.734H2.566l-.734.735.734.734.735-.734.734.734.73-.734.735.734h.57c.25.437.72.73 1.262.73h1.102c.203 0 .367-.16.367-.363V1.832a.367.367 0 0 0-.367-.367ZM8.066 3.3a.367.367 0 1 1-.734 0v-.735a.367.367 0 1 1 .734 0ZM9.535 7.332c-.055 1.344-.785 2.031-2.203 2.07H2.199l-.734-2.07h5.883l-1.48-1.098.734-.367L8.8 7.332Zm-5.867-.367H1.465V5.867h1.469c.402 0 .734.328.734.735Zm0 0" style="stroke:none;fill-rule:nonzero;fill:#000;fill-opacity:1"/></svg>