<svg xmlns="http://www.w3.org/2000/svg" width="11" height="11"><path d="M4.398 2.934c0-1.47 2.204-1.47 2.204 0 0 .367-2.204.367-2.204 0Zm0 .367v5.5c0 .367 2.204.367 2.204 0V3.3c0 .367-2.204.367-2.204 0ZM1.102 2.934c0-1.47 2.199-1.47 2.199 0 0 .367-2.2.367-2.2 0Zm0 .367v5.5c0 .367 2.199.367 2.199 0V3.3c0 .367-2.2.367-2.2 0ZM7.7 2.934c0-1.47 2.198-1.47 2.198 0 0 .367-2.199.367-2.199 0Zm0 .367v5.5c0 .367 2.198.367 2.198 0V3.3c0 .367-2.199.367-2.199 0Zm0 0" style="stroke:none;fill-rule:nonzero;fill:#000;fill-opacity:1"/></svg>