<svg xmlns="http://www.w3.org/2000/svg" width="11" height="11"><path d="m.734.734 3.664.73-1.617.54.887.887C5.41 1.445 7.73 1.27 10.516 2.316a.732.732 0 0 1-.446 1.395L7.281 6.504l.895.894.625-.066 2.156 1.863-1.469.293-.293 1.469-1.863-2.156.066-.625-.894-.895-2.793 2.79v.011a.74.74 0 0 1-.453.867.732.732 0 0 1-.942-.433c-1.046-2.786-.87-5.106.575-6.848l-.883-.883-.543 1.613Zm2.711 8.563 2.54-2.535L3.93 4.707c-.887 1.16-1.063 2.664-.485 4.59ZM4.707 3.93l2.055 2.054 2.535-2.539c-1.926-.578-3.43-.402-4.59.485Zm0 0" style="stroke:none;fill-rule:nonzero;fill:#000;fill-opacity:1"/></svg>