<svg xmlns="http://www.w3.org/2000/svg" width="11" height="11"><path d="M3.668 2.934h3.664v-.735H3.668Zm-.734 0v-.735c0-.402.328-.734.734-.734h3.664c.406 0 .734.332.734.734v.735h1.47c.402 0 .73.328.73.734v5.133a.735.735 0 0 1-.73.734H1.464a.735.735 0 0 1-.73-.734V3.668c0-.406.328-.734.73-.734Zm3.3 2.566V4.035a.364.364 0 0 0-.367-.367h-.734a.364.364 0 0 0-.367.367V5.5H3.3a.362.362 0 0 0-.367.367v.735c0 .203.16.363.367.363h1.465v1.469c0 .203.164.367.367.367h.734a.367.367 0 0 0 .367-.367v-1.47H7.7c.207 0 .367-.16.367-.362v-.735A.362.362 0 0 0 7.7 5.5Zm0 0" style="stroke:none;fill-rule:nonzero;fill:#000;fill-opacity:1"/></svg>