<svg xmlns="http://www.w3.org/2000/svg" width="11" height="11"><path d="M6.602.367v.367h2.566c.367 0 .367.368.367.368v8.796s0 .368-.367.368H6.602v.367c0 .367-2.204.367-2.204 0v-.367H1.832c-.367 0-.367-.368-.367-.368V1.102s0-.368.367-.368h2.566V.367c0-.367 2.204-.367 2.204 0ZM5.5 2.2A3.29 3.29 0 0 0 2.2 5.5a3.29 3.29 0 0 0 3.3 3.3 3.29 3.29 0 0 0 3.3-3.3 3.29 3.29 0 0 0-3.3-3.3Zm0 0" style="stroke:none;fill-rule:nonzero;fill:#000;fill-opacity:1"/><path d="M6.602 6.965c.183.734 0 1.285 0 1.285-.184.184-2.02.184-2.204 0 0 0-.183-.55 0-1.285.368.367 1.836.367 2.204 0Zm0 0" style="stroke:none;fill-rule:nonzero;fill:#000;fill-opacity:1"/><path d="M6.785 3.3c0-.183.547-.183.547 0 0 .903-.914 1.65-1.832 3.302-.09 0-.367-.368-.367-.368.734-1.285 1.652-2.214 1.652-2.933Zm-.183 1.833c-.184.273-.282.367-.368.55 0 .368-.183.735-.55 1.102-.09.18.46.18.55 0 .368-.367.551-.918.368-1.652ZM6.234 3.3c0-.184-.55-.176-.55 0 0 .55 0 1.02.183 1.465.086-.086.278-.368.367-.551-.09-.363-.074-.547 0-.914Zm-2.02 0c0 .914.552 1.465 1.286 2.015-.09.184-.242.368-.367.551-.735-.734-1.465-1.469-1.465-2.566 0-.184.547-.184.547 0ZM4.583 5.5c-.184.55-.184.918.184 1.285.09.117.464.27.734.18-.543-.445-.637-.828-.55-1.098-.087-.09-.184-.183-.368-.367Zm.734-2.2c0-.183-.55-.183-.55 0 .183.552.367.915.183 1.282.09.184.367.39.551.477.148-.586 0-1.207-.184-1.758Zm0 0" style="stroke:none;fill-rule:nonzero;fill:#000;fill-opacity:1"/></svg>