<svg xmlns="http://www.w3.org/2000/svg" width="11" height="11"><path d="M4.215 7.7H.492a.557.557 0 0 1-.383-.22c-.007-.007-.007-.015-.015-.015A.57.57 0 0 1 0 7.148V7.098a.574.574 0 0 1 .074-.227l1.824-3.277a.555.555 0 0 1 .75-.227.49.49 0 0 1 .22.227l1.671 3.008h5.91c.301 0 .551.246.551.546 0 .301-.25.551-.55.551Zm-.93-1.098L2.383 4.98 1.48 6.602Zm4.848-3.008v-.008a.548.548 0 0 1 .746-.219.48.48 0 0 1 .223.227l1.832 3.293a.552.552 0 0 1-.969.527L8.617 4.98 7.266 7.414a.547.547 0 0 1-.746.219.544.544 0 0 1-.22-.746Zm0 0" style="stroke:none;fill-rule:nonzero;fill:#000;fill-opacity:1"/></svg>