<svg xmlns="http://www.w3.org/2000/svg" width="11" height="11"><path d="m1.879 3.078-.617.399c.261.988.601 1.796.996 2.41.5.773 1.304 1.554 2.414 2.37l-.617.395c-1.106-.804-1.907-1.597-2.407-2.367-.503-.77-.894-1.82-1.187-3.16L4.156.727 4.555.46A.738.738 0 0 1 5.66.87c.223.758.465 1.387.719 1.902.36.72 1.027 1.743 2.004 3.079L5.289 7.855c-1.11-.808-1.914-1.601-2.414-2.37-.395-.614-.734-1.423-.996-2.407Zm2.215-1.441a.739.739 0 0 0-.215 1.02.734.734 0 0 0 1.012.21.725.725 0 0 0 .214-1.012.727.727 0 0 0-1.011-.218Zm4.465 4.531 1.796 2.77a1.088 1.088 0 0 1-.324 1.519 1.09 1.09 0 0 1-1.511-.324l-.196-.313c.25-.425.235-.968-.039-1.386l-.953-1.47Zm0 0" style="stroke:none;fill-rule:nonzero;fill:#000;fill-opacity:1"/></svg>