<svg xmlns="http://www.w3.org/2000/svg" width="11" height="11"><path d="M9.898.734C10.266.367 4.766 0 2.2 2.566.734 4.036 0 6.234 0 7.332 0 8.801.734 11 2.2 11c5.132 0 6.968-4.035 7.698-5.5.735-1.465 1.102-4.398.368-4.398-.368 0-2.2 1.097-2.934 1.832-.73.734-.73 2.199-1.465 2.933-.734.735-1.832.735-2.566 1.465L1.465 9.168s.367-1.836 1.101-2.566c.735-.735 1.47-.735 2.2-1.47C5.5 4.399 5.867 2.935 6.602 2.2c.73-.734 2.933-1.097 3.296-1.465Zm0 0" style="stroke:none;fill-rule:nonzero;fill:#000;fill-opacity:1"/></svg>