<svg xmlns="http://www.w3.org/2000/svg" width="11" height="11"><path d="M5.5 10.781A5.29 5.29 0 0 1 .219 5.5 5.29 5.29 0 0 1 5.5.219 5.29 5.29 0 0 1 10.781 5.5 5.29 5.29 0 0 1 5.5 10.781Zm0-9.68A4.403 4.403 0 0 0 1.102 5.5 4.403 4.403 0 0 0 5.5 9.898 4.403 4.403 0 0 0 9.898 5.5 4.403 4.403 0 0 0 5.5 1.102Zm.012.715S3.96 4.47 3.96 5.281v.438c0 .812 1.559 3.52 1.559 3.52s1.523-2.653 1.523-3.462v-.496c0-.812-1.531-3.465-1.531-3.465ZM5.504 6.38A.881.881 0 0 1 4.62 5.5a.881.881 0 0 1 1.762 0 .88.88 0 0 1-.88.879Zm0 0" style="stroke:none;fill-rule:nonzero;fill:#000;fill-opacity:1"/></svg>