<svg xmlns="http://www.w3.org/2000/svg" width="11" height="11"><path d="M4.047 1.89a.555.555 0 0 1-.07-.777.555.555 0 0 1 .777-.07l2.2 1.832a.56.56 0 0 1 0 .852l-2.2 1.832a.555.555 0 0 1-.777-.075.555.555 0 0 1 .07-.777l1.695-1.406ZM2.809 3.3 1.113 1.89a.555.555 0 0 1-.07-.777.555.555 0 0 1 .777-.07l2.2 1.832a.56.56 0 0 1 0 .852l-2.2 1.832a.556.556 0 0 1-.777-.075.555.555 0 0 1 .07-.777Zm5.867 0L6.98 1.89a.56.56 0 0 1-.074-.777.555.555 0 0 1 .778-.07l2.203 1.832a.56.56 0 0 1 0 .852L7.684 5.559a.556.556 0 0 1-.778-.075.56.56 0 0 1 .074-.777ZM2.199 8.067c.403 0 .735.332.735.735a.739.739 0 0 1-.735.734.739.739 0 0 1-.734-.734c0-.403.332-.735.734-.735Zm2.2 0c.406 0 .734.332.734.735a.736.736 0 0 1-.735.734.735.735 0 0 1 0-1.469Zm2.203 0a.735.735 0 0 1 0 1.47.736.736 0 0 1-.735-.735c0-.403.328-.735.735-.735Zm2.199 0c.402 0 .734.332.734.735a.739.739 0 0 1-.734.734.739.739 0 0 1-.735-.734c0-.403.332-.735.735-.735Zm-6.602-.734c-.804 0-1.465.66-1.465 1.469 0 .804.66 1.465 1.465 1.465h6.602A1.47 1.47 0 0 0 10.266 8.8c0-.809-.66-1.469-1.465-1.469Zm0-.73h6.602A2.199 2.199 0 1 1 8.8 11H2.199a2.199 2.199 0 1 1 0-4.398Zm0 0" style="stroke:none;fill-rule:nonzero;fill:#000;fill-opacity:1"/></svg>