<svg xmlns="http://www.w3.org/2000/svg" width="11" height="11"><path d="M4.824 5.95a.743.743 0 0 0-.058.284v.73c0 .24.109.442.28.575a1.836 1.836 0 0 1-3.582-.574 1.835 1.835 0 0 1 3.36-1.016Zm1.13 1.59a.716.716 0 0 0 .28-.575v-.73c0-.106-.023-.2-.058-.286a1.835 1.835 0 0 1 3.36 1.016 1.836 1.836 0 0 1-3.583.574ZM3.3 5.866a1.1 1.1 0 1 0-.004 2.2 1.1 1.1 0 0 0 .004-2.2Zm4.398 0c-.61 0-1.097.492-1.097 1.098A1.1 1.1 0 1 0 7.7 5.867ZM6.234 1.648a.915.915 0 1 1 1.83.003.915.915 0 0 1-1.83-.003Zm.438 2.606-.606-.809-.859.883.559.547a.388.388 0 0 1 .101.258V6.98a.367.367 0 1 1-.734-.015V5.289l-.988-1a.35.35 0 0 1 0-.512L5.609 2.31a.372.372 0 0 1 .266-.11c.117 0 .219.059.285.149l.988 1.32h1.293c.133 0 .258.07.317.187a.383.383 0 0 1 0 .368.37.37 0 0 1-.324.175h-1.47a.354.354 0 0 1-.292-.144ZM1.465 9.168h2.203l-.734 1.098h-2.2Zm3.3 0h1.47l.73 1.098h-2.93Zm4.77 0 .73 1.098H8.067l-.734-1.098Zm0 0" style="stroke:none;fill-rule:nonzero;fill:#000;fill-opacity:1"/></svg>