<svg xmlns="http://www.w3.org/2000/svg" width="11" height="11"><path d="M1.445 5.867h2.953V4.398a.769.769 0 0 0-.05-.27Zm2.242-2.199H1.466a.732.732 0 0 0-.73.73v1.043Zm3.626 2.2h2.953v-1.47a.769.769 0 0 0-.051-.27Zm2.242-2.2H7.332a.732.732 0 0 0-.73.73v1.043ZM4.398 6.602H.734v1.464H0V4.398c0-.804.66-1.464 1.465-1.464h2.203c.805 0 1.465.66 1.465 1.464v3.668h-.735Zm5.868 0H6.602v1.464h-.735V4.398c0-.804.66-1.464 1.465-1.464h2.203c.805 0 1.465.66 1.465 1.464v3.668h-.734Zm0 0" style="stroke:none;fill-rule:nonzero;fill:#000;fill-opacity:1"/></svg>