<svg xmlns="http://www.w3.org/2000/svg" width="11" height="11"><path d="m9.152 2.598-.984 1.64 1.754 1.746c.21.22.21.563 0 .778a.542.542 0 0 1-.777 0l-1.688-1.68-1.297-.266-.258-1.289L4.215 1.84a.557.557 0 0 1 0-.778.542.542 0 0 1 .777 0L6.746 2.81l1.637-.985a.735.735 0 0 1 .11-.894l.519-.52a.743.743 0 0 1 1.043 0l.511.52c.286.289.286.75 0 1.035l-.511.52a.747.747 0 0 1-.903.113ZM5.543 4.656 1.496 9.488l4.832-4.054 1.129.16-4.148 3.633-3.11 1.562 1.555-3.117 3.629-4.145Zm0 0" style="stroke:none;fill-rule:nonzero;fill:#000;fill-opacity:1"/></svg>