<svg xmlns="http://www.w3.org/2000/svg" width="11" height="11"><path d="M5.133 0c2.933 0 4.402 1.465 4.402 3.668 0 1.832-1.469 2.566-1.836 4.398C7.332 9.168 6.602 11 5.133 11 3.668 11 3.3 9.898 2.566 8.8c-.734-1.1 0-1.468.368-1.1.367.366 1.101 2.566 2.199 2.566.734 0 1.469-1.465 1.832-2.567C7.332 5.867 8.8 5.133 8.8 3.668 8.8 1.832 7.699.734 5.133.734c-1.832 0-2.567 1.098-2.567 2.2 0 .734-.734.734-.734 0C1.832 1.102 2.934 0 5.132 0ZM5.5 1.832c-1.465 0-2.2.734-2.2 1.836 0 .73 0 1.465.368 1.832.367.367.73.734.367 1.102-.367.363.363 1.097 1.098 0 .367-.735 0-1.102-.367-1.47-.368-.366-.73-.734-.73-1.464 0-.367.362-1.469 1.464-1.469.734 0 1.832.367 1.832 1.469 0 1.098-.73 1.832-.367 1.832.367 0 .734-1.102.734-1.832 0-1.469-1.465-1.836-2.199-1.836Zm0 0" style="stroke:none;fill-rule:nonzero;fill:#000;fill-opacity:1"/></svg>