<svg xmlns="http://www.w3.org/2000/svg" width="11" height="11"><path d="m.531 7.395-.008-.028c0-.02.016-.039.04-.039l1.066.004a.1.1 0 0 0 .098-.102c0-.039-.02-.07-.059-.093l-.969-.492a.062.062 0 0 1-.031-.055c0-.02.008-.04.02-.05 0 0 2.546-2.395 8.183-.071l1.55-.805a.108.108 0 0 1 .052-.012.125.125 0 0 1 .101.192l-.91 1.207.91 1.207c.012.02.02.043.02.066 0 .07-.055.13-.121.13a.108.108 0 0 1-.051-.013l-1.55-.804S3.483 9.914.534 7.395Zm1.723-.493c.203 0 .367-.175.367-.39 0-.219-.164-.39-.367-.39-.203 0-.367.171-.367.394 0 .214.164.386.367.386ZM7.039 2.86v1.32h3.117c.344 0 .625-.292.625-.66 0-.367-.281-.66-.625-.66Zm-5.742.95.285-.125.18.324.285-.219.203.305.277-.235.22.29.26-.254.235.273.25-.262.25.266.25-.266.246.266.25-.262.25.266.25-.266.246.27.246-.266.254.266.25-.266.25.27.29-.266.296.266V2.879H.223v.008c.218.379.664.703 1.078.941Zm0 0" style="stroke:none;fill-rule:nonzero;fill:#000;fill-opacity:1"/></svg>