<svg xmlns="http://www.w3.org/2000/svg" width="11" height="11"><path d="M5.52 1.664a.705.705 0 0 0 .703-.703.708.708 0 0 0-.703-.703c-.391 0-.707.32-.707.703 0 .39.316.703.707.703ZM9.938 9.72a1.538 1.538 0 0 0-.641-.145 1.57 1.57 0 0 0-.645.145 1.551 1.551 0 0 1-.62.133 1.6 1.6 0 0 1-.626-.133 1.54 1.54 0 0 0-1.285 0 1.522 1.522 0 0 1-1.25.004 1.511 1.511 0 0 0-.64-.145c-.227 0-.446.055-.641.145a1.58 1.58 0 0 1-.621.132 1.57 1.57 0 0 1-.625-.132 1.54 1.54 0 0 0-1.285 0 1.522 1.522 0 0 1-.625.136v.93c.222 0 .433-.047.625-.133a1.54 1.54 0 0 1 1.285 0c.187.086.402.133.625.133.219 0 .43-.047.62-.129.196-.09.415-.144.641-.144.23 0 .45.054.641.144a1.533 1.533 0 0 0 1.25 0 1.54 1.54 0 0 1 1.285 0c.192.086.403.137.625.137.223 0 .434-.05.621-.133.2-.09.418-.144.645-.144.226 0 .445.054.64.144.192.086.403.133.626.133v-.93c-.223 0-.434-.05-.626-.133ZM9.995.23c-.05-.02-.129-.007-.168.032L7.25 2.859c-.04-.02-.094.004-.14.004h-.977c-.168-.222-1.047-1.082-1.047-1.082a.351.351 0 0 0-.16-.101.513.513 0 0 0-.7.011L2.72 3.203c-.059.059-.078.133-.078.219v.98H.44v.442h2.2v2.531c0 .316.234.57.546.57.313 0 .551-.254.551-.57V4.844h1.543V8.14H.441v.66H5.72V4.844h.66v-.442h-2.64v-.18L5.163 2.81l.582.593a.363.363 0 0 0 .246.121H7.11c.192 0 .371-.03.371-.222 0-.043.016-.18 0-.219C8.09 2.477 9.684.98 9.902.676V8.8h.22V.355c0-.054-.075-.101-.126-.125Zm0 0" style="stroke:none;fill-rule:nonzero;fill:#000;fill-opacity:1"/></svg>