<svg xmlns="http://www.w3.org/2000/svg" width="11" height="11"><path d="M3.988 4.754c.676-2.188 1.469-3.29 2.364-3.281.468-.028 1.37.132 1.73.457-.777.027-1.48.785-1.73 1.562-.09.285-.223 1.047-.383 2.285-.27.543-.535 1.168-.793 1.871-.364-1.203-.762-2.171-1.188-2.894ZM5.7 9.535l-.031-.133c-.074-.285-.145-.566-.219-.828C6.52 5.301 7.7 3.668 8.984 3.676a2.26 2.26 0 0 1 1.297.32c-.777.031-1.46.418-1.707.977-.164.379-.449 1.898-.851 4.562ZM.734 3.996c.309-.226.711-.344 1.106-.32 1.21 0 2.312 1.949 3.293 5.863h-2.2C2.59 6.871 2.34 5.352 2.192 4.98c-.21-.566-.789-.953-1.457-.984Zm0 0" style="stroke:none;fill-rule:nonzero;fill:#000;fill-opacity:1"/></svg>