<svg xmlns="http://www.w3.org/2000/svg" width="11" height="11"><path d="m5.766 7.457 3.496-2.016 1.648 2.852a.37.37 0 0 1-.078.465l-.082.05-.293.176c-.21.118-.52-.023-.703-.132l-.098-.059-.05-.043a.418.418 0 0 0-.22.008l-.066.027-1.136.66.55.953a.463.463 0 0 1 0 .325.404.404 0 0 1-.476.242l-.059-.024-2.422-.996c-.402-.066-.836-.125-1.187-.117-.117 0-.27.02-.438.05l-.265.052-.754.175-.317.067c-.793.16-1.59.234-1.937-.2L.82 9.888.637 9.57l2.539-1.468a2.37 2.37 0 0 1 1.039-.305l.492-.031c.273-.028.55-.075.86-.204ZM8.3 3.797l.043.055.55.953L5.72 6.637a2.672 2.672 0 0 1-1.196.351l-.261.024c-.348.011-.645.035-.985.195l-.152.074L.27 8.934l-.18-.317a.354.354 0 0 1 .078-.46l.05-.04 2.54-1.465c.445-.257.844-.324 1.195-.359l.262-.016c.348-.023.648-.035.984-.199L5.352 6l-.18-.316a.358.358 0 0 1 .07-.461l.059-.04L7.84 3.72c.14-.082.3-.059.418.027ZM2.934 0l-.215.21c-.297.302-.48.7-.512 1.118l-.008.137h.735v1.469l-.735 1.464h.551c.102 0 .184.082.184.184v.367a.183.183 0 0 1-.184.184H.918a.18.18 0 0 1-.184-.184v-.367a.18.18 0 0 1 .184-.184h.547l-.73-1.464v-.735C.734 1.027 1.647.074 2.8.008Zm6.964 1.465c.407 0 .735.332.735.734a.736.736 0 0 1-.735.735H3.301v-1.47Zm0 0" style="stroke:none;fill-rule:nonzero;fill:#000;fill-opacity:1"/></svg>