<svg xmlns="http://www.w3.org/2000/svg" width="11" height="11"><path d="M2.941 2.934H8.06v-1.47H6.965v-.73h1.308c.313 0 .594.204.696.496l.527 1.594c.024.074.04.145.04.227v6.484c0 .805-.661 1.465-1.47 1.465H2.934c-.809 0-1.47-.66-1.47-1.465V3.051c0-.082.016-.153.04-.227L2.03 1.23a.741.741 0 0 1 .696-.496h1.308v.73H2.941ZM2.2 5.5l.008 2.2c0 .206.168.366.367.366h2.2c.199 0 .367-.16.367-.367L5.125 5.5a.362.362 0 0 0-.367-.367H2.566A.364.364 0 0 0 2.2 5.5Zm4.403 4.035a.732.732 0 1 0 1.463-.003.732.732 0 0 0-1.463.003Zm-2.204 0a.733.733 0 1 0-1.465-.003.733.733 0 0 0 1.465.003Zm-.73-5.5v.004c.008.2.168.36.367.36h2.938c.199 0 .359-.16.359-.36v-.012a.37.37 0 0 0-.367-.359H4.027c-.199 0-.359.16-.359.36v.007Zm2.2 1.465.007 2.2c0 .206.168.366.367.366h2.2a.37.37 0 0 0 .367-.367L8.793 5.5a.362.362 0 0 0-.367-.367H6.234a.362.362 0 0 0-.367.367ZM4.397.367c0-.207.165-.367.368-.367h1.468c.196 0 .36.16.368.367v1.465a.364.364 0 0 1-.368.367h-1.46a.364.364 0 0 1-.368-.367Zm0 0" style="stroke:none;fill-rule:nonzero;fill:#000;fill-opacity:1"/></svg>