<svg xmlns="http://www.w3.org/2000/svg" width="11" height="11"><path d="m8.8 4.398.653.653a.98.98 0 0 1 .133.191l.68 1.36v.136a.374.374 0 0 1-.036.164.374.374 0 0 1-.492.168l-.937-.468c-.031.02-.684-.133-.735-.368v1.832l.368.735v1.465H7.332V8.8c-.242-.492-.605-.735-1.098-.735-.734 0-1.109.653-1.101.735v1.465H4.035V8.8l.363-.727v-1.46L2.934 8.8V6.613c0-.41.328-.738.734-.738h.168a.6.6 0 0 1 .562.36c.133-.2.5-.36.735-.368h1.469L8.8 3.668Zm-6.6.735v5.133H.733V5.707L0 5.984V4.398L10.266.734v1.567Zm0 0" style="stroke:none;fill-rule:nonzero;fill:#000;fill-opacity:1"/></svg>