<svg xmlns="http://www.w3.org/2000/svg" width="11" height="11"><path d="M9.598 2.156c.535 0 .96-.433.96-.969a.962.962 0 0 0-.96-.968.964.964 0 0 0-.957.969c0 .535.43.968.957.968ZM6.82 10.56h2.64s.22-.02.22-.22v-.218h.218s.09.594-.406.66H6.82ZM.66 8.579l1.762 1.76s.144.056.281-.081l.14-.14.235.222s-.39.578-.789.265L.441 8.742Zm6.8-.716v1.754c0 .332.235.598.56.598.3 0 .558-.348.558-.598V7.18c0-.172-.035-.325-.148-.434l-1.407-1.43 1.891-1.898c.356-.445.172-.977.172-.977-.195-.593-.86-.613-.86-.613l-4.843-.004a.474.474 0 0 0 0 .95l3.344.003L5.32 4.191a1.02 1.02 0 0 0-.304.75c0 .293.117.555.312.75ZM5.028 5.957a1.072 1.072 0 0 1-.125-.14L2.11 8.644a.592.592 0 0 0-.156.726c.145.29.496.402.785.258a.722.722 0 0 0 .106-.074l2.87-2.903-.687-.691Zm0 0" style="stroke:none;fill-rule:nonzero;fill:#000;fill-opacity:1"/></svg>