<svg xmlns="http://www.w3.org/2000/svg" width="11" height="11"><path d="M5.867 5.434V4.398h-.265a.363.363 0 0 1-.368-.363c0-.031.008-.058.016-.09l.633-2.523a.352.352 0 0 1 .437-.262.365.365 0 0 1 .274.262l.62 2.523a.37.37 0 0 1-.26.45c-.032.003-.06.003-.09.003h-.262v1.079c.011.007.035.015.05.023l.621.293c.11.05.223.094.325.133l.468.176v-.97h-.265a.361.361 0 0 1-.352-.452l.633-2.524c.043-.199.25-.316.438-.265a.37.37 0 0 1 .273.265l.621 2.524a.36.36 0 0 1-.262.445c-.03.008-.058.008-.09.008h-.261V6.37l.36.14c.16.06.308.15.433.25l.242.204c.27.238.43.574.43.933v.192c-.301-.008-.594.094-.829.285l-.343.293a.577.577 0 0 1-.735 0c-.109-.09-.21-.191-.32-.277a1.414 1.414 0 0 0-1.805 0c-.117.086-.226.195-.347.293a.572.572 0 0 1-.73 0c-.118-.098-.227-.207-.345-.293a1.424 1.424 0 0 0-1.796 0c-.118.086-.215.187-.332.277a.61.61 0 0 1-.82-.066 5.055 5.055 0 0 0-.579-.418 1.115 1.115 0 0 0-.18-.067A2.94 2.94 0 0 1 2.2 7.023V5.5h2.2v1.047c.234-.102.542-.36.933-.781.145-.164.328-.274.535-.332Zm4.399 3.386v.715a.716.716 0 0 0-.496.246c-.2.207-.457.352-.735.426a1.4 1.4 0 0 1-1.297-.262l-.289-.25a.545.545 0 0 0-.351-.16h-.102a.545.545 0 0 0-.351.16c-.102.086-.2.176-.31.262a1.427 1.427 0 0 1-1.82-.05l-.285-.25a.52.52 0 0 0-.261-.122h-.207a.533.533 0 0 0-.266.121c-.137.114-.262.23-.402.34a1.419 1.419 0 0 1-1.723-.043l-.226-.191a.664.664 0 0 0-.41-.227V8.82a.9.9 0 0 1 .55.098c.203.125.395.262.578.418a.645.645 0 0 0 .446.2c.03-.009.066-.009.105-.009.012-.007.027-.007.043-.015a.677.677 0 0 0 .227-.11c.117-.09.214-.191.332-.28.195-.161.421-.263.66-.302a.526.526 0 0 1 .32-.011c.293.011.578.117.817.312.117.09.226.2.343.293a.59.59 0 0 0 .196.113c.14.008.28 0 .414-.03a.509.509 0 0 0 .12-.083c.122-.094.231-.203.348-.293.192-.16.41-.254.637-.3a.682.682 0 0 1 .234-.02c.332-.008.66.101.934.32.11.09.211.191.32.281a.578.578 0 0 0 .325.133.927.927 0 0 0 .203-.023.587.587 0 0 0 .207-.11l.344-.293c.199-.164.44-.257.69-.289.052-.004.095-.011.138-.02Zm-4.875.715h.261a.592.592 0 0 1-.261 0ZM3.3 2.934l1.832 2.199H1.465Zm0 0" style="stroke:none;fill-rule:nonzero;fill:#000;fill-opacity:1"/></svg>