<svg xmlns="http://www.w3.org/2000/svg" width="11" height="11"><path d="M5.828 8.8c.48-.468.774-1.116.774-1.835V3.754a.738.738 0 0 1-.368-.637V1.563l-5.09.636a.37.37 0 0 1-.41-.32.377.377 0 0 1 .32-.414L6.243.82a.727.727 0 0 1 .723-.636.74.74 0 0 1 .683.46L9.855.368a.37.37 0 0 1 .41.32.377.377 0 0 1-.32.415L7.7 1.379v1.738c0 .27-.144.504-.367.637v3.21c0 1.829-1.473 3.302-3.297 3.302H2.566a.735.735 0 0 1-.734-.73c0-.407.332-.735.734-.735Zm0 0" style="stroke:none;fill-rule:nonzero;fill:#000;fill-opacity:1"/></svg>