<svg xmlns="http://www.w3.org/2000/svg" width="11" height="11"><path d="m7.75 3.21-2.55.642a.28.28 0 0 1-.337-.2.279.279 0 0 1 .203-.336l1.145-.289-2.492-.804-.961 1.738 2.742.652h3.453l-.387-1.511Zm2.508 2.673-.254 2.55-.719-.074a.72.72 0 0 1-.785.653.72.72 0 0 1-.637-.805L6.547 6.961l-3.672.71-.082.727a.712.712 0 0 1-.785.653.732.732 0 0 1-.637-.809l.074-.726-.71-.079.261-2.554c.05-.504.434-.906.926-.973l1.254-2.273a.378.378 0 0 1 .328-.172l3.492 1.117c.149.016 1.766-.457 1.805-.316l.746 2.472c.469.168.765.637.71 1.145Zm-7.836.922c.32.03.644-.227.965-.785l-.785-.094V5.05c-.606.199-.93.465-.965.785-.047.484.3.918.785.969Zm6.27.191c.402.043.68-.09.843-.394-.113-.184-.367-.293-.773-.332-.606-.067-1.114.043-1.137.25-.02.199.457.41 1.066.476ZM4.84 8.81a1.478 1.478 0 0 0-.442-.375c-.73-.403 1.102-.368 1.47-.368.366 0 1.464-.035 1.464.368 0 .402-.738 1.101-1.555 1.101-.07 0-.136-.008-.195-.015a8.06 8.06 0 0 1-.45.015c-.804 0-1.464-.164-1.464-.367 0-.176.496-.324 1.172-.36Zm0 0" style="stroke:none;fill-rule:nonzero;fill:#000;fill-opacity:1"/></svg>