<svg xmlns="http://www.w3.org/2000/svg" width="11" height="11"><path d="M9.117 6.781c-.219 0-.426.051-.613.14-.18.087-.383.134-.598.134-.21 0-.414-.051-.593-.133a1.426 1.426 0 0 0-1.23 0c-.18.086-.384.133-.595.133-.21 0-.418-.051-.597-.133a1.4 1.4 0 0 0-1.227 0 1.408 1.408 0 0 1-1.195 0 1.388 1.388 0 0 0-1.219 0c-.18.086-.367.133-.586.133v.925c.219 0 .406-.05.586-.132a1.396 1.396 0 0 1 1.219 0c.156.074.324.113.5.125l-.742.765a.59.59 0 0 0-.754.09l-.852.879a.652.652 0 0 0 0 .89.594.594 0 0 0 .856 0l.851-.878a.642.642 0 0 0 .106-.739l1.023-1.058c.07-.024.137-.04.203-.07.184-.09.399-.145.613-.145.223 0 .43.055.614.145.183.082.39.132.601.132.211 0 .414-.05.594-.132a1.43 1.43 0 0 1 .613-.145c.223 0 .43.055.617.145.18.082.383.132.598.132.211 0 .414-.05.598-.132.183-.09.394-.145.613-.145.219 0 .43.055.621.145.18.082.383.132.602.132V7.06c-.219 0-.422-.051-.602-.133a1.45 1.45 0 0 0-.62-.145Zm.414-4.531.852-.883a.644.644 0 0 0 0-.89.592.592 0 0 0-.86 0l-.851.882a.644.644 0 0 0-.082.778L7.53 3.234 5.434 2.43a.938.938 0 0 0-.18-.082.868.868 0 0 0-1.082.605l-.645 2.25-.011.078H.664v1.192c.219 0 .305-.04.45-.102a1.711 1.711 0 0 1 1.484-.004 1.107 1.107 0 0 0 .93.008c.234-.113.495-.172.745-.172.258 0 .512.055.747.168a1.095 1.095 0 0 0 .93.004 1.74 1.74 0 0 1 .75-.172c.257 0 .51.059.741.172a1.12 1.12 0 0 0 .934.004c.23-.113.492-.172.75-.172.043 0 .219.012.39-.105.31-.141.426-.223.696-.391.223-.145.398-.422-.086-.422h-4.18l1.293-1.273.164.062a.4.4 0 0 0 .516-.246.43.43 0 0 0-.09-.426l1-1.039c.23.125.516.094.711-.11ZM5.574 5.281h-.258l.52-1.804 1.078.414Zm-.008-3.98-.109.222a.425.425 0 0 1-.394.239H4.8a.9.9 0 0 0 .719.355c.453 0 .863-.383.863-.851v.05h-.774l-.043-.02Zm-.503.238c.09 0 .167-.055.203-.133l.109-.199c.043-.09.129-.105.227-.105h.847C6.34.66 5.941.27 5.473.27c-.559 0-1.008.44-1.008 1.023 0 .09.008.246.031.246Zm0 0" style="stroke:none;fill-rule:nonzero;fill:#000;fill-opacity:1"/></svg>