<svg xmlns="http://www.w3.org/2000/svg" width="11" height="11"><path d="M0 .734h5.867v9.532H0ZM6.602 8.066H11v2.2H6.602ZM8.191 4.43c0-.27.047-.496.149-.684.101-.18.285-.371.547-.578.175-.133.316-.246.418-.344a1.19 1.19 0 0 0 .23-.285.8.8 0 0 0 .07-.348c0-.199-.07-.351-.21-.453-.141-.11-.34-.16-.594-.16-.23 0-.45.031-.66.102-.211.066-.418.152-.625.258l-.352-.735c.238-.129.5-.234.777-.316A3.38 3.38 0 0 1 8.88.762c.523 0 .93.129 1.21.383.294.253.442.582.442.988 0 .226-.039.418-.11.582-.07.156-.171.3-.308.437a5.476 5.476 0 0 1-.5.434c-.16.129-.285.234-.375.324a.76.76 0 0 0-.168.262c-.023.09-.035.195-.035.316v.2h-.844Zm-.148 1.496c0-.219.059-.375.172-.461a.684.684 0 0 1 .43-.14c.164 0 .3.046.418.14.124.086.183.242.183.46 0 .216-.059.368-.184.462a.622.622 0 0 1-.417.14.684.684 0 0 1-.43-.14c-.113-.094-.172-.246-.172-.461Zm0 0" style="stroke:none;fill-rule:nonzero;fill:#000;fill-opacity:1"/></svg>