<svg xmlns="http://www.w3.org/2000/svg" width="11" height="11"><path d="M9.496 4.621H9.02V2.723c0-1.25-1.254-2.504-2.5-2.504H4.434C3.187.219 1.98 1.473 1.98 2.723V4.62h-.523c-.148 0-.355.23-.355.363v5.602c0 .133.207.195.355.195h8.04c.151 0 .405-.062.405-.195V4.984c0-.132-.254-.363-.406-.363Zm-2.96 5.277H4.413l.445-2.191c-.27-.191-.445-.55-.445-.906 0-.578.477-1.074 1.063-1.074.59 0 1.062.46 1.062 1.039 0 .355-.176.757-.441.949l.441 2.183Zm.944-5.277H3.52V2.723c0-.57.37-.961.933-.961h2.043c.563 0 .984.39.984.96Zm0 0" style="stroke:none;fill-rule:nonzero;fill:#000;fill-opacity:1"/></svg>