<svg xmlns="http://www.w3.org/2000/svg" width="11" height="11"><path d="M5.5 0C8.527 0 11 2.48 11 5.5 11 8.527 8.535 11 5.5 11A5.508 5.508 0 0 1 0 5.5C0 2.48 2.48 0 5.5 0Zm0 .367A5.126 5.126 0 0 0 .367 5.5 5.124 5.124 0 0 0 5.5 10.633 5.121 5.121 0 0 0 10.633 5.5c0-2.84-2.29-5.133-5.133-5.133Zm0 0" style="stroke:none;fill-rule:nonzero;fill:#000;fill-opacity:1"/><path d="M6.418.828A4.782 4.782 0 0 1 10.266 5.5c0 2.2-1.555 4.215-3.848 4.68 0 0-.223-.645-.918-.645-.734 0-.918.645-.918.645A4.805 4.805 0 0 1 .734 5.5 4.79 4.79 0 0 1 4.582.828s.184.637.918.637.918-.637.918-.637Zm1.648 7.238H6.051c-.367 0-.367.735 0 .735h2.015c.368 0 .368-.735 0-.735Zm-3.117 0H2.934c-.368 0-.368.735 0 .735h2.015c.367 0 .367-.735 0-.735Zm0-1.464H2.2c-.367 0-.367.73 0 .73h2.75c.367 0 .367-.73 0-.73Zm3.852 0H6.05c-.367 0-.367.73 0 .73H8.8c.367 0 .367-.73 0-.73Zm.367-1.47H6.051c-.367 0-.367.735 0 .735h3.117c.367 0 .367-.734 0-.734Zm-4.219 0H1.832c-.367 0-.367.735 0 .735h3.117c.367 0 .367-.734 0-.734Zm0-1.464H2.2c-.367 0-.367.73 0 .73h2.75c.367 0 .367-.73 0-.73Zm3.852 0H6.05c-.367 0-.367.73 0 .73H8.8c.367 0 .367-.73 0-.73Zm-.735-1.469H6.051c-.367 0-.367.735 0 .735h2.015c.368 0 .368-.735 0-.735Zm-3.117 0H2.934c-.368 0-.368.735 0 .735h2.015c.367 0 .367-.735 0-.735Zm0 0" style="stroke:none;fill-rule:nonzero;fill:#000;fill-opacity:1"/></svg>