<svg xmlns="http://www.w3.org/2000/svg" width="11" height="11"><path d="M3.668 6.602V2.199h2.2v.735h-1.47v3.668h1.47v.73H1.464v2.203h2.203v-.734H2.199v-.735h3.668v.735H4.398v.734h4.403v.73H.734V.736h.73v3.663h1.47v1.47h-.735v-.735h-.734v1.469ZM10.266.734v9.532h-.73V8.8H6.601V6.6H8.8v.731H7.332v.734h2.203V5.867H6.602V4.398h-.735v1.47h-.734v-2.2h2.933v-.734H6.602v-.735H8.8v2.2H7.332v.734h2.203V1.465H2.934v2.203h-.735V.734Zm0 0" style="stroke:none;fill-rule:nonzero;fill:#000;fill-opacity:1"/></svg>