<svg xmlns="http://www.w3.org/2000/svg" width="11" height="11"><path d="M5.133 5.133h2.105a.363.363 0 0 0 .184-.051l.558-.316a.198.198 0 0 0 .063-.27.183.183 0 0 0-.168-.098H5.133V.734h4.402c.402 0 .73.329.73.73v8.071c0 .402-.328.73-.73.73h-8.07a.732.732 0 0 1-.73-.73v-8.07c0-.403.328-.73.73-.73h1.469v7.699c0 .203.16.367.367.367h1.465a.364.364 0 0 0 .367-.367V7.332h3.57a.328.328 0 0 0 .184-.05l.558-.317a.195.195 0 0 0 .067-.27.189.189 0 0 0-.168-.093H5.133Zm0 0" style="stroke:none;fill-rule:nonzero;fill:#000;fill-opacity:1"/></svg>