<svg xmlns="http://www.w3.org/2000/svg" width="11" height="11"><path d="m3.668.734 1.465 2.2 2.566-1.102 3.278 7.703H0Zm2.2 2.934h-.735a.362.362 0 0 0-.36.3l-.007.067V5.5H3.3a.362.362 0 0 0-.36.3l-.007.067v.735c0 .183.132.328.3.359l.067.004h1.465v1.469c0 .183.132.328.3.359l.067.008h.734a.366.366 0 0 0 .36-.301l.007-.066v-1.47H7.7a.359.359 0 0 0 .36-.3l.007-.062v-.735a.362.362 0 0 0-.3-.36L7.699 5.5H6.234V4.035a.362.362 0 0 0-.3-.36Zm0 0" style="stroke:none;fill-rule:nonzero;fill:#000;fill-opacity:1"/></svg>