<svg xmlns="http://www.w3.org/2000/svg" width="11" height="11"><path d="M6.695 1.453c.336-.008.602-.008.871-.008 1.059.02 1.668.14 1.895.543.344.602-.316 1.188-1.965 2.008-.531.266-.902.469-1.152.637l-.102.066c.067.016.137.04.227.055.078.012.367.062.41.07.176.04.316.067.453.098 1.168.277 1.836.746 1.836 1.68v2.933H5.5V6.602h2.934c0-.477-.403-.758-1.27-.961a7.08 7.08 0 0 0-.426-.09c-.043-.008-.328-.067-.41-.082-.3-.059-.476-.102-.621-.176-.289-.129-.457-.371-.348-.688.125-.343.649-.683 1.813-1.27.71-.358 1.195-.651 1.46-.878.126-.11.153-.148.177-.133l.007.016c-.097-.059-.59-.149-1.261-.16-.29-.008-.575 0-.97.004-.14.007-.233.007-.3.015-.703 1.028-2.8 3.938-6.285 8.742C2.875 4.496 4.414 1.094 4.633.72c.324-.567.96-.938 1.601-.57.504.292.602.82.461 1.304ZM4.398 9.898V6.234c0-.207.165-.367.368-.367.207 0 .367.16.367.367v3.664c0 .207-.16.368-.367.368a.364.364 0 0 1-.368-.368Zm5.137 0V6.234c0-.207.16-.367.363-.367.207 0 .368.16.368.367v3.664c0 .207-.16.368-.368.368a.361.361 0 0 1-.363-.368Zm-4.27-7.347L6 1.285a.373.373 0 0 0-.133-.508.374.374 0 0 0-.5.141l-.734 1.266a.364.364 0 0 0 .133.5.365.365 0 0 0 .5-.133Zm0 0" style="stroke:none;fill-rule:nonzero;fill:#000;fill-opacity:1"/></svg>