<svg xmlns="http://www.w3.org/2000/svg" width="11" height="11"><path d="M7.332 2.75a.917.917 0 1 1 1.836 0 .917.917 0 1 1-1.836 0Zm.441 2.602-.609-.805-.855.879.554.55c.067.067.102.16.102.258v1.848c0 .2-.168.36-.371.36a.372.372 0 0 1-.36-.376v-1.68l-.992-.995a.36.36 0 0 1 0-.516L6.711 3.41a.354.354 0 0 1 .262-.11c.117 0 .222.06.289.145l.988 1.32h1.29c.132 0 .257.075.315.192.067.11.067.25 0 .367a.377.377 0 0 1-.32.176H8.066a.347.347 0 0 1-.293-.148ZM5.926 7.047a.703.703 0 0 0-.059.285v.734c0 .235.11.442.278.57a1.835 1.835 0 0 1-3.579-.57c0-1.011.82-1.832 1.832-1.832.641 0 1.196.32 1.528.813Zm1.129 1.59a.716.716 0 0 0 .277-.57v-.735a.703.703 0 0 0-.059-.285 1.83 1.83 0 0 1 1.528-.813 1.832 1.832 0 0 1 0 3.664 1.835 1.835 0 0 1-1.746-1.261ZM4.398 6.965a1.1 1.1 0 0 0-1.097 1.101 1.1 1.1 0 1 0 2.199 0 1.1 1.1 0 0 0-1.102-1.101Zm4.403 0a1.1 1.1 0 0 0-1.102 1.101 1.1 1.1 0 1 0 2.2 0c0-.609-.489-1.101-1.098-1.101ZM4.855 4.848c-.03.093-.058.191-.09.285a.722.722 0 0 1-.167.293L3.3 4.504v1.305l.125.226c-.317.117-.617.258-.817.508l-.777-1.074V4.035L.918 5.81h-.55v-.34l.55-1.434.914-.918h.55Zm-3.558 4.32H.918l-.367-.34 1.035-2.836.555.621Zm2.371-7.152a.917.917 0 1 1-1.834.002.917.917 0 0 1 1.834-.002Zm0 0" style="stroke:none;fill-rule:nonzero;fill:#000;fill-opacity:1"/></svg>