<svg xmlns="http://www.w3.org/2000/svg" width="11" height="11"><path d="M7.723 2.3a.756.756 0 0 0 .746-.769.755.755 0 0 0-.746-.765.758.758 0 0 0-.746.765c0 .426.335.77.746.77Zm.554.169H7.191L5.332.563a.372.372 0 0 0-.539-.016.401.401 0 0 0-.016.555l1.942 2v6.62c0 .239.187.434.418.434a.425.425 0 0 0 .422-.433v-3.59h.336l.003 3.59c0 .242.188.433.418.433a.421.421 0 0 0 .418-.43v-6.62l1.942-2A.401.401 0 0 0 10.66.55a.372.372 0 0 0-.539.015l-1.844 1.91ZM4.332 5.39a.61.61 0 0 0-.441-.188H2.328a.602.602 0 0 0-.437.188L.324 7.004a.398.398 0 0 0 .016.555.375.375 0 0 0 .539-.012l1.215-1.25v1.668H.73a.46.46 0 0 0-.453.469c0 .132.047.254.137.336l1.535 1.578a.448.448 0 0 0 .613.144.478.478 0 0 0 .168-.648l-.875-.895h2.528l-.875.899a.486.486 0 0 0 .168.648c.21.129.48.063.617-.144l1.531-1.575a.465.465 0 0 0 .14-.34.462.462 0 0 0-.452-.468h-1.36V6.32l1.192 1.23a.372.372 0 0 0 .539.013.397.397 0 0 0 .012-.555L4.332 5.395Zm-1.207-.352a.755.755 0 0 0 .746-.766.752.752 0 0 0-.742-.765c-.41 0-.746.34-.746.765 0 .422.336.766.746.766Zm0 0" style="stroke:none;fill-rule:nonzero;fill:#000;fill-opacity:1"/></svg>