<svg xmlns="http://www.w3.org/2000/svg" width="11" height="11"><path d="m4.883 4.914 1.293 1.297-1.77 1.773a7.14 7.14 0 0 0-1.34 1.856l-.418.836a.351.351 0 0 1-.324.199h-.812L.477 9.84a.359.359 0 0 1 0-.52Zm3.11-2.59.777.778a.354.354 0 0 1 0 .515l-.52.52L6.96 2.84l.513-.516a.365.365 0 0 1 .52 0Zm2.112 6.254L7.473 5.95a.726.726 0 0 0-1.035 0L5.14 4.656a.57.57 0 0 0 0-.8.503.503 0 0 0-.118-.086L3.2 2.715 2.156 1.672 3.72.117l4.273 4.278 2.633 3.671Zm0 0" style="stroke:none;fill-rule:nonzero;fill:#000;fill-opacity:1"/></svg>