<svg xmlns="http://www.w3.org/2000/svg" width="11" height="11"><path d="M2.934 5.133v5.133h-1.47V5.707l-.73.277V4.398L10.266.734v1.567Zm2.015 0h4.035c.309 0 .551.242.551.55 0 .31-.242.551-.55.551h-.919l.336 1.098h1.313c.308 0 .55.242.55.55 0 .31-.242.552-.55.552h-.973l.793 1.832h-.734l-.793-1.832H5.926l-.793 1.832h-.735l.793-1.832h-.976a.544.544 0 0 1-.547-.551c0-.309.242-.551.547-.551H5.53l.336-1.098H4.95a.545.545 0 0 1-.55-.55c0-.309.242-.551.55-.551Zm1.653 1.101-.34 1.098h1.41l-.34-1.098Zm0 0" style="stroke:none;fill-rule:nonzero;fill:#000;fill-opacity:1"/></svg>