<svg xmlns="http://www.w3.org/2000/svg" width="11" height="11"><path d="M10.266 1.465c.734 0 .367.734 0 .734-1.465 0-1.832.367-2.934 2.934-1.465 3.3-2.383 4.402-5.133 4.402C.367 9.535.367 8.066.367 7.332c0-.73 0-1.281.184-1.832.367.184.734.367 1.648.367.918 0 1.285-.183 1.653-.367.183.55.183 1.102.183 1.832 0 0 1.465-.367 2.567-2.566 1.097-2.567 1.832-3.301 3.664-3.301ZM3.668 5.133c0-.184-1.469-.184-1.469-.184s-1.465 0-1.465.184c0 .183.73.367 1.465.367.735 0 1.469-.184 1.469-.367Zm0 0" style="stroke:none;fill-rule:nonzero;fill:#000;fill-opacity:1"/></svg>