<svg xmlns="http://www.w3.org/2000/svg" width="11" height="11"><path d="M6.008.61c.344.343.176.863-.516 1.554l-.262.258.262 2.851-.52.52L3.93 3.719 2.898 4.758v1.035l-.523.52-.512-1.555-1.562-.52.52-.52h1.042l1.035-1.034L.82 1.644l.524-.515 2.851.258.258-.258C5.141.434 5.66.266 6.008.609Zm-1 9.796c-.344-.344-.176-.867.523-1.554l.254-.258-.254-2.852.512-.52 1.043 2.075 1.031-1.035v-1.04l.52-.523.523 1.563 1.555.515-.524.52h-1.03L8.116 8.332l2.074 1.04-.52.523-2.85-.266-.258.266c-.688.687-1.211.855-1.555.511Zm0 0" style="stroke:none;fill-rule:nonzero;fill:#000;fill-opacity:1"/></svg>