<svg xmlns="http://www.w3.org/2000/svg" width="11" height="11"><path d="M7.324 6.512c.008.484-.101.968-.32 1.41-.332.644-.711 1.047-1.137 1.187v.79c0-.204.16-.364.367-.364.204 0 .368.16.368.363v.735a.364.364 0 0 1-.368.367.362.362 0 0 1-.367-.367h-.734c0 .207-.16.367-.367.367a.364.364 0 0 1-.368-.367v-.735c0-.203.165-.363.368-.363.207 0 .367.16.367.363V9.11c-.426-.14-.805-.543-1.137-1.187a3.046 3.046 0 0 1-.32-1.41l-1.477-.66v1.113c0-.203.164-.363.367-.363.207 0 .368.16.368.363v.734c0 .207-.16.367-.368.367A.364.364 0 0 1 2.2 7.7h-.734c0 .207-.16.367-.363.367A.362.362 0 0 1 .734 7.7v-.734c0-.203.16-.363.368-.363a.36.36 0 0 1 .363.363V5.523l-.856-.39-.586-1.13a.244.244 0 0 1 .102-.316.277.277 0 0 1 .102-.019h.226c.098 0 .192.035.258.102l.644.628h2.516c.156-.847.402-1.449.75-1.808l-1.059-.41a.373.373 0 0 1 .133-.715h1.438V.367C5.133.16 5.293 0 5.5 0s.367.16.367.367v1.098h1.438a.37.37 0 0 1 .133.715l-1.06.41c.349.36.595.96.75 1.808h2.509l.644-.628a.363.363 0 0 1 .258-.102h.227c.125 0 .226.102.226.227a.276.276 0 0 1-.023.109l-.578 1.129-.856.383v1.449a.36.36 0 0 1 .363-.363c.207 0 .368.16.368.363v.734c0 .207-.16.367-.368.367a.361.361 0 0 1-.363-.367h-.734a.364.364 0 0 1-.367.367.362.362 0 0 1-.368-.367v-.734c0-.203.16-.363.368-.363.203 0 .367.16.367.363V5.844ZM5.133 5.5l-.735.734c.415.243.778.368 1.102.368.324 0 .688-.125 1.102-.368L5.867 5.5Zm0 0" style="stroke:none;fill-rule:nonzero;fill:#000;fill-opacity:1"/></svg>