<svg xmlns="http://www.w3.org/2000/svg" width="11" height="11"><path d="M5.133 8.7V3.937a.747.747 0 0 1-.367-.637V1.746L1.145 2.2a.37.37 0 0 1-.41-.32.377.377 0 0 1 .32-.414l3.718-.461A.728.728 0 0 1 5.5.367c.309 0 .57.192.684.461l3.671-.46a.37.37 0 0 1 .41.32.377.377 0 0 1-.32.414l-3.71.46v1.739c0 .27-.15.504-.368.636V8.7l1.27.899a.37.37 0 0 1 .086.515.387.387 0 0 1-.301.153H4.078a.362.362 0 0 1-.367-.368c0-.117.059-.226.152-.3Zm0 0" style="stroke:none;fill-rule:nonzero;fill:#000;fill-opacity:1"/></svg>