<svg xmlns="http://www.w3.org/2000/svg" width="11" height="11"><path d="M9.535 0v11h-8.07V0ZM8.066.734H2.934L2.926.82a.72.72 0 0 1-.637.64l-.09.005v8.07l.09.004c.336.04.602.3.637.64l.008.087h5.132l.008-.086a.72.72 0 0 1 .637-.64l.09-.005v-8.07l-.09-.004a.734.734 0 0 1-.645-.727ZM3.437 7.598c.223.093.465.175.727.242l.258.05.133.036.168.047.433.129.551.183.379.133.023.023c.278.25.454.594.485.97l.008.124H2.934v-.433c0-.493.144-.977.418-1.387Zm3.895-4.114v.914l.734 1.47h-.734c0 .769-.602 1.405-1.355 1.456l-.11.008v.625L5.25 7.75l-.344-.11-.183-.05-.16-.043-.36-.082a3.573 3.573 0 0 1-.535-.168V5.648Zm.95-1.394.093.152a.19.19 0 0 1-.066.258L2.91 5.617a.183.183 0 0 1-.25-.074l-.094-.152a.364.364 0 0 1 .133-.5l5.082-2.934a.364.364 0 0 1 .5.133Zm-1.72.14L3.551 3.977c-.242-.993.011-1.704.777-2.145.754-.437 1.5-.309 2.234.398Zm0 0" style="stroke:none;fill-rule:nonzero;fill:#000;fill-opacity:1"/></svg>