<svg xmlns="http://www.w3.org/2000/svg" width="11" height="11"><path d="M4.398.367v1.098h1.836c.368 0 .368.367.368.367v7.336s0 .367-.368.367H4.398v1.098c0 .367-2.199.367-2.199 0V9.535H.367C0 9.535 0 9.168 0 9.168V1.832s0-.367.367-.367H2.2V.367C2.2 0 4.4 0 4.4.367Zm1.47 2.2c0-.368-.368-.368-.368-.368H1.102s-.368 0-.368.367v5.868c0 .367.368.367.368.367H5.5s.367 0 .367-.367V2.566Zm0 0" style="stroke:none;fill-rule:nonzero;fill:#000;fill-opacity:1"/><path d="M3.668 3.3v4.4c0 .366-.367.366-.367.366H1.832s-.367 0-.367-.367V3.301c0-.367.367-.367.367-.367h1.469s.367 0 .367.367Zm-.734 2.75c0-.183-.184-.183-.184-.183h-.367s-.184 0-.184.184v1.097c0 .184.184.184.184.184h.367s.184 0 .184-.184V6.051ZM4.398 3.3v1.466c0 .183.184.183.184.183h.367s.184 0 .184-.183V3.3c0-.184-.184-.184-.184-.184h-.367s-.184 0-.184.184Zm.368 3.212c.207 0 .367.25.367.453 0 .207-.16.465-.367.465-.204 0-.368-.258-.368-.465 0-.203.165-.453.368-.453Zm.828.453c0-.453-.364-.914-.828-.914-.454 0-.82.46-.82.914 0 .465.366.918.82.918.464 0 .828-.453.828-.918ZM8.434 1.465 7.332 5.867h1.469l-.735 3.668L11 4.398H9.535l1.098-2.933h-2.2Zm0 0" style="stroke:none;fill-rule:nonzero;fill:#000;fill-opacity:1"/></svg>