<svg xmlns="http://www.w3.org/2000/svg" width="11" height="11"><path d="M8.434 1.465 7.332 5.867h1.469l-.735 3.668L11 4.398H9.535l1.098-2.933h-2.2ZM3.3 0c.552 0 1.098.55 1.098 1.102 0 .546-.546 1.097-1.097 1.097-.551 0-1.102-.55-1.102-1.097C2.2.55 2.75 0 3.301 0Zm0 .734a.395.395 0 0 0-.366.368c0 .183.183.363.367.363.183 0 .367-.18.367-.363a.395.395 0 0 0-.367-.368Zm0 8.801c.184 0 .368.18.368.363a.395.395 0 0 1-.367.368.395.395 0 0 1-.367-.368c0-.183.183-.363.367-.363Zm0-.734c-.55 0-1.1.55-1.1 1.097C2.2 10.45 2.75 11 3.3 11c.552 0 1.098-.55 1.098-1.102 0-.546-.546-1.097-1.097-1.097Zm1.833-5.133v3.664H1.465V3.668Zm.734-.367s0-.367-.367-.367H3.668v-.368c0-.367-.734-.367-.734 0v.368H1.102c-.368 0-.368.367-.368.367v4.398s0 .367.368.367h1.832v.368c0 .367.734.367.734 0v-.368H5.5c.367 0 .367-.367.367-.367Zm0 0" style="stroke:none;fill-rule:nonzero;fill:#000;fill-opacity:1"/></svg>