<svg xmlns="http://www.w3.org/2000/svg" width="11" height="11"><path d="M4.398.367v1.098h1.836c.368 0 .368.367.368.367v7.336s0 .367-.368.367H4.398v1.098c0 .367-2.199.367-2.199 0V9.535H.367C0 9.535 0 9.168 0 9.168V1.832s0-.367.367-.367H2.2V.367C2.2 0 4.4 0 4.4.367ZM3.301 2.934C1.832 2.934.734 4.035.734 5.5c0 1.465 1.098 2.566 2.567 2.566 1.465 0 2.566-1.101 2.566-2.566 0-1.465-1.101-2.566-2.566-2.566Zm0 0" style="stroke:none;fill-rule:nonzero;fill:#000;fill-opacity:1"/><path d="M2.2 6.602h2.198c.368 0 .368.73 0 .73H2.2c-.367 0-.367-.73 0-.73Zm-.368-2.567c-.184.18.809 1.172.809 1.172s-.075.145-.075.293c0 .367.278.734.735.734.46 0 .734-.367.734-.734a.723.723 0 0 0-.734-.734c-.223 0-.293.074-.293.074s-.992-.988-1.176-.805ZM8.434 1.465 7.332 5.867h1.469l-.735 3.668L11 4.398H9.535l1.098-2.933h-2.2Zm0 0" style="stroke:none;fill-rule:nonzero;fill:#000;fill-opacity:1"/></svg>