<svg xmlns="http://www.w3.org/2000/svg" width="11" height="11"><path d="M8.434 1.465 7.332 5.867h1.469l-.735 3.668L11 4.398H9.535l1.098-2.933h-2.2ZM2.566 0c.551 0 1.102.55 1.102 1.102 0 .546-.55 1.097-1.102 1.097-.55 0-1.101-.55-1.101-1.097C1.465.55 2.015 0 2.566 0Zm0 .734a.395.395 0 0 0-.367.368c0 .183.184.363.367.363.184 0 .368-.18.368-.363a.395.395 0 0 0-.368-.368Zm0 8.801c.184 0 .368.18.368.363a.395.395 0 0 1-.368.368.395.395 0 0 1-.367-.368c0-.183.184-.363.367-.363Zm0-.734c-.55 0-1.101.55-1.101 1.097 0 .551.55 1.102 1.101 1.102.551 0 1.102-.55 1.102-1.102 0-.546-.55-1.097-1.102-1.097Zm1.286-6.418c1.648 2.383 1.648 3.851 0 6.234-.184.367.183 1.281.546.918 2.204-2.203 2.204-5.867 0-8.07-.363-.363-.73.55-.546.918Zm0 0" style="stroke:none;fill-rule:nonzero;fill:#000;fill-opacity:1"/></svg>