<svg xmlns="http://www.w3.org/2000/svg" width="11" height="11"><path d="M8.434 1.465 7.332 5.867h1.469l-.735 3.668L11 4.398H9.535l1.098-2.933h-2.2ZM2.2 1.102C2.2.55 2.75 0 3.3 0c.552 0 1.098.55 1.098 1.102 0 .546-.546 1.097-1.097 1.097-.551 0-1.102-.55-1.102-1.097ZM3.3.734a.395.395 0 0 0-.366.368c0 .183.183.363.367.363.183 0 .367-.18.367-.363a.395.395 0 0 0-.367-.368Zm0 8.801c.184 0 .368.18.368.363a.395.395 0 0 1-.367.368.395.395 0 0 1-.367-.368c0-.183.183-.363.367-.363Zm-1.1.363C2.2 10.45 2.75 11 3.3 11c.552 0 1.098-.55 1.098-1.102 0-.546-.546-1.097-1.097-1.097-.551 0-1.102.55-1.102 1.097Zm.734-7.332v5.868c0 .367.734.367.734 0V2.566c0-.367-.734-.367-.734 0Zm0 0" style="stroke:none;fill-rule:nonzero;fill:#000;fill-opacity:1"/></svg>