<svg xmlns="http://www.w3.org/2000/svg" width="11" height="11"><path d="M.734 2.566h2.934v5.868H.734Zm6.598 3.668c-.73 0-1.098.73-1.465.73s-.734-.73-1.469-.73v.73c.368 0 .735.735 1.47.735.734 0 1.097-.734 1.464-.734s.734.734 1.469.734c.734 0 1.097-.734 1.465-.734v-.73c-.73 0-1.098.73-1.465.73s-.735-.73-1.469-.73Zm2.934-1.468c-.73 0-1.098.734-1.465.734s-.735-.734-1.469-.734c-.73 0-1.098.734-1.465.734s-.734-.734-1.469-.734V5.5c.368 0 .735.734 1.47.734.734 0 1.097-.734 1.464-.734s.734.734 1.469.734c.734 0 1.097-.734 1.465-.734v-.734" style="stroke:none;fill-rule:nonzero;fill:#000;fill-opacity:1"/></svg>