<svg xmlns="http://www.w3.org/2000/svg" width="11" height="11"><path d="M8.434 2.2H8.8v-.735h-.367v-.73h.734c.203 0 .367.16.367.367v1.464a.364.364 0 0 1-.367.368h-.734Zm-5.868 0v.734h-.734a.364.364 0 0 1-.367-.368V1.102c0-.207.164-.368.367-.368h.734v.73H2.2V2.2Zm0 7.335v.73h-.734a.364.364 0 0 1-.367-.367V8.434c0-.207.164-.368.367-.368h.734v.735H2.2v.734Zm5.868 0H8.8v-.734h-.367v-.735h.734c.203 0 .367.16.367.368v1.464a.364.364 0 0 1-.367.368h-.734Zm0-3.668H8.8v-.734h-.367v-.735h.734c.203 0 .367.165.367.368v1.468a.367.367 0 0 1-.367.368h-.734Zm-5.868 0v.735h-.734a.367.367 0 0 1-.367-.368V4.766c0-.204.164-.368.367-.368h.734v.735H2.2v.734Zm1.47 2.2h2.929v2.199h-2.93Zm0-3.669h2.929v2.204h-2.93Zm0-3.664h2.929v2.2h-2.93ZM2.933 0h.734v11h-.734Zm4.398 0h.734v11h-.734Zm0 0" style="stroke:none;fill-rule:nonzero;fill:#000;fill-opacity:1"/></svg>