<svg xmlns="http://www.w3.org/2000/svg" width="11" height="11"><path d="m4.398 8.8-.363.735h2.93l-.363-.734h1.097L8.801 11H7.699l-.367-.734H3.668L3.301 11H2.199l1.102-2.2ZM4.336.278a.55.55 0 0 1 .195.75L1.047 7.062a.545.545 0 0 1-.746.2.548.548 0 0 1-.207-.75L3.578.477a.555.555 0 0 1 .758-.2Zm-1.77 4.887 2.2-3.816 2.265.507a.34.34 0 0 1 .192.11L8.71 3.594c.05.05.117.086.191.11l1.774.39a.369.369 0 0 1 .242.539L9.102 7.78a.379.379 0 0 1-.399.176l-2-.45a.32.32 0 0 1-.191-.109L5.023 5.77a.464.464 0 0 0-.191-.11Zm0 0" style="stroke:none;fill-rule:nonzero;fill:#000;fill-opacity:1"/></svg>