<svg xmlns="http://www.w3.org/2000/svg" width="11" height="11"><path d="M7.7 8.066v2.2H3.3v-2.2Zm1.468 0h.73c.207 0 .368.16.368.368v1.464c0 .207-.16.368-.368.368h-.73v-.73h.367V8.8h-.367ZM7.699 4.398v2.204H3.301V4.398Zm1.469 0h.73c.207 0 .368.165.368.368v1.468c0 .204-.16.368-.368.368h-.73v-.735h.367v-.734h-.367ZM1.832 8.066v.735h-.367v.734h.367v.73h-.73a.362.362 0 0 1-.368-.367V8.434c0-.207.16-.368.368-.368Zm0-3.668v.735h-.367v.734h.367v.735h-.73a.364.364 0 0 1-.368-.368V4.766c0-.204.16-.368.368-.368ZM2.199.734h.735V11h-.735Zm5.867 0h.735V11h-.735Zm0 0" style="stroke:none;fill-rule:nonzero;fill:#000;fill-opacity:1"/></svg>