<svg xmlns="http://www.w3.org/2000/svg" width="11" height="11"><path d="m5.5 6.613 5.434 2.172.043.016H11L5.5 11 0 8.8h.035l.031-.015Zm0 .778L1.973 8.8 5.5 10.207l3.527-1.406ZM5.316.074v6.16l.008.043v.016l-1.656.66V4.04a.788.788 0 0 0-1.102-.719 1.836 1.836 0 0 0-1.093 1.551L1.465 5v2.832L0 8.418V2.199Zm.368 0L11 2.2v6.219L5.676 6.293l.008-.031Zm1.464 2.86v2.199l2.204.918v-2.2ZM2.934 4.949a.367.367 0 1 1 0 .735.362.362 0 0 1-.368-.368c0-.203.16-.367.368-.367Zm0 0" style="stroke:none;fill-rule:nonzero;fill:#000;fill-opacity:1"/></svg>