<svg xmlns="http://www.w3.org/2000/svg" width="11" height="11"><path d="M0 8.023V7.13c0-1.313.25-2.606.734-3.82l.594-1.504a.547.547 0 0 1 1.012 0c.937 2.23 1.996 3.343 3.16 3.343 1.164 0 2.223-1.113 3.16-3.343a.547.547 0 0 1 1.012 0l.594 1.504c.484 1.214.734 2.507.734 3.82v.894c0 .813-.66 1.465-1.465 1.465a1.4 1.4 0 0 1-.476-.074A10.844 10.844 0 0 0 5.5 8.801c-1.188 0-2.367.203-3.559.613A1.462 1.462 0 0 1 0 8.024Zm1.832-5.808L.734 5.242l.73.735.735-.735.735 1.469c.492-.977.734-1.469.734-1.469a6.093 6.093 0 0 1-1.184-1.664Zm7.336 0-.652 1.363c-.297.617-.7 1.18-1.184 1.664 0 0 .242.492.734 1.469l.735-1.469.734.735.73-.735Zm0 0" style="stroke:none;fill-rule:nonzero;fill:#000;fill-opacity:1"/></svg>