<svg xmlns="http://www.w3.org/2000/svg" width="11" height="11"><path d="M4.035 1.465c.203 0 .363.164.363.367v7.703h6.235c.207 0 .367.16.367.363 0 .207-.16.368-.367.368H4.398V11h-.73v-.734h-3.3A.362.362 0 0 1 0 9.898c0-.203.16-.363.367-.363h3.301V1.832c0-.203.16-.367.367-.367ZM6.602 0c.152 1.219.644 2.684 1.464 4.398a55.26 55.26 0 0 0 2.567 4.77H4.766l.105-.617c.176-1.102.262-1.996.262-2.684 0-.156-.008-.324-.016-.5l-.02-.379-.038-.426c0-.074-.008-.148-.012-.222l-.059-.477-.058-.52-.075-.55-.09-.594ZM2.957 3.418l.344-.484-.11.945-.097.867-.074.77-.043.46-.028.426c-.008.067-.008.133-.015.2a6.34 6.34 0 0 0 .277 2.324l.09.242H.367l.082-.293.153-.559.152-.515.156-.469c.02-.07.043-.144.074-.219l.137-.41c.117-.324.234-.601.344-.836.133-.277.308-.61.539-.976l.234-.387.13-.2.28-.433Zm0 0" style="stroke:none;fill-rule:nonzero;fill:#000;fill-opacity:1"/></svg>