<svg xmlns="http://www.w3.org/2000/svg" width="11" height="11"><path d="M8.434 3.117a.92.92 0 0 1-.918.918.919.919 0 0 1 0-1.836c.507 0 .918.41.918.918ZM6.602 4.215h.546l3.118 2.187v.504h-.368L8.066 5.602v1.304l.735 1.344.734 1.68-.367.336h-.367l-.735-1.68L6.602 6.57V5l-.918.727-.735 1.18H4.4V6.57l.55-1.011Zm.304 3.5-.84 2.55h-.382l-.368-.335 1.036-2.84ZM1.465 2.199h1.101c.207 0 .368.164.368.367 0 .207-.16.368-.368.368H1.465Zm0-.734v2.933h2.203V1.465Zm0-.73h2.203c.402 0 .73.328.73.73v2.933a.733.733 0 0 1-.73.735H1.465a.733.733 0 0 1-.73-.735V1.465c0-.403.328-.73.73-.73ZM2.199 5.5h.735v4.766h-.735Zm0 0" style="stroke:none;fill-rule:nonzero;fill:#000;fill-opacity:1"/></svg>