<svg xmlns="http://www.w3.org/2000/svg" width="11" height="11"><path d="m5.484 0-.793.785c.055.344.063.61.098.91-.969.301-1.695 1.18-1.695 2.235 0 1.062.734 1.945 1.722 2.23-.043.3-.07.578-.125.91l.399.395v.316c-.735-.484-1.512-1.027-1.996-1.496-1.614-1.57-1.188-4.32.8-5.5C2.31 1.18.735 2.602.735 4.715c0 2.355 2.36 3.14 2.36 3.93l.8-.79 1.02.563c-.484.3-1.02.617-1.02.617l.395.395.852-.47v.567c-.258.13-.45.38-.45.688a.79.79 0 0 0 .793.785c.442 0 .801-.352.801-.785a.74.74 0 0 0-.426-.688v-.566l.82.469.4-.395s-.56-.344-.993-.617l.992-.563.797.79c0-.79 2.39-1.575 2.39-3.93 0-2.113-1.59-3.535-3.187-3.93 1.992 1.18 2.418 3.93.797 5.5-.492.477-1.246 1.035-1.988 1.524v-.344l.398-.395c-.058-.324-.09-.61-.125-.91.985-.285 1.715-1.168 1.715-2.23 0-1.07-.73-1.942-1.715-2.235.035-.3.067-.582.125-.91Zm.575 2.457c.601.227 1.02.8 1.02 1.473 0 .668-.419 1.246-1.02 1.476a14.881 14.881 0 0 1 0-2.949Zm-1.196.023c.008 0 .02.004.028 0 .109 1.09.117 1.95.023 2.926a1.594 1.594 0 0 1-1.02-1.476c0-.653.403-1.211.97-1.45ZM3.496 9.43a.4.4 0 0 0-.402.39.4.4 0 0 0 .402.395.394.394 0 0 0 .399-.395.394.394 0 0 0-.399-.39Zm3.984 0a.4.4 0 0 0-.402.39.4.4 0 0 0 .402.395.393.393 0 1 0 0-.785Zm0 0" style="stroke:none;fill-rule:nonzero;fill:#000;fill-opacity:1"/></svg>