<svg xmlns="http://www.w3.org/2000/svg" width="11" height="11"><path d="M9.453 7.367c.555 0 1.004-.469 1.004-1.043s-.453-1.039-1.004-1.039c-.555 0-1.004.465-1.004 1.04 0 .573.45 1.042 1.004 1.042Zm.77 2.324c.047.016.066.024.117.024.258 0 .453-.215.453-.48a.487.487 0 0 0-.297-.446l-1.39-.562-1.016-1.86s-.086-.203-.375-.316l-3.32-1.375-1.97-3.461A.668.668 0 0 0 1.86.883a.673.673 0 0 0-.66.687c0 .121.031.23.082.332L3.731 6.2 2.18 5.56l-.39.261 6.202 2.543h-.004l.254.399s.102.215.403.336l.77.308c-.5.52-1.204.293-1.204.293L.64 6.547l-.418.258 7.957 3.234c.918.348 1.722-.48 1.722-.48l.325.14Zm0 0" style="stroke:none;fill-rule:nonzero;fill:#000;fill-opacity:1"/></svg>