<svg xmlns="http://www.w3.org/2000/svg" width="11" height="11"><path d="M10.422 4.793 8.043 2.637a.923.923 0 0 0-.273-.18l-1.856-.652L5.07.602a.41.41 0 0 0-.73.191.443.443 0 0 0 .058.258l.864 1.222c.039.051.09.09.148.122l1 .386-1.644.824a.88.88 0 0 0-.434.618l.012 1.476-1.516.672a.515.515 0 0 0-.207.762l-.816-.305a.542.542 0 0 1-.325-.336.53.53 0 0 0-.671-.328.525.525 0 0 0-.336.664c.156.453.504.809.957.977l7.093 2.652c.454.172.954.133 1.372-.102a.517.517 0 0 0 .195-.71.53.53 0 0 0-.723-.196.547.547 0 0 1-.469.031l-1.757-.656a.52.52 0 0 0 .347-.414l.278-2.207v-.031a.482.482 0 0 0-.164-.39L6.41 4.737l1.797-.87 1.668 1.51c.074.071.176.118.285.118a.407.407 0 0 0 .402-.402.39.39 0 0 0-.136-.297ZM6.68 6.34l-.235 1.937-.004.032a.515.515 0 0 0 .07.277L3.169 7.332a.511.511 0 0 0 .11-.035l1.859-.828a.521.521 0 0 0 .261-.344l-.003-.918L6.684 6.34ZM7.629 1.66c0 .461.379.832.844.832a.839.839 0 0 0 .847-.832.841.841 0 0 0-.847-.832.84.84 0 0 0-.844.832Zm0 0" style="stroke:none;fill-rule:nonzero;fill:#000;fill-opacity:1"/></svg>