<svg xmlns="http://www.w3.org/2000/svg" width="11" height="11"><path d="M10.39 9.02H6.82v.878h3.61c.297 0 .351-.253.351-.253V9.43s-.004-.407-.39-.407Zm-.492-.172a.884.884 0 0 0 0-1.77.885.885 0 0 0 0 1.77ZM8.04 8.8c.465 0 .836-.328.836-.79 0-.464-.375-.706-.836-.71l-1.219.156v1.34h1.22ZM4.08 3.066c.538 0 .976-.441.976-.984a.981.981 0 0 0-.977-.984.982.982 0 0 0-.98.984c0 .543.437.984.98.984Zm-1 3.18-.009-.012L2.625 5.2v2.063h1.328l.29-.309-.786-.3a.65.65 0 0 1-.379-.407Zm.28-.094a.393.393 0 0 0 .223.211l1.512.563a.38.38 0 0 0 .504-.2.384.384 0 0 0-.196-.507L4.008 5.69l-.434-1.035.281-.105.368.886 1.058.395V4.75l.563.336.285 1.414a.38.38 0 0 0 .488.238c.2-.07.305-.289.235-.492l-.313-1.363a.391.391 0 0 0-.125-.192c-.16-.18-.976-1.093-1.031-1.152-.086-.086-.281-.238-.649-.238h-1.32c-.75 0-.894.765-.742 1.152l.691 1.7ZM6.602 7.48H.656c-.215 0-.433.122-.433.391v2.027h6.379Zm0 0" style="stroke:none;fill-rule:nonzero;fill:#000;fill-opacity:1"/></svg>