<svg xmlns="http://www.w3.org/2000/svg" width="11" height="11"><path d="M6.602 7.332v.367C6.602 9.527 5.125 11 3.3 11A3.294 3.294 0 0 1 0 7.7c0-1.825 1.473-3.302 3.3-3.302h3.302v-.73h-.735v-.367c0-.102.008-.207.02-.309a.35.35 0 0 0-.297-.418.359.359 0 0 0-.418.301c-.024.14-.04.277-.04.426v.367h-.734v-.367C4.398 1.473 5.875 0 7.7 0 9.527 0 11 1.473 11 3.3c0 1.825-1.473 3.302-3.3 3.302H4.397v.73h.735v.398c0 .11-.016.22-.035.329-.04.199.086.398.285.433a.368.368 0 0 0 .433-.285c.028-.156.051-.316.051-.469v-.406Zm-2.204-.73H3.301A1.1 1.1 0 1 0 4.399 7.7Zm2.204-2.204h1.097A1.1 1.1 0 1 0 6.601 3.3Zm.261-2.734c.242-.125.516-.191.793-.2h.14a.361.361 0 0 0 .388-.343.37.37 0 0 0-.352-.387h-.184c-.394.008-.777.11-1.12.286a.364.364 0 1 0 .335.644Zm2.39.66c.161.266.259.567.282.88.004.198.18.355.38.347a.374.374 0 0 0 .35-.39 2.607 2.607 0 0 0-.386-1.224.368.368 0 0 0-.508-.113.356.356 0 0 0-.117.5Zm-.386 2.39c-.242.2-.527.333-.836.391a.366.366 0 0 0 .129.719 2.562 2.562 0 0 0 1.168-.535.383.383 0 0 0 .05-.523.37.37 0 0 0-.51-.051Zm-2.797.419H4.973a.362.362 0 0 0-.368.367c0 .207.16.367.368.367H6.07a.367.367 0 1 0 0-.734Zm-3.172.031c-.433.07-.836.246-1.183.512a.37.37 0 0 0-.059.511.364.364 0 0 0 .516.067c.242-.188.535-.313.844-.367a.361.361 0 0 0 .3-.418.371.371 0 0 0-.418-.305ZM.734 7.81c.02.441.153.859.371 1.234.114.168.34.227.508.117a.371.371 0 0 0 .125-.508 1.803 1.803 0 0 1-.273-.87.359.359 0 0 0-.38-.352.371.371 0 0 0-.35.379Zm2.375 2.449a2.582 2.582 0 0 0 1.27-.227.371.371 0 0 0 .176-.492.361.361 0 0 0-.485-.176c-.242.114-.5.172-.785.172-.035 0-.082 0-.125-.008a.367.367 0 0 0-.394.336.364.364 0 0 0 .343.395Zm0 0" style="stroke:none;fill-rule:nonzero;fill:#000;fill-opacity:1"/></svg>