<svg xmlns="http://www.w3.org/2000/svg" width="11" height="11"><path d="M8.8 5.867v4.766c0 .367-.734.367-.734 0V7.332c-.367.734-1.832 2.203-1.832 2.203-.367.363-1.101.363-1.468 0 0 0-1.465-1.469-1.832-2.203v3.3c0 .368-.735.368-.735 0V5.868c.367 1.098 6.235 1.098 6.602 0ZM5.5 3.301c.586 0 1.102.367 1.102.734 0 .363-.516.73-1.102.73-.586 0-1.102-.367-1.102-.73 0-.367.516-.734 1.102-.734Zm3.3-1.836c-.734-1.832-5.866-1.832-6.6 0v3.668c0 1.469 6.6 1.469 6.6 0V1.465Zm0 0" style="stroke:none;fill-rule:nonzero;fill:#000;fill-opacity:1"/></svg>