<svg xmlns="http://www.w3.org/2000/svg" width="11" height="11"><path d="M7.332 5.133v5.133H3.668V5.133Zm.734 0h.735c.402 0 .734.332.734.734v3.668c0 .402-.332.73-.734.73h-.735Zm-5.132 0v5.133h-.735a.735.735 0 0 1-.734-.73V5.866c0-.402.332-.734.734-.734Zm3.668 0v-.735H4.398v.735h-.73v-.735c0-.402.328-.73.73-.73h2.204c.402 0 .73.328.73.73v.735ZM8.434 0c.203 0 .367.16.367.367v2.2a.364.364 0 0 1-.367.367H7.332a1.442 1.442 0 0 1-1.262-.735H5.5l-.734-.734-.73.734-.735-.734-.735.734-.734-.734.734-.73H6.07C6.32.292 6.79 0 7.332 0Zm-.368 1.832v-.73A.362.362 0 0 0 7.7.734a.364.364 0 0 0-.367.368v.73c0 .207.164.367.367.367.207 0 .367-.16.367-.367Zm0 0" style="stroke:none;fill-rule:nonzero;fill:#000;fill-opacity:1"/></svg>