<svg xmlns="http://www.w3.org/2000/svg" width="11" height="11"><path d="M1.465.734h8.07c.402 0 .73.329.73.73v8.071c0 .402-.328.73-.73.73h-8.07a.732.732 0 0 1-.73-.73v-8.07c0-.403.328-.73.73-.73Zm8.07 3.664a.735.735 0 0 0-.734-.73H2.199a.735.735 0 0 0-.734.73v3.668c0 .403.332.735.734.735h6.602a.739.739 0 0 0 .734-.735Zm-2.933-.73h.73v-.734a.735.735 0 0 0-.73-.735H4.398a.735.735 0 0 0-.73.735v.734h.73v-.734h2.204Zm-4.036.73h1.47c.202 0 .362.165.362.368v2.933c0 .207-.16.367-.363.367H2.566A.364.364 0 0 1 2.2 7.7V4.766c0-.204.164-.368.367-.368Zm4.036 0h1.464c.403 0 .735.332.735.735a.739.739 0 0 1-.735.734H6.602Zm-.735 0h.367v1.47h-.367a.739.739 0 0 1-.734-.735c0-.403.332-.735.734-.735Zm0 2.204h.367v1.464h-.367a.736.736 0 0 1-.734-.734c0-.402.332-.73.734-.73Zm.735 0h1.464c.403 0 .735.328.735.73a.736.736 0 0 1-.735.734H6.602Zm0 0" style="stroke:none;fill-rule:nonzero;fill:#000;fill-opacity:1"/></svg>