<svg xmlns="http://www.w3.org/2000/svg" width="11" height="11"><path d="M5.676.535a.92.92 0 0 0-.918.918s.031.012.031.035a.893.893 0 0 0-1.262.098.841.841 0 0 0-.207.445 1.268 1.268 0 0 0-.36-.05 1.106 1.106 0 0 0-1.112 1.093c0 .145.03.285.09.422-.59.164-.926.766-.766 1.352.105.367.398.652.766.754.183.574.796.886 1.37.707.395-.133.68-.473.747-.875.133.117.3.191.476.214l.016 1.977a4.2 4.2 0 0 0 .066.668c.067.039.117.074.176.117.117.098.227.207.344.3a.542.542 0 0 0 .644.06c0-.067.016-.11.016-.192l.023-.73a4.956 4.956 0 0 1 2.032-1.47 1.092 1.092 0 0 0 1.34-1.085v-.117c.457-.219.742-.672.734-1.18a1.274 1.274 0 0 0-.735-1.18.909.909 0 0 0-.914-.836 1.23 1.23 0 0 0-.214.043.882.882 0 0 0-.961-.796.833.833 0 0 0-.504.226.917.917 0 0 0-.918-.918Zm.14 4.246c.196.352.563.57.973.57h.207c.008.325.16.626.418.825-.601.27-1.144.66-1.598 1.129Zm1.282 4.012c-.32 0-.645.11-.903.328-.117.098-.226.207-.343.3a.558.558 0 0 1-.735 0c-.117-.093-.226-.202-.344-.3-.52-.43-1.27-.43-1.789 0-.109.098-.21.2-.324.29a.622.622 0 0 1-.219.116.613.613 0 0 1-.586-.183 4.683 4.683 0 0 0-.578-.426.902.902 0 0 0-.5-.117H.734a.362.362 0 0 0-.367.367c0 .203.16.367.367.367a.65.65 0 0 1 .47.227l.26.191a1.396 1.396 0 0 0 1.712.043c.14-.101.261-.234.402-.344a.558.558 0 0 1 .735 0l.285.254c.507.457 1.27.477 1.804.051.11-.078.2-.184.309-.27a.566.566 0 0 1 .797-.007l.008.008.285.257c.36.301.844.403 1.293.27.277-.074.535-.227.734-.442a.75.75 0 0 1 .438-.238.364.364 0 0 0 .367-.367.362.362 0 0 0-.367-.367 1.302 1.302 0 0 0-.871.308l-.344.301a.558.558 0 0 1-.735 0c-.109-.09-.214-.191-.324-.289a1.376 1.376 0 0 0-.894-.328Zm0 0" style="stroke:none;fill-rule:nonzero;fill:#000;fill-opacity:1"/></svg>