<svg xmlns="http://www.w3.org/2000/svg" width="11" height="11"><path d="M5.133 8.8V3.938a.747.747 0 0 1-.367-.636V1.746L1.145 2.2a.37.37 0 0 1-.41-.32.377.377 0 0 1 .32-.414l3.718-.461A.728.728 0 0 1 5.5.367c.309 0 .57.192.684.461l3.671-.46a.37.37 0 0 1 .41.32.377.377 0 0 1-.32.414l-3.71.46v1.739c0 .27-.15.504-.368.636v4.864h3.32c.165 0 .31.11.352.261a.374.374 0 0 1-.246.458L5.5 10.633 1.707 9.52a.367.367 0 0 1 .105-.719Zm0 0" style="stroke:none;fill-rule:nonzero;fill:#000;fill-opacity:1"/></svg>