<svg xmlns="http://www.w3.org/2000/svg" width="11" height="11"><path d="M8.8 3.3c0-.206.16-.366.368-.366.203 0 .367.16.367.367v5.867a.367.367 0 1 1-.734 0ZM7.332 2.566a.367.367 0 1 1 .734 0v6.602a.367.367 0 1 1-.734 0ZM5.867 1.832a.367.367 0 1 1 .734 0v7.336a.367.367 0 1 1-.734 0Zm0 0" style="stroke:none;fill-rule:nonzero;fill:#000;fill-opacity:1"/><path d="M6.965 5.133c.207 0 .367.16.367.367s-.16.367-.367.367h-2.93a.362.362 0 0 1-.367-.367c0-.207.16-.367.367-.367ZM9.004 3.629 6.07 2.164a.374.374 0 0 1-.168-.492.37.37 0 0 1 .493-.168l2.933 1.465a.37.37 0 0 1 .168.492.37.37 0 0 1-.492.168ZM1.465 3.3c0-.206.164-.366.367-.366.207 0 .367.16.367.367v5.867a.367.367 0 1 1-.734 0Zm0 0" style="stroke:none;fill-rule:nonzero;fill:#000;fill-opacity:1"/><path d="M2.934 2.566a.367.367 0 1 1 .734 0v6.602a.367.367 0 1 1-.734 0ZM4.398 1.832a.367.367 0 1 1 .735 0v7.336a.367.367 0 1 1-.734 0Zm0 0" style="stroke:none;fill-rule:nonzero;fill:#000;fill-opacity:1"/><path d="M1.996 3.629a.37.37 0 0 1-.492-.168.37.37 0 0 1 .168-.492l2.933-1.465a.37.37 0 0 1 .493.168.374.374 0 0 1-.168.492ZM1.465 7.332h3.668v2.203H1.465Zm4.402 0h3.668v2.203H5.867Zm0 0" style="stroke:none;fill-rule:nonzero;fill:#000;fill-opacity:1"/></svg>