<svg xmlns="http://www.w3.org/2000/svg" width="11" height="11"><path d="M4.07 1.227c.184.234.325.48.41.753.09.27.118.813.118.813s-.075.543-.176.8c-.11.259-.27.493-.477.696-.14.14-.644.477-1.011.477v5.132c0 1.102-1.47 1.102-1.47 0V4.766c-.362 0-.651-.368-.78-.493a2.266 2.266 0 0 1-.508-.761 2.312 2.312 0 0 1-.016-1.73c.11-.278.274-.528.492-.747.215-.215.453-.375.735-.492.277-.11.57-.176.863-.176l-.93 2.04.66.952 1.137-.101ZM11 .367H9.898c0 .367-.363.735-.73.735H7.332c-1.098 0-2.2 1.5-2.2 2.566.735-.7 1.02-.734 2.2-.734v6.964c0 1.102 1.469 1.102 1.469 0V2.934h.367c.367 0 .73.367.73.734H11v-3.3Zm0 0" style="stroke:none;fill-rule:nonzero;fill:#000;fill-opacity:1"/></svg>