<svg xmlns="http://www.w3.org/2000/svg" width="11" height="11"><path d="M7.805 3.305c-.055 0-.106-.035-.106-.09v-1.36c0-.05-.027-.093-.082-.093h-4.23c-.055 0-.086.043-.086.093v1.36c0 .055-.059.086-.114.086H.32c-.054 0-.097.058-.097.113v1.508c0 .055.043.137.097.137h4.617c.055 0 .125-.082.125-.137v-.32c0-.051.02-.2.075-.2h.73c.055 0 .074.149.074.2v.324c0 .054.07.136.125.136h4.618c.054 0 .097-.082.097-.136V3.414c0-.05-.043-.113-.097-.113H7.816l-.007.008ZM3.98 3.3c-.054 0-.02-.031-.02-.086v-.77c0-.054-.034-.023.02-.023h3.04c.054 0 .02-.031.02.023v.77c0 .055.034.086-.02.086Zm1.97 3.234c0 .055-.032.067-.087.067h-.726c-.059 0-.078.023-.078-.032V5.484c0-.05-.07-.203-.122-.203H.32c-.054 0-.101.153-.101.203v3.22A.1.1 0 0 0 .32 8.8h10.36a.1.1 0 0 0 .101-.098V5.484c0-.05-.047-.203-.101-.203H6.063c-.055 0-.122.153-.122.203V6.57l.012-.03Zm0 0" style="stroke:none;fill-rule:nonzero;fill:#000;fill-opacity:1"/></svg>