<svg xmlns="http://www.w3.org/2000/svg" width="11" height="11"><path d="m4.215 9.168-.18.367h2.93l-.18-.367h1.098L8.8 11H7.699l-.367-.734H3.668L3.301 11H2.199l.918-1.832Zm5.32-6.969v5.133c0 .809-.66 1.469-1.469 1.469H2.934c-.809 0-1.47-.66-1.47-1.469V2.199c0-.804.661-1.465 1.47-1.465h5.132c.809 0 1.47.66 1.47 1.465ZM6.602 6.965a.733.733 0 1 0 1.465.003.733.733 0 0 0-1.465-.003Zm-2.204 0a.732.732 0 1 0-1.463.003.732.732 0 0 0 1.463-.003ZM2.2 2.566l.008 2.2c0 .207.168.367.367.367h2.2c.199 0 .367-.16.367-.367l-.016-2.2a.364.364 0 0 0-.367-.367H2.566a.367.367 0 0 0-.367.367Zm3.668 0 .008 2.2c0 .207.168.367.367.367h2.2a.37.37 0 0 0 .367-.367l-.016-2.2a.364.364 0 0 0-.367-.367H6.234a.364.364 0 0 0-.367.367Zm0 0" style="stroke:none;fill-rule:nonzero;fill:#000;fill-opacity:1"/></svg>