<svg xmlns="http://www.w3.org/2000/svg" width="11" height="11"><path d="M10.266 4.215c0-.504-.278-.965-.73-1.18a.916.916 0 0 0-.919-.836h-.219c0-.484-.472-.844-.957-.797-.18.063-.363.145-.503.246A.916.916 0 0 0 6.02.734a.928.928 0 0 0-.915.914s.028.04.028.059a.921.921 0 0 0-1.281.098c-.09.125-.184.285-.184.394h-.36A1.1 1.1 0 0 0 2.2 3.293c0 .144 0 .293.082.375-.578.219-.926.812-.816 1.398.164.368.45.653.816.758.184.57.797.887 1.38.703.386-.125.675-.46.737-.875.133.118.301.192.477.215v3.668l-1.207.73h3.664l-1.172-.73V8.066a4.962 4.962 0 0 1 2.031-1.464 1.097 1.097 0 0 0 1.313-.817c.031-.086.031-.183.031-.27v-.117c.453-.265.73-.675.73-1.183Zm-4.106 3.3V5c.2.352.57.574.977.574h.183c0 .32.16.621.418.82-.582.27-1.136.66-1.578 1.122Zm0 0" style="stroke:none;fill-rule:nonzero;fill:#000;fill-opacity:1"/></svg>