<svg xmlns="http://www.w3.org/2000/svg" width="11" height="11"><path d="M2.016 7.148c-.551 0-.914.368-.914.918 0 .551.363.918.914.918.55 0 .918-.367.918-.918 0-.55-.368-.918-.918-.918Zm6.601 0c-.55 0-.918.368-.918.918 0 .551.367.918.918.918s.918-.367.918-.918c0-.55-.367-.918-.918-.918ZM10.633 2.2H4.035c-.433 0-.367.367-.367.367v2.567h-.55V3.3c0-.367-.368-.367-.368-.367H1.465C.367 2.934.367 4.398.367 5.133c0 0-.367 0-.367.367v2.566h.734c0-.918.551-1.28 1.282-1.28.734 0 1.285.362 1.285 1.28h4.031c0-.918.55-1.28 1.285-1.28.735 0 1.281.362 1.281 1.28H11v-5.5s0-.367-.367-.367ZM2.199 3.668v1.465H1.102c0-.735 0-1.465.363-1.465h.734Zm0 0" style="stroke:none;fill-rule:nonzero;fill:#000;fill-opacity:1"/></svg>