<svg xmlns="http://www.w3.org/2000/svg" width="11" height="11"><path d="M2.566.734a1.1 1.1 0 0 1 1.102 1.098v8.434H1.465V1.832A1.1 1.1 0 0 1 2.566.734Zm0 0" style="stroke:none;fill-rule:nonzero;fill:#000;fill-opacity:1"/><path d="M3.668 3.043a.473.473 0 0 1-.477-.477c0-.265.211-.476.477-.476h5.5a.476.476 0 1 1 0 .953Zm0 0" style="stroke:none;fill-rule:nonzero;fill:#000;fill-opacity:1"/><path d="M5.953 7.195a.475.475 0 1 1-.906.278L3.645 2.918a.466.466 0 0 1 .316-.594.47.47 0 0 1 .594.317Zm0 0" style="stroke:none;fill-rule:nonzero;fill:#000;fill-opacity:1"/><path d="M8.344 5.113c.215.16.265.453.113.664a.479.479 0 0 1-.668.11L3.93 3.078a.478.478 0 0 1 .567-.77Zm0 0" style="stroke:none;fill-rule:nonzero;fill:#000;fill-opacity:1"/></svg>