<svg xmlns="http://www.w3.org/2000/svg" width="11" height="11"><path d="M9.898.734c.368 0 .368.293.368.293s0 .293-.368.293h-.73C8.066 3.227 8.066 3.227 7.391 4.457c.308.309-.059 1.41-.426 2.145-.52 1.03-1.098 1.832-1.555 1.722.457.11.457.477.457.844s0 1.098-.367 1.098h-.148c-.004.164-.22.367-.586.367-.368 0-.586-.203-.586-.367H2.566c-.043.293-.324.367-.55.367-.204 0-.493-.094-.551-.367h-.363c-.735 0-.735-.73-.368-1.098.368-.367.746-.367 1.465-.367.367 0 .735-.735 1.836-.735h.363C4.035 7.7 4.54 6.68 5.133 5.5c.367-.734.734-1.46 1.804-1.285C8.802.742 8.802.735 9.168.735Zm0 0" style="stroke:none;fill-rule:nonzero;fill:#000;fill-opacity:1"/></svg>