<svg xmlns="http://www.w3.org/2000/svg" width="11" height="11"><path d="M8.8 0c.735 0 .735 0 .735.734v9.532c0 .734 0 .734-.734.734H2.199c-.734 0-.734 0-.734-.734V.734c0-.734 0-.734.734-.734ZM7.333 8.8H2.934v.735h4.398Zm1.469-2.198h-.735v.546h.735ZM7.332 1.465H2.934v5.867h4.398ZM8.801 5.5h-.735v.55h.735Zm0-1.102h-.735v.551h.735Zm0-1.097h-.735v.55h.735Zm0 0" style="stroke:none;fill-rule:nonzero;fill:#000;fill-opacity:1"/><path d="M5.133 6.602c-1.098 0-1.465-.918-1.465-1.653 0-1.097.73-2.383 1.465-2.383.734 0 1.469 1.286 1.469 2.383 0 .735-.368 1.653-1.47 1.653Zm0 0" style="stroke:none;fill-rule:nonzero;fill:#000;fill-opacity:1"/></svg>