<svg xmlns="http://www.w3.org/2000/svg" width="11" height="11"><path d="M8.066 0c.735 0 .735 0 .735.734v9.532c0 .734 0 .734-.735.734H2.934c-.735 0-.735 0-.735-.734V.734C2.2 0 2.2 0 2.934 0ZM4.582 5.867h-.547c-.367 0-.367.367-.367.367v3.664c0 .368.367.368.367.368h2.93s.367 0 .367-.368V6.234c0-.367-.367-.367-.367-.367h-.547l-.184.719c0 .184-1.468.184-1.468 0l-.184-.719ZM7.699.734H3.301s-.367 0-.367.368v2.933s0 .363.367.363h4.398s.367 0 .367-.363V1.102C8.066.734 7.7.734 7.7.734Zm0 0" style="stroke:none;fill-rule:nonzero;fill:#000;fill-opacity:1"/><path d="M4.766 8.066c0 .184 1.468.184 1.468 0l-.183 1.832c0 .368-1.102.368-1.102 0l-.183-1.832Zm.918-1.093c.05-.008.093.03.101.082v.093c.008.055-.027.098-.078.098a.083.083 0 0 1-.098-.082c-.007-.05-.007-.05-.007-.094a.084.084 0 0 1 .082-.097Zm.027.367a.083.083 0 0 1 .098.082.35.35 0 0 1 .007.094.084.084 0 0 1-.082.097c-.05.008-.093-.039-.101-.082 0-.05 0-.05-.008-.093 0-.055.035-.098.086-.098Zm.031.367c-.05 0-.09.043-.09.094a.76.76 0 0 1 .008.09c0 .05.047.09.098.09a.103.103 0 0 0 .086-.098c0-.02 0-.02-.008-.094-.008-.05-.05-.09-.094-.082Zm-.426-.734c.051 0 .09.047.09.097-.008.043-.008.043-.008.094-.007.05-.05.09-.105.082-.05 0-.086-.043-.078-.098 0-.05 0-.05.008-.093 0-.051.043-.09.093-.082Zm-.027.367c.05 0 .086.043.086.098-.008.042-.008.042-.008.093-.008.043-.05.09-.101.082-.043 0-.09-.047-.082-.097 0-.051 0-.051.007-.094 0-.05.043-.09.098-.082Zm-.023.367c-.051-.008-.094.031-.102.082-.008.074-.008.074-.008.094 0 .043.035.09.086.097.051 0 .098-.039.098-.09 0-.015 0-.015.008-.09.004-.05-.04-.093-.082-.093ZM6.418 1.832l-.367 2.203H4.949l-.367-2.203h1.285l.367-.914c.036-.09.204-.066.184 0l-.367.914h.367Zm0 0" style="stroke:none;fill-rule:nonzero;fill:#000;fill-opacity:1"/></svg>