<svg xmlns="http://www.w3.org/2000/svg" width="11" height="11"><path d="M8.066 0c.735 0 .735 0 .735.734v9.532c0 .734 0 .734-.735.734H2.934c-.735 0-.735 0-.735-.734V.734C2.2 0 2.2 0 2.934 0ZM4.582 5.867h-.547c-.367 0-.367.367-.367.367v3.664c0 .368.367.368.367.368h2.93s.367 0 .367-.368V6.234c0-.367-.367-.367-.367-.367h-.547l-.184.719c0 .184-1.468.184-1.468 0l-.184-.719ZM7.699.734H3.301s-.367 0-.367.368v2.933s0 .363.367.363h4.398s.367 0 .367-.363V1.102C8.066.734 7.7.734 7.7.734Zm0 0" style="stroke:none;fill-rule:nonzero;fill:#000;fill-opacity:1"/><path d="M4.582 8.434c0 .183 1.836.183 1.836 0l-.184 1.464c0 .368-1.468.368-1.468 0l-.184-1.464Zm.39-1.11-.35.426.425.352.351-.422Zm.63.442-.102.543.543.101.102-.543Zm-.32-.63.25.489.488-.246-.25-.492ZM5.5.918l.14.086v.441l.262-.14.149.082v.136l-.41.215v.285l.27-.152v.309l.277-.149v-.445l.097-.063.11.063v.285l.402-.207.148.082v.16l-.383.219.243.133v.156l-.125.07-.367-.218-.247.16.243.156-.25.145.253.132.368-.203.125.086v.149l-.227.129.367.214v.176l-.175.067-.375-.207v.273l-.102.074-.106-.074v-.41l-.277-.149v.286l-.27-.16v.285l.344.207v.168l-.117.058-.226-.14v.44l-.141.087-.14-.086v-.441l-.227.14-.117-.074v-.152l.343-.207v-.286l-.27.168v-.3l-.277.148v.41l-.113.082-.094-.074v-.281l-.382.215-.168-.067v-.176l.39-.214-.25-.122v-.164l.145-.078.36.211.25-.148H4.94l-.253-.145.246-.152-.247-.14-.351.202-.14-.062v-.164l.242-.133-.383-.21v-.169l.16-.082.39.219v-.278l.102-.082.133.082v.426l.25.149.008-.301.261.144v-.285l-.343-.207V1.38l.117-.074.226.14v-.441Zm0 0" style="stroke:none;fill-rule:nonzero;fill:#000;fill-opacity:1"/></svg>