<svg xmlns="http://www.w3.org/2000/svg" width="11" height="11"><path d="M8.066 0c.735 0 .735 0 .735.734v9.532c0 .734 0 .734-.735.734H2.934c-.735 0-.735 0-.735-.734V.734C2.2 0 2.2 0 2.934 0ZM4.582 5.867h-.547c-.367 0-.367.367-.367.367v3.664c0 .368.367.368.367.368h2.93s.367 0 .367-.368V6.234c0-.367-.367-.367-.367-.367h-.547l-.184.719c0 .184-1.468.184-1.468 0l-.184-.719ZM7.699.734H3.301s-.367 0-.367.368v2.933s0 .363.367.363h4.398s.367 0 .367-.363V1.102C8.066.734 7.7.734 7.7.734Zm0 0" style="stroke:none;fill-rule:nonzero;fill:#000;fill-opacity:1"/><path d="M6.418 3.668c.078 0 .184.102.184.184 0 .078-.106.183-.184.183H4.215c-.078 0-.18-.105-.18-.183 0-.082.102-.184.18-.184Zm.547-1.652c.183 0 .297.097.297.257s-.114.293-.297.293H6.52c.082-.183.082-.55.082-.55Zm-.363-.914H4.035v1.097c0 .735.547 1.285 1.281 1.285.368 0 .918-.183 1.102-.55h.547c.367 0 .55-.336.55-.66 0-.325-.183-.626-.55-.626h-.363ZM4.766 8.434c0 .183 1.468.183 1.468 0l-.222 1.464c0 .368-1.063.368-1.063 0l-.183-1.464Zm.875 0c.402-.133.535-.266.535-.536 0-.132-.133-.265-.406-.394-.262-.133-.395-.274-.395-.54-.14.266 0 .669.266.802.668.273 0 .668 0 .668Zm-.551 0c.21-.059.344-.059.336-.266 0-.117-.074-.176-.192-.27-.12-.09-.246-.125-.277-.394-.133.129-.043.394.133.535.36.176 0 .395 0 .395Zm0 0" style="stroke:none;fill-rule:nonzero;fill:#000;fill-opacity:1"/></svg>