<svg xmlns="http://www.w3.org/2000/svg" width="11" height="11"><path d="M8.8 0c.735 0 .735 0 .735.734v9.532c0 .734 0 .734-.734.734H2.199c-.734 0-.734 0-.734-.734V.734c0-.734 0-.734.734-.734ZM7.333 8.8H2.934v.735h4.398Zm1.469-2.198h-.735v.546h.735ZM7.332 1.465H2.934v5.867h4.398ZM8.801 5.5h-.735v.55h.735Zm0-1.102h-.735v.551h.735Zm0-1.097h-.735v.55h.735Zm0 0" style="stroke:none;fill-rule:nonzero;fill:#000;fill-opacity:1"/><path d="M3.668 2.75c0 .367 1.098.441 1.465.441s1.469-.074 1.469-.441v3.668c0 .73-2.934.73-2.934 0V2.75Zm2.125-.36c.184 0 .332.051.332.11 0 .059-.148.11-.332.11-.176 0-.324-.051-.324-.11 0-.059.148-.11.324-.11Zm.809-.007c0-.367-1.47-.367-1.47-.367s-1.464 0-1.464.367.73.55 1.465.55c.734 0 1.469-.183 1.469-.55Zm0 0" style="stroke:none;fill-rule:nonzero;fill:#000;fill-opacity:1"/></svg>