<svg xmlns="http://www.w3.org/2000/svg" width="11" height="11"><path d="M4.766 5.867c.203 0 .367.164.367.367v.73a.367.367 0 0 1-.367.368h-2.2a.367.367 0 0 1-.367-.367v-.73c0-.204.164-.368.367-.368ZM3.668 4.766c0 .203.164.367.367.367h2.2a.367.367 0 0 0 .367-.367v-.73a.367.367 0 0 0-.368-.368H4.035a.367.367 0 0 0-.367.367Zm2.566 3.3H4.035a.367.367 0 0 0-.367.368v.734c0 .203.164.367.367.367h2.2a.367.367 0 0 0 .367-.367v-.734a.367.367 0 0 0-.368-.368Zm3.664-6.601H8.434a.367.367 0 0 0-.368.367v.734c0 .204.164.368.368.368h1.101v.734H7.7a.367.367 0 0 0-.367.367v.73c0 .204.164.368.367.368h1.836v2.933H7.7a.367.367 0 0 0-.367.368v.734c0 .203.164.367.367.367h2.2a.367.367 0 0 0 .367-.367V1.832a.367.367 0 0 0-.368-.367Zm-2.933 0h-2.2a.367.367 0 0 0-.367.367v.734c0 .204.165.368.368.368h2.199a.367.367 0 0 0 .367-.368v-.734a.367.367 0 0 0-.367-.367Zm-3.664 0H1.1a.367.367 0 0 0-.367.367v7.336c0 .203.164.367.368.367h1.464a.367.367 0 0 0 .368-.367v-.734a.367.367 0 0 0-.368-.368H1.465V5.133h1.101a.367.367 0 0 0 .368-.367v-.73a.367.367 0 0 0-.368-.368H1.465v-.734H3.3a.367.367 0 0 0 .367-.368v-.734a.367.367 0 0 0-.367-.367Zm2.566 4.77v.73c0 .203.164.367.367.367h2.2a.367.367 0 0 0 .367-.367v-.73a.367.367 0 0 0-.367-.368h-2.2a.367.367 0 0 0-.367.367Zm0 0" style="stroke:none;fill-rule:nonzero;fill:#000;fill-opacity:1"/></svg>