<svg xmlns="http://www.w3.org/2000/svg" width="11" height="11"><path d="M4.398.367v1.098h1.836c.368 0 .368.367.368.367v7.336s0 .367-.368.367H4.398v1.098c0 .367-2.199.367-2.199 0V9.535H.367C0 9.535 0 9.168 0 9.168V1.832s0-.367.367-.367H2.2V.367C2.2 0 4.4 0 4.4.367ZM3.301 2.75C1.648 2.75.55 3.852.55 5.5S1.648 8.25 3.3 8.25c1.648 0 2.75-1.102 2.75-2.75S4.949 2.75 3.3 2.75Zm0 0" style="stroke:none;fill-rule:nonzero;fill:#000;fill-opacity:1"/><path d="M3.3 3.3c1.247 0 2.2 1.028 2.2 2.2 0 1.172-.953 2.2-2.2 2.2-1.245 0-2.198-.954-2.198-2.2 0-1.246.953-2.2 2.199-2.2Zm-.44 2.712-.844.59s.406.585 1.285.585c.879 0 1.281-.585 1.281-.585l-.844-.59a.77.77 0 0 1-.879 0Zm.148-2.2c-.735.149-1.395.88-1.395 1.688 0 .46.133.645.133.645l.895-.57s-.075-.442.367-.66V3.811Zm.586 0v1.102c.441.219.367.66.367.66l.902.57s.125-.203.125-.644c0-.809-.66-1.54-1.394-1.688ZM8.8 3.484c1.098 0 2.016.914 2.016 2.016a2.033 2.033 0 0 1-2.015 2.016A2.03 2.03 0 0 1 6.785 5.5a2.03 2.03 0 0 1 2.016-2.016Zm0 .278c-.917 0-1.738.82-1.738 1.738s.82 1.746 1.739 1.746c.914 0 1.746-.828 1.746-1.746S9.715 3.762 8.8 3.762ZM7.556 5.367l.46.051c.083.008.051.242-.023.234-.07-.004-.387-.043-.469-.05-.074-.008-.035-.243.032-.235Zm2.015 0c.094-.008.36-.027.461-.043.11-.008.11.235.016.25-.094.008-.344.028-.442.043-.101.008-.125-.234-.035-.25Zm-.812.031c.027-.066.234-.007.203.079a5.87 5.87 0 0 1-.14.441c-.028.074-.255.023-.227-.059.039-.09.14-.394.164-.46Zm.586.66c.078.028.37.137.437.169.059.02-.011.25-.086.21-.09-.027-.351-.128-.433-.16-.082-.035 0-.25.082-.218Zm-1.293.02c.023.05.148.39.168.457.023.067-.18.152-.211.078-.035-.078-.125-.367-.153-.437-.023-.074.184-.149.196-.098Zm.574.367c.078.032.367.125.445.149.075.02.008.25-.074.218-.078-.023-.363-.117-.445-.14-.074-.027 0-.254.074-.227Zm1.64-1.582c-.183.27-.453.27-.73 0-.273.27-.457.27-.734 0-.274.27-.457.27-.735 0-.27.27-.453.27-.734 0-.078.293-.086.637-.086.637 0 .828.637 1.563 1.555 1.563.914 0 1.562-.735 1.562-1.563 0 0 0-.367-.097-.637Zm0 0" style="stroke:none;fill-rule:nonzero;fill:#000;fill-opacity:1"/></svg>