<svg xmlns="http://www.w3.org/2000/svg" width="11" height="11"><path d="m5.582 7.965.125-.633H3.094l.242 1.195c.352.293.71.258 1.062-.093.399-.395.786-.551 1.184-.47Zm1.02-6.5v.734h.73c.809 0 1.469.66 1.469 1.469v6.598H7.332V3.668h-2.2v1.465H5.5c.207 0 .367.16.367.367v.367H2.934V5.5c0-.207.16-.367.367-.367h.367V3.668c0-.734.73-1.469 1.465-1.469h.734v-.734H4.766a.363.363 0 0 1-.368-.363c0-.207.165-.368.368-.368h2.933c.207 0 .367.16.367.368 0 .203-.16.363-.367.363ZM2.199 6.602h4.403L5.984 9.68a.733.733 0 0 1-.718.586h-1.73a.733.733 0 0 1-.72-.586Zm0 0" style="stroke:none;fill-rule:nonzero;fill:#000;fill-opacity:1"/></svg>