<svg xmlns="http://www.w3.org/2000/svg" width="11" height="11"><path d="M10.559 10.781a1.49 1.49 0 0 1-.621-.136 1.539 1.539 0 0 0-.641-.145c-.23 0-.45.05-.645.145a1.504 1.504 0 0 1-.62.136c-.223 0-.438-.05-.626-.136a1.543 1.543 0 0 0-.644-.145c-.227 0-.446.05-.64.145a1.508 1.508 0 0 1-.626.136c-.219 0-.434-.05-.621-.136a1.498 1.498 0 0 0-1.285 0 1.49 1.49 0 0 1-1.242 0 1.543 1.543 0 0 0-.645-.145c-.226 0-.445.05-.64.145a1.49 1.49 0 0 1-.622.136V9.84c.223 0 .434-.05.622-.137a1.536 1.536 0 0 1 1.285 0 1.49 1.49 0 0 0 1.242 0c.195-.086.418-.14.644-.14.227 0 .446.054.641.14.188.086.402.14.621.14.223 0 .438-.05.625-.136a1.536 1.536 0 0 1 1.285 0c.188.086.403.137.625.137.219 0 .434-.051.621-.137.196-.086.414-.14.645-.14.226 0 .445.054.64.14.188.086.399.14.622.14v.942ZM6.473 8.836a1.455 1.455 0 0 1 .933.113c.188.082.403.133.625.133.219 0 .434-.05.621-.133.133-.062.278-.11.43-.133-.082-2.523-2.7-4.773-2.82-4.89-.13-.117-.246-.371-.164-.676l.625-2.078c.113-.324.054-.754-.098-.883-.086-.07-.273-.121-.398.02l-1.692 1.93c-.367.398-.058.82-.066.816-.574-.207-1.25-.067-1.66.101l-1.395.715c-.14.059-.2.234-.129.352.235.375 1.004.379 2.606.203 2.586-.281 2.59 3.89 2.586 4.406Zm0 0" style="stroke:none;fill-rule:nonzero;fill:#000;fill-opacity:1"/></svg>