<svg width="32" height="32" viewBox="0 0 32 32" fill="none" xmlns="http://www.w3.org/2000/svg">
<mask id="path-1-inside-1_1773_211" fill="white">
<path fill-rule="evenodd" clip-rule="evenodd" d="M19.3193 14.5187L13.5162 2L1.00012 29H12.7074L12.7069 29.001H30.9996L21.8533 8.96875L19.3193 14.5187Z"/>
</mask>
<path fill-rule="evenodd" clip-rule="evenodd" d="M19.3193 14.5187L13.5162 2L1.00012 29H12.7074L12.7069 29.001H30.9996L21.8533 8.96875L19.3193 14.5187Z" fill="#003BD2"/>
<path d="M13.5162 2L14.877 1.36915L13.5162 -1.56661L12.1553 1.36915L13.5162 2ZM19.3193 14.5187L17.9584 15.1496L19.3296 18.1076L20.6838 15.1417L19.3193 14.5187ZM1.00012 29L-0.360774 28.3691L-1.34855 30.5H1.00012V29ZM12.7074 29L14.072 29.6228L15.0409 27.5H12.7074V29ZM12.7069 29.001L11.3424 28.3782L10.3734 30.501H12.7069V29.001ZM30.9996 29.001V30.501H33.3334L32.3641 28.378L30.9996 29.001ZM21.8533 8.96875L23.2178 8.34575L21.8533 5.35722L20.4888 8.34575L21.8533 8.96875ZM12.1553 2.63085L17.9584 15.1496L20.6802 13.8878L14.877 1.36915L12.1553 2.63085ZM2.36101 29.6309L14.877 2.63085L12.1553 1.36915L-0.360774 28.3691L2.36101 29.6309ZM12.7074 27.5H1.00012V30.5H12.7074V27.5ZM14.0715 29.6239L14.072 29.6228L11.3428 28.3772L11.3424 28.3782L14.0715 29.6239ZM30.9996 27.501H12.7069V30.501H30.9996V27.501ZM20.4888 9.59175L29.6351 29.624L32.3641 28.378L23.2178 8.34575L20.4888 9.59175ZM20.6838 15.1417L23.2178 9.59175L20.4888 8.34575L17.9548 13.8957L20.6838 15.1417Z" fill="white" mask="url(#path-1-inside-1_1773_211)"/>
</svg>
