<svg width="29" height="36" viewBox="0 0 29 36" fill="none" xmlns="http://www.w3.org/2000/svg">
<g clip-path="url(#clip0_1882_190)">
<path d="M15.7583 6.47403L16.4992 4.43632C16.9863 3.09668 16.2824 1.62868 14.9466 1.15143C13.6148 0.675622 12.1368 1.35697 11.6513 2.69241L1.15407 31.5638C0.667002 32.9035 1.3709 34.3715 2.70668 34.8487C4.03845 35.3245 5.51647 34.6432 6.00202 33.3078L6.67715 31.4509H12.5418L12.5008 31.5638C12.0137 32.9035 12.7176 34.3715 14.0534 34.8487C15.3851 35.3245 16.8632 34.6432 17.3487 33.3078L27.8459 4.43632C28.333 3.09668 27.6291 1.62868 26.2933 1.15143C24.9615 0.675622 23.4835 1.35697 22.998 2.69241L21.623 6.47403H15.7583ZM14.9475 24.8345L14.4062 26.3232H8.54151L9.08276 24.8345H14.9475ZM11.4884 18.2182H17.3531L16.8118 19.7068H10.9471L11.4884 18.2182ZM19.7587 11.6018L19.2174 13.0904H13.3527L13.894 11.6018H19.7587Z" fill="black" fill-opacity="0.7" stroke="white" stroke-width="2" stroke-linecap="round"/>
</g>
<defs>
<clipPath id="clip0_1882_190">
<rect width="29" height="36" fill="white"/>
</clipPath>
</defs>
</svg>
