<svg xmlns="http://www.w3.org/2000/svg" data-name="Layer 1" viewBox="0 0 128 128" x="0px" y="0px">
<title>GeoURI</title>
<path d="M58.99982,116a2,2,0,0,0,0,4h10a2,2,0,0,0,0-4Z"/>
<path d="M99.98712,21.7085a18.75515,18.75515,0,0,0-1.2832-6.0918C95.89435,8.45117,89.11017,4,80.99982,4S66.10529,8.45117,63.29572,15.61719a18.74944,18.74944,0,0,0-1.2832,6.09082c-.22656,5.53662,2.542,10.11621,5.64746,14.708l.67285.99316a175.12812,175.12812,0,0,1,10.88965,17.5083,2.00033,2.00033,0,0,0,3.55469,0,175.12812,175.12812,0,0,1,10.88965-17.5083l.67285-.99414C97.44513,31.82422,100.21368,27.24463,99.98712,21.7085Zm-8.96,12.46436-.67187.99219c-3.20117,4.72363-6.49121,9.5791-9.35547,14.63721-2.86426-5.05811-6.1543-9.91357-9.35547-14.63721l-.67187-.99121c-2.82031-4.16992-5.14062-7.97412-4.96387-12.30322a14.7563,14.7563,0,0,1,1.01172-4.79395C69.64435,10.38477,75.96173,8,80.99982,8s11.35547,2.38477,13.97949,9.07617A14.76183,14.76183,0,0,1,95.991,21.87061v.00049C96.16779,26.19971,93.84747,30.00391,91.02716,34.17285Z"/>
<path d="M80.99982,13a10,10,0,1,0,10,10A10.01146,10.01146,0,0,0,80.99982,13Zm0,16a6,6,0,1,1,6-6A6.00656,6.00656,0,0,1,80.99982,29Z"/>
<path d="M98.99982,8.30151V8a8.00917,8.00917,0,0,0-8-8h-10A23.09952,23.09952,0,0,1,98.99982,8.30151Z"/>
<path d="M35.99982,128h55a8.00917,8.00917,0,0,0,8-8V36.63037c-.46692.722-.92365,1.40112-1.34473,2.02393l-.668.98535q-.99124,1.46283-1.9873,2.94312V120a4.00427,4.00427,0,0,1-4,4h-55a4.00427,4.00427,0,0,1-4-4V8a4.00427,4.00427,0,0,1,4-4h31.729a23.60536,23.60536,0,0,1,13.271-4h-45a8.00917,8.00917,0,0,0-8,8V120A8.00917,8.00917,0,0,0,35.99982,128Z"/>
<path d="M59.35193,29.57428,44.41248,41.55139,40.783,37.95459a2.00015,2.00015,0,1,0-2.81641,2.84082L50.17853,52.897,38.9422,61.13721a1.99992,1.99992,0,1,0,2.36523,3.22559l4.82129-3.53564,9.97461,9.72949c.01483.01447.03229.024.04742.0379l-9.62457,7.44891a1.99964,1.99964,0,1,0,2.44727,3.16309l21.999-17.026,7.90826,7.90784L54.74884,91.43994a1.99968,1.99968,0,1,0,2.502,3.12012l8.5387-6.84717,4.09222,4.407L53.65649,104.85956,41.51837,90.69824a2.00015,2.00015,0,1,0-3.03711,2.60352l12.026,14.03052-2.2428,1.761a2.0003,2.0003,0,0,0,2.4707,3.14648L72.61322,95.06158l4.92078,5.29926a2.00013,2.00013,0,1,0,2.93164-2.72168l-.89758-.96661L89.284,88.5332a2,2,0,1,0-2.56836-3.06641l-9.87286,8.27081-7.92432-8.53387L83.12384,73.8125a1.99907,1.99907,0,0,0,.16309-2.97412l-9.126-9.12561,3.51984-2.72418a5.98851,5.98851,0,0,1-2.012-2.23517c-.15424-.29877-.31995-.59607-.47864-.89429L59.25757,68.19006a1.976,1.976,0,0,0-.36127-.4967L49.39874,58.4292l5.03369-3.69141a2.0008,2.0008,0,0,0,.22559-3.0332L47.2724,44.3855l13.77429-11.043A29.62776,29.62776,0,0,1,59.35193,29.57428Z"/>
</svg>
