<svg width="67" height="20" viewBox="0 0 67 20" fill="none" xmlns="http://www.w3.org/2000/svg">
<path opacity="0.3" fill-rule="evenodd" clip-rule="evenodd" d="M1.82385 5.56026C-0.172078 7.55619 -0.172077 10.7922 1.82385 12.7882L7.99821 18.9625C8.41403 19.3783 9.0882 19.3783 9.50402 18.9625L15.6784 12.7882C17.6743 10.7922 17.6743 7.55619 15.6784 5.56026L12.3651 2.24694C10.3691 0.251018 7.1331 0.251019 5.13717 2.24695L1.82385 5.56026ZM8.74449 7.32415L6.91106 9.15757L8.74446 10.991L10.5779 9.15755L8.74449 7.32415Z" fill="black"/>
<path d="M5.74231 15.1586C6.55968 15.9758 8.73543 18.1938 8.73441 18.196C8.72648 18.2105 10.8959 16.0323 11.7599 15.1688L8.74593 12.155L5.74231 15.1586Z" fill="#3A1888"/>
<path d="M8.74585 12.155L11.7598 15.1688C11.7643 15.1638 11.7698 15.1581 11.7747 15.1536L14.7857 12.1424L11.772 9.12872L8.74585 12.155Z" fill="#03A1C4"/>
<path d="M14.7857 12.1424L14.7935 12.1346C16.4591 10.4692 16.4604 7.76998 14.7985 6.10248L11.7721 9.1287L14.7857 12.1424Z" fill="#05D0DF"/>
<path d="M5.71954 9.12872L2.71643 12.1317C2.71729 12.1328 2.7178 12.1338 2.71885 12.1347L5.73731 15.1536C5.73903 15.1552 5.74075 15.1568 5.74231 15.1586L8.74593 12.155L5.71954 9.12872Z" fill="#761FE8"/>
<path d="M8.74585 6.10233L11.772 9.12875L14.7984 6.10252C14.796 6.10081 14.7951 6.09909 14.7934 6.09737L11.7747 3.07875C11.774 3.07789 11.7729 3.07703 11.772 3.07617L8.74585 6.10233Z" fill="#FFAA01"/>
<path d="M2.70371 6.11285C1.05292 7.78036 1.05706 10.4696 2.71644 12.1318L5.71955 9.12876L2.70371 6.11285Z" fill="#F1175D"/>
<path d="M8.74584 6.10231L5.72981 3.0863L2.71877 6.09734C2.71358 6.1025 2.70893 6.10804 2.70361 6.11282L5.71946 9.12869L8.74584 6.10231Z" fill="#FB3A1B"/>
<path d="M11.7722 3.07612C10.1046 1.41158 7.40385 1.41247 5.7374 3.0787L5.72998 3.08628L8.74602 6.10228L11.7722 3.07612Z" fill="#FBC935"/>
<path fill-rule="evenodd" clip-rule="evenodd" d="M52.8878 12.8972V4.72034H52.3153V12.8972H52.8878ZM50.8669 5.24551C50.8669 5.85302 49.9441 5.85302 49.9441 5.24551C49.9441 4.63832 50.8669 4.63832 50.8669 5.24551ZM50.108 7.10286V12.8972H50.6798V7.10286H50.108ZM46.8249 7.12627V5.38592L46.2643 5.44431V7.12627H45.0374V7.60528H46.2643V11.1217C46.2643 12.2546 46.6615 12.9789 47.888 12.9789C48.2497 12.9789 48.612 12.8623 48.9744 12.6865L48.7757 12.2196C48.4837 12.3597 48.1684 12.4532 47.888 12.4532C46.9888 12.4532 46.8249 11.9041 46.8249 11.1217V7.60528H48.7874V7.12627H46.8249ZM36.825 7.13834H35.458L35.411 7.93263C35.0841 7.36011 34.3484 6.9981 33.5776 6.9981C31.8955 6.98641 30.575 8.02601 30.575 10.0118C30.575 12.0329 31.8371 13.0842 33.5421 13.0725C34.1848 13.0604 35.0841 12.7336 35.411 12.0565L35.4813 12.8973H36.825V7.13834ZM33.7058 11.7641C32.7596 11.7641 32.0003 11.1095 32.0003 10.0118C32.0003 8.91386 32.7596 8.27118 33.7058 8.27118C35.9486 8.27118 35.9486 11.7641 33.7058 11.7641ZM24.2554 9.81307V12.8972H25.6803V9.81307C25.6803 9.05374 26.1593 8.38781 26.9308 8.38781C27.7013 8.38781 28.0166 9.03082 28.0166 9.7898V12.8972H29.4418V9.7898C29.4418 8.06082 28.636 7.05634 27.0002 7.05634C26.253 7.05634 25.5869 7.28993 25.0729 8.10765C24.7456 7.31355 24.0567 7.03304 23.3669 7.03304C22.8184 7.03304 22.1525 7.24303 21.8487 7.82733L21.7436 7.12626H20.4237V12.8972H21.8487V9.81307C21.8487 9.05377 22.3038 8.36476 23.075 8.36476C23.8581 8.36476 24.2554 9.05374 24.2554 9.81307ZM38.0282 15.304V7.13833H39.3603L39.4533 7.93262C39.8975 7.28993 40.6687 7.00964 41.3227 7.00964C43.0977 7.00964 44.2783 8.32994 44.2783 10.0235C44.2783 11.706 43.2149 13.0376 41.3692 13.0376C40.7623 13.0376 39.8624 12.8502 39.4533 12.2196V15.3041H38.0282V15.304ZM42.8531 10.0235C42.8531 9.12404 42.2455 8.38782 41.2176 8.38782C40.1893 8.38782 39.5818 9.12404 39.5818 10.0235C39.5818 10.9227 40.2479 11.6593 41.2176 11.6593C42.1876 11.6593 42.8531 10.9227 42.8531 10.0235ZM61.9645 7.12627L61.9877 8.15472C62.3495 7.37144 63.1678 7.06804 63.9037 7.06804C64.3363 7.05635 64.756 7.17332 65.142 7.40697L64.8847 7.87404C64.5815 7.68713 64.242 7.60531 63.9037 7.60531C62.8285 7.61738 61.9993 8.48158 61.9993 9.53311V12.8973H61.4269V7.12627H61.9645ZM54.8355 11.0081C55.2002 11.9128 56.0713 12.55 57.0884 12.55C58.0946 12.55 58.9582 11.9266 59.3296 11.0373L59.7982 11.241C59.3492 12.3162 58.305 13.07 57.0884 13.07C55.4619 13.07 54.1435 11.7229 54.1435 10.0614C54.1435 8.39984 55.4619 7.05283 57.0884 7.05283C58.5747 7.05283 59.8036 8.17778 60.0043 9.63965L59.5072 9.77123C59.507 9.77004 59.5069 9.76885 59.5068 9.76766L59.5066 9.76595L54.8346 11.006C54.8347 11.0063 54.8348 11.0065 54.8349 11.0067C54.835 11.007 54.8351 11.0072 54.8352 11.0075L54.8323 11.0083L54.8355 11.0081ZM57.0884 7.57282C55.7432 7.57282 54.6525 8.68697 54.6525 10.0615C54.6525 10.1951 54.6631 10.3261 54.6829 10.454L59.3773 9.20798C59.0364 8.25396 58.1403 7.57282 57.0884 7.57282Z" fill="white"/>
<path fill-rule="evenodd" clip-rule="evenodd" d="M52.8878 3.65558C53.4758 3.65558 53.9525 4.13229 53.9525 4.72035V7.52318C54.6836 6.59078 55.8105 5.98807 57.0884 5.98807C58.4493 5.98807 59.6394 6.67257 60.3621 7.71024V7.12628C60.3621 6.53822 60.8388 6.06151 61.4269 6.06151H61.9644C62.1918 6.06151 62.4029 6.13288 62.5761 6.25463C63.0212 6.07706 63.484 6.00496 63.8894 6.00331C64.5349 5.98875 65.1492 6.16672 65.6933 6.4961C66.1819 6.79184 66.3501 7.42038 66.0746 7.92064L65.8174 8.38772C65.6768 8.643 65.4377 8.8295 65.1558 8.90372C64.874 8.97794 64.5741 8.93339 64.326 8.78047C64.2125 8.7105 64.0735 8.67106 63.9097 8.67011C63.4307 8.67853 63.064 9.057 63.064 9.53312V12.8973C63.064 13.4853 62.5873 13.9621 61.9993 13.9621H61.4269C60.8388 13.9621 60.3621 13.4853 60.3621 12.8973V12.4132C59.6398 13.4488 58.4486 14.1348 57.0884 14.1348C55.8105 14.1348 54.6836 13.532 53.9525 12.5996V12.8973C53.9525 13.4853 53.4758 13.962 52.8878 13.962H52.3152C51.9866 13.962 51.6928 13.8132 51.4975 13.5792C51.3022 13.8132 51.0084 13.962 50.6798 13.962H50.1079C49.8258 13.962 49.5694 13.8523 49.3788 13.6733C48.9551 13.8725 48.448 14.0437 47.888 14.0437C47.0581 14.0437 46.2918 13.7882 45.7777 13.1315C45.3229 12.5504 45.2072 11.8266 45.1999 11.1884C45.0394 11.8163 44.7425 12.3977 44.3017 12.8799C43.5861 13.6628 42.5643 14.1024 41.3692 14.1024C41.1165 14.1024 40.8231 14.0785 40.518 14.0167V15.3041C40.518 15.8921 40.0413 16.3688 39.4533 16.3688H38.0282C37.4401 16.3688 36.9634 15.8921 36.9634 15.3041V13.9531C36.9181 13.959 36.8719 13.962 36.825 13.962H35.4812C35.2894 13.962 35.1087 13.9111 34.9525 13.8216C34.4956 14.0246 34.0017 14.1288 33.562 14.1371C33.5578 14.1372 33.5536 14.1372 33.5494 14.1372C32.4776 14.1446 31.4457 13.8153 30.6769 13.0679C30.6179 13.0105 30.5611 12.9513 30.5065 12.8904V12.8972C30.5065 13.4853 30.0298 13.962 29.4418 13.962H28.0165C27.4285 13.962 26.9518 13.4853 26.9518 12.8972V9.78981C26.9518 9.6715 26.9393 9.57707 26.922 9.5079C26.9166 9.48603 26.9111 9.46818 26.906 9.45387C26.887 9.45599 26.8777 9.46021 26.874 9.46203C26.8674 9.46522 26.8542 9.47305 26.8367 9.4943C26.7978 9.54131 26.745 9.64885 26.745 9.81308V12.8973C26.745 13.4853 26.2683 13.962 25.6802 13.962H24.2553C23.6673 13.962 23.1906 13.4853 23.1906 12.8973V9.81308C23.1906 9.60288 23.1333 9.47875 23.1022 9.43654C23.1004 9.4342 23.0989 9.43228 23.0976 9.43071C23.0926 9.43009 23.0851 9.42954 23.0749 9.42954C23.0583 9.42954 23.0489 9.43134 23.045 9.43225C23.0412 9.43315 23.0395 9.43396 23.0387 9.43437C23.0379 9.43475 23.027 9.44022 23.0095 9.4625C22.9687 9.51437 22.9135 9.63452 22.9135 9.81308V12.8973C22.9135 13.4853 22.4367 13.962 21.8487 13.962H20.4237C19.8356 13.962 19.3589 13.4853 19.3589 12.8973V7.12627C19.3589 6.53821 19.8356 6.0615 20.4237 6.0615H21.7436C21.9171 6.0615 22.0821 6.1033 22.228 6.17798C22.6315 6.0228 23.0404 5.96828 23.3668 5.96828C23.9517 5.96828 24.6002 6.11925 25.1433 6.51439C25.2501 6.44276 25.3611 6.37838 25.4763 6.32128C25.9898 6.06691 26.5174 5.99159 27.0002 5.99159C28.0438 5.99159 28.9815 6.32053 29.6382 7.07639C29.82 7.28568 29.9689 7.51481 30.0889 7.75903C30.2614 7.47089 30.4714 7.2096 30.7172 6.97915C31.4929 6.25186 32.5238 5.92674 33.5814 5.93334C34.0353 5.93385 34.5063 6.02511 34.9402 6.20782C35.0937 6.1222 35.2705 6.07358 35.458 6.07358H36.825C37.0482 6.07358 37.2554 6.14228 37.4266 6.2597C37.5977 6.14228 37.8049 6.07357 38.0282 6.07357H39.3602C39.5668 6.07357 39.7608 6.13271 39.9252 6.23577C40.3943 6.0332 40.8855 5.94489 41.3227 5.94489C42.3952 5.94489 43.3095 6.31037 43.9939 6.91301C44.0927 6.42716 44.5223 6.06151 45.0373 6.06151H45.1995V5.44432C45.1995 4.89897 45.6115 4.44177 46.154 4.38528L46.7146 4.32689C47.0146 4.29565 47.3137 4.39309 47.5377 4.59499C47.7618 4.7969 47.8897 5.08434 47.8897 5.38593V6.06151H48.7874C48.9149 6.06151 49.0372 6.08394 49.1506 6.12506C48.9741 5.87294 48.8793 5.56857 48.8793 5.24552C48.8793 4.79987 49.0597 4.38987 49.3861 4.10357C49.6918 3.83537 50.067 3.72536 50.4055 3.72536C50.7439 3.72536 51.1192 3.83537 51.4249 4.10357C51.4295 4.10762 51.4341 4.11169 51.4386 4.11578C51.6307 3.83775 51.9517 3.65558 52.3152 3.65558H52.8878ZM49.0432 8.63914C48.9612 8.65934 48.8755 8.67006 48.7874 8.67006H47.8897V11.1217C47.8897 11.2342 47.8939 11.3211 47.9009 11.3881C47.9723 11.3847 48.1194 11.3535 48.3151 11.2596C48.5429 11.1503 48.8009 11.1261 49.0432 11.189V8.63914ZM50.1079 12.8972H50.6798V7.10287H50.1079V12.8972ZM48.7874 7.60529V7.12628H46.8249V5.38593L46.2643 5.44432V7.12628H45.0373V7.60529H46.2643V11.1217C46.2643 12.2546 46.6614 12.9789 47.888 12.9789C47.9057 12.9789 47.9235 12.9786 47.9412 12.9781C48.1658 12.9711 48.3906 12.9202 48.6154 12.8392C48.735 12.7961 48.8547 12.7445 48.9743 12.6865L48.7756 12.2196C48.7681 12.2232 48.7606 12.2268 48.753 12.2303C48.6811 12.2641 48.6078 12.295 48.5341 12.3224C48.3152 12.4036 48.0923 12.4532 47.888 12.4532C46.9887 12.4532 46.8249 11.9041 46.8249 11.1217V7.60529H48.7874ZM45.1995 8.67006V8.8947C45.1796 8.81892 45.1577 8.74402 45.1339 8.67006H45.1995ZM52.3152 4.72035V12.8973H52.8878V4.72035H52.3152ZM40.4367 7.17648C40.058 7.32315 39.7037 7.5703 39.4533 7.93263L39.3602 7.13834H38.0282V15.304L39.4533 15.3041V12.2196C39.6925 12.5885 40.0997 12.8057 40.518 12.9225C40.8149 13.0054 41.1173 13.0377 41.3692 13.0377C43.2149 13.0377 44.2782 11.706 44.2782 10.0235C44.2782 8.32995 43.0977 7.00965 41.3227 7.00965C41.0374 7.00965 40.7298 7.06299 40.4367 7.17648ZM35.458 7.13835L35.4109 7.93264C35.3389 7.80653 35.2471 7.69063 35.1394 7.58657C34.9372 7.39111 34.679 7.2374 34.3915 7.13616C34.1371 7.0466 33.8597 6.99811 33.5776 6.99811C31.8954 6.98642 30.575 8.02602 30.575 10.0118C30.575 12.0329 31.837 13.0842 33.5421 13.0725C33.8078 13.0675 34.1175 13.0087 34.4124 12.8935C34.6659 12.7945 34.9086 12.6539 35.103 12.47C35.2294 12.3506 35.3354 12.2129 35.4109 12.0565L35.4812 12.8973H36.825V7.13835H35.458ZM35.0616 8.93848C34.9209 8.73802 34.7348 8.56875 34.5032 8.45086C34.4921 8.44522 34.4809 8.4397 34.4696 8.4343C34.2533 8.33074 33.9986 8.27119 33.7058 8.27119C32.7595 8.27119 32.0002 8.91387 32.0002 10.0118C32.0002 11.1095 32.7595 11.7641 33.7058 11.7641C33.9855 11.7641 34.2304 11.7097 34.4404 11.6146C34.4498 11.6103 34.4591 11.606 34.4684 11.6015C34.7391 11.4723 34.95 11.2742 35.1012 11.0377C35.4962 10.4196 35.483 9.53905 35.0616 8.93848ZM25.8674 7.31834C25.5752 7.48148 25.3081 7.73338 25.0729 8.10766C24.9092 7.71053 24.6551 7.44185 24.3556 7.27246C24.0563 7.10315 23.7117 7.03305 23.3668 7.03305C23.1903 7.03305 23.0017 7.05479 22.8169 7.10375C22.5361 7.17814 22.2641 7.31536 22.0569 7.53463C21.9767 7.61953 21.9062 7.71673 21.8487 7.82734L21.7436 7.12627H20.4237V12.8973H21.8487V9.81308C21.8487 9.45588 21.9494 9.11423 22.1364 8.85256C22.2849 8.64459 22.488 8.48714 22.7383 8.41254C22.8425 8.38147 22.9549 8.36477 23.0749 8.36477C23.8581 8.36477 24.2553 9.05375 24.2553 9.81308V12.8973H25.6802V9.81308C25.6802 9.05375 26.1592 8.38782 26.9307 8.38782C27.7012 8.38782 28.0165 9.03083 28.0165 9.78981V12.8972H29.4418V9.78981C29.4418 8.06083 28.6359 7.05635 27.0002 7.05635C26.5949 7.05635 26.2136 7.12505 25.8674 7.31834ZM61.4269 12.8973H61.9993V9.53312C61.9993 9.42624 62.0078 9.32129 62.0244 9.21897C62.0768 8.89413 62.2095 8.59584 62.4027 8.34644C62.4311 8.30982 62.4607 8.27425 62.4917 8.23981C62.5222 8.20582 62.5539 8.17292 62.5868 8.14118C62.7215 8.01114 62.8757 7.90064 63.045 7.81436C63.3011 7.6839 63.592 7.60882 63.9036 7.60532C63.9036 7.60532 63.9036 7.60532 63.9036 7.60532C63.9084 7.60532 63.9133 7.60534 63.9181 7.60537C64.1968 7.6073 64.4758 7.66493 64.7344 7.79126C64.7789 7.81302 64.8228 7.83682 64.866 7.86273C64.8723 7.86646 64.8785 7.87023 64.8847 7.87405L65.1419 7.40698C65.0818 7.37059 65.0209 7.33702 64.9592 7.30634C64.6884 7.17161 64.4033 7.09232 64.1107 7.0723C64.042 7.06761 63.973 7.06617 63.9036 7.06805C63.9036 7.06805 63.9036 7.06805 63.9036 7.06805C63.9016 7.06805 63.8996 7.06805 63.8976 7.06805C63.6106 7.0687 63.3112 7.11552 63.0315 7.21897C62.8388 7.29026 62.6553 7.38846 62.4917 7.51697C62.2852 7.67904 62.1102 7.88934 61.9877 8.15473L61.9644 7.12628H61.4269V12.8973ZM54.8771 12.0485C55.4168 12.6748 56.2074 13.07 57.0883 13.07C57.0883 13.07 57.0883 13.07 57.0883 13.07C57.9222 13.07 58.6752 12.7159 59.2109 12.1468C59.4371 11.9065 59.6246 11.6279 59.7632 11.3214C59.7752 11.2948 59.7869 11.268 59.7981 11.241L59.3296 11.0373C59.3286 11.0396 59.3277 11.0419 59.3267 11.0442C59.3183 11.0641 59.3097 11.0839 59.3008 11.1035C58.9149 11.9573 58.0695 12.55 57.0884 12.55C57.0883 12.55 57.0884 12.55 57.0884 12.55C56.4745 12.55 55.9137 12.3179 55.4854 11.9349C55.4681 11.9194 55.4511 11.9037 55.4342 11.8878C55.2969 11.7579 55.1743 11.612 55.0692 11.4531C54.9773 11.3141 54.8987 11.1652 54.8354 11.0082L54.8323 11.0083L54.8349 11.0076L54.8352 11.0075L54.8348 11.0068L54.8345 11.006L54.8347 11.0059L54.8354 11.0058L59.5065 9.76596L59.5067 9.76767L59.5071 9.77124L60.0043 9.63966C59.9756 9.43091 59.926 9.22903 59.8576 9.03632C59.8439 8.99752 59.8293 8.9591 59.8141 8.92106C59.7873 8.85421 59.7582 8.78857 59.7269 8.72423C59.7106 8.69081 59.6938 8.65773 59.6763 8.62502C59.1774 7.68847 58.2056 7.05284 57.0884 7.05284C55.4619 7.05284 54.1434 8.39985 54.1434 10.0614C54.1434 10.0614 54.1434 10.0614 54.1434 10.0614C54.1434 10.1057 54.1444 10.1498 54.1462 10.1936C54.1462 10.1937 54.1462 10.1936 54.1462 10.1936C54.1511 10.3082 54.1622 10.4213 54.1793 10.5322C54.2143 10.7598 54.2743 10.9788 54.3563 11.1864C54.3564 11.1867 54.3565 11.187 54.3566 11.1873C54.3582 11.1913 54.3598 11.1953 54.3614 11.1993C54.3633 11.2042 54.3653 11.209 54.3672 11.2139C54.3677 11.2151 54.3682 11.2163 54.3688 11.2176C54.4087 11.3156 54.4536 11.411 54.5031 11.5035C54.6073 11.6979 54.7318 11.8793 54.8738 12.0446C54.8749 12.0459 54.876 12.0472 54.8771 12.0485ZM54.6829 10.454C54.6815 10.4454 54.6803 10.4368 54.679 10.4281C54.6782 10.4224 54.6774 10.4166 54.6766 10.4109C54.6762 10.4083 54.6759 10.4057 54.6755 10.4032C54.6604 10.2915 54.6524 10.1774 54.6524 10.0615C54.6524 10.0614 54.6524 10.0615 54.6524 10.0615C54.6524 10.0248 54.6532 9.98834 54.6547 9.95211C54.6638 9.7373 54.6996 9.52955 54.7587 9.33223C55.0638 8.31359 55.9915 7.57283 57.0884 7.57283C57.7431 7.57283 58.3375 7.83676 58.7752 8.26614C58.9235 8.4116 59.0538 8.57605 59.1624 8.75566C59.221 8.85263 59.2733 8.95402 59.3187 9.05923C59.3189 9.05981 59.3192 9.06039 59.3194 9.06098C59.3402 9.1092 59.3595 9.15822 59.3773 9.20799L54.6829 10.454ZM56.248 8.93693L57.3072 8.65578C57.2357 8.6438 57.1626 8.6376 57.0884 8.6376C56.7766 8.6376 56.483 8.74811 56.248 8.93693ZM57.1958 11.4809L57.6505 11.3602C57.5091 11.4263 57.3556 11.468 57.1958 11.4809ZM50.0203 4.78702C49.867 4.92154 49.8021 5.10375 49.8021 5.24552C49.8021 5.38757 49.8672 5.56988 50.0205 5.70439C50.1532 5.82079 50.2977 5.8549 50.4055 5.8549C50.5132 5.8549 50.6578 5.82079 50.7904 5.70439C50.9438 5.56988 51.0088 5.38757 51.0088 5.24552C51.0088 5.10375 50.9439 4.92154 50.7907 4.78702C50.658 4.67056 50.5134 4.63638 50.4055 4.63638C50.2976 4.63638 50.153 4.67056 50.0203 4.78702ZM33.242 10.5378C33.3301 10.6238 33.4797 10.6993 33.7058 10.6993C33.9633 10.6993 34.0855 10.6111 34.1585 10.5258C34.2508 10.4181 34.3231 10.2379 34.3231 10.0176C34.3231 9.79734 34.2508 9.61717 34.1585 9.50942C34.0855 9.42415 33.9633 9.33596 33.7058 9.33596C33.4742 9.33596 33.3242 9.41213 33.2383 9.49524C33.1595 9.57144 33.065 9.71963 33.065 10.0118C33.065 10.3045 33.16 10.4577 33.242 10.5378ZM41.6471 9.59995C41.5842 9.53338 41.4634 9.4526 41.2176 9.4526C40.9714 9.4526 40.8506 9.53345 40.7877 9.60001C40.716 9.67575 40.6466 9.81246 40.6466 10.0235C40.6466 10.3652 40.866 10.5945 41.2176 10.5945C41.5691 10.5945 41.7882 10.3656 41.7882 10.0235C41.7882 9.81246 41.7188 9.67572 41.6471 9.59995ZM41.2176 8.38783C42.2455 8.38783 42.853 9.12405 42.853 10.0235C42.853 10.9227 42.1876 11.6593 41.2176 11.6593C40.2479 11.6593 39.5818 10.9227 39.5818 10.0235C39.5818 9.12405 40.1893 8.38783 41.2176 8.38783Z" fill="black" fill-opacity="0.3"/>
</svg>
