<?xml version="1.0" standalone="no"?>
<!DOCTYPE svg PUBLIC "-//W3C//DTD SVG 20010904//EN"
 "http://www.w3.org/TR/2001/REC-SVG-20010904/DTD/svg10.dtd">
<svg version="1.0" xmlns="http://www.w3.org/2000/svg"
 width="1024.000000pt" height="1024.000000pt" viewBox="0 0 1024.000000 1024.000000"
 preserveAspectRatio="xMidYMid meet">
<metadata>
Created by potrace 1.14, written by Peter Selinger 2001-2017
</metadata>
<g transform="translate(0.000000,1024.000000) scale(0.100000,-0.100000)"
fill="#000000" stroke="none">
<path d="M8270 9698 l-1145 -340 -1145 311 -1145 311 -1114 -314 -1115 -314
-1245 303 c-685 167 -1247 303 -1248 301 -2 -2 175 -533 392 -1181 l396 -1179
-311 -1064 -311 -1063 296 -1191 c162 -655 295 -1201 295 -1213 0 -13 -128
-567 -285 -1231 -156 -665 -280 -1211 -275 -1214 4 -3 613 -76 1352 -164
l1343 -158 893 285 893 285 1135 -334 c624 -184 1145 -334 1157 -334 12 0 544
139 1182 308 l1159 308 283 1149 c155 633 282 1160 282 1171 1 12 -136 513
-304 1113 l-306 1091 376 1107 c228 670 375 1117 373 1132 -2 15 -157 574
-343 1243 -262 939 -343 1218 -355 1217 -8 -1 -530 -154 -1160 -341z m-2095
-1938 c570 -66 1057 -405 1313 -916 133 -265 191 -538 179 -839 -31 -778 -573
-1422 -1334 -1586 -153 -33 -438 -38 -602 -10 -187 32 -415 114 -557 202 -29
17 -30 17 -30 1 1 -11 -378 -434 -893 -1000 l-894 -982 -29 18 c-161 94 -462
375 -560 522 l-57 85 167 166 c92 91 518 512 947 935 429 423 781 772 783 776
2 4 -19 47 -47 95 -89 157 -156 338 -198 533 -15 69 -18 130 -18 320 1 204 4
248 23 337 77 352 236 640 489 883 60 58 149 134 198 169 100 70 309 176 426
215 217 73 474 101 694 76z"/>
</g>
</svg>
