<svg xmlns="http://www.w3.org/2000/svg" xmlns:xlink="http://www.w3.org/1999/xlink" width="255.082" height="251.184"><defs><linearGradient id="L"><stop offset="0"/><stop offset="1" stop-opacity="0"/></linearGradient><linearGradient id="s"><stop offset="0" stop-color="#fff"/><stop offset=".5" stop-color="#fff" stop-opacity=".931"/><stop offset="1" stop-color="#fff" stop-opacity="0"/></linearGradient><linearGradient id="v"><stop offset="0" stop-color="#fff"/><stop offset="1" stop-color="#fff" stop-opacity="0"/></linearGradient><linearGradient id="h"><stop offset="0" stop-color="#f9e295"/><stop offset=".125" stop-color="#f7dd84"/><stop offset=".206" stop-color="#fff"/><stop offset=".301" stop-color="#f4ce51"/><stop offset=".341" stop-color="#f9e7aa"/><stop offset="1" stop-color="#efbb0e"/></linearGradient><linearGradient id="e"><stop offset="0" stop-color="#2d3335"/><stop offset=".5" stop-color="#4c464a"/><stop offset="1" stop-color="#384042"/></linearGradient><linearGradient id="d"><stop offset="0" stop-color="#d0e9f2" stop-opacity="0"/><stop offset=".839" stop-color="#d0e9f2" stop-opacity="0"/><stop offset=".943" stop-color="#d0e9f2" stop-opacity=".282"/><stop offset="1" stop-color="#d0e9f2"/></linearGradient><linearGradient id="c"><stop offset="0"/><stop offset="1" stop-opacity="0"/></linearGradient><linearGradient xlink:href="#a" id="ad" x1="94.25" y1="-94.672" x2="9" y2="-179.969" gradientUnits="userSpaceOnUse"/><linearGradient id="a"><stop offset="0"/><stop offset="1" stop-opacity="0"/></linearGradient><linearGradient xlink:href="#a" id="ae" x1="50.75" y1="-114.438" x2="35.75" y2="-30.438" gradientUnits="userSpaceOnUse"/><linearGradient xlink:href="#a" id="af" x1="77.625" y1="-163.125" x2="115.25" y2="-74.625" gradientUnits="userSpaceOnUse"/><linearGradient xlink:href="#a" id="ag" x1="56.5" y1="-50.438" x2="125.719" y2="7.063" gradientUnits="userSpaceOnUse"/><linearGradient xlink:href="#a" id="ah" x1="35" y1="-163.297" x2="180.75" y2="-146.797" gradientUnits="userSpaceOnUse"/><linearGradient xlink:href="#a" id="ai" x1="57" y1="-141.109" x2="179" y2="-41.609" gradientUnits="userSpaceOnUse"/><linearGradient xlink:href="#a" id="aj" x1="156" y1="-26.5" x2="208.25" y2="39.75" gradientUnits="userSpaceOnUse"/><linearGradient xlink:href="#a" id="ak" x1="142.75" y1="-169.297" x2="235" y2="-77.297" gradientUnits="userSpaceOnUse"/><linearGradient xlink:href="#b" id="V" x1="214.25" y1="-161.359" x2="166.5" y2="-113.719" gradientUnits="userSpaceOnUse"/><linearGradient id="b"><stop offset="0" stop-color="#fff"/><stop offset="1" stop-color="#fff" stop-opacity="0"/></linearGradient><linearGradient xlink:href="#b" id="W" x1="53.25" y1="-126.5" x2="57.656" y2="-62.469" gradientUnits="userSpaceOnUse"/><linearGradient xlink:href="#b" id="X" x1="39.5" y1="6.625" x2="75.719" y2="-17.125" gradientUnits="userSpaceOnUse"/><linearGradient xlink:href="#b" id="Y" x1="102" y1="-162.344" x2="85.313" y2="-121.438" gradientUnits="userSpaceOnUse"/><linearGradient xlink:href="#b" id="Z" x1="117.75" y1="-78.094" x2="63.5" y2="-14.75" gradientUnits="userSpaceOnUse"/><linearGradient xlink:href="#b" id="aa" x1="180.687" y1="-125.125" x2="133.937" y2="-60.75" gradientUnits="userSpaceOnUse"/><linearGradient xlink:href="#b" id="ab" x1="170.75" y1="-23.5" x2="130.219" y2="33.375" gradientUnits="userSpaceOnUse"/><linearGradient y2="-5.656" x2="181.75" y1="-76" x1="213.5" gradientUnits="userSpaceOnUse" id="ac" xlink:href="#b"/><linearGradient xlink:href="#c" id="U" x1="210.172" y1="72.064" x2="9" y2="-213.253" gradientUnits="userSpaceOnUse" gradientTransform="translate(0 -10)"/><clipPath id="S"><path d="M9 12.25s7.5 13 11.75 27.75S27 65.5 27 65.5s-5.5 12.75-8.25 24.75-5.75 23-5.75 23 5.75 16 9.25 30S26 167.5 26 167.5s-4 10.25-7.5 24.25-5 30.75-5 30.75 9.25-2 28.5 1.25 32.25 6 32.25 6 12.75-2.75 24-6.25 16.25-6.5 16.25-6.5 5.5.5 22.5 6.25 29.25 8.5 29.25 8.5 13-2.75 26-5.75 26.5-8 26.5-8-.75-5 4.25-24.5 8.75-28 8.75-28-.5-4.5-3.75-19.75S218 116 218 116s1.75-10.5 6.75-23.75S235 65.5 235 65.5s-4.75-15.25-7.5-29.75S219.25 10 219.25 10 195 19 187.5 20.5s-21 5.25-21 5.25-9.75-4.25-22-8.5-29.75-5.5-29.75-5.5-3.25 3.5-22 8-27.5 5.75-27.5 5.75-18.5-9-31.5-11.5-24-2-24.75-1.75z" fill="#ceeeab"/></clipPath><clipPath id="T"><path d="M9 12.25s7.5 13 11.75 27.75S27 65.5 27 65.5s-5.5 12.75-8.25 24.75-5.75 23-5.75 23 5.75 16 9.25 30S26 167.5 26 167.5s-4 10.25-7.5 24.25-5 30.75-5 30.75 9.25-2 28.5 1.25 32.25 6 32.25 6 12.75-2.75 24-6.25 16.25-6.5 16.25-6.5 5.5.5 22.5 6.25 29.25 8.5 29.25 8.5 13-2.75 26-5.75 26.5-8 26.5-8-.75-5 4.25-24.5 8.75-28 8.75-28-.5-4.5-3.75-19.75S218 116 218 116s1.75-10.5 6.75-23.75S235 65.5 235 65.5s-4.75-15.25-7.5-29.75S219.25 10 219.25 10 195 19 187.5 20.5s-21 5.25-21 5.25-9.75-4.25-22-8.5-29.75-5.5-29.75-5.5-3.25 3.5-22 8-27.5 5.75-27.5 5.75-18.5-9-31.5-11.5-24-2-24.75-1.75z" fill="#ceeeab"/></clipPath><clipPath id="R"><path d="M9 12.25s7.5 13 11.75 27.75S27 65.5 27 65.5s-5.5 12.75-8.25 24.75-5.75 23-5.75 23 5.75 16 9.25 30S26 167.5 26 167.5s-4 10.25-7.5 24.25-5 30.75-5 30.75 9.25-2 28.5 1.25 32.25 6 32.25 6 12.75-2.75 24-6.25 16.25-6.5 16.25-6.5 5.5.5 22.5 6.25 29.25 8.5 29.25 8.5 13-2.75 26-5.75 26.5-8 26.5-8-.75-5 4.25-24.5 8.75-28 8.75-28-.5-4.5-3.75-19.75S218 116 218 116s1.75-10.5 6.75-23.75S235 65.5 235 65.5s-4.75-15.25-7.5-29.75S219.25 10 219.25 10 195 19 187.5 20.5s-21 5.25-21 5.25-9.75-4.25-22-8.5-29.75-5.5-29.75-5.5-3.25 3.5-22 8-27.5 5.75-27.5 5.75-18.5-9-31.5-11.5-24-2-24.75-1.75z" fill="#ceeeab"/></clipPath><linearGradient id="f"><stop offset="0" stop-color="#2d3335"/><stop offset=".5" stop-color="#4c464a"/><stop offset="1" stop-color="#384042"/></linearGradient><linearGradient id="g"><stop offset="0" stop-color="#2d3335"/><stop offset=".5" stop-color="#4c464a"/><stop offset="1" stop-color="#384042"/></linearGradient><linearGradient id="i"><stop offset="0" stop-color="#f9e295"/><stop offset=".125" stop-color="#f7dd84"/><stop offset=".206" stop-color="#fff"/><stop offset=".301" stop-color="#f4ce51"/><stop offset=".341" stop-color="#f9e7aa"/><stop offset="1" stop-color="#efbb0e"/></linearGradient><linearGradient id="j"><stop offset="0" stop-color="#f9e295"/><stop offset=".125" stop-color="#f7dd84"/><stop offset=".206" stop-color="#fff"/><stop offset=".301" stop-color="#f4ce51"/><stop offset=".341" stop-color="#f9e7aa"/><stop offset="1" stop-color="#efbb0e"/></linearGradient><linearGradient id="k"><stop offset="0" stop-color="#f9e295"/><stop offset=".125" stop-color="#f7dd84"/><stop offset=".206" stop-color="#fff"/><stop offset=".301" stop-color="#f4ce51"/><stop offset=".341" stop-color="#f9e7aa"/><stop offset="1" stop-color="#efbb0e"/></linearGradient><linearGradient id="l"><stop offset="0" stop-color="#f9e295"/><stop offset=".125" stop-color="#f7dd84"/><stop offset=".206" stop-color="#fff"/><stop offset=".301" stop-color="#f4ce51"/><stop offset=".341" stop-color="#f9e7aa"/><stop offset="1" stop-color="#efbb0e"/></linearGradient><linearGradient id="q"><stop offset="0" stop-color="#d0e9f2" stop-opacity="0"/><stop offset=".839" stop-color="#d0e9f2" stop-opacity="0"/><stop offset=".943" stop-color="#d0e9f2" stop-opacity=".282"/><stop offset="1" stop-color="#d0e9f2"/></linearGradient><linearGradient id="p"><stop offset="0" stop-color="#2d3335"/><stop offset=".5" stop-color="#4c464a"/><stop offset="1" stop-color="#384042"/></linearGradient><linearGradient id="o"><stop offset="0" stop-color="#f9e295"/><stop offset=".125" stop-color="#f7dd84"/><stop offset=".206" stop-color="#fff"/><stop offset=".301" stop-color="#f4ce51"/><stop offset=".341" stop-color="#f9e7aa"/><stop offset="1" stop-color="#efbb0e"/></linearGradient><linearGradient id="n"><stop offset="0" stop-color="#2d3335"/><stop offset=".5" stop-color="#4c464a"/><stop offset="1" stop-color="#384042"/></linearGradient><linearGradient id="m"><stop offset="0" stop-color="#f9e295"/><stop offset=".125" stop-color="#f7dd84"/><stop offset=".206" stop-color="#fff"/><stop offset=".301" stop-color="#f4ce51"/><stop offset=".341" stop-color="#f9e7aa"/><stop offset="1" stop-color="#efbb0e"/></linearGradient><linearGradient xlink:href="#m" id="ao" gradientUnits="userSpaceOnUse" gradientTransform="rotate(45 104.976 51.259) scale(1.39197)" x1="120" y1="186.5" x2="136" y2="186.5"/><linearGradient xlink:href="#n" id="as" gradientUnits="userSpaceOnUse" gradientTransform="rotate(135 332.786 -39.719) scale(2.78394 -2.46367)" x1="123" y1="150.375" x2="133" y2="150.375"/><linearGradient xlink:href="#o" id="ar" gradientUnits="userSpaceOnUse" gradientTransform="rotate(45 217.553 97.89) scale(1.39197)" x1="120" y1="186.5" x2="136" y2="186.5"/><linearGradient xlink:href="#p" id="aq" gradientUnits="userSpaceOnUse" gradientTransform="scale(-1.39197 1.39197) rotate(-45 -28.291 379.344)" x1="123" y1="150.375" x2="133" y2="150.375"/><linearGradient xlink:href="#p" id="ap" gradientUnits="userSpaceOnUse" gradientTransform="rotate(45 217.553 97.89) scale(1.39197)" x1="128" y1="134.359" x2="130.875" y2="143.359"/><radialGradient xlink:href="#q" id="aw" gradientUnits="userSpaceOnUse" gradientTransform="scale(1.42159 -1.42159) rotate(-45 -51.091 19.464)" cx="128" cy="86" fx="128" fy="86" r="47"/><linearGradient id="r"><stop offset="0" stop-color="#2d3335"/><stop offset=".5" stop-color="#4c464a"/><stop offset="1" stop-color="#384042"/></linearGradient><linearGradient y2="150.375" x2="133" y1="167.727" x1="108.003" gradientTransform="rotate(135 332.786 -39.719) scale(2.78394 -2.46367)" gradientUnits="userSpaceOnUse" id="at" xlink:href="#c"/><linearGradient id="t"><stop offset="0" stop-color="#fff"/><stop offset="1" stop-color="#fff" stop-opacity="0"/></linearGradient><linearGradient id="u"><stop offset="0" stop-color="#d0e9f2" stop-opacity="0"/><stop offset=".839" stop-color="#d0e9f2" stop-opacity="0"/><stop offset=".943" stop-color="#d0e9f2" stop-opacity=".282"/><stop offset="1" stop-color="#d0e9f2"/></linearGradient><linearGradient xlink:href="#v" id="au" x1="126.643" y1="29.815" x2="179.961" y2="137.196" gradientUnits="userSpaceOnUse" gradientTransform="translate(0 -10)"/><linearGradient id="w"><stop offset="0" stop-color="#fff"/><stop offset="1" stop-color="#fff" stop-opacity="0"/></linearGradient><linearGradient gradientTransform="matrix(-.50295 .1984 .1972 -.43254 276.156 123.417)" y2="137.196" x2="179.961" y1="29.815" x1="126.643" gradientUnits="userSpaceOnUse" id="av" xlink:href="#w"/><linearGradient id="x"><stop offset="0" stop-color="#fff"/><stop offset="1" stop-color="#fff" stop-opacity="0"/></linearGradient><linearGradient id="y"><stop offset="0" stop-color="#fff"/><stop offset="1" stop-color="#fff" stop-opacity="0"/></linearGradient><linearGradient id="z"><stop offset="0" stop-color="#fff"/><stop offset="1" stop-color="#fff" stop-opacity="0"/></linearGradient><linearGradient id="A"><stop offset="0" stop-color="#fff"/><stop offset=".5" stop-color="#fff" stop-opacity=".931"/><stop offset="1" stop-color="#fff" stop-opacity="0"/></linearGradient><linearGradient id="B"><stop offset="0" stop-color="#fff"/><stop offset="1" stop-color="#fff" stop-opacity="0"/></linearGradient><filter id="am" color-interpolation-filters="sRGB"><feGaussianBlur stdDeviation="4.287"/></filter><linearGradient id="C"><stop offset="0"/><stop offset="1" stop-opacity="0"/></linearGradient><linearGradient id="D"><stop offset="0"/><stop offset="1" stop-opacity="0"/></linearGradient><linearGradient id="E"><stop offset="0"/><stop offset="1" stop-opacity="0"/></linearGradient><linearGradient id="F"><stop offset="0"/><stop offset="1" stop-opacity="0"/></linearGradient><linearGradient id="G"><stop offset="0" stop-color="#fff"/><stop offset="1" stop-color="#fff" stop-opacity="0"/></linearGradient><linearGradient id="H"><stop offset="0"/><stop offset="1" stop-opacity="0"/></linearGradient><linearGradient id="I"><stop offset="0" stop-color="#d0e9f2" stop-opacity="0"/><stop offset=".839" stop-color="#d0e9f2" stop-opacity="0"/><stop offset=".943" stop-color="#d0e9f2" stop-opacity=".282"/><stop offset="1" stop-color="#d0e9f2"/></linearGradient><radialGradient xlink:href="#I" id="J" gradientUnits="userSpaceOnUse" gradientTransform="matrix(.80254 .77986 .80254 -.82522 -10.402 73.423)" cx="128" cy="86" fx="128" fy="86" r="47"/><filter id="O" color-interpolation-filters="sRGB"><feGaussianBlur stdDeviation="6.311"/></filter><linearGradient id="K"><stop offset="0"/><stop offset="1" stop-opacity="0"/></linearGradient><filter id="Q" color-interpolation-filters="sRGB"><feGaussianBlur stdDeviation="4.457"/></filter><linearGradient xlink:href="#L" id="P" x1="122" y1="245.448" x2="122" y2="4.302" gradientUnits="userSpaceOnUse"/><clipPath id="al"><path d="M9 22.578s7.5 12.394 11.75 26.8S27 74.373 27 74.373s-5.5 13.194-8.25 25.417C16 112.012 13 123.255 13 123.255s5.75 15.535 9.25 29.252c3.5 13.717 3.75 23.946 3.75 23.946s-4 10.574-7.5 24.857-5 31.154-5 31.154 9.25-2.748 28.5-1.055c19.25 1.694 32.25 3.392 32.25 3.392s12.75-3.781 24-8.19c11.25-4.41 16.25-7.815 16.25-7.815s5.5.055 22.5 4.43 29.25 6.134 29.25 6.134 13-3.801 26-7.852c13-4.052 26.5-10.144 26.5-10.144s-.75-4.939 4.25-24.843c5-19.905 8.75-28.708 8.75-28.708s-.514-4.455-3.75-19.447c-1.75-8.108-2.25-4.068-2.25-4.068s16.264-26.155 16.5-40.334C242.5 78.944 235 57.55 235 57.55s-4.75-14.866-7.5-29.143c-2.75-14.278-8.25-25.083-8.25-25.083S195 14.285 187.5 16.392c-7.5 2.106-21 6.948-21 6.948s-9.75-3.461-22-6.72c-12.25-3.26-29.75-3.094-29.75-3.094s-3.25 3.762-22 9.779c-18.75 6.016-27.5 7.974-27.5 7.974s-18.5-7.504-31.5-8.952c-13-1.449-24-.06-24.75.251z" opacity=".039" fill="url(#M)"/></clipPath><linearGradient xlink:href="#E" id="M" gradientUnits="userSpaceOnUse" gradientTransform="matrix(1 -.08088 0 1 0 203.056)" x1="210.172" y1="72.064" x2="9" y2="-213.253"/><clipPath id="an"><path d="M496.922 444.147c70.843 70.844 185.704 70.844 256.547 0 70.844-70.843 70.844-185.704 0-256.547-70.843-70.844-185.704-70.844-256.547 0-70.844 70.843-70.844 185.704 0 256.547z" fill="url(#N)"/></clipPath><radialGradient xlink:href="#I" id="N" gradientUnits="userSpaceOnUse" gradientTransform="scale(3.85971 -3.85971) rotate(-45 -57.61 -38.936)" cx="128" cy="86" fx="128" fy="86" r="47"/></defs><g fill-rule="evenodd" stroke="#000"><path d="M32.578 33.691L80.11 45.27l42.412-11.943 43.51 11.822 44.12-13.041 13.162 47.166-14.382 42.29 11.7 41.804-10.846 44.241-44.607 11.822-43.51-12.797-34.125 10.847-51.31-6.094 10.97-46.556-11.335-45.704L47.69 78.663z" fill="#ceeeaa" stroke-width="3.38"/><path d="M114.627 132.401L62.61 183.38c3.12 5.577 5.68 6.774 9.715 9.257l49.202-53.09" stroke-width="1.69"/><path d="M185.915 106.61c0 22.478-18.106 40.7-40.442 40.7s-40.442-18.222-40.442-40.7c0-22.477 18.106-40.699 40.442-40.699s40.442 18.222 40.442 40.7z" fill="#fff" stroke-width="3.802"/></g></svg>